%TF.GenerationSoftware,KiCad,Pcbnew,8.0.2-rc1*%
%TF.CreationDate,2024-12-28T13:04:19+01:00*%
%TF.ProjectId,Carte-Principale,43617274-652d-4507-9269-6e636970616c,V1*%
%TF.SameCoordinates,Original*%
%TF.FileFunction,Drillmap*%
%TF.FilePolarity,Positive*%
%FSLAX45Y45*%
G04 Gerber Fmt 4.5, Leading zero omitted, Abs format (unit mm)*
G04 Created by KiCad (PCBNEW 8.0.2-rc1) date 2024-12-28 13:04:19*
%MOMM*%
%LPD*%
G01*
G04 APERTURE LIST*
%ADD10C,0.050000*%
%ADD11C,0.200000*%
%ADD12C,0.320000*%
G04 APERTURE END LIST*
D10*
X20506000Y-5543600D02*
G75*
G02*
X20656000Y-5393600I150000J0D01*
G01*
X10056000Y-12400000D02*
X10066110Y-12400000D01*
X20856000Y-14800000D02*
X10056000Y-14800000D01*
X21006000Y-12558000D02*
X21006000Y-14650000D01*
X10017482Y-5384800D02*
X9906000Y-5384800D01*
X10056000Y-2900000D02*
X20856000Y-2900000D01*
X20856000Y-2900000D02*
G75*
G02*
X21006000Y-3050000I0J-150000D01*
G01*
X20506000Y-5543600D02*
X20506000Y-12258000D01*
X10056000Y-14800000D02*
G75*
G02*
X9906000Y-14650000I0J150000D01*
G01*
X9906000Y-14650000D02*
X9906000Y-12550000D01*
X21006000Y-14650000D02*
G75*
G02*
X20856000Y-14800000I-150000J0D01*
G01*
X10017482Y-5384800D02*
G75*
G02*
X10167476Y-5533714I-2J-150000D01*
G01*
X20856000Y-5393600D02*
X20656000Y-5393600D01*
X9906000Y-5384800D02*
X9906000Y-3050000D01*
X20856000Y-12408000D02*
G75*
G02*
X21006000Y-12558000I0J-150000D01*
G01*
X10216106Y-12248914D02*
X10167478Y-5533714D01*
X10216106Y-12248914D02*
G75*
G02*
X10066110Y-12400000I-149996J-1086D01*
G01*
X20656000Y-12408000D02*
X20856000Y-12408000D01*
X21006000Y-3050000D02*
X21006000Y-5243600D01*
X9906000Y-3050000D02*
G75*
G02*
X10056000Y-2900000I150000J0D01*
G01*
X21006000Y-5243600D02*
G75*
G02*
X20856000Y-5393600I-150000J0D01*
G01*
X9906000Y-12550000D02*
G75*
G02*
X10056000Y-12400000I150000J0D01*
G01*
X20656000Y-12408000D02*
G75*
G02*
X20506000Y-12258000I0J150000D01*
G01*
D11*
D12*
X10140000Y-3340000D02*
X10460000Y-3660000D01*
X10460000Y-3340000D02*
X10140000Y-3660000D01*
X10240000Y-14040000D02*
X10560000Y-14360000D01*
X10560000Y-14040000D02*
X10240000Y-14360000D01*
X10634500Y-11143000D02*
X10954500Y-11463000D01*
X10954500Y-11143000D02*
X10634500Y-11463000D01*
X10761500Y-6317000D02*
X11081500Y-6637000D01*
X11081500Y-6317000D02*
X10761500Y-6637000D01*
X18254500Y-6444000D02*
X18574500Y-6764000D01*
X18574500Y-6444000D02*
X18254500Y-6764000D01*
X18254500Y-11016000D02*
X18574500Y-11336000D01*
X18574500Y-11016000D02*
X18254500Y-11336000D01*
X20340000Y-14040000D02*
X20660000Y-14360000D01*
X20660000Y-14040000D02*
X20340000Y-14360000D01*
X20440000Y-3340000D02*
X20760000Y-3660000D01*
X20760000Y-3340000D02*
X20440000Y-3660000D01*
D11*
X10164277Y-15113984D02*
X10164277Y-14913984D01*
X10164277Y-14913984D02*
X10211896Y-14913984D01*
X10211896Y-14913984D02*
X10240467Y-14923508D01*
X10240467Y-14923508D02*
X10259515Y-14942555D01*
X10259515Y-14942555D02*
X10269039Y-14961603D01*
X10269039Y-14961603D02*
X10278563Y-14999698D01*
X10278563Y-14999698D02*
X10278563Y-15028269D01*
X10278563Y-15028269D02*
X10269039Y-15066365D01*
X10269039Y-15066365D02*
X10259515Y-15085412D01*
X10259515Y-15085412D02*
X10240467Y-15104460D01*
X10240467Y-15104460D02*
X10211896Y-15113984D01*
X10211896Y-15113984D02*
X10164277Y-15113984D01*
X10364277Y-15113984D02*
X10364277Y-14980650D01*
X10364277Y-15018746D02*
X10373801Y-14999698D01*
X10373801Y-14999698D02*
X10383324Y-14990174D01*
X10383324Y-14990174D02*
X10402372Y-14980650D01*
X10402372Y-14980650D02*
X10421420Y-14980650D01*
X10488086Y-15113984D02*
X10488086Y-14980650D01*
X10488086Y-14913984D02*
X10478563Y-14923508D01*
X10478563Y-14923508D02*
X10488086Y-14933031D01*
X10488086Y-14933031D02*
X10497610Y-14923508D01*
X10497610Y-14923508D02*
X10488086Y-14913984D01*
X10488086Y-14913984D02*
X10488086Y-14933031D01*
X10611896Y-15113984D02*
X10592848Y-15104460D01*
X10592848Y-15104460D02*
X10583324Y-15085412D01*
X10583324Y-15085412D02*
X10583324Y-14913984D01*
X10716658Y-15113984D02*
X10697610Y-15104460D01*
X10697610Y-15104460D02*
X10688086Y-15085412D01*
X10688086Y-15085412D02*
X10688086Y-14913984D01*
X10945229Y-15113984D02*
X10945229Y-14913984D01*
X10945229Y-14913984D02*
X11011896Y-15056841D01*
X11011896Y-15056841D02*
X11078563Y-14913984D01*
X11078563Y-14913984D02*
X11078563Y-15113984D01*
X11259515Y-15113984D02*
X11259515Y-15009222D01*
X11259515Y-15009222D02*
X11249991Y-14990174D01*
X11249991Y-14990174D02*
X11230943Y-14980650D01*
X11230943Y-14980650D02*
X11192848Y-14980650D01*
X11192848Y-14980650D02*
X11173801Y-14990174D01*
X11259515Y-15104460D02*
X11240467Y-15113984D01*
X11240467Y-15113984D02*
X11192848Y-15113984D01*
X11192848Y-15113984D02*
X11173801Y-15104460D01*
X11173801Y-15104460D02*
X11164277Y-15085412D01*
X11164277Y-15085412D02*
X11164277Y-15066365D01*
X11164277Y-15066365D02*
X11173801Y-15047317D01*
X11173801Y-15047317D02*
X11192848Y-15037793D01*
X11192848Y-15037793D02*
X11240467Y-15037793D01*
X11240467Y-15037793D02*
X11259515Y-15028269D01*
X11354753Y-14980650D02*
X11354753Y-15180650D01*
X11354753Y-14990174D02*
X11373801Y-14980650D01*
X11373801Y-14980650D02*
X11411896Y-14980650D01*
X11411896Y-14980650D02*
X11430943Y-14990174D01*
X11430943Y-14990174D02*
X11440467Y-14999698D01*
X11440467Y-14999698D02*
X11449991Y-15018746D01*
X11449991Y-15018746D02*
X11449991Y-15075888D01*
X11449991Y-15075888D02*
X11440467Y-15094936D01*
X11440467Y-15094936D02*
X11430943Y-15104460D01*
X11430943Y-15104460D02*
X11411896Y-15113984D01*
X11411896Y-15113984D02*
X11373801Y-15113984D01*
X11373801Y-15113984D02*
X11354753Y-15104460D01*
X11535705Y-15094936D02*
X11545229Y-15104460D01*
X11545229Y-15104460D02*
X11535705Y-15113984D01*
X11535705Y-15113984D02*
X11526182Y-15104460D01*
X11526182Y-15104460D02*
X11535705Y-15094936D01*
X11535705Y-15094936D02*
X11535705Y-15113984D01*
X11535705Y-14990174D02*
X11545229Y-14999698D01*
X11545229Y-14999698D02*
X11535705Y-15009222D01*
X11535705Y-15009222D02*
X11526182Y-14999698D01*
X11526182Y-14999698D02*
X11535705Y-14990174D01*
X11535705Y-14990174D02*
X11535705Y-15009222D01*
X9703500Y-15342500D02*
X9903500Y-15542500D01*
X9903500Y-15342500D02*
X9703500Y-15542500D01*
X10145229Y-15333984D02*
X10269039Y-15333984D01*
X10269039Y-15333984D02*
X10202372Y-15410174D01*
X10202372Y-15410174D02*
X10230944Y-15410174D01*
X10230944Y-15410174D02*
X10249991Y-15419698D01*
X10249991Y-15419698D02*
X10259515Y-15429222D01*
X10259515Y-15429222D02*
X10269039Y-15448269D01*
X10269039Y-15448269D02*
X10269039Y-15495888D01*
X10269039Y-15495888D02*
X10259515Y-15514936D01*
X10259515Y-15514936D02*
X10249991Y-15524460D01*
X10249991Y-15524460D02*
X10230944Y-15533984D01*
X10230944Y-15533984D02*
X10173801Y-15533984D01*
X10173801Y-15533984D02*
X10154753Y-15524460D01*
X10154753Y-15524460D02*
X10145229Y-15514936D01*
X10354753Y-15514936D02*
X10364277Y-15524460D01*
X10364277Y-15524460D02*
X10354753Y-15533984D01*
X10354753Y-15533984D02*
X10345229Y-15524460D01*
X10345229Y-15524460D02*
X10354753Y-15514936D01*
X10354753Y-15514936D02*
X10354753Y-15533984D01*
X10440467Y-15353031D02*
X10449991Y-15343508D01*
X10449991Y-15343508D02*
X10469039Y-15333984D01*
X10469039Y-15333984D02*
X10516658Y-15333984D01*
X10516658Y-15333984D02*
X10535705Y-15343508D01*
X10535705Y-15343508D02*
X10545229Y-15353031D01*
X10545229Y-15353031D02*
X10554753Y-15372079D01*
X10554753Y-15372079D02*
X10554753Y-15391127D01*
X10554753Y-15391127D02*
X10545229Y-15419698D01*
X10545229Y-15419698D02*
X10430944Y-15533984D01*
X10430944Y-15533984D02*
X10554753Y-15533984D01*
X10678563Y-15333984D02*
X10697610Y-15333984D01*
X10697610Y-15333984D02*
X10716658Y-15343508D01*
X10716658Y-15343508D02*
X10726182Y-15353031D01*
X10726182Y-15353031D02*
X10735705Y-15372079D01*
X10735705Y-15372079D02*
X10745229Y-15410174D01*
X10745229Y-15410174D02*
X10745229Y-15457793D01*
X10745229Y-15457793D02*
X10735705Y-15495888D01*
X10735705Y-15495888D02*
X10726182Y-15514936D01*
X10726182Y-15514936D02*
X10716658Y-15524460D01*
X10716658Y-15524460D02*
X10697610Y-15533984D01*
X10697610Y-15533984D02*
X10678563Y-15533984D01*
X10678563Y-15533984D02*
X10659515Y-15524460D01*
X10659515Y-15524460D02*
X10649991Y-15514936D01*
X10649991Y-15514936D02*
X10640467Y-15495888D01*
X10640467Y-15495888D02*
X10630944Y-15457793D01*
X10630944Y-15457793D02*
X10630944Y-15410174D01*
X10630944Y-15410174D02*
X10640467Y-15372079D01*
X10640467Y-15372079D02*
X10649991Y-15353031D01*
X10649991Y-15353031D02*
X10659515Y-15343508D01*
X10659515Y-15343508D02*
X10678563Y-15333984D01*
X10869039Y-15333984D02*
X10888086Y-15333984D01*
X10888086Y-15333984D02*
X10907134Y-15343508D01*
X10907134Y-15343508D02*
X10916658Y-15353031D01*
X10916658Y-15353031D02*
X10926182Y-15372079D01*
X10926182Y-15372079D02*
X10935705Y-15410174D01*
X10935705Y-15410174D02*
X10935705Y-15457793D01*
X10935705Y-15457793D02*
X10926182Y-15495888D01*
X10926182Y-15495888D02*
X10916658Y-15514936D01*
X10916658Y-15514936D02*
X10907134Y-15524460D01*
X10907134Y-15524460D02*
X10888086Y-15533984D01*
X10888086Y-15533984D02*
X10869039Y-15533984D01*
X10869039Y-15533984D02*
X10849991Y-15524460D01*
X10849991Y-15524460D02*
X10840467Y-15514936D01*
X10840467Y-15514936D02*
X10830944Y-15495888D01*
X10830944Y-15495888D02*
X10821420Y-15457793D01*
X10821420Y-15457793D02*
X10821420Y-15410174D01*
X10821420Y-15410174D02*
X10830944Y-15372079D01*
X10830944Y-15372079D02*
X10840467Y-15353031D01*
X10840467Y-15353031D02*
X10849991Y-15343508D01*
X10849991Y-15343508D02*
X10869039Y-15333984D01*
X11021420Y-15533984D02*
X11021420Y-15400650D01*
X11021420Y-15419698D02*
X11030944Y-15410174D01*
X11030944Y-15410174D02*
X11049991Y-15400650D01*
X11049991Y-15400650D02*
X11078563Y-15400650D01*
X11078563Y-15400650D02*
X11097610Y-15410174D01*
X11097610Y-15410174D02*
X11107134Y-15429222D01*
X11107134Y-15429222D02*
X11107134Y-15533984D01*
X11107134Y-15429222D02*
X11116658Y-15410174D01*
X11116658Y-15410174D02*
X11135705Y-15400650D01*
X11135705Y-15400650D02*
X11164277Y-15400650D01*
X11164277Y-15400650D02*
X11183325Y-15410174D01*
X11183325Y-15410174D02*
X11192848Y-15429222D01*
X11192848Y-15429222D02*
X11192848Y-15533984D01*
X11288086Y-15533984D02*
X11288086Y-15400650D01*
X11288086Y-15419698D02*
X11297610Y-15410174D01*
X11297610Y-15410174D02*
X11316658Y-15400650D01*
X11316658Y-15400650D02*
X11345229Y-15400650D01*
X11345229Y-15400650D02*
X11364277Y-15410174D01*
X11364277Y-15410174D02*
X11373801Y-15429222D01*
X11373801Y-15429222D02*
X11373801Y-15533984D01*
X11373801Y-15429222D02*
X11383324Y-15410174D01*
X11383324Y-15410174D02*
X11402372Y-15400650D01*
X11402372Y-15400650D02*
X11430943Y-15400650D01*
X11430943Y-15400650D02*
X11449991Y-15410174D01*
X11449991Y-15410174D02*
X11459515Y-15429222D01*
X11459515Y-15429222D02*
X11459515Y-15533984D01*
X11849991Y-15324460D02*
X11678563Y-15581603D01*
X12107134Y-15333984D02*
X12126182Y-15333984D01*
X12126182Y-15333984D02*
X12145229Y-15343508D01*
X12145229Y-15343508D02*
X12154753Y-15353031D01*
X12154753Y-15353031D02*
X12164277Y-15372079D01*
X12164277Y-15372079D02*
X12173801Y-15410174D01*
X12173801Y-15410174D02*
X12173801Y-15457793D01*
X12173801Y-15457793D02*
X12164277Y-15495888D01*
X12164277Y-15495888D02*
X12154753Y-15514936D01*
X12154753Y-15514936D02*
X12145229Y-15524460D01*
X12145229Y-15524460D02*
X12126182Y-15533984D01*
X12126182Y-15533984D02*
X12107134Y-15533984D01*
X12107134Y-15533984D02*
X12088086Y-15524460D01*
X12088086Y-15524460D02*
X12078563Y-15514936D01*
X12078563Y-15514936D02*
X12069039Y-15495888D01*
X12069039Y-15495888D02*
X12059515Y-15457793D01*
X12059515Y-15457793D02*
X12059515Y-15410174D01*
X12059515Y-15410174D02*
X12069039Y-15372079D01*
X12069039Y-15372079D02*
X12078563Y-15353031D01*
X12078563Y-15353031D02*
X12088086Y-15343508D01*
X12088086Y-15343508D02*
X12107134Y-15333984D01*
X12259515Y-15514936D02*
X12269039Y-15524460D01*
X12269039Y-15524460D02*
X12259515Y-15533984D01*
X12259515Y-15533984D02*
X12249991Y-15524460D01*
X12249991Y-15524460D02*
X12259515Y-15514936D01*
X12259515Y-15514936D02*
X12259515Y-15533984D01*
X12459515Y-15533984D02*
X12345229Y-15533984D01*
X12402372Y-15533984D02*
X12402372Y-15333984D01*
X12402372Y-15333984D02*
X12383325Y-15362555D01*
X12383325Y-15362555D02*
X12364277Y-15381603D01*
X12364277Y-15381603D02*
X12345229Y-15391127D01*
X12535706Y-15353031D02*
X12545229Y-15343508D01*
X12545229Y-15343508D02*
X12564277Y-15333984D01*
X12564277Y-15333984D02*
X12611896Y-15333984D01*
X12611896Y-15333984D02*
X12630944Y-15343508D01*
X12630944Y-15343508D02*
X12640467Y-15353031D01*
X12640467Y-15353031D02*
X12649991Y-15372079D01*
X12649991Y-15372079D02*
X12649991Y-15391127D01*
X12649991Y-15391127D02*
X12640467Y-15419698D01*
X12640467Y-15419698D02*
X12526182Y-15533984D01*
X12526182Y-15533984D02*
X12649991Y-15533984D01*
X12821420Y-15333984D02*
X12783325Y-15333984D01*
X12783325Y-15333984D02*
X12764277Y-15343508D01*
X12764277Y-15343508D02*
X12754753Y-15353031D01*
X12754753Y-15353031D02*
X12735706Y-15381603D01*
X12735706Y-15381603D02*
X12726182Y-15419698D01*
X12726182Y-15419698D02*
X12726182Y-15495888D01*
X12726182Y-15495888D02*
X12735706Y-15514936D01*
X12735706Y-15514936D02*
X12745229Y-15524460D01*
X12745229Y-15524460D02*
X12764277Y-15533984D01*
X12764277Y-15533984D02*
X12802372Y-15533984D01*
X12802372Y-15533984D02*
X12821420Y-15524460D01*
X12821420Y-15524460D02*
X12830944Y-15514936D01*
X12830944Y-15514936D02*
X12840467Y-15495888D01*
X12840467Y-15495888D02*
X12840467Y-15448269D01*
X12840467Y-15448269D02*
X12830944Y-15429222D01*
X12830944Y-15429222D02*
X12821420Y-15419698D01*
X12821420Y-15419698D02*
X12802372Y-15410174D01*
X12802372Y-15410174D02*
X12764277Y-15410174D01*
X12764277Y-15410174D02*
X12745229Y-15419698D01*
X12745229Y-15419698D02*
X12735706Y-15429222D01*
X12735706Y-15429222D02*
X12726182Y-15448269D01*
X12964277Y-15333984D02*
X12983325Y-15333984D01*
X12983325Y-15333984D02*
X13002372Y-15343508D01*
X13002372Y-15343508D02*
X13011896Y-15353031D01*
X13011896Y-15353031D02*
X13021420Y-15372079D01*
X13021420Y-15372079D02*
X13030944Y-15410174D01*
X13030944Y-15410174D02*
X13030944Y-15457793D01*
X13030944Y-15457793D02*
X13021420Y-15495888D01*
X13021420Y-15495888D02*
X13011896Y-15514936D01*
X13011896Y-15514936D02*
X13002372Y-15524460D01*
X13002372Y-15524460D02*
X12983325Y-15533984D01*
X12983325Y-15533984D02*
X12964277Y-15533984D01*
X12964277Y-15533984D02*
X12945229Y-15524460D01*
X12945229Y-15524460D02*
X12935706Y-15514936D01*
X12935706Y-15514936D02*
X12926182Y-15495888D01*
X12926182Y-15495888D02*
X12916658Y-15457793D01*
X12916658Y-15457793D02*
X12916658Y-15410174D01*
X12916658Y-15410174D02*
X12926182Y-15372079D01*
X12926182Y-15372079D02*
X12935706Y-15353031D01*
X12935706Y-15353031D02*
X12945229Y-15343508D01*
X12945229Y-15343508D02*
X12964277Y-15333984D01*
X13107134Y-15333984D02*
X13107134Y-15372079D01*
X13183325Y-15333984D02*
X13183325Y-15372079D01*
X13478563Y-15610174D02*
X13469039Y-15600650D01*
X13469039Y-15600650D02*
X13449991Y-15572079D01*
X13449991Y-15572079D02*
X13440468Y-15553031D01*
X13440468Y-15553031D02*
X13430944Y-15524460D01*
X13430944Y-15524460D02*
X13421420Y-15476841D01*
X13421420Y-15476841D02*
X13421420Y-15438746D01*
X13421420Y-15438746D02*
X13430944Y-15391127D01*
X13430944Y-15391127D02*
X13440468Y-15362555D01*
X13440468Y-15362555D02*
X13449991Y-15343508D01*
X13449991Y-15343508D02*
X13469039Y-15314936D01*
X13469039Y-15314936D02*
X13478563Y-15305412D01*
X13583325Y-15419698D02*
X13564277Y-15410174D01*
X13564277Y-15410174D02*
X13554753Y-15400650D01*
X13554753Y-15400650D02*
X13545229Y-15381603D01*
X13545229Y-15381603D02*
X13545229Y-15372079D01*
X13545229Y-15372079D02*
X13554753Y-15353031D01*
X13554753Y-15353031D02*
X13564277Y-15343508D01*
X13564277Y-15343508D02*
X13583325Y-15333984D01*
X13583325Y-15333984D02*
X13621420Y-15333984D01*
X13621420Y-15333984D02*
X13640468Y-15343508D01*
X13640468Y-15343508D02*
X13649991Y-15353031D01*
X13649991Y-15353031D02*
X13659515Y-15372079D01*
X13659515Y-15372079D02*
X13659515Y-15381603D01*
X13659515Y-15381603D02*
X13649991Y-15400650D01*
X13649991Y-15400650D02*
X13640468Y-15410174D01*
X13640468Y-15410174D02*
X13621420Y-15419698D01*
X13621420Y-15419698D02*
X13583325Y-15419698D01*
X13583325Y-15419698D02*
X13564277Y-15429222D01*
X13564277Y-15429222D02*
X13554753Y-15438746D01*
X13554753Y-15438746D02*
X13545229Y-15457793D01*
X13545229Y-15457793D02*
X13545229Y-15495888D01*
X13545229Y-15495888D02*
X13554753Y-15514936D01*
X13554753Y-15514936D02*
X13564277Y-15524460D01*
X13564277Y-15524460D02*
X13583325Y-15533984D01*
X13583325Y-15533984D02*
X13621420Y-15533984D01*
X13621420Y-15533984D02*
X13640468Y-15524460D01*
X13640468Y-15524460D02*
X13649991Y-15514936D01*
X13649991Y-15514936D02*
X13659515Y-15495888D01*
X13659515Y-15495888D02*
X13659515Y-15457793D01*
X13659515Y-15457793D02*
X13649991Y-15438746D01*
X13649991Y-15438746D02*
X13640468Y-15429222D01*
X13640468Y-15429222D02*
X13621420Y-15419698D01*
X13897610Y-15533984D02*
X13897610Y-15333984D01*
X13983325Y-15533984D02*
X13983325Y-15429222D01*
X13983325Y-15429222D02*
X13973801Y-15410174D01*
X13973801Y-15410174D02*
X13954753Y-15400650D01*
X13954753Y-15400650D02*
X13926182Y-15400650D01*
X13926182Y-15400650D02*
X13907134Y-15410174D01*
X13907134Y-15410174D02*
X13897610Y-15419698D01*
X14107134Y-15533984D02*
X14088087Y-15524460D01*
X14088087Y-15524460D02*
X14078563Y-15514936D01*
X14078563Y-15514936D02*
X14069039Y-15495888D01*
X14069039Y-15495888D02*
X14069039Y-15438746D01*
X14069039Y-15438746D02*
X14078563Y-15419698D01*
X14078563Y-15419698D02*
X14088087Y-15410174D01*
X14088087Y-15410174D02*
X14107134Y-15400650D01*
X14107134Y-15400650D02*
X14135706Y-15400650D01*
X14135706Y-15400650D02*
X14154753Y-15410174D01*
X14154753Y-15410174D02*
X14164277Y-15419698D01*
X14164277Y-15419698D02*
X14173801Y-15438746D01*
X14173801Y-15438746D02*
X14173801Y-15495888D01*
X14173801Y-15495888D02*
X14164277Y-15514936D01*
X14164277Y-15514936D02*
X14154753Y-15524460D01*
X14154753Y-15524460D02*
X14135706Y-15533984D01*
X14135706Y-15533984D02*
X14107134Y-15533984D01*
X14288087Y-15533984D02*
X14269039Y-15524460D01*
X14269039Y-15524460D02*
X14259515Y-15505412D01*
X14259515Y-15505412D02*
X14259515Y-15333984D01*
X14440468Y-15524460D02*
X14421420Y-15533984D01*
X14421420Y-15533984D02*
X14383325Y-15533984D01*
X14383325Y-15533984D02*
X14364277Y-15524460D01*
X14364277Y-15524460D02*
X14354753Y-15505412D01*
X14354753Y-15505412D02*
X14354753Y-15429222D01*
X14354753Y-15429222D02*
X14364277Y-15410174D01*
X14364277Y-15410174D02*
X14383325Y-15400650D01*
X14383325Y-15400650D02*
X14421420Y-15400650D01*
X14421420Y-15400650D02*
X14440468Y-15410174D01*
X14440468Y-15410174D02*
X14449991Y-15429222D01*
X14449991Y-15429222D02*
X14449991Y-15448269D01*
X14449991Y-15448269D02*
X14354753Y-15467317D01*
X14526182Y-15524460D02*
X14545230Y-15533984D01*
X14545230Y-15533984D02*
X14583325Y-15533984D01*
X14583325Y-15533984D02*
X14602372Y-15524460D01*
X14602372Y-15524460D02*
X14611896Y-15505412D01*
X14611896Y-15505412D02*
X14611896Y-15495888D01*
X14611896Y-15495888D02*
X14602372Y-15476841D01*
X14602372Y-15476841D02*
X14583325Y-15467317D01*
X14583325Y-15467317D02*
X14554753Y-15467317D01*
X14554753Y-15467317D02*
X14535706Y-15457793D01*
X14535706Y-15457793D02*
X14526182Y-15438746D01*
X14526182Y-15438746D02*
X14526182Y-15429222D01*
X14526182Y-15429222D02*
X14535706Y-15410174D01*
X14535706Y-15410174D02*
X14554753Y-15400650D01*
X14554753Y-15400650D02*
X14583325Y-15400650D01*
X14583325Y-15400650D02*
X14602372Y-15410174D01*
X14678563Y-15610174D02*
X14688087Y-15600650D01*
X14688087Y-15600650D02*
X14707134Y-15572079D01*
X14707134Y-15572079D02*
X14716658Y-15553031D01*
X14716658Y-15553031D02*
X14726182Y-15524460D01*
X14726182Y-15524460D02*
X14735706Y-15476841D01*
X14735706Y-15476841D02*
X14735706Y-15438746D01*
X14735706Y-15438746D02*
X14726182Y-15391127D01*
X14726182Y-15391127D02*
X14716658Y-15362555D01*
X14716658Y-15362555D02*
X14707134Y-15343508D01*
X14707134Y-15343508D02*
X14688087Y-15314936D01*
X14688087Y-15314936D02*
X14678563Y-15305412D01*
X15040468Y-15610174D02*
X15030944Y-15600650D01*
X15030944Y-15600650D02*
X15011896Y-15572079D01*
X15011896Y-15572079D02*
X15002372Y-15553031D01*
X15002372Y-15553031D02*
X14992849Y-15524460D01*
X14992849Y-15524460D02*
X14983325Y-15476841D01*
X14983325Y-15476841D02*
X14983325Y-15438746D01*
X14983325Y-15438746D02*
X14992849Y-15391127D01*
X14992849Y-15391127D02*
X15002372Y-15362555D01*
X15002372Y-15362555D02*
X15011896Y-15343508D01*
X15011896Y-15343508D02*
X15030944Y-15314936D01*
X15030944Y-15314936D02*
X15040468Y-15305412D01*
X15116658Y-15400650D02*
X15116658Y-15533984D01*
X15116658Y-15419698D02*
X15126182Y-15410174D01*
X15126182Y-15410174D02*
X15145230Y-15400650D01*
X15145230Y-15400650D02*
X15173801Y-15400650D01*
X15173801Y-15400650D02*
X15192849Y-15410174D01*
X15192849Y-15410174D02*
X15202372Y-15429222D01*
X15202372Y-15429222D02*
X15202372Y-15533984D01*
X15326182Y-15533984D02*
X15307134Y-15524460D01*
X15307134Y-15524460D02*
X15297611Y-15514936D01*
X15297611Y-15514936D02*
X15288087Y-15495888D01*
X15288087Y-15495888D02*
X15288087Y-15438746D01*
X15288087Y-15438746D02*
X15297611Y-15419698D01*
X15297611Y-15419698D02*
X15307134Y-15410174D01*
X15307134Y-15410174D02*
X15326182Y-15400650D01*
X15326182Y-15400650D02*
X15354753Y-15400650D01*
X15354753Y-15400650D02*
X15373801Y-15410174D01*
X15373801Y-15410174D02*
X15383325Y-15419698D01*
X15383325Y-15419698D02*
X15392849Y-15438746D01*
X15392849Y-15438746D02*
X15392849Y-15495888D01*
X15392849Y-15495888D02*
X15383325Y-15514936D01*
X15383325Y-15514936D02*
X15373801Y-15524460D01*
X15373801Y-15524460D02*
X15354753Y-15533984D01*
X15354753Y-15533984D02*
X15326182Y-15533984D01*
X15449992Y-15400650D02*
X15526182Y-15400650D01*
X15478563Y-15333984D02*
X15478563Y-15505412D01*
X15478563Y-15505412D02*
X15488087Y-15524460D01*
X15488087Y-15524460D02*
X15507134Y-15533984D01*
X15507134Y-15533984D02*
X15526182Y-15533984D01*
X15745230Y-15400650D02*
X15745230Y-15600650D01*
X15745230Y-15410174D02*
X15764277Y-15400650D01*
X15764277Y-15400650D02*
X15802373Y-15400650D01*
X15802373Y-15400650D02*
X15821420Y-15410174D01*
X15821420Y-15410174D02*
X15830944Y-15419698D01*
X15830944Y-15419698D02*
X15840468Y-15438746D01*
X15840468Y-15438746D02*
X15840468Y-15495888D01*
X15840468Y-15495888D02*
X15830944Y-15514936D01*
X15830944Y-15514936D02*
X15821420Y-15524460D01*
X15821420Y-15524460D02*
X15802373Y-15533984D01*
X15802373Y-15533984D02*
X15764277Y-15533984D01*
X15764277Y-15533984D02*
X15745230Y-15524460D01*
X15954753Y-15533984D02*
X15935706Y-15524460D01*
X15935706Y-15524460D02*
X15926182Y-15505412D01*
X15926182Y-15505412D02*
X15926182Y-15333984D01*
X16116658Y-15533984D02*
X16116658Y-15429222D01*
X16116658Y-15429222D02*
X16107134Y-15410174D01*
X16107134Y-15410174D02*
X16088087Y-15400650D01*
X16088087Y-15400650D02*
X16049992Y-15400650D01*
X16049992Y-15400650D02*
X16030944Y-15410174D01*
X16116658Y-15524460D02*
X16097611Y-15533984D01*
X16097611Y-15533984D02*
X16049992Y-15533984D01*
X16049992Y-15533984D02*
X16030944Y-15524460D01*
X16030944Y-15524460D02*
X16021420Y-15505412D01*
X16021420Y-15505412D02*
X16021420Y-15486365D01*
X16021420Y-15486365D02*
X16030944Y-15467317D01*
X16030944Y-15467317D02*
X16049992Y-15457793D01*
X16049992Y-15457793D02*
X16097611Y-15457793D01*
X16097611Y-15457793D02*
X16116658Y-15448269D01*
X16183325Y-15400650D02*
X16259515Y-15400650D01*
X16211896Y-15333984D02*
X16211896Y-15505412D01*
X16211896Y-15505412D02*
X16221420Y-15524460D01*
X16221420Y-15524460D02*
X16240468Y-15533984D01*
X16240468Y-15533984D02*
X16259515Y-15533984D01*
X16402373Y-15524460D02*
X16383325Y-15533984D01*
X16383325Y-15533984D02*
X16345230Y-15533984D01*
X16345230Y-15533984D02*
X16326182Y-15524460D01*
X16326182Y-15524460D02*
X16316658Y-15505412D01*
X16316658Y-15505412D02*
X16316658Y-15429222D01*
X16316658Y-15429222D02*
X16326182Y-15410174D01*
X16326182Y-15410174D02*
X16345230Y-15400650D01*
X16345230Y-15400650D02*
X16383325Y-15400650D01*
X16383325Y-15400650D02*
X16402373Y-15410174D01*
X16402373Y-15410174D02*
X16411896Y-15429222D01*
X16411896Y-15429222D02*
X16411896Y-15448269D01*
X16411896Y-15448269D02*
X16316658Y-15467317D01*
X16583325Y-15533984D02*
X16583325Y-15333984D01*
X16583325Y-15524460D02*
X16564277Y-15533984D01*
X16564277Y-15533984D02*
X16526182Y-15533984D01*
X16526182Y-15533984D02*
X16507134Y-15524460D01*
X16507134Y-15524460D02*
X16497611Y-15514936D01*
X16497611Y-15514936D02*
X16488087Y-15495888D01*
X16488087Y-15495888D02*
X16488087Y-15438746D01*
X16488087Y-15438746D02*
X16497611Y-15419698D01*
X16497611Y-15419698D02*
X16507134Y-15410174D01*
X16507134Y-15410174D02*
X16526182Y-15400650D01*
X16526182Y-15400650D02*
X16564277Y-15400650D01*
X16564277Y-15400650D02*
X16583325Y-15410174D01*
X16659515Y-15610174D02*
X16669039Y-15600650D01*
X16669039Y-15600650D02*
X16688087Y-15572079D01*
X16688087Y-15572079D02*
X16697611Y-15553031D01*
X16697611Y-15553031D02*
X16707134Y-15524460D01*
X16707134Y-15524460D02*
X16716658Y-15476841D01*
X16716658Y-15476841D02*
X16716658Y-15438746D01*
X16716658Y-15438746D02*
X16707134Y-15391127D01*
X16707134Y-15391127D02*
X16697611Y-15362555D01*
X16697611Y-15362555D02*
X16688087Y-15343508D01*
X16688087Y-15343508D02*
X16669039Y-15314936D01*
X16669039Y-15314936D02*
X16659515Y-15305412D01*
M02*
