%TF.GenerationSoftware,KiCad,Pcbnew,8.0.2-rc1*%
%TF.CreationDate,2024-12-28T13:04:22+01:00*%
%TF.ProjectId,Carte-Principale,43617274-652d-4507-9269-6e636970616c,V1*%
%TF.SameCoordinates,Original*%
%TF.FileFunction,Paste,Top*%
%TF.FilePolarity,Positive*%
%FSLAX46Y46*%
G04 Gerber Fmt 4.6, Leading zero omitted, Abs format (unit mm)*
G04 Created by KiCad (PCBNEW 8.0.2-rc1) date 2024-12-28 13:04:22*
%MOMM*%
%LPD*%
G01*
G04 APERTURE LIST*
G04 Aperture macros list*
%AMRoundRect*
0 Rectangle with rounded corners*
0 $1 Rounding radius*
0 $2 $3 $4 $5 $6 $7 $8 $9 X,Y pos of 4 corners*
0 Add a 4 corners polygon primitive as box body*
4,1,4,$2,$3,$4,$5,$6,$7,$8,$9,$2,$3,0*
0 Add four circle primitives for the rounded corners*
1,1,$1+$1,$2,$3*
1,1,$1+$1,$4,$5*
1,1,$1+$1,$6,$7*
1,1,$1+$1,$8,$9*
0 Add four rect primitives between the rounded corners*
20,1,$1+$1,$2,$3,$4,$5,0*
20,1,$1+$1,$4,$5,$6,$7,0*
20,1,$1+$1,$6,$7,$8,$9,0*
20,1,$1+$1,$8,$9,$2,$3,0*%
G04 Aperture macros list end*
%ADD10C,0.200000*%
%ADD11RoundRect,0.250000X-1.400000X-1.000000X1.400000X-1.000000X1.400000X1.000000X-1.400000X1.000000X0*%
%ADD12RoundRect,0.250000X-0.900000X1.000000X-0.900000X-1.000000X0.900000X-1.000000X0.900000X1.000000X0*%
%ADD13RoundRect,0.150000X-0.587500X-0.150000X0.587500X-0.150000X0.587500X0.150000X-0.587500X0.150000X0*%
%ADD14RoundRect,0.249999X0.512501X1.075001X-0.512501X1.075001X-0.512501X-1.075001X0.512501X-1.075001X0*%
%ADD15RoundRect,0.250000X0.400000X1.075000X-0.400000X1.075000X-0.400000X-1.075000X0.400000X-1.075000X0*%
%ADD16RoundRect,0.150000X0.587500X0.150000X-0.587500X0.150000X-0.587500X-0.150000X0.587500X-0.150000X0*%
%ADD17RoundRect,0.250000X-0.400000X-1.075000X0.400000X-1.075000X0.400000X1.075000X-0.400000X1.075000X0*%
%ADD18RoundRect,0.249999X-0.512501X-1.075001X0.512501X-1.075001X0.512501X1.075001X-0.512501X1.075001X0*%
G04 APERTURE END LIST*
D10*
X198976000Y-87186000D02*
X204376000Y-87186000D01*
X204376000Y-103886000D01*
X198976000Y-103886000D01*
X198976000Y-87186000D01*
G36*
X198976000Y-87186000D02*
G01*
X204376000Y-87186000D01*
X204376000Y-103886000D01*
X198976000Y-103886000D01*
X198976000Y-87186000D01*
G37*
D11*
%TO.C,D2*%
X118000000Y-79200000D03*
X118000000Y-86000000D03*
%TD*%
D12*
%TO.C,D1*%
X118000000Y-97418000D03*
X118000000Y-101718000D03*
%TD*%
D13*
%TO.C,Q1*%
X179375000Y-88300000D03*
X179375000Y-90200000D03*
X181250000Y-89250000D03*
%TD*%
D14*
%TO.C,D6*%
X197435500Y-97037000D03*
X192760500Y-97037000D03*
%TD*%
%TO.C,F3*%
X128702500Y-104775000D03*
X124027500Y-104775000D03*
%TD*%
D15*
%TO.C,R12*%
X136678000Y-88392000D03*
X133578000Y-88392000D03*
%TD*%
D16*
%TO.C,Q5*%
X128953500Y-88072000D03*
X128953500Y-86172000D03*
X127078500Y-87122000D03*
%TD*%
D15*
%TO.C,R11*%
X136652000Y-92456000D03*
X133552000Y-92456000D03*
%TD*%
D16*
%TO.C,Q3*%
X128953500Y-99502000D03*
X128953500Y-97602000D03*
X127078500Y-98552000D03*
%TD*%
D17*
%TO.C,R2*%
X171170000Y-86360000D03*
X174270000Y-86360000D03*
%TD*%
D14*
%TO.C,D7*%
X197435500Y-89036000D03*
X192760500Y-89036000D03*
%TD*%
%TO.C,D5*%
X197435500Y-93100000D03*
X192760500Y-93100000D03*
%TD*%
D17*
%TO.C,R3*%
X177520000Y-97028000D03*
X180620000Y-97028000D03*
%TD*%
D15*
%TO.C,R10*%
X136678000Y-100330000D03*
X133578000Y-100330000D03*
%TD*%
D14*
%TO.C,F1*%
X114097500Y-73660000D03*
X109422500Y-73660000D03*
%TD*%
D16*
%TO.C,Q4*%
X128953500Y-95692000D03*
X128953500Y-93792000D03*
X127078500Y-94742000D03*
%TD*%
D15*
%TO.C,R9*%
X136652000Y-96520000D03*
X133552000Y-96520000D03*
%TD*%
D17*
%TO.C,R4*%
X177520000Y-93726000D03*
X180620000Y-93726000D03*
%TD*%
D18*
%TO.C,F2*%
X118058500Y-92456000D03*
X122733500Y-92456000D03*
%TD*%
D16*
%TO.C,Q2*%
X128953500Y-91948000D03*
X128953500Y-90048000D03*
X127078500Y-90998000D03*
%TD*%
D17*
%TO.C,R1*%
X177520000Y-100330000D03*
X180620000Y-100330000D03*
%TD*%
M02*
