%TF.GenerationSoftware,KiCad,Pcbnew,8.0.2-rc1*%
%TF.CreationDate,2024-08-28T13:59:43+02:00*%
%TF.ProjectId,Carte-Principale,43617274-652d-4507-9269-6e636970616c,rev?*%
%TF.SameCoordinates,Original*%
%TF.FileFunction,Drillmap*%
%TF.FilePolarity,Positive*%
%FSLAX45Y45*%
G04 Gerber Fmt 4.5, Leading zero omitted, Abs format (unit mm)*
G04 Created by KiCad (PCBNEW 8.0.2-rc1) date 2024-08-28 13:59:43*
%MOMM*%
%LPD*%
G01*
G04 APERTURE LIST*
%ADD10C,0.050000*%
%ADD11C,0.200000*%
%ADD12C,0.320000*%
G04 APERTURE END LIST*
D10*
X5588000Y-2921000D02*
X21052000Y-2921000D01*
X21052000Y-14732000D01*
X5588000Y-14732000D01*
X5588000Y-2921000D01*
D11*
D12*
X5936000Y-3340000D02*
X6256000Y-3660000D01*
X6256000Y-3340000D02*
X5936000Y-3660000D01*
X5936000Y-13810000D02*
X6256000Y-14130000D01*
X6256000Y-13810000D02*
X5936000Y-14130000D01*
X10634500Y-11143000D02*
X10954500Y-11463000D01*
X10954500Y-11143000D02*
X10634500Y-11463000D01*
X10761500Y-6317000D02*
X11081500Y-6637000D01*
X11081500Y-6317000D02*
X10761500Y-6637000D01*
X18254500Y-6444000D02*
X18574500Y-6764000D01*
X18574500Y-6444000D02*
X18254500Y-6764000D01*
X18254500Y-11016000D02*
X18574500Y-11336000D01*
X18574500Y-11016000D02*
X18254500Y-11336000D01*
X20340000Y-3340000D02*
X20660000Y-3660000D01*
X20660000Y-3340000D02*
X20340000Y-3660000D01*
X20340000Y-13810000D02*
X20660000Y-14130000D01*
X20660000Y-13810000D02*
X20340000Y-14130000D01*
D11*
X5846277Y-15045984D02*
X5846277Y-14845984D01*
X5846277Y-14845984D02*
X5893896Y-14845984D01*
X5893896Y-14845984D02*
X5922467Y-14855508D01*
X5922467Y-14855508D02*
X5941515Y-14874555D01*
X5941515Y-14874555D02*
X5951039Y-14893603D01*
X5951039Y-14893603D02*
X5960562Y-14931698D01*
X5960562Y-14931698D02*
X5960562Y-14960269D01*
X5960562Y-14960269D02*
X5951039Y-14998365D01*
X5951039Y-14998365D02*
X5941515Y-15017412D01*
X5941515Y-15017412D02*
X5922467Y-15036460D01*
X5922467Y-15036460D02*
X5893896Y-15045984D01*
X5893896Y-15045984D02*
X5846277Y-15045984D01*
X6046277Y-15045984D02*
X6046277Y-14912650D01*
X6046277Y-14950746D02*
X6055801Y-14931698D01*
X6055801Y-14931698D02*
X6065324Y-14922174D01*
X6065324Y-14922174D02*
X6084372Y-14912650D01*
X6084372Y-14912650D02*
X6103420Y-14912650D01*
X6170086Y-15045984D02*
X6170086Y-14912650D01*
X6170086Y-14845984D02*
X6160562Y-14855508D01*
X6160562Y-14855508D02*
X6170086Y-14865031D01*
X6170086Y-14865031D02*
X6179610Y-14855508D01*
X6179610Y-14855508D02*
X6170086Y-14845984D01*
X6170086Y-14845984D02*
X6170086Y-14865031D01*
X6293896Y-15045984D02*
X6274848Y-15036460D01*
X6274848Y-15036460D02*
X6265324Y-15017412D01*
X6265324Y-15017412D02*
X6265324Y-14845984D01*
X6398658Y-15045984D02*
X6379610Y-15036460D01*
X6379610Y-15036460D02*
X6370086Y-15017412D01*
X6370086Y-15017412D02*
X6370086Y-14845984D01*
X6627229Y-15045984D02*
X6627229Y-14845984D01*
X6627229Y-14845984D02*
X6693896Y-14988841D01*
X6693896Y-14988841D02*
X6760562Y-14845984D01*
X6760562Y-14845984D02*
X6760562Y-15045984D01*
X6941515Y-15045984D02*
X6941515Y-14941222D01*
X6941515Y-14941222D02*
X6931991Y-14922174D01*
X6931991Y-14922174D02*
X6912943Y-14912650D01*
X6912943Y-14912650D02*
X6874848Y-14912650D01*
X6874848Y-14912650D02*
X6855801Y-14922174D01*
X6941515Y-15036460D02*
X6922467Y-15045984D01*
X6922467Y-15045984D02*
X6874848Y-15045984D01*
X6874848Y-15045984D02*
X6855801Y-15036460D01*
X6855801Y-15036460D02*
X6846277Y-15017412D01*
X6846277Y-15017412D02*
X6846277Y-14998365D01*
X6846277Y-14998365D02*
X6855801Y-14979317D01*
X6855801Y-14979317D02*
X6874848Y-14969793D01*
X6874848Y-14969793D02*
X6922467Y-14969793D01*
X6922467Y-14969793D02*
X6941515Y-14960269D01*
X7036753Y-14912650D02*
X7036753Y-15112650D01*
X7036753Y-14922174D02*
X7055801Y-14912650D01*
X7055801Y-14912650D02*
X7093896Y-14912650D01*
X7093896Y-14912650D02*
X7112943Y-14922174D01*
X7112943Y-14922174D02*
X7122467Y-14931698D01*
X7122467Y-14931698D02*
X7131991Y-14950746D01*
X7131991Y-14950746D02*
X7131991Y-15007888D01*
X7131991Y-15007888D02*
X7122467Y-15026936D01*
X7122467Y-15026936D02*
X7112943Y-15036460D01*
X7112943Y-15036460D02*
X7093896Y-15045984D01*
X7093896Y-15045984D02*
X7055801Y-15045984D01*
X7055801Y-15045984D02*
X7036753Y-15036460D01*
X7217705Y-15026936D02*
X7227229Y-15036460D01*
X7227229Y-15036460D02*
X7217705Y-15045984D01*
X7217705Y-15045984D02*
X7208182Y-15036460D01*
X7208182Y-15036460D02*
X7217705Y-15026936D01*
X7217705Y-15026936D02*
X7217705Y-15045984D01*
X7217705Y-14922174D02*
X7227229Y-14931698D01*
X7227229Y-14931698D02*
X7217705Y-14941222D01*
X7217705Y-14941222D02*
X7208182Y-14931698D01*
X7208182Y-14931698D02*
X7217705Y-14922174D01*
X7217705Y-14922174D02*
X7217705Y-14941222D01*
X5385500Y-15274500D02*
X5585500Y-15474500D01*
X5585500Y-15274500D02*
X5385500Y-15474500D01*
X5827229Y-15265984D02*
X5951039Y-15265984D01*
X5951039Y-15265984D02*
X5884372Y-15342174D01*
X5884372Y-15342174D02*
X5912943Y-15342174D01*
X5912943Y-15342174D02*
X5931991Y-15351698D01*
X5931991Y-15351698D02*
X5941515Y-15361222D01*
X5941515Y-15361222D02*
X5951039Y-15380269D01*
X5951039Y-15380269D02*
X5951039Y-15427888D01*
X5951039Y-15427888D02*
X5941515Y-15446936D01*
X5941515Y-15446936D02*
X5931991Y-15456460D01*
X5931991Y-15456460D02*
X5912943Y-15465984D01*
X5912943Y-15465984D02*
X5855801Y-15465984D01*
X5855801Y-15465984D02*
X5836753Y-15456460D01*
X5836753Y-15456460D02*
X5827229Y-15446936D01*
X6036753Y-15446936D02*
X6046277Y-15456460D01*
X6046277Y-15456460D02*
X6036753Y-15465984D01*
X6036753Y-15465984D02*
X6027229Y-15456460D01*
X6027229Y-15456460D02*
X6036753Y-15446936D01*
X6036753Y-15446936D02*
X6036753Y-15465984D01*
X6122467Y-15285031D02*
X6131991Y-15275508D01*
X6131991Y-15275508D02*
X6151039Y-15265984D01*
X6151039Y-15265984D02*
X6198658Y-15265984D01*
X6198658Y-15265984D02*
X6217705Y-15275508D01*
X6217705Y-15275508D02*
X6227229Y-15285031D01*
X6227229Y-15285031D02*
X6236753Y-15304079D01*
X6236753Y-15304079D02*
X6236753Y-15323127D01*
X6236753Y-15323127D02*
X6227229Y-15351698D01*
X6227229Y-15351698D02*
X6112943Y-15465984D01*
X6112943Y-15465984D02*
X6236753Y-15465984D01*
X6360562Y-15265984D02*
X6379610Y-15265984D01*
X6379610Y-15265984D02*
X6398658Y-15275508D01*
X6398658Y-15275508D02*
X6408182Y-15285031D01*
X6408182Y-15285031D02*
X6417705Y-15304079D01*
X6417705Y-15304079D02*
X6427229Y-15342174D01*
X6427229Y-15342174D02*
X6427229Y-15389793D01*
X6427229Y-15389793D02*
X6417705Y-15427888D01*
X6417705Y-15427888D02*
X6408182Y-15446936D01*
X6408182Y-15446936D02*
X6398658Y-15456460D01*
X6398658Y-15456460D02*
X6379610Y-15465984D01*
X6379610Y-15465984D02*
X6360562Y-15465984D01*
X6360562Y-15465984D02*
X6341515Y-15456460D01*
X6341515Y-15456460D02*
X6331991Y-15446936D01*
X6331991Y-15446936D02*
X6322467Y-15427888D01*
X6322467Y-15427888D02*
X6312943Y-15389793D01*
X6312943Y-15389793D02*
X6312943Y-15342174D01*
X6312943Y-15342174D02*
X6322467Y-15304079D01*
X6322467Y-15304079D02*
X6331991Y-15285031D01*
X6331991Y-15285031D02*
X6341515Y-15275508D01*
X6341515Y-15275508D02*
X6360562Y-15265984D01*
X6551039Y-15265984D02*
X6570086Y-15265984D01*
X6570086Y-15265984D02*
X6589134Y-15275508D01*
X6589134Y-15275508D02*
X6598658Y-15285031D01*
X6598658Y-15285031D02*
X6608182Y-15304079D01*
X6608182Y-15304079D02*
X6617705Y-15342174D01*
X6617705Y-15342174D02*
X6617705Y-15389793D01*
X6617705Y-15389793D02*
X6608182Y-15427888D01*
X6608182Y-15427888D02*
X6598658Y-15446936D01*
X6598658Y-15446936D02*
X6589134Y-15456460D01*
X6589134Y-15456460D02*
X6570086Y-15465984D01*
X6570086Y-15465984D02*
X6551039Y-15465984D01*
X6551039Y-15465984D02*
X6531991Y-15456460D01*
X6531991Y-15456460D02*
X6522467Y-15446936D01*
X6522467Y-15446936D02*
X6512943Y-15427888D01*
X6512943Y-15427888D02*
X6503420Y-15389793D01*
X6503420Y-15389793D02*
X6503420Y-15342174D01*
X6503420Y-15342174D02*
X6512943Y-15304079D01*
X6512943Y-15304079D02*
X6522467Y-15285031D01*
X6522467Y-15285031D02*
X6531991Y-15275508D01*
X6531991Y-15275508D02*
X6551039Y-15265984D01*
X6703420Y-15465984D02*
X6703420Y-15332650D01*
X6703420Y-15351698D02*
X6712943Y-15342174D01*
X6712943Y-15342174D02*
X6731991Y-15332650D01*
X6731991Y-15332650D02*
X6760563Y-15332650D01*
X6760563Y-15332650D02*
X6779610Y-15342174D01*
X6779610Y-15342174D02*
X6789134Y-15361222D01*
X6789134Y-15361222D02*
X6789134Y-15465984D01*
X6789134Y-15361222D02*
X6798658Y-15342174D01*
X6798658Y-15342174D02*
X6817705Y-15332650D01*
X6817705Y-15332650D02*
X6846277Y-15332650D01*
X6846277Y-15332650D02*
X6865324Y-15342174D01*
X6865324Y-15342174D02*
X6874848Y-15361222D01*
X6874848Y-15361222D02*
X6874848Y-15465984D01*
X6970086Y-15465984D02*
X6970086Y-15332650D01*
X6970086Y-15351698D02*
X6979610Y-15342174D01*
X6979610Y-15342174D02*
X6998658Y-15332650D01*
X6998658Y-15332650D02*
X7027229Y-15332650D01*
X7027229Y-15332650D02*
X7046277Y-15342174D01*
X7046277Y-15342174D02*
X7055801Y-15361222D01*
X7055801Y-15361222D02*
X7055801Y-15465984D01*
X7055801Y-15361222D02*
X7065324Y-15342174D01*
X7065324Y-15342174D02*
X7084372Y-15332650D01*
X7084372Y-15332650D02*
X7112943Y-15332650D01*
X7112943Y-15332650D02*
X7131991Y-15342174D01*
X7131991Y-15342174D02*
X7141515Y-15361222D01*
X7141515Y-15361222D02*
X7141515Y-15465984D01*
X7531991Y-15256460D02*
X7360563Y-15513603D01*
X7789134Y-15265984D02*
X7808182Y-15265984D01*
X7808182Y-15265984D02*
X7827229Y-15275508D01*
X7827229Y-15275508D02*
X7836753Y-15285031D01*
X7836753Y-15285031D02*
X7846277Y-15304079D01*
X7846277Y-15304079D02*
X7855801Y-15342174D01*
X7855801Y-15342174D02*
X7855801Y-15389793D01*
X7855801Y-15389793D02*
X7846277Y-15427888D01*
X7846277Y-15427888D02*
X7836753Y-15446936D01*
X7836753Y-15446936D02*
X7827229Y-15456460D01*
X7827229Y-15456460D02*
X7808182Y-15465984D01*
X7808182Y-15465984D02*
X7789134Y-15465984D01*
X7789134Y-15465984D02*
X7770086Y-15456460D01*
X7770086Y-15456460D02*
X7760563Y-15446936D01*
X7760563Y-15446936D02*
X7751039Y-15427888D01*
X7751039Y-15427888D02*
X7741515Y-15389793D01*
X7741515Y-15389793D02*
X7741515Y-15342174D01*
X7741515Y-15342174D02*
X7751039Y-15304079D01*
X7751039Y-15304079D02*
X7760563Y-15285031D01*
X7760563Y-15285031D02*
X7770086Y-15275508D01*
X7770086Y-15275508D02*
X7789134Y-15265984D01*
X7941515Y-15446936D02*
X7951039Y-15456460D01*
X7951039Y-15456460D02*
X7941515Y-15465984D01*
X7941515Y-15465984D02*
X7931991Y-15456460D01*
X7931991Y-15456460D02*
X7941515Y-15446936D01*
X7941515Y-15446936D02*
X7941515Y-15465984D01*
X8141515Y-15465984D02*
X8027229Y-15465984D01*
X8084372Y-15465984D02*
X8084372Y-15265984D01*
X8084372Y-15265984D02*
X8065325Y-15294555D01*
X8065325Y-15294555D02*
X8046277Y-15313603D01*
X8046277Y-15313603D02*
X8027229Y-15323127D01*
X8217706Y-15285031D02*
X8227229Y-15275508D01*
X8227229Y-15275508D02*
X8246277Y-15265984D01*
X8246277Y-15265984D02*
X8293896Y-15265984D01*
X8293896Y-15265984D02*
X8312944Y-15275508D01*
X8312944Y-15275508D02*
X8322467Y-15285031D01*
X8322467Y-15285031D02*
X8331991Y-15304079D01*
X8331991Y-15304079D02*
X8331991Y-15323127D01*
X8331991Y-15323127D02*
X8322467Y-15351698D01*
X8322467Y-15351698D02*
X8208182Y-15465984D01*
X8208182Y-15465984D02*
X8331991Y-15465984D01*
X8503420Y-15265984D02*
X8465325Y-15265984D01*
X8465325Y-15265984D02*
X8446277Y-15275508D01*
X8446277Y-15275508D02*
X8436753Y-15285031D01*
X8436753Y-15285031D02*
X8417706Y-15313603D01*
X8417706Y-15313603D02*
X8408182Y-15351698D01*
X8408182Y-15351698D02*
X8408182Y-15427888D01*
X8408182Y-15427888D02*
X8417706Y-15446936D01*
X8417706Y-15446936D02*
X8427229Y-15456460D01*
X8427229Y-15456460D02*
X8446277Y-15465984D01*
X8446277Y-15465984D02*
X8484372Y-15465984D01*
X8484372Y-15465984D02*
X8503420Y-15456460D01*
X8503420Y-15456460D02*
X8512944Y-15446936D01*
X8512944Y-15446936D02*
X8522468Y-15427888D01*
X8522468Y-15427888D02*
X8522468Y-15380269D01*
X8522468Y-15380269D02*
X8512944Y-15361222D01*
X8512944Y-15361222D02*
X8503420Y-15351698D01*
X8503420Y-15351698D02*
X8484372Y-15342174D01*
X8484372Y-15342174D02*
X8446277Y-15342174D01*
X8446277Y-15342174D02*
X8427229Y-15351698D01*
X8427229Y-15351698D02*
X8417706Y-15361222D01*
X8417706Y-15361222D02*
X8408182Y-15380269D01*
X8646277Y-15265984D02*
X8665325Y-15265984D01*
X8665325Y-15265984D02*
X8684372Y-15275508D01*
X8684372Y-15275508D02*
X8693896Y-15285031D01*
X8693896Y-15285031D02*
X8703420Y-15304079D01*
X8703420Y-15304079D02*
X8712944Y-15342174D01*
X8712944Y-15342174D02*
X8712944Y-15389793D01*
X8712944Y-15389793D02*
X8703420Y-15427888D01*
X8703420Y-15427888D02*
X8693896Y-15446936D01*
X8693896Y-15446936D02*
X8684372Y-15456460D01*
X8684372Y-15456460D02*
X8665325Y-15465984D01*
X8665325Y-15465984D02*
X8646277Y-15465984D01*
X8646277Y-15465984D02*
X8627229Y-15456460D01*
X8627229Y-15456460D02*
X8617706Y-15446936D01*
X8617706Y-15446936D02*
X8608182Y-15427888D01*
X8608182Y-15427888D02*
X8598658Y-15389793D01*
X8598658Y-15389793D02*
X8598658Y-15342174D01*
X8598658Y-15342174D02*
X8608182Y-15304079D01*
X8608182Y-15304079D02*
X8617706Y-15285031D01*
X8617706Y-15285031D02*
X8627229Y-15275508D01*
X8627229Y-15275508D02*
X8646277Y-15265984D01*
X8789134Y-15265984D02*
X8789134Y-15304079D01*
X8865325Y-15265984D02*
X8865325Y-15304079D01*
X9160563Y-15542174D02*
X9151039Y-15532650D01*
X9151039Y-15532650D02*
X9131991Y-15504079D01*
X9131991Y-15504079D02*
X9122468Y-15485031D01*
X9122468Y-15485031D02*
X9112944Y-15456460D01*
X9112944Y-15456460D02*
X9103420Y-15408841D01*
X9103420Y-15408841D02*
X9103420Y-15370746D01*
X9103420Y-15370746D02*
X9112944Y-15323127D01*
X9112944Y-15323127D02*
X9122468Y-15294555D01*
X9122468Y-15294555D02*
X9131991Y-15275508D01*
X9131991Y-15275508D02*
X9151039Y-15246936D01*
X9151039Y-15246936D02*
X9160563Y-15237412D01*
X9265325Y-15351698D02*
X9246277Y-15342174D01*
X9246277Y-15342174D02*
X9236753Y-15332650D01*
X9236753Y-15332650D02*
X9227230Y-15313603D01*
X9227230Y-15313603D02*
X9227230Y-15304079D01*
X9227230Y-15304079D02*
X9236753Y-15285031D01*
X9236753Y-15285031D02*
X9246277Y-15275508D01*
X9246277Y-15275508D02*
X9265325Y-15265984D01*
X9265325Y-15265984D02*
X9303420Y-15265984D01*
X9303420Y-15265984D02*
X9322468Y-15275508D01*
X9322468Y-15275508D02*
X9331991Y-15285031D01*
X9331991Y-15285031D02*
X9341515Y-15304079D01*
X9341515Y-15304079D02*
X9341515Y-15313603D01*
X9341515Y-15313603D02*
X9331991Y-15332650D01*
X9331991Y-15332650D02*
X9322468Y-15342174D01*
X9322468Y-15342174D02*
X9303420Y-15351698D01*
X9303420Y-15351698D02*
X9265325Y-15351698D01*
X9265325Y-15351698D02*
X9246277Y-15361222D01*
X9246277Y-15361222D02*
X9236753Y-15370746D01*
X9236753Y-15370746D02*
X9227230Y-15389793D01*
X9227230Y-15389793D02*
X9227230Y-15427888D01*
X9227230Y-15427888D02*
X9236753Y-15446936D01*
X9236753Y-15446936D02*
X9246277Y-15456460D01*
X9246277Y-15456460D02*
X9265325Y-15465984D01*
X9265325Y-15465984D02*
X9303420Y-15465984D01*
X9303420Y-15465984D02*
X9322468Y-15456460D01*
X9322468Y-15456460D02*
X9331991Y-15446936D01*
X9331991Y-15446936D02*
X9341515Y-15427888D01*
X9341515Y-15427888D02*
X9341515Y-15389793D01*
X9341515Y-15389793D02*
X9331991Y-15370746D01*
X9331991Y-15370746D02*
X9322468Y-15361222D01*
X9322468Y-15361222D02*
X9303420Y-15351698D01*
X9579611Y-15465984D02*
X9579611Y-15265984D01*
X9665325Y-15465984D02*
X9665325Y-15361222D01*
X9665325Y-15361222D02*
X9655801Y-15342174D01*
X9655801Y-15342174D02*
X9636753Y-15332650D01*
X9636753Y-15332650D02*
X9608182Y-15332650D01*
X9608182Y-15332650D02*
X9589134Y-15342174D01*
X9589134Y-15342174D02*
X9579611Y-15351698D01*
X9789134Y-15465984D02*
X9770087Y-15456460D01*
X9770087Y-15456460D02*
X9760563Y-15446936D01*
X9760563Y-15446936D02*
X9751039Y-15427888D01*
X9751039Y-15427888D02*
X9751039Y-15370746D01*
X9751039Y-15370746D02*
X9760563Y-15351698D01*
X9760563Y-15351698D02*
X9770087Y-15342174D01*
X9770087Y-15342174D02*
X9789134Y-15332650D01*
X9789134Y-15332650D02*
X9817706Y-15332650D01*
X9817706Y-15332650D02*
X9836753Y-15342174D01*
X9836753Y-15342174D02*
X9846277Y-15351698D01*
X9846277Y-15351698D02*
X9855801Y-15370746D01*
X9855801Y-15370746D02*
X9855801Y-15427888D01*
X9855801Y-15427888D02*
X9846277Y-15446936D01*
X9846277Y-15446936D02*
X9836753Y-15456460D01*
X9836753Y-15456460D02*
X9817706Y-15465984D01*
X9817706Y-15465984D02*
X9789134Y-15465984D01*
X9970087Y-15465984D02*
X9951039Y-15456460D01*
X9951039Y-15456460D02*
X9941515Y-15437412D01*
X9941515Y-15437412D02*
X9941515Y-15265984D01*
X10122468Y-15456460D02*
X10103420Y-15465984D01*
X10103420Y-15465984D02*
X10065325Y-15465984D01*
X10065325Y-15465984D02*
X10046277Y-15456460D01*
X10046277Y-15456460D02*
X10036753Y-15437412D01*
X10036753Y-15437412D02*
X10036753Y-15361222D01*
X10036753Y-15361222D02*
X10046277Y-15342174D01*
X10046277Y-15342174D02*
X10065325Y-15332650D01*
X10065325Y-15332650D02*
X10103420Y-15332650D01*
X10103420Y-15332650D02*
X10122468Y-15342174D01*
X10122468Y-15342174D02*
X10131992Y-15361222D01*
X10131992Y-15361222D02*
X10131992Y-15380269D01*
X10131992Y-15380269D02*
X10036753Y-15399317D01*
X10208182Y-15456460D02*
X10227230Y-15465984D01*
X10227230Y-15465984D02*
X10265325Y-15465984D01*
X10265325Y-15465984D02*
X10284373Y-15456460D01*
X10284373Y-15456460D02*
X10293896Y-15437412D01*
X10293896Y-15437412D02*
X10293896Y-15427888D01*
X10293896Y-15427888D02*
X10284373Y-15408841D01*
X10284373Y-15408841D02*
X10265325Y-15399317D01*
X10265325Y-15399317D02*
X10236753Y-15399317D01*
X10236753Y-15399317D02*
X10217706Y-15389793D01*
X10217706Y-15389793D02*
X10208182Y-15370746D01*
X10208182Y-15370746D02*
X10208182Y-15361222D01*
X10208182Y-15361222D02*
X10217706Y-15342174D01*
X10217706Y-15342174D02*
X10236753Y-15332650D01*
X10236753Y-15332650D02*
X10265325Y-15332650D01*
X10265325Y-15332650D02*
X10284373Y-15342174D01*
X10360563Y-15542174D02*
X10370087Y-15532650D01*
X10370087Y-15532650D02*
X10389134Y-15504079D01*
X10389134Y-15504079D02*
X10398658Y-15485031D01*
X10398658Y-15485031D02*
X10408182Y-15456460D01*
X10408182Y-15456460D02*
X10417706Y-15408841D01*
X10417706Y-15408841D02*
X10417706Y-15370746D01*
X10417706Y-15370746D02*
X10408182Y-15323127D01*
X10408182Y-15323127D02*
X10398658Y-15294555D01*
X10398658Y-15294555D02*
X10389134Y-15275508D01*
X10389134Y-15275508D02*
X10370087Y-15246936D01*
X10370087Y-15246936D02*
X10360563Y-15237412D01*
X10722468Y-15542174D02*
X10712944Y-15532650D01*
X10712944Y-15532650D02*
X10693896Y-15504079D01*
X10693896Y-15504079D02*
X10684373Y-15485031D01*
X10684373Y-15485031D02*
X10674849Y-15456460D01*
X10674849Y-15456460D02*
X10665325Y-15408841D01*
X10665325Y-15408841D02*
X10665325Y-15370746D01*
X10665325Y-15370746D02*
X10674849Y-15323127D01*
X10674849Y-15323127D02*
X10684373Y-15294555D01*
X10684373Y-15294555D02*
X10693896Y-15275508D01*
X10693896Y-15275508D02*
X10712944Y-15246936D01*
X10712944Y-15246936D02*
X10722468Y-15237412D01*
X10798658Y-15332650D02*
X10798658Y-15465984D01*
X10798658Y-15351698D02*
X10808182Y-15342174D01*
X10808182Y-15342174D02*
X10827230Y-15332650D01*
X10827230Y-15332650D02*
X10855801Y-15332650D01*
X10855801Y-15332650D02*
X10874849Y-15342174D01*
X10874849Y-15342174D02*
X10884373Y-15361222D01*
X10884373Y-15361222D02*
X10884373Y-15465984D01*
X11008182Y-15465984D02*
X10989134Y-15456460D01*
X10989134Y-15456460D02*
X10979611Y-15446936D01*
X10979611Y-15446936D02*
X10970087Y-15427888D01*
X10970087Y-15427888D02*
X10970087Y-15370746D01*
X10970087Y-15370746D02*
X10979611Y-15351698D01*
X10979611Y-15351698D02*
X10989134Y-15342174D01*
X10989134Y-15342174D02*
X11008182Y-15332650D01*
X11008182Y-15332650D02*
X11036754Y-15332650D01*
X11036754Y-15332650D02*
X11055801Y-15342174D01*
X11055801Y-15342174D02*
X11065325Y-15351698D01*
X11065325Y-15351698D02*
X11074849Y-15370746D01*
X11074849Y-15370746D02*
X11074849Y-15427888D01*
X11074849Y-15427888D02*
X11065325Y-15446936D01*
X11065325Y-15446936D02*
X11055801Y-15456460D01*
X11055801Y-15456460D02*
X11036754Y-15465984D01*
X11036754Y-15465984D02*
X11008182Y-15465984D01*
X11131992Y-15332650D02*
X11208182Y-15332650D01*
X11160563Y-15265984D02*
X11160563Y-15437412D01*
X11160563Y-15437412D02*
X11170087Y-15456460D01*
X11170087Y-15456460D02*
X11189134Y-15465984D01*
X11189134Y-15465984D02*
X11208182Y-15465984D01*
X11427230Y-15332650D02*
X11427230Y-15532650D01*
X11427230Y-15342174D02*
X11446277Y-15332650D01*
X11446277Y-15332650D02*
X11484373Y-15332650D01*
X11484373Y-15332650D02*
X11503420Y-15342174D01*
X11503420Y-15342174D02*
X11512944Y-15351698D01*
X11512944Y-15351698D02*
X11522468Y-15370746D01*
X11522468Y-15370746D02*
X11522468Y-15427888D01*
X11522468Y-15427888D02*
X11512944Y-15446936D01*
X11512944Y-15446936D02*
X11503420Y-15456460D01*
X11503420Y-15456460D02*
X11484373Y-15465984D01*
X11484373Y-15465984D02*
X11446277Y-15465984D01*
X11446277Y-15465984D02*
X11427230Y-15456460D01*
X11636753Y-15465984D02*
X11617706Y-15456460D01*
X11617706Y-15456460D02*
X11608182Y-15437412D01*
X11608182Y-15437412D02*
X11608182Y-15265984D01*
X11798658Y-15465984D02*
X11798658Y-15361222D01*
X11798658Y-15361222D02*
X11789134Y-15342174D01*
X11789134Y-15342174D02*
X11770087Y-15332650D01*
X11770087Y-15332650D02*
X11731992Y-15332650D01*
X11731992Y-15332650D02*
X11712944Y-15342174D01*
X11798658Y-15456460D02*
X11779611Y-15465984D01*
X11779611Y-15465984D02*
X11731992Y-15465984D01*
X11731992Y-15465984D02*
X11712944Y-15456460D01*
X11712944Y-15456460D02*
X11703420Y-15437412D01*
X11703420Y-15437412D02*
X11703420Y-15418365D01*
X11703420Y-15418365D02*
X11712944Y-15399317D01*
X11712944Y-15399317D02*
X11731992Y-15389793D01*
X11731992Y-15389793D02*
X11779611Y-15389793D01*
X11779611Y-15389793D02*
X11798658Y-15380269D01*
X11865325Y-15332650D02*
X11941515Y-15332650D01*
X11893896Y-15265984D02*
X11893896Y-15437412D01*
X11893896Y-15437412D02*
X11903420Y-15456460D01*
X11903420Y-15456460D02*
X11922468Y-15465984D01*
X11922468Y-15465984D02*
X11941515Y-15465984D01*
X12084373Y-15456460D02*
X12065325Y-15465984D01*
X12065325Y-15465984D02*
X12027230Y-15465984D01*
X12027230Y-15465984D02*
X12008182Y-15456460D01*
X12008182Y-15456460D02*
X11998658Y-15437412D01*
X11998658Y-15437412D02*
X11998658Y-15361222D01*
X11998658Y-15361222D02*
X12008182Y-15342174D01*
X12008182Y-15342174D02*
X12027230Y-15332650D01*
X12027230Y-15332650D02*
X12065325Y-15332650D01*
X12065325Y-15332650D02*
X12084373Y-15342174D01*
X12084373Y-15342174D02*
X12093896Y-15361222D01*
X12093896Y-15361222D02*
X12093896Y-15380269D01*
X12093896Y-15380269D02*
X11998658Y-15399317D01*
X12265325Y-15465984D02*
X12265325Y-15265984D01*
X12265325Y-15456460D02*
X12246277Y-15465984D01*
X12246277Y-15465984D02*
X12208182Y-15465984D01*
X12208182Y-15465984D02*
X12189134Y-15456460D01*
X12189134Y-15456460D02*
X12179611Y-15446936D01*
X12179611Y-15446936D02*
X12170087Y-15427888D01*
X12170087Y-15427888D02*
X12170087Y-15370746D01*
X12170087Y-15370746D02*
X12179611Y-15351698D01*
X12179611Y-15351698D02*
X12189134Y-15342174D01*
X12189134Y-15342174D02*
X12208182Y-15332650D01*
X12208182Y-15332650D02*
X12246277Y-15332650D01*
X12246277Y-15332650D02*
X12265325Y-15342174D01*
X12341515Y-15542174D02*
X12351039Y-15532650D01*
X12351039Y-15532650D02*
X12370087Y-15504079D01*
X12370087Y-15504079D02*
X12379611Y-15485031D01*
X12379611Y-15485031D02*
X12389134Y-15456460D01*
X12389134Y-15456460D02*
X12398658Y-15408841D01*
X12398658Y-15408841D02*
X12398658Y-15370746D01*
X12398658Y-15370746D02*
X12389134Y-15323127D01*
X12389134Y-15323127D02*
X12379611Y-15294555D01*
X12379611Y-15294555D02*
X12370087Y-15275508D01*
X12370087Y-15275508D02*
X12351039Y-15246936D01*
X12351039Y-15246936D02*
X12341515Y-15237412D01*
M02*
