%TF.GenerationSoftware,KiCad,Pcbnew,8.0.2-rc1*%
%TF.CreationDate,2024-08-28T13:59:48+02:00*%
%TF.ProjectId,Carte-Principale,43617274-652d-4507-9269-6e636970616c,rev?*%
%TF.SameCoordinates,Original*%
%TF.FileFunction,Paste,Top*%
%TF.FilePolarity,Positive*%
%FSLAX46Y46*%
G04 Gerber Fmt 4.6, Leading zero omitted, Abs format (unit mm)*
G04 Created by KiCad (PCBNEW 8.0.2-rc1) date 2024-08-28 13:59:48*
%MOMM*%
%LPD*%
G01*
G04 APERTURE LIST*
G04 Aperture macros list*
%AMRoundRect*
0 Rectangle with rounded corners*
0 $1 Rounding radius*
0 $2 $3 $4 $5 $6 $7 $8 $9 X,Y pos of 4 corners*
0 Add a 4 corners polygon primitive as box body*
4,1,4,$2,$3,$4,$5,$6,$7,$8,$9,$2,$3,0*
0 Add four circle primitives for the rounded corners*
1,1,$1+$1,$2,$3*
1,1,$1+$1,$4,$5*
1,1,$1+$1,$6,$7*
1,1,$1+$1,$8,$9*
0 Add four rect primitives between the rounded corners*
20,1,$1+$1,$2,$3,$4,$5,0*
20,1,$1+$1,$4,$5,$6,$7,0*
20,1,$1+$1,$6,$7,$8,$9,0*
20,1,$1+$1,$8,$9,$2,$3,0*%
G04 Aperture macros list end*
%ADD10C,0.200000*%
%ADD11RoundRect,0.249999X-0.512501X-1.075001X0.512501X-1.075001X0.512501X1.075001X-0.512501X1.075001X0*%
%ADD12RoundRect,0.250000X0.400000X1.075000X-0.400000X1.075000X-0.400000X-1.075000X0.400000X-1.075000X0*%
%ADD13RoundRect,0.250000X-1.100000X0.412500X-1.100000X-0.412500X1.100000X-0.412500X1.100000X0.412500X0*%
%ADD14RoundRect,0.250001X1.074999X-0.462499X1.074999X0.462499X-1.074999X0.462499X-1.074999X-0.462499X0*%
%ADD15RoundRect,0.250000X1.075000X-0.400000X1.075000X0.400000X-1.075000X0.400000X-1.075000X-0.400000X0*%
%ADD16RoundRect,0.249999X0.512501X1.075001X-0.512501X1.075001X-0.512501X-1.075001X0.512501X-1.075001X0*%
%ADD17RoundRect,0.250000X-0.400000X-1.075000X0.400000X-1.075000X0.400000X1.075000X-0.400000X1.075000X0*%
%ADD18RoundRect,0.150000X-0.587500X-0.150000X0.587500X-0.150000X0.587500X0.150000X-0.587500X0.150000X0*%
%ADD19RoundRect,0.249999X1.075001X-0.512501X1.075001X0.512501X-1.075001X0.512501X-1.075001X-0.512501X0*%
%ADD20RoundRect,0.250001X-0.462499X-1.074999X0.462499X-1.074999X0.462499X1.074999X-0.462499X1.074999X0*%
%ADD21RoundRect,0.100000X-0.637500X-0.100000X0.637500X-0.100000X0.637500X0.100000X-0.637500X0.100000X0*%
G04 APERTURE END LIST*
D10*
X56500000Y-45000000D02*
X62500000Y-45000000D01*
X62500000Y-49000000D01*
X56500000Y-49000000D01*
X56500000Y-45000000D01*
G36*
X56500000Y-45000000D02*
G01*
X62500000Y-45000000D01*
X62500000Y-49000000D01*
X56500000Y-49000000D01*
X56500000Y-45000000D01*
G37*
D11*
%TO.C,D1*%
X61162500Y-74140000D03*
X65837500Y-74140000D03*
%TD*%
D12*
%TO.C,R2*%
X88550000Y-84750000D03*
X85450000Y-84750000D03*
%TD*%
D11*
%TO.C,D6*%
X64337500Y-51435000D03*
X69012500Y-51435000D03*
%TD*%
D13*
%TO.C,C2*%
X124250000Y-84187500D03*
X124250000Y-87312500D03*
%TD*%
D14*
%TO.C,R14*%
X139700000Y-77725000D03*
X139700000Y-74750000D03*
%TD*%
%TO.C,R15*%
X132080000Y-77725000D03*
X132080000Y-74750000D03*
%TD*%
D15*
%TO.C,R19*%
X151130000Y-77787500D03*
X151130000Y-74687500D03*
%TD*%
D16*
%TO.C,F3*%
X127837500Y-102500000D03*
X123162500Y-102500000D03*
%TD*%
D17*
%TO.C,R12*%
X92710000Y-116840000D03*
X95810000Y-116840000D03*
%TD*%
D18*
%TO.C,Q5*%
X100330000Y-118335000D03*
X100330000Y-120235000D03*
X102205000Y-119285000D03*
%TD*%
D17*
%TO.C,R11*%
X92710000Y-105410000D03*
X95810000Y-105410000D03*
%TD*%
D15*
%TO.C,R16*%
X158500000Y-77800000D03*
X158500000Y-74700000D03*
%TD*%
%TO.C,R17*%
X154940000Y-77787500D03*
X154940000Y-74687500D03*
%TD*%
D11*
%TO.C,D4*%
X64337500Y-55725000D03*
X69012500Y-55725000D03*
%TD*%
D18*
%TO.C,Q3*%
X100330000Y-109085000D03*
X100330000Y-110985000D03*
X102205000Y-110035000D03*
%TD*%
D15*
%TO.C,R18*%
X147320000Y-77787500D03*
X147320000Y-74687500D03*
%TD*%
D12*
%TO.C,R8*%
X88545000Y-65000000D03*
X85445000Y-65000000D03*
%TD*%
D14*
%TO.C,R13*%
X135890000Y-77725000D03*
X135890000Y-74750000D03*
%TD*%
D11*
%TO.C,D7*%
X64337500Y-64305000D03*
X69012500Y-64305000D03*
%TD*%
D15*
%TO.C,R22*%
X164250000Y-77800000D03*
X164250000Y-74700000D03*
%TD*%
%TO.C,R26*%
X168000000Y-77800000D03*
X168000000Y-74700000D03*
%TD*%
D11*
%TO.C,D5*%
X64337500Y-60015000D03*
X69012500Y-60015000D03*
%TD*%
D14*
%TO.C,R21*%
X143510000Y-77725000D03*
X143510000Y-74750000D03*
%TD*%
D12*
%TO.C,R3*%
X88550000Y-69000000D03*
X85450000Y-69000000D03*
%TD*%
D17*
%TO.C,R6*%
X63220000Y-83820000D03*
X66320000Y-83820000D03*
%TD*%
D15*
%TO.C,R23*%
X178500000Y-77800000D03*
X178500000Y-74700000D03*
%TD*%
%TO.C,R25*%
X171500000Y-77800000D03*
X171500000Y-74700000D03*
%TD*%
D17*
%TO.C,R10*%
X92710000Y-109220000D03*
X95810000Y-109220000D03*
%TD*%
D12*
%TO.C,R7*%
X88545000Y-77500000D03*
X85445000Y-77500000D03*
%TD*%
D19*
%TO.C,F1*%
X81280000Y-103937500D03*
X81280000Y-99262500D03*
%TD*%
D18*
%TO.C,Q4*%
X100330000Y-113710000D03*
X100330000Y-115610000D03*
X102205000Y-114660000D03*
%TD*%
D20*
%TO.C,R20*%
X144762500Y-87000000D03*
X147737500Y-87000000D03*
%TD*%
D21*
%TO.C,U1*%
X130887500Y-84525000D03*
X130887500Y-85175000D03*
X130887500Y-85825000D03*
X130887500Y-86475000D03*
X130887500Y-87125000D03*
X130887500Y-87775000D03*
X130887500Y-88425000D03*
X130887500Y-89075000D03*
X130887500Y-89725000D03*
X130887500Y-90375000D03*
X130887500Y-91025000D03*
X130887500Y-91675000D03*
X130887500Y-92325000D03*
X130887500Y-92975000D03*
X136612500Y-92975000D03*
X136612500Y-92325000D03*
X136612500Y-91675000D03*
X136612500Y-91025000D03*
X136612500Y-90375000D03*
X136612500Y-89725000D03*
X136612500Y-89075000D03*
X136612500Y-88425000D03*
X136612500Y-87775000D03*
X136612500Y-87125000D03*
X136612500Y-86475000D03*
X136612500Y-85825000D03*
X136612500Y-85175000D03*
X136612500Y-84525000D03*
%TD*%
D15*
%TO.C,R24*%
X175000000Y-77800000D03*
X175000000Y-74700000D03*
%TD*%
D11*
%TO.C,D2*%
X61162500Y-77750000D03*
X65837500Y-77750000D03*
%TD*%
D17*
%TO.C,R9*%
X92710000Y-113030000D03*
X95810000Y-113030000D03*
%TD*%
D12*
%TO.C,R5*%
X88545000Y-81125000D03*
X85445000Y-81125000D03*
%TD*%
%TO.C,R4*%
X88545000Y-73025000D03*
X85445000Y-73025000D03*
%TD*%
D19*
%TO.C,F2*%
X81280000Y-114097500D03*
X81280000Y-109422500D03*
%TD*%
D18*
%TO.C,Q2*%
X100330000Y-104460000D03*
X100330000Y-106360000D03*
X102205000Y-105410000D03*
%TD*%
D12*
%TO.C,R1*%
X88545000Y-61595000D03*
X85445000Y-61595000D03*
%TD*%
D11*
%TO.C,D3*%
X61162500Y-70250000D03*
X65837500Y-70250000D03*
%TD*%
M02*
