%TF.GenerationSoftware,KiCad,Pcbnew,8.0.2-rc1*%
%TF.CreationDate,2024-12-28T13:04:22+01:00*%
%TF.ProjectId,Carte-Principale,43617274-652d-4507-9269-6e636970616c,V1*%
%TF.SameCoordinates,Original*%
%TF.FileFunction,Legend,Bot*%
%TF.FilePolarity,Positive*%
%FSLAX46Y46*%
G04 Gerber Fmt 4.6, Leading zero omitted, Abs format (unit mm)*
G04 Created by KiCad (PCBNEW 8.0.2-rc1) date 2024-12-28 13:04:22*
%MOMM*%
%LPD*%
G01*
G04 APERTURE LIST*
%ADD10C,0.550000*%
%ADD11C,0.120000*%
%ADD12C,0.000000*%
G04 APERTURE END LIST*
D10*
X117115000Y-116205000D02*
G75*
G02*
X116565000Y-116205000I-275000J0D01*
G01*
X116565000Y-116205000D02*
G75*
G02*
X117115000Y-116205000I275000J0D01*
G01*
X132275000Y-61500000D02*
G75*
G02*
X131725000Y-61500000I-275000J0D01*
G01*
X131725000Y-61500000D02*
G75*
G02*
X132275000Y-61500000I275000J0D01*
G01*
X198275000Y-122500000D02*
G75*
G02*
X197725000Y-122500000I-275000J0D01*
G01*
X197725000Y-122500000D02*
G75*
G02*
X198275000Y-122500000I275000J0D01*
G01*
X137275000Y-122500000D02*
G75*
G02*
X136725000Y-122500000I-275000J0D01*
G01*
X136725000Y-122500000D02*
G75*
G02*
X137275000Y-122500000I275000J0D01*
G01*
X122275000Y-55500000D02*
G75*
G02*
X121725000Y-55500000I-275000J0D01*
G01*
X121725000Y-55500000D02*
G75*
G02*
X122275000Y-55500000I275000J0D01*
G01*
X185775000Y-61500000D02*
G75*
G02*
X185225000Y-61500000I-275000J0D01*
G01*
X185225000Y-61500000D02*
G75*
G02*
X185775000Y-61500000I275000J0D01*
G01*
X188275000Y-55500000D02*
G75*
G02*
X187725000Y-55500000I-275000J0D01*
G01*
X187725000Y-55500000D02*
G75*
G02*
X188275000Y-55500000I275000J0D01*
G01*
D11*
%TO.C,U6*%
X145510000Y-42480000D02*
X145510000Y-43880000D01*
X147830000Y-42480000D02*
X147830000Y-43890000D01*
X148110000Y-44500000D02*
X147780000Y-44260000D01*
X148110000Y-44020000D01*
X148110000Y-44500000D01*
G36*
X148110000Y-44500000D02*
G01*
X147780000Y-44260000D01*
X148110000Y-44020000D01*
X148110000Y-44500000D01*
G37*
%TO.C,U4*%
X136000000Y-42480000D02*
X136000000Y-43880000D01*
X138320000Y-42480000D02*
X138320000Y-43890000D01*
X138600000Y-44500000D02*
X138270000Y-44260000D01*
X138600000Y-44020000D01*
X138600000Y-44500000D01*
G36*
X138600000Y-44500000D02*
G01*
X138270000Y-44260000D01*
X138600000Y-44020000D01*
X138600000Y-44500000D01*
G37*
%TO.C,R31*%
X135805000Y-103950263D02*
X135805000Y-105397737D01*
X138515000Y-103950263D02*
X138515000Y-105397737D01*
%TO.C,R32*%
X132249000Y-103950263D02*
X132249000Y-105397737D01*
X134959000Y-103950263D02*
X134959000Y-105397737D01*
%TO.C,R27*%
X183406263Y-41825000D02*
X184853737Y-41825000D01*
X183406263Y-44535000D02*
X184853737Y-44535000D01*
D12*
%TO.C,kibuzzard-35*%
G36*
X146255097Y-133334216D02*
G01*
X147424402Y-133334216D01*
X147424402Y-133614669D01*
X146255097Y-133614669D01*
X146255097Y-133983328D01*
X146024402Y-133983328D01*
X146024402Y-132965557D01*
X146255097Y-132965557D01*
X146255097Y-133334216D01*
G37*
G36*
X144117779Y-133354572D02*
G01*
X144511317Y-133354572D01*
X144511317Y-133594313D01*
X144117779Y-133594313D01*
X144117779Y-133949402D01*
X143889346Y-133949402D01*
X143889346Y-133594313D01*
X143495808Y-133594313D01*
X143495808Y-133354572D01*
X143889346Y-133354572D01*
X143889346Y-132999483D01*
X144117779Y-132999483D01*
X144117779Y-133354572D01*
G37*
G36*
X141770121Y-134394960D02*
G01*
X140840557Y-134394960D01*
X140995736Y-134479020D01*
X141150663Y-134559311D01*
X141305339Y-134635832D01*
X141460015Y-134708584D01*
X141614943Y-134777566D01*
X141770121Y-134842779D01*
X141770121Y-135066688D01*
X140370121Y-135066688D01*
X140370121Y-134815638D01*
X141231834Y-134815638D01*
X141143627Y-134775775D01*
X141041850Y-134728562D01*
X140931591Y-134675412D01*
X140817940Y-134617738D01*
X140702310Y-134556955D01*
X140586115Y-134494475D01*
X140473877Y-134431147D01*
X140370121Y-134367819D01*
X140370121Y-134143910D01*
X141770121Y-134143910D01*
X141770121Y-134394960D01*
G37*
G36*
X147424402Y-134365557D02*
G01*
X147301987Y-134417577D01*
X147165436Y-134478643D01*
X147024362Y-134544233D01*
X146888376Y-134609822D01*
X147028603Y-134676260D01*
X147168829Y-134739871D01*
X147302835Y-134797262D01*
X147424402Y-134845040D01*
X147424402Y-135145848D01*
X147276260Y-135084782D01*
X147185792Y-135043223D01*
X147088538Y-134995444D01*
X146986478Y-134942577D01*
X146881591Y-134885751D01*
X146777553Y-134826381D01*
X146678037Y-134765880D01*
X146024402Y-135123231D01*
X146024402Y-134842779D01*
X146472221Y-134609822D01*
X146024402Y-134388174D01*
X146024402Y-134087367D01*
X146684822Y-134453764D01*
X146784055Y-134398352D01*
X146887246Y-134340679D01*
X146991002Y-134283288D01*
X147091931Y-134228724D01*
X147188053Y-134177835D01*
X147277391Y-134131470D01*
X147424402Y-134064750D01*
X147424402Y-134365557D01*
G37*
G36*
X150251543Y-134365557D02*
G01*
X150129128Y-134417577D01*
X149992577Y-134478643D01*
X149851502Y-134544233D01*
X149715517Y-134609822D01*
X149855743Y-134676260D01*
X149995969Y-134739871D01*
X150129976Y-134797262D01*
X150251543Y-134845040D01*
X150251543Y-135145848D01*
X150103401Y-135084782D01*
X150012932Y-135043223D01*
X149915679Y-134995444D01*
X149813619Y-134942577D01*
X149708732Y-134885751D01*
X149604693Y-134826381D01*
X149505178Y-134765880D01*
X148851543Y-135123231D01*
X148851543Y-134842779D01*
X149299362Y-134609822D01*
X148851543Y-134388174D01*
X148851543Y-134087367D01*
X149511963Y-134453764D01*
X149611195Y-134398352D01*
X149714386Y-134340679D01*
X149818142Y-134283288D01*
X149919071Y-134228724D01*
X150015194Y-134177835D01*
X150104532Y-134131470D01*
X150251543Y-134064750D01*
X150251543Y-134365557D01*
G37*
G36*
X141778320Y-135727956D02*
G01*
X141748635Y-135852633D01*
X141697464Y-135963174D01*
X141623110Y-136057318D01*
X141524443Y-136133934D01*
X141400331Y-136191890D01*
X141249079Y-136228360D01*
X141068990Y-136240517D01*
X140892859Y-136229491D01*
X140744435Y-136196414D01*
X140621737Y-136143546D01*
X140522787Y-136073150D01*
X140447302Y-135985226D01*
X140395000Y-135879774D01*
X140364467Y-135759620D01*
X140356207Y-135652472D01*
X140596292Y-135652472D01*
X140635872Y-135804006D01*
X140741042Y-135896737D01*
X140892577Y-135944233D01*
X141068990Y-135957803D01*
X141168788Y-135953562D01*
X141260105Y-135940840D01*
X141410509Y-135884297D01*
X141510024Y-135780258D01*
X141546212Y-135620808D01*
X141546212Y-135595929D01*
X141543950Y-135571050D01*
X140603078Y-135571050D01*
X140597423Y-135611761D01*
X140596292Y-135652472D01*
X140356207Y-135652472D01*
X140354289Y-135627593D01*
X140361074Y-135471535D01*
X140388215Y-135292859D01*
X141754289Y-135292859D01*
X141780299Y-135445525D01*
X141788215Y-135591405D01*
X141787887Y-135595929D01*
X141778320Y-135727956D01*
G37*
G36*
X144579168Y-134183489D02*
G01*
X144602916Y-134277351D01*
X144619879Y-134385913D01*
X144626664Y-134496737D01*
X144618183Y-134626220D01*
X144592738Y-134738740D01*
X144552027Y-134834297D01*
X144497746Y-134912892D01*
X144354128Y-135016931D01*
X144174321Y-135050856D01*
X144043142Y-135035527D01*
X143933072Y-134989539D01*
X143844111Y-134912892D01*
X143776763Y-134805083D01*
X143731528Y-134665611D01*
X143708409Y-134494475D01*
X143579491Y-134505784D01*
X143427956Y-134517092D01*
X143427956Y-134998837D01*
X143197262Y-134998837D01*
X143197262Y-134284136D01*
X143370000Y-134275654D01*
X143548958Y-134263780D01*
X143733005Y-134247948D01*
X143921010Y-134227593D01*
X143925816Y-134383086D01*
X143940234Y-134505784D01*
X143994515Y-134669758D01*
X144078199Y-134746656D01*
X144185630Y-134765880D01*
X144260267Y-134754572D01*
X144324725Y-134712730D01*
X144371090Y-134629047D01*
X144389184Y-134494475D01*
X144384095Y-134388740D01*
X144368829Y-134302229D01*
X144323595Y-134175574D01*
X144554289Y-134119031D01*
X144579168Y-134183489D01*
G37*
G36*
X143323918Y-135226139D02*
G01*
X143482237Y-135263457D01*
X143600726Y-135293362D01*
X143723989Y-135325780D01*
X143852027Y-135360711D01*
X143982579Y-135397652D01*
X144113381Y-135436101D01*
X144244435Y-135476058D01*
X144431026Y-135535428D01*
X144597262Y-135591405D01*
X144597262Y-135878643D01*
X144476763Y-135921867D01*
X144353499Y-135964085D01*
X144227472Y-136005299D01*
X144100816Y-136044879D01*
X143975668Y-136082197D01*
X143852027Y-136117254D01*
X143671939Y-136165315D01*
X143500331Y-136207722D01*
X143340880Y-136244192D01*
X143197262Y-136274443D01*
X143197262Y-135982682D01*
X143314871Y-135962326D01*
X143450574Y-135937447D01*
X143597302Y-135909176D01*
X143747989Y-135878643D01*
X143899523Y-135845848D01*
X144048796Y-135810792D01*
X144188740Y-135774604D01*
X144312286Y-135738417D01*
X144187044Y-135701947D01*
X144046535Y-135664911D01*
X143897262Y-135628724D01*
X143745727Y-135594798D01*
X143595323Y-135563417D01*
X143449443Y-135534863D01*
X143314588Y-135511115D01*
X143197262Y-135494152D01*
X143197262Y-135200129D01*
X143323918Y-135226139D01*
G37*
G36*
X141238901Y-132980258D02*
G01*
X141386761Y-133010792D01*
X141512286Y-133059984D01*
X141615194Y-133126139D01*
X141695485Y-133208409D01*
X141753158Y-133305945D01*
X141787932Y-133417617D01*
X141799523Y-133542294D01*
X141793869Y-133680541D01*
X141776906Y-133796737D01*
X141736195Y-133951664D01*
X141037326Y-133951664D01*
X141037326Y-133673473D01*
X141548473Y-133673473D01*
X141555258Y-133619192D01*
X141557520Y-133564911D01*
X141527835Y-133429774D01*
X141438780Y-133331955D01*
X141344919Y-133287977D01*
X141221656Y-133261590D01*
X141068990Y-133252795D01*
X140965234Y-133257601D01*
X140871090Y-133272019D01*
X140717294Y-133335347D01*
X140616648Y-133447302D01*
X140580460Y-133614669D01*
X140605339Y-133763942D01*
X140661882Y-133886074D01*
X140440234Y-133958449D01*
X140413094Y-133912084D01*
X140379168Y-133834055D01*
X140350897Y-133722100D01*
X140338457Y-133576220D01*
X140350048Y-133453522D01*
X140384822Y-133338740D01*
X140442779Y-133235267D01*
X140523918Y-133146494D01*
X140627674Y-133073554D01*
X140753481Y-133017577D01*
X140900775Y-132981955D01*
X141068990Y-132970081D01*
X141238901Y-132980258D01*
G37*
G36*
X149735872Y-133454087D02*
G01*
X149863942Y-133530703D01*
X149990315Y-133602229D01*
X150118384Y-133666971D01*
X150251543Y-133723231D01*
X150251543Y-134014992D01*
X150103401Y-133950533D01*
X149947342Y-133872504D01*
X149798069Y-133788821D01*
X149668021Y-133707399D01*
X149604128Y-133806349D01*
X149516486Y-133872504D01*
X149411317Y-133909822D01*
X149294838Y-133922262D01*
X149184863Y-133912932D01*
X149090153Y-133884943D01*
X148946535Y-133777512D01*
X148897342Y-133700614D01*
X148862851Y-133610145D01*
X148842496Y-133507237D01*
X148835711Y-133393021D01*
X149077714Y-133393021D01*
X149090719Y-133493102D01*
X149129733Y-133571696D01*
X149196454Y-133622585D01*
X149292577Y-133639548D01*
X149449766Y-133576220D01*
X149491325Y-133493102D01*
X149505178Y-133370404D01*
X149505178Y-133309338D01*
X149084499Y-133309338D01*
X149078845Y-133354572D01*
X149077714Y-133393021D01*
X148835711Y-133393021D01*
X148837973Y-133313861D01*
X148843627Y-133218869D01*
X148854935Y-133120485D01*
X148871898Y-133031147D01*
X150251543Y-133031147D01*
X150251543Y-133309338D01*
X149735872Y-133309338D01*
X149735872Y-133454087D01*
G37*
D11*
%TO.C,C7*%
X172516748Y-70776000D02*
X173939252Y-70776000D01*
X172516748Y-73496000D02*
X173939252Y-73496000D01*
%TO.C,C5*%
X138340000Y-52336248D02*
X138340000Y-53758752D01*
X141060000Y-52336248D02*
X141060000Y-53758752D01*
D12*
%TO.C,kibuzzard-40*%
G36*
X113825729Y-144107141D02*
G01*
X113595034Y-144107141D01*
X113595034Y-143507787D01*
X112425729Y-143507787D01*
X112425729Y-143227334D01*
X113825729Y-143227334D01*
X113825729Y-144107141D01*
G37*
G36*
X115483564Y-144622811D02*
G01*
X116652869Y-144622811D01*
X116652869Y-144903263D01*
X115483564Y-144903263D01*
X115483564Y-145271922D01*
X115252869Y-145271922D01*
X115252869Y-144254152D01*
X115483564Y-144254152D01*
X115483564Y-144622811D01*
G37*
G36*
X110519105Y-143512310D02*
G01*
X110912643Y-143512310D01*
X110912643Y-143752052D01*
X110519105Y-143752052D01*
X110519105Y-144107141D01*
X110290672Y-144107141D01*
X110290672Y-143752052D01*
X109897134Y-143752052D01*
X109897134Y-143512310D01*
X110290672Y-143512310D01*
X110290672Y-143157221D01*
X110519105Y-143157221D01*
X110519105Y-143512310D01*
G37*
G36*
X113825729Y-145237997D02*
G01*
X113595034Y-145237997D01*
X113595034Y-144618288D01*
X113201496Y-144618288D01*
X113201496Y-145113603D01*
X112970801Y-145113603D01*
X112970801Y-144618288D01*
X112656423Y-144618288D01*
X112656423Y-145188239D01*
X112425729Y-145188239D01*
X112425729Y-144340097D01*
X113825729Y-144340097D01*
X113825729Y-145237997D01*
G37*
G36*
X116652869Y-145683554D02*
G01*
X115723305Y-145683554D01*
X115878484Y-145767614D01*
X116033411Y-145847905D01*
X116188087Y-145924426D01*
X116342763Y-145997178D01*
X116497691Y-146066160D01*
X116652869Y-146131373D01*
X116652869Y-146355283D01*
X115252869Y-146355283D01*
X115252869Y-146104233D01*
X116114582Y-146104233D01*
X116026375Y-146064370D01*
X115924598Y-146017157D01*
X115814339Y-145964006D01*
X115700688Y-145906333D01*
X115585058Y-145845549D01*
X115468863Y-145783069D01*
X115356625Y-145719742D01*
X115252869Y-145656414D01*
X115252869Y-145432504D01*
X116652869Y-145432504D01*
X116652869Y-145683554D01*
G37*
G36*
X119480010Y-144552698D02*
G01*
X118550446Y-144552698D01*
X118705624Y-144636758D01*
X118860552Y-144717049D01*
X119015228Y-144793570D01*
X119169904Y-144866322D01*
X119324831Y-144935304D01*
X119480010Y-145000517D01*
X119480010Y-145224426D01*
X118080010Y-145224426D01*
X118080010Y-144973376D01*
X118941722Y-144973376D01*
X118853515Y-144933514D01*
X118751738Y-144886300D01*
X118641480Y-144833150D01*
X118527829Y-144775477D01*
X118412199Y-144714693D01*
X118296003Y-144652213D01*
X118183766Y-144588885D01*
X118080010Y-144525557D01*
X118080010Y-144301648D01*
X119480010Y-144301648D01*
X119480010Y-144552698D01*
G37*
G36*
X110980494Y-144341228D02*
G01*
X111004242Y-144435089D01*
X111021205Y-144543651D01*
X111027990Y-144654475D01*
X111019509Y-144783958D01*
X110994065Y-144896478D01*
X110953354Y-144992036D01*
X110899073Y-145070630D01*
X110755454Y-145174669D01*
X110575648Y-145208595D01*
X110444468Y-145193265D01*
X110334398Y-145147277D01*
X110245438Y-145070630D01*
X110178089Y-144962822D01*
X110132855Y-144823349D01*
X110109735Y-144652213D01*
X109980817Y-144663522D01*
X109829283Y-144674830D01*
X109829283Y-145156575D01*
X109598588Y-145156575D01*
X109598588Y-144441874D01*
X109771326Y-144433393D01*
X109950284Y-144421519D01*
X110134331Y-144405687D01*
X110322336Y-144385331D01*
X110327142Y-144540824D01*
X110341561Y-144663522D01*
X110395842Y-144827496D01*
X110479525Y-144904394D01*
X110586956Y-144923619D01*
X110661593Y-144912310D01*
X110726052Y-144870468D01*
X110772417Y-144786785D01*
X110790511Y-144652213D01*
X110785422Y-144546478D01*
X110770155Y-144459968D01*
X110724921Y-144333312D01*
X110955616Y-144276769D01*
X110980494Y-144341228D01*
G37*
G36*
X113833927Y-145885695D02*
G01*
X113804242Y-146010372D01*
X113753071Y-146120913D01*
X113678717Y-146215057D01*
X113580050Y-146291672D01*
X113455939Y-146349628D01*
X113304687Y-146386099D01*
X113124598Y-146398255D01*
X112948467Y-146387229D01*
X112800042Y-146354152D01*
X112677344Y-146301284D01*
X112578394Y-146230889D01*
X112502910Y-146142964D01*
X112450607Y-146037512D01*
X112420074Y-145917359D01*
X112411815Y-145810210D01*
X112651900Y-145810210D01*
X112691480Y-145961745D01*
X112796649Y-146054475D01*
X112948184Y-146101971D01*
X113124598Y-146115541D01*
X113224396Y-146111300D01*
X113315712Y-146098578D01*
X113466116Y-146042036D01*
X113565632Y-145937997D01*
X113601819Y-145778546D01*
X113601819Y-145753667D01*
X113599557Y-145728788D01*
X112658685Y-145728788D01*
X112653031Y-145769499D01*
X112651900Y-145810210D01*
X112411815Y-145810210D01*
X112409897Y-145785331D01*
X112416682Y-145629273D01*
X112443822Y-145450598D01*
X113809897Y-145450598D01*
X113835906Y-145603263D01*
X113843822Y-145749144D01*
X113843495Y-145753667D01*
X113833927Y-145885695D01*
G37*
G36*
X119488208Y-145885695D02*
G01*
X119458523Y-146010372D01*
X119407352Y-146120913D01*
X119332998Y-146215057D01*
X119234331Y-146291672D01*
X119110220Y-146349628D01*
X118958968Y-146386099D01*
X118778879Y-146398255D01*
X118602748Y-146387229D01*
X118454323Y-146354152D01*
X118331625Y-146301284D01*
X118232675Y-146230889D01*
X118157191Y-146142964D01*
X118104889Y-146037512D01*
X118074355Y-145917359D01*
X118066096Y-145810210D01*
X118306181Y-145810210D01*
X118345761Y-145961745D01*
X118450931Y-146054475D01*
X118602465Y-146101971D01*
X118778879Y-146115541D01*
X118878677Y-146111300D01*
X118969994Y-146098578D01*
X119120397Y-146042036D01*
X119219913Y-145937997D01*
X119256100Y-145778546D01*
X119256100Y-145753667D01*
X119253838Y-145728788D01*
X118312966Y-145728788D01*
X118307312Y-145769499D01*
X118306181Y-145810210D01*
X118066096Y-145810210D01*
X118064178Y-145785331D01*
X118070963Y-145629273D01*
X118098103Y-145450598D01*
X119464178Y-145450598D01*
X119490187Y-145603263D01*
X119498103Y-145749144D01*
X119497776Y-145753667D01*
X119488208Y-145885695D01*
G37*
G36*
X109725244Y-145383877D02*
G01*
X109883564Y-145421195D01*
X110002052Y-145451100D01*
X110125316Y-145483518D01*
X110253354Y-145518449D01*
X110383905Y-145555390D01*
X110514707Y-145593840D01*
X110645761Y-145633796D01*
X110832352Y-145693166D01*
X110998588Y-145749144D01*
X110998588Y-146036381D01*
X110878089Y-146079605D01*
X110754826Y-146121824D01*
X110628798Y-146163037D01*
X110502142Y-146202617D01*
X110376994Y-146239935D01*
X110253354Y-146274992D01*
X110073265Y-146323053D01*
X109901658Y-146365460D01*
X109742207Y-146401931D01*
X109598588Y-146432181D01*
X109598588Y-146140420D01*
X109716197Y-146120065D01*
X109851900Y-146095186D01*
X109998628Y-146066914D01*
X110149315Y-146036381D01*
X110300850Y-146003586D01*
X110450123Y-145968530D01*
X110590066Y-145932342D01*
X110713612Y-145896155D01*
X110588370Y-145859685D01*
X110447861Y-145822649D01*
X110298588Y-145786462D01*
X110147053Y-145752536D01*
X109996649Y-145721155D01*
X109850769Y-145692601D01*
X109715914Y-145668853D01*
X109598588Y-145651890D01*
X109598588Y-145357868D01*
X109725244Y-145383877D01*
G37*
G36*
X118948790Y-143137997D02*
G01*
X119096649Y-143168530D01*
X119222174Y-143217722D01*
X119325082Y-143283877D01*
X119405373Y-143366147D01*
X119463047Y-143463683D01*
X119497821Y-143575355D01*
X119509412Y-143700032D01*
X119503758Y-143838279D01*
X119486795Y-143954475D01*
X119446084Y-144109402D01*
X118747215Y-144109402D01*
X118747215Y-143831212D01*
X119258362Y-143831212D01*
X119265147Y-143776931D01*
X119267409Y-143722649D01*
X119237724Y-143587512D01*
X119148669Y-143489693D01*
X119054808Y-143445715D01*
X118931544Y-143419329D01*
X118778879Y-143410533D01*
X118675123Y-143415339D01*
X118580979Y-143429758D01*
X118427183Y-143493086D01*
X118326536Y-143605040D01*
X118290349Y-143772407D01*
X118315228Y-143921680D01*
X118371771Y-144043813D01*
X118150123Y-144116187D01*
X118122982Y-144069822D01*
X118089057Y-143991793D01*
X118060785Y-143879838D01*
X118048346Y-143733958D01*
X118059937Y-143611260D01*
X118094711Y-143496478D01*
X118152667Y-143393005D01*
X118233806Y-143304233D01*
X118337562Y-143231292D01*
X118463370Y-143175315D01*
X118610664Y-143139693D01*
X118778879Y-143127819D01*
X118948790Y-143137997D01*
G37*
G36*
X116665591Y-143689572D02*
G01*
X116649477Y-143793893D01*
X116620640Y-143887754D01*
X116577102Y-143968045D01*
X116441399Y-144084523D01*
X116346124Y-144116753D01*
X116229929Y-144127496D01*
X116134937Y-144114774D01*
X116044468Y-144076607D01*
X115965309Y-144002819D01*
X115904242Y-143883231D01*
X115782110Y-144013279D01*
X115699557Y-144049750D01*
X115605696Y-144061906D01*
X115474517Y-144041551D01*
X115355777Y-143964653D01*
X115269832Y-143808595D01*
X115245236Y-143694378D01*
X115239490Y-143593732D01*
X115479040Y-143593732D01*
X115484695Y-143668368D01*
X115507312Y-143731696D01*
X115554808Y-143774669D01*
X115635099Y-143790501D01*
X115762885Y-143736220D01*
X115797495Y-143616349D01*
X116039945Y-143616349D01*
X116084048Y-143789370D01*
X116229929Y-143853829D01*
X116330575Y-143831212D01*
X116391641Y-143773538D01*
X116421044Y-143693247D01*
X116428960Y-143600517D01*
X116426698Y-143531535D01*
X116419913Y-143467076D01*
X116039945Y-143467076D01*
X116039945Y-143575638D01*
X116039945Y-143616349D01*
X115797495Y-143616349D01*
X115809250Y-143575638D01*
X115809250Y-143467076D01*
X115488087Y-143467076D01*
X115481302Y-143528142D01*
X115479040Y-143593732D01*
X115239490Y-143593732D01*
X115237037Y-143550759D01*
X115247215Y-143363037D01*
X115270963Y-143188885D01*
X116630252Y-143188885D01*
X116648063Y-143286704D01*
X116660785Y-143385654D01*
X116668418Y-143483473D01*
X116670963Y-143577900D01*
X116669875Y-143600517D01*
X116665591Y-143689572D01*
G37*
%TO.C,kibuzzard-38*%
G36*
X113571729Y-133947141D02*
G01*
X113341034Y-133947141D01*
X113341034Y-133347787D01*
X112171729Y-133347787D01*
X112171729Y-133067334D01*
X113571729Y-133067334D01*
X113571729Y-133947141D01*
G37*
G36*
X115229564Y-134462811D02*
G01*
X116398869Y-134462811D01*
X116398869Y-134743263D01*
X115229564Y-134743263D01*
X115229564Y-135111922D01*
X114998869Y-135111922D01*
X114998869Y-134094152D01*
X115229564Y-134094152D01*
X115229564Y-134462811D01*
G37*
G36*
X110265105Y-133352310D02*
G01*
X110658643Y-133352310D01*
X110658643Y-133592052D01*
X110265105Y-133592052D01*
X110265105Y-133947141D01*
X110036672Y-133947141D01*
X110036672Y-133592052D01*
X109643134Y-133592052D01*
X109643134Y-133352310D01*
X110036672Y-133352310D01*
X110036672Y-132997221D01*
X110265105Y-132997221D01*
X110265105Y-133352310D01*
G37*
G36*
X113571729Y-135077997D02*
G01*
X113341034Y-135077997D01*
X113341034Y-134458288D01*
X112947496Y-134458288D01*
X112947496Y-134953603D01*
X112716801Y-134953603D01*
X112716801Y-134458288D01*
X112402423Y-134458288D01*
X112402423Y-135028239D01*
X112171729Y-135028239D01*
X112171729Y-134180097D01*
X113571729Y-134180097D01*
X113571729Y-135077997D01*
G37*
G36*
X116398869Y-135523554D02*
G01*
X115469305Y-135523554D01*
X115624484Y-135607614D01*
X115779411Y-135687905D01*
X115934087Y-135764426D01*
X116088763Y-135837178D01*
X116243691Y-135906160D01*
X116398869Y-135971373D01*
X116398869Y-136195283D01*
X114998869Y-136195283D01*
X114998869Y-135944233D01*
X115860582Y-135944233D01*
X115772375Y-135904370D01*
X115670598Y-135857157D01*
X115560339Y-135804006D01*
X115446688Y-135746333D01*
X115331058Y-135685549D01*
X115214863Y-135623069D01*
X115102625Y-135559742D01*
X114998869Y-135496414D01*
X114998869Y-135272504D01*
X116398869Y-135272504D01*
X116398869Y-135523554D01*
G37*
G36*
X119226010Y-134392698D02*
G01*
X118296446Y-134392698D01*
X118451624Y-134476758D01*
X118606552Y-134557049D01*
X118761228Y-134633570D01*
X118915904Y-134706322D01*
X119070831Y-134775304D01*
X119226010Y-134840517D01*
X119226010Y-135064426D01*
X117826010Y-135064426D01*
X117826010Y-134813376D01*
X118687722Y-134813376D01*
X118599515Y-134773514D01*
X118497738Y-134726300D01*
X118387480Y-134673150D01*
X118273829Y-134615477D01*
X118158199Y-134554693D01*
X118042003Y-134492213D01*
X117929766Y-134428885D01*
X117826010Y-134365557D01*
X117826010Y-134141648D01*
X119226010Y-134141648D01*
X119226010Y-134392698D01*
G37*
G36*
X110726494Y-134181228D02*
G01*
X110750242Y-134275089D01*
X110767205Y-134383651D01*
X110773990Y-134494475D01*
X110765509Y-134623958D01*
X110740065Y-134736478D01*
X110699354Y-134832036D01*
X110645073Y-134910630D01*
X110501454Y-135014669D01*
X110321648Y-135048595D01*
X110190468Y-135033265D01*
X110080398Y-134987277D01*
X109991438Y-134910630D01*
X109924089Y-134802822D01*
X109878855Y-134663349D01*
X109855735Y-134492213D01*
X109726817Y-134503522D01*
X109575283Y-134514830D01*
X109575283Y-134996575D01*
X109344588Y-134996575D01*
X109344588Y-134281874D01*
X109517326Y-134273393D01*
X109696284Y-134261519D01*
X109880331Y-134245687D01*
X110068336Y-134225331D01*
X110073142Y-134380824D01*
X110087561Y-134503522D01*
X110141842Y-134667496D01*
X110225525Y-134744394D01*
X110332956Y-134763619D01*
X110407593Y-134752310D01*
X110472052Y-134710468D01*
X110518417Y-134626785D01*
X110536511Y-134492213D01*
X110531422Y-134386478D01*
X110516155Y-134299968D01*
X110470921Y-134173312D01*
X110701616Y-134116769D01*
X110726494Y-134181228D01*
G37*
G36*
X113579927Y-135725695D02*
G01*
X113550242Y-135850372D01*
X113499071Y-135960913D01*
X113424717Y-136055057D01*
X113326050Y-136131672D01*
X113201939Y-136189628D01*
X113050687Y-136226099D01*
X112870598Y-136238255D01*
X112694467Y-136227229D01*
X112546042Y-136194152D01*
X112423344Y-136141284D01*
X112324394Y-136070889D01*
X112248910Y-135982964D01*
X112196607Y-135877512D01*
X112166074Y-135757359D01*
X112157815Y-135650210D01*
X112397900Y-135650210D01*
X112437480Y-135801745D01*
X112542649Y-135894475D01*
X112694184Y-135941971D01*
X112870598Y-135955541D01*
X112970396Y-135951300D01*
X113061712Y-135938578D01*
X113212116Y-135882036D01*
X113311632Y-135777997D01*
X113347819Y-135618546D01*
X113347819Y-135593667D01*
X113345557Y-135568788D01*
X112404685Y-135568788D01*
X112399031Y-135609499D01*
X112397900Y-135650210D01*
X112157815Y-135650210D01*
X112155897Y-135625331D01*
X112162682Y-135469273D01*
X112189822Y-135290598D01*
X113555897Y-135290598D01*
X113581906Y-135443263D01*
X113589822Y-135589144D01*
X113589495Y-135593667D01*
X113579927Y-135725695D01*
G37*
G36*
X119234208Y-135725695D02*
G01*
X119204523Y-135850372D01*
X119153352Y-135960913D01*
X119078998Y-136055057D01*
X118980331Y-136131672D01*
X118856220Y-136189628D01*
X118704968Y-136226099D01*
X118524879Y-136238255D01*
X118348748Y-136227229D01*
X118200323Y-136194152D01*
X118077625Y-136141284D01*
X117978675Y-136070889D01*
X117903191Y-135982964D01*
X117850889Y-135877512D01*
X117820355Y-135757359D01*
X117812096Y-135650210D01*
X118052181Y-135650210D01*
X118091761Y-135801745D01*
X118196931Y-135894475D01*
X118348465Y-135941971D01*
X118524879Y-135955541D01*
X118624677Y-135951300D01*
X118715994Y-135938578D01*
X118866397Y-135882036D01*
X118965913Y-135777997D01*
X119002100Y-135618546D01*
X119002100Y-135593667D01*
X118999838Y-135568788D01*
X118058966Y-135568788D01*
X118053312Y-135609499D01*
X118052181Y-135650210D01*
X117812096Y-135650210D01*
X117810178Y-135625331D01*
X117816963Y-135469273D01*
X117844103Y-135290598D01*
X119210178Y-135290598D01*
X119236187Y-135443263D01*
X119244103Y-135589144D01*
X119243776Y-135593667D01*
X119234208Y-135725695D01*
G37*
G36*
X109471244Y-135223877D02*
G01*
X109629564Y-135261195D01*
X109748052Y-135291100D01*
X109871316Y-135323518D01*
X109999354Y-135358449D01*
X110129905Y-135395390D01*
X110260707Y-135433840D01*
X110391761Y-135473796D01*
X110578352Y-135533166D01*
X110744588Y-135589144D01*
X110744588Y-135876381D01*
X110624089Y-135919605D01*
X110500826Y-135961824D01*
X110374798Y-136003037D01*
X110248142Y-136042617D01*
X110122994Y-136079935D01*
X109999354Y-136114992D01*
X109819265Y-136163053D01*
X109647658Y-136205460D01*
X109488207Y-136241931D01*
X109344588Y-136272181D01*
X109344588Y-135980420D01*
X109462197Y-135960065D01*
X109597900Y-135935186D01*
X109744628Y-135906914D01*
X109895315Y-135876381D01*
X110046850Y-135843586D01*
X110196123Y-135808530D01*
X110336066Y-135772342D01*
X110459612Y-135736155D01*
X110334370Y-135699685D01*
X110193861Y-135662649D01*
X110044588Y-135626462D01*
X109893053Y-135592536D01*
X109742649Y-135561155D01*
X109596769Y-135532601D01*
X109461914Y-135508853D01*
X109344588Y-135491890D01*
X109344588Y-135197868D01*
X109471244Y-135223877D01*
G37*
G36*
X118694790Y-132977997D02*
G01*
X118842649Y-133008530D01*
X118968174Y-133057722D01*
X119071082Y-133123877D01*
X119151373Y-133206147D01*
X119209047Y-133303683D01*
X119243821Y-133415355D01*
X119255412Y-133540032D01*
X119249758Y-133678279D01*
X119232795Y-133794475D01*
X119192084Y-133949402D01*
X118493215Y-133949402D01*
X118493215Y-133671212D01*
X119004362Y-133671212D01*
X119011147Y-133616931D01*
X119013409Y-133562649D01*
X118983724Y-133427512D01*
X118894669Y-133329693D01*
X118800808Y-133285715D01*
X118677544Y-133259329D01*
X118524879Y-133250533D01*
X118421123Y-133255339D01*
X118326979Y-133269758D01*
X118173183Y-133333086D01*
X118072536Y-133445040D01*
X118036349Y-133612407D01*
X118061228Y-133761680D01*
X118117771Y-133883813D01*
X117896123Y-133956187D01*
X117868982Y-133909822D01*
X117835057Y-133831793D01*
X117806785Y-133719838D01*
X117794346Y-133573958D01*
X117805937Y-133451260D01*
X117840711Y-133336478D01*
X117898667Y-133233005D01*
X117979806Y-133144233D01*
X118083562Y-133071292D01*
X118209370Y-133015315D01*
X118356664Y-132979693D01*
X118524879Y-132967819D01*
X118694790Y-132977997D01*
G37*
G36*
X116411591Y-133529572D02*
G01*
X116395477Y-133633893D01*
X116366640Y-133727754D01*
X116323102Y-133808045D01*
X116187399Y-133924523D01*
X116092124Y-133956753D01*
X115975929Y-133967496D01*
X115880937Y-133954774D01*
X115790468Y-133916607D01*
X115711309Y-133842819D01*
X115650242Y-133723231D01*
X115528110Y-133853279D01*
X115445557Y-133889750D01*
X115351696Y-133901906D01*
X115220517Y-133881551D01*
X115101777Y-133804653D01*
X115015832Y-133648595D01*
X114991236Y-133534378D01*
X114985490Y-133433732D01*
X115225040Y-133433732D01*
X115230695Y-133508368D01*
X115253312Y-133571696D01*
X115300808Y-133614669D01*
X115381099Y-133630501D01*
X115508885Y-133576220D01*
X115543495Y-133456349D01*
X115785945Y-133456349D01*
X115830048Y-133629370D01*
X115975929Y-133693829D01*
X116076575Y-133671212D01*
X116137641Y-133613538D01*
X116167044Y-133533247D01*
X116174960Y-133440517D01*
X116172698Y-133371535D01*
X116165913Y-133307076D01*
X115785945Y-133307076D01*
X115785945Y-133415638D01*
X115785945Y-133456349D01*
X115543495Y-133456349D01*
X115555250Y-133415638D01*
X115555250Y-133307076D01*
X115234087Y-133307076D01*
X115227302Y-133368142D01*
X115225040Y-133433732D01*
X114985490Y-133433732D01*
X114983037Y-133390759D01*
X114993215Y-133203037D01*
X115016963Y-133028885D01*
X116376252Y-133028885D01*
X116394063Y-133126704D01*
X116406785Y-133225654D01*
X116414418Y-133323473D01*
X116416963Y-133417900D01*
X116415875Y-133440517D01*
X116411591Y-133529572D01*
G37*
D11*
%TO.C,U7*%
X142350000Y-42480000D02*
X142350000Y-43880000D01*
X144670000Y-42480000D02*
X144670000Y-43890000D01*
X144950000Y-44500000D02*
X144620000Y-44260000D01*
X144950000Y-44020000D01*
X144950000Y-44500000D01*
G36*
X144950000Y-44500000D02*
G01*
X144620000Y-44260000D01*
X144950000Y-44020000D01*
X144950000Y-44500000D01*
G37*
D12*
%TO.C,kibuzzard-37*%
G36*
X114851929Y-32483651D02*
G01*
X114926242Y-32483651D01*
X115385047Y-32483651D01*
X115478746Y-32021616D01*
X115905241Y-32021616D01*
X115851929Y-32248368D01*
X115797971Y-32468530D01*
X115743367Y-32682100D01*
X115688116Y-32889079D01*
X115632220Y-33089467D01*
X115561844Y-33332500D01*
X115491267Y-33568869D01*
X115420487Y-33798574D01*
X115349506Y-34021616D01*
X114916549Y-34021616D01*
X114848092Y-33800392D01*
X114778423Y-33572908D01*
X114707543Y-33339164D01*
X114635451Y-33099160D01*
X114577422Y-32900452D01*
X114553088Y-32813215D01*
X114926242Y-32813215D01*
X114966630Y-33020000D01*
X115011864Y-33218708D01*
X115063561Y-33419031D01*
X115123334Y-33633893D01*
X115183108Y-33419031D01*
X115234805Y-33218708D01*
X115278423Y-33020000D01*
X115317195Y-32813215D01*
X114926242Y-32813215D01*
X114553088Y-32813215D01*
X114519651Y-32693344D01*
X114462139Y-32477835D01*
X114404885Y-32253926D01*
X114347890Y-32021616D01*
X114761460Y-32021616D01*
X114851929Y-32483651D01*
G37*
G36*
X110234805Y-31997322D02*
G01*
X110362026Y-32003441D01*
X110511057Y-32026462D01*
X110645144Y-32067658D01*
X110759845Y-32129855D01*
X110926242Y-32323716D01*
X110972284Y-32459822D01*
X110987632Y-32625816D01*
X110969457Y-32761519D01*
X110914934Y-32890759D01*
X110809522Y-33003845D01*
X110638682Y-33091082D01*
X110824465Y-33265557D01*
X110876565Y-33383489D01*
X110893932Y-33517577D01*
X110864853Y-33704976D01*
X110754998Y-33874604D01*
X110532058Y-33997383D01*
X110368892Y-34032520D01*
X110163722Y-34044233D01*
X109895548Y-34029693D01*
X109646759Y-33995767D01*
X109646759Y-33226785D01*
X110044174Y-33226785D01*
X110044174Y-33685590D01*
X110131412Y-33695283D01*
X110225111Y-33698514D01*
X110331735Y-33690436D01*
X110422204Y-33658126D01*
X110483593Y-33590275D01*
X110506210Y-33475574D01*
X110428666Y-33293021D01*
X110199263Y-33226785D01*
X110044174Y-33226785D01*
X109646759Y-33226785D01*
X109646759Y-32354410D01*
X110044174Y-32354410D01*
X110044174Y-32897221D01*
X110199263Y-32897221D01*
X110257422Y-32897221D01*
X110504595Y-32834216D01*
X110596679Y-32625816D01*
X110564368Y-32482036D01*
X110481977Y-32394798D01*
X110367276Y-32352795D01*
X110234805Y-32341486D01*
X110136258Y-32344717D01*
X110044174Y-32354410D01*
X109646759Y-32354410D01*
X109646759Y-32053926D01*
X109786501Y-32028481D01*
X109927858Y-32010307D01*
X110067599Y-31999402D01*
X110202494Y-31995767D01*
X110234805Y-31997322D01*
G37*
%TO.C,kibuzzard-41*%
G36*
X128057302Y-144107141D02*
G01*
X127826607Y-144107141D01*
X127826607Y-143507787D01*
X126657302Y-143507787D01*
X126657302Y-143227334D01*
X128057302Y-143227334D01*
X128057302Y-144107141D01*
G37*
G36*
X129715137Y-144622811D02*
G01*
X130884442Y-144622811D01*
X130884442Y-144903263D01*
X129715137Y-144903263D01*
X129715137Y-145271922D01*
X129484442Y-145271922D01*
X129484442Y-144254152D01*
X129715137Y-144254152D01*
X129715137Y-144622811D01*
G37*
G36*
X124750678Y-143512310D02*
G01*
X125144216Y-143512310D01*
X125144216Y-143752052D01*
X124750678Y-143752052D01*
X124750678Y-144107141D01*
X124522245Y-144107141D01*
X124522245Y-143752052D01*
X124128707Y-143752052D01*
X124128707Y-143512310D01*
X124522245Y-143512310D01*
X124522245Y-143157221D01*
X124750678Y-143157221D01*
X124750678Y-143512310D01*
G37*
G36*
X128057302Y-145237997D02*
G01*
X127826607Y-145237997D01*
X127826607Y-144618288D01*
X127433069Y-144618288D01*
X127433069Y-145113603D01*
X127202374Y-145113603D01*
X127202374Y-144618288D01*
X126887996Y-144618288D01*
X126887996Y-145188239D01*
X126657302Y-145188239D01*
X126657302Y-144340097D01*
X128057302Y-144340097D01*
X128057302Y-145237997D01*
G37*
G36*
X130884442Y-145683554D02*
G01*
X129954878Y-145683554D01*
X130110057Y-145767614D01*
X130264984Y-145847905D01*
X130419660Y-145924426D01*
X130574336Y-145997178D01*
X130729264Y-146066160D01*
X130884442Y-146131373D01*
X130884442Y-146355283D01*
X129484442Y-146355283D01*
X129484442Y-146104233D01*
X130346155Y-146104233D01*
X130257948Y-146064370D01*
X130156171Y-146017157D01*
X130045912Y-145964006D01*
X129932261Y-145906333D01*
X129816631Y-145845549D01*
X129700436Y-145783069D01*
X129588198Y-145719742D01*
X129484442Y-145656414D01*
X129484442Y-145432504D01*
X130884442Y-145432504D01*
X130884442Y-145683554D01*
G37*
G36*
X133711583Y-144552698D02*
G01*
X132782019Y-144552698D01*
X132937197Y-144636758D01*
X133092125Y-144717049D01*
X133246801Y-144793570D01*
X133401477Y-144866322D01*
X133556404Y-144935304D01*
X133711583Y-145000517D01*
X133711583Y-145224426D01*
X132311583Y-145224426D01*
X132311583Y-144973376D01*
X133173295Y-144973376D01*
X133085088Y-144933514D01*
X132983311Y-144886300D01*
X132873053Y-144833150D01*
X132759402Y-144775477D01*
X132643772Y-144714693D01*
X132527576Y-144652213D01*
X132415339Y-144588885D01*
X132311583Y-144525557D01*
X132311583Y-144301648D01*
X133711583Y-144301648D01*
X133711583Y-144552698D01*
G37*
G36*
X125212067Y-144341228D02*
G01*
X125235815Y-144435089D01*
X125252778Y-144543651D01*
X125259563Y-144654475D01*
X125251082Y-144783958D01*
X125225638Y-144896478D01*
X125184927Y-144992036D01*
X125130646Y-145070630D01*
X124987027Y-145174669D01*
X124807221Y-145208595D01*
X124676041Y-145193265D01*
X124565971Y-145147277D01*
X124477011Y-145070630D01*
X124409662Y-144962822D01*
X124364428Y-144823349D01*
X124341308Y-144652213D01*
X124212390Y-144663522D01*
X124060856Y-144674830D01*
X124060856Y-145156575D01*
X123830161Y-145156575D01*
X123830161Y-144441874D01*
X124002899Y-144433393D01*
X124181857Y-144421519D01*
X124365904Y-144405687D01*
X124553909Y-144385331D01*
X124558715Y-144540824D01*
X124573134Y-144663522D01*
X124627415Y-144827496D01*
X124711098Y-144904394D01*
X124818529Y-144923619D01*
X124893166Y-144912310D01*
X124957625Y-144870468D01*
X125003990Y-144786785D01*
X125022084Y-144652213D01*
X125016995Y-144546478D01*
X125001728Y-144459968D01*
X124956494Y-144333312D01*
X125187189Y-144276769D01*
X125212067Y-144341228D01*
G37*
G36*
X128065500Y-145885695D02*
G01*
X128035815Y-146010372D01*
X127984644Y-146120913D01*
X127910290Y-146215057D01*
X127811623Y-146291672D01*
X127687512Y-146349628D01*
X127536260Y-146386099D01*
X127356171Y-146398255D01*
X127180040Y-146387229D01*
X127031615Y-146354152D01*
X126908917Y-146301284D01*
X126809967Y-146230889D01*
X126734483Y-146142964D01*
X126682180Y-146037512D01*
X126651647Y-145917359D01*
X126643388Y-145810210D01*
X126883473Y-145810210D01*
X126923053Y-145961745D01*
X127028222Y-146054475D01*
X127179757Y-146101971D01*
X127356171Y-146115541D01*
X127455969Y-146111300D01*
X127547285Y-146098578D01*
X127697689Y-146042036D01*
X127797205Y-145937997D01*
X127833392Y-145778546D01*
X127833392Y-145753667D01*
X127831130Y-145728788D01*
X126890258Y-145728788D01*
X126884604Y-145769499D01*
X126883473Y-145810210D01*
X126643388Y-145810210D01*
X126641470Y-145785331D01*
X126648255Y-145629273D01*
X126675395Y-145450598D01*
X128041470Y-145450598D01*
X128067479Y-145603263D01*
X128075395Y-145749144D01*
X128075068Y-145753667D01*
X128065500Y-145885695D01*
G37*
G36*
X133719781Y-145885695D02*
G01*
X133690096Y-146010372D01*
X133638925Y-146120913D01*
X133564571Y-146215057D01*
X133465904Y-146291672D01*
X133341793Y-146349628D01*
X133190541Y-146386099D01*
X133010452Y-146398255D01*
X132834321Y-146387229D01*
X132685896Y-146354152D01*
X132563198Y-146301284D01*
X132464248Y-146230889D01*
X132388764Y-146142964D01*
X132336462Y-146037512D01*
X132305928Y-145917359D01*
X132297669Y-145810210D01*
X132537754Y-145810210D01*
X132577334Y-145961745D01*
X132682504Y-146054475D01*
X132834038Y-146101971D01*
X133010452Y-146115541D01*
X133110250Y-146111300D01*
X133201567Y-146098578D01*
X133351970Y-146042036D01*
X133451486Y-145937997D01*
X133487673Y-145778546D01*
X133487673Y-145753667D01*
X133485411Y-145728788D01*
X132544539Y-145728788D01*
X132538885Y-145769499D01*
X132537754Y-145810210D01*
X132297669Y-145810210D01*
X132295751Y-145785331D01*
X132302536Y-145629273D01*
X132329676Y-145450598D01*
X133695751Y-145450598D01*
X133721760Y-145603263D01*
X133729676Y-145749144D01*
X133729349Y-145753667D01*
X133719781Y-145885695D01*
G37*
G36*
X123956817Y-145383877D02*
G01*
X124115137Y-145421195D01*
X124233625Y-145451100D01*
X124356889Y-145483518D01*
X124484927Y-145518449D01*
X124615478Y-145555390D01*
X124746280Y-145593840D01*
X124877334Y-145633796D01*
X125063925Y-145693166D01*
X125230161Y-145749144D01*
X125230161Y-146036381D01*
X125109662Y-146079605D01*
X124986399Y-146121824D01*
X124860371Y-146163037D01*
X124733715Y-146202617D01*
X124608567Y-146239935D01*
X124484927Y-146274992D01*
X124304838Y-146323053D01*
X124133231Y-146365460D01*
X123973780Y-146401931D01*
X123830161Y-146432181D01*
X123830161Y-146140420D01*
X123947770Y-146120065D01*
X124083473Y-146095186D01*
X124230201Y-146066914D01*
X124380888Y-146036381D01*
X124532423Y-146003586D01*
X124681696Y-145968530D01*
X124821639Y-145932342D01*
X124945185Y-145896155D01*
X124819943Y-145859685D01*
X124679434Y-145822649D01*
X124530161Y-145786462D01*
X124378626Y-145752536D01*
X124228222Y-145721155D01*
X124082342Y-145692601D01*
X123947487Y-145668853D01*
X123830161Y-145651890D01*
X123830161Y-145357868D01*
X123956817Y-145383877D01*
G37*
G36*
X133180363Y-143137997D02*
G01*
X133328222Y-143168530D01*
X133453747Y-143217722D01*
X133556655Y-143283877D01*
X133636946Y-143366147D01*
X133694620Y-143463683D01*
X133729394Y-143575355D01*
X133740985Y-143700032D01*
X133735331Y-143838279D01*
X133718368Y-143954475D01*
X133677657Y-144109402D01*
X132978788Y-144109402D01*
X132978788Y-143831212D01*
X133489935Y-143831212D01*
X133496720Y-143776931D01*
X133498982Y-143722649D01*
X133469297Y-143587512D01*
X133380242Y-143489693D01*
X133286381Y-143445715D01*
X133163117Y-143419329D01*
X133010452Y-143410533D01*
X132906696Y-143415339D01*
X132812552Y-143429758D01*
X132658756Y-143493086D01*
X132558109Y-143605040D01*
X132521922Y-143772407D01*
X132546801Y-143921680D01*
X132603344Y-144043813D01*
X132381696Y-144116187D01*
X132354555Y-144069822D01*
X132320630Y-143991793D01*
X132292358Y-143879838D01*
X132279919Y-143733958D01*
X132291510Y-143611260D01*
X132326284Y-143496478D01*
X132384240Y-143393005D01*
X132465379Y-143304233D01*
X132569135Y-143231292D01*
X132694943Y-143175315D01*
X132842237Y-143139693D01*
X133010452Y-143127819D01*
X133180363Y-143137997D01*
G37*
G36*
X130897164Y-143689572D02*
G01*
X130881050Y-143793893D01*
X130852213Y-143887754D01*
X130808675Y-143968045D01*
X130672972Y-144084523D01*
X130577697Y-144116753D01*
X130461502Y-144127496D01*
X130366510Y-144114774D01*
X130276041Y-144076607D01*
X130196882Y-144002819D01*
X130135815Y-143883231D01*
X130013683Y-144013279D01*
X129931130Y-144049750D01*
X129837269Y-144061906D01*
X129706090Y-144041551D01*
X129587350Y-143964653D01*
X129501405Y-143808595D01*
X129476809Y-143694378D01*
X129471063Y-143593732D01*
X129710613Y-143593732D01*
X129716268Y-143668368D01*
X129738885Y-143731696D01*
X129786381Y-143774669D01*
X129866672Y-143790501D01*
X129994458Y-143736220D01*
X130029068Y-143616349D01*
X130271518Y-143616349D01*
X130315621Y-143789370D01*
X130461502Y-143853829D01*
X130562148Y-143831212D01*
X130623214Y-143773538D01*
X130652617Y-143693247D01*
X130660533Y-143600517D01*
X130658271Y-143531535D01*
X130651486Y-143467076D01*
X130271518Y-143467076D01*
X130271518Y-143575638D01*
X130271518Y-143616349D01*
X130029068Y-143616349D01*
X130040823Y-143575638D01*
X130040823Y-143467076D01*
X129719660Y-143467076D01*
X129712875Y-143528142D01*
X129710613Y-143593732D01*
X129471063Y-143593732D01*
X129468610Y-143550759D01*
X129478788Y-143363037D01*
X129502536Y-143188885D01*
X130861825Y-143188885D01*
X130879636Y-143286704D01*
X130892358Y-143385654D01*
X130899991Y-143483473D01*
X130902536Y-143577900D01*
X130901448Y-143600517D01*
X130897164Y-143689572D01*
G37*
%TO.C,kibuzzard-28*%
G36*
X168086671Y-44001247D02*
G01*
X167813004Y-44001247D01*
X167813004Y-43381538D01*
X168086671Y-43381538D01*
X168086671Y-44001247D01*
G37*
G36*
X176002665Y-44001247D02*
G01*
X175728997Y-44001247D01*
X175728997Y-43381538D01*
X176002665Y-43381538D01*
X176002665Y-44001247D01*
G37*
G36*
X160134490Y-42440666D02*
G01*
X160528028Y-42440666D01*
X160528028Y-42680407D01*
X160134490Y-42680407D01*
X160134490Y-43035496D01*
X159906057Y-43035496D01*
X159906057Y-42680407D01*
X159512519Y-42680407D01*
X159512519Y-42440666D01*
X159906057Y-42440666D01*
X159906057Y-42085577D01*
X160134490Y-42085577D01*
X160134490Y-42440666D01*
G37*
G36*
X170689148Y-43571522D02*
G01*
X171082686Y-43571522D01*
X171082686Y-43811263D01*
X170689148Y-43811263D01*
X170689148Y-44166352D01*
X170460715Y-44166352D01*
X170460715Y-43811263D01*
X170067177Y-43811263D01*
X170067177Y-43571522D01*
X170460715Y-43571522D01*
X170460715Y-43216433D01*
X170689148Y-43216433D01*
X170689148Y-43571522D01*
G37*
G36*
X173327813Y-43571522D02*
G01*
X173721351Y-43571522D01*
X173721351Y-43811263D01*
X173327813Y-43811263D01*
X173327813Y-44166352D01*
X173099380Y-44166352D01*
X173099380Y-43811263D01*
X172705842Y-43811263D01*
X172705842Y-43571522D01*
X173099380Y-43571522D01*
X173099380Y-43216433D01*
X173327813Y-43216433D01*
X173327813Y-43571522D01*
G37*
G36*
X179084625Y-43481053D02*
G01*
X178155061Y-43481053D01*
X178310239Y-43565114D01*
X178465167Y-43645404D01*
X178619843Y-43721926D01*
X178774519Y-43794677D01*
X178929446Y-43863660D01*
X179084625Y-43928872D01*
X179084625Y-44152782D01*
X177684625Y-44152782D01*
X177684625Y-43901732D01*
X178546337Y-43901732D01*
X178458130Y-43861869D01*
X178356353Y-43814656D01*
X178246095Y-43761506D01*
X178132444Y-43703832D01*
X178016814Y-43643048D01*
X177900618Y-43580569D01*
X177788381Y-43517241D01*
X177684625Y-43453913D01*
X177684625Y-43230003D01*
X179084625Y-43230003D01*
X179084625Y-43481053D01*
G37*
G36*
X163252638Y-42320795D02*
G01*
X163130222Y-42372814D01*
X162993672Y-42433880D01*
X162852597Y-42499470D01*
X162716612Y-42565060D01*
X162856838Y-42631498D01*
X162997064Y-42695108D01*
X163131071Y-42752499D01*
X163252638Y-42800278D01*
X163252638Y-43101086D01*
X163104495Y-43040019D01*
X163014027Y-42998460D01*
X162916773Y-42950682D01*
X162814714Y-42897814D01*
X162709827Y-42840989D01*
X162605788Y-42781619D01*
X162506272Y-42721118D01*
X161852638Y-43078468D01*
X161852638Y-42798016D01*
X162300457Y-42565060D01*
X161852638Y-42343412D01*
X161852638Y-42042604D01*
X162513058Y-42409002D01*
X162612290Y-42353590D01*
X162715481Y-42295916D01*
X162819237Y-42238525D01*
X162920166Y-42183961D01*
X163016289Y-42133073D01*
X163105626Y-42086708D01*
X163252638Y-42019987D01*
X163252638Y-42320795D01*
G37*
G36*
X165891302Y-42320795D02*
G01*
X165768887Y-42372814D01*
X165632336Y-42433880D01*
X165491262Y-42499470D01*
X165355276Y-42565060D01*
X165495502Y-42631498D01*
X165635729Y-42695108D01*
X165769735Y-42752499D01*
X165891302Y-42800278D01*
X165891302Y-43101086D01*
X165743160Y-43040019D01*
X165652691Y-42998460D01*
X165555438Y-42950682D01*
X165453378Y-42897814D01*
X165348491Y-42840989D01*
X165244452Y-42781619D01*
X165144937Y-42721118D01*
X164491302Y-43078468D01*
X164491302Y-42798016D01*
X164939121Y-42565060D01*
X164491302Y-42343412D01*
X164491302Y-42042604D01*
X165151722Y-42409002D01*
X165250955Y-42353590D01*
X165354145Y-42295916D01*
X165457901Y-42238525D01*
X165558830Y-42183961D01*
X165654953Y-42133073D01*
X165744291Y-42086708D01*
X165891302Y-42019987D01*
X165891302Y-42320795D01*
G37*
G36*
X173483871Y-42741473D02*
G01*
X173807296Y-42807063D01*
X173807296Y-43105609D01*
X173648569Y-43068291D01*
X173494456Y-43030520D01*
X173344956Y-42992297D01*
X173200071Y-42953622D01*
X173059800Y-42914494D01*
X172889676Y-42865231D01*
X172724218Y-42815827D01*
X172563424Y-42766282D01*
X172407296Y-42716595D01*
X172407296Y-42558275D01*
X172678701Y-42558275D01*
X172829105Y-42600116D01*
X172969331Y-42636304D01*
X173108426Y-42666837D01*
X173253176Y-42693977D01*
X173253176Y-42420310D01*
X173108426Y-42448582D01*
X172969331Y-42480246D01*
X172829105Y-42516433D01*
X172678701Y-42558275D01*
X172407296Y-42558275D01*
X172407296Y-42413525D01*
X172562152Y-42365605D01*
X172721391Y-42316837D01*
X172885012Y-42267221D01*
X173053015Y-42216756D01*
X173192110Y-42176136D01*
X173337086Y-42135696D01*
X173487942Y-42095438D01*
X173644679Y-42055360D01*
X173807296Y-42015464D01*
X173807296Y-42304963D01*
X173483871Y-42368291D01*
X173483871Y-42420310D01*
X173483871Y-42741473D01*
G37*
G36*
X176122535Y-42741473D02*
G01*
X176445960Y-42807063D01*
X176445960Y-43105609D01*
X176287233Y-43068291D01*
X176133120Y-43030520D01*
X175983621Y-42992297D01*
X175838736Y-42953622D01*
X175698464Y-42914494D01*
X175528341Y-42865231D01*
X175362883Y-42815827D01*
X175202089Y-42766282D01*
X175045960Y-42716595D01*
X175045960Y-42558275D01*
X175317366Y-42558275D01*
X175467770Y-42600116D01*
X175607996Y-42636304D01*
X175747091Y-42666837D01*
X175891841Y-42693977D01*
X175891841Y-42420310D01*
X175747091Y-42448582D01*
X175607996Y-42480246D01*
X175467770Y-42516433D01*
X175317366Y-42558275D01*
X175045960Y-42558275D01*
X175045960Y-42413525D01*
X175200817Y-42365605D01*
X175360055Y-42316837D01*
X175523676Y-42267221D01*
X175691679Y-42216756D01*
X175830774Y-42176136D01*
X175975750Y-42135696D01*
X176126606Y-42095438D01*
X176283343Y-42055360D01*
X176445960Y-42015464D01*
X176445960Y-42304963D01*
X176122535Y-42368291D01*
X176122535Y-42420310D01*
X176122535Y-42741473D01*
G37*
G36*
X160595879Y-43269583D02*
G01*
X160619627Y-43363444D01*
X160636590Y-43472006D01*
X160643375Y-43582830D01*
X160634894Y-43712313D01*
X160609450Y-43824834D01*
X160568739Y-43920391D01*
X160514458Y-43998985D01*
X160370839Y-44103024D01*
X160191033Y-44136950D01*
X160059854Y-44121621D01*
X159949784Y-44075632D01*
X159860823Y-43998985D01*
X159793474Y-43891177D01*
X159748240Y-43751705D01*
X159725120Y-43580569D01*
X159596202Y-43591877D01*
X159444668Y-43603186D01*
X159444668Y-44084931D01*
X159213973Y-44084931D01*
X159213973Y-43370229D01*
X159386711Y-43361748D01*
X159565669Y-43349874D01*
X159749716Y-43334042D01*
X159937721Y-43313687D01*
X159942527Y-43469179D01*
X159956946Y-43591877D01*
X160011227Y-43755851D01*
X160094910Y-43832750D01*
X160202341Y-43851974D01*
X160276978Y-43840666D01*
X160341437Y-43798824D01*
X160387802Y-43715141D01*
X160405896Y-43580569D01*
X160400807Y-43474834D01*
X160385540Y-43388323D01*
X160340306Y-43261667D01*
X160571001Y-43205124D01*
X160595879Y-43269583D01*
G37*
G36*
X179092823Y-44814050D02*
G01*
X179063138Y-44938727D01*
X179011967Y-45049268D01*
X178937613Y-45143412D01*
X178838946Y-45220027D01*
X178714835Y-45277984D01*
X178563583Y-45314454D01*
X178383494Y-45326611D01*
X178207363Y-45315585D01*
X178058938Y-45282507D01*
X177936240Y-45229640D01*
X177837290Y-45159244D01*
X177761806Y-45071320D01*
X177709504Y-44965868D01*
X177678970Y-44845714D01*
X177670711Y-44738565D01*
X177910796Y-44738565D01*
X177950376Y-44890100D01*
X178055546Y-44982830D01*
X178207080Y-45030326D01*
X178383494Y-45043897D01*
X178483292Y-45039656D01*
X178574609Y-45026934D01*
X178725012Y-44970391D01*
X178824528Y-44866352D01*
X178860715Y-44706901D01*
X178860715Y-44682023D01*
X178858453Y-44657144D01*
X177917581Y-44657144D01*
X177911927Y-44697855D01*
X177910796Y-44738565D01*
X177670711Y-44738565D01*
X177668793Y-44713687D01*
X177675578Y-44557628D01*
X177702718Y-44378953D01*
X179068793Y-44378953D01*
X179094802Y-44531619D01*
X179102718Y-44677499D01*
X179102391Y-44682023D01*
X179092823Y-44814050D01*
G37*
G36*
X159340629Y-44312233D02*
G01*
X159498949Y-44349551D01*
X159617437Y-44379456D01*
X159740701Y-44411874D01*
X159868739Y-44446805D01*
X159999290Y-44483746D01*
X160130092Y-44522195D01*
X160261146Y-44562152D01*
X160447737Y-44621522D01*
X160613973Y-44677499D01*
X160613973Y-44964737D01*
X160493474Y-45007961D01*
X160370211Y-45050179D01*
X160244183Y-45091393D01*
X160117527Y-45130973D01*
X159992379Y-45168291D01*
X159868739Y-45203347D01*
X159688650Y-45251409D01*
X159517043Y-45293816D01*
X159357592Y-45330286D01*
X159213973Y-45360536D01*
X159213973Y-45068775D01*
X159331582Y-45048420D01*
X159467285Y-45023541D01*
X159614013Y-44995270D01*
X159764700Y-44964737D01*
X159916235Y-44931942D01*
X160065508Y-44896885D01*
X160205451Y-44860698D01*
X160328997Y-44824511D01*
X160203755Y-44788040D01*
X160063246Y-44751005D01*
X159913973Y-44714817D01*
X159762438Y-44680892D01*
X159612034Y-44649511D01*
X159466154Y-44620956D01*
X159331299Y-44597208D01*
X159213973Y-44580246D01*
X159213973Y-44286223D01*
X159340629Y-44312233D01*
G37*
G36*
X178553405Y-42066352D02*
G01*
X178701264Y-42096885D01*
X178826789Y-42146078D01*
X178929697Y-42212233D01*
X179009988Y-42294502D01*
X179067662Y-42392039D01*
X179102436Y-42503711D01*
X179114027Y-42628388D01*
X179108373Y-42766635D01*
X179091410Y-42882830D01*
X179050699Y-43037758D01*
X178351830Y-43037758D01*
X178351830Y-42759567D01*
X178862977Y-42759567D01*
X178869762Y-42705286D01*
X178872024Y-42651005D01*
X178842339Y-42515868D01*
X178753284Y-42418048D01*
X178659423Y-42374071D01*
X178536159Y-42347684D01*
X178383494Y-42338889D01*
X178279738Y-42343695D01*
X178185594Y-42358113D01*
X178031798Y-42421441D01*
X177931151Y-42533396D01*
X177894964Y-42700763D01*
X177919843Y-42850036D01*
X177976386Y-42972168D01*
X177754738Y-43044543D01*
X177727597Y-42998178D01*
X177693672Y-42920149D01*
X177665400Y-42808194D01*
X177652961Y-42662313D01*
X177664552Y-42539616D01*
X177699326Y-42424834D01*
X177757282Y-42321360D01*
X177838421Y-42232588D01*
X177942177Y-42159648D01*
X178067985Y-42103670D01*
X178215279Y-42068048D01*
X178383494Y-42056174D01*
X178553405Y-42066352D01*
G37*
G36*
X168542689Y-42617927D02*
G01*
X168526574Y-42722249D01*
X168497737Y-42816110D01*
X168454199Y-42896401D01*
X168318496Y-43012879D01*
X168223222Y-43045108D01*
X168107026Y-43055851D01*
X168012034Y-43043129D01*
X167921566Y-43004963D01*
X167842406Y-42931174D01*
X167781340Y-42811586D01*
X167659207Y-42941635D01*
X167576655Y-42978105D01*
X167482794Y-42990262D01*
X167351614Y-42969906D01*
X167232875Y-42893008D01*
X167146929Y-42736950D01*
X167122333Y-42622733D01*
X167116588Y-42522087D01*
X167356138Y-42522087D01*
X167361792Y-42596724D01*
X167384409Y-42660052D01*
X167431905Y-42703024D01*
X167512196Y-42718856D01*
X167639983Y-42664575D01*
X167674594Y-42544704D01*
X167917043Y-42544704D01*
X167961146Y-42717725D01*
X168107026Y-42782184D01*
X168207673Y-42759567D01*
X168268739Y-42701893D01*
X168298141Y-42621603D01*
X168306057Y-42528872D01*
X168303795Y-42459890D01*
X168297010Y-42395431D01*
X167917043Y-42395431D01*
X167917043Y-42503994D01*
X167917043Y-42544704D01*
X167674594Y-42544704D01*
X167686348Y-42503994D01*
X167686348Y-42395431D01*
X167365185Y-42395431D01*
X167358400Y-42456498D01*
X167356138Y-42522087D01*
X167116588Y-42522087D01*
X167114135Y-42479115D01*
X167124312Y-42291393D01*
X167148060Y-42117241D01*
X168507349Y-42117241D01*
X168525160Y-42215060D01*
X168537883Y-42314010D01*
X168545516Y-42411829D01*
X168548060Y-42506255D01*
X168546972Y-42528872D01*
X168542689Y-42617927D01*
G37*
G36*
X171181353Y-42617927D02*
G01*
X171165239Y-42722249D01*
X171136402Y-42816110D01*
X171092864Y-42896401D01*
X170957161Y-43012879D01*
X170861886Y-43045108D01*
X170745691Y-43055851D01*
X170650699Y-43043129D01*
X170560230Y-43004963D01*
X170481071Y-42931174D01*
X170420004Y-42811586D01*
X170297872Y-42941635D01*
X170215319Y-42978105D01*
X170121458Y-42990262D01*
X169990279Y-42969906D01*
X169871539Y-42893008D01*
X169785594Y-42736950D01*
X169760998Y-42622733D01*
X169755252Y-42522087D01*
X169994802Y-42522087D01*
X170000457Y-42596724D01*
X170023074Y-42660052D01*
X170070570Y-42703024D01*
X170150861Y-42718856D01*
X170278647Y-42664575D01*
X170313258Y-42544704D01*
X170555707Y-42544704D01*
X170599810Y-42717725D01*
X170745691Y-42782184D01*
X170846337Y-42759567D01*
X170907403Y-42701893D01*
X170936806Y-42621603D01*
X170944722Y-42528872D01*
X170942460Y-42459890D01*
X170935675Y-42395431D01*
X170555707Y-42395431D01*
X170555707Y-42503994D01*
X170555707Y-42544704D01*
X170313258Y-42544704D01*
X170325012Y-42503994D01*
X170325012Y-42395431D01*
X170003849Y-42395431D01*
X169997064Y-42456498D01*
X169994802Y-42522087D01*
X169755252Y-42522087D01*
X169752799Y-42479115D01*
X169762977Y-42291393D01*
X169786725Y-42117241D01*
X171146014Y-42117241D01*
X171163825Y-42215060D01*
X171176547Y-42314010D01*
X171184180Y-42411829D01*
X171186725Y-42506255D01*
X171185637Y-42528872D01*
X171181353Y-42617927D01*
G37*
%TO.C,kibuzzard-29*%
G36*
X168213671Y-33333247D02*
G01*
X167940004Y-33333247D01*
X167940004Y-32713538D01*
X168213671Y-32713538D01*
X168213671Y-33333247D01*
G37*
G36*
X176129665Y-33333247D02*
G01*
X175855997Y-33333247D01*
X175855997Y-32713538D01*
X176129665Y-32713538D01*
X176129665Y-33333247D01*
G37*
G36*
X160261490Y-31772666D02*
G01*
X160655028Y-31772666D01*
X160655028Y-32012407D01*
X160261490Y-32012407D01*
X160261490Y-32367496D01*
X160033057Y-32367496D01*
X160033057Y-32012407D01*
X159639519Y-32012407D01*
X159639519Y-31772666D01*
X160033057Y-31772666D01*
X160033057Y-31417577D01*
X160261490Y-31417577D01*
X160261490Y-31772666D01*
G37*
G36*
X170816148Y-32903522D02*
G01*
X171209686Y-32903522D01*
X171209686Y-33143263D01*
X170816148Y-33143263D01*
X170816148Y-33498352D01*
X170587715Y-33498352D01*
X170587715Y-33143263D01*
X170194177Y-33143263D01*
X170194177Y-32903522D01*
X170587715Y-32903522D01*
X170587715Y-32548433D01*
X170816148Y-32548433D01*
X170816148Y-32903522D01*
G37*
G36*
X173454813Y-32903522D02*
G01*
X173848351Y-32903522D01*
X173848351Y-33143263D01*
X173454813Y-33143263D01*
X173454813Y-33498352D01*
X173226380Y-33498352D01*
X173226380Y-33143263D01*
X172832842Y-33143263D01*
X172832842Y-32903522D01*
X173226380Y-32903522D01*
X173226380Y-32548433D01*
X173454813Y-32548433D01*
X173454813Y-32903522D01*
G37*
G36*
X179211625Y-32813053D02*
G01*
X178282061Y-32813053D01*
X178437239Y-32897114D01*
X178592167Y-32977404D01*
X178746843Y-33053926D01*
X178901519Y-33126677D01*
X179056446Y-33195660D01*
X179211625Y-33260872D01*
X179211625Y-33484782D01*
X177811625Y-33484782D01*
X177811625Y-33233732D01*
X178673337Y-33233732D01*
X178585130Y-33193869D01*
X178483353Y-33146656D01*
X178373095Y-33093506D01*
X178259444Y-33035832D01*
X178143814Y-32975048D01*
X178027618Y-32912569D01*
X177915381Y-32849241D01*
X177811625Y-32785913D01*
X177811625Y-32562003D01*
X179211625Y-32562003D01*
X179211625Y-32813053D01*
G37*
G36*
X163379638Y-31652795D02*
G01*
X163257222Y-31704814D01*
X163120672Y-31765880D01*
X162979597Y-31831470D01*
X162843612Y-31897060D01*
X162983838Y-31963498D01*
X163124064Y-32027108D01*
X163258071Y-32084499D01*
X163379638Y-32132278D01*
X163379638Y-32433086D01*
X163231495Y-32372019D01*
X163141027Y-32330460D01*
X163043773Y-32282682D01*
X162941714Y-32229814D01*
X162836827Y-32172989D01*
X162732788Y-32113619D01*
X162633272Y-32053118D01*
X161979638Y-32410468D01*
X161979638Y-32130016D01*
X162427457Y-31897060D01*
X161979638Y-31675412D01*
X161979638Y-31374604D01*
X162640058Y-31741002D01*
X162739290Y-31685590D01*
X162842481Y-31627916D01*
X162946237Y-31570525D01*
X163047166Y-31515961D01*
X163143289Y-31465073D01*
X163232626Y-31418708D01*
X163379638Y-31351987D01*
X163379638Y-31652795D01*
G37*
G36*
X166018302Y-31652795D02*
G01*
X165895887Y-31704814D01*
X165759336Y-31765880D01*
X165618262Y-31831470D01*
X165482276Y-31897060D01*
X165622502Y-31963498D01*
X165762729Y-32027108D01*
X165896735Y-32084499D01*
X166018302Y-32132278D01*
X166018302Y-32433086D01*
X165870160Y-32372019D01*
X165779691Y-32330460D01*
X165682438Y-32282682D01*
X165580378Y-32229814D01*
X165475491Y-32172989D01*
X165371452Y-32113619D01*
X165271937Y-32053118D01*
X164618302Y-32410468D01*
X164618302Y-32130016D01*
X165066121Y-31897060D01*
X164618302Y-31675412D01*
X164618302Y-31374604D01*
X165278722Y-31741002D01*
X165377955Y-31685590D01*
X165481145Y-31627916D01*
X165584901Y-31570525D01*
X165685830Y-31515961D01*
X165781953Y-31465073D01*
X165871291Y-31418708D01*
X166018302Y-31351987D01*
X166018302Y-31652795D01*
G37*
G36*
X173610871Y-32073473D02*
G01*
X173934296Y-32139063D01*
X173934296Y-32437609D01*
X173775569Y-32400291D01*
X173621456Y-32362520D01*
X173471956Y-32324297D01*
X173327071Y-32285622D01*
X173186800Y-32246494D01*
X173016676Y-32197231D01*
X172851218Y-32147827D01*
X172690424Y-32098282D01*
X172534296Y-32048595D01*
X172534296Y-31890275D01*
X172805701Y-31890275D01*
X172956105Y-31932116D01*
X173096331Y-31968304D01*
X173235426Y-31998837D01*
X173380176Y-32025977D01*
X173380176Y-31752310D01*
X173235426Y-31780582D01*
X173096331Y-31812246D01*
X172956105Y-31848433D01*
X172805701Y-31890275D01*
X172534296Y-31890275D01*
X172534296Y-31745525D01*
X172689152Y-31697605D01*
X172848391Y-31648837D01*
X173012012Y-31599221D01*
X173180015Y-31548756D01*
X173319110Y-31508136D01*
X173464086Y-31467696D01*
X173614942Y-31427438D01*
X173771679Y-31387360D01*
X173934296Y-31347464D01*
X173934296Y-31636963D01*
X173610871Y-31700291D01*
X173610871Y-31752310D01*
X173610871Y-32073473D01*
G37*
G36*
X176249535Y-32073473D02*
G01*
X176572960Y-32139063D01*
X176572960Y-32437609D01*
X176414233Y-32400291D01*
X176260120Y-32362520D01*
X176110621Y-32324297D01*
X175965736Y-32285622D01*
X175825464Y-32246494D01*
X175655341Y-32197231D01*
X175489883Y-32147827D01*
X175329089Y-32098282D01*
X175172960Y-32048595D01*
X175172960Y-31890275D01*
X175444366Y-31890275D01*
X175594770Y-31932116D01*
X175734996Y-31968304D01*
X175874091Y-31998837D01*
X176018841Y-32025977D01*
X176018841Y-31752310D01*
X175874091Y-31780582D01*
X175734996Y-31812246D01*
X175594770Y-31848433D01*
X175444366Y-31890275D01*
X175172960Y-31890275D01*
X175172960Y-31745525D01*
X175327817Y-31697605D01*
X175487055Y-31648837D01*
X175650676Y-31599221D01*
X175818679Y-31548756D01*
X175957774Y-31508136D01*
X176102750Y-31467696D01*
X176253606Y-31427438D01*
X176410343Y-31387360D01*
X176572960Y-31347464D01*
X176572960Y-31636963D01*
X176249535Y-31700291D01*
X176249535Y-31752310D01*
X176249535Y-32073473D01*
G37*
G36*
X160722879Y-32601583D02*
G01*
X160746627Y-32695444D01*
X160763590Y-32804006D01*
X160770375Y-32914830D01*
X160761894Y-33044313D01*
X160736450Y-33156834D01*
X160695739Y-33252391D01*
X160641458Y-33330985D01*
X160497839Y-33435024D01*
X160318033Y-33468950D01*
X160186854Y-33453621D01*
X160076784Y-33407632D01*
X159987823Y-33330985D01*
X159920474Y-33223177D01*
X159875240Y-33083705D01*
X159852120Y-32912569D01*
X159723202Y-32923877D01*
X159571668Y-32935186D01*
X159571668Y-33416931D01*
X159340973Y-33416931D01*
X159340973Y-32702229D01*
X159513711Y-32693748D01*
X159692669Y-32681874D01*
X159876716Y-32666042D01*
X160064721Y-32645687D01*
X160069527Y-32801179D01*
X160083946Y-32923877D01*
X160138227Y-33087851D01*
X160221910Y-33164750D01*
X160329341Y-33183974D01*
X160403978Y-33172666D01*
X160468437Y-33130824D01*
X160514802Y-33047141D01*
X160532896Y-32912569D01*
X160527807Y-32806834D01*
X160512540Y-32720323D01*
X160467306Y-32593667D01*
X160698001Y-32537124D01*
X160722879Y-32601583D01*
G37*
G36*
X179219823Y-34146050D02*
G01*
X179190138Y-34270727D01*
X179138967Y-34381268D01*
X179064613Y-34475412D01*
X178965946Y-34552027D01*
X178841835Y-34609984D01*
X178690583Y-34646454D01*
X178510494Y-34658611D01*
X178334363Y-34647585D01*
X178185938Y-34614507D01*
X178063240Y-34561640D01*
X177964290Y-34491244D01*
X177888806Y-34403320D01*
X177836504Y-34297868D01*
X177805970Y-34177714D01*
X177797711Y-34070565D01*
X178037796Y-34070565D01*
X178077376Y-34222100D01*
X178182546Y-34314830D01*
X178334080Y-34362326D01*
X178510494Y-34375897D01*
X178610292Y-34371656D01*
X178701609Y-34358934D01*
X178852012Y-34302391D01*
X178951528Y-34198352D01*
X178987715Y-34038901D01*
X178987715Y-34014023D01*
X178985453Y-33989144D01*
X178044581Y-33989144D01*
X178038927Y-34029855D01*
X178037796Y-34070565D01*
X177797711Y-34070565D01*
X177795793Y-34045687D01*
X177802578Y-33889628D01*
X177829718Y-33710953D01*
X179195793Y-33710953D01*
X179221802Y-33863619D01*
X179229718Y-34009499D01*
X179229391Y-34014023D01*
X179219823Y-34146050D01*
G37*
G36*
X159467629Y-33644233D02*
G01*
X159625949Y-33681551D01*
X159744437Y-33711456D01*
X159867701Y-33743874D01*
X159995739Y-33778805D01*
X160126290Y-33815746D01*
X160257092Y-33854195D01*
X160388146Y-33894152D01*
X160574737Y-33953522D01*
X160740973Y-34009499D01*
X160740973Y-34296737D01*
X160620474Y-34339961D01*
X160497211Y-34382179D01*
X160371183Y-34423393D01*
X160244527Y-34462973D01*
X160119379Y-34500291D01*
X159995739Y-34535347D01*
X159815650Y-34583409D01*
X159644043Y-34625816D01*
X159484592Y-34662286D01*
X159340973Y-34692536D01*
X159340973Y-34400775D01*
X159458582Y-34380420D01*
X159594285Y-34355541D01*
X159741013Y-34327270D01*
X159891700Y-34296737D01*
X160043235Y-34263942D01*
X160192508Y-34228885D01*
X160332451Y-34192698D01*
X160455997Y-34156511D01*
X160330755Y-34120040D01*
X160190246Y-34083005D01*
X160040973Y-34046817D01*
X159889438Y-34012892D01*
X159739034Y-33981511D01*
X159593154Y-33952956D01*
X159458299Y-33929208D01*
X159340973Y-33912246D01*
X159340973Y-33618223D01*
X159467629Y-33644233D01*
G37*
G36*
X178680405Y-31398352D02*
G01*
X178828264Y-31428885D01*
X178953789Y-31478078D01*
X179056697Y-31544233D01*
X179136988Y-31626502D01*
X179194662Y-31724039D01*
X179229436Y-31835711D01*
X179241027Y-31960388D01*
X179235373Y-32098635D01*
X179218410Y-32214830D01*
X179177699Y-32369758D01*
X178478830Y-32369758D01*
X178478830Y-32091567D01*
X178989977Y-32091567D01*
X178996762Y-32037286D01*
X178999024Y-31983005D01*
X178969339Y-31847868D01*
X178880284Y-31750048D01*
X178786423Y-31706071D01*
X178663159Y-31679684D01*
X178510494Y-31670889D01*
X178406738Y-31675695D01*
X178312594Y-31690113D01*
X178158798Y-31753441D01*
X178058151Y-31865396D01*
X178021964Y-32032763D01*
X178046843Y-32182036D01*
X178103386Y-32304168D01*
X177881738Y-32376543D01*
X177854597Y-32330178D01*
X177820672Y-32252149D01*
X177792400Y-32140194D01*
X177779961Y-31994313D01*
X177791552Y-31871616D01*
X177826326Y-31756834D01*
X177884282Y-31653360D01*
X177965421Y-31564588D01*
X178069177Y-31491648D01*
X178194985Y-31435670D01*
X178342279Y-31400048D01*
X178510494Y-31388174D01*
X178680405Y-31398352D01*
G37*
G36*
X168669689Y-31949927D02*
G01*
X168653574Y-32054249D01*
X168624737Y-32148110D01*
X168581199Y-32228401D01*
X168445496Y-32344879D01*
X168350222Y-32377108D01*
X168234026Y-32387851D01*
X168139034Y-32375129D01*
X168048566Y-32336963D01*
X167969406Y-32263174D01*
X167908340Y-32143586D01*
X167786207Y-32273635D01*
X167703655Y-32310105D01*
X167609794Y-32322262D01*
X167478614Y-32301906D01*
X167359875Y-32225008D01*
X167273929Y-32068950D01*
X167249333Y-31954733D01*
X167243588Y-31854087D01*
X167483138Y-31854087D01*
X167488792Y-31928724D01*
X167511409Y-31992052D01*
X167558905Y-32035024D01*
X167639196Y-32050856D01*
X167766983Y-31996575D01*
X167801594Y-31876704D01*
X168044043Y-31876704D01*
X168088146Y-32049725D01*
X168234026Y-32114184D01*
X168334673Y-32091567D01*
X168395739Y-32033893D01*
X168425141Y-31953603D01*
X168433057Y-31860872D01*
X168430795Y-31791890D01*
X168424010Y-31727431D01*
X168044043Y-31727431D01*
X168044043Y-31835994D01*
X168044043Y-31876704D01*
X167801594Y-31876704D01*
X167813348Y-31835994D01*
X167813348Y-31727431D01*
X167492185Y-31727431D01*
X167485400Y-31788498D01*
X167483138Y-31854087D01*
X167243588Y-31854087D01*
X167241135Y-31811115D01*
X167251312Y-31623393D01*
X167275060Y-31449241D01*
X168634349Y-31449241D01*
X168652160Y-31547060D01*
X168664883Y-31646010D01*
X168672516Y-31743829D01*
X168675060Y-31838255D01*
X168673972Y-31860872D01*
X168669689Y-31949927D01*
G37*
G36*
X171308353Y-31949927D02*
G01*
X171292239Y-32054249D01*
X171263402Y-32148110D01*
X171219864Y-32228401D01*
X171084161Y-32344879D01*
X170988886Y-32377108D01*
X170872691Y-32387851D01*
X170777699Y-32375129D01*
X170687230Y-32336963D01*
X170608071Y-32263174D01*
X170547004Y-32143586D01*
X170424872Y-32273635D01*
X170342319Y-32310105D01*
X170248458Y-32322262D01*
X170117279Y-32301906D01*
X169998539Y-32225008D01*
X169912594Y-32068950D01*
X169887998Y-31954733D01*
X169882252Y-31854087D01*
X170121802Y-31854087D01*
X170127457Y-31928724D01*
X170150074Y-31992052D01*
X170197570Y-32035024D01*
X170277861Y-32050856D01*
X170405647Y-31996575D01*
X170440258Y-31876704D01*
X170682707Y-31876704D01*
X170726810Y-32049725D01*
X170872691Y-32114184D01*
X170973337Y-32091567D01*
X171034403Y-32033893D01*
X171063806Y-31953603D01*
X171071722Y-31860872D01*
X171069460Y-31791890D01*
X171062675Y-31727431D01*
X170682707Y-31727431D01*
X170682707Y-31835994D01*
X170682707Y-31876704D01*
X170440258Y-31876704D01*
X170452012Y-31835994D01*
X170452012Y-31727431D01*
X170130849Y-31727431D01*
X170124064Y-31788498D01*
X170121802Y-31854087D01*
X169882252Y-31854087D01*
X169879799Y-31811115D01*
X169889977Y-31623393D01*
X169913725Y-31449241D01*
X171273014Y-31449241D01*
X171290825Y-31547060D01*
X171303547Y-31646010D01*
X171311180Y-31743829D01*
X171313725Y-31838255D01*
X171312637Y-31860872D01*
X171308353Y-31949927D01*
G37*
D11*
%TO.C,C3*%
X130720000Y-52336248D02*
X130720000Y-53758752D01*
X133440000Y-52336248D02*
X133440000Y-53758752D01*
%TO.C,U3*%
X181373000Y-71465000D02*
X183323000Y-71465000D01*
X181373000Y-81585000D02*
X183323000Y-81585000D01*
X185273000Y-71465000D02*
X183323000Y-71465000D01*
X185273000Y-81585000D02*
X183323000Y-81585000D01*
X186023000Y-71520000D02*
X185783000Y-71190000D01*
X186263000Y-71190000D01*
X186023000Y-71520000D01*
G36*
X186023000Y-71520000D02*
G01*
X185783000Y-71190000D01*
X186263000Y-71190000D01*
X186023000Y-71520000D01*
G37*
%TO.C,U5*%
X139175000Y-42480000D02*
X139175000Y-43880000D01*
X141495000Y-42480000D02*
X141495000Y-43890000D01*
X141775000Y-44500000D02*
X141445000Y-44260000D01*
X141775000Y-44020000D01*
X141775000Y-44500000D01*
G36*
X141775000Y-44500000D02*
G01*
X141445000Y-44260000D01*
X141775000Y-44020000D01*
X141775000Y-44500000D01*
G37*
D12*
%TO.C,kibuzzard-30*%
G36*
X146360396Y-143827950D02*
G01*
X147299006Y-143827950D01*
X147299006Y-143522619D01*
X147529701Y-143522619D01*
X147529701Y-144411472D01*
X147299006Y-144411472D01*
X147299006Y-144108402D01*
X146360396Y-144108402D01*
X146360396Y-144411472D01*
X146129701Y-144411472D01*
X146129701Y-143522619D01*
X146360396Y-143522619D01*
X146360396Y-143827950D01*
G37*
G36*
X149187536Y-146089662D02*
G01*
X150126147Y-146089662D01*
X150126147Y-145784331D01*
X150356842Y-145784331D01*
X150356842Y-146673184D01*
X150126147Y-146673184D01*
X150126147Y-146370115D01*
X149187536Y-146370115D01*
X149187536Y-146673184D01*
X148956842Y-146673184D01*
X148956842Y-145784331D01*
X149187536Y-145784331D01*
X149187536Y-146089662D01*
G37*
G36*
X141875420Y-143755575D02*
G01*
X140945856Y-143755575D01*
X141101035Y-143839635D01*
X141255962Y-143919926D01*
X141410638Y-143996447D01*
X141565314Y-144069199D01*
X141720241Y-144138181D01*
X141875420Y-144203394D01*
X141875420Y-144427304D01*
X140475420Y-144427304D01*
X140475420Y-144176254D01*
X141337132Y-144176254D01*
X141248926Y-144136391D01*
X141147149Y-144089178D01*
X141036890Y-144036027D01*
X140923239Y-143978354D01*
X140807609Y-143917570D01*
X140691414Y-143855090D01*
X140579176Y-143791762D01*
X140475420Y-143728435D01*
X140475420Y-143504525D01*
X141875420Y-143504525D01*
X141875420Y-143755575D01*
G37*
G36*
X144702561Y-144911310D02*
G01*
X144062496Y-144911310D01*
X144190283Y-145030050D01*
X144268877Y-145090834D01*
X144353126Y-145148790D01*
X144441333Y-145202788D01*
X144531801Y-145251698D01*
X144702561Y-145322942D01*
X144702561Y-145637320D01*
X144601632Y-145600567D01*
X144497876Y-145553636D01*
X144393837Y-145498507D01*
X144292060Y-145437158D01*
X144194523Y-145370720D01*
X144103207Y-145300325D01*
X144020089Y-145228515D01*
X143947149Y-145157837D01*
X143864031Y-145226536D01*
X143777520Y-145292409D01*
X143690162Y-145354888D01*
X143604499Y-145413410D01*
X143521381Y-145466843D01*
X143441656Y-145514056D01*
X143302561Y-145589824D01*
X143302561Y-145275446D01*
X143438263Y-145207594D01*
X143589798Y-145118257D01*
X143743595Y-145015349D01*
X143883821Y-144911310D01*
X143302561Y-144911310D01*
X143302561Y-144633119D01*
X144702561Y-144633119D01*
X144702561Y-144911310D01*
G37*
G36*
X147529701Y-142577223D02*
G01*
X146441817Y-142565914D01*
X147034386Y-142731019D01*
X147034386Y-142934573D01*
X146441817Y-143106464D01*
X147529701Y-143092893D01*
X147529701Y-143348467D01*
X147350743Y-143343378D01*
X147175743Y-143337158D01*
X147003288Y-143329525D01*
X146831963Y-143320195D01*
X146660355Y-143308887D01*
X146487052Y-143295317D01*
X146310638Y-143280333D01*
X146129701Y-143264783D01*
X146129701Y-143034089D01*
X146249572Y-142993378D01*
X146404499Y-142943620D01*
X146576389Y-142887077D01*
X146749410Y-142830535D01*
X146586567Y-142778515D01*
X146412415Y-142724234D01*
X146251834Y-142673346D01*
X146129701Y-142633766D01*
X146129701Y-142403071D01*
X146282932Y-142388087D01*
X146448603Y-142374800D01*
X146623320Y-142363208D01*
X146803691Y-142353313D01*
X146987456Y-142344549D01*
X147172351Y-142336351D01*
X147354418Y-142328717D01*
X147529701Y-142321649D01*
X147529701Y-142577223D01*
G37*
G36*
X150356842Y-142577223D02*
G01*
X149268958Y-142565914D01*
X149861527Y-142731019D01*
X149861527Y-142934573D01*
X149268958Y-143106464D01*
X150356842Y-143092893D01*
X150356842Y-143348467D01*
X150177884Y-143343378D01*
X150002884Y-143337158D01*
X149830428Y-143329525D01*
X149659103Y-143320195D01*
X149487496Y-143308887D01*
X149314192Y-143295317D01*
X149137779Y-143280333D01*
X148956842Y-143264783D01*
X148956842Y-143034089D01*
X149076712Y-142993378D01*
X149231640Y-142943620D01*
X149403530Y-142887077D01*
X149576551Y-142830535D01*
X149413708Y-142778515D01*
X149239556Y-142724234D01*
X149078974Y-142673346D01*
X148956842Y-142633766D01*
X148956842Y-142403071D01*
X149110073Y-142388087D01*
X149275743Y-142374800D01*
X149450460Y-142363208D01*
X149630832Y-142353313D01*
X149814596Y-142344549D01*
X149999491Y-142336351D01*
X150181559Y-142328717D01*
X150356842Y-142321649D01*
X150356842Y-142577223D01*
G37*
G36*
X141883619Y-145088572D02*
G01*
X141853934Y-145213249D01*
X141802763Y-145323790D01*
X141728409Y-145417934D01*
X141629742Y-145494549D01*
X141505630Y-145552506D01*
X141354378Y-145588976D01*
X141174289Y-145601132D01*
X140998158Y-145590107D01*
X140849733Y-145557029D01*
X140727036Y-145504161D01*
X140628086Y-145433766D01*
X140552601Y-145345842D01*
X140500299Y-145240389D01*
X140469766Y-145120236D01*
X140461506Y-145013087D01*
X140701591Y-145013087D01*
X140741171Y-145164622D01*
X140846341Y-145257352D01*
X140997876Y-145304848D01*
X141174289Y-145318418D01*
X141274087Y-145314178D01*
X141365404Y-145301456D01*
X141515808Y-145244913D01*
X141615323Y-145140874D01*
X141651511Y-144981423D01*
X141651511Y-144956544D01*
X141649249Y-144931666D01*
X140708376Y-144931666D01*
X140702722Y-144972376D01*
X140701591Y-145013087D01*
X140461506Y-145013087D01*
X140459588Y-144988208D01*
X140466373Y-144832150D01*
X140493514Y-144653475D01*
X141859588Y-144653475D01*
X141885598Y-144806140D01*
X141893514Y-144952021D01*
X141893186Y-144956544D01*
X141883619Y-145088572D01*
G37*
G36*
X144166676Y-143471306D02*
G01*
X144311850Y-143500567D01*
X144436951Y-143549335D01*
X144541979Y-143617611D01*
X144647526Y-143737230D01*
X144710854Y-143888011D01*
X144731963Y-144069953D01*
X144724330Y-144193499D01*
X144701430Y-144301779D01*
X144634709Y-144461229D01*
X144415323Y-144391116D01*
X144465081Y-144276900D01*
X144489960Y-144097094D01*
X144458013Y-143935664D01*
X144362173Y-143826819D01*
X144264542Y-143780956D01*
X144142033Y-143753439D01*
X143994645Y-143744266D01*
X143867989Y-143751900D01*
X143763950Y-143774800D01*
X143615808Y-143853960D01*
X143536648Y-143964783D01*
X143512900Y-144092570D01*
X143536648Y-144261068D01*
X143594321Y-144386593D01*
X143372674Y-144458968D01*
X143345533Y-144412603D01*
X143311607Y-144336835D01*
X143283336Y-144231666D01*
X143270897Y-144097094D01*
X143283053Y-143964501D01*
X143319523Y-143842651D01*
X143379459Y-143734089D01*
X143462011Y-143641359D01*
X143566333Y-143565874D01*
X143691575Y-143509048D01*
X143836890Y-143473426D01*
X144001430Y-143461552D01*
X144166676Y-143471306D01*
G37*
G36*
X141344200Y-142340874D02*
G01*
X141492060Y-142371407D01*
X141617585Y-142420599D01*
X141720493Y-142486754D01*
X141800784Y-142569024D01*
X141858457Y-142666561D01*
X141893231Y-142778233D01*
X141904822Y-142902909D01*
X141899168Y-143041157D01*
X141882205Y-143157352D01*
X141841494Y-143312279D01*
X141142625Y-143312279D01*
X141142625Y-143034089D01*
X141653772Y-143034089D01*
X141660557Y-142979808D01*
X141662819Y-142925527D01*
X141633134Y-142790389D01*
X141544079Y-142692570D01*
X141450218Y-142648592D01*
X141326955Y-142622206D01*
X141174289Y-142613410D01*
X141070533Y-142618216D01*
X140976389Y-142632635D01*
X140822593Y-142695963D01*
X140721947Y-142807918D01*
X140685759Y-142975284D01*
X140710638Y-143124557D01*
X140767181Y-143246690D01*
X140545533Y-143319065D01*
X140518393Y-143272699D01*
X140484467Y-143194670D01*
X140456195Y-143082716D01*
X140443756Y-142936835D01*
X140455347Y-142814137D01*
X140490121Y-142699355D01*
X140548078Y-142595882D01*
X140629216Y-142507110D01*
X140732973Y-142434170D01*
X140858780Y-142378192D01*
X141006074Y-142342570D01*
X141174289Y-142330696D01*
X141344200Y-142340874D01*
G37*
G36*
X144694645Y-142516157D02*
G01*
X144722633Y-142637724D01*
X144731963Y-142794347D01*
X144720026Y-142953044D01*
X144684216Y-143082339D01*
X144624532Y-143182231D01*
X144494766Y-143278071D01*
X144320331Y-143310018D01*
X144214879Y-143300405D01*
X144129216Y-143271569D01*
X144002561Y-143173184D01*
X143921139Y-143042005D01*
X143865727Y-142905171D01*
X143831801Y-142818095D01*
X143789960Y-142738935D01*
X143735679Y-142681262D01*
X143664435Y-142658645D01*
X143575223Y-142683272D01*
X143521695Y-142757155D01*
X143503853Y-142880292D01*
X143526470Y-143039743D01*
X143580751Y-143165268D01*
X143365889Y-143246690D01*
X143300299Y-143084977D01*
X143278247Y-142980656D01*
X143270897Y-142859937D01*
X143283210Y-142721344D01*
X143320152Y-142604112D01*
X143381721Y-142508241D01*
X143514031Y-142412401D01*
X143689313Y-142380454D01*
X143855549Y-142416641D01*
X143967504Y-142508241D01*
X144042141Y-142631504D01*
X144094160Y-142762683D01*
X144133740Y-142857675D01*
X144181236Y-142943620D01*
X144241171Y-143006948D01*
X144318069Y-143031827D01*
X144384790Y-143021649D01*
X144443595Y-142984331D01*
X144484305Y-142910825D01*
X144499006Y-142794347D01*
X144491090Y-142681544D01*
X144467342Y-142587401D01*
X144399491Y-142441520D01*
X144625662Y-142360098D01*
X144694645Y-142516157D01*
G37*
G36*
X147521785Y-144777869D02*
G01*
X147549774Y-144899436D01*
X147559103Y-145056060D01*
X147547167Y-145214757D01*
X147511356Y-145344051D01*
X147451672Y-145443943D01*
X147321906Y-145539783D01*
X147147472Y-145571730D01*
X147042019Y-145562118D01*
X146956357Y-145533281D01*
X146829701Y-145434897D01*
X146748279Y-145303717D01*
X146692868Y-145166884D01*
X146658942Y-145079808D01*
X146617100Y-145000648D01*
X146562819Y-144942974D01*
X146491575Y-144920357D01*
X146402363Y-144944984D01*
X146348836Y-145018867D01*
X146330994Y-145142005D01*
X146353611Y-145301456D01*
X146407892Y-145426981D01*
X146193029Y-145508402D01*
X146127439Y-145346690D01*
X146105388Y-145242368D01*
X146098037Y-145121649D01*
X146110351Y-144983057D01*
X146147292Y-144865825D01*
X146208861Y-144769953D01*
X146341171Y-144674113D01*
X146516454Y-144642166D01*
X146682690Y-144678354D01*
X146794645Y-144769953D01*
X146869281Y-144893216D01*
X146921300Y-145024396D01*
X146960880Y-145119388D01*
X147008376Y-145205333D01*
X147068312Y-145268661D01*
X147145210Y-145293540D01*
X147211931Y-145283362D01*
X147270735Y-145246044D01*
X147311446Y-145172538D01*
X147326147Y-145056060D01*
X147318231Y-144943257D01*
X147294483Y-144849113D01*
X147226632Y-144703233D01*
X147452803Y-144621811D01*
X147521785Y-144777869D01*
G37*
G36*
X150348926Y-144777869D02*
G01*
X150376914Y-144899436D01*
X150386244Y-145056060D01*
X150374307Y-145214757D01*
X150338497Y-145344051D01*
X150278813Y-145443943D01*
X150149047Y-145539783D01*
X149974612Y-145571730D01*
X149869160Y-145562118D01*
X149783498Y-145533281D01*
X149656842Y-145434897D01*
X149575420Y-145303717D01*
X149520008Y-145166884D01*
X149486082Y-145079808D01*
X149444241Y-145000648D01*
X149389960Y-144942974D01*
X149318716Y-144920357D01*
X149229504Y-144944984D01*
X149175976Y-145018867D01*
X149158134Y-145142005D01*
X149180751Y-145301456D01*
X149235032Y-145426981D01*
X149020170Y-145508402D01*
X148954580Y-145346690D01*
X148932528Y-145242368D01*
X148925178Y-145121649D01*
X148937491Y-144983057D01*
X148974433Y-144865825D01*
X149036002Y-144769953D01*
X149168312Y-144674113D01*
X149343595Y-144642166D01*
X149509830Y-144678354D01*
X149621785Y-144769953D01*
X149696422Y-144893216D01*
X149748441Y-145024396D01*
X149788021Y-145119388D01*
X149835517Y-145205333D01*
X149895452Y-145268661D01*
X149972351Y-145293540D01*
X150039071Y-145283362D01*
X150097876Y-145246044D01*
X150138586Y-145172538D01*
X150153288Y-145056060D01*
X150145372Y-144943257D01*
X150121624Y-144849113D01*
X150053772Y-144703233D01*
X150279943Y-144621811D01*
X150348926Y-144777869D01*
G37*
G36*
X147559103Y-146229888D02*
G01*
X147538622Y-146377654D01*
X147477179Y-146501294D01*
X147374774Y-146600809D01*
X147271513Y-146658200D01*
X147146058Y-146699194D01*
X146998411Y-146723790D01*
X146828570Y-146731989D01*
X146658730Y-146723931D01*
X146511082Y-146699759D01*
X146385628Y-146659472D01*
X146282367Y-146603071D01*
X146179961Y-146504058D01*
X146118518Y-146378910D01*
X146098037Y-146227627D01*
X146340040Y-146227627D01*
X146378489Y-146342974D01*
X146482528Y-146409695D01*
X146637456Y-146441359D01*
X146729903Y-146447296D01*
X146828570Y-146449275D01*
X146926955Y-146447296D01*
X147018554Y-146441359D01*
X147173481Y-146409695D01*
X147278651Y-146341843D01*
X147317100Y-146227627D01*
X147278651Y-146112279D01*
X147174612Y-146045559D01*
X147019685Y-146013895D01*
X146927237Y-146007958D01*
X146828570Y-146005979D01*
X146730186Y-146007958D01*
X146638586Y-146013895D01*
X146483659Y-146045559D01*
X146378489Y-146112279D01*
X146340040Y-146227627D01*
X146098037Y-146227627D01*
X146118518Y-146080867D01*
X146179961Y-145957226D01*
X146282367Y-145856706D01*
X146385628Y-145798325D01*
X146511082Y-145756625D01*
X146658730Y-145731605D01*
X146828570Y-145723265D01*
X146998411Y-145731393D01*
X147146058Y-145755777D01*
X147271513Y-145796417D01*
X147374774Y-145853313D01*
X147477179Y-145952954D01*
X147538622Y-146078479D01*
X147558797Y-146227627D01*
X147559103Y-146229888D01*
G37*
G36*
X150386244Y-143968176D02*
G01*
X150365763Y-144115941D01*
X150304320Y-144239582D01*
X150201914Y-144339097D01*
X150098653Y-144396488D01*
X149973199Y-144437481D01*
X149825551Y-144462077D01*
X149655711Y-144470276D01*
X149485870Y-144462219D01*
X149338223Y-144438047D01*
X149212769Y-144397760D01*
X149109507Y-144341359D01*
X149007102Y-144242346D01*
X148945659Y-144117198D01*
X148925178Y-143965914D01*
X149167181Y-143965914D01*
X149205630Y-144081262D01*
X149309669Y-144147982D01*
X149464596Y-144179646D01*
X149557044Y-144185583D01*
X149655711Y-144187562D01*
X149754095Y-144185583D01*
X149845695Y-144179646D01*
X150000622Y-144147982D01*
X150105792Y-144080131D01*
X150144241Y-143965914D01*
X150105792Y-143850567D01*
X150001753Y-143783846D01*
X149846826Y-143752182D01*
X149754378Y-143746245D01*
X149655711Y-143744266D01*
X149557326Y-143746245D01*
X149465727Y-143752182D01*
X149310800Y-143783846D01*
X149205630Y-143850567D01*
X149167181Y-143965914D01*
X148925178Y-143965914D01*
X148945659Y-143819154D01*
X149007102Y-143695514D01*
X149109507Y-143594993D01*
X149212769Y-143536613D01*
X149338223Y-143494913D01*
X149485870Y-143469893D01*
X149655711Y-143461552D01*
X149825551Y-143469680D01*
X149973199Y-143494065D01*
X150098653Y-143534705D01*
X150201914Y-143591601D01*
X150304320Y-143691242D01*
X150365763Y-143816767D01*
X150385938Y-143965914D01*
X150386244Y-143968176D01*
G37*
D11*
%TO.C,C4*%
X134530000Y-52336248D02*
X134530000Y-53758752D01*
X137250000Y-52336248D02*
X137250000Y-53758752D01*
D12*
%TO.C,kibuzzard-67548A22*%
G36*
X174410202Y-133848489D02*
G01*
X173853659Y-133848489D01*
X173853659Y-134318926D01*
X173639443Y-134318926D01*
X173639443Y-133848489D01*
X173324418Y-133848489D01*
X173324418Y-134386131D01*
X173110202Y-134386131D01*
X173110202Y-133590170D01*
X174410202Y-133590170D01*
X174410202Y-133848489D01*
G37*
G36*
X176860390Y-133848489D02*
G01*
X176303848Y-133848489D01*
X176303848Y-134318926D01*
X176089631Y-134318926D01*
X176089631Y-133848489D01*
X175774607Y-133848489D01*
X175774607Y-134386131D01*
X175560390Y-134386131D01*
X175560390Y-133590170D01*
X176860390Y-133590170D01*
X176860390Y-133848489D01*
G37*
G36*
X179310579Y-132798409D02*
G01*
X178754036Y-132798409D01*
X178754036Y-133268845D01*
X178539820Y-133268845D01*
X178539820Y-132798409D01*
X178224795Y-132798409D01*
X178224795Y-133336050D01*
X178010579Y-133336050D01*
X178010579Y-132540089D01*
X179310579Y-132540089D01*
X179310579Y-132798409D01*
G37*
G36*
X193196847Y-134692754D02*
G01*
X193145393Y-134820864D01*
X193070837Y-134955275D01*
X193797493Y-134955275D01*
X193797493Y-134682254D01*
X194011710Y-134682254D01*
X194011710Y-135471914D01*
X193797493Y-135471914D01*
X193797493Y-135213595D01*
X192711710Y-135213595D01*
X192711710Y-135037181D01*
X192793616Y-134946874D01*
X192869222Y-134835565D01*
X192934327Y-134717956D01*
X192982631Y-134608748D01*
X193196847Y-134692754D01*
G37*
G36*
X180674984Y-135156890D02*
G01*
X180778679Y-135098611D01*
X180900751Y-135037181D01*
X181035949Y-134976539D01*
X181179023Y-134920622D01*
X181326821Y-134871006D01*
X181476195Y-134829265D01*
X181622419Y-134799338D01*
X181760767Y-134785162D01*
X181760767Y-135047682D01*
X181592492Y-135066846D01*
X181423691Y-135103336D01*
X181259616Y-135152165D01*
X181105517Y-135208344D01*
X180964281Y-135270036D01*
X180838796Y-135335404D01*
X180734313Y-135399984D01*
X180656082Y-135459313D01*
X180460767Y-135459313D01*
X180460767Y-134610848D01*
X180674984Y-134610848D01*
X180674984Y-135156890D01*
G37*
G36*
X196461898Y-133787585D02*
G01*
X195598732Y-133787585D01*
X195742826Y-133865641D01*
X195886687Y-133940197D01*
X196030315Y-134011252D01*
X196173943Y-134078807D01*
X196317804Y-134142862D01*
X196461898Y-134203417D01*
X196461898Y-134411333D01*
X195161898Y-134411333D01*
X195161898Y-134178215D01*
X195962060Y-134178215D01*
X195880153Y-134141200D01*
X195785646Y-134097359D01*
X195683263Y-134048005D01*
X195577730Y-133994451D01*
X195470359Y-133938009D01*
X195362464Y-133879992D01*
X195258243Y-133821187D01*
X195161898Y-133762383D01*
X195161898Y-133554467D01*
X196461898Y-133554467D01*
X196461898Y-133787585D01*
G37*
G36*
X183904332Y-135106486D02*
G01*
X184210956Y-135106486D01*
X184210956Y-135364806D01*
X183904332Y-135364806D01*
X183904332Y-135505517D01*
X183692216Y-135505517D01*
X183692216Y-135364806D01*
X182910956Y-135364806D01*
X182910956Y-135133788D01*
X182940050Y-135106486D01*
X183234381Y-135106486D01*
X183692216Y-135106486D01*
X183692216Y-134812464D01*
X183572507Y-134875468D01*
X183451747Y-134950024D01*
X183337289Y-135028780D01*
X183234381Y-135106486D01*
X182940050Y-135106486D01*
X183000475Y-135049782D01*
X183101020Y-134965775D01*
X183207866Y-134883869D01*
X183316287Y-134806163D01*
X183424183Y-134733708D01*
X183529453Y-134667553D01*
X183627898Y-134610323D01*
X183715318Y-134564645D01*
X183904332Y-134564645D01*
X183904332Y-134812464D01*
X183904332Y-135106486D01*
G37*
G36*
X173971268Y-132871914D02*
G01*
X173959717Y-133027210D01*
X173925065Y-133157070D01*
X173867310Y-133261494D01*
X173783654Y-133337917D01*
X173671295Y-133383770D01*
X173530234Y-133399055D01*
X173390574Y-133383887D01*
X173279615Y-133338384D01*
X173197359Y-133262544D01*
X173140771Y-133159170D01*
X173106818Y-133031060D01*
X173097678Y-132907617D01*
X173320218Y-132907617D01*
X173332032Y-133000287D01*
X173367472Y-133072480D01*
X173431264Y-133118946D01*
X173528134Y-133134435D01*
X173630254Y-133118683D01*
X173697197Y-133071430D01*
X173734212Y-132993199D01*
X173746551Y-132884515D01*
X173746551Y-132779507D01*
X173326519Y-132779507D01*
X173321268Y-132843562D01*
X173320218Y-132907617D01*
X173097678Y-132907617D01*
X173095501Y-132878215D01*
X173097601Y-132796309D01*
X173102851Y-132701801D01*
X173112302Y-132606244D01*
X173127003Y-132521187D01*
X174410202Y-132521187D01*
X174410202Y-132779507D01*
X173971268Y-132779507D01*
X173971268Y-132871914D01*
G37*
G36*
X176421457Y-132871914D02*
G01*
X176409906Y-133027210D01*
X176375253Y-133157070D01*
X176317499Y-133261494D01*
X176233842Y-133337917D01*
X176121484Y-133383770D01*
X175980423Y-133399055D01*
X175840762Y-133383887D01*
X175729803Y-133338384D01*
X175647547Y-133262544D01*
X175590959Y-133159170D01*
X175557007Y-133031060D01*
X175547866Y-132907617D01*
X175770407Y-132907617D01*
X175782220Y-133000287D01*
X175817660Y-133072480D01*
X175881453Y-133118946D01*
X175978323Y-133134435D01*
X176080443Y-133118683D01*
X176147386Y-133071430D01*
X176184401Y-132993199D01*
X176196739Y-132884515D01*
X176196739Y-132779507D01*
X175776707Y-132779507D01*
X175771457Y-132843562D01*
X175770407Y-132907617D01*
X175547866Y-132907617D01*
X175545689Y-132878215D01*
X175547789Y-132796309D01*
X175553040Y-132701801D01*
X175562491Y-132606244D01*
X175577192Y-132521187D01*
X176860390Y-132521187D01*
X176860390Y-132779507D01*
X176421457Y-132779507D01*
X176421457Y-132871914D01*
G37*
G36*
X178871645Y-133921995D02*
G01*
X178860094Y-134077290D01*
X178825442Y-134207150D01*
X178767687Y-134311575D01*
X178684031Y-134387998D01*
X178571672Y-134433851D01*
X178430611Y-134449136D01*
X178290950Y-134433968D01*
X178179992Y-134388464D01*
X178097736Y-134312625D01*
X178041148Y-134209251D01*
X178007195Y-134081141D01*
X177998055Y-133957698D01*
X178220595Y-133957698D01*
X178232408Y-134050368D01*
X178267849Y-134122561D01*
X178331641Y-134169027D01*
X178428511Y-134184515D01*
X178530631Y-134168764D01*
X178597574Y-134121511D01*
X178634589Y-134043279D01*
X178646928Y-133934596D01*
X178646928Y-133829588D01*
X178226896Y-133829588D01*
X178221645Y-133893643D01*
X178220595Y-133957698D01*
X177998055Y-133957698D01*
X177995878Y-133928296D01*
X177997978Y-133846389D01*
X178003228Y-133751882D01*
X178012679Y-133656325D01*
X178027380Y-133571268D01*
X179310579Y-133571268D01*
X179310579Y-133829588D01*
X178871645Y-133829588D01*
X178871645Y-133921995D01*
G37*
G36*
X181321834Y-132871914D02*
G01*
X181310283Y-133027210D01*
X181275630Y-133157070D01*
X181217876Y-133261494D01*
X181134219Y-133337917D01*
X181021861Y-133383770D01*
X180880800Y-133399055D01*
X180741139Y-133383887D01*
X180630180Y-133338384D01*
X180547924Y-133262544D01*
X180491336Y-133159170D01*
X180457384Y-133031060D01*
X180448243Y-132907617D01*
X180670784Y-132907617D01*
X180682597Y-133000287D01*
X180718037Y-133072480D01*
X180781830Y-133118946D01*
X180878700Y-133134435D01*
X180980820Y-133118683D01*
X181047763Y-133071430D01*
X181084778Y-132993199D01*
X181097116Y-132884515D01*
X181097116Y-132779507D01*
X180677084Y-132779507D01*
X180671834Y-132843562D01*
X180670784Y-132907617D01*
X180448243Y-132907617D01*
X180446066Y-132878215D01*
X180448166Y-132796309D01*
X180453417Y-132701801D01*
X180462868Y-132606244D01*
X180477569Y-132521187D01*
X181760767Y-132521187D01*
X181760767Y-132779507D01*
X181321834Y-132779507D01*
X181321834Y-132871914D01*
G37*
G36*
X183772022Y-132871914D02*
G01*
X183760471Y-133027210D01*
X183725819Y-133157070D01*
X183668064Y-133261494D01*
X183584408Y-133337917D01*
X183472049Y-133383770D01*
X183330988Y-133399055D01*
X183191327Y-133383887D01*
X183080369Y-133338384D01*
X182998113Y-133262544D01*
X182941525Y-133159170D01*
X182907572Y-133031060D01*
X182898432Y-132907617D01*
X183120972Y-132907617D01*
X183132785Y-133000287D01*
X183168226Y-133072480D01*
X183232018Y-133118946D01*
X183328888Y-133134435D01*
X183431008Y-133118683D01*
X183497951Y-133071430D01*
X183534966Y-132993199D01*
X183547305Y-132884515D01*
X183547305Y-132779507D01*
X183127272Y-132779507D01*
X183122022Y-132843562D01*
X183120972Y-132907617D01*
X182898432Y-132907617D01*
X182896255Y-132878215D01*
X182898355Y-132796309D01*
X182903605Y-132701801D01*
X182913056Y-132606244D01*
X182927757Y-132521187D01*
X184210956Y-132521187D01*
X184210956Y-132779507D01*
X183772022Y-132779507D01*
X183772022Y-132871914D01*
G37*
G36*
X186222211Y-132871914D02*
G01*
X186210660Y-133027210D01*
X186176007Y-133157070D01*
X186118253Y-133261494D01*
X186034596Y-133337917D01*
X185922237Y-133383770D01*
X185781177Y-133399055D01*
X185641516Y-133383887D01*
X185530557Y-133338384D01*
X185448301Y-133262544D01*
X185391713Y-133159170D01*
X185357761Y-133031060D01*
X185348620Y-132907617D01*
X185571160Y-132907617D01*
X185582974Y-133000287D01*
X185618414Y-133072480D01*
X185682207Y-133118946D01*
X185779076Y-133134435D01*
X185881197Y-133118683D01*
X185948139Y-133071430D01*
X185985155Y-132993199D01*
X185997493Y-132884515D01*
X185997493Y-132779507D01*
X185577461Y-132779507D01*
X185572211Y-132843562D01*
X185571160Y-132907617D01*
X185348620Y-132907617D01*
X185346443Y-132878215D01*
X185348543Y-132796309D01*
X185353794Y-132701801D01*
X185363244Y-132606244D01*
X185377946Y-132521187D01*
X186661144Y-132521187D01*
X186661144Y-132779507D01*
X186222211Y-132779507D01*
X186222211Y-132871914D01*
G37*
G36*
X188672399Y-132871914D02*
G01*
X188660848Y-133027210D01*
X188626195Y-133157070D01*
X188568441Y-133261494D01*
X188484785Y-133337917D01*
X188372426Y-133383770D01*
X188231365Y-133399055D01*
X188091704Y-133383887D01*
X187980746Y-133338384D01*
X187898489Y-133262544D01*
X187841902Y-133159170D01*
X187807949Y-133031060D01*
X187798809Y-132907617D01*
X188021349Y-132907617D01*
X188033162Y-133000287D01*
X188068603Y-133072480D01*
X188132395Y-133118946D01*
X188229265Y-133134435D01*
X188331385Y-133118683D01*
X188398328Y-133071430D01*
X188435343Y-132993199D01*
X188447682Y-132884515D01*
X188447682Y-132779507D01*
X188027649Y-132779507D01*
X188022399Y-132843562D01*
X188021349Y-132907617D01*
X187798809Y-132907617D01*
X187796632Y-132878215D01*
X187798732Y-132796309D01*
X187803982Y-132701801D01*
X187813433Y-132606244D01*
X187828134Y-132521187D01*
X189111333Y-132521187D01*
X189111333Y-132779507D01*
X188672399Y-132779507D01*
X188672399Y-132871914D01*
G37*
G36*
X191122588Y-132871914D02*
G01*
X191111037Y-133027210D01*
X191076384Y-133157070D01*
X191018630Y-133261494D01*
X190934973Y-133337917D01*
X190822614Y-133383770D01*
X190681554Y-133399055D01*
X190541893Y-133383887D01*
X190430934Y-133338384D01*
X190348678Y-133262544D01*
X190292090Y-133159170D01*
X190258138Y-133031060D01*
X190248997Y-132907617D01*
X190471537Y-132907617D01*
X190483351Y-133000287D01*
X190518791Y-133072480D01*
X190582583Y-133118946D01*
X190679453Y-133134435D01*
X190781574Y-133118683D01*
X190848516Y-133071430D01*
X190885532Y-132993199D01*
X190897870Y-132884515D01*
X190897870Y-132779507D01*
X190477838Y-132779507D01*
X190472588Y-132843562D01*
X190471537Y-132907617D01*
X190248997Y-132907617D01*
X190246820Y-132878215D01*
X190248920Y-132796309D01*
X190254171Y-132701801D01*
X190263621Y-132606244D01*
X190278323Y-132521187D01*
X191561521Y-132521187D01*
X191561521Y-132779507D01*
X191122588Y-132779507D01*
X191122588Y-132871914D01*
G37*
G36*
X193572776Y-132871914D02*
G01*
X193561225Y-133027210D01*
X193526572Y-133157070D01*
X193468818Y-133261494D01*
X193385162Y-133337917D01*
X193272803Y-133383770D01*
X193131742Y-133399055D01*
X192992081Y-133383887D01*
X192881123Y-133338384D01*
X192798866Y-133262544D01*
X192742279Y-133159170D01*
X192708326Y-133031060D01*
X192699186Y-132907617D01*
X192921726Y-132907617D01*
X192933539Y-133000287D01*
X192968980Y-133072480D01*
X193032772Y-133118946D01*
X193129642Y-133134435D01*
X193231762Y-133118683D01*
X193298705Y-133071430D01*
X193335720Y-132993199D01*
X193348059Y-132884515D01*
X193348059Y-132779507D01*
X192928026Y-132779507D01*
X192922776Y-132843562D01*
X192921726Y-132907617D01*
X192699186Y-132907617D01*
X192697009Y-132878215D01*
X192699109Y-132796309D01*
X192704359Y-132701801D01*
X192713810Y-132606244D01*
X192728511Y-132521187D01*
X194011710Y-132521187D01*
X194011710Y-132779507D01*
X193572776Y-132779507D01*
X193572776Y-132871914D01*
G37*
G36*
X173433627Y-134726357D02*
G01*
X173334919Y-134858667D01*
X173305517Y-134986777D01*
X173348570Y-135108586D01*
X173471430Y-135156890D01*
X173582738Y-135118037D01*
X173696147Y-135019330D01*
X173756264Y-134957375D01*
X173819006Y-134891220D01*
X173885687Y-134825065D01*
X173957617Y-134763110D01*
X174035586Y-134708506D01*
X174120380Y-134664402D01*
X174212787Y-134635263D01*
X174313595Y-134625549D01*
X174357698Y-134624499D01*
X174410202Y-134629750D01*
X174410202Y-135478215D01*
X174195985Y-135478215D01*
X174195985Y-134919572D01*
X174126680Y-134941624D01*
X174052124Y-134995178D01*
X173980719Y-135062383D01*
X173920864Y-135125388D01*
X173815856Y-135232496D01*
X173702447Y-135327003D01*
X173581688Y-135394208D01*
X173452528Y-135419410D01*
X173289766Y-135385808D01*
X173173207Y-135295501D01*
X173103901Y-135165291D01*
X173080800Y-135011979D01*
X173091300Y-134902508D01*
X173122803Y-134792512D01*
X173176357Y-134688817D01*
X173253013Y-134598247D01*
X173433627Y-134726357D01*
G37*
G36*
X183910633Y-134150913D02*
G01*
X184210956Y-134211817D01*
X184210956Y-134489039D01*
X184063567Y-134454386D01*
X183920461Y-134419313D01*
X183781641Y-134383821D01*
X183647104Y-134347908D01*
X183516852Y-134311575D01*
X183358881Y-134265831D01*
X183205241Y-134219956D01*
X183055933Y-134173949D01*
X182910956Y-134127811D01*
X182910956Y-133980800D01*
X183162975Y-133980800D01*
X183302636Y-134019653D01*
X183432846Y-134053255D01*
X183562006Y-134081607D01*
X183696416Y-134106809D01*
X183696416Y-133852690D01*
X183562006Y-133878942D01*
X183432846Y-133908344D01*
X183302636Y-133941947D01*
X183162975Y-133980800D01*
X182910956Y-133980800D01*
X182910956Y-133846389D01*
X183054751Y-133801892D01*
X183202616Y-133756607D01*
X183354549Y-133710535D01*
X183510552Y-133663675D01*
X183639712Y-133625956D01*
X183774332Y-133588405D01*
X183914413Y-133551023D01*
X184059954Y-133513808D01*
X184210956Y-133476761D01*
X184210956Y-133745582D01*
X183910633Y-133804386D01*
X183910633Y-133852690D01*
X183910633Y-134150913D01*
G37*
G36*
X186360821Y-134150913D02*
G01*
X186661144Y-134211817D01*
X186661144Y-134489039D01*
X186513755Y-134454386D01*
X186370650Y-134419313D01*
X186231829Y-134383821D01*
X186097293Y-134347908D01*
X185967041Y-134311575D01*
X185809069Y-134265831D01*
X185655429Y-134219956D01*
X185506121Y-134173949D01*
X185361144Y-134127811D01*
X185361144Y-133980800D01*
X185613164Y-133980800D01*
X185752824Y-134019653D01*
X185883034Y-134053255D01*
X186012194Y-134081607D01*
X186146605Y-134106809D01*
X186146605Y-133852690D01*
X186012194Y-133878942D01*
X185883034Y-133908344D01*
X185752824Y-133941947D01*
X185613164Y-133980800D01*
X185361144Y-133980800D01*
X185361144Y-133846389D01*
X185504940Y-133801892D01*
X185652804Y-133756607D01*
X185804738Y-133710535D01*
X185960740Y-133663675D01*
X186089900Y-133625956D01*
X186224521Y-133588405D01*
X186364602Y-133551023D01*
X186510143Y-133513808D01*
X186661144Y-133476761D01*
X186661144Y-133745582D01*
X186360821Y-133804386D01*
X186360821Y-133852690D01*
X186360821Y-134150913D01*
G37*
G36*
X181768380Y-133975287D02*
G01*
X181740816Y-134091058D01*
X181693300Y-134193704D01*
X181624257Y-134281123D01*
X181532637Y-134352266D01*
X181417391Y-134406082D01*
X181276943Y-134439947D01*
X181109717Y-134451236D01*
X180946167Y-134440998D01*
X180808344Y-134410283D01*
X180694410Y-134361191D01*
X180602528Y-134295824D01*
X180532435Y-134214180D01*
X180483869Y-134116260D01*
X180455517Y-134004689D01*
X180447847Y-133905194D01*
X180670784Y-133905194D01*
X180707536Y-134045905D01*
X180805194Y-134132011D01*
X180945905Y-134176115D01*
X181109717Y-134188716D01*
X181202387Y-134184778D01*
X181287181Y-134172964D01*
X181426842Y-134120460D01*
X181519249Y-134023853D01*
X181552851Y-133875792D01*
X181552851Y-133852690D01*
X181550751Y-133829588D01*
X180677084Y-133829588D01*
X180671834Y-133867391D01*
X180670784Y-133905194D01*
X180447847Y-133905194D01*
X180446066Y-133882092D01*
X180452367Y-133737181D01*
X180477569Y-133571268D01*
X181746066Y-133571268D01*
X181770218Y-133713029D01*
X181777569Y-133848489D01*
X181777264Y-133852690D01*
X181768380Y-133975287D01*
G37*
G36*
X186644343Y-134641300D02*
G01*
X186666395Y-134728457D01*
X186682146Y-134829265D01*
X186688446Y-134932173D01*
X186680571Y-135052407D01*
X186656944Y-135156890D01*
X186619141Y-135245622D01*
X186568737Y-135318603D01*
X186435377Y-135415210D01*
X186268414Y-135446712D01*
X186146605Y-135432478D01*
X186044397Y-135389775D01*
X185961791Y-135318603D01*
X185899252Y-135218495D01*
X185857249Y-135088985D01*
X185835781Y-134930073D01*
X185716072Y-134940574D01*
X185575361Y-134951074D01*
X185575361Y-135398409D01*
X185361144Y-135398409D01*
X185361144Y-134734758D01*
X185521544Y-134726882D01*
X185687719Y-134715856D01*
X185858620Y-134701155D01*
X186033196Y-134682254D01*
X186037659Y-134826640D01*
X186051047Y-134940574D01*
X186101451Y-135092835D01*
X186179157Y-135164241D01*
X186278915Y-135182092D01*
X186348220Y-135171591D01*
X186408075Y-135132738D01*
X186451128Y-135055032D01*
X186467929Y-134930073D01*
X186463204Y-134831890D01*
X186449028Y-134751559D01*
X186407025Y-134633950D01*
X186621241Y-134581446D01*
X186644343Y-134641300D01*
G37*
G36*
X189118946Y-133975287D02*
G01*
X189091381Y-134091058D01*
X189043865Y-134193704D01*
X188974822Y-134281123D01*
X188883203Y-134352266D01*
X188767956Y-134406082D01*
X188627508Y-134439947D01*
X188460283Y-134451236D01*
X188296733Y-134440998D01*
X188158910Y-134410283D01*
X188044976Y-134361191D01*
X187953094Y-134295824D01*
X187883001Y-134214180D01*
X187834435Y-134116260D01*
X187806082Y-134004689D01*
X187798413Y-133905194D01*
X188021349Y-133905194D01*
X188058102Y-134045905D01*
X188155759Y-134132011D01*
X188296470Y-134176115D01*
X188460283Y-134188716D01*
X188552952Y-134184778D01*
X188637746Y-134172964D01*
X188777407Y-134120460D01*
X188869814Y-134023853D01*
X188903417Y-133875792D01*
X188903417Y-133852690D01*
X188901317Y-133829588D01*
X188027649Y-133829588D01*
X188022399Y-133867391D01*
X188021349Y-133905194D01*
X187798413Y-133905194D01*
X187796632Y-133882092D01*
X187802932Y-133737181D01*
X187828134Y-133571268D01*
X189096632Y-133571268D01*
X189120784Y-133713029D01*
X189128134Y-133848489D01*
X189127830Y-133852690D01*
X189118946Y-133975287D01*
G37*
G36*
X191569134Y-133975287D02*
G01*
X191541570Y-134091058D01*
X191494054Y-134193704D01*
X191425011Y-134281123D01*
X191333391Y-134352266D01*
X191218145Y-134406082D01*
X191077697Y-134439947D01*
X190910471Y-134451236D01*
X190746921Y-134440998D01*
X190609098Y-134410283D01*
X190495164Y-134361191D01*
X190403282Y-134295824D01*
X190333189Y-134214180D01*
X190284623Y-134116260D01*
X190256271Y-134004689D01*
X190248601Y-133905194D01*
X190471537Y-133905194D01*
X190508290Y-134045905D01*
X190605948Y-134132011D01*
X190746659Y-134176115D01*
X190910471Y-134188716D01*
X191003141Y-134184778D01*
X191087935Y-134172964D01*
X191227596Y-134120460D01*
X191320003Y-134023853D01*
X191353605Y-133875792D01*
X191353605Y-133852690D01*
X191351505Y-133829588D01*
X190477838Y-133829588D01*
X190472588Y-133867391D01*
X190471537Y-133905194D01*
X190248601Y-133905194D01*
X190246820Y-133882092D01*
X190253121Y-133737181D01*
X190278323Y-133571268D01*
X191546820Y-133571268D01*
X191570972Y-133713029D01*
X191578323Y-133848489D01*
X191578018Y-133852690D01*
X191569134Y-133975287D01*
G37*
G36*
X194019323Y-133975287D02*
G01*
X193991758Y-134091058D01*
X193944242Y-134193704D01*
X193875199Y-134281123D01*
X193783580Y-134352266D01*
X193668333Y-134406082D01*
X193527885Y-134439947D01*
X193360660Y-134451236D01*
X193197110Y-134440998D01*
X193059286Y-134410283D01*
X192945353Y-134361191D01*
X192853471Y-134295824D01*
X192783378Y-134214180D01*
X192734812Y-134116260D01*
X192706459Y-134004689D01*
X192698790Y-133905194D01*
X192921726Y-133905194D01*
X192958479Y-134045905D01*
X193056136Y-134132011D01*
X193196847Y-134176115D01*
X193360660Y-134188716D01*
X193453329Y-134184778D01*
X193538123Y-134172964D01*
X193677784Y-134120460D01*
X193770191Y-134023853D01*
X193803794Y-133875792D01*
X193803794Y-133852690D01*
X193801694Y-133829588D01*
X192928026Y-133829588D01*
X192922776Y-133867391D01*
X192921726Y-133905194D01*
X192698790Y-133905194D01*
X192697009Y-133882092D01*
X192703309Y-133737181D01*
X192728511Y-133571268D01*
X193997009Y-133571268D01*
X194021160Y-133713029D01*
X194028511Y-133848489D01*
X194028207Y-133852690D01*
X194019323Y-133975287D01*
G37*
G36*
X196469511Y-135025368D02*
G01*
X196441947Y-135141139D01*
X196394431Y-135243784D01*
X196325388Y-135331204D01*
X196233768Y-135402347D01*
X196118522Y-135456163D01*
X195978074Y-135490028D01*
X195810848Y-135501317D01*
X195647298Y-135491078D01*
X195509475Y-135460363D01*
X195395541Y-135411272D01*
X195303659Y-135345905D01*
X195233566Y-135264261D01*
X195185000Y-135166341D01*
X195156648Y-135054770D01*
X195148978Y-134955275D01*
X195371914Y-134955275D01*
X195408667Y-135095985D01*
X195506325Y-135182092D01*
X195647036Y-135226195D01*
X195810848Y-135238796D01*
X195903518Y-135234859D01*
X195988312Y-135223045D01*
X196127973Y-135170541D01*
X196220380Y-135073934D01*
X196253982Y-134925872D01*
X196253982Y-134902771D01*
X196251882Y-134879669D01*
X195378215Y-134879669D01*
X195372964Y-134917472D01*
X195371914Y-134955275D01*
X195148978Y-134955275D01*
X195147197Y-134932173D01*
X195153498Y-134787262D01*
X195178700Y-134621349D01*
X196447197Y-134621349D01*
X196471349Y-134763110D01*
X196478700Y-134898570D01*
X196478395Y-134902771D01*
X196469511Y-135025368D01*
G37*
G36*
X195968623Y-132473934D02*
G01*
X196105921Y-132502286D01*
X196222480Y-132547964D01*
X196318037Y-132609394D01*
X196392593Y-132685788D01*
X196446147Y-132776357D01*
X196478437Y-132880053D01*
X196489200Y-132995824D01*
X196483950Y-133124196D01*
X196468199Y-133232092D01*
X196430396Y-133375953D01*
X195781446Y-133375953D01*
X195781446Y-133117633D01*
X196256082Y-133117633D01*
X196262383Y-133067229D01*
X196264483Y-133016826D01*
X196236918Y-132891341D01*
X196154225Y-132800509D01*
X196067068Y-132759672D01*
X195952609Y-132735171D01*
X195810848Y-132727003D01*
X195714503Y-132731466D01*
X195627084Y-132744855D01*
X195484273Y-132803659D01*
X195390816Y-132907617D01*
X195357213Y-133063029D01*
X195380315Y-133201640D01*
X195432819Y-133315048D01*
X195227003Y-133382254D01*
X195201801Y-133339200D01*
X195170299Y-133266745D01*
X195144047Y-133162787D01*
X195132496Y-133027326D01*
X195143259Y-132913393D01*
X195175549Y-132806809D01*
X195229366Y-132710727D01*
X195304709Y-132628296D01*
X195401054Y-132560565D01*
X195517876Y-132508586D01*
X195654649Y-132475509D01*
X195810848Y-132464483D01*
X195968623Y-132473934D01*
G37*
G36*
X176839389Y-134659152D02*
G01*
X176862491Y-134750509D01*
X176880342Y-134853417D01*
X176887693Y-134955275D01*
X176880079Y-135076559D01*
X176857240Y-135179992D01*
X176820487Y-135266099D01*
X176771134Y-135335404D01*
X176639873Y-135425711D01*
X176473961Y-135455113D01*
X176368428Y-135441200D01*
X176278646Y-135399459D01*
X176206715Y-135332516D01*
X176154736Y-135242997D01*
X176045528Y-135360606D01*
X175896416Y-135404709D01*
X175751505Y-135379507D01*
X175634946Y-135301801D01*
X175558290Y-135168441D01*
X175537814Y-135080497D01*
X175530988Y-134978376D01*
X175540701Y-134866805D01*
X175569841Y-134767310D01*
X175646497Y-134617149D01*
X175835512Y-134709556D01*
X175775657Y-134834515D01*
X175751505Y-134980477D01*
X175792458Y-135099136D01*
X175904817Y-135142189D01*
X175984623Y-135122237D01*
X176035027Y-135070784D01*
X176062329Y-134999378D01*
X176070730Y-134919572D01*
X176070730Y-134822964D01*
X176284946Y-134822964D01*
X176284946Y-134902771D01*
X176295184Y-135017754D01*
X176325899Y-135110687D01*
X176382341Y-135172116D01*
X176469760Y-135192593D01*
X176610471Y-135139039D01*
X176652999Y-135065796D01*
X176667176Y-134953174D01*
X176661400Y-134853679D01*
X176644074Y-134769410D01*
X176599970Y-134644451D01*
X176816287Y-134594047D01*
X176839389Y-134659152D01*
G37*
G36*
X191540520Y-134659152D02*
G01*
X191563621Y-134750509D01*
X191581473Y-134853417D01*
X191588823Y-134955275D01*
X191581210Y-135076559D01*
X191558371Y-135179992D01*
X191521618Y-135266099D01*
X191472264Y-135335404D01*
X191341004Y-135425711D01*
X191175092Y-135455113D01*
X191069558Y-135441200D01*
X190979777Y-135399459D01*
X190907846Y-135332516D01*
X190855867Y-135242997D01*
X190746659Y-135360606D01*
X190597547Y-135404709D01*
X190452636Y-135379507D01*
X190336077Y-135301801D01*
X190259421Y-135168441D01*
X190238945Y-135080497D01*
X190232119Y-134978376D01*
X190241832Y-134866805D01*
X190270972Y-134767310D01*
X190347628Y-134617149D01*
X190536642Y-134709556D01*
X190476788Y-134834515D01*
X190452636Y-134980477D01*
X190493589Y-135099136D01*
X190605948Y-135142189D01*
X190685754Y-135122237D01*
X190736158Y-135070784D01*
X190763460Y-134999378D01*
X190771861Y-134919572D01*
X190771861Y-134822964D01*
X190986077Y-134822964D01*
X190986077Y-134902771D01*
X190996315Y-135017754D01*
X191027030Y-135110687D01*
X191083472Y-135172116D01*
X191170891Y-135192593D01*
X191311602Y-135139039D01*
X191354130Y-135065796D01*
X191368306Y-134953174D01*
X191362531Y-134853679D01*
X191345205Y-134769410D01*
X191301101Y-134644451D01*
X191517418Y-134594047D01*
X191540520Y-134659152D01*
G37*
G36*
X178798139Y-135169491D02*
G01*
X178929137Y-135095460D01*
X179019707Y-134982577D01*
X179072998Y-134841341D01*
X179092162Y-134682254D01*
X179314779Y-134690654D01*
X179301916Y-134858930D01*
X179263325Y-135010929D01*
X179200058Y-135144289D01*
X179113164Y-135256648D01*
X179002643Y-135346692D01*
X178868495Y-135413110D01*
X178711770Y-135454063D01*
X178533519Y-135467714D01*
X178371340Y-135454880D01*
X178234829Y-135416377D01*
X178123988Y-135352205D01*
X178042315Y-135263765D01*
X177993311Y-135152456D01*
X177977743Y-135024580D01*
X178197493Y-135024580D01*
X178224795Y-135115937D01*
X178296201Y-135174742D01*
X178393858Y-135206244D01*
X178499917Y-135215695D01*
X178547170Y-135214645D01*
X178588123Y-135211494D01*
X178611225Y-135140089D01*
X178619626Y-135056082D01*
X178606500Y-134962625D01*
X178567122Y-134900670D01*
X178415910Y-134854467D01*
X178331904Y-134863918D01*
X178262598Y-134893320D01*
X178215345Y-134945824D01*
X178197493Y-135024580D01*
X177977743Y-135024580D01*
X177976976Y-135018279D01*
X177987215Y-134920097D01*
X178017929Y-134835565D01*
X178122938Y-134706405D01*
X178265749Y-134628700D01*
X178420110Y-134602447D01*
X178580773Y-134625549D01*
X178712033Y-134699055D01*
X178801290Y-134829265D01*
X178825704Y-134917472D01*
X178833842Y-135022480D01*
X178825682Y-135056082D01*
X178798139Y-135169491D01*
G37*
G36*
X189138635Y-135051882D02*
G01*
X189128397Y-135151640D01*
X189097682Y-135236696D01*
X188991624Y-135364806D01*
X188848813Y-135439362D01*
X188695501Y-135463514D01*
X188535889Y-135441462D01*
X188403578Y-135369006D01*
X188313271Y-135239847D01*
X188288069Y-135152427D01*
X188279669Y-135047682D01*
X188284395Y-135014079D01*
X188493885Y-135014079D01*
X188507274Y-135107011D01*
X188547439Y-135167391D01*
X188699701Y-135211494D01*
X188773207Y-135202044D01*
X188842512Y-135172641D01*
X188895016Y-135121187D01*
X188916018Y-135045582D01*
X188889766Y-134954225D01*
X188819410Y-134896470D01*
X188719653Y-134867068D01*
X188603094Y-134858667D01*
X188563191Y-134859717D01*
X188525388Y-134862868D01*
X188502286Y-134932173D01*
X188493885Y-135014079D01*
X188284395Y-135014079D01*
X188289120Y-134980477D01*
X188315372Y-134902771D01*
X188178861Y-134975226D01*
X188089604Y-135091785D01*
X188040250Y-135238796D01*
X188023449Y-135402609D01*
X187802932Y-135387908D01*
X187815533Y-135219370D01*
X187853336Y-135066583D01*
X187915816Y-134932173D01*
X188002447Y-134818764D01*
X188112706Y-134727670D01*
X188246066Y-134660202D01*
X188402003Y-134618461D01*
X188579992Y-134604548D01*
X188754889Y-134617265D01*
X188895950Y-134655418D01*
X189003174Y-134719006D01*
X189078430Y-134806863D01*
X189123584Y-134917822D01*
X189137928Y-135045582D01*
X189138635Y-135051882D01*
G37*
%TO.C,kibuzzard-675489F8*%
G36*
X196462948Y-145206102D02*
G01*
X196248732Y-145206102D01*
X196248732Y-144649559D01*
X195162948Y-144649559D01*
X195162948Y-144389139D01*
X196462948Y-144389139D01*
X196462948Y-145206102D01*
G37*
G36*
X173325468Y-145684939D02*
G01*
X174411252Y-145684939D01*
X174411252Y-145945359D01*
X173325468Y-145945359D01*
X173325468Y-146287685D01*
X173111252Y-146287685D01*
X173111252Y-145342612D01*
X173325468Y-145342612D01*
X173325468Y-145684939D01*
G37*
G36*
X175775657Y-145684939D02*
G01*
X176861440Y-145684939D01*
X176861440Y-145945359D01*
X175775657Y-145945359D01*
X175775657Y-146287685D01*
X175561440Y-146287685D01*
X175561440Y-145342612D01*
X175775657Y-145342612D01*
X175775657Y-145684939D01*
G37*
G36*
X178225845Y-145684939D02*
G01*
X179311629Y-145684939D01*
X179311629Y-145945359D01*
X178225845Y-145945359D01*
X178225845Y-146287685D01*
X178011629Y-146287685D01*
X178011629Y-145342612D01*
X178225845Y-145342612D01*
X178225845Y-145684939D01*
G37*
G36*
X180676034Y-145684939D02*
G01*
X181761817Y-145684939D01*
X181761817Y-145945359D01*
X180676034Y-145945359D01*
X180676034Y-146287685D01*
X180461817Y-146287685D01*
X180461817Y-145342612D01*
X180676034Y-145342612D01*
X180676034Y-145684939D01*
G37*
G36*
X183126222Y-145684939D02*
G01*
X184212006Y-145684939D01*
X184212006Y-145945359D01*
X183126222Y-145945359D01*
X183126222Y-146287685D01*
X182912006Y-146287685D01*
X182912006Y-145342612D01*
X183126222Y-145342612D01*
X183126222Y-145684939D01*
G37*
G36*
X185576411Y-145684939D02*
G01*
X186662194Y-145684939D01*
X186662194Y-145945359D01*
X185576411Y-145945359D01*
X185576411Y-146287685D01*
X185362194Y-146287685D01*
X185362194Y-145342612D01*
X185576411Y-145342612D01*
X185576411Y-145684939D01*
G37*
G36*
X188026599Y-145684939D02*
G01*
X189112383Y-145684939D01*
X189112383Y-145945359D01*
X188026599Y-145945359D01*
X188026599Y-146287685D01*
X187812383Y-146287685D01*
X187812383Y-145342612D01*
X188026599Y-145342612D01*
X188026599Y-145684939D01*
G37*
G36*
X190476788Y-145684939D02*
G01*
X191562571Y-145684939D01*
X191562571Y-145945359D01*
X190476788Y-145945359D01*
X190476788Y-146287685D01*
X190262571Y-146287685D01*
X190262571Y-145342612D01*
X190476788Y-145342612D01*
X190476788Y-145684939D01*
G37*
G36*
X174411252Y-143542774D02*
G01*
X173837908Y-143542774D01*
X173837908Y-143887200D01*
X174411252Y-143887200D01*
X174411252Y-144145520D01*
X173111252Y-144145520D01*
X173111252Y-143887200D01*
X173623691Y-143887200D01*
X173623691Y-143542774D01*
X173111252Y-143542774D01*
X173111252Y-143284454D01*
X174411252Y-143284454D01*
X174411252Y-143542774D01*
G37*
G36*
X176861440Y-143542774D02*
G01*
X176288096Y-143542774D01*
X176288096Y-143887200D01*
X176861440Y-143887200D01*
X176861440Y-144145520D01*
X175561440Y-144145520D01*
X175561440Y-143887200D01*
X176073880Y-143887200D01*
X176073880Y-143542774D01*
X175561440Y-143542774D01*
X175561440Y-143284454D01*
X176861440Y-143284454D01*
X176861440Y-143542774D01*
G37*
G36*
X179311629Y-143542774D02*
G01*
X178738285Y-143542774D01*
X178738285Y-143887200D01*
X179311629Y-143887200D01*
X179311629Y-144145520D01*
X178011629Y-144145520D01*
X178011629Y-143887200D01*
X178524068Y-143887200D01*
X178524068Y-143542774D01*
X178011629Y-143542774D01*
X178011629Y-143284454D01*
X179311629Y-143284454D01*
X179311629Y-143542774D01*
G37*
G36*
X181761817Y-143542774D02*
G01*
X181188473Y-143542774D01*
X181188473Y-143887200D01*
X181761817Y-143887200D01*
X181761817Y-144145520D01*
X180461817Y-144145520D01*
X180461817Y-143887200D01*
X180974257Y-143887200D01*
X180974257Y-143542774D01*
X180461817Y-143542774D01*
X180461817Y-143284454D01*
X181761817Y-143284454D01*
X181761817Y-143542774D01*
G37*
G36*
X184212006Y-143542774D02*
G01*
X183638662Y-143542774D01*
X183638662Y-143887200D01*
X184212006Y-143887200D01*
X184212006Y-144145520D01*
X182912006Y-144145520D01*
X182912006Y-143887200D01*
X183424445Y-143887200D01*
X183424445Y-143542774D01*
X182912006Y-143542774D01*
X182912006Y-143284454D01*
X184212006Y-143284454D01*
X184212006Y-143542774D01*
G37*
G36*
X186662194Y-143542774D02*
G01*
X186088850Y-143542774D01*
X186088850Y-143887200D01*
X186662194Y-143887200D01*
X186662194Y-144145520D01*
X185362194Y-144145520D01*
X185362194Y-143887200D01*
X185874634Y-143887200D01*
X185874634Y-143542774D01*
X185362194Y-143542774D01*
X185362194Y-143284454D01*
X186662194Y-143284454D01*
X186662194Y-143542774D01*
G37*
G36*
X189112383Y-143542774D02*
G01*
X188539039Y-143542774D01*
X188539039Y-143887200D01*
X189112383Y-143887200D01*
X189112383Y-144145520D01*
X187812383Y-144145520D01*
X187812383Y-143887200D01*
X188324822Y-143887200D01*
X188324822Y-143542774D01*
X187812383Y-143542774D01*
X187812383Y-143284454D01*
X189112383Y-143284454D01*
X189112383Y-143542774D01*
G37*
G36*
X191562571Y-143542774D02*
G01*
X190989227Y-143542774D01*
X190989227Y-143887200D01*
X191562571Y-143887200D01*
X191562571Y-144145520D01*
X190262571Y-144145520D01*
X190262571Y-143887200D01*
X190775011Y-143887200D01*
X190775011Y-143542774D01*
X190262571Y-143542774D01*
X190262571Y-143284454D01*
X191562571Y-143284454D01*
X191562571Y-143542774D01*
G37*
G36*
X190747709Y-146525003D02*
G01*
X190696255Y-146653113D01*
X190621699Y-146787523D01*
X191348355Y-146787523D01*
X191348355Y-146514502D01*
X191562571Y-146514502D01*
X191562571Y-147304163D01*
X191348355Y-147304163D01*
X191348355Y-147045843D01*
X190262571Y-147045843D01*
X190262571Y-146869430D01*
X190344478Y-146779123D01*
X190420083Y-146667814D01*
X190485188Y-146550205D01*
X190533492Y-146440997D01*
X190747709Y-146525003D01*
G37*
G36*
X175775657Y-146989139D02*
G01*
X175879352Y-146930859D01*
X176001424Y-146869430D01*
X176136622Y-146808787D01*
X176279696Y-146752871D01*
X176427495Y-146703254D01*
X176576869Y-146661514D01*
X176723092Y-146631586D01*
X176861440Y-146617410D01*
X176861440Y-146879930D01*
X176693165Y-146899094D01*
X176524365Y-146935585D01*
X176360289Y-146984414D01*
X176206190Y-147040593D01*
X176064954Y-147102285D01*
X175939470Y-147167653D01*
X175834987Y-147232233D01*
X175756756Y-147291562D01*
X175561440Y-147291562D01*
X175561440Y-146443097D01*
X175775657Y-146443097D01*
X175775657Y-146989139D01*
G37*
G36*
X183905382Y-146938735D02*
G01*
X184212006Y-146938735D01*
X184212006Y-147197055D01*
X183905382Y-147197055D01*
X183905382Y-147337766D01*
X183693266Y-147337766D01*
X183693266Y-147197055D01*
X182912006Y-147197055D01*
X182912006Y-146966037D01*
X182941100Y-146938735D01*
X183235431Y-146938735D01*
X183693266Y-146938735D01*
X183693266Y-146644712D01*
X183573557Y-146707717D01*
X183452798Y-146782273D01*
X183338339Y-146861029D01*
X183235431Y-146938735D01*
X182941100Y-146938735D01*
X183001525Y-146882031D01*
X183102071Y-146798024D01*
X183208916Y-146716118D01*
X183317337Y-146638412D01*
X183425233Y-146565956D01*
X183530504Y-146499801D01*
X183628949Y-146442572D01*
X183716368Y-146396893D01*
X183905382Y-146396893D01*
X183905382Y-146644712D01*
X183905382Y-146938735D01*
G37*
G36*
X174048974Y-144327184D02*
G01*
X174146632Y-144342935D01*
X174232213Y-144371287D01*
X174304144Y-144414341D01*
X174403901Y-144549801D01*
X174429891Y-144645096D01*
X174438554Y-144760867D01*
X174429891Y-144878477D01*
X174403901Y-144975084D01*
X174361636Y-145052790D01*
X174304144Y-145113695D01*
X174232213Y-145158323D01*
X174146632Y-145187200D01*
X174048974Y-145202951D01*
X173940816Y-145208202D01*
X173111252Y-145208202D01*
X173111252Y-144949882D01*
X173921914Y-144949882D01*
X174059475Y-144941481D01*
X174149782Y-144912079D01*
X174199136Y-144855375D01*
X174213837Y-144765068D01*
X174199136Y-144674761D01*
X174150832Y-144619107D01*
X174061575Y-144590754D01*
X173924015Y-144582354D01*
X173111252Y-144582354D01*
X173111252Y-144321934D01*
X173940816Y-144321934D01*
X174048974Y-144327184D01*
G37*
G36*
X176499163Y-144327184D02*
G01*
X176596820Y-144342935D01*
X176682402Y-144371287D01*
X176754332Y-144414341D01*
X176854090Y-144549801D01*
X176880079Y-144645096D01*
X176888743Y-144760867D01*
X176880079Y-144878477D01*
X176854090Y-144975084D01*
X176811824Y-145052790D01*
X176754332Y-145113695D01*
X176682402Y-145158323D01*
X176596820Y-145187200D01*
X176499163Y-145202951D01*
X176391004Y-145208202D01*
X175561440Y-145208202D01*
X175561440Y-144949882D01*
X176372103Y-144949882D01*
X176509663Y-144941481D01*
X176599970Y-144912079D01*
X176649324Y-144855375D01*
X176664025Y-144765068D01*
X176649324Y-144674761D01*
X176601020Y-144619107D01*
X176511764Y-144590754D01*
X176374203Y-144582354D01*
X175561440Y-144582354D01*
X175561440Y-144321934D01*
X176391004Y-144321934D01*
X176499163Y-144327184D01*
G37*
G36*
X178949351Y-144327184D02*
G01*
X179047009Y-144342935D01*
X179132590Y-144371287D01*
X179204521Y-144414341D01*
X179304278Y-144549801D01*
X179330268Y-144645096D01*
X179338931Y-144760867D01*
X179330268Y-144878477D01*
X179304278Y-144975084D01*
X179262013Y-145052790D01*
X179204521Y-145113695D01*
X179132590Y-145158323D01*
X179047009Y-145187200D01*
X178949351Y-145202951D01*
X178841193Y-145208202D01*
X178011629Y-145208202D01*
X178011629Y-144949882D01*
X178822291Y-144949882D01*
X178959852Y-144941481D01*
X179050159Y-144912079D01*
X179099513Y-144855375D01*
X179114214Y-144765068D01*
X179099513Y-144674761D01*
X179051209Y-144619107D01*
X178961952Y-144590754D01*
X178824391Y-144582354D01*
X178011629Y-144582354D01*
X178011629Y-144321934D01*
X178841193Y-144321934D01*
X178949351Y-144327184D01*
G37*
G36*
X181399540Y-144327184D02*
G01*
X181497197Y-144342935D01*
X181582779Y-144371287D01*
X181654709Y-144414341D01*
X181754467Y-144549801D01*
X181780456Y-144645096D01*
X181789120Y-144760867D01*
X181780456Y-144878477D01*
X181754467Y-144975084D01*
X181712201Y-145052790D01*
X181654709Y-145113695D01*
X181582779Y-145158323D01*
X181497197Y-145187200D01*
X181399540Y-145202951D01*
X181291381Y-145208202D01*
X180461817Y-145208202D01*
X180461817Y-144949882D01*
X181272480Y-144949882D01*
X181410040Y-144941481D01*
X181500347Y-144912079D01*
X181549701Y-144855375D01*
X181564402Y-144765068D01*
X181549701Y-144674761D01*
X181501397Y-144619107D01*
X181412141Y-144590754D01*
X181274580Y-144582354D01*
X180461817Y-144582354D01*
X180461817Y-144321934D01*
X181291381Y-144321934D01*
X181399540Y-144327184D01*
G37*
G36*
X183849728Y-144327184D02*
G01*
X183947386Y-144342935D01*
X184032967Y-144371287D01*
X184104898Y-144414341D01*
X184204655Y-144549801D01*
X184230645Y-144645096D01*
X184239308Y-144760867D01*
X184230645Y-144878477D01*
X184204655Y-144975084D01*
X184162390Y-145052790D01*
X184104898Y-145113695D01*
X184032967Y-145158323D01*
X183947386Y-145187200D01*
X183849728Y-145202951D01*
X183741570Y-145208202D01*
X182912006Y-145208202D01*
X182912006Y-144949882D01*
X183722668Y-144949882D01*
X183860229Y-144941481D01*
X183950536Y-144912079D01*
X183999890Y-144855375D01*
X184014591Y-144765068D01*
X183999890Y-144674761D01*
X183951586Y-144619107D01*
X183862329Y-144590754D01*
X183724768Y-144582354D01*
X182912006Y-144582354D01*
X182912006Y-144321934D01*
X183741570Y-144321934D01*
X183849728Y-144327184D01*
G37*
G36*
X186299917Y-144327184D02*
G01*
X186397574Y-144342935D01*
X186483156Y-144371287D01*
X186555086Y-144414341D01*
X186654844Y-144549801D01*
X186680833Y-144645096D01*
X186689496Y-144760867D01*
X186680833Y-144878477D01*
X186654844Y-144975084D01*
X186612578Y-145052790D01*
X186555086Y-145113695D01*
X186483156Y-145158323D01*
X186397574Y-145187200D01*
X186299917Y-145202951D01*
X186191758Y-145208202D01*
X185362194Y-145208202D01*
X185362194Y-144949882D01*
X186172857Y-144949882D01*
X186310417Y-144941481D01*
X186400724Y-144912079D01*
X186450078Y-144855375D01*
X186464779Y-144765068D01*
X186450078Y-144674761D01*
X186401774Y-144619107D01*
X186312518Y-144590754D01*
X186174957Y-144582354D01*
X185362194Y-144582354D01*
X185362194Y-144321934D01*
X186191758Y-144321934D01*
X186299917Y-144327184D01*
G37*
G36*
X188750105Y-144327184D02*
G01*
X188847763Y-144342935D01*
X188933344Y-144371287D01*
X189005275Y-144414341D01*
X189105032Y-144549801D01*
X189131022Y-144645096D01*
X189139685Y-144760867D01*
X189131022Y-144878477D01*
X189105032Y-144975084D01*
X189062767Y-145052790D01*
X189005275Y-145113695D01*
X188933344Y-145158323D01*
X188847763Y-145187200D01*
X188750105Y-145202951D01*
X188641947Y-145208202D01*
X187812383Y-145208202D01*
X187812383Y-144949882D01*
X188623045Y-144949882D01*
X188760606Y-144941481D01*
X188850913Y-144912079D01*
X188900267Y-144855375D01*
X188914968Y-144765068D01*
X188900267Y-144674761D01*
X188851963Y-144619107D01*
X188762706Y-144590754D01*
X188625145Y-144582354D01*
X187812383Y-144582354D01*
X187812383Y-144321934D01*
X188641947Y-144321934D01*
X188750105Y-144327184D01*
G37*
G36*
X191200293Y-144327184D02*
G01*
X191297951Y-144342935D01*
X191383533Y-144371287D01*
X191455463Y-144414341D01*
X191555221Y-144549801D01*
X191581210Y-144645096D01*
X191589873Y-144760867D01*
X191581210Y-144878477D01*
X191555221Y-144975084D01*
X191512955Y-145052790D01*
X191455463Y-145113695D01*
X191383533Y-145158323D01*
X191297951Y-145187200D01*
X191200293Y-145202951D01*
X191092135Y-145208202D01*
X190262571Y-145208202D01*
X190262571Y-144949882D01*
X191073234Y-144949882D01*
X191210794Y-144941481D01*
X191301101Y-144912079D01*
X191350455Y-144855375D01*
X191365156Y-144765068D01*
X191350455Y-144674761D01*
X191302151Y-144619107D01*
X191212894Y-144590754D01*
X191075334Y-144582354D01*
X190262571Y-144582354D01*
X190262571Y-144321934D01*
X191092135Y-144321934D01*
X191200293Y-144327184D01*
G37*
G36*
X188135808Y-146558606D02*
G01*
X188037100Y-146690916D01*
X188007698Y-146819026D01*
X188050751Y-146940835D01*
X188173611Y-146989139D01*
X188284919Y-146950286D01*
X188398328Y-146851578D01*
X188458445Y-146789624D01*
X188521187Y-146723468D01*
X188587868Y-146657313D01*
X188659798Y-146595359D01*
X188737767Y-146540754D01*
X188822561Y-146496651D01*
X188914968Y-146467511D01*
X189015775Y-146457798D01*
X189059879Y-146456748D01*
X189112383Y-146461998D01*
X189112383Y-147310464D01*
X188898166Y-147310464D01*
X188898166Y-146751821D01*
X188828861Y-146773872D01*
X188754305Y-146827426D01*
X188682900Y-146894632D01*
X188623045Y-146957636D01*
X188518037Y-147064745D01*
X188404628Y-147159252D01*
X188283869Y-147226457D01*
X188154709Y-147251659D01*
X187991947Y-147218056D01*
X187875388Y-147127750D01*
X187806082Y-146997540D01*
X187782981Y-146844228D01*
X187793481Y-146734757D01*
X187824984Y-146624761D01*
X187878538Y-146521065D01*
X187955194Y-146430496D01*
X188135808Y-146558606D01*
G37*
G36*
X193712437Y-144933081D02*
G01*
X194012760Y-144993985D01*
X194012760Y-145271207D01*
X193865370Y-145236554D01*
X193722265Y-145201481D01*
X193583445Y-145165989D01*
X193448908Y-145130076D01*
X193318656Y-145093743D01*
X193160685Y-145047999D01*
X193007045Y-145002124D01*
X192857737Y-144956117D01*
X192712760Y-144909979D01*
X192712760Y-144762968D01*
X192964779Y-144762968D01*
X193104440Y-144801821D01*
X193234650Y-144835423D01*
X193363810Y-144863775D01*
X193498220Y-144888977D01*
X193498220Y-144634858D01*
X193363810Y-144661110D01*
X193234650Y-144690512D01*
X193104440Y-144724115D01*
X192964779Y-144762968D01*
X192712760Y-144762968D01*
X192712760Y-144628557D01*
X192856555Y-144584060D01*
X193004420Y-144538775D01*
X193156353Y-144492703D01*
X193312356Y-144445843D01*
X193441516Y-144408124D01*
X193576136Y-144370573D01*
X193716217Y-144333191D01*
X193861758Y-144295976D01*
X194012760Y-144258929D01*
X194012760Y-144527750D01*
X193712437Y-144586554D01*
X193712437Y-144634858D01*
X193712437Y-144933081D01*
G37*
G36*
X181745016Y-146473549D02*
G01*
X181767068Y-146560706D01*
X181782819Y-146661514D01*
X181789120Y-146764422D01*
X181781244Y-146884656D01*
X181757617Y-146989139D01*
X181719814Y-147077871D01*
X181669410Y-147150851D01*
X181536050Y-147247459D01*
X181369087Y-147278961D01*
X181247278Y-147264727D01*
X181145070Y-147222023D01*
X181062464Y-147150851D01*
X180999926Y-147050744D01*
X180957922Y-146921234D01*
X180936454Y-146762321D01*
X180816745Y-146772822D01*
X180676034Y-146783323D01*
X180676034Y-147230657D01*
X180461817Y-147230657D01*
X180461817Y-146567006D01*
X180622217Y-146559131D01*
X180788393Y-146548105D01*
X180959293Y-146533404D01*
X181133869Y-146514502D01*
X181138332Y-146658888D01*
X181151721Y-146772822D01*
X181202124Y-146925084D01*
X181279830Y-146996489D01*
X181379588Y-147014341D01*
X181448893Y-147003840D01*
X181508748Y-146964987D01*
X181551801Y-146887281D01*
X181568603Y-146762321D01*
X181563877Y-146664139D01*
X181549701Y-146583808D01*
X181507698Y-146466199D01*
X181721914Y-146413695D01*
X181745016Y-146473549D01*
G37*
G36*
X194020373Y-143707374D02*
G01*
X193992808Y-143823145D01*
X193945292Y-143925791D01*
X193876249Y-144013210D01*
X193784630Y-144084353D01*
X193669383Y-144138170D01*
X193528935Y-144172035D01*
X193361710Y-144183323D01*
X193198160Y-144173085D01*
X193060337Y-144142370D01*
X192946403Y-144093279D01*
X192854521Y-144027911D01*
X192784428Y-143946267D01*
X192735862Y-143848347D01*
X192707509Y-143736776D01*
X192699840Y-143637281D01*
X192922776Y-143637281D01*
X192959529Y-143777992D01*
X193057186Y-143864098D01*
X193197897Y-143908202D01*
X193361710Y-143920803D01*
X193454379Y-143916865D01*
X193539173Y-143905052D01*
X193678834Y-143852548D01*
X193771241Y-143755940D01*
X193804844Y-143607879D01*
X193804844Y-143584777D01*
X193802744Y-143561675D01*
X192929076Y-143561675D01*
X192923826Y-143599478D01*
X192922776Y-143637281D01*
X192699840Y-143637281D01*
X192698059Y-143614179D01*
X192704359Y-143469268D01*
X192729561Y-143303355D01*
X193998059Y-143303355D01*
X194022211Y-143445116D01*
X194029561Y-143580577D01*
X194029257Y-143584777D01*
X194020373Y-143707374D01*
G37*
G36*
X195965341Y-143255708D02*
G01*
X196100145Y-143282879D01*
X196216311Y-143328164D01*
X196313837Y-143391562D01*
X196411844Y-143502637D01*
X196470649Y-143642648D01*
X196490250Y-143811594D01*
X196483162Y-143926316D01*
X196461898Y-144026861D01*
X196399943Y-144174922D01*
X196196228Y-144109817D01*
X196242431Y-144003759D01*
X196265533Y-143836796D01*
X196235868Y-143686897D01*
X196146874Y-143585827D01*
X196056217Y-143543240D01*
X195942458Y-143517689D01*
X195805598Y-143509171D01*
X195687989Y-143516259D01*
X195591381Y-143537523D01*
X195453821Y-143611029D01*
X195380315Y-143713937D01*
X195358263Y-143832596D01*
X195380315Y-143989058D01*
X195433869Y-144105617D01*
X195228053Y-144172822D01*
X195202851Y-144129769D01*
X195171349Y-144059414D01*
X195145097Y-143961756D01*
X195133546Y-143836796D01*
X195144834Y-143713674D01*
X195178700Y-143600528D01*
X195234354Y-143499720D01*
X195311010Y-143413614D01*
X195407880Y-143343521D01*
X195524176Y-143290754D01*
X195659111Y-143257677D01*
X195811898Y-143246651D01*
X195965341Y-143255708D01*
G37*
G36*
X174403901Y-142368783D02*
G01*
X174429891Y-142481667D01*
X174438554Y-142627103D01*
X174427470Y-142774465D01*
X174394217Y-142894524D01*
X174338796Y-142987281D01*
X174218300Y-143076275D01*
X174056325Y-143105940D01*
X173958405Y-143097014D01*
X173878861Y-143070237D01*
X173761252Y-142978880D01*
X173685646Y-142857071D01*
X173634192Y-142730011D01*
X173602690Y-142649155D01*
X173563837Y-142575649D01*
X173513433Y-142522095D01*
X173447278Y-142501094D01*
X173364438Y-142523962D01*
X173314734Y-142592567D01*
X173298166Y-142706909D01*
X173319168Y-142854971D01*
X173369572Y-142971530D01*
X173170057Y-143047136D01*
X173109152Y-142896974D01*
X173088675Y-142800104D01*
X173081850Y-142688008D01*
X173093284Y-142559315D01*
X173127587Y-142450456D01*
X173184758Y-142361433D01*
X173307617Y-142272439D01*
X173470380Y-142242774D01*
X173624742Y-142276376D01*
X173728700Y-142361433D01*
X173798005Y-142475892D01*
X173846309Y-142597701D01*
X173883061Y-142685908D01*
X173927165Y-142765714D01*
X173982819Y-142824519D01*
X174054225Y-142847620D01*
X174116179Y-142838170D01*
X174170784Y-142803517D01*
X174208586Y-142735262D01*
X174222237Y-142627103D01*
X174214887Y-142522358D01*
X174192835Y-142434939D01*
X174129830Y-142299478D01*
X174339847Y-142223872D01*
X174403901Y-142368783D01*
G37*
G36*
X176854090Y-142368783D02*
G01*
X176880079Y-142481667D01*
X176888743Y-142627103D01*
X176877658Y-142774465D01*
X176844406Y-142894524D01*
X176788985Y-142987281D01*
X176668488Y-143076275D01*
X176506513Y-143105940D01*
X176408593Y-143097014D01*
X176329050Y-143070237D01*
X176211440Y-142978880D01*
X176135835Y-142857071D01*
X176084381Y-142730011D01*
X176052878Y-142649155D01*
X176014025Y-142575649D01*
X175963621Y-142522095D01*
X175897466Y-142501094D01*
X175814627Y-142523962D01*
X175764923Y-142592567D01*
X175748355Y-142706909D01*
X175769356Y-142854971D01*
X175819760Y-142971530D01*
X175620245Y-143047136D01*
X175559340Y-142896974D01*
X175538864Y-142800104D01*
X175532038Y-142688008D01*
X175543472Y-142559315D01*
X175577775Y-142450456D01*
X175634946Y-142361433D01*
X175757806Y-142272439D01*
X175920568Y-142242774D01*
X176074930Y-142276376D01*
X176178888Y-142361433D01*
X176248193Y-142475892D01*
X176296497Y-142597701D01*
X176333250Y-142685908D01*
X176377353Y-142765714D01*
X176433008Y-142824519D01*
X176504413Y-142847620D01*
X176566368Y-142838170D01*
X176620972Y-142803517D01*
X176658775Y-142735262D01*
X176672426Y-142627103D01*
X176665075Y-142522358D01*
X176643024Y-142434939D01*
X176580019Y-142299478D01*
X176790035Y-142223872D01*
X176854090Y-142368783D01*
G37*
G36*
X179304278Y-142368783D02*
G01*
X179330268Y-142481667D01*
X179338931Y-142627103D01*
X179327847Y-142774465D01*
X179294594Y-142894524D01*
X179239173Y-142987281D01*
X179118677Y-143076275D01*
X178956702Y-143105940D01*
X178858782Y-143097014D01*
X178779238Y-143070237D01*
X178661629Y-142978880D01*
X178586023Y-142857071D01*
X178534569Y-142730011D01*
X178503067Y-142649155D01*
X178464214Y-142575649D01*
X178413810Y-142522095D01*
X178347655Y-142501094D01*
X178264815Y-142523962D01*
X178215111Y-142592567D01*
X178198543Y-142706909D01*
X178219545Y-142854971D01*
X178269949Y-142971530D01*
X178070433Y-143047136D01*
X178009529Y-142896974D01*
X177989052Y-142800104D01*
X177982227Y-142688008D01*
X177993661Y-142559315D01*
X178027964Y-142450456D01*
X178085135Y-142361433D01*
X178207994Y-142272439D01*
X178370757Y-142242774D01*
X178525118Y-142276376D01*
X178629076Y-142361433D01*
X178698382Y-142475892D01*
X178746686Y-142597701D01*
X178783438Y-142685908D01*
X178827542Y-142765714D01*
X178883196Y-142824519D01*
X178954602Y-142847620D01*
X179016556Y-142838170D01*
X179071160Y-142803517D01*
X179108963Y-142735262D01*
X179122614Y-142627103D01*
X179115264Y-142522358D01*
X179093212Y-142434939D01*
X179030207Y-142299478D01*
X179240223Y-142223872D01*
X179304278Y-142368783D01*
G37*
G36*
X181754467Y-142368783D02*
G01*
X181780456Y-142481667D01*
X181789120Y-142627103D01*
X181778035Y-142774465D01*
X181744783Y-142894524D01*
X181689362Y-142987281D01*
X181568865Y-143076275D01*
X181406890Y-143105940D01*
X181308970Y-143097014D01*
X181229426Y-143070237D01*
X181111817Y-142978880D01*
X181036212Y-142857071D01*
X180984758Y-142730011D01*
X180953255Y-142649155D01*
X180914402Y-142575649D01*
X180863998Y-142522095D01*
X180797843Y-142501094D01*
X180715004Y-142523962D01*
X180665300Y-142592567D01*
X180648732Y-142706909D01*
X180669733Y-142854971D01*
X180720137Y-142971530D01*
X180520622Y-143047136D01*
X180459717Y-142896974D01*
X180439241Y-142800104D01*
X180432415Y-142688008D01*
X180443849Y-142559315D01*
X180478152Y-142450456D01*
X180535323Y-142361433D01*
X180658183Y-142272439D01*
X180820945Y-142242774D01*
X180975307Y-142276376D01*
X181079265Y-142361433D01*
X181148570Y-142475892D01*
X181196874Y-142597701D01*
X181233627Y-142685908D01*
X181277730Y-142765714D01*
X181333384Y-142824519D01*
X181404790Y-142847620D01*
X181466745Y-142838170D01*
X181521349Y-142803517D01*
X181559152Y-142735262D01*
X181572803Y-142627103D01*
X181565452Y-142522358D01*
X181543401Y-142434939D01*
X181480396Y-142299478D01*
X181690412Y-142223872D01*
X181754467Y-142368783D01*
G37*
G36*
X184204655Y-142368783D02*
G01*
X184230645Y-142481667D01*
X184239308Y-142627103D01*
X184228224Y-142774465D01*
X184194971Y-142894524D01*
X184139550Y-142987281D01*
X184019054Y-143076275D01*
X183857079Y-143105940D01*
X183759159Y-143097014D01*
X183679615Y-143070237D01*
X183562006Y-142978880D01*
X183486400Y-142857071D01*
X183434946Y-142730011D01*
X183403444Y-142649155D01*
X183364591Y-142575649D01*
X183314187Y-142522095D01*
X183248032Y-142501094D01*
X183165192Y-142523962D01*
X183115488Y-142592567D01*
X183098920Y-142706909D01*
X183119922Y-142854971D01*
X183170326Y-142971530D01*
X182970810Y-143047136D01*
X182909906Y-142896974D01*
X182889429Y-142800104D01*
X182882604Y-142688008D01*
X182894038Y-142559315D01*
X182928341Y-142450456D01*
X182985512Y-142361433D01*
X183108371Y-142272439D01*
X183271134Y-142242774D01*
X183425495Y-142276376D01*
X183529453Y-142361433D01*
X183598759Y-142475892D01*
X183647062Y-142597701D01*
X183683815Y-142685908D01*
X183727919Y-142765714D01*
X183783573Y-142824519D01*
X183854978Y-142847620D01*
X183916933Y-142838170D01*
X183971537Y-142803517D01*
X184009340Y-142735262D01*
X184022991Y-142627103D01*
X184015641Y-142522358D01*
X183993589Y-142434939D01*
X183930584Y-142299478D01*
X184140600Y-142223872D01*
X184204655Y-142368783D01*
G37*
G36*
X186654844Y-142368783D02*
G01*
X186680833Y-142481667D01*
X186689496Y-142627103D01*
X186678412Y-142774465D01*
X186645160Y-142894524D01*
X186589739Y-142987281D01*
X186469242Y-143076275D01*
X186307267Y-143105940D01*
X186209347Y-143097014D01*
X186129803Y-143070237D01*
X186012194Y-142978880D01*
X185936589Y-142857071D01*
X185885135Y-142730011D01*
X185853632Y-142649155D01*
X185814779Y-142575649D01*
X185764375Y-142522095D01*
X185698220Y-142501094D01*
X185615381Y-142523962D01*
X185565677Y-142592567D01*
X185549109Y-142706909D01*
X185570110Y-142854971D01*
X185620514Y-142971530D01*
X185420999Y-143047136D01*
X185360094Y-142896974D01*
X185339618Y-142800104D01*
X185332792Y-142688008D01*
X185344226Y-142559315D01*
X185378529Y-142450456D01*
X185435700Y-142361433D01*
X185558560Y-142272439D01*
X185721322Y-142242774D01*
X185875684Y-142276376D01*
X185979642Y-142361433D01*
X186048947Y-142475892D01*
X186097251Y-142597701D01*
X186134004Y-142685908D01*
X186178107Y-142765714D01*
X186233761Y-142824519D01*
X186305167Y-142847620D01*
X186367122Y-142838170D01*
X186421726Y-142803517D01*
X186459529Y-142735262D01*
X186473180Y-142627103D01*
X186465829Y-142522358D01*
X186443778Y-142434939D01*
X186380773Y-142299478D01*
X186590789Y-142223872D01*
X186654844Y-142368783D01*
G37*
G36*
X186641193Y-146491401D02*
G01*
X186664295Y-146582758D01*
X186682146Y-146685666D01*
X186689496Y-146787523D01*
X186681883Y-146908808D01*
X186659044Y-147012241D01*
X186622291Y-147098347D01*
X186572938Y-147167653D01*
X186441677Y-147257960D01*
X186275765Y-147287362D01*
X186170232Y-147273448D01*
X186080450Y-147231708D01*
X186008519Y-147164765D01*
X185956540Y-147075245D01*
X185847332Y-147192855D01*
X185698220Y-147236958D01*
X185553309Y-147211756D01*
X185436750Y-147134050D01*
X185360094Y-147000690D01*
X185339618Y-146912745D01*
X185332792Y-146810625D01*
X185342505Y-146699054D01*
X185371645Y-146599559D01*
X185448301Y-146449397D01*
X185637316Y-146541804D01*
X185577461Y-146666764D01*
X185553309Y-146812725D01*
X185594262Y-146931384D01*
X185706621Y-146974438D01*
X185786427Y-146954486D01*
X185836831Y-146903032D01*
X185864133Y-146831627D01*
X185872534Y-146751821D01*
X185872534Y-146655213D01*
X186086750Y-146655213D01*
X186086750Y-146735019D01*
X186096988Y-146850003D01*
X186127703Y-146942935D01*
X186184145Y-147004365D01*
X186271564Y-147024842D01*
X186412275Y-146971287D01*
X186454803Y-146898044D01*
X186468980Y-146785423D01*
X186463204Y-146685928D01*
X186445878Y-146601659D01*
X186401774Y-146476699D01*
X186618091Y-146426296D01*
X186641193Y-146491401D01*
G37*
G36*
X189105032Y-142368783D02*
G01*
X189131022Y-142481667D01*
X189139685Y-142627103D01*
X189128601Y-142774465D01*
X189095348Y-142894524D01*
X189039927Y-142987281D01*
X188919431Y-143076275D01*
X188757456Y-143105940D01*
X188659536Y-143097014D01*
X188579992Y-143070237D01*
X188462383Y-142978880D01*
X188386777Y-142857071D01*
X188335323Y-142730011D01*
X188303821Y-142649155D01*
X188264968Y-142575649D01*
X188214564Y-142522095D01*
X188148409Y-142501094D01*
X188065569Y-142523962D01*
X188015865Y-142592567D01*
X187999297Y-142706909D01*
X188020299Y-142854971D01*
X188070703Y-142971530D01*
X187871187Y-143047136D01*
X187810283Y-142896974D01*
X187789806Y-142800104D01*
X187782981Y-142688008D01*
X187794415Y-142559315D01*
X187828717Y-142450456D01*
X187885889Y-142361433D01*
X188008748Y-142272439D01*
X188171511Y-142242774D01*
X188325872Y-142276376D01*
X188429830Y-142361433D01*
X188499136Y-142475892D01*
X188547439Y-142597701D01*
X188584192Y-142685908D01*
X188628296Y-142765714D01*
X188683950Y-142824519D01*
X188755355Y-142847620D01*
X188817310Y-142838170D01*
X188871914Y-142803517D01*
X188909717Y-142735262D01*
X188923368Y-142627103D01*
X188916018Y-142522358D01*
X188893966Y-142434939D01*
X188830961Y-142299478D01*
X189040977Y-142223872D01*
X189105032Y-142368783D01*
G37*
G36*
X191555221Y-142368783D02*
G01*
X191581210Y-142481667D01*
X191589873Y-142627103D01*
X191578789Y-142774465D01*
X191545537Y-142894524D01*
X191490116Y-142987281D01*
X191369619Y-143076275D01*
X191207644Y-143105940D01*
X191109724Y-143097014D01*
X191030180Y-143070237D01*
X190912571Y-142978880D01*
X190836966Y-142857071D01*
X190785512Y-142730011D01*
X190754009Y-142649155D01*
X190715156Y-142575649D01*
X190664752Y-142522095D01*
X190598597Y-142501094D01*
X190515757Y-142523962D01*
X190466054Y-142592567D01*
X190449486Y-142706909D01*
X190470487Y-142854971D01*
X190520891Y-142971530D01*
X190321376Y-143047136D01*
X190260471Y-142896974D01*
X190239995Y-142800104D01*
X190233169Y-142688008D01*
X190244603Y-142559315D01*
X190278906Y-142450456D01*
X190336077Y-142361433D01*
X190458936Y-142272439D01*
X190621699Y-142242774D01*
X190776061Y-142276376D01*
X190880019Y-142361433D01*
X190949324Y-142475892D01*
X190997628Y-142597701D01*
X191034381Y-142685908D01*
X191078484Y-142765714D01*
X191134138Y-142824519D01*
X191205544Y-142847620D01*
X191267499Y-142838170D01*
X191322103Y-142803517D01*
X191359906Y-142735262D01*
X191373557Y-142627103D01*
X191366206Y-142522358D01*
X191344155Y-142434939D01*
X191281150Y-142299478D01*
X191491166Y-142223872D01*
X191555221Y-142368783D01*
G37*
G36*
X194005409Y-142368783D02*
G01*
X194031399Y-142481667D01*
X194040062Y-142627103D01*
X194028978Y-142774465D01*
X193995725Y-142894524D01*
X193940304Y-142987281D01*
X193819807Y-143076275D01*
X193657833Y-143105940D01*
X193559912Y-143097014D01*
X193480369Y-143070237D01*
X193362760Y-142978880D01*
X193287154Y-142857071D01*
X193235700Y-142730011D01*
X193204198Y-142649155D01*
X193165345Y-142575649D01*
X193114941Y-142522095D01*
X193048786Y-142501094D01*
X192965946Y-142523962D01*
X192916242Y-142592567D01*
X192899674Y-142706909D01*
X192920676Y-142854971D01*
X192971080Y-142971530D01*
X192771564Y-143047136D01*
X192710660Y-142896974D01*
X192690183Y-142800104D01*
X192683358Y-142688008D01*
X192694792Y-142559315D01*
X192729094Y-142450456D01*
X192786265Y-142361433D01*
X192909125Y-142272439D01*
X193071887Y-142242774D01*
X193226249Y-142276376D01*
X193330207Y-142361433D01*
X193399513Y-142475892D01*
X193447816Y-142597701D01*
X193484569Y-142685908D01*
X193528673Y-142765714D01*
X193584327Y-142824519D01*
X193655732Y-142847620D01*
X193717687Y-142838170D01*
X193772291Y-142803517D01*
X193810094Y-142735262D01*
X193823745Y-142627103D01*
X193816395Y-142522358D01*
X193794343Y-142434939D01*
X193731338Y-142299478D01*
X193941354Y-142223872D01*
X194005409Y-142368783D01*
G37*
G36*
X196455598Y-142368783D02*
G01*
X196481587Y-142481667D01*
X196490250Y-142627103D01*
X196479166Y-142774465D01*
X196445914Y-142894524D01*
X196390493Y-142987281D01*
X196269996Y-143076275D01*
X196108021Y-143105940D01*
X196010101Y-143097014D01*
X195930557Y-143070237D01*
X195812948Y-142978880D01*
X195737342Y-142857071D01*
X195685889Y-142730011D01*
X195654386Y-142649155D01*
X195615533Y-142575649D01*
X195565129Y-142522095D01*
X195498974Y-142501094D01*
X195416134Y-142523962D01*
X195366431Y-142592567D01*
X195349863Y-142706909D01*
X195370864Y-142854971D01*
X195421268Y-142971530D01*
X195221753Y-143047136D01*
X195160848Y-142896974D01*
X195140372Y-142800104D01*
X195133546Y-142688008D01*
X195144980Y-142559315D01*
X195179283Y-142450456D01*
X195236454Y-142361433D01*
X195359313Y-142272439D01*
X195522076Y-142242774D01*
X195676438Y-142276376D01*
X195780396Y-142361433D01*
X195849701Y-142475892D01*
X195898005Y-142597701D01*
X195934758Y-142685908D01*
X195978861Y-142765714D01*
X196034515Y-142824519D01*
X196105921Y-142847620D01*
X196167876Y-142838170D01*
X196222480Y-142803517D01*
X196260283Y-142735262D01*
X196273934Y-142627103D01*
X196266583Y-142522358D01*
X196244532Y-142434939D01*
X196181527Y-142299478D01*
X196391543Y-142223872D01*
X196455598Y-142368783D01*
G37*
G36*
X179338931Y-146884131D02*
G01*
X179328693Y-146983888D01*
X179297978Y-147068945D01*
X179191920Y-147197055D01*
X179049109Y-147271611D01*
X178895797Y-147295762D01*
X178736185Y-147273711D01*
X178603875Y-147201255D01*
X178513568Y-147072095D01*
X178488366Y-146984676D01*
X178479965Y-146879930D01*
X178484690Y-146846328D01*
X178694181Y-146846328D01*
X178707570Y-146939260D01*
X178747736Y-146999640D01*
X178899997Y-147043743D01*
X178973503Y-147034292D01*
X179042808Y-147004890D01*
X179095312Y-146953436D01*
X179116314Y-146877830D01*
X179090062Y-146786473D01*
X179019707Y-146728719D01*
X178919949Y-146699317D01*
X178803390Y-146690916D01*
X178763487Y-146691966D01*
X178725684Y-146695116D01*
X178702582Y-146764422D01*
X178694181Y-146846328D01*
X178484690Y-146846328D01*
X178489416Y-146812725D01*
X178515668Y-146735019D01*
X178379157Y-146807475D01*
X178289900Y-146924034D01*
X178240547Y-147071045D01*
X178223745Y-147234858D01*
X178003228Y-147220157D01*
X178015829Y-147051619D01*
X178053632Y-146898832D01*
X178116112Y-146764422D01*
X178202744Y-146651013D01*
X178313002Y-146559918D01*
X178446362Y-146492451D01*
X178602299Y-146450710D01*
X178780288Y-146436796D01*
X178955185Y-146449514D01*
X179096246Y-146487667D01*
X179203471Y-146551255D01*
X179278726Y-146639112D01*
X179323880Y-146750070D01*
X179338224Y-146877830D01*
X179338931Y-146884131D01*
G37*
G36*
X174430153Y-146974963D02*
G01*
X174404952Y-147071045D01*
X174319895Y-147210706D01*
X174203336Y-147288412D01*
X174075226Y-147312564D01*
X173980719Y-147300225D01*
X173894612Y-147263210D01*
X173815856Y-147196267D01*
X173743401Y-147094147D01*
X173677508Y-147176053D01*
X173597439Y-147232758D01*
X173509495Y-147265835D01*
X173419976Y-147276861D01*
X173280315Y-147249296D01*
X173172157Y-147166603D01*
X173102851Y-147037180D01*
X173079750Y-146869430D01*
X173080097Y-146865229D01*
X173293966Y-146865229D01*
X173330719Y-146983888D01*
X173440977Y-147033242D01*
X173553336Y-147005940D01*
X173659394Y-146913533D01*
X173610040Y-146810100D01*
X173591064Y-146783323D01*
X173831607Y-146783323D01*
X173887262Y-146913533D01*
X173939766Y-147002790D01*
X173997520Y-147053194D01*
X174071026Y-147068945D01*
X174179184Y-147013291D01*
X174224338Y-146863129D01*
X174181284Y-146721368D01*
X174054225Y-146661514D01*
X173939766Y-146693016D01*
X173831607Y-146783323D01*
X173591064Y-146783323D01*
X173562787Y-146743420D01*
X173443078Y-146695116D01*
X173331769Y-146746570D01*
X173293966Y-146865229D01*
X173080097Y-146865229D01*
X173088675Y-146761271D01*
X173115452Y-146672014D01*
X173205759Y-146543905D01*
X173328619Y-146473549D01*
X173459879Y-146451498D01*
X173611090Y-146485100D01*
X173680396Y-146533404D01*
X173745501Y-146611110D01*
X173817694Y-146525528D01*
X173899863Y-146466199D01*
X173989907Y-146431546D01*
X174085727Y-146419995D01*
X174233788Y-146451498D01*
X174345097Y-146540754D01*
X174414402Y-146679365D01*
X174432516Y-146764684D01*
X174438554Y-146858929D01*
X174438250Y-146863129D01*
X174430153Y-146974963D01*
G37*
D11*
%TO.C,C6*%
X142150000Y-52336248D02*
X142150000Y-53758752D01*
X144870000Y-52336248D02*
X144870000Y-53758752D01*
D12*
%TO.C,kibuzzard-39*%
G36*
X128057302Y-133946322D02*
G01*
X127826607Y-133946322D01*
X127826607Y-133346968D01*
X126657302Y-133346968D01*
X126657302Y-133066515D01*
X128057302Y-133066515D01*
X128057302Y-133946322D01*
G37*
G36*
X129715137Y-134461992D02*
G01*
X130884442Y-134461992D01*
X130884442Y-134742444D01*
X129715137Y-134742444D01*
X129715137Y-135111103D01*
X129484442Y-135111103D01*
X129484442Y-134093333D01*
X129715137Y-134093333D01*
X129715137Y-134461992D01*
G37*
G36*
X124750678Y-133351491D02*
G01*
X125144216Y-133351491D01*
X125144216Y-133591233D01*
X124750678Y-133591233D01*
X124750678Y-133946322D01*
X124522245Y-133946322D01*
X124522245Y-133591233D01*
X124128707Y-133591233D01*
X124128707Y-133351491D01*
X124522245Y-133351491D01*
X124522245Y-132996402D01*
X124750678Y-132996402D01*
X124750678Y-133351491D01*
G37*
G36*
X128057302Y-135077178D02*
G01*
X127826607Y-135077178D01*
X127826607Y-134457469D01*
X127433069Y-134457469D01*
X127433069Y-134952784D01*
X127202374Y-134952784D01*
X127202374Y-134457469D01*
X126887996Y-134457469D01*
X126887996Y-135027420D01*
X126657302Y-135027420D01*
X126657302Y-134179278D01*
X128057302Y-134179278D01*
X128057302Y-135077178D01*
G37*
G36*
X130884442Y-135522735D02*
G01*
X129954878Y-135522735D01*
X130110057Y-135606795D01*
X130264984Y-135687086D01*
X130419660Y-135763607D01*
X130574336Y-135836359D01*
X130729264Y-135905341D01*
X130884442Y-135970554D01*
X130884442Y-136194464D01*
X129484442Y-136194464D01*
X129484442Y-135943414D01*
X130346155Y-135943414D01*
X130257948Y-135903551D01*
X130156171Y-135856338D01*
X130045912Y-135803187D01*
X129932261Y-135745514D01*
X129816631Y-135684730D01*
X129700436Y-135622250D01*
X129588198Y-135558923D01*
X129484442Y-135495595D01*
X129484442Y-135271685D01*
X130884442Y-135271685D01*
X130884442Y-135522735D01*
G37*
G36*
X133711583Y-134391879D02*
G01*
X132782019Y-134391879D01*
X132937197Y-134475939D01*
X133092125Y-134556230D01*
X133246801Y-134632751D01*
X133401477Y-134705503D01*
X133556404Y-134774485D01*
X133711583Y-134839698D01*
X133711583Y-135063607D01*
X132311583Y-135063607D01*
X132311583Y-134812557D01*
X133173295Y-134812557D01*
X133085088Y-134772695D01*
X132983311Y-134725481D01*
X132873053Y-134672331D01*
X132759402Y-134614658D01*
X132643772Y-134553874D01*
X132527576Y-134491394D01*
X132415339Y-134428066D01*
X132311583Y-134364738D01*
X132311583Y-134140829D01*
X133711583Y-134140829D01*
X133711583Y-134391879D01*
G37*
G36*
X125212067Y-134180409D02*
G01*
X125235815Y-134274270D01*
X125252778Y-134382832D01*
X125259563Y-134493656D01*
X125251082Y-134623139D01*
X125225638Y-134735659D01*
X125184927Y-134831217D01*
X125130646Y-134909811D01*
X124987027Y-135013850D01*
X124807221Y-135047776D01*
X124676041Y-135032446D01*
X124565971Y-134986458D01*
X124477011Y-134909811D01*
X124409662Y-134802003D01*
X124364428Y-134662530D01*
X124341308Y-134491394D01*
X124212390Y-134502703D01*
X124060856Y-134514011D01*
X124060856Y-134995756D01*
X123830161Y-134995756D01*
X123830161Y-134281055D01*
X124002899Y-134272574D01*
X124181857Y-134260700D01*
X124365904Y-134244868D01*
X124553909Y-134224512D01*
X124558715Y-134380005D01*
X124573134Y-134502703D01*
X124627415Y-134666677D01*
X124711098Y-134743575D01*
X124818529Y-134762800D01*
X124893166Y-134751491D01*
X124957625Y-134709649D01*
X125003990Y-134625966D01*
X125022084Y-134491394D01*
X125016995Y-134385659D01*
X125001728Y-134299149D01*
X124956494Y-134172493D01*
X125187189Y-134115950D01*
X125212067Y-134180409D01*
G37*
G36*
X128065500Y-135724876D02*
G01*
X128035815Y-135849553D01*
X127984644Y-135960094D01*
X127910290Y-136054238D01*
X127811623Y-136130853D01*
X127687512Y-136188809D01*
X127536260Y-136225280D01*
X127356171Y-136237436D01*
X127180040Y-136226410D01*
X127031615Y-136193333D01*
X126908917Y-136140465D01*
X126809967Y-136070070D01*
X126734483Y-135982145D01*
X126682180Y-135876693D01*
X126651647Y-135756540D01*
X126643388Y-135649391D01*
X126883473Y-135649391D01*
X126923053Y-135800926D01*
X127028222Y-135893656D01*
X127179757Y-135941152D01*
X127356171Y-135954722D01*
X127455969Y-135950481D01*
X127547285Y-135937759D01*
X127697689Y-135881217D01*
X127797205Y-135777178D01*
X127833392Y-135617727D01*
X127833392Y-135592848D01*
X127831130Y-135567969D01*
X126890258Y-135567969D01*
X126884604Y-135608680D01*
X126883473Y-135649391D01*
X126643388Y-135649391D01*
X126641470Y-135624512D01*
X126648255Y-135468454D01*
X126675395Y-135289779D01*
X128041470Y-135289779D01*
X128067479Y-135442444D01*
X128075395Y-135588325D01*
X128075068Y-135592848D01*
X128065500Y-135724876D01*
G37*
G36*
X133719781Y-135724876D02*
G01*
X133690096Y-135849553D01*
X133638925Y-135960094D01*
X133564571Y-136054238D01*
X133465904Y-136130853D01*
X133341793Y-136188809D01*
X133190541Y-136225280D01*
X133010452Y-136237436D01*
X132834321Y-136226410D01*
X132685896Y-136193333D01*
X132563198Y-136140465D01*
X132464248Y-136070070D01*
X132388764Y-135982145D01*
X132336462Y-135876693D01*
X132305928Y-135756540D01*
X132297669Y-135649391D01*
X132537754Y-135649391D01*
X132577334Y-135800926D01*
X132682504Y-135893656D01*
X132834038Y-135941152D01*
X133010452Y-135954722D01*
X133110250Y-135950481D01*
X133201567Y-135937759D01*
X133351970Y-135881217D01*
X133451486Y-135777178D01*
X133487673Y-135617727D01*
X133487673Y-135592848D01*
X133485411Y-135567969D01*
X132544539Y-135567969D01*
X132538885Y-135608680D01*
X132537754Y-135649391D01*
X132297669Y-135649391D01*
X132295751Y-135624512D01*
X132302536Y-135468454D01*
X132329676Y-135289779D01*
X133695751Y-135289779D01*
X133721760Y-135442444D01*
X133729676Y-135588325D01*
X133729349Y-135592848D01*
X133719781Y-135724876D01*
G37*
G36*
X123956817Y-135223058D02*
G01*
X124115137Y-135260376D01*
X124233625Y-135290281D01*
X124356889Y-135322699D01*
X124484927Y-135357630D01*
X124615478Y-135394571D01*
X124746280Y-135433021D01*
X124877334Y-135472977D01*
X125063925Y-135532347D01*
X125230161Y-135588325D01*
X125230161Y-135875562D01*
X125109662Y-135918786D01*
X124986399Y-135961005D01*
X124860371Y-136002218D01*
X124733715Y-136041798D01*
X124608567Y-136079116D01*
X124484927Y-136114173D01*
X124304838Y-136162234D01*
X124133231Y-136204641D01*
X123973780Y-136241112D01*
X123830161Y-136271362D01*
X123830161Y-135979601D01*
X123947770Y-135959246D01*
X124083473Y-135934367D01*
X124230201Y-135906095D01*
X124380888Y-135875562D01*
X124532423Y-135842767D01*
X124681696Y-135807711D01*
X124821639Y-135771523D01*
X124945185Y-135735336D01*
X124819943Y-135698866D01*
X124679434Y-135661830D01*
X124530161Y-135625643D01*
X124378626Y-135591717D01*
X124228222Y-135560336D01*
X124082342Y-135531782D01*
X123947487Y-135508034D01*
X123830161Y-135491071D01*
X123830161Y-135197049D01*
X123956817Y-135223058D01*
G37*
G36*
X133180363Y-132977178D02*
G01*
X133328222Y-133007711D01*
X133453747Y-133056903D01*
X133556655Y-133123058D01*
X133636946Y-133205328D01*
X133694620Y-133302864D01*
X133729394Y-133414536D01*
X133740985Y-133539213D01*
X133735331Y-133677460D01*
X133718368Y-133793656D01*
X133677657Y-133948583D01*
X132978788Y-133948583D01*
X132978788Y-133670393D01*
X133489935Y-133670393D01*
X133496720Y-133616112D01*
X133498982Y-133561830D01*
X133469297Y-133426693D01*
X133380242Y-133328874D01*
X133286381Y-133284896D01*
X133163117Y-133258510D01*
X133010452Y-133249714D01*
X132906696Y-133254520D01*
X132812552Y-133268939D01*
X132658756Y-133332267D01*
X132558109Y-133444221D01*
X132521922Y-133611588D01*
X132546801Y-133760861D01*
X132603344Y-133882994D01*
X132381696Y-133955368D01*
X132354555Y-133909003D01*
X132320630Y-133830974D01*
X132292358Y-133719019D01*
X132279919Y-133573139D01*
X132291510Y-133450441D01*
X132326284Y-133335659D01*
X132384240Y-133232186D01*
X132465379Y-133143414D01*
X132569135Y-133070473D01*
X132694943Y-133014496D01*
X132842237Y-132978874D01*
X133010452Y-132967000D01*
X133180363Y-132977178D01*
G37*
G36*
X130897164Y-133528753D02*
G01*
X130881050Y-133633074D01*
X130852213Y-133726935D01*
X130808675Y-133807226D01*
X130672972Y-133923704D01*
X130577697Y-133955934D01*
X130461502Y-133966677D01*
X130366510Y-133953955D01*
X130276041Y-133915788D01*
X130196882Y-133842000D01*
X130135815Y-133722412D01*
X130013683Y-133852460D01*
X129931130Y-133888931D01*
X129837269Y-133901087D01*
X129706090Y-133880732D01*
X129587350Y-133803834D01*
X129501405Y-133647776D01*
X129476809Y-133533559D01*
X129471063Y-133432913D01*
X129710613Y-133432913D01*
X129716268Y-133507549D01*
X129738885Y-133570877D01*
X129786381Y-133613850D01*
X129866672Y-133629682D01*
X129994458Y-133575401D01*
X130029068Y-133455530D01*
X130271518Y-133455530D01*
X130315621Y-133628551D01*
X130461502Y-133693010D01*
X130562148Y-133670393D01*
X130623214Y-133612719D01*
X130652617Y-133532428D01*
X130660533Y-133439698D01*
X130658271Y-133370716D01*
X130651486Y-133306257D01*
X130271518Y-133306257D01*
X130271518Y-133414819D01*
X130271518Y-133455530D01*
X130029068Y-133455530D01*
X130040823Y-133414819D01*
X130040823Y-133306257D01*
X129719660Y-133306257D01*
X129712875Y-133367323D01*
X129710613Y-133432913D01*
X129471063Y-133432913D01*
X129468610Y-133389940D01*
X129478788Y-133202218D01*
X129502536Y-133028066D01*
X130861825Y-133028066D01*
X130879636Y-133125885D01*
X130892358Y-133224835D01*
X130899991Y-133322654D01*
X130902536Y-133417081D01*
X130901448Y-133439698D01*
X130897164Y-133528753D01*
G37*
D11*
%TO.C,R28*%
X192353737Y-42075000D02*
X190906263Y-42075000D01*
X192353737Y-44785000D02*
X190906263Y-44785000D01*
%TO.C,R29*%
X185103737Y-47075000D02*
X183656263Y-47075000D01*
X185103737Y-49785000D02*
X183656263Y-49785000D01*
%TO.C,R34*%
X142917000Y-103980263D02*
X142917000Y-105427737D01*
X145627000Y-103980263D02*
X145627000Y-105427737D01*
D12*
%TO.C,kibuzzard-6754898D*%
G36*
X159992876Y-136093032D02*
G01*
X159778660Y-136093032D01*
X159778660Y-135536489D01*
X158692876Y-135536489D01*
X158692876Y-135276069D01*
X159992876Y-135276069D01*
X159992876Y-136093032D01*
G37*
G36*
X164798046Y-133440528D02*
G01*
X165163474Y-133440528D01*
X165163474Y-133663145D01*
X164798046Y-133663145D01*
X164798046Y-133992871D01*
X164585929Y-133992871D01*
X164585929Y-133663145D01*
X164220501Y-133663145D01*
X164220501Y-133440528D01*
X164585929Y-133440528D01*
X164585929Y-133110803D01*
X164798046Y-133110803D01*
X164798046Y-133440528D01*
G37*
G36*
X157367674Y-134406603D02*
G01*
X156504508Y-134406603D01*
X156648602Y-134484659D01*
X156792463Y-134559214D01*
X156936091Y-134630270D01*
X157079719Y-134697825D01*
X157223580Y-134761880D01*
X157367674Y-134822435D01*
X157367674Y-135030351D01*
X156067674Y-135030351D01*
X156067674Y-134797233D01*
X156867836Y-134797233D01*
X156785929Y-134760217D01*
X156691422Y-134716376D01*
X156589039Y-134667023D01*
X156483506Y-134613468D01*
X156376135Y-134557027D01*
X156268240Y-134499010D01*
X156164019Y-134440205D01*
X156067674Y-134381401D01*
X156067674Y-134173485D01*
X157367674Y-134173485D01*
X157367674Y-134406603D01*
G37*
G36*
X162317755Y-135820011D02*
G01*
X162618078Y-135880916D01*
X162618078Y-136158137D01*
X162470689Y-136123485D01*
X162327584Y-136088412D01*
X162188763Y-136052919D01*
X162054227Y-136017006D01*
X161923975Y-135980674D01*
X161766003Y-135934929D01*
X161612363Y-135889054D01*
X161463055Y-135843047D01*
X161318078Y-135796909D01*
X161318078Y-135649898D01*
X161570097Y-135649898D01*
X161709758Y-135688751D01*
X161839968Y-135722354D01*
X161969128Y-135750706D01*
X162103538Y-135775908D01*
X162103538Y-135521788D01*
X161969128Y-135548040D01*
X161839968Y-135577443D01*
X161709758Y-135611045D01*
X161570097Y-135649898D01*
X161318078Y-135649898D01*
X161318078Y-135515488D01*
X161461873Y-135470991D01*
X161609738Y-135425706D01*
X161761672Y-135379634D01*
X161917674Y-135332774D01*
X162046834Y-135295055D01*
X162181454Y-135257504D01*
X162321535Y-135220121D01*
X162467076Y-135182906D01*
X162618078Y-135145859D01*
X162618078Y-135414680D01*
X162317755Y-135473485D01*
X162317755Y-135521788D01*
X162317755Y-135820011D01*
G37*
G36*
X157375287Y-135644385D02*
G01*
X157347723Y-135760157D01*
X157300206Y-135862802D01*
X157231164Y-135950221D01*
X157139544Y-136021364D01*
X157024298Y-136075181D01*
X156883849Y-136109046D01*
X156716624Y-136120334D01*
X156553074Y-136110096D01*
X156415251Y-136079381D01*
X156301317Y-136030290D01*
X156209435Y-135964922D01*
X156139342Y-135883279D01*
X156090776Y-135785359D01*
X156062424Y-135673787D01*
X156054754Y-135574292D01*
X156277690Y-135574292D01*
X156314443Y-135715003D01*
X156412101Y-135801110D01*
X156552811Y-135845213D01*
X156716624Y-135857814D01*
X156809294Y-135853876D01*
X156894088Y-135842063D01*
X157033748Y-135789559D01*
X157126156Y-135692951D01*
X157159758Y-135544890D01*
X157159758Y-135521788D01*
X157157658Y-135498687D01*
X156283991Y-135498687D01*
X156278740Y-135536489D01*
X156277690Y-135574292D01*
X156054754Y-135574292D01*
X156052973Y-135551191D01*
X156059274Y-135406279D01*
X156084475Y-135240367D01*
X157352973Y-135240367D01*
X157377125Y-135382128D01*
X157384475Y-135517588D01*
X157384171Y-135521788D01*
X157375287Y-135644385D01*
G37*
G36*
X159495269Y-134142638D02*
G01*
X159630073Y-134169809D01*
X159746238Y-134215094D01*
X159843765Y-134278493D01*
X159941772Y-134389568D01*
X160000577Y-134529579D01*
X160020178Y-134698525D01*
X160013090Y-134813246D01*
X159991826Y-134913792D01*
X159929871Y-135061853D01*
X159726156Y-134996748D01*
X159772359Y-134890690D01*
X159795461Y-134723727D01*
X159765796Y-134573828D01*
X159676802Y-134472758D01*
X159586145Y-134430171D01*
X159472386Y-134404619D01*
X159335526Y-134396102D01*
X159217916Y-134403190D01*
X159121309Y-134424454D01*
X158983748Y-134497960D01*
X158910243Y-134600867D01*
X158888191Y-134719527D01*
X158910243Y-134875989D01*
X158963797Y-134992548D01*
X158757981Y-135059753D01*
X158732779Y-135016699D01*
X158701277Y-134946344D01*
X158675025Y-134848687D01*
X158663474Y-134723727D01*
X158674762Y-134600605D01*
X158708627Y-134487459D01*
X158764282Y-134386651D01*
X158840938Y-134300544D01*
X158937807Y-134230451D01*
X159054104Y-134177685D01*
X159189039Y-134144607D01*
X159341826Y-134133582D01*
X159495269Y-134142638D01*
G37*
G36*
X162625691Y-134594304D02*
G01*
X162598127Y-134710076D01*
X162550610Y-134812721D01*
X162481568Y-134900140D01*
X162389948Y-134971283D01*
X162274702Y-135025100D01*
X162134253Y-135058965D01*
X161967028Y-135070254D01*
X161803478Y-135060015D01*
X161665655Y-135029300D01*
X161551721Y-134980209D01*
X161459839Y-134914842D01*
X161389746Y-134833198D01*
X161341180Y-134735278D01*
X161312828Y-134623707D01*
X161305158Y-134524212D01*
X161528094Y-134524212D01*
X161564847Y-134664922D01*
X161662505Y-134751029D01*
X161803215Y-134795132D01*
X161967028Y-134807733D01*
X162059698Y-134803796D01*
X162144492Y-134791982D01*
X162284152Y-134739478D01*
X162376559Y-134642871D01*
X162410162Y-134494809D01*
X162410162Y-134471708D01*
X162408062Y-134448606D01*
X161534395Y-134448606D01*
X161529144Y-134486409D01*
X161528094Y-134524212D01*
X161305158Y-134524212D01*
X161303377Y-134501110D01*
X161309677Y-134356199D01*
X161334879Y-134190286D01*
X162603377Y-134190286D01*
X162627529Y-134332047D01*
X162634879Y-134467507D01*
X162634575Y-134471708D01*
X162625691Y-134594304D01*
G37*
G36*
X165226479Y-134210237D02*
G01*
X165248530Y-134297394D01*
X165264282Y-134398202D01*
X165270582Y-134501110D01*
X165262706Y-134621344D01*
X165239080Y-134725827D01*
X165201277Y-134814559D01*
X165150873Y-134887540D01*
X165017513Y-134984147D01*
X164850550Y-135015649D01*
X164728740Y-135001415D01*
X164626533Y-134958712D01*
X164543926Y-134887540D01*
X164481388Y-134787432D01*
X164439385Y-134657922D01*
X164417916Y-134499010D01*
X164298207Y-134509510D01*
X164157496Y-134520011D01*
X164157496Y-134967346D01*
X163943280Y-134967346D01*
X163943280Y-134303695D01*
X164103680Y-134295819D01*
X164269855Y-134284793D01*
X164440756Y-134270092D01*
X164615332Y-134251191D01*
X164619795Y-134395577D01*
X164633183Y-134509510D01*
X164683587Y-134661772D01*
X164761293Y-134733178D01*
X164861051Y-134751029D01*
X164930356Y-134740528D01*
X164990211Y-134701675D01*
X165033264Y-134623969D01*
X165050065Y-134499010D01*
X165045340Y-134400827D01*
X165031164Y-134320496D01*
X164989160Y-134202887D01*
X165203377Y-134150383D01*
X165226479Y-134210237D01*
G37*
G36*
X164060889Y-135178412D02*
G01*
X164207900Y-135213065D01*
X164317925Y-135240833D01*
X164432384Y-135270936D01*
X164551277Y-135303372D01*
X164672503Y-135337674D01*
X164793962Y-135373377D01*
X164915655Y-135410480D01*
X165088918Y-135465609D01*
X165243280Y-135517588D01*
X165243280Y-135784308D01*
X165131388Y-135824445D01*
X165016929Y-135863648D01*
X164899904Y-135901918D01*
X164782295Y-135938670D01*
X164666086Y-135973323D01*
X164551277Y-136005876D01*
X164384051Y-136050504D01*
X164224702Y-136089882D01*
X164076640Y-136123747D01*
X163943280Y-136151837D01*
X163943280Y-135880916D01*
X164052488Y-135862014D01*
X164178498Y-135838913D01*
X164314746Y-135812661D01*
X164454669Y-135784308D01*
X164595380Y-135753856D01*
X164733991Y-135721304D01*
X164863938Y-135687701D01*
X164978660Y-135654098D01*
X164862363Y-135620233D01*
X164731891Y-135585843D01*
X164593280Y-135552241D01*
X164452569Y-135520738D01*
X164312908Y-135491598D01*
X164177448Y-135465084D01*
X164052226Y-135443032D01*
X163943280Y-135427281D01*
X163943280Y-135154260D01*
X164060889Y-135178412D01*
G37*
G36*
X156874399Y-133092951D02*
G01*
X157011697Y-133121304D01*
X157128256Y-133166982D01*
X157223813Y-133228412D01*
X157298369Y-133304805D01*
X157351923Y-133395375D01*
X157384213Y-133499070D01*
X157394976Y-133614842D01*
X157389726Y-133743214D01*
X157373975Y-133851110D01*
X157336172Y-133994971D01*
X156687222Y-133994971D01*
X156687222Y-133736651D01*
X157161858Y-133736651D01*
X157168159Y-133686247D01*
X157170259Y-133635843D01*
X157142694Y-133510359D01*
X157060001Y-133419527D01*
X156972844Y-133378690D01*
X156858385Y-133354188D01*
X156716624Y-133346021D01*
X156620279Y-133350484D01*
X156532860Y-133363872D01*
X156390049Y-133422677D01*
X156296592Y-133526635D01*
X156262989Y-133682047D01*
X156286091Y-133820657D01*
X156338595Y-133934066D01*
X156132779Y-134001271D01*
X156107577Y-133958218D01*
X156076075Y-133885762D01*
X156049823Y-133781804D01*
X156038272Y-133646344D01*
X156049035Y-133532410D01*
X156081325Y-133425827D01*
X156135142Y-133329745D01*
X156210485Y-133247313D01*
X156306830Y-133179583D01*
X156423652Y-133127604D01*
X156560425Y-133094527D01*
X156716624Y-133083501D01*
X156874399Y-133092951D01*
G37*
G36*
X159985526Y-133255714D02*
G01*
X160011515Y-133368598D01*
X160020178Y-133514034D01*
X160009094Y-133661395D01*
X159975841Y-133781454D01*
X159920421Y-133874212D01*
X159799924Y-133963206D01*
X159637949Y-133992871D01*
X159540029Y-133983945D01*
X159460485Y-133957168D01*
X159342876Y-133865811D01*
X159267270Y-133744002D01*
X159215816Y-133616942D01*
X159184314Y-133536086D01*
X159145461Y-133462580D01*
X159095057Y-133409026D01*
X159028902Y-133388024D01*
X158946062Y-133410893D01*
X158896358Y-133479498D01*
X158879790Y-133593840D01*
X158900792Y-133741901D01*
X158951196Y-133858460D01*
X158751681Y-133934066D01*
X158690776Y-133783905D01*
X158670299Y-133687035D01*
X158663474Y-133574939D01*
X158674908Y-133446245D01*
X158709211Y-133337387D01*
X158766382Y-133248363D01*
X158889241Y-133159369D01*
X159052004Y-133129704D01*
X159206366Y-133163307D01*
X159310324Y-133248363D01*
X159379629Y-133362822D01*
X159427933Y-133484632D01*
X159464685Y-133572838D01*
X159508789Y-133652645D01*
X159564443Y-133711449D01*
X159635849Y-133734551D01*
X159697803Y-133725100D01*
X159752408Y-133690447D01*
X159790211Y-133622192D01*
X159803862Y-133514034D01*
X159796511Y-133409288D01*
X159774459Y-133321869D01*
X159711454Y-133186409D01*
X159921471Y-133110803D01*
X159985526Y-133255714D01*
G37*
G36*
X162610727Y-133255714D02*
G01*
X162636717Y-133368598D01*
X162645380Y-133514034D01*
X162634296Y-133661395D01*
X162601043Y-133781454D01*
X162545622Y-133874212D01*
X162425126Y-133963206D01*
X162263151Y-133992871D01*
X162165231Y-133983945D01*
X162085687Y-133957168D01*
X161968078Y-133865811D01*
X161892472Y-133744002D01*
X161841018Y-133616942D01*
X161809516Y-133536086D01*
X161770663Y-133462580D01*
X161720259Y-133409026D01*
X161654104Y-133388024D01*
X161571264Y-133410893D01*
X161521560Y-133479498D01*
X161504992Y-133593840D01*
X161525994Y-133741901D01*
X161576398Y-133858460D01*
X161376883Y-133934066D01*
X161315978Y-133783905D01*
X161295501Y-133687035D01*
X161288676Y-133574939D01*
X161300110Y-133446245D01*
X161334413Y-133337387D01*
X161391584Y-133248363D01*
X161514443Y-133159369D01*
X161677206Y-133129704D01*
X161831568Y-133163307D01*
X161935526Y-133248363D01*
X162004831Y-133362822D01*
X162053135Y-133484632D01*
X162089887Y-133572838D01*
X162133991Y-133652645D01*
X162189645Y-133711449D01*
X162261051Y-133734551D01*
X162323005Y-133725100D01*
X162377610Y-133690447D01*
X162415412Y-133622192D01*
X162429064Y-133514034D01*
X162421713Y-133409288D01*
X162399661Y-133321869D01*
X162336656Y-133186409D01*
X162546673Y-133110803D01*
X162610727Y-133255714D01*
G37*
%TO.C,kibuzzard-27*%
G36*
X198153299Y-43597856D02*
G01*
X198521958Y-43597856D01*
X198521958Y-43828550D01*
X197504187Y-43828550D01*
X197504187Y-43597856D01*
X197872847Y-43597856D01*
X197872847Y-42428550D01*
X198153299Y-42428550D01*
X198153299Y-43597856D01*
G37*
G36*
X195871231Y-45546698D02*
G01*
X196226320Y-45546698D01*
X196226320Y-45775131D01*
X195871231Y-45775131D01*
X195871231Y-46168669D01*
X195631489Y-46168669D01*
X195631489Y-45775131D01*
X195276401Y-45775131D01*
X195276401Y-45546698D01*
X195631489Y-45546698D01*
X195631489Y-45153160D01*
X195871231Y-45153160D01*
X195871231Y-45546698D01*
G37*
G36*
X197354914Y-45297910D02*
G01*
X197076724Y-45297910D01*
X197076724Y-46467215D01*
X196886740Y-46467215D01*
X196789486Y-46379008D01*
X196669616Y-46297586D01*
X196542960Y-46227473D01*
X196425351Y-46175454D01*
X196515819Y-45944759D01*
X196653784Y-46000171D01*
X196798533Y-46080462D01*
X196798533Y-45297910D01*
X196504511Y-45297910D01*
X196504511Y-45067215D01*
X197354914Y-45067215D01*
X197354914Y-45297910D01*
G37*
G36*
X196671877Y-48635443D02*
G01*
X196755938Y-48480265D01*
X196836228Y-48325337D01*
X196912750Y-48170661D01*
X196985501Y-48015985D01*
X197054484Y-47861058D01*
X197119696Y-47705879D01*
X197343606Y-47705879D01*
X197343606Y-49105879D01*
X197092556Y-49105879D01*
X197092556Y-48244167D01*
X197052693Y-48332374D01*
X197005480Y-48434151D01*
X196952330Y-48544409D01*
X196894656Y-48658060D01*
X196833872Y-48773690D01*
X196771393Y-48889886D01*
X196708065Y-49002123D01*
X196644737Y-49105879D01*
X196420827Y-49105879D01*
X196420827Y-47705879D01*
X196671877Y-47705879D01*
X196671877Y-48635443D01*
G37*
G36*
X196689971Y-42751975D02*
G01*
X196741990Y-42751975D01*
X197063153Y-42751975D01*
X197128743Y-42428550D01*
X197427289Y-42428550D01*
X197389971Y-42587277D01*
X197352200Y-42741390D01*
X197313977Y-42890890D01*
X197275302Y-43035775D01*
X197236174Y-43176046D01*
X197186912Y-43346169D01*
X197137507Y-43511628D01*
X197087962Y-43672422D01*
X197038275Y-43828550D01*
X196735205Y-43828550D01*
X196687285Y-43673694D01*
X196638517Y-43514455D01*
X196588901Y-43350834D01*
X196538436Y-43182831D01*
X196497816Y-43043736D01*
X196480782Y-42982670D01*
X196741990Y-42982670D01*
X196770262Y-43127419D01*
X196801926Y-43266515D01*
X196838113Y-43406741D01*
X196879955Y-43557145D01*
X196921796Y-43406741D01*
X196957984Y-43266515D01*
X196988517Y-43127419D01*
X197015658Y-42982670D01*
X196741990Y-42982670D01*
X196480782Y-42982670D01*
X196457376Y-42898760D01*
X196417118Y-42747904D01*
X196377040Y-42591167D01*
X196337144Y-42428550D01*
X196626643Y-42428550D01*
X196689971Y-42751975D01*
G37*
G36*
X198492556Y-45297910D02*
G01*
X197890940Y-45297910D01*
X197914688Y-45372546D01*
X197972362Y-45452837D01*
X198044737Y-45529735D01*
X198112588Y-45594194D01*
X198227935Y-45707279D01*
X198329712Y-45829412D01*
X198402087Y-45959460D01*
X198429228Y-46098556D01*
X198393040Y-46273838D01*
X198295787Y-46399363D01*
X198155561Y-46474000D01*
X197990456Y-46498879D01*
X197872564Y-46487570D01*
X197754107Y-46453645D01*
X197642435Y-46395971D01*
X197544898Y-46313418D01*
X197682863Y-46118911D01*
X197825351Y-46225212D01*
X197963315Y-46256876D01*
X198094494Y-46210511D01*
X198146514Y-46078200D01*
X198104672Y-45958330D01*
X197998372Y-45836197D01*
X197931651Y-45771456D01*
X197860407Y-45703887D01*
X197789163Y-45632078D01*
X197722443Y-45554614D01*
X197663638Y-45470648D01*
X197616142Y-45379331D01*
X197584761Y-45279816D01*
X197574300Y-45171254D01*
X197573170Y-45123758D01*
X197578824Y-45067215D01*
X198492556Y-45067215D01*
X198492556Y-45297910D01*
G37*
G36*
X198951683Y-42751975D02*
G01*
X199003703Y-42751975D01*
X199324866Y-42751975D01*
X199390456Y-42428550D01*
X199689002Y-42428550D01*
X199651683Y-42587277D01*
X199613913Y-42741390D01*
X199575690Y-42890890D01*
X199537015Y-43035775D01*
X199497887Y-43176046D01*
X199448624Y-43346169D01*
X199399220Y-43511628D01*
X199349674Y-43672422D01*
X199299987Y-43828550D01*
X198996918Y-43828550D01*
X198948998Y-43673694D01*
X198900229Y-43514455D01*
X198850613Y-43350834D01*
X198800149Y-43182831D01*
X198759528Y-43043736D01*
X198742495Y-42982670D01*
X199003703Y-42982670D01*
X199031974Y-43127419D01*
X199063638Y-43266515D01*
X199099826Y-43406741D01*
X199141667Y-43557145D01*
X199183509Y-43406741D01*
X199219696Y-43266515D01*
X199250229Y-43127419D01*
X199277370Y-42982670D01*
X199003703Y-42982670D01*
X198742495Y-42982670D01*
X198719089Y-42898760D01*
X198678830Y-42747904D01*
X198638753Y-42591167D01*
X198598856Y-42428550D01*
X198888355Y-42428550D01*
X198951683Y-42751975D01*
G37*
G36*
X195611134Y-42410784D02*
G01*
X195743162Y-42420352D01*
X195867838Y-42450037D01*
X195978380Y-42501208D01*
X196072523Y-42575562D01*
X196149139Y-42674229D01*
X196207095Y-42798340D01*
X196243565Y-42949592D01*
X196255722Y-43129681D01*
X196244696Y-43305812D01*
X196211619Y-43454237D01*
X196158751Y-43576935D01*
X196088355Y-43675885D01*
X196000431Y-43751369D01*
X195894979Y-43803672D01*
X195774826Y-43834205D01*
X195642798Y-43844382D01*
X195486740Y-43837597D01*
X195308065Y-43810457D01*
X195308065Y-42654722D01*
X195586255Y-42654722D01*
X195586255Y-43595594D01*
X195626966Y-43601248D01*
X195667677Y-43602379D01*
X195819212Y-43562799D01*
X195911942Y-43457630D01*
X195959438Y-43306095D01*
X195973008Y-43129681D01*
X195968767Y-43029883D01*
X195956045Y-42938567D01*
X195899502Y-42788163D01*
X195795464Y-42688647D01*
X195636013Y-42652460D01*
X195611134Y-42652460D01*
X195586255Y-42654722D01*
X195308065Y-42654722D01*
X195308065Y-42444382D01*
X195460730Y-42418373D01*
X195606611Y-42410457D01*
X195611134Y-42410784D01*
G37*
G36*
X197872847Y-47688113D02*
G01*
X198004874Y-47697681D01*
X198129551Y-47727366D01*
X198240092Y-47778537D01*
X198334236Y-47852891D01*
X198410851Y-47951558D01*
X198468808Y-48075669D01*
X198505278Y-48226921D01*
X198517435Y-48407010D01*
X198506409Y-48583141D01*
X198473331Y-48731566D01*
X198420464Y-48854264D01*
X198350068Y-48953214D01*
X198262144Y-49028698D01*
X198156691Y-49081001D01*
X198036538Y-49111534D01*
X197904511Y-49121711D01*
X197748452Y-49114926D01*
X197569777Y-49087786D01*
X197569777Y-47932051D01*
X197847968Y-47932051D01*
X197847968Y-48872923D01*
X197888679Y-48878577D01*
X197929389Y-48879708D01*
X198080924Y-48840128D01*
X198173654Y-48734959D01*
X198221150Y-48583424D01*
X198234721Y-48407010D01*
X198230480Y-48307212D01*
X198217758Y-48215896D01*
X198161215Y-48065492D01*
X198057176Y-47965976D01*
X197897725Y-47929789D01*
X197872847Y-47929789D01*
X197847968Y-47932051D01*
X197569777Y-47932051D01*
X197569777Y-47721711D01*
X197722443Y-47695702D01*
X197868323Y-47687786D01*
X197872847Y-47688113D01*
G37*
G36*
X199329641Y-45187714D02*
G01*
X199371859Y-45310977D01*
X199413073Y-45437005D01*
X199452653Y-45563661D01*
X199489971Y-45688809D01*
X199525027Y-45812449D01*
X199573089Y-45992538D01*
X199615496Y-46164145D01*
X199651966Y-46323596D01*
X199682216Y-46467215D01*
X199390456Y-46467215D01*
X199370100Y-46349606D01*
X199345221Y-46213903D01*
X199316950Y-46067174D01*
X199286417Y-45916488D01*
X199253622Y-45764953D01*
X199218565Y-45615680D01*
X199182378Y-45475737D01*
X199146191Y-45352191D01*
X199109721Y-45477433D01*
X199072685Y-45617942D01*
X199036498Y-45767215D01*
X199002572Y-45918750D01*
X198971191Y-46069153D01*
X198942637Y-46215034D01*
X198918889Y-46349889D01*
X198901926Y-46467215D01*
X198607903Y-46467215D01*
X198633913Y-46340559D01*
X198671231Y-46182239D01*
X198701136Y-46063750D01*
X198733554Y-45940487D01*
X198768485Y-45812449D01*
X198805426Y-45681898D01*
X198843875Y-45551096D01*
X198883832Y-45420042D01*
X198943202Y-45233451D01*
X198999179Y-45067215D01*
X199286417Y-45067215D01*
X199329641Y-45187714D01*
G37*
G36*
X195957459Y-47682131D02*
G01*
X196073654Y-47699094D01*
X196228582Y-47739805D01*
X196228582Y-48438674D01*
X195950391Y-48438674D01*
X195950391Y-47927527D01*
X195896110Y-47920742D01*
X195841829Y-47918480D01*
X195706691Y-47948165D01*
X195608872Y-48037220D01*
X195564895Y-48131081D01*
X195538508Y-48254345D01*
X195529712Y-48407010D01*
X195534519Y-48510766D01*
X195548937Y-48604910D01*
X195612265Y-48758707D01*
X195724220Y-48859353D01*
X195891586Y-48895540D01*
X196040859Y-48870661D01*
X196162992Y-48814118D01*
X196235367Y-49035766D01*
X196189002Y-49062907D01*
X196110973Y-49096833D01*
X195999018Y-49125104D01*
X195853137Y-49137543D01*
X195730439Y-49125952D01*
X195615658Y-49091178D01*
X195512184Y-49033222D01*
X195423412Y-48952083D01*
X195350472Y-48848327D01*
X195294494Y-48722519D01*
X195258872Y-48575225D01*
X195246998Y-48407010D01*
X195257176Y-48237099D01*
X195287709Y-48089240D01*
X195336901Y-47963715D01*
X195403057Y-47860807D01*
X195485326Y-47780516D01*
X195582863Y-47722842D01*
X195694535Y-47688068D01*
X195819212Y-47676477D01*
X195957459Y-47682131D01*
G37*
D11*
%TO.C,R33*%
X139361000Y-103950263D02*
X139361000Y-105397737D01*
X142071000Y-103950263D02*
X142071000Y-105397737D01*
D12*
%TO.C,kibuzzard-34*%
G36*
X126916929Y-32483651D02*
G01*
X126991242Y-32483651D01*
X127450047Y-32483651D01*
X127543746Y-32021616D01*
X127970241Y-32021616D01*
X127916929Y-32248368D01*
X127862971Y-32468530D01*
X127808367Y-32682100D01*
X127753116Y-32889079D01*
X127697220Y-33089467D01*
X127626844Y-33332500D01*
X127556267Y-33568869D01*
X127485487Y-33798574D01*
X127414506Y-34021616D01*
X126981549Y-34021616D01*
X126913092Y-33800392D01*
X126843423Y-33572908D01*
X126772543Y-33339164D01*
X126700451Y-33099160D01*
X126642422Y-32900452D01*
X126618088Y-32813215D01*
X126991242Y-32813215D01*
X127031630Y-33020000D01*
X127076864Y-33218708D01*
X127128561Y-33419031D01*
X127188334Y-33633893D01*
X127248108Y-33419031D01*
X127299805Y-33218708D01*
X127343423Y-33020000D01*
X127382195Y-32813215D01*
X126991242Y-32813215D01*
X126618088Y-32813215D01*
X126584651Y-32693344D01*
X126527139Y-32477835D01*
X126469885Y-32253926D01*
X126412890Y-32021616D01*
X126826460Y-32021616D01*
X126916929Y-32483651D01*
G37*
G36*
X122299805Y-31997322D02*
G01*
X122427026Y-32003441D01*
X122576057Y-32026462D01*
X122710144Y-32067658D01*
X122824845Y-32129855D01*
X122991242Y-32323716D01*
X123037284Y-32459822D01*
X123052632Y-32625816D01*
X123034457Y-32761519D01*
X122979934Y-32890759D01*
X122874522Y-33003845D01*
X122703682Y-33091082D01*
X122889465Y-33265557D01*
X122941565Y-33383489D01*
X122958932Y-33517577D01*
X122929853Y-33704976D01*
X122819998Y-33874604D01*
X122597058Y-33997383D01*
X122433892Y-34032520D01*
X122228722Y-34044233D01*
X121960548Y-34029693D01*
X121711759Y-33995767D01*
X121711759Y-33226785D01*
X122109174Y-33226785D01*
X122109174Y-33685590D01*
X122196412Y-33695283D01*
X122290111Y-33698514D01*
X122396735Y-33690436D01*
X122487204Y-33658126D01*
X122548593Y-33590275D01*
X122571210Y-33475574D01*
X122493666Y-33293021D01*
X122264263Y-33226785D01*
X122109174Y-33226785D01*
X121711759Y-33226785D01*
X121711759Y-32354410D01*
X122109174Y-32354410D01*
X122109174Y-32897221D01*
X122264263Y-32897221D01*
X122322422Y-32897221D01*
X122569595Y-32834216D01*
X122661679Y-32625816D01*
X122629368Y-32482036D01*
X122546977Y-32394798D01*
X122432276Y-32352795D01*
X122299805Y-32341486D01*
X122201258Y-32344717D01*
X122109174Y-32354410D01*
X121711759Y-32354410D01*
X121711759Y-32053926D01*
X121851501Y-32028481D01*
X121992858Y-32010307D01*
X122132599Y-31999402D01*
X122267494Y-31995767D01*
X122299805Y-31997322D01*
G37*
D11*
%TO.C,R30*%
X190906263Y-47155000D02*
X192353737Y-47155000D01*
X190906263Y-49865000D02*
X192353737Y-49865000D01*
D12*
%TO.C,kibuzzard-675489B9*%
G36*
X159933449Y-145308032D02*
G01*
X159719233Y-145308032D01*
X159719233Y-144751489D01*
X158633449Y-144751489D01*
X158633449Y-144491069D01*
X159933449Y-144491069D01*
X159933449Y-145308032D01*
G37*
G36*
X164738619Y-142655528D02*
G01*
X165104047Y-142655528D01*
X165104047Y-142878145D01*
X164738619Y-142878145D01*
X164738619Y-143207871D01*
X164526502Y-143207871D01*
X164526502Y-142878145D01*
X164161074Y-142878145D01*
X164161074Y-142655528D01*
X164526502Y-142655528D01*
X164526502Y-142325803D01*
X164738619Y-142325803D01*
X164738619Y-142655528D01*
G37*
G36*
X157308247Y-143621603D02*
G01*
X156445081Y-143621603D01*
X156589175Y-143699659D01*
X156733036Y-143774214D01*
X156876664Y-143845270D01*
X157020292Y-143912825D01*
X157164153Y-143976880D01*
X157308247Y-144037435D01*
X157308247Y-144245351D01*
X156008247Y-144245351D01*
X156008247Y-144012233D01*
X156808409Y-144012233D01*
X156726502Y-143975217D01*
X156631995Y-143931376D01*
X156529612Y-143882023D01*
X156424079Y-143828468D01*
X156316708Y-143772027D01*
X156208813Y-143714010D01*
X156104592Y-143655205D01*
X156008247Y-143596401D01*
X156008247Y-143388485D01*
X157308247Y-143388485D01*
X157308247Y-143621603D01*
G37*
G36*
X162258328Y-145035011D02*
G01*
X162558651Y-145095916D01*
X162558651Y-145373137D01*
X162411262Y-145338485D01*
X162268157Y-145303412D01*
X162129336Y-145267919D01*
X161994800Y-145232006D01*
X161864548Y-145195674D01*
X161706576Y-145149929D01*
X161552936Y-145104054D01*
X161403628Y-145058047D01*
X161258651Y-145011909D01*
X161258651Y-144864898D01*
X161510670Y-144864898D01*
X161650331Y-144903751D01*
X161780541Y-144937354D01*
X161909701Y-144965706D01*
X162044111Y-144990908D01*
X162044111Y-144736788D01*
X161909701Y-144763040D01*
X161780541Y-144792443D01*
X161650331Y-144826045D01*
X161510670Y-144864898D01*
X161258651Y-144864898D01*
X161258651Y-144730488D01*
X161402446Y-144685991D01*
X161550311Y-144640706D01*
X161702245Y-144594634D01*
X161858247Y-144547774D01*
X161987407Y-144510055D01*
X162122027Y-144472504D01*
X162262108Y-144435121D01*
X162407649Y-144397906D01*
X162558651Y-144360859D01*
X162558651Y-144629680D01*
X162258328Y-144688485D01*
X162258328Y-144736788D01*
X162258328Y-145035011D01*
G37*
G36*
X157315860Y-144859385D02*
G01*
X157288296Y-144975157D01*
X157240779Y-145077802D01*
X157171737Y-145165221D01*
X157080117Y-145236364D01*
X156964871Y-145290181D01*
X156824422Y-145324046D01*
X156657197Y-145335334D01*
X156493647Y-145325096D01*
X156355824Y-145294381D01*
X156241890Y-145245290D01*
X156150008Y-145179922D01*
X156079915Y-145098279D01*
X156031349Y-145000359D01*
X156002997Y-144888787D01*
X155995327Y-144789292D01*
X156218263Y-144789292D01*
X156255016Y-144930003D01*
X156352674Y-145016110D01*
X156493384Y-145060213D01*
X156657197Y-145072814D01*
X156749867Y-145068876D01*
X156834661Y-145057063D01*
X156974321Y-145004559D01*
X157066729Y-144907951D01*
X157100331Y-144759890D01*
X157100331Y-144736788D01*
X157098231Y-144713687D01*
X156224564Y-144713687D01*
X156219313Y-144751489D01*
X156218263Y-144789292D01*
X155995327Y-144789292D01*
X155993546Y-144766191D01*
X155999847Y-144621279D01*
X156025048Y-144455367D01*
X157293546Y-144455367D01*
X157317698Y-144597128D01*
X157325048Y-144732588D01*
X157324744Y-144736788D01*
X157315860Y-144859385D01*
G37*
G36*
X159435842Y-143357638D02*
G01*
X159570646Y-143384809D01*
X159686811Y-143430094D01*
X159784338Y-143493493D01*
X159882345Y-143604568D01*
X159941150Y-143744579D01*
X159960751Y-143913525D01*
X159953663Y-144028246D01*
X159932399Y-144128792D01*
X159870444Y-144276853D01*
X159666729Y-144211748D01*
X159712932Y-144105690D01*
X159736034Y-143938727D01*
X159706369Y-143788828D01*
X159617375Y-143687758D01*
X159526718Y-143645171D01*
X159412959Y-143619619D01*
X159276099Y-143611102D01*
X159158489Y-143618190D01*
X159061882Y-143639454D01*
X158924321Y-143712960D01*
X158850816Y-143815867D01*
X158828764Y-143934527D01*
X158850816Y-144090989D01*
X158904370Y-144207548D01*
X158698554Y-144274753D01*
X158673352Y-144231699D01*
X158641850Y-144161344D01*
X158615598Y-144063687D01*
X158604047Y-143938727D01*
X158615335Y-143815605D01*
X158649200Y-143702459D01*
X158704855Y-143601651D01*
X158781511Y-143515544D01*
X158878380Y-143445451D01*
X158994677Y-143392685D01*
X159129612Y-143359607D01*
X159282399Y-143348582D01*
X159435842Y-143357638D01*
G37*
G36*
X162566264Y-143809304D02*
G01*
X162538700Y-143925076D01*
X162491183Y-144027721D01*
X162422141Y-144115140D01*
X162330521Y-144186283D01*
X162215275Y-144240100D01*
X162074826Y-144273965D01*
X161907601Y-144285254D01*
X161744051Y-144275015D01*
X161606228Y-144244300D01*
X161492294Y-144195209D01*
X161400412Y-144129842D01*
X161330319Y-144048198D01*
X161281753Y-143950278D01*
X161253401Y-143838707D01*
X161245731Y-143739212D01*
X161468667Y-143739212D01*
X161505420Y-143879922D01*
X161603078Y-143966029D01*
X161743788Y-144010132D01*
X161907601Y-144022733D01*
X162000271Y-144018796D01*
X162085065Y-144006982D01*
X162224725Y-143954478D01*
X162317132Y-143857871D01*
X162350735Y-143709809D01*
X162350735Y-143686708D01*
X162348635Y-143663606D01*
X161474968Y-143663606D01*
X161469717Y-143701409D01*
X161468667Y-143739212D01*
X161245731Y-143739212D01*
X161243950Y-143716110D01*
X161250250Y-143571199D01*
X161275452Y-143405286D01*
X162543950Y-143405286D01*
X162568102Y-143547047D01*
X162575452Y-143682507D01*
X162575148Y-143686708D01*
X162566264Y-143809304D01*
G37*
G36*
X165167052Y-143425237D02*
G01*
X165189103Y-143512394D01*
X165204855Y-143613202D01*
X165211155Y-143716110D01*
X165203279Y-143836344D01*
X165179653Y-143940827D01*
X165141850Y-144029559D01*
X165091446Y-144102540D01*
X164958086Y-144199147D01*
X164791123Y-144230649D01*
X164669313Y-144216415D01*
X164567106Y-144173712D01*
X164484499Y-144102540D01*
X164421961Y-144002432D01*
X164379958Y-143872922D01*
X164358489Y-143714010D01*
X164238780Y-143724510D01*
X164098069Y-143735011D01*
X164098069Y-144182346D01*
X163883853Y-144182346D01*
X163883853Y-143518695D01*
X164044253Y-143510819D01*
X164210428Y-143499793D01*
X164381329Y-143485092D01*
X164555905Y-143466191D01*
X164560368Y-143610577D01*
X164573756Y-143724510D01*
X164624160Y-143876772D01*
X164701866Y-143948178D01*
X164801624Y-143966029D01*
X164870929Y-143955528D01*
X164930784Y-143916675D01*
X164973837Y-143838969D01*
X164990638Y-143714010D01*
X164985913Y-143615827D01*
X164971737Y-143535496D01*
X164929733Y-143417887D01*
X165143950Y-143365383D01*
X165167052Y-143425237D01*
G37*
G36*
X164001462Y-144393412D02*
G01*
X164148473Y-144428065D01*
X164258498Y-144455833D01*
X164372957Y-144485936D01*
X164491850Y-144518372D01*
X164613076Y-144552674D01*
X164734535Y-144588377D01*
X164856228Y-144625480D01*
X165029491Y-144680609D01*
X165183853Y-144732588D01*
X165183853Y-144999308D01*
X165071961Y-145039445D01*
X164957502Y-145078648D01*
X164840477Y-145116918D01*
X164722868Y-145153670D01*
X164606659Y-145188323D01*
X164491850Y-145220876D01*
X164324624Y-145265504D01*
X164165275Y-145304882D01*
X164017213Y-145338747D01*
X163883853Y-145366837D01*
X163883853Y-145095916D01*
X163993061Y-145077014D01*
X164119071Y-145053913D01*
X164255319Y-145027661D01*
X164395242Y-144999308D01*
X164535953Y-144968856D01*
X164674564Y-144936304D01*
X164804511Y-144902701D01*
X164919233Y-144869098D01*
X164802936Y-144835233D01*
X164672464Y-144800843D01*
X164533853Y-144767241D01*
X164393142Y-144735738D01*
X164253481Y-144706598D01*
X164118021Y-144680084D01*
X163992799Y-144658032D01*
X163883853Y-144642281D01*
X163883853Y-144369260D01*
X164001462Y-144393412D01*
G37*
G36*
X156814972Y-142307951D02*
G01*
X156952270Y-142336304D01*
X157068829Y-142381982D01*
X157164386Y-142443412D01*
X157238942Y-142519805D01*
X157292496Y-142610375D01*
X157324786Y-142714070D01*
X157335549Y-142829842D01*
X157330299Y-142958214D01*
X157314548Y-143066110D01*
X157276745Y-143209971D01*
X156627795Y-143209971D01*
X156627795Y-142951651D01*
X157102431Y-142951651D01*
X157108732Y-142901247D01*
X157110832Y-142850843D01*
X157083267Y-142725359D01*
X157000574Y-142634527D01*
X156913417Y-142593690D01*
X156798958Y-142569188D01*
X156657197Y-142561021D01*
X156560852Y-142565484D01*
X156473433Y-142578872D01*
X156330622Y-142637677D01*
X156237165Y-142741635D01*
X156203562Y-142897047D01*
X156226664Y-143035657D01*
X156279168Y-143149066D01*
X156073352Y-143216271D01*
X156048150Y-143173218D01*
X156016648Y-143100762D01*
X155990396Y-142996804D01*
X155978845Y-142861344D01*
X155989608Y-142747410D01*
X156021898Y-142640827D01*
X156075715Y-142544745D01*
X156151058Y-142462313D01*
X156247403Y-142394583D01*
X156364225Y-142342604D01*
X156500998Y-142309527D01*
X156657197Y-142298501D01*
X156814972Y-142307951D01*
G37*
G36*
X159926099Y-142470714D02*
G01*
X159952088Y-142583598D01*
X159960751Y-142729034D01*
X159949667Y-142876395D01*
X159916414Y-142996454D01*
X159860994Y-143089212D01*
X159740497Y-143178206D01*
X159578522Y-143207871D01*
X159480602Y-143198945D01*
X159401058Y-143172168D01*
X159283449Y-143080811D01*
X159207843Y-142959002D01*
X159156389Y-142831942D01*
X159124887Y-142751086D01*
X159086034Y-142677580D01*
X159035630Y-142624026D01*
X158969475Y-142603024D01*
X158886635Y-142625893D01*
X158836931Y-142694498D01*
X158820363Y-142808840D01*
X158841365Y-142956901D01*
X158891769Y-143073460D01*
X158692254Y-143149066D01*
X158631349Y-142998905D01*
X158610872Y-142902035D01*
X158604047Y-142789939D01*
X158615481Y-142661245D01*
X158649784Y-142552387D01*
X158706955Y-142463363D01*
X158829814Y-142374369D01*
X158992577Y-142344704D01*
X159146939Y-142378307D01*
X159250897Y-142463363D01*
X159320202Y-142577822D01*
X159368506Y-142699632D01*
X159405258Y-142787838D01*
X159449362Y-142867645D01*
X159505016Y-142926449D01*
X159576422Y-142949551D01*
X159638376Y-142940100D01*
X159692981Y-142905447D01*
X159730784Y-142837192D01*
X159744435Y-142729034D01*
X159737084Y-142624288D01*
X159715032Y-142536869D01*
X159652027Y-142401409D01*
X159862044Y-142325803D01*
X159926099Y-142470714D01*
G37*
G36*
X162551300Y-142470714D02*
G01*
X162577290Y-142583598D01*
X162585953Y-142729034D01*
X162574869Y-142876395D01*
X162541616Y-142996454D01*
X162486195Y-143089212D01*
X162365699Y-143178206D01*
X162203724Y-143207871D01*
X162105804Y-143198945D01*
X162026260Y-143172168D01*
X161908651Y-143080811D01*
X161833045Y-142959002D01*
X161781591Y-142831942D01*
X161750089Y-142751086D01*
X161711236Y-142677580D01*
X161660832Y-142624026D01*
X161594677Y-142603024D01*
X161511837Y-142625893D01*
X161462133Y-142694498D01*
X161445565Y-142808840D01*
X161466567Y-142956901D01*
X161516971Y-143073460D01*
X161317456Y-143149066D01*
X161256551Y-142998905D01*
X161236074Y-142902035D01*
X161229249Y-142789939D01*
X161240683Y-142661245D01*
X161274986Y-142552387D01*
X161332157Y-142463363D01*
X161455016Y-142374369D01*
X161617779Y-142344704D01*
X161772141Y-142378307D01*
X161876099Y-142463363D01*
X161945404Y-142577822D01*
X161993708Y-142699632D01*
X162030460Y-142787838D01*
X162074564Y-142867645D01*
X162130218Y-142926449D01*
X162201624Y-142949551D01*
X162263578Y-142940100D01*
X162318183Y-142905447D01*
X162355985Y-142837192D01*
X162369637Y-142729034D01*
X162362286Y-142624288D01*
X162340234Y-142536869D01*
X162277229Y-142401409D01*
X162487246Y-142325803D01*
X162551300Y-142470714D01*
G37*
%TD*%
M02*
