M48
; DRILL file {KiCad 8.0.2-rc1} date 2024-08-28T13:59:41+0200
; FORMAT={-:-/ absolute / inch / decimal}
; #@! TF.CreationDate,2024-08-28T13:59:41+02:00
; #@! TF.GenerationSoftware,Kicad,Pcbnew,8.0.2-rc1
; #@! TF.FileFunction,Plated,1,2,PTH
FMAT,2
INCH
; #@! TA.AperFunction,Plated,PTH,ViaDrill
T1C0.0118
; #@! TA.AperFunction,Plated,PTH,ComponentDrill
T2C0.0315
; #@! TA.AperFunction,Plated,PTH,ComponentDrill
T3C0.0394
; #@! TA.AperFunction,Plated,PTH,ComponentDrill
T4C0.0433
; #@! TA.AperFunction,Plated,PTH,ComponentDrill
T5C0.0469
; #@! TA.AperFunction,Plated,PTH,ComponentDrill
T6C0.0598
; #@! TA.AperFunction,Plated,PTH,ComponentDrill
T7C0.1063
; #@! TA.AperFunction,Plated,PTH,ComponentDrill
T8C0.1772
%
G90
G05
T1
X3.3661Y-4.0551
X3.4646Y-4.124
X3.4646Y-4.1535
X3.4843Y-2.2047
X3.4843Y-4.5768
X3.4843Y-4.6063
X3.4941Y-4.124
X3.4941Y-4.1535
X3.5138Y-4.5768
X3.5138Y-4.6063
X3.5827Y-2.9528
X3.75Y-4.7736
X3.7795Y-4.7736
X3.8386Y-4.3602
X3.8386Y-4.3898
X3.8583Y-4.7244
X3.8681Y-4.3602
X3.8681Y-4.3898
X3.8878Y-4.8031
X3.9173Y-2.6772
X3.937Y-2.5295
X3.9567Y-2.6772
X3.9731Y-2.1457
X3.9764Y-2.5295
X4.0256Y-2.2047
X4.0256Y-4.6161
X4.061Y-2.1457
X4.0748Y-2.687
X4.0748Y-2.8346
X4.0846Y-2.0925
X4.0929Y-2.3622
X4.1102Y-4.1732
X4.1142Y-3.2185
X4.128Y-2.1457
X4.1339Y-4.252
X4.1378Y-2.5295
X4.1535Y-2.1161
X4.1562Y-3.2848
X4.1732Y-3.9449
X4.1732Y-3.9764
X4.1732Y-4.0157
X4.1732Y-4.1732
X4.1732Y-4.2126
X4.1929Y-4.685
X4.1929Y-4.7933
X4.1978Y-2.5554
X4.1988Y-4.6161
X4.252Y-3.7598
X4.252Y-4.6555
X4.2913Y-3.3465
X4.3012Y-2.0925
X4.3307Y-3.3465
X4.3504Y-3.4252
X4.3602Y-3.6476
X4.3701Y-4.9453
X4.626Y-4.9055
X4.6457Y-4.9449
X4.685Y-1.8209
X4.7244Y-4.5669
X4.9311Y-2.7461
X5.0015Y-3.3278
X5.0394Y-2.9626
X5.0394Y-3.4646
X5.0394Y-3.4941
X5.0689Y-3.4646
X5.0689Y-3.4941
X5.1083Y-2.8937
X5.1181Y-4.9213
X5.1404Y-4.9435
X5.1662Y-4.9693
X5.3051Y-2.4606
X5.3937Y-3.2874
X5.3937Y-4.2717
X5.4075Y-2.7303
X5.4724Y-3.3661
X5.4724Y-4.937
X5.5512Y-3.3071
X5.5807Y-4.3012
X5.7087Y-4.5709
X5.9055Y-3.3169
X5.9055Y-3.3465
X5.935Y-3.3169
X5.935Y-3.3465
X6.0433Y-4.5906
X6.1027Y-4.6007
X6.3583Y-1.6299
X6.4393Y-4.6014
X6.752Y-1.8307
X6.752Y-3.189
X6.8012Y-2.0768
X6.811Y-3.189
X6.811Y-3.2283
X6.8504Y-3.189
X6.8504Y-3.2283
X6.8602Y-1.8701
X6.9347Y-2.7461
X6.9488Y-3.3622
X6.9488Y-4.5315
X7.0079Y-3.3871
X7.0472Y-1.8504
X7.0472Y-3.185
X7.0768Y-3.1693
X7.0815Y-2.7421
X7.0815Y-2.7756
X7.0965Y-1.8504
X7.1161Y-3.0217
X7.1555Y-2.8051
X7.1555Y-3.0118
X7.185Y-2.8051
X7.2736Y-2.7756
X7.2835Y-3.4252
X7.2854Y-3.3871
X7.3023Y-2.7392
T2
X3.3268Y-1.8466
X3.3268Y-1.9844
X3.7976Y-1.9374
X3.7976Y-2.0374
X3.8976Y-1.9374
X3.8976Y-2.0374
X7.4394Y-1.8988
X7.4394Y-1.9988
X7.5394Y-1.8996
X7.5394Y-1.9996
T3
X2.6673Y-1.5846
X2.7673Y-1.5846
X2.8673Y-1.5846
X2.9673Y-1.5846
X3.0Y-1.85
X3.0Y-2.025
X3.0Y-2.2
X3.0Y-2.35
X3.0Y-2.525
X3.2998Y-2.25
X3.2998Y-4.75
X3.3998Y-2.25
X3.3998Y-4.75
X3.7392Y-3.2953
X3.7392Y-3.3953
X3.7392Y-3.4953
X3.7392Y-3.5953
X4.15Y-1.4
X4.15Y-1.9
X4.25Y-1.4
X4.25Y-1.9
X4.35Y-1.4
X4.35Y-1.9
X4.3998Y-4.65
X4.3998Y-4.75
X4.4006Y-2.25
X4.4006Y-2.35
X4.4398Y-2.55
X4.4398Y-2.65
X4.45Y-1.4
X4.45Y-1.9
X4.4998Y-4.65
X4.4998Y-4.75
X4.5006Y-2.25
X4.5006Y-2.35
X4.5398Y-2.55
X4.5398Y-2.65
X4.55Y-1.4
X4.55Y-1.9
X4.5998Y-4.65
X4.5998Y-4.75
X4.6006Y-2.25
X4.6006Y-2.35
X4.6398Y-2.55
X4.6398Y-2.65
X4.65Y-1.4
X4.65Y-1.9
X4.6998Y-4.65
X4.6998Y-4.75
X4.7006Y-2.25
X4.7006Y-2.35
X4.7398Y-2.55
X4.7398Y-2.65
X4.75Y-1.4
X4.75Y-1.9
X4.7998Y-4.35
X4.7998Y-4.45
X4.7998Y-4.65
X4.7998Y-4.75
X4.8006Y-2.25
X4.8006Y-2.35
X4.8398Y-2.55
X4.8398Y-2.65
X4.85Y-1.4
X4.85Y-1.9
X4.8998Y-4.35
X4.8998Y-4.45
X4.8998Y-4.65
X4.8998Y-4.75
X4.9006Y-2.25
X4.9006Y-2.35
X4.9398Y-2.55
X4.9398Y-2.65
X4.9998Y-4.35
X4.9998Y-4.45
X4.9998Y-4.65
X4.9998Y-4.75
X5.0006Y-2.25
X5.0006Y-2.35
X5.0398Y-2.55
X5.0398Y-2.65
X5.0998Y-4.35
X5.0998Y-4.45
X5.0998Y-4.65
X5.0998Y-4.75
X5.1006Y-2.25
X5.1006Y-2.35
X5.1083Y-1.7618
X5.1083Y-1.8618
X5.1083Y-1.9618
X5.1398Y-2.55
X5.1398Y-2.65
X5.1998Y-4.35
X5.1998Y-4.45
X5.1998Y-4.65
X5.1998Y-4.75
X5.2006Y-2.25
X5.2006Y-2.35
X5.2083Y-1.7618
X5.2083Y-1.8618
X5.2083Y-1.9618
X5.2398Y-2.55
X5.2398Y-2.65
X5.2998Y-4.35
X5.2998Y-4.45
X5.2998Y-4.65
X5.2998Y-4.75
X5.3006Y-2.25
X5.3006Y-2.35
X5.3083Y-1.7618
X5.3083Y-1.8618
X5.3083Y-1.9618
X5.3398Y-2.55
X5.3398Y-2.65
X5.3998Y-4.35
X5.3998Y-4.45
X5.3998Y-4.65
X5.3998Y-4.75
X5.4006Y-2.25
X5.4006Y-2.35
X5.4083Y-1.7618
X5.4083Y-1.8618
X5.4083Y-1.9618
X5.4998Y-2.55
X5.4998Y-2.65
X5.4998Y-4.35
X5.4998Y-4.45
X5.4998Y-4.65
X5.4998Y-4.75
X5.5006Y-2.25
X5.5006Y-2.35
X5.5083Y-1.7618
X5.5083Y-1.8618
X5.5083Y-1.9618
X5.5998Y-2.55
X5.5998Y-2.65
X5.5998Y-4.65
X5.5998Y-4.75
X5.6006Y-2.25
X5.6006Y-2.35
X5.6083Y-1.7618
X5.6083Y-1.8618
X5.6083Y-1.9618
X5.6998Y-2.55
X5.6998Y-2.65
X5.6998Y-4.35
X5.6998Y-4.45
X5.6998Y-4.65
X5.6998Y-4.75
X5.7006Y-2.25
X5.7006Y-2.35
X5.7083Y-1.7618
X5.7083Y-1.8618
X5.7083Y-1.9618
X5.7998Y-2.55
X5.7998Y-2.65
X5.7998Y-4.35
X5.7998Y-4.45
X5.7998Y-4.65
X5.7998Y-4.75
X5.8006Y-2.25
X5.8006Y-2.35
X5.8083Y-1.7618
X5.8083Y-1.8618
X5.8083Y-1.9618
X5.8998Y-2.55
X5.8998Y-2.65
X5.8998Y-4.35
X5.8998Y-4.45
X5.8998Y-4.65
X5.8998Y-4.75
X5.9006Y-2.25
X5.9006Y-2.35
X5.9083Y-1.7618
X5.9083Y-1.8618
X5.9083Y-1.9618
X5.9998Y-2.55
X5.9998Y-2.65
X5.9998Y-4.35
X5.9998Y-4.45
X5.9998Y-4.65
X5.9998Y-4.75
X6.0006Y-2.25
X6.0006Y-2.35
X6.0083Y-1.7618
X6.0083Y-1.8618
X6.0083Y-1.9618
X6.0998Y-2.55
X6.0998Y-2.65
X6.0998Y-4.35
X6.0998Y-4.45
X6.0998Y-4.65
X6.0998Y-4.75
X6.1006Y-2.25
X6.1006Y-2.35
X6.1083Y-1.7618
X6.1083Y-1.8618
X6.1083Y-1.9618
X6.1998Y-2.55
X6.1998Y-2.65
X6.1998Y-4.35
X6.1998Y-4.45
X6.1998Y-4.65
X6.1998Y-4.75
X6.2006Y-2.25
X6.2006Y-2.35
X6.2083Y-1.7618
X6.2083Y-1.8618
X6.2083Y-1.9618
X6.2998Y-2.55
X6.2998Y-2.65
X6.2998Y-4.35
X6.2998Y-4.45
X6.2998Y-4.65
X6.2998Y-4.75
X6.3006Y-2.25
X6.3006Y-2.35
X6.3083Y-1.7618
X6.3083Y-1.8618
X6.3083Y-1.9618
X6.3998Y-2.55
X6.3998Y-2.65
X6.3998Y-4.35
X6.3998Y-4.45
X6.3998Y-4.65
X6.3998Y-4.75
X6.4006Y-2.25
X6.4006Y-2.35
X6.4998Y-2.55
X6.4998Y-2.65
X6.4998Y-4.35
X6.4998Y-4.45
X6.4998Y-4.65
X6.4998Y-4.75
X6.5006Y-2.25
X6.5006Y-2.35
X6.5998Y-2.55
X6.5998Y-2.65
X6.5998Y-4.35
X6.5998Y-4.45
X6.5998Y-4.65
X6.5998Y-4.75
X6.6006Y-2.25
X6.6006Y-2.35
X6.6998Y-2.55
X6.6998Y-2.65
X6.6998Y-4.35
X6.6998Y-4.45
X6.6998Y-4.65
X6.6998Y-4.75
X6.7006Y-2.25
X6.7006Y-2.35
X6.7998Y-2.55
X6.7998Y-2.65
X6.7998Y-4.35
X6.7998Y-4.45
X6.7998Y-4.65
X6.7998Y-4.75
X6.8006Y-2.25
X6.8006Y-2.35
X6.8998Y-2.55
X6.8998Y-2.65
X6.8998Y-4.35
X6.8998Y-4.45
X6.8998Y-4.65
X6.8998Y-4.75
X6.9006Y-2.25
X6.9006Y-2.35
X6.9998Y-2.55
X6.9998Y-2.65
X6.9998Y-4.35
X6.9998Y-4.45
X6.9998Y-4.65
X6.9998Y-4.75
X7.0006Y-2.25
X7.0006Y-2.35
X7.0998Y-2.55
X7.0998Y-2.65
X7.0998Y-4.35
X7.0998Y-4.45
X7.0998Y-4.65
X7.0998Y-4.75
X7.1006Y-2.25
X7.1006Y-2.35
X7.1998Y-4.65
X7.1998Y-4.75
X7.2006Y-2.25
X7.2006Y-2.35
X7.2998Y-4.65
X7.2998Y-4.75
X7.3006Y-2.25
X7.3006Y-2.35
X7.3998Y-4.65
X7.3998Y-4.75
X7.4006Y-2.25
X7.4006Y-2.35
X7.4998Y-4.65
X7.4998Y-4.75
X7.5006Y-2.25
X7.5006Y-2.35
X7.5998Y-4.65
X7.5998Y-4.75
X7.6006Y-2.25
X7.6006Y-2.35
X7.6998Y-4.65
X7.6998Y-4.75
X7.7006Y-2.25
X7.7006Y-2.35
X7.7998Y-4.65
X7.7998Y-4.75
X7.8006Y-2.25
X7.8006Y-2.35
X7.8337Y-2.7953
X7.8337Y-2.8953
X7.8337Y-2.9953
X7.8337Y-3.0953
X7.8337Y-3.1953
X7.8337Y-3.2953
X7.8337Y-3.3953
X7.8337Y-3.4953
X7.8337Y-3.5953
X7.8337Y-3.6953
X7.8337Y-3.7953
X7.8337Y-3.8953
X7.8337Y-3.9953
X7.8337Y-4.0953
X7.8998Y-4.65
X7.8998Y-4.75
X7.9006Y-2.25
X7.9006Y-2.35
T4
X2.5Y-3.5872
X2.6Y-3.5872
X2.7Y-3.5872
T5
X2.775Y-5.1
X2.775Y-5.45
X2.875Y-5.1
X2.875Y-5.45
X2.975Y-5.1
X2.975Y-5.45
X3.075Y-5.1
X3.075Y-5.45
X3.275Y-5.1
X3.275Y-5.45
X3.375Y-5.1
X3.375Y-5.45
X3.475Y-5.1
X3.475Y-5.45
X3.575Y-5.1
X3.575Y-5.45
X3.8657Y-5.1
X3.8657Y-5.45
X3.9657Y-5.1
X3.9657Y-5.45
X4.0657Y-5.1
X4.0657Y-5.45
X4.1657Y-5.1
X4.1657Y-5.45
X4.4457Y-5.1
X4.4457Y-5.45
X4.5457Y-5.1
X4.5457Y-5.45
X4.6457Y-5.1
X4.6457Y-5.45
X4.7457Y-5.1
X4.7457Y-5.45
X4.9457Y-5.1
X4.9457Y-5.45
X5.0457Y-5.1
X5.0457Y-5.45
X5.1457Y-5.1
X5.1457Y-5.45
X5.2Y-1.4508
X5.2457Y-5.1
X5.2457Y-5.45
X5.3Y-1.4508
X5.4Y-1.4508
X5.5Y-1.4508
X5.6Y-1.4508
X5.7Y-1.4508
X5.8Y-1.4508
X5.9Y-1.4508
X6.4Y-1.45
X6.5Y-1.45
X6.6Y-1.45
X6.7Y-1.45
X6.8Y-1.45
X6.9Y-1.45
X7.0Y-1.45
X7.1Y-1.45
X7.45Y-1.45
X7.55Y-1.45
X7.65Y-1.45
X7.75Y-1.45
X7.9913Y-1.7504
X7.9913Y-1.8504
X7.9913Y-1.9504
T6
X3.225Y-1.5
X3.425Y-1.5
X3.7Y-1.5
X3.9Y-1.5
T7
X2.6031Y-4.5
X2.8Y-4.5
T8
X2.5165Y-4.0
X2.8Y-4.0
M30
