%TF.GenerationSoftware,KiCad,Pcbnew,8.0.2-rc1*%
%TF.CreationDate,2024-08-28T13:59:49+02:00*%
%TF.ProjectId,Carte-Principale,43617274-652d-4507-9269-6e636970616c,rev?*%
%TF.SameCoordinates,Original*%
%TF.FileFunction,Legend,Bot*%
%TF.FilePolarity,Positive*%
%FSLAX46Y46*%
G04 Gerber Fmt 4.6, Leading zero omitted, Abs format (unit mm)*
G04 Created by KiCad (PCBNEW 8.0.2-rc1) date 2024-08-28 13:59:49*
%MOMM*%
%LPD*%
G01*
G04 APERTURE LIST*
%ADD10C,0.550000*%
%ADD11C,0.120000*%
%ADD12C,0.000000*%
G04 APERTURE END LIST*
D10*
X132275000Y-61500000D02*
G75*
G02*
X131725000Y-61500000I-275000J0D01*
G01*
X131725000Y-61500000D02*
G75*
G02*
X132275000Y-61500000I275000J0D01*
G01*
X198275000Y-122500000D02*
G75*
G02*
X197725000Y-122500000I-275000J0D01*
G01*
X197725000Y-122500000D02*
G75*
G02*
X198275000Y-122500000I275000J0D01*
G01*
X137275000Y-122500000D02*
G75*
G02*
X136725000Y-122500000I-275000J0D01*
G01*
X136725000Y-122500000D02*
G75*
G02*
X137275000Y-122500000I275000J0D01*
G01*
X157775000Y-61500000D02*
G75*
G02*
X157225000Y-61500000I-275000J0D01*
G01*
X157225000Y-61500000D02*
G75*
G02*
X157775000Y-61500000I275000J0D01*
G01*
X122275000Y-122500000D02*
G75*
G02*
X121725000Y-122500000I-275000J0D01*
G01*
X121725000Y-122500000D02*
G75*
G02*
X122275000Y-122500000I275000J0D01*
G01*
X122275000Y-55500000D02*
G75*
G02*
X121725000Y-55500000I-275000J0D01*
G01*
X121725000Y-55500000D02*
G75*
G02*
X122275000Y-55500000I275000J0D01*
G01*
X185775000Y-61500000D02*
G75*
G02*
X185225000Y-61500000I-275000J0D01*
G01*
X185225000Y-61500000D02*
G75*
G02*
X185775000Y-61500000I275000J0D01*
G01*
X188275000Y-55500000D02*
G75*
G02*
X187725000Y-55500000I-275000J0D01*
G01*
X187725000Y-55500000D02*
G75*
G02*
X188275000Y-55500000I275000J0D01*
G01*
X124775000Y-122500000D02*
G75*
G02*
X124225000Y-122500000I-275000J0D01*
G01*
X124225000Y-122500000D02*
G75*
G02*
X124775000Y-122500000I275000J0D01*
G01*
X162775000Y-122500000D02*
G75*
G02*
X162225000Y-122500000I-275000J0D01*
G01*
X162225000Y-122500000D02*
G75*
G02*
X162775000Y-122500000I275000J0D01*
G01*
D11*
%TO.C,U6*%
X102880000Y-68965000D02*
X101480000Y-68965000D01*
X102880000Y-71285000D02*
X101470000Y-71285000D01*
X101340000Y-71565000D02*
X100860000Y-71565000D01*
X101100000Y-71235000D01*
X101340000Y-71565000D01*
G36*
X101340000Y-71565000D02*
G01*
X100860000Y-71565000D01*
X101100000Y-71235000D01*
X101340000Y-71565000D01*
G37*
%TO.C,U4*%
X102880000Y-57190000D02*
X101480000Y-57190000D01*
X102880000Y-59510000D02*
X101470000Y-59510000D01*
X101340000Y-59790000D02*
X100860000Y-59790000D01*
X101100000Y-59460000D01*
X101340000Y-59790000D01*
G36*
X101340000Y-59790000D02*
G01*
X100860000Y-59790000D01*
X101100000Y-59460000D01*
X101340000Y-59790000D01*
G37*
%TO.C,R31*%
X93256263Y-112545000D02*
X94703737Y-112545000D01*
X93256263Y-115255000D02*
X94703737Y-115255000D01*
%TO.C,R32*%
X93256263Y-107465000D02*
X94703737Y-107465000D01*
X93256263Y-110175000D02*
X94703737Y-110175000D01*
%TO.C,R27*%
X170276263Y-42895000D02*
X171723737Y-42895000D01*
X170276263Y-45605000D02*
X171723737Y-45605000D01*
D12*
%TO.C,kibuzzard-35*%
G36*
X102960097Y-132699216D02*
G01*
X104129402Y-132699216D01*
X104129402Y-132979669D01*
X102960097Y-132979669D01*
X102960097Y-133348328D01*
X102729402Y-133348328D01*
X102729402Y-132330557D01*
X102960097Y-132330557D01*
X102960097Y-132699216D01*
G37*
G36*
X100822779Y-132719572D02*
G01*
X101216317Y-132719572D01*
X101216317Y-132959313D01*
X100822779Y-132959313D01*
X100822779Y-133314402D01*
X100594346Y-133314402D01*
X100594346Y-132959313D01*
X100200808Y-132959313D01*
X100200808Y-132719572D01*
X100594346Y-132719572D01*
X100594346Y-132364483D01*
X100822779Y-132364483D01*
X100822779Y-132719572D01*
G37*
G36*
X98475121Y-133759960D02*
G01*
X97545557Y-133759960D01*
X97700736Y-133844020D01*
X97855663Y-133924311D01*
X98010339Y-134000832D01*
X98165015Y-134073584D01*
X98319943Y-134142566D01*
X98475121Y-134207779D01*
X98475121Y-134431688D01*
X97075121Y-134431688D01*
X97075121Y-134180638D01*
X97936834Y-134180638D01*
X97848627Y-134140775D01*
X97746850Y-134093562D01*
X97636591Y-134040412D01*
X97522940Y-133982738D01*
X97407310Y-133921955D01*
X97291115Y-133859475D01*
X97178877Y-133796147D01*
X97075121Y-133732819D01*
X97075121Y-133508910D01*
X98475121Y-133508910D01*
X98475121Y-133759960D01*
G37*
G36*
X104129402Y-133730557D02*
G01*
X104006987Y-133782577D01*
X103870436Y-133843643D01*
X103729362Y-133909233D01*
X103593376Y-133974822D01*
X103733603Y-134041260D01*
X103873829Y-134104871D01*
X104007835Y-134162262D01*
X104129402Y-134210040D01*
X104129402Y-134510848D01*
X103981260Y-134449782D01*
X103890792Y-134408223D01*
X103793538Y-134360444D01*
X103691478Y-134307577D01*
X103586591Y-134250751D01*
X103482553Y-134191381D01*
X103383037Y-134130880D01*
X102729402Y-134488231D01*
X102729402Y-134207779D01*
X103177221Y-133974822D01*
X102729402Y-133753174D01*
X102729402Y-133452367D01*
X103389822Y-133818764D01*
X103489055Y-133763352D01*
X103592246Y-133705679D01*
X103696002Y-133648288D01*
X103796931Y-133593724D01*
X103893053Y-133542835D01*
X103982391Y-133496470D01*
X104129402Y-133429750D01*
X104129402Y-133730557D01*
G37*
G36*
X106956543Y-133730557D02*
G01*
X106834128Y-133782577D01*
X106697577Y-133843643D01*
X106556502Y-133909233D01*
X106420517Y-133974822D01*
X106560743Y-134041260D01*
X106700969Y-134104871D01*
X106834976Y-134162262D01*
X106956543Y-134210040D01*
X106956543Y-134510848D01*
X106808401Y-134449782D01*
X106717932Y-134408223D01*
X106620679Y-134360444D01*
X106518619Y-134307577D01*
X106413732Y-134250751D01*
X106309693Y-134191381D01*
X106210178Y-134130880D01*
X105556543Y-134488231D01*
X105556543Y-134207779D01*
X106004362Y-133974822D01*
X105556543Y-133753174D01*
X105556543Y-133452367D01*
X106216963Y-133818764D01*
X106316195Y-133763352D01*
X106419386Y-133705679D01*
X106523142Y-133648288D01*
X106624071Y-133593724D01*
X106720194Y-133542835D01*
X106809532Y-133496470D01*
X106956543Y-133429750D01*
X106956543Y-133730557D01*
G37*
G36*
X98483320Y-135092956D02*
G01*
X98453635Y-135217633D01*
X98402464Y-135328174D01*
X98328110Y-135422318D01*
X98229443Y-135498934D01*
X98105331Y-135556890D01*
X97954079Y-135593360D01*
X97773990Y-135605517D01*
X97597859Y-135594491D01*
X97449435Y-135561414D01*
X97326737Y-135508546D01*
X97227787Y-135438150D01*
X97152302Y-135350226D01*
X97100000Y-135244774D01*
X97069467Y-135124620D01*
X97061207Y-135017472D01*
X97301292Y-135017472D01*
X97340872Y-135169006D01*
X97446042Y-135261737D01*
X97597577Y-135309233D01*
X97773990Y-135322803D01*
X97873788Y-135318562D01*
X97965105Y-135305840D01*
X98115509Y-135249297D01*
X98215024Y-135145258D01*
X98251212Y-134985808D01*
X98251212Y-134960929D01*
X98248950Y-134936050D01*
X97308078Y-134936050D01*
X97302423Y-134976761D01*
X97301292Y-135017472D01*
X97061207Y-135017472D01*
X97059289Y-134992593D01*
X97066074Y-134836535D01*
X97093215Y-134657859D01*
X98459289Y-134657859D01*
X98485299Y-134810525D01*
X98493215Y-134956405D01*
X98492887Y-134960929D01*
X98483320Y-135092956D01*
G37*
G36*
X101284168Y-133548489D02*
G01*
X101307916Y-133642351D01*
X101324879Y-133750913D01*
X101331664Y-133861737D01*
X101323183Y-133991220D01*
X101297738Y-134103740D01*
X101257027Y-134199297D01*
X101202746Y-134277892D01*
X101059128Y-134381931D01*
X100879321Y-134415856D01*
X100748142Y-134400527D01*
X100638072Y-134354539D01*
X100549111Y-134277892D01*
X100481763Y-134170083D01*
X100436528Y-134030611D01*
X100413409Y-133859475D01*
X100284491Y-133870784D01*
X100132956Y-133882092D01*
X100132956Y-134363837D01*
X99902262Y-134363837D01*
X99902262Y-133649136D01*
X100075000Y-133640654D01*
X100253958Y-133628780D01*
X100438005Y-133612948D01*
X100626010Y-133592593D01*
X100630816Y-133748086D01*
X100645234Y-133870784D01*
X100699515Y-134034758D01*
X100783199Y-134111656D01*
X100890630Y-134130880D01*
X100965267Y-134119572D01*
X101029725Y-134077730D01*
X101076090Y-133994047D01*
X101094184Y-133859475D01*
X101089095Y-133753740D01*
X101073829Y-133667229D01*
X101028595Y-133540574D01*
X101259289Y-133484031D01*
X101284168Y-133548489D01*
G37*
G36*
X100028918Y-134591139D02*
G01*
X100187237Y-134628457D01*
X100305726Y-134658362D01*
X100428989Y-134690780D01*
X100557027Y-134725711D01*
X100687579Y-134762652D01*
X100818381Y-134801101D01*
X100949435Y-134841058D01*
X101136026Y-134900428D01*
X101302262Y-134956405D01*
X101302262Y-135243643D01*
X101181763Y-135286867D01*
X101058499Y-135329085D01*
X100932472Y-135370299D01*
X100805816Y-135409879D01*
X100680668Y-135447197D01*
X100557027Y-135482254D01*
X100376939Y-135530315D01*
X100205331Y-135572722D01*
X100045880Y-135609192D01*
X99902262Y-135639443D01*
X99902262Y-135347682D01*
X100019871Y-135327326D01*
X100155574Y-135302447D01*
X100302302Y-135274176D01*
X100452989Y-135243643D01*
X100604523Y-135210848D01*
X100753796Y-135175792D01*
X100893740Y-135139604D01*
X101017286Y-135103417D01*
X100892044Y-135066947D01*
X100751535Y-135029911D01*
X100602262Y-134993724D01*
X100450727Y-134959798D01*
X100300323Y-134928417D01*
X100154443Y-134899863D01*
X100019588Y-134876115D01*
X99902262Y-134859152D01*
X99902262Y-134565129D01*
X100028918Y-134591139D01*
G37*
G36*
X97943901Y-132345258D02*
G01*
X98091761Y-132375792D01*
X98217286Y-132424984D01*
X98320194Y-132491139D01*
X98400485Y-132573409D01*
X98458158Y-132670945D01*
X98492932Y-132782617D01*
X98504523Y-132907294D01*
X98498869Y-133045541D01*
X98481906Y-133161737D01*
X98441195Y-133316664D01*
X97742326Y-133316664D01*
X97742326Y-133038473D01*
X98253473Y-133038473D01*
X98260258Y-132984192D01*
X98262520Y-132929911D01*
X98232835Y-132794774D01*
X98143780Y-132696955D01*
X98049919Y-132652977D01*
X97926656Y-132626590D01*
X97773990Y-132617795D01*
X97670234Y-132622601D01*
X97576090Y-132637019D01*
X97422294Y-132700347D01*
X97321648Y-132812302D01*
X97285460Y-132979669D01*
X97310339Y-133128942D01*
X97366882Y-133251074D01*
X97145234Y-133323449D01*
X97118094Y-133277084D01*
X97084168Y-133199055D01*
X97055897Y-133087100D01*
X97043457Y-132941220D01*
X97055048Y-132818522D01*
X97089822Y-132703740D01*
X97147779Y-132600267D01*
X97228918Y-132511494D01*
X97332674Y-132438554D01*
X97458481Y-132382577D01*
X97605775Y-132346955D01*
X97773990Y-132335081D01*
X97943901Y-132345258D01*
G37*
G36*
X106440872Y-132819087D02*
G01*
X106568942Y-132895703D01*
X106695315Y-132967229D01*
X106823384Y-133031971D01*
X106956543Y-133088231D01*
X106956543Y-133379992D01*
X106808401Y-133315533D01*
X106652342Y-133237504D01*
X106503069Y-133153821D01*
X106373021Y-133072399D01*
X106309128Y-133171349D01*
X106221486Y-133237504D01*
X106116317Y-133274822D01*
X105999838Y-133287262D01*
X105889863Y-133277932D01*
X105795153Y-133249943D01*
X105651535Y-133142512D01*
X105602342Y-133065614D01*
X105567851Y-132975145D01*
X105547496Y-132872237D01*
X105540711Y-132758021D01*
X105782714Y-132758021D01*
X105795719Y-132858102D01*
X105834733Y-132936696D01*
X105901454Y-132987585D01*
X105997577Y-133004548D01*
X106154766Y-132941220D01*
X106196325Y-132858102D01*
X106210178Y-132735404D01*
X106210178Y-132674338D01*
X105789499Y-132674338D01*
X105783845Y-132719572D01*
X105782714Y-132758021D01*
X105540711Y-132758021D01*
X105542973Y-132678861D01*
X105548627Y-132583869D01*
X105559935Y-132485485D01*
X105576898Y-132396147D01*
X106956543Y-132396147D01*
X106956543Y-132674338D01*
X106440872Y-132674338D01*
X106440872Y-132819087D01*
G37*
D11*
%TO.C,C7*%
X167788748Y-77140000D02*
X169211252Y-77140000D01*
X167788748Y-79860000D02*
X169211252Y-79860000D01*
%TO.C,C5*%
X96961252Y-64390000D02*
X95538748Y-64390000D01*
X96961252Y-67110000D02*
X95538748Y-67110000D01*
D12*
%TO.C,kibuzzard-40*%
G36*
X73566729Y-142202141D02*
G01*
X73336034Y-142202141D01*
X73336034Y-141602787D01*
X72166729Y-141602787D01*
X72166729Y-141322334D01*
X73566729Y-141322334D01*
X73566729Y-142202141D01*
G37*
G36*
X75224564Y-142717811D02*
G01*
X76393869Y-142717811D01*
X76393869Y-142998263D01*
X75224564Y-142998263D01*
X75224564Y-143366922D01*
X74993869Y-143366922D01*
X74993869Y-142349152D01*
X75224564Y-142349152D01*
X75224564Y-142717811D01*
G37*
G36*
X70260105Y-141607310D02*
G01*
X70653643Y-141607310D01*
X70653643Y-141847052D01*
X70260105Y-141847052D01*
X70260105Y-142202141D01*
X70031672Y-142202141D01*
X70031672Y-141847052D01*
X69638134Y-141847052D01*
X69638134Y-141607310D01*
X70031672Y-141607310D01*
X70031672Y-141252221D01*
X70260105Y-141252221D01*
X70260105Y-141607310D01*
G37*
G36*
X73566729Y-143332997D02*
G01*
X73336034Y-143332997D01*
X73336034Y-142713288D01*
X72942496Y-142713288D01*
X72942496Y-143208603D01*
X72711801Y-143208603D01*
X72711801Y-142713288D01*
X72397423Y-142713288D01*
X72397423Y-143283239D01*
X72166729Y-143283239D01*
X72166729Y-142435097D01*
X73566729Y-142435097D01*
X73566729Y-143332997D01*
G37*
G36*
X76393869Y-143778554D02*
G01*
X75464305Y-143778554D01*
X75619484Y-143862614D01*
X75774411Y-143942905D01*
X75929087Y-144019426D01*
X76083763Y-144092178D01*
X76238691Y-144161160D01*
X76393869Y-144226373D01*
X76393869Y-144450283D01*
X74993869Y-144450283D01*
X74993869Y-144199233D01*
X75855582Y-144199233D01*
X75767375Y-144159370D01*
X75665598Y-144112157D01*
X75555339Y-144059006D01*
X75441688Y-144001333D01*
X75326058Y-143940549D01*
X75209863Y-143878069D01*
X75097625Y-143814742D01*
X74993869Y-143751414D01*
X74993869Y-143527504D01*
X76393869Y-143527504D01*
X76393869Y-143778554D01*
G37*
G36*
X79221010Y-142647698D02*
G01*
X78291446Y-142647698D01*
X78446624Y-142731758D01*
X78601552Y-142812049D01*
X78756228Y-142888570D01*
X78910904Y-142961322D01*
X79065831Y-143030304D01*
X79221010Y-143095517D01*
X79221010Y-143319426D01*
X77821010Y-143319426D01*
X77821010Y-143068376D01*
X78682722Y-143068376D01*
X78594515Y-143028514D01*
X78492738Y-142981300D01*
X78382480Y-142928150D01*
X78268829Y-142870477D01*
X78153199Y-142809693D01*
X78037003Y-142747213D01*
X77924766Y-142683885D01*
X77821010Y-142620557D01*
X77821010Y-142396648D01*
X79221010Y-142396648D01*
X79221010Y-142647698D01*
G37*
G36*
X70721494Y-142436228D02*
G01*
X70745242Y-142530089D01*
X70762205Y-142638651D01*
X70768990Y-142749475D01*
X70760509Y-142878958D01*
X70735065Y-142991478D01*
X70694354Y-143087036D01*
X70640073Y-143165630D01*
X70496454Y-143269669D01*
X70316648Y-143303595D01*
X70185468Y-143288265D01*
X70075398Y-143242277D01*
X69986438Y-143165630D01*
X69919089Y-143057822D01*
X69873855Y-142918349D01*
X69850735Y-142747213D01*
X69721817Y-142758522D01*
X69570283Y-142769830D01*
X69570283Y-143251575D01*
X69339588Y-143251575D01*
X69339588Y-142536874D01*
X69512326Y-142528393D01*
X69691284Y-142516519D01*
X69875331Y-142500687D01*
X70063336Y-142480331D01*
X70068142Y-142635824D01*
X70082561Y-142758522D01*
X70136842Y-142922496D01*
X70220525Y-142999394D01*
X70327956Y-143018619D01*
X70402593Y-143007310D01*
X70467052Y-142965468D01*
X70513417Y-142881785D01*
X70531511Y-142747213D01*
X70526422Y-142641478D01*
X70511155Y-142554968D01*
X70465921Y-142428312D01*
X70696616Y-142371769D01*
X70721494Y-142436228D01*
G37*
G36*
X73574927Y-143980695D02*
G01*
X73545242Y-144105372D01*
X73494071Y-144215913D01*
X73419717Y-144310057D01*
X73321050Y-144386672D01*
X73196939Y-144444628D01*
X73045687Y-144481099D01*
X72865598Y-144493255D01*
X72689467Y-144482229D01*
X72541042Y-144449152D01*
X72418344Y-144396284D01*
X72319394Y-144325889D01*
X72243910Y-144237964D01*
X72191607Y-144132512D01*
X72161074Y-144012359D01*
X72152815Y-143905210D01*
X72392900Y-143905210D01*
X72432480Y-144056745D01*
X72537649Y-144149475D01*
X72689184Y-144196971D01*
X72865598Y-144210541D01*
X72965396Y-144206300D01*
X73056712Y-144193578D01*
X73207116Y-144137036D01*
X73306632Y-144032997D01*
X73342819Y-143873546D01*
X73342819Y-143848667D01*
X73340557Y-143823788D01*
X72399685Y-143823788D01*
X72394031Y-143864499D01*
X72392900Y-143905210D01*
X72152815Y-143905210D01*
X72150897Y-143880331D01*
X72157682Y-143724273D01*
X72184822Y-143545598D01*
X73550897Y-143545598D01*
X73576906Y-143698263D01*
X73584822Y-143844144D01*
X73584495Y-143848667D01*
X73574927Y-143980695D01*
G37*
G36*
X79229208Y-143980695D02*
G01*
X79199523Y-144105372D01*
X79148352Y-144215913D01*
X79073998Y-144310057D01*
X78975331Y-144386672D01*
X78851220Y-144444628D01*
X78699968Y-144481099D01*
X78519879Y-144493255D01*
X78343748Y-144482229D01*
X78195323Y-144449152D01*
X78072625Y-144396284D01*
X77973675Y-144325889D01*
X77898191Y-144237964D01*
X77845889Y-144132512D01*
X77815355Y-144012359D01*
X77807096Y-143905210D01*
X78047181Y-143905210D01*
X78086761Y-144056745D01*
X78191931Y-144149475D01*
X78343465Y-144196971D01*
X78519879Y-144210541D01*
X78619677Y-144206300D01*
X78710994Y-144193578D01*
X78861397Y-144137036D01*
X78960913Y-144032997D01*
X78997100Y-143873546D01*
X78997100Y-143848667D01*
X78994838Y-143823788D01*
X78053966Y-143823788D01*
X78048312Y-143864499D01*
X78047181Y-143905210D01*
X77807096Y-143905210D01*
X77805178Y-143880331D01*
X77811963Y-143724273D01*
X77839103Y-143545598D01*
X79205178Y-143545598D01*
X79231187Y-143698263D01*
X79239103Y-143844144D01*
X79238776Y-143848667D01*
X79229208Y-143980695D01*
G37*
G36*
X69466244Y-143478877D02*
G01*
X69624564Y-143516195D01*
X69743052Y-143546100D01*
X69866316Y-143578518D01*
X69994354Y-143613449D01*
X70124905Y-143650390D01*
X70255707Y-143688840D01*
X70386761Y-143728796D01*
X70573352Y-143788166D01*
X70739588Y-143844144D01*
X70739588Y-144131381D01*
X70619089Y-144174605D01*
X70495826Y-144216824D01*
X70369798Y-144258037D01*
X70243142Y-144297617D01*
X70117994Y-144334935D01*
X69994354Y-144369992D01*
X69814265Y-144418053D01*
X69642658Y-144460460D01*
X69483207Y-144496931D01*
X69339588Y-144527181D01*
X69339588Y-144235420D01*
X69457197Y-144215065D01*
X69592900Y-144190186D01*
X69739628Y-144161914D01*
X69890315Y-144131381D01*
X70041850Y-144098586D01*
X70191123Y-144063530D01*
X70331066Y-144027342D01*
X70454612Y-143991155D01*
X70329370Y-143954685D01*
X70188861Y-143917649D01*
X70039588Y-143881462D01*
X69888053Y-143847536D01*
X69737649Y-143816155D01*
X69591769Y-143787601D01*
X69456914Y-143763853D01*
X69339588Y-143746890D01*
X69339588Y-143452868D01*
X69466244Y-143478877D01*
G37*
G36*
X78689790Y-141232997D02*
G01*
X78837649Y-141263530D01*
X78963174Y-141312722D01*
X79066082Y-141378877D01*
X79146373Y-141461147D01*
X79204047Y-141558683D01*
X79238821Y-141670355D01*
X79250412Y-141795032D01*
X79244758Y-141933279D01*
X79227795Y-142049475D01*
X79187084Y-142204402D01*
X78488215Y-142204402D01*
X78488215Y-141926212D01*
X78999362Y-141926212D01*
X79006147Y-141871931D01*
X79008409Y-141817649D01*
X78978724Y-141682512D01*
X78889669Y-141584693D01*
X78795808Y-141540715D01*
X78672544Y-141514329D01*
X78519879Y-141505533D01*
X78416123Y-141510339D01*
X78321979Y-141524758D01*
X78168183Y-141588086D01*
X78067536Y-141700040D01*
X78031349Y-141867407D01*
X78056228Y-142016680D01*
X78112771Y-142138813D01*
X77891123Y-142211187D01*
X77863982Y-142164822D01*
X77830057Y-142086793D01*
X77801785Y-141974838D01*
X77789346Y-141828958D01*
X77800937Y-141706260D01*
X77835711Y-141591478D01*
X77893667Y-141488005D01*
X77974806Y-141399233D01*
X78078562Y-141326292D01*
X78204370Y-141270315D01*
X78351664Y-141234693D01*
X78519879Y-141222819D01*
X78689790Y-141232997D01*
G37*
G36*
X76406591Y-141784572D02*
G01*
X76390477Y-141888893D01*
X76361640Y-141982754D01*
X76318102Y-142063045D01*
X76182399Y-142179523D01*
X76087124Y-142211753D01*
X75970929Y-142222496D01*
X75875937Y-142209774D01*
X75785468Y-142171607D01*
X75706309Y-142097819D01*
X75645242Y-141978231D01*
X75523110Y-142108279D01*
X75440557Y-142144750D01*
X75346696Y-142156906D01*
X75215517Y-142136551D01*
X75096777Y-142059653D01*
X75010832Y-141903595D01*
X74986236Y-141789378D01*
X74980490Y-141688732D01*
X75220040Y-141688732D01*
X75225695Y-141763368D01*
X75248312Y-141826696D01*
X75295808Y-141869669D01*
X75376099Y-141885501D01*
X75503885Y-141831220D01*
X75538495Y-141711349D01*
X75780945Y-141711349D01*
X75825048Y-141884370D01*
X75970929Y-141948829D01*
X76071575Y-141926212D01*
X76132641Y-141868538D01*
X76162044Y-141788247D01*
X76169960Y-141695517D01*
X76167698Y-141626535D01*
X76160913Y-141562076D01*
X75780945Y-141562076D01*
X75780945Y-141670638D01*
X75780945Y-141711349D01*
X75538495Y-141711349D01*
X75550250Y-141670638D01*
X75550250Y-141562076D01*
X75229087Y-141562076D01*
X75222302Y-141623142D01*
X75220040Y-141688732D01*
X74980490Y-141688732D01*
X74978037Y-141645759D01*
X74988215Y-141458037D01*
X75011963Y-141283885D01*
X76371252Y-141283885D01*
X76389063Y-141381704D01*
X76401785Y-141480654D01*
X76409418Y-141578473D01*
X76411963Y-141672900D01*
X76410875Y-141695517D01*
X76406591Y-141784572D01*
G37*
%TO.C,kibuzzard-32*%
G36*
X115388805Y-143893901D02*
G01*
X115432908Y-143986632D01*
X115388805Y-144075969D01*
X115283635Y-144111026D01*
X115177334Y-144075969D01*
X115132100Y-143986632D01*
X115177334Y-143893901D01*
X115283635Y-143859976D01*
X115388805Y-143893901D01*
G37*
G36*
X121663926Y-142708764D02*
G01*
X121064572Y-142708764D01*
X121064572Y-143215388D01*
X120833877Y-143215388D01*
X120833877Y-142708764D01*
X120494620Y-142708764D01*
X120494620Y-143287763D01*
X120263926Y-143287763D01*
X120263926Y-142430574D01*
X121663926Y-142430574D01*
X121663926Y-142708764D01*
G37*
G36*
X112304960Y-143617973D02*
G01*
X112249548Y-143755937D01*
X112169257Y-143900687D01*
X112951809Y-143900687D01*
X112951809Y-143606664D01*
X113182504Y-143606664D01*
X113182504Y-144457068D01*
X112951809Y-144457068D01*
X112951809Y-144178877D01*
X111782504Y-144178877D01*
X111782504Y-143988893D01*
X111870711Y-143891640D01*
X111952132Y-143771769D01*
X112022246Y-143645113D01*
X112074265Y-143527504D01*
X112304960Y-143617973D01*
G37*
G36*
X117959241Y-143617973D02*
G01*
X117903829Y-143755937D01*
X117823538Y-143900687D01*
X118606090Y-143900687D01*
X118606090Y-143606664D01*
X118836785Y-143606664D01*
X118836785Y-144457068D01*
X118606090Y-144457068D01*
X118606090Y-144178877D01*
X117436785Y-144178877D01*
X117436785Y-143988893D01*
X117524992Y-143891640D01*
X117606414Y-143771769D01*
X117676527Y-143645113D01*
X117728546Y-143527504D01*
X117959241Y-143617973D01*
G37*
G36*
X112709806Y-141657068D02*
G01*
X112697367Y-141824309D01*
X112660048Y-141964158D01*
X112597851Y-142076616D01*
X112507760Y-142158917D01*
X112386758Y-142208297D01*
X112234847Y-142224758D01*
X112084443Y-142208423D01*
X111964949Y-142159419D01*
X111876365Y-142077746D01*
X111815425Y-141966420D01*
X111778860Y-141828455D01*
X111769017Y-141695517D01*
X112008675Y-141695517D01*
X112021397Y-141795315D01*
X112059564Y-141873061D01*
X112128263Y-141923102D01*
X112232585Y-141939782D01*
X112342561Y-141922819D01*
X112414653Y-141871931D01*
X112454515Y-141787682D01*
X112467803Y-141670638D01*
X112467803Y-141557553D01*
X112015460Y-141557553D01*
X112009806Y-141626535D01*
X112008675Y-141695517D01*
X111769017Y-141695517D01*
X111766672Y-141663853D01*
X111768934Y-141575646D01*
X111774588Y-141473869D01*
X111784766Y-141370961D01*
X111800598Y-141279362D01*
X113182504Y-141279362D01*
X113182504Y-141557553D01*
X112709806Y-141557553D01*
X112709806Y-141657068D01*
G37*
G36*
X115536947Y-141657068D02*
G01*
X115524507Y-141824309D01*
X115487189Y-141964158D01*
X115424992Y-142076616D01*
X115334900Y-142158917D01*
X115213899Y-142208297D01*
X115061987Y-142224758D01*
X114911583Y-142208423D01*
X114792089Y-142159419D01*
X114703506Y-142077746D01*
X114642565Y-141966420D01*
X114606001Y-141828455D01*
X114596158Y-141695517D01*
X114835816Y-141695517D01*
X114848538Y-141795315D01*
X114886704Y-141873061D01*
X114955404Y-141923102D01*
X115059725Y-141939782D01*
X115169701Y-141922819D01*
X115241793Y-141871931D01*
X115281656Y-141787682D01*
X115294943Y-141670638D01*
X115294943Y-141557553D01*
X114842601Y-141557553D01*
X114836947Y-141626535D01*
X114835816Y-141695517D01*
X114596158Y-141695517D01*
X114593813Y-141663853D01*
X114596074Y-141575646D01*
X114601729Y-141473869D01*
X114611906Y-141370961D01*
X114627738Y-141279362D01*
X116009645Y-141279362D01*
X116009645Y-141557553D01*
X115536947Y-141557553D01*
X115536947Y-141657068D01*
G37*
G36*
X118364087Y-141657068D02*
G01*
X118351648Y-141824309D01*
X118314330Y-141964158D01*
X118252132Y-142076616D01*
X118162041Y-142158917D01*
X118041039Y-142208297D01*
X117889128Y-142224758D01*
X117738724Y-142208423D01*
X117619230Y-142159419D01*
X117530646Y-142077746D01*
X117469706Y-141966420D01*
X117433141Y-141828455D01*
X117423298Y-141695517D01*
X117662956Y-141695517D01*
X117675679Y-141795315D01*
X117713845Y-141873061D01*
X117782544Y-141923102D01*
X117886866Y-141939782D01*
X117996842Y-141922819D01*
X118068934Y-141871931D01*
X118108796Y-141787682D01*
X118122084Y-141670638D01*
X118122084Y-141557553D01*
X117669742Y-141557553D01*
X117664087Y-141626535D01*
X117662956Y-141695517D01*
X117423298Y-141695517D01*
X117420953Y-141663853D01*
X117423215Y-141575646D01*
X117428869Y-141473869D01*
X117439047Y-141370961D01*
X117454879Y-141279362D01*
X118836785Y-141279362D01*
X118836785Y-141557553D01*
X118364087Y-141557553D01*
X118364087Y-141657068D01*
G37*
G36*
X121191228Y-141657068D02*
G01*
X121178788Y-141824309D01*
X121141470Y-141964158D01*
X121079273Y-142076616D01*
X120989181Y-142158917D01*
X120868180Y-142208297D01*
X120716268Y-142224758D01*
X120565864Y-142208423D01*
X120446370Y-142159419D01*
X120357787Y-142077746D01*
X120296846Y-141966420D01*
X120260282Y-141828455D01*
X120250439Y-141695517D01*
X120490097Y-141695517D01*
X120502819Y-141795315D01*
X120540985Y-141873061D01*
X120609685Y-141923102D01*
X120714006Y-141939782D01*
X120823982Y-141922819D01*
X120896074Y-141871931D01*
X120935937Y-141787682D01*
X120949225Y-141670638D01*
X120949225Y-141557553D01*
X120496882Y-141557553D01*
X120491228Y-141626535D01*
X120490097Y-141695517D01*
X120250439Y-141695517D01*
X120248094Y-141663853D01*
X120250355Y-141575646D01*
X120256010Y-141473869D01*
X120266187Y-141370961D01*
X120282019Y-141279362D01*
X121663926Y-141279362D01*
X121663926Y-141557553D01*
X121191228Y-141557553D01*
X121191228Y-141657068D01*
G37*
G36*
X113190703Y-142845315D02*
G01*
X113161018Y-142969992D01*
X113109847Y-143080533D01*
X113035493Y-143174677D01*
X112936826Y-143251292D01*
X112812714Y-143309249D01*
X112661462Y-143345719D01*
X112481373Y-143357876D01*
X112305242Y-143346850D01*
X112156817Y-143313772D01*
X112034120Y-143260905D01*
X111935170Y-143190509D01*
X111859685Y-143102585D01*
X111807383Y-142997132D01*
X111776850Y-142876979D01*
X111768590Y-142769830D01*
X112008675Y-142769830D01*
X112048255Y-142921365D01*
X112153425Y-143014095D01*
X112304960Y-143061591D01*
X112481373Y-143075162D01*
X112581171Y-143070921D01*
X112672488Y-143058199D01*
X112822892Y-143001656D01*
X112922407Y-142897617D01*
X112958595Y-142738166D01*
X112958595Y-142713288D01*
X112956333Y-142688409D01*
X112015460Y-142688409D01*
X112009806Y-142729120D01*
X112008675Y-142769830D01*
X111768590Y-142769830D01*
X111766672Y-142744952D01*
X111773457Y-142588893D01*
X111800598Y-142410218D01*
X113166672Y-142410218D01*
X113192682Y-142562884D01*
X113200598Y-142708764D01*
X113200270Y-142713288D01*
X113190703Y-142845315D01*
G37*
G36*
X115478425Y-142359330D02*
G01*
X115626284Y-142389863D01*
X115751809Y-142439055D01*
X115854717Y-142505210D01*
X115935008Y-142587480D01*
X115992682Y-142685016D01*
X116027456Y-142796688D01*
X116039047Y-142921365D01*
X116033393Y-143059612D01*
X116016430Y-143175808D01*
X115975719Y-143330735D01*
X115276850Y-143330735D01*
X115276850Y-143052544D01*
X115787997Y-143052544D01*
X115794782Y-142998263D01*
X115797044Y-142943982D01*
X115767359Y-142808845D01*
X115678304Y-142711026D01*
X115584443Y-142667048D01*
X115461179Y-142640661D01*
X115308514Y-142631866D01*
X115204758Y-142636672D01*
X115110614Y-142651090D01*
X114956817Y-142714418D01*
X114856171Y-142826373D01*
X114819984Y-142993740D01*
X114844863Y-143143013D01*
X114901405Y-143265145D01*
X114679758Y-143337520D01*
X114652617Y-143291155D01*
X114618691Y-143213126D01*
X114590420Y-143101171D01*
X114577981Y-142955291D01*
X114589572Y-142832593D01*
X114624346Y-142717811D01*
X114682302Y-142614338D01*
X114763441Y-142525565D01*
X114867197Y-142452625D01*
X114993005Y-142396648D01*
X115140299Y-142361026D01*
X115308514Y-142349152D01*
X115478425Y-142359330D01*
G37*
G36*
X118305565Y-142359330D02*
G01*
X118453425Y-142389863D01*
X118578950Y-142439055D01*
X118681858Y-142505210D01*
X118762149Y-142587480D01*
X118819822Y-142685016D01*
X118854596Y-142796688D01*
X118866187Y-142921365D01*
X118860533Y-143059612D01*
X118843570Y-143175808D01*
X118802859Y-143330735D01*
X118103990Y-143330735D01*
X118103990Y-143052544D01*
X118615137Y-143052544D01*
X118621922Y-142998263D01*
X118624184Y-142943982D01*
X118594499Y-142808845D01*
X118505444Y-142711026D01*
X118411583Y-142667048D01*
X118288320Y-142640661D01*
X118135654Y-142631866D01*
X118031898Y-142636672D01*
X117937754Y-142651090D01*
X117783958Y-142714418D01*
X117683312Y-142826373D01*
X117647124Y-142993740D01*
X117672003Y-143143013D01*
X117728546Y-143265145D01*
X117506898Y-143337520D01*
X117479758Y-143291155D01*
X117445832Y-143213126D01*
X117417561Y-143101171D01*
X117405121Y-142955291D01*
X117416712Y-142832593D01*
X117451486Y-142717811D01*
X117509443Y-142614338D01*
X117590582Y-142525565D01*
X117694338Y-142452625D01*
X117820145Y-142396648D01*
X117967439Y-142361026D01*
X118135654Y-142349152D01*
X118305565Y-142359330D01*
G37*
G36*
X116018943Y-144130125D02*
G01*
X115958630Y-144250749D01*
X115858110Y-144346244D01*
X115755767Y-144400666D01*
X115629677Y-144439540D01*
X115479838Y-144462863D01*
X115306252Y-144470638D01*
X115133726Y-144462863D01*
X114984806Y-144439540D01*
X114859493Y-144400666D01*
X114757787Y-144346244D01*
X114657894Y-144250749D01*
X114597959Y-144130125D01*
X114577981Y-143984370D01*
X114815460Y-143984370D01*
X114846842Y-144085864D01*
X114940985Y-144159653D01*
X115037360Y-144192950D01*
X115159115Y-144212929D01*
X115306252Y-144219588D01*
X115454645Y-144212929D01*
X115577155Y-144192950D01*
X115673780Y-144159653D01*
X115767924Y-144085864D01*
X115799305Y-143984370D01*
X115767924Y-143884289D01*
X115673780Y-143810218D01*
X115577155Y-143776292D01*
X115454645Y-143755937D01*
X115306252Y-143749152D01*
X115159115Y-143755937D01*
X115037360Y-143776292D01*
X114940985Y-143810218D01*
X114846842Y-143884289D01*
X114815460Y-143984370D01*
X114577981Y-143984370D01*
X114598085Y-143840877D01*
X114658397Y-143721006D01*
X114758918Y-143624758D01*
X114860977Y-143569346D01*
X114986220Y-143529766D01*
X115134645Y-143506018D01*
X115306252Y-143498102D01*
X115479838Y-143505876D01*
X115629677Y-143529200D01*
X115755767Y-143568074D01*
X115858110Y-143622496D01*
X115958630Y-143717990D01*
X116018943Y-143838615D01*
X116039047Y-143984370D01*
X116018943Y-144130125D01*
G37*
G36*
X121684281Y-144102544D02*
G01*
X121657141Y-144206018D01*
X121565541Y-144356422D01*
X121440016Y-144440105D01*
X121302052Y-144466115D01*
X121200275Y-144452827D01*
X121107544Y-144412964D01*
X121022730Y-144340872D01*
X120944701Y-144230897D01*
X120873740Y-144319103D01*
X120787512Y-144380170D01*
X120692803Y-144415792D01*
X120596397Y-144427666D01*
X120445994Y-144397981D01*
X120329515Y-144308926D01*
X120254879Y-144169548D01*
X120230000Y-143988893D01*
X120230373Y-143984370D01*
X120460695Y-143984370D01*
X120500275Y-144112157D01*
X120619015Y-144165307D01*
X120740016Y-144135905D01*
X120854233Y-144036389D01*
X120801082Y-143925000D01*
X120780646Y-143896163D01*
X121039693Y-143896163D01*
X121099628Y-144036389D01*
X121156171Y-144132512D01*
X121218368Y-144186793D01*
X121297528Y-144203756D01*
X121414006Y-144143821D01*
X121462633Y-143982108D01*
X121416268Y-143829443D01*
X121279435Y-143764984D01*
X121156171Y-143798910D01*
X121039693Y-143896163D01*
X120780646Y-143896163D01*
X120750194Y-143853191D01*
X120621276Y-143801171D01*
X120501405Y-143856583D01*
X120460695Y-143984370D01*
X120230373Y-143984370D01*
X120239612Y-143872415D01*
X120268449Y-143776292D01*
X120365703Y-143638328D01*
X120498013Y-143562561D01*
X120639370Y-143538813D01*
X120802213Y-143575000D01*
X120876850Y-143627019D01*
X120946963Y-143710703D01*
X121024709Y-143618538D01*
X121113199Y-143554645D01*
X121210170Y-143517326D01*
X121313360Y-143504887D01*
X121472811Y-143538813D01*
X121592682Y-143634935D01*
X121667318Y-143784208D01*
X121686826Y-143876090D01*
X121693328Y-143977585D01*
X121693000Y-143982108D01*
X121684281Y-144102544D01*
G37*
%TO.C,kibuzzard-26*%
G36*
X195075164Y-34605460D02*
G01*
X194844470Y-34605460D01*
X194844470Y-34006107D01*
X193675164Y-34006107D01*
X193675164Y-33725654D01*
X195075164Y-33725654D01*
X195075164Y-34605460D01*
G37*
G36*
X196544523Y-32859418D02*
G01*
X197713829Y-32859418D01*
X197713829Y-33139871D01*
X196544523Y-33139871D01*
X196544523Y-33508530D01*
X196313829Y-33508530D01*
X196313829Y-32490759D01*
X196544523Y-32490759D01*
X196544523Y-32859418D01*
G37*
G36*
X196544523Y-31730824D02*
G01*
X197483134Y-31730824D01*
X197483134Y-31425493D01*
X197713829Y-31425493D01*
X197713829Y-32314346D01*
X197483134Y-32314346D01*
X197483134Y-32011276D01*
X196544523Y-32011276D01*
X196544523Y-32314346D01*
X196313829Y-32314346D01*
X196313829Y-31425493D01*
X196544523Y-31425493D01*
X196544523Y-31730824D01*
G37*
G36*
X189797835Y-32789305D02*
G01*
X188868271Y-32789305D01*
X189023450Y-32873366D01*
X189178377Y-32953656D01*
X189333053Y-33030178D01*
X189487729Y-33102929D01*
X189642657Y-33171912D01*
X189797835Y-33237124D01*
X189797835Y-33461034D01*
X188397835Y-33461034D01*
X188397835Y-33209984D01*
X189259548Y-33209984D01*
X189171341Y-33170121D01*
X189069564Y-33122908D01*
X188959305Y-33069758D01*
X188845654Y-33012084D01*
X188730024Y-32951300D01*
X188613829Y-32888821D01*
X188501591Y-32825493D01*
X188397835Y-32762165D01*
X188397835Y-32538255D01*
X189797835Y-32538255D01*
X189797835Y-32789305D01*
G37*
G36*
X192113075Y-34311438D02*
G01*
X192436500Y-34377027D01*
X192436500Y-34675574D01*
X192277773Y-34638255D01*
X192123660Y-34600485D01*
X191974160Y-34562262D01*
X191829275Y-34523586D01*
X191689004Y-34484459D01*
X191518881Y-34435196D01*
X191353422Y-34385792D01*
X191192629Y-34336246D01*
X191036500Y-34286559D01*
X191036500Y-34128239D01*
X191307905Y-34128239D01*
X191458309Y-34170081D01*
X191598535Y-34206268D01*
X191737631Y-34236801D01*
X191882380Y-34263942D01*
X191882380Y-33990275D01*
X191737631Y-34018546D01*
X191598535Y-34050210D01*
X191458309Y-34086397D01*
X191307905Y-34128239D01*
X191036500Y-34128239D01*
X191036500Y-33983489D01*
X191191356Y-33935569D01*
X191350595Y-33886801D01*
X191514216Y-33837185D01*
X191682219Y-33786721D01*
X191821314Y-33746100D01*
X191966290Y-33705661D01*
X192117146Y-33665402D01*
X192273883Y-33625325D01*
X192436500Y-33585428D01*
X192436500Y-33874927D01*
X192113075Y-33938255D01*
X192113075Y-33990275D01*
X192113075Y-34311438D01*
G37*
G36*
X189806034Y-34122302D02*
G01*
X189776349Y-34246979D01*
X189725178Y-34357520D01*
X189650824Y-34451664D01*
X189552157Y-34528279D01*
X189428045Y-34586236D01*
X189276793Y-34622706D01*
X189096704Y-34634863D01*
X188920574Y-34623837D01*
X188772149Y-34590759D01*
X188649451Y-34537892D01*
X188550501Y-34467496D01*
X188475016Y-34379572D01*
X188422714Y-34274120D01*
X188392181Y-34153966D01*
X188383921Y-34046817D01*
X188624006Y-34046817D01*
X188663586Y-34198352D01*
X188768756Y-34291082D01*
X188920291Y-34338578D01*
X189096704Y-34352149D01*
X189196502Y-34347908D01*
X189287819Y-34335186D01*
X189438223Y-34278643D01*
X189537738Y-34174604D01*
X189573926Y-34015153D01*
X189573926Y-33990275D01*
X189571664Y-33965396D01*
X188630792Y-33965396D01*
X188625137Y-34006107D01*
X188624006Y-34046817D01*
X188383921Y-34046817D01*
X188382003Y-34021939D01*
X188388788Y-33865880D01*
X188415929Y-33687205D01*
X189782003Y-33687205D01*
X189808013Y-33839871D01*
X189815929Y-33985751D01*
X189815601Y-33990275D01*
X189806034Y-34122302D01*
G37*
G36*
X192444698Y-32991446D02*
G01*
X192415013Y-33116123D01*
X192363842Y-33226664D01*
X192289488Y-33320808D01*
X192190821Y-33397423D01*
X192066710Y-33455380D01*
X191915458Y-33491850D01*
X191735369Y-33504006D01*
X191559238Y-33492981D01*
X191410813Y-33459903D01*
X191288115Y-33407036D01*
X191189165Y-33336640D01*
X191113681Y-33248716D01*
X191061379Y-33143263D01*
X191030845Y-33023110D01*
X191022586Y-32915961D01*
X191262671Y-32915961D01*
X191302251Y-33067496D01*
X191407421Y-33160226D01*
X191558955Y-33207722D01*
X191735369Y-33221292D01*
X191835167Y-33217052D01*
X191926484Y-33204330D01*
X192076887Y-33147787D01*
X192176403Y-33043748D01*
X192212590Y-32884297D01*
X192212590Y-32859418D01*
X192210328Y-32834540D01*
X191269456Y-32834540D01*
X191263802Y-32875250D01*
X191262671Y-32915961D01*
X191022586Y-32915961D01*
X191020668Y-32891082D01*
X191027453Y-32735024D01*
X191054593Y-32556349D01*
X192420668Y-32556349D01*
X192446677Y-32709015D01*
X192454593Y-32854895D01*
X192454266Y-32859418D01*
X192444698Y-32991446D01*
G37*
G36*
X194539280Y-32505036D02*
G01*
X194684453Y-32534297D01*
X194809554Y-32583065D01*
X194914583Y-32651341D01*
X195020129Y-32770960D01*
X195083457Y-32921741D01*
X195104567Y-33103683D01*
X195096933Y-33227229D01*
X195074033Y-33335509D01*
X195007313Y-33494960D01*
X194787927Y-33424847D01*
X194837684Y-33310630D01*
X194862563Y-33130824D01*
X194830617Y-32969394D01*
X194734777Y-32860549D01*
X194637146Y-32814687D01*
X194514637Y-32787169D01*
X194367248Y-32777997D01*
X194240592Y-32785630D01*
X194136554Y-32808530D01*
X193988411Y-32887690D01*
X193909251Y-32998514D01*
X193885504Y-33126300D01*
X193909251Y-33294798D01*
X193966925Y-33420323D01*
X193745277Y-33492698D01*
X193718137Y-33446333D01*
X193684211Y-33370565D01*
X193655940Y-33265396D01*
X193643500Y-33130824D01*
X193655657Y-32998231D01*
X193692127Y-32876381D01*
X193752062Y-32767819D01*
X193834615Y-32675089D01*
X193938936Y-32599604D01*
X194064179Y-32542779D01*
X194209494Y-32507157D01*
X194374033Y-32495283D01*
X194539280Y-32505036D01*
G37*
G36*
X189266616Y-31374604D02*
G01*
X189414475Y-31405137D01*
X189540000Y-31454330D01*
X189642908Y-31520485D01*
X189723199Y-31602754D01*
X189780872Y-31700291D01*
X189815646Y-31811963D01*
X189827237Y-31936640D01*
X189821583Y-32074887D01*
X189804620Y-32191082D01*
X189763910Y-32346010D01*
X189065040Y-32346010D01*
X189065040Y-32067819D01*
X189576187Y-32067819D01*
X189582973Y-32013538D01*
X189585234Y-31959257D01*
X189555549Y-31824120D01*
X189466494Y-31726300D01*
X189372633Y-31682323D01*
X189249370Y-31655936D01*
X189096704Y-31647141D01*
X188992948Y-31651947D01*
X188898805Y-31666365D01*
X188745008Y-31729693D01*
X188644362Y-31841648D01*
X188608174Y-32009015D01*
X188633053Y-32158288D01*
X188689596Y-32280420D01*
X188467948Y-32352795D01*
X188440808Y-32306430D01*
X188406882Y-32228401D01*
X188378611Y-32116446D01*
X188366171Y-31970565D01*
X188377763Y-31847868D01*
X188412536Y-31733086D01*
X188470493Y-31629612D01*
X188551632Y-31540840D01*
X188655388Y-31467900D01*
X188781195Y-31411922D01*
X188928489Y-31376300D01*
X189096704Y-31364426D01*
X189266616Y-31374604D01*
G37*
G36*
X192428584Y-31549887D02*
G01*
X192456572Y-31671454D01*
X192465902Y-31828078D01*
X192453965Y-31986774D01*
X192418155Y-32116069D01*
X192358471Y-32215961D01*
X192228705Y-32311801D01*
X192054270Y-32343748D01*
X191948818Y-32334136D01*
X191863156Y-32305299D01*
X191736500Y-32206914D01*
X191655078Y-32075735D01*
X191599666Y-31938901D01*
X191565740Y-31851826D01*
X191523899Y-31772666D01*
X191469618Y-31714992D01*
X191398374Y-31692375D01*
X191309162Y-31717002D01*
X191255635Y-31790885D01*
X191237792Y-31914023D01*
X191260409Y-32073473D01*
X191314690Y-32198998D01*
X191099828Y-32280420D01*
X191034238Y-32118708D01*
X191012186Y-32014386D01*
X191004836Y-31893667D01*
X191017150Y-31755074D01*
X191054091Y-31637842D01*
X191115660Y-31541971D01*
X191247970Y-31446131D01*
X191423253Y-31414184D01*
X191589488Y-31450372D01*
X191701443Y-31541971D01*
X191776080Y-31665234D01*
X191828099Y-31796414D01*
X191867679Y-31891405D01*
X191915175Y-31977351D01*
X191975110Y-32040679D01*
X192052009Y-32065557D01*
X192118729Y-32055380D01*
X192177534Y-32018061D01*
X192218244Y-31944556D01*
X192232946Y-31828078D01*
X192225030Y-31715275D01*
X192201282Y-31621131D01*
X192133430Y-31475250D01*
X192359602Y-31393829D01*
X192428584Y-31549887D01*
G37*
G36*
X195067248Y-31549887D02*
G01*
X195095237Y-31671454D01*
X195104567Y-31828078D01*
X195092630Y-31986774D01*
X195056819Y-32116069D01*
X194997135Y-32215961D01*
X194867369Y-32311801D01*
X194692935Y-32343748D01*
X194587482Y-32334136D01*
X194501820Y-32305299D01*
X194375164Y-32206914D01*
X194293743Y-32075735D01*
X194238331Y-31938901D01*
X194204405Y-31851826D01*
X194162563Y-31772666D01*
X194108282Y-31714992D01*
X194037038Y-31692375D01*
X193947826Y-31717002D01*
X193894299Y-31790885D01*
X193876457Y-31914023D01*
X193899074Y-32073473D01*
X193953355Y-32198998D01*
X193738492Y-32280420D01*
X193672903Y-32118708D01*
X193650851Y-32014386D01*
X193643500Y-31893667D01*
X193655814Y-31755074D01*
X193692755Y-31637842D01*
X193754324Y-31541971D01*
X193886634Y-31446131D01*
X194061917Y-31414184D01*
X194228153Y-31450372D01*
X194340108Y-31541971D01*
X194414744Y-31665234D01*
X194466764Y-31796414D01*
X194506344Y-31891405D01*
X194553840Y-31977351D01*
X194613775Y-32040679D01*
X194690673Y-32065557D01*
X194757394Y-32055380D01*
X194816198Y-32018061D01*
X194856909Y-31944556D01*
X194871610Y-31828078D01*
X194863694Y-31715275D01*
X194839946Y-31621131D01*
X194772095Y-31475250D01*
X194998266Y-31393829D01*
X195067248Y-31549887D01*
G37*
%TO.C,kibuzzard-38*%
G36*
X73566729Y-133312141D02*
G01*
X73336034Y-133312141D01*
X73336034Y-132712787D01*
X72166729Y-132712787D01*
X72166729Y-132432334D01*
X73566729Y-132432334D01*
X73566729Y-133312141D01*
G37*
G36*
X75224564Y-133827811D02*
G01*
X76393869Y-133827811D01*
X76393869Y-134108263D01*
X75224564Y-134108263D01*
X75224564Y-134476922D01*
X74993869Y-134476922D01*
X74993869Y-133459152D01*
X75224564Y-133459152D01*
X75224564Y-133827811D01*
G37*
G36*
X70260105Y-132717310D02*
G01*
X70653643Y-132717310D01*
X70653643Y-132957052D01*
X70260105Y-132957052D01*
X70260105Y-133312141D01*
X70031672Y-133312141D01*
X70031672Y-132957052D01*
X69638134Y-132957052D01*
X69638134Y-132717310D01*
X70031672Y-132717310D01*
X70031672Y-132362221D01*
X70260105Y-132362221D01*
X70260105Y-132717310D01*
G37*
G36*
X73566729Y-134442997D02*
G01*
X73336034Y-134442997D01*
X73336034Y-133823288D01*
X72942496Y-133823288D01*
X72942496Y-134318603D01*
X72711801Y-134318603D01*
X72711801Y-133823288D01*
X72397423Y-133823288D01*
X72397423Y-134393239D01*
X72166729Y-134393239D01*
X72166729Y-133545097D01*
X73566729Y-133545097D01*
X73566729Y-134442997D01*
G37*
G36*
X76393869Y-134888554D02*
G01*
X75464305Y-134888554D01*
X75619484Y-134972614D01*
X75774411Y-135052905D01*
X75929087Y-135129426D01*
X76083763Y-135202178D01*
X76238691Y-135271160D01*
X76393869Y-135336373D01*
X76393869Y-135560283D01*
X74993869Y-135560283D01*
X74993869Y-135309233D01*
X75855582Y-135309233D01*
X75767375Y-135269370D01*
X75665598Y-135222157D01*
X75555339Y-135169006D01*
X75441688Y-135111333D01*
X75326058Y-135050549D01*
X75209863Y-134988069D01*
X75097625Y-134924742D01*
X74993869Y-134861414D01*
X74993869Y-134637504D01*
X76393869Y-134637504D01*
X76393869Y-134888554D01*
G37*
G36*
X79221010Y-133757698D02*
G01*
X78291446Y-133757698D01*
X78446624Y-133841758D01*
X78601552Y-133922049D01*
X78756228Y-133998570D01*
X78910904Y-134071322D01*
X79065831Y-134140304D01*
X79221010Y-134205517D01*
X79221010Y-134429426D01*
X77821010Y-134429426D01*
X77821010Y-134178376D01*
X78682722Y-134178376D01*
X78594515Y-134138514D01*
X78492738Y-134091300D01*
X78382480Y-134038150D01*
X78268829Y-133980477D01*
X78153199Y-133919693D01*
X78037003Y-133857213D01*
X77924766Y-133793885D01*
X77821010Y-133730557D01*
X77821010Y-133506648D01*
X79221010Y-133506648D01*
X79221010Y-133757698D01*
G37*
G36*
X70721494Y-133546228D02*
G01*
X70745242Y-133640089D01*
X70762205Y-133748651D01*
X70768990Y-133859475D01*
X70760509Y-133988958D01*
X70735065Y-134101478D01*
X70694354Y-134197036D01*
X70640073Y-134275630D01*
X70496454Y-134379669D01*
X70316648Y-134413595D01*
X70185468Y-134398265D01*
X70075398Y-134352277D01*
X69986438Y-134275630D01*
X69919089Y-134167822D01*
X69873855Y-134028349D01*
X69850735Y-133857213D01*
X69721817Y-133868522D01*
X69570283Y-133879830D01*
X69570283Y-134361575D01*
X69339588Y-134361575D01*
X69339588Y-133646874D01*
X69512326Y-133638393D01*
X69691284Y-133626519D01*
X69875331Y-133610687D01*
X70063336Y-133590331D01*
X70068142Y-133745824D01*
X70082561Y-133868522D01*
X70136842Y-134032496D01*
X70220525Y-134109394D01*
X70327956Y-134128619D01*
X70402593Y-134117310D01*
X70467052Y-134075468D01*
X70513417Y-133991785D01*
X70531511Y-133857213D01*
X70526422Y-133751478D01*
X70511155Y-133664968D01*
X70465921Y-133538312D01*
X70696616Y-133481769D01*
X70721494Y-133546228D01*
G37*
G36*
X73574927Y-135090695D02*
G01*
X73545242Y-135215372D01*
X73494071Y-135325913D01*
X73419717Y-135420057D01*
X73321050Y-135496672D01*
X73196939Y-135554628D01*
X73045687Y-135591099D01*
X72865598Y-135603255D01*
X72689467Y-135592229D01*
X72541042Y-135559152D01*
X72418344Y-135506284D01*
X72319394Y-135435889D01*
X72243910Y-135347964D01*
X72191607Y-135242512D01*
X72161074Y-135122359D01*
X72152815Y-135015210D01*
X72392900Y-135015210D01*
X72432480Y-135166745D01*
X72537649Y-135259475D01*
X72689184Y-135306971D01*
X72865598Y-135320541D01*
X72965396Y-135316300D01*
X73056712Y-135303578D01*
X73207116Y-135247036D01*
X73306632Y-135142997D01*
X73342819Y-134983546D01*
X73342819Y-134958667D01*
X73340557Y-134933788D01*
X72399685Y-134933788D01*
X72394031Y-134974499D01*
X72392900Y-135015210D01*
X72152815Y-135015210D01*
X72150897Y-134990331D01*
X72157682Y-134834273D01*
X72184822Y-134655598D01*
X73550897Y-134655598D01*
X73576906Y-134808263D01*
X73584822Y-134954144D01*
X73584495Y-134958667D01*
X73574927Y-135090695D01*
G37*
G36*
X79229208Y-135090695D02*
G01*
X79199523Y-135215372D01*
X79148352Y-135325913D01*
X79073998Y-135420057D01*
X78975331Y-135496672D01*
X78851220Y-135554628D01*
X78699968Y-135591099D01*
X78519879Y-135603255D01*
X78343748Y-135592229D01*
X78195323Y-135559152D01*
X78072625Y-135506284D01*
X77973675Y-135435889D01*
X77898191Y-135347964D01*
X77845889Y-135242512D01*
X77815355Y-135122359D01*
X77807096Y-135015210D01*
X78047181Y-135015210D01*
X78086761Y-135166745D01*
X78191931Y-135259475D01*
X78343465Y-135306971D01*
X78519879Y-135320541D01*
X78619677Y-135316300D01*
X78710994Y-135303578D01*
X78861397Y-135247036D01*
X78960913Y-135142997D01*
X78997100Y-134983546D01*
X78997100Y-134958667D01*
X78994838Y-134933788D01*
X78053966Y-134933788D01*
X78048312Y-134974499D01*
X78047181Y-135015210D01*
X77807096Y-135015210D01*
X77805178Y-134990331D01*
X77811963Y-134834273D01*
X77839103Y-134655598D01*
X79205178Y-134655598D01*
X79231187Y-134808263D01*
X79239103Y-134954144D01*
X79238776Y-134958667D01*
X79229208Y-135090695D01*
G37*
G36*
X69466244Y-134588877D02*
G01*
X69624564Y-134626195D01*
X69743052Y-134656100D01*
X69866316Y-134688518D01*
X69994354Y-134723449D01*
X70124905Y-134760390D01*
X70255707Y-134798840D01*
X70386761Y-134838796D01*
X70573352Y-134898166D01*
X70739588Y-134954144D01*
X70739588Y-135241381D01*
X70619089Y-135284605D01*
X70495826Y-135326824D01*
X70369798Y-135368037D01*
X70243142Y-135407617D01*
X70117994Y-135444935D01*
X69994354Y-135479992D01*
X69814265Y-135528053D01*
X69642658Y-135570460D01*
X69483207Y-135606931D01*
X69339588Y-135637181D01*
X69339588Y-135345420D01*
X69457197Y-135325065D01*
X69592900Y-135300186D01*
X69739628Y-135271914D01*
X69890315Y-135241381D01*
X70041850Y-135208586D01*
X70191123Y-135173530D01*
X70331066Y-135137342D01*
X70454612Y-135101155D01*
X70329370Y-135064685D01*
X70188861Y-135027649D01*
X70039588Y-134991462D01*
X69888053Y-134957536D01*
X69737649Y-134926155D01*
X69591769Y-134897601D01*
X69456914Y-134873853D01*
X69339588Y-134856890D01*
X69339588Y-134562868D01*
X69466244Y-134588877D01*
G37*
G36*
X78689790Y-132342997D02*
G01*
X78837649Y-132373530D01*
X78963174Y-132422722D01*
X79066082Y-132488877D01*
X79146373Y-132571147D01*
X79204047Y-132668683D01*
X79238821Y-132780355D01*
X79250412Y-132905032D01*
X79244758Y-133043279D01*
X79227795Y-133159475D01*
X79187084Y-133314402D01*
X78488215Y-133314402D01*
X78488215Y-133036212D01*
X78999362Y-133036212D01*
X79006147Y-132981931D01*
X79008409Y-132927649D01*
X78978724Y-132792512D01*
X78889669Y-132694693D01*
X78795808Y-132650715D01*
X78672544Y-132624329D01*
X78519879Y-132615533D01*
X78416123Y-132620339D01*
X78321979Y-132634758D01*
X78168183Y-132698086D01*
X78067536Y-132810040D01*
X78031349Y-132977407D01*
X78056228Y-133126680D01*
X78112771Y-133248813D01*
X77891123Y-133321187D01*
X77863982Y-133274822D01*
X77830057Y-133196793D01*
X77801785Y-133084838D01*
X77789346Y-132938958D01*
X77800937Y-132816260D01*
X77835711Y-132701478D01*
X77893667Y-132598005D01*
X77974806Y-132509233D01*
X78078562Y-132436292D01*
X78204370Y-132380315D01*
X78351664Y-132344693D01*
X78519879Y-132332819D01*
X78689790Y-132342997D01*
G37*
G36*
X76406591Y-132894572D02*
G01*
X76390477Y-132998893D01*
X76361640Y-133092754D01*
X76318102Y-133173045D01*
X76182399Y-133289523D01*
X76087124Y-133321753D01*
X75970929Y-133332496D01*
X75875937Y-133319774D01*
X75785468Y-133281607D01*
X75706309Y-133207819D01*
X75645242Y-133088231D01*
X75523110Y-133218279D01*
X75440557Y-133254750D01*
X75346696Y-133266906D01*
X75215517Y-133246551D01*
X75096777Y-133169653D01*
X75010832Y-133013595D01*
X74986236Y-132899378D01*
X74980490Y-132798732D01*
X75220040Y-132798732D01*
X75225695Y-132873368D01*
X75248312Y-132936696D01*
X75295808Y-132979669D01*
X75376099Y-132995501D01*
X75503885Y-132941220D01*
X75538495Y-132821349D01*
X75780945Y-132821349D01*
X75825048Y-132994370D01*
X75970929Y-133058829D01*
X76071575Y-133036212D01*
X76132641Y-132978538D01*
X76162044Y-132898247D01*
X76169960Y-132805517D01*
X76167698Y-132736535D01*
X76160913Y-132672076D01*
X75780945Y-132672076D01*
X75780945Y-132780638D01*
X75780945Y-132821349D01*
X75538495Y-132821349D01*
X75550250Y-132780638D01*
X75550250Y-132672076D01*
X75229087Y-132672076D01*
X75222302Y-132733142D01*
X75220040Y-132798732D01*
X74980490Y-132798732D01*
X74978037Y-132755759D01*
X74988215Y-132568037D01*
X75011963Y-132393885D01*
X76371252Y-132393885D01*
X76389063Y-132491704D01*
X76401785Y-132590654D01*
X76409418Y-132688473D01*
X76411963Y-132782900D01*
X76410875Y-132805517D01*
X76406591Y-132894572D01*
G37*
D11*
%TO.C,U7*%
X102880000Y-65040000D02*
X101480000Y-65040000D01*
X102880000Y-67360000D02*
X101470000Y-67360000D01*
X101340000Y-67640000D02*
X100860000Y-67640000D01*
X101100000Y-67310000D01*
X101340000Y-67640000D01*
G36*
X101340000Y-67640000D02*
G01*
X100860000Y-67640000D01*
X101100000Y-67310000D01*
X101340000Y-67640000D01*
G37*
D12*
%TO.C,kibuzzard-37*%
G36*
X86530929Y-32483651D02*
G01*
X86605242Y-32483651D01*
X87064047Y-32483651D01*
X87157746Y-32021616D01*
X87584241Y-32021616D01*
X87530929Y-32248368D01*
X87476971Y-32468530D01*
X87422367Y-32682100D01*
X87367116Y-32889079D01*
X87311220Y-33089467D01*
X87240844Y-33332500D01*
X87170267Y-33568869D01*
X87099487Y-33798574D01*
X87028506Y-34021616D01*
X86595549Y-34021616D01*
X86527092Y-33800392D01*
X86457423Y-33572908D01*
X86386543Y-33339164D01*
X86314451Y-33099160D01*
X86256422Y-32900452D01*
X86232088Y-32813215D01*
X86605242Y-32813215D01*
X86645630Y-33020000D01*
X86690864Y-33218708D01*
X86742561Y-33419031D01*
X86802334Y-33633893D01*
X86862108Y-33419031D01*
X86913805Y-33218708D01*
X86957423Y-33020000D01*
X86996195Y-32813215D01*
X86605242Y-32813215D01*
X86232088Y-32813215D01*
X86198651Y-32693344D01*
X86141139Y-32477835D01*
X86083885Y-32253926D01*
X86026890Y-32021616D01*
X86440460Y-32021616D01*
X86530929Y-32483651D01*
G37*
G36*
X81913805Y-31997322D02*
G01*
X82041026Y-32003441D01*
X82190057Y-32026462D01*
X82324144Y-32067658D01*
X82438845Y-32129855D01*
X82605242Y-32323716D01*
X82651284Y-32459822D01*
X82666632Y-32625816D01*
X82648457Y-32761519D01*
X82593934Y-32890759D01*
X82488522Y-33003845D01*
X82317682Y-33091082D01*
X82503465Y-33265557D01*
X82555565Y-33383489D01*
X82572932Y-33517577D01*
X82543853Y-33704976D01*
X82433998Y-33874604D01*
X82211058Y-33997383D01*
X82047892Y-34032520D01*
X81842722Y-34044233D01*
X81574548Y-34029693D01*
X81325759Y-33995767D01*
X81325759Y-33226785D01*
X81723174Y-33226785D01*
X81723174Y-33685590D01*
X81810412Y-33695283D01*
X81904111Y-33698514D01*
X82010735Y-33690436D01*
X82101204Y-33658126D01*
X82162593Y-33590275D01*
X82185210Y-33475574D01*
X82107666Y-33293021D01*
X81878263Y-33226785D01*
X81723174Y-33226785D01*
X81325759Y-33226785D01*
X81325759Y-32354410D01*
X81723174Y-32354410D01*
X81723174Y-32897221D01*
X81878263Y-32897221D01*
X81936422Y-32897221D01*
X82183595Y-32834216D01*
X82275679Y-32625816D01*
X82243368Y-32482036D01*
X82160977Y-32394798D01*
X82046276Y-32352795D01*
X81913805Y-32341486D01*
X81815258Y-32344717D01*
X81723174Y-32354410D01*
X81325759Y-32354410D01*
X81325759Y-32053926D01*
X81465501Y-32028481D01*
X81606858Y-32010307D01*
X81746599Y-31999402D01*
X81881494Y-31995767D01*
X81913805Y-31997322D01*
G37*
D11*
%TO.C,J17*%
X93645000Y-82370000D02*
X94975000Y-82370000D01*
X93645000Y-83700000D02*
X93645000Y-82370000D01*
X93645000Y-84970000D02*
X96305000Y-84970000D01*
X93645000Y-92650000D02*
X93645000Y-84970000D01*
X93645000Y-92650000D02*
X96305000Y-92650000D01*
X96305000Y-92650000D02*
X96305000Y-84970000D01*
D12*
%TO.C,kibuzzard-41*%
G36*
X86266729Y-142202141D02*
G01*
X86036034Y-142202141D01*
X86036034Y-141602787D01*
X84866729Y-141602787D01*
X84866729Y-141322334D01*
X86266729Y-141322334D01*
X86266729Y-142202141D01*
G37*
G36*
X87924564Y-142717811D02*
G01*
X89093869Y-142717811D01*
X89093869Y-142998263D01*
X87924564Y-142998263D01*
X87924564Y-143366922D01*
X87693869Y-143366922D01*
X87693869Y-142349152D01*
X87924564Y-142349152D01*
X87924564Y-142717811D01*
G37*
G36*
X82960105Y-141607310D02*
G01*
X83353643Y-141607310D01*
X83353643Y-141847052D01*
X82960105Y-141847052D01*
X82960105Y-142202141D01*
X82731672Y-142202141D01*
X82731672Y-141847052D01*
X82338134Y-141847052D01*
X82338134Y-141607310D01*
X82731672Y-141607310D01*
X82731672Y-141252221D01*
X82960105Y-141252221D01*
X82960105Y-141607310D01*
G37*
G36*
X86266729Y-143332997D02*
G01*
X86036034Y-143332997D01*
X86036034Y-142713288D01*
X85642496Y-142713288D01*
X85642496Y-143208603D01*
X85411801Y-143208603D01*
X85411801Y-142713288D01*
X85097423Y-142713288D01*
X85097423Y-143283239D01*
X84866729Y-143283239D01*
X84866729Y-142435097D01*
X86266729Y-142435097D01*
X86266729Y-143332997D01*
G37*
G36*
X89093869Y-143778554D02*
G01*
X88164305Y-143778554D01*
X88319484Y-143862614D01*
X88474411Y-143942905D01*
X88629087Y-144019426D01*
X88783763Y-144092178D01*
X88938691Y-144161160D01*
X89093869Y-144226373D01*
X89093869Y-144450283D01*
X87693869Y-144450283D01*
X87693869Y-144199233D01*
X88555582Y-144199233D01*
X88467375Y-144159370D01*
X88365598Y-144112157D01*
X88255339Y-144059006D01*
X88141688Y-144001333D01*
X88026058Y-143940549D01*
X87909863Y-143878069D01*
X87797625Y-143814742D01*
X87693869Y-143751414D01*
X87693869Y-143527504D01*
X89093869Y-143527504D01*
X89093869Y-143778554D01*
G37*
G36*
X91921010Y-142647698D02*
G01*
X90991446Y-142647698D01*
X91146624Y-142731758D01*
X91301552Y-142812049D01*
X91456228Y-142888570D01*
X91610904Y-142961322D01*
X91765831Y-143030304D01*
X91921010Y-143095517D01*
X91921010Y-143319426D01*
X90521010Y-143319426D01*
X90521010Y-143068376D01*
X91382722Y-143068376D01*
X91294515Y-143028514D01*
X91192738Y-142981300D01*
X91082480Y-142928150D01*
X90968829Y-142870477D01*
X90853199Y-142809693D01*
X90737003Y-142747213D01*
X90624766Y-142683885D01*
X90521010Y-142620557D01*
X90521010Y-142396648D01*
X91921010Y-142396648D01*
X91921010Y-142647698D01*
G37*
G36*
X83421494Y-142436228D02*
G01*
X83445242Y-142530089D01*
X83462205Y-142638651D01*
X83468990Y-142749475D01*
X83460509Y-142878958D01*
X83435065Y-142991478D01*
X83394354Y-143087036D01*
X83340073Y-143165630D01*
X83196454Y-143269669D01*
X83016648Y-143303595D01*
X82885468Y-143288265D01*
X82775398Y-143242277D01*
X82686438Y-143165630D01*
X82619089Y-143057822D01*
X82573855Y-142918349D01*
X82550735Y-142747213D01*
X82421817Y-142758522D01*
X82270283Y-142769830D01*
X82270283Y-143251575D01*
X82039588Y-143251575D01*
X82039588Y-142536874D01*
X82212326Y-142528393D01*
X82391284Y-142516519D01*
X82575331Y-142500687D01*
X82763336Y-142480331D01*
X82768142Y-142635824D01*
X82782561Y-142758522D01*
X82836842Y-142922496D01*
X82920525Y-142999394D01*
X83027956Y-143018619D01*
X83102593Y-143007310D01*
X83167052Y-142965468D01*
X83213417Y-142881785D01*
X83231511Y-142747213D01*
X83226422Y-142641478D01*
X83211155Y-142554968D01*
X83165921Y-142428312D01*
X83396616Y-142371769D01*
X83421494Y-142436228D01*
G37*
G36*
X86274927Y-143980695D02*
G01*
X86245242Y-144105372D01*
X86194071Y-144215913D01*
X86119717Y-144310057D01*
X86021050Y-144386672D01*
X85896939Y-144444628D01*
X85745687Y-144481099D01*
X85565598Y-144493255D01*
X85389467Y-144482229D01*
X85241042Y-144449152D01*
X85118344Y-144396284D01*
X85019394Y-144325889D01*
X84943910Y-144237964D01*
X84891607Y-144132512D01*
X84861074Y-144012359D01*
X84852815Y-143905210D01*
X85092900Y-143905210D01*
X85132480Y-144056745D01*
X85237649Y-144149475D01*
X85389184Y-144196971D01*
X85565598Y-144210541D01*
X85665396Y-144206300D01*
X85756712Y-144193578D01*
X85907116Y-144137036D01*
X86006632Y-144032997D01*
X86042819Y-143873546D01*
X86042819Y-143848667D01*
X86040557Y-143823788D01*
X85099685Y-143823788D01*
X85094031Y-143864499D01*
X85092900Y-143905210D01*
X84852815Y-143905210D01*
X84850897Y-143880331D01*
X84857682Y-143724273D01*
X84884822Y-143545598D01*
X86250897Y-143545598D01*
X86276906Y-143698263D01*
X86284822Y-143844144D01*
X86284495Y-143848667D01*
X86274927Y-143980695D01*
G37*
G36*
X91929208Y-143980695D02*
G01*
X91899523Y-144105372D01*
X91848352Y-144215913D01*
X91773998Y-144310057D01*
X91675331Y-144386672D01*
X91551220Y-144444628D01*
X91399968Y-144481099D01*
X91219879Y-144493255D01*
X91043748Y-144482229D01*
X90895323Y-144449152D01*
X90772625Y-144396284D01*
X90673675Y-144325889D01*
X90598191Y-144237964D01*
X90545889Y-144132512D01*
X90515355Y-144012359D01*
X90507096Y-143905210D01*
X90747181Y-143905210D01*
X90786761Y-144056745D01*
X90891931Y-144149475D01*
X91043465Y-144196971D01*
X91219879Y-144210541D01*
X91319677Y-144206300D01*
X91410994Y-144193578D01*
X91561397Y-144137036D01*
X91660913Y-144032997D01*
X91697100Y-143873546D01*
X91697100Y-143848667D01*
X91694838Y-143823788D01*
X90753966Y-143823788D01*
X90748312Y-143864499D01*
X90747181Y-143905210D01*
X90507096Y-143905210D01*
X90505178Y-143880331D01*
X90511963Y-143724273D01*
X90539103Y-143545598D01*
X91905178Y-143545598D01*
X91931187Y-143698263D01*
X91939103Y-143844144D01*
X91938776Y-143848667D01*
X91929208Y-143980695D01*
G37*
G36*
X82166244Y-143478877D02*
G01*
X82324564Y-143516195D01*
X82443052Y-143546100D01*
X82566316Y-143578518D01*
X82694354Y-143613449D01*
X82824905Y-143650390D01*
X82955707Y-143688840D01*
X83086761Y-143728796D01*
X83273352Y-143788166D01*
X83439588Y-143844144D01*
X83439588Y-144131381D01*
X83319089Y-144174605D01*
X83195826Y-144216824D01*
X83069798Y-144258037D01*
X82943142Y-144297617D01*
X82817994Y-144334935D01*
X82694354Y-144369992D01*
X82514265Y-144418053D01*
X82342658Y-144460460D01*
X82183207Y-144496931D01*
X82039588Y-144527181D01*
X82039588Y-144235420D01*
X82157197Y-144215065D01*
X82292900Y-144190186D01*
X82439628Y-144161914D01*
X82590315Y-144131381D01*
X82741850Y-144098586D01*
X82891123Y-144063530D01*
X83031066Y-144027342D01*
X83154612Y-143991155D01*
X83029370Y-143954685D01*
X82888861Y-143917649D01*
X82739588Y-143881462D01*
X82588053Y-143847536D01*
X82437649Y-143816155D01*
X82291769Y-143787601D01*
X82156914Y-143763853D01*
X82039588Y-143746890D01*
X82039588Y-143452868D01*
X82166244Y-143478877D01*
G37*
G36*
X91389790Y-141232997D02*
G01*
X91537649Y-141263530D01*
X91663174Y-141312722D01*
X91766082Y-141378877D01*
X91846373Y-141461147D01*
X91904047Y-141558683D01*
X91938821Y-141670355D01*
X91950412Y-141795032D01*
X91944758Y-141933279D01*
X91927795Y-142049475D01*
X91887084Y-142204402D01*
X91188215Y-142204402D01*
X91188215Y-141926212D01*
X91699362Y-141926212D01*
X91706147Y-141871931D01*
X91708409Y-141817649D01*
X91678724Y-141682512D01*
X91589669Y-141584693D01*
X91495808Y-141540715D01*
X91372544Y-141514329D01*
X91219879Y-141505533D01*
X91116123Y-141510339D01*
X91021979Y-141524758D01*
X90868183Y-141588086D01*
X90767536Y-141700040D01*
X90731349Y-141867407D01*
X90756228Y-142016680D01*
X90812771Y-142138813D01*
X90591123Y-142211187D01*
X90563982Y-142164822D01*
X90530057Y-142086793D01*
X90501785Y-141974838D01*
X90489346Y-141828958D01*
X90500937Y-141706260D01*
X90535711Y-141591478D01*
X90593667Y-141488005D01*
X90674806Y-141399233D01*
X90778562Y-141326292D01*
X90904370Y-141270315D01*
X91051664Y-141234693D01*
X91219879Y-141222819D01*
X91389790Y-141232997D01*
G37*
G36*
X89106591Y-141784572D02*
G01*
X89090477Y-141888893D01*
X89061640Y-141982754D01*
X89018102Y-142063045D01*
X88882399Y-142179523D01*
X88787124Y-142211753D01*
X88670929Y-142222496D01*
X88575937Y-142209774D01*
X88485468Y-142171607D01*
X88406309Y-142097819D01*
X88345242Y-141978231D01*
X88223110Y-142108279D01*
X88140557Y-142144750D01*
X88046696Y-142156906D01*
X87915517Y-142136551D01*
X87796777Y-142059653D01*
X87710832Y-141903595D01*
X87686236Y-141789378D01*
X87680490Y-141688732D01*
X87920040Y-141688732D01*
X87925695Y-141763368D01*
X87948312Y-141826696D01*
X87995808Y-141869669D01*
X88076099Y-141885501D01*
X88203885Y-141831220D01*
X88238495Y-141711349D01*
X88480945Y-141711349D01*
X88525048Y-141884370D01*
X88670929Y-141948829D01*
X88771575Y-141926212D01*
X88832641Y-141868538D01*
X88862044Y-141788247D01*
X88869960Y-141695517D01*
X88867698Y-141626535D01*
X88860913Y-141562076D01*
X88480945Y-141562076D01*
X88480945Y-141670638D01*
X88480945Y-141711349D01*
X88238495Y-141711349D01*
X88250250Y-141670638D01*
X88250250Y-141562076D01*
X87929087Y-141562076D01*
X87922302Y-141623142D01*
X87920040Y-141688732D01*
X87680490Y-141688732D01*
X87678037Y-141645759D01*
X87688215Y-141458037D01*
X87711963Y-141283885D01*
X89071252Y-141283885D01*
X89089063Y-141381704D01*
X89101785Y-141480654D01*
X89109418Y-141578473D01*
X89111963Y-141672900D01*
X89110875Y-141695517D01*
X89106591Y-141784572D01*
G37*
%TO.C,kibuzzard-36*%
G36*
X102960097Y-141589216D02*
G01*
X104129402Y-141589216D01*
X104129402Y-141869669D01*
X102960097Y-141869669D01*
X102960097Y-142238328D01*
X102729402Y-142238328D01*
X102729402Y-141220557D01*
X102960097Y-141220557D01*
X102960097Y-141589216D01*
G37*
G36*
X100822779Y-141609572D02*
G01*
X101216317Y-141609572D01*
X101216317Y-141849313D01*
X100822779Y-141849313D01*
X100822779Y-142204402D01*
X100594346Y-142204402D01*
X100594346Y-141849313D01*
X100200808Y-141849313D01*
X100200808Y-141609572D01*
X100594346Y-141609572D01*
X100594346Y-141254483D01*
X100822779Y-141254483D01*
X100822779Y-141609572D01*
G37*
G36*
X98475121Y-142649960D02*
G01*
X97545557Y-142649960D01*
X97700736Y-142734020D01*
X97855663Y-142814311D01*
X98010339Y-142890832D01*
X98165015Y-142963584D01*
X98319943Y-143032566D01*
X98475121Y-143097779D01*
X98475121Y-143321688D01*
X97075121Y-143321688D01*
X97075121Y-143070638D01*
X97936834Y-143070638D01*
X97848627Y-143030775D01*
X97746850Y-142983562D01*
X97636591Y-142930412D01*
X97522940Y-142872738D01*
X97407310Y-142811955D01*
X97291115Y-142749475D01*
X97178877Y-142686147D01*
X97075121Y-142622819D01*
X97075121Y-142398910D01*
X98475121Y-142398910D01*
X98475121Y-142649960D01*
G37*
G36*
X104129402Y-142620557D02*
G01*
X104006987Y-142672577D01*
X103870436Y-142733643D01*
X103729362Y-142799233D01*
X103593376Y-142864822D01*
X103733603Y-142931260D01*
X103873829Y-142994871D01*
X104007835Y-143052262D01*
X104129402Y-143100040D01*
X104129402Y-143400848D01*
X103981260Y-143339782D01*
X103890792Y-143298223D01*
X103793538Y-143250444D01*
X103691478Y-143197577D01*
X103586591Y-143140751D01*
X103482553Y-143081381D01*
X103383037Y-143020880D01*
X102729402Y-143378231D01*
X102729402Y-143097779D01*
X103177221Y-142864822D01*
X102729402Y-142643174D01*
X102729402Y-142342367D01*
X103389822Y-142708764D01*
X103489055Y-142653352D01*
X103592246Y-142595679D01*
X103696002Y-142538288D01*
X103796931Y-142483724D01*
X103893053Y-142432835D01*
X103982391Y-142386470D01*
X104129402Y-142319750D01*
X104129402Y-142620557D01*
G37*
G36*
X106956543Y-142620557D02*
G01*
X106834128Y-142672577D01*
X106697577Y-142733643D01*
X106556502Y-142799233D01*
X106420517Y-142864822D01*
X106560743Y-142931260D01*
X106700969Y-142994871D01*
X106834976Y-143052262D01*
X106956543Y-143100040D01*
X106956543Y-143400848D01*
X106808401Y-143339782D01*
X106717932Y-143298223D01*
X106620679Y-143250444D01*
X106518619Y-143197577D01*
X106413732Y-143140751D01*
X106309693Y-143081381D01*
X106210178Y-143020880D01*
X105556543Y-143378231D01*
X105556543Y-143097779D01*
X106004362Y-142864822D01*
X105556543Y-142643174D01*
X105556543Y-142342367D01*
X106216963Y-142708764D01*
X106316195Y-142653352D01*
X106419386Y-142595679D01*
X106523142Y-142538288D01*
X106624071Y-142483724D01*
X106720194Y-142432835D01*
X106809532Y-142386470D01*
X106956543Y-142319750D01*
X106956543Y-142620557D01*
G37*
G36*
X98483320Y-143982956D02*
G01*
X98453635Y-144107633D01*
X98402464Y-144218174D01*
X98328110Y-144312318D01*
X98229443Y-144388934D01*
X98105331Y-144446890D01*
X97954079Y-144483360D01*
X97773990Y-144495517D01*
X97597859Y-144484491D01*
X97449435Y-144451414D01*
X97326737Y-144398546D01*
X97227787Y-144328150D01*
X97152302Y-144240226D01*
X97100000Y-144134774D01*
X97069467Y-144014620D01*
X97061207Y-143907472D01*
X97301292Y-143907472D01*
X97340872Y-144059006D01*
X97446042Y-144151737D01*
X97597577Y-144199233D01*
X97773990Y-144212803D01*
X97873788Y-144208562D01*
X97965105Y-144195840D01*
X98115509Y-144139297D01*
X98215024Y-144035258D01*
X98251212Y-143875808D01*
X98251212Y-143850929D01*
X98248950Y-143826050D01*
X97308078Y-143826050D01*
X97302423Y-143866761D01*
X97301292Y-143907472D01*
X97061207Y-143907472D01*
X97059289Y-143882593D01*
X97066074Y-143726535D01*
X97093215Y-143547859D01*
X98459289Y-143547859D01*
X98485299Y-143700525D01*
X98493215Y-143846405D01*
X98492887Y-143850929D01*
X98483320Y-143982956D01*
G37*
G36*
X101284168Y-142438489D02*
G01*
X101307916Y-142532351D01*
X101324879Y-142640913D01*
X101331664Y-142751737D01*
X101323183Y-142881220D01*
X101297738Y-142993740D01*
X101257027Y-143089297D01*
X101202746Y-143167892D01*
X101059128Y-143271931D01*
X100879321Y-143305856D01*
X100748142Y-143290527D01*
X100638072Y-143244539D01*
X100549111Y-143167892D01*
X100481763Y-143060083D01*
X100436528Y-142920611D01*
X100413409Y-142749475D01*
X100284491Y-142760784D01*
X100132956Y-142772092D01*
X100132956Y-143253837D01*
X99902262Y-143253837D01*
X99902262Y-142539136D01*
X100075000Y-142530654D01*
X100253958Y-142518780D01*
X100438005Y-142502948D01*
X100626010Y-142482593D01*
X100630816Y-142638086D01*
X100645234Y-142760784D01*
X100699515Y-142924758D01*
X100783199Y-143001656D01*
X100890630Y-143020880D01*
X100965267Y-143009572D01*
X101029725Y-142967730D01*
X101076090Y-142884047D01*
X101094184Y-142749475D01*
X101089095Y-142643740D01*
X101073829Y-142557229D01*
X101028595Y-142430574D01*
X101259289Y-142374031D01*
X101284168Y-142438489D01*
G37*
G36*
X100028918Y-143481139D02*
G01*
X100187237Y-143518457D01*
X100305726Y-143548362D01*
X100428989Y-143580780D01*
X100557027Y-143615711D01*
X100687579Y-143652652D01*
X100818381Y-143691101D01*
X100949435Y-143731058D01*
X101136026Y-143790428D01*
X101302262Y-143846405D01*
X101302262Y-144133643D01*
X101181763Y-144176867D01*
X101058499Y-144219085D01*
X100932472Y-144260299D01*
X100805816Y-144299879D01*
X100680668Y-144337197D01*
X100557027Y-144372254D01*
X100376939Y-144420315D01*
X100205331Y-144462722D01*
X100045880Y-144499192D01*
X99902262Y-144529443D01*
X99902262Y-144237682D01*
X100019871Y-144217326D01*
X100155574Y-144192447D01*
X100302302Y-144164176D01*
X100452989Y-144133643D01*
X100604523Y-144100848D01*
X100753796Y-144065792D01*
X100893740Y-144029604D01*
X101017286Y-143993417D01*
X100892044Y-143956947D01*
X100751535Y-143919911D01*
X100602262Y-143883724D01*
X100450727Y-143849798D01*
X100300323Y-143818417D01*
X100154443Y-143789863D01*
X100019588Y-143766115D01*
X99902262Y-143749152D01*
X99902262Y-143455129D01*
X100028918Y-143481139D01*
G37*
G36*
X97943901Y-141235258D02*
G01*
X98091761Y-141265792D01*
X98217286Y-141314984D01*
X98320194Y-141381139D01*
X98400485Y-141463409D01*
X98458158Y-141560945D01*
X98492932Y-141672617D01*
X98504523Y-141797294D01*
X98498869Y-141935541D01*
X98481906Y-142051737D01*
X98441195Y-142206664D01*
X97742326Y-142206664D01*
X97742326Y-141928473D01*
X98253473Y-141928473D01*
X98260258Y-141874192D01*
X98262520Y-141819911D01*
X98232835Y-141684774D01*
X98143780Y-141586955D01*
X98049919Y-141542977D01*
X97926656Y-141516590D01*
X97773990Y-141507795D01*
X97670234Y-141512601D01*
X97576090Y-141527019D01*
X97422294Y-141590347D01*
X97321648Y-141702302D01*
X97285460Y-141869669D01*
X97310339Y-142018942D01*
X97366882Y-142141074D01*
X97145234Y-142213449D01*
X97118094Y-142167084D01*
X97084168Y-142089055D01*
X97055897Y-141977100D01*
X97043457Y-141831220D01*
X97055048Y-141708522D01*
X97089822Y-141593740D01*
X97147779Y-141490267D01*
X97228918Y-141401494D01*
X97332674Y-141328554D01*
X97458481Y-141272577D01*
X97605775Y-141236955D01*
X97773990Y-141225081D01*
X97943901Y-141235258D01*
G37*
G36*
X106440872Y-141709087D02*
G01*
X106568942Y-141785703D01*
X106695315Y-141857229D01*
X106823384Y-141921971D01*
X106956543Y-141978231D01*
X106956543Y-142269992D01*
X106808401Y-142205533D01*
X106652342Y-142127504D01*
X106503069Y-142043821D01*
X106373021Y-141962399D01*
X106309128Y-142061349D01*
X106221486Y-142127504D01*
X106116317Y-142164822D01*
X105999838Y-142177262D01*
X105889863Y-142167932D01*
X105795153Y-142139943D01*
X105651535Y-142032512D01*
X105602342Y-141955614D01*
X105567851Y-141865145D01*
X105547496Y-141762237D01*
X105540711Y-141648021D01*
X105782714Y-141648021D01*
X105795719Y-141748102D01*
X105834733Y-141826696D01*
X105901454Y-141877585D01*
X105997577Y-141894548D01*
X106154766Y-141831220D01*
X106196325Y-141748102D01*
X106210178Y-141625404D01*
X106210178Y-141564338D01*
X105789499Y-141564338D01*
X105783845Y-141609572D01*
X105782714Y-141648021D01*
X105540711Y-141648021D01*
X105542973Y-141568861D01*
X105548627Y-141473869D01*
X105559935Y-141375485D01*
X105576898Y-141286147D01*
X106956543Y-141286147D01*
X106956543Y-141564338D01*
X106440872Y-141564338D01*
X106440872Y-141709087D01*
G37*
%TO.C,kibuzzard-28*%
G36*
X170372671Y-33333247D02*
G01*
X170099004Y-33333247D01*
X170099004Y-32713538D01*
X170372671Y-32713538D01*
X170372671Y-33333247D01*
G37*
G36*
X178288665Y-33333247D02*
G01*
X178014997Y-33333247D01*
X178014997Y-32713538D01*
X178288665Y-32713538D01*
X178288665Y-33333247D01*
G37*
G36*
X162420490Y-31772666D02*
G01*
X162814028Y-31772666D01*
X162814028Y-32012407D01*
X162420490Y-32012407D01*
X162420490Y-32367496D01*
X162192057Y-32367496D01*
X162192057Y-32012407D01*
X161798519Y-32012407D01*
X161798519Y-31772666D01*
X162192057Y-31772666D01*
X162192057Y-31417577D01*
X162420490Y-31417577D01*
X162420490Y-31772666D01*
G37*
G36*
X172975148Y-32903522D02*
G01*
X173368686Y-32903522D01*
X173368686Y-33143263D01*
X172975148Y-33143263D01*
X172975148Y-33498352D01*
X172746715Y-33498352D01*
X172746715Y-33143263D01*
X172353177Y-33143263D01*
X172353177Y-32903522D01*
X172746715Y-32903522D01*
X172746715Y-32548433D01*
X172975148Y-32548433D01*
X172975148Y-32903522D01*
G37*
G36*
X175613813Y-32903522D02*
G01*
X176007351Y-32903522D01*
X176007351Y-33143263D01*
X175613813Y-33143263D01*
X175613813Y-33498352D01*
X175385380Y-33498352D01*
X175385380Y-33143263D01*
X174991842Y-33143263D01*
X174991842Y-32903522D01*
X175385380Y-32903522D01*
X175385380Y-32548433D01*
X175613813Y-32548433D01*
X175613813Y-32903522D01*
G37*
G36*
X181370625Y-32813053D02*
G01*
X180441061Y-32813053D01*
X180596239Y-32897114D01*
X180751167Y-32977404D01*
X180905843Y-33053926D01*
X181060519Y-33126677D01*
X181215446Y-33195660D01*
X181370625Y-33260872D01*
X181370625Y-33484782D01*
X179970625Y-33484782D01*
X179970625Y-33233732D01*
X180832337Y-33233732D01*
X180744130Y-33193869D01*
X180642353Y-33146656D01*
X180532095Y-33093506D01*
X180418444Y-33035832D01*
X180302814Y-32975048D01*
X180186618Y-32912569D01*
X180074381Y-32849241D01*
X179970625Y-32785913D01*
X179970625Y-32562003D01*
X181370625Y-32562003D01*
X181370625Y-32813053D01*
G37*
G36*
X165538638Y-31652795D02*
G01*
X165416222Y-31704814D01*
X165279672Y-31765880D01*
X165138597Y-31831470D01*
X165002612Y-31897060D01*
X165142838Y-31963498D01*
X165283064Y-32027108D01*
X165417071Y-32084499D01*
X165538638Y-32132278D01*
X165538638Y-32433086D01*
X165390495Y-32372019D01*
X165300027Y-32330460D01*
X165202773Y-32282682D01*
X165100714Y-32229814D01*
X164995827Y-32172989D01*
X164891788Y-32113619D01*
X164792272Y-32053118D01*
X164138638Y-32410468D01*
X164138638Y-32130016D01*
X164586457Y-31897060D01*
X164138638Y-31675412D01*
X164138638Y-31374604D01*
X164799058Y-31741002D01*
X164898290Y-31685590D01*
X165001481Y-31627916D01*
X165105237Y-31570525D01*
X165206166Y-31515961D01*
X165302289Y-31465073D01*
X165391626Y-31418708D01*
X165538638Y-31351987D01*
X165538638Y-31652795D01*
G37*
G36*
X168177302Y-31652795D02*
G01*
X168054887Y-31704814D01*
X167918336Y-31765880D01*
X167777262Y-31831470D01*
X167641276Y-31897060D01*
X167781502Y-31963498D01*
X167921729Y-32027108D01*
X168055735Y-32084499D01*
X168177302Y-32132278D01*
X168177302Y-32433086D01*
X168029160Y-32372019D01*
X167938691Y-32330460D01*
X167841438Y-32282682D01*
X167739378Y-32229814D01*
X167634491Y-32172989D01*
X167530452Y-32113619D01*
X167430937Y-32053118D01*
X166777302Y-32410468D01*
X166777302Y-32130016D01*
X167225121Y-31897060D01*
X166777302Y-31675412D01*
X166777302Y-31374604D01*
X167437722Y-31741002D01*
X167536955Y-31685590D01*
X167640145Y-31627916D01*
X167743901Y-31570525D01*
X167844830Y-31515961D01*
X167940953Y-31465073D01*
X168030291Y-31418708D01*
X168177302Y-31351987D01*
X168177302Y-31652795D01*
G37*
G36*
X175769871Y-32073473D02*
G01*
X176093296Y-32139063D01*
X176093296Y-32437609D01*
X175934569Y-32400291D01*
X175780456Y-32362520D01*
X175630956Y-32324297D01*
X175486071Y-32285622D01*
X175345800Y-32246494D01*
X175175676Y-32197231D01*
X175010218Y-32147827D01*
X174849424Y-32098282D01*
X174693296Y-32048595D01*
X174693296Y-31890275D01*
X174964701Y-31890275D01*
X175115105Y-31932116D01*
X175255331Y-31968304D01*
X175394426Y-31998837D01*
X175539176Y-32025977D01*
X175539176Y-31752310D01*
X175394426Y-31780582D01*
X175255331Y-31812246D01*
X175115105Y-31848433D01*
X174964701Y-31890275D01*
X174693296Y-31890275D01*
X174693296Y-31745525D01*
X174848152Y-31697605D01*
X175007391Y-31648837D01*
X175171012Y-31599221D01*
X175339015Y-31548756D01*
X175478110Y-31508136D01*
X175623086Y-31467696D01*
X175773942Y-31427438D01*
X175930679Y-31387360D01*
X176093296Y-31347464D01*
X176093296Y-31636963D01*
X175769871Y-31700291D01*
X175769871Y-31752310D01*
X175769871Y-32073473D01*
G37*
G36*
X178408535Y-32073473D02*
G01*
X178731960Y-32139063D01*
X178731960Y-32437609D01*
X178573233Y-32400291D01*
X178419120Y-32362520D01*
X178269621Y-32324297D01*
X178124736Y-32285622D01*
X177984464Y-32246494D01*
X177814341Y-32197231D01*
X177648883Y-32147827D01*
X177488089Y-32098282D01*
X177331960Y-32048595D01*
X177331960Y-31890275D01*
X177603366Y-31890275D01*
X177753770Y-31932116D01*
X177893996Y-31968304D01*
X178033091Y-31998837D01*
X178177841Y-32025977D01*
X178177841Y-31752310D01*
X178033091Y-31780582D01*
X177893996Y-31812246D01*
X177753770Y-31848433D01*
X177603366Y-31890275D01*
X177331960Y-31890275D01*
X177331960Y-31745525D01*
X177486817Y-31697605D01*
X177646055Y-31648837D01*
X177809676Y-31599221D01*
X177977679Y-31548756D01*
X178116774Y-31508136D01*
X178261750Y-31467696D01*
X178412606Y-31427438D01*
X178569343Y-31387360D01*
X178731960Y-31347464D01*
X178731960Y-31636963D01*
X178408535Y-31700291D01*
X178408535Y-31752310D01*
X178408535Y-32073473D01*
G37*
G36*
X162881879Y-32601583D02*
G01*
X162905627Y-32695444D01*
X162922590Y-32804006D01*
X162929375Y-32914830D01*
X162920894Y-33044313D01*
X162895450Y-33156834D01*
X162854739Y-33252391D01*
X162800458Y-33330985D01*
X162656839Y-33435024D01*
X162477033Y-33468950D01*
X162345854Y-33453621D01*
X162235784Y-33407632D01*
X162146823Y-33330985D01*
X162079474Y-33223177D01*
X162034240Y-33083705D01*
X162011120Y-32912569D01*
X161882202Y-32923877D01*
X161730668Y-32935186D01*
X161730668Y-33416931D01*
X161499973Y-33416931D01*
X161499973Y-32702229D01*
X161672711Y-32693748D01*
X161851669Y-32681874D01*
X162035716Y-32666042D01*
X162223721Y-32645687D01*
X162228527Y-32801179D01*
X162242946Y-32923877D01*
X162297227Y-33087851D01*
X162380910Y-33164750D01*
X162488341Y-33183974D01*
X162562978Y-33172666D01*
X162627437Y-33130824D01*
X162673802Y-33047141D01*
X162691896Y-32912569D01*
X162686807Y-32806834D01*
X162671540Y-32720323D01*
X162626306Y-32593667D01*
X162857001Y-32537124D01*
X162881879Y-32601583D01*
G37*
G36*
X181378823Y-34146050D02*
G01*
X181349138Y-34270727D01*
X181297967Y-34381268D01*
X181223613Y-34475412D01*
X181124946Y-34552027D01*
X181000835Y-34609984D01*
X180849583Y-34646454D01*
X180669494Y-34658611D01*
X180493363Y-34647585D01*
X180344938Y-34614507D01*
X180222240Y-34561640D01*
X180123290Y-34491244D01*
X180047806Y-34403320D01*
X179995504Y-34297868D01*
X179964970Y-34177714D01*
X179956711Y-34070565D01*
X180196796Y-34070565D01*
X180236376Y-34222100D01*
X180341546Y-34314830D01*
X180493080Y-34362326D01*
X180669494Y-34375897D01*
X180769292Y-34371656D01*
X180860609Y-34358934D01*
X181011012Y-34302391D01*
X181110528Y-34198352D01*
X181146715Y-34038901D01*
X181146715Y-34014023D01*
X181144453Y-33989144D01*
X180203581Y-33989144D01*
X180197927Y-34029855D01*
X180196796Y-34070565D01*
X179956711Y-34070565D01*
X179954793Y-34045687D01*
X179961578Y-33889628D01*
X179988718Y-33710953D01*
X181354793Y-33710953D01*
X181380802Y-33863619D01*
X181388718Y-34009499D01*
X181388391Y-34014023D01*
X181378823Y-34146050D01*
G37*
G36*
X161626629Y-33644233D02*
G01*
X161784949Y-33681551D01*
X161903437Y-33711456D01*
X162026701Y-33743874D01*
X162154739Y-33778805D01*
X162285290Y-33815746D01*
X162416092Y-33854195D01*
X162547146Y-33894152D01*
X162733737Y-33953522D01*
X162899973Y-34009499D01*
X162899973Y-34296737D01*
X162779474Y-34339961D01*
X162656211Y-34382179D01*
X162530183Y-34423393D01*
X162403527Y-34462973D01*
X162278379Y-34500291D01*
X162154739Y-34535347D01*
X161974650Y-34583409D01*
X161803043Y-34625816D01*
X161643592Y-34662286D01*
X161499973Y-34692536D01*
X161499973Y-34400775D01*
X161617582Y-34380420D01*
X161753285Y-34355541D01*
X161900013Y-34327270D01*
X162050700Y-34296737D01*
X162202235Y-34263942D01*
X162351508Y-34228885D01*
X162491451Y-34192698D01*
X162614997Y-34156511D01*
X162489755Y-34120040D01*
X162349246Y-34083005D01*
X162199973Y-34046817D01*
X162048438Y-34012892D01*
X161898034Y-33981511D01*
X161752154Y-33952956D01*
X161617299Y-33929208D01*
X161499973Y-33912246D01*
X161499973Y-33618223D01*
X161626629Y-33644233D01*
G37*
G36*
X180839405Y-31398352D02*
G01*
X180987264Y-31428885D01*
X181112789Y-31478078D01*
X181215697Y-31544233D01*
X181295988Y-31626502D01*
X181353662Y-31724039D01*
X181388436Y-31835711D01*
X181400027Y-31960388D01*
X181394373Y-32098635D01*
X181377410Y-32214830D01*
X181336699Y-32369758D01*
X180637830Y-32369758D01*
X180637830Y-32091567D01*
X181148977Y-32091567D01*
X181155762Y-32037286D01*
X181158024Y-31983005D01*
X181128339Y-31847868D01*
X181039284Y-31750048D01*
X180945423Y-31706071D01*
X180822159Y-31679684D01*
X180669494Y-31670889D01*
X180565738Y-31675695D01*
X180471594Y-31690113D01*
X180317798Y-31753441D01*
X180217151Y-31865396D01*
X180180964Y-32032763D01*
X180205843Y-32182036D01*
X180262386Y-32304168D01*
X180040738Y-32376543D01*
X180013597Y-32330178D01*
X179979672Y-32252149D01*
X179951400Y-32140194D01*
X179938961Y-31994313D01*
X179950552Y-31871616D01*
X179985326Y-31756834D01*
X180043282Y-31653360D01*
X180124421Y-31564588D01*
X180228177Y-31491648D01*
X180353985Y-31435670D01*
X180501279Y-31400048D01*
X180669494Y-31388174D01*
X180839405Y-31398352D01*
G37*
G36*
X170828689Y-31949927D02*
G01*
X170812574Y-32054249D01*
X170783737Y-32148110D01*
X170740199Y-32228401D01*
X170604496Y-32344879D01*
X170509222Y-32377108D01*
X170393026Y-32387851D01*
X170298034Y-32375129D01*
X170207566Y-32336963D01*
X170128406Y-32263174D01*
X170067340Y-32143586D01*
X169945207Y-32273635D01*
X169862655Y-32310105D01*
X169768794Y-32322262D01*
X169637614Y-32301906D01*
X169518875Y-32225008D01*
X169432929Y-32068950D01*
X169408333Y-31954733D01*
X169402588Y-31854087D01*
X169642138Y-31854087D01*
X169647792Y-31928724D01*
X169670409Y-31992052D01*
X169717905Y-32035024D01*
X169798196Y-32050856D01*
X169925983Y-31996575D01*
X169960594Y-31876704D01*
X170203043Y-31876704D01*
X170247146Y-32049725D01*
X170393026Y-32114184D01*
X170493673Y-32091567D01*
X170554739Y-32033893D01*
X170584141Y-31953603D01*
X170592057Y-31860872D01*
X170589795Y-31791890D01*
X170583010Y-31727431D01*
X170203043Y-31727431D01*
X170203043Y-31835994D01*
X170203043Y-31876704D01*
X169960594Y-31876704D01*
X169972348Y-31835994D01*
X169972348Y-31727431D01*
X169651185Y-31727431D01*
X169644400Y-31788498D01*
X169642138Y-31854087D01*
X169402588Y-31854087D01*
X169400135Y-31811115D01*
X169410312Y-31623393D01*
X169434060Y-31449241D01*
X170793349Y-31449241D01*
X170811160Y-31547060D01*
X170823883Y-31646010D01*
X170831516Y-31743829D01*
X170834060Y-31838255D01*
X170832972Y-31860872D01*
X170828689Y-31949927D01*
G37*
G36*
X173467353Y-31949927D02*
G01*
X173451239Y-32054249D01*
X173422402Y-32148110D01*
X173378864Y-32228401D01*
X173243161Y-32344879D01*
X173147886Y-32377108D01*
X173031691Y-32387851D01*
X172936699Y-32375129D01*
X172846230Y-32336963D01*
X172767071Y-32263174D01*
X172706004Y-32143586D01*
X172583872Y-32273635D01*
X172501319Y-32310105D01*
X172407458Y-32322262D01*
X172276279Y-32301906D01*
X172157539Y-32225008D01*
X172071594Y-32068950D01*
X172046998Y-31954733D01*
X172041252Y-31854087D01*
X172280802Y-31854087D01*
X172286457Y-31928724D01*
X172309074Y-31992052D01*
X172356570Y-32035024D01*
X172436861Y-32050856D01*
X172564647Y-31996575D01*
X172599258Y-31876704D01*
X172841707Y-31876704D01*
X172885810Y-32049725D01*
X173031691Y-32114184D01*
X173132337Y-32091567D01*
X173193403Y-32033893D01*
X173222806Y-31953603D01*
X173230722Y-31860872D01*
X173228460Y-31791890D01*
X173221675Y-31727431D01*
X172841707Y-31727431D01*
X172841707Y-31835994D01*
X172841707Y-31876704D01*
X172599258Y-31876704D01*
X172611012Y-31835994D01*
X172611012Y-31727431D01*
X172289849Y-31727431D01*
X172283064Y-31788498D01*
X172280802Y-31854087D01*
X172041252Y-31854087D01*
X172038799Y-31811115D01*
X172048977Y-31623393D01*
X172072725Y-31449241D01*
X173432014Y-31449241D01*
X173449825Y-31547060D01*
X173462547Y-31646010D01*
X173470180Y-31743829D01*
X173472725Y-31838255D01*
X173471637Y-31860872D01*
X173467353Y-31949927D01*
G37*
%TO.C,kibuzzard-29*%
G36*
X139892671Y-33333247D02*
G01*
X139619004Y-33333247D01*
X139619004Y-32713538D01*
X139892671Y-32713538D01*
X139892671Y-33333247D01*
G37*
G36*
X147808665Y-33333247D02*
G01*
X147534997Y-33333247D01*
X147534997Y-32713538D01*
X147808665Y-32713538D01*
X147808665Y-33333247D01*
G37*
G36*
X131940490Y-31772666D02*
G01*
X132334028Y-31772666D01*
X132334028Y-32012407D01*
X131940490Y-32012407D01*
X131940490Y-32367496D01*
X131712057Y-32367496D01*
X131712057Y-32012407D01*
X131318519Y-32012407D01*
X131318519Y-31772666D01*
X131712057Y-31772666D01*
X131712057Y-31417577D01*
X131940490Y-31417577D01*
X131940490Y-31772666D01*
G37*
G36*
X142495148Y-32903522D02*
G01*
X142888686Y-32903522D01*
X142888686Y-33143263D01*
X142495148Y-33143263D01*
X142495148Y-33498352D01*
X142266715Y-33498352D01*
X142266715Y-33143263D01*
X141873177Y-33143263D01*
X141873177Y-32903522D01*
X142266715Y-32903522D01*
X142266715Y-32548433D01*
X142495148Y-32548433D01*
X142495148Y-32903522D01*
G37*
G36*
X145133813Y-32903522D02*
G01*
X145527351Y-32903522D01*
X145527351Y-33143263D01*
X145133813Y-33143263D01*
X145133813Y-33498352D01*
X144905380Y-33498352D01*
X144905380Y-33143263D01*
X144511842Y-33143263D01*
X144511842Y-32903522D01*
X144905380Y-32903522D01*
X144905380Y-32548433D01*
X145133813Y-32548433D01*
X145133813Y-32903522D01*
G37*
G36*
X150890625Y-32813053D02*
G01*
X149961061Y-32813053D01*
X150116239Y-32897114D01*
X150271167Y-32977404D01*
X150425843Y-33053926D01*
X150580519Y-33126677D01*
X150735446Y-33195660D01*
X150890625Y-33260872D01*
X150890625Y-33484782D01*
X149490625Y-33484782D01*
X149490625Y-33233732D01*
X150352337Y-33233732D01*
X150264130Y-33193869D01*
X150162353Y-33146656D01*
X150052095Y-33093506D01*
X149938444Y-33035832D01*
X149822814Y-32975048D01*
X149706618Y-32912569D01*
X149594381Y-32849241D01*
X149490625Y-32785913D01*
X149490625Y-32562003D01*
X150890625Y-32562003D01*
X150890625Y-32813053D01*
G37*
G36*
X135058638Y-31652795D02*
G01*
X134936222Y-31704814D01*
X134799672Y-31765880D01*
X134658597Y-31831470D01*
X134522612Y-31897060D01*
X134662838Y-31963498D01*
X134803064Y-32027108D01*
X134937071Y-32084499D01*
X135058638Y-32132278D01*
X135058638Y-32433086D01*
X134910495Y-32372019D01*
X134820027Y-32330460D01*
X134722773Y-32282682D01*
X134620714Y-32229814D01*
X134515827Y-32172989D01*
X134411788Y-32113619D01*
X134312272Y-32053118D01*
X133658638Y-32410468D01*
X133658638Y-32130016D01*
X134106457Y-31897060D01*
X133658638Y-31675412D01*
X133658638Y-31374604D01*
X134319058Y-31741002D01*
X134418290Y-31685590D01*
X134521481Y-31627916D01*
X134625237Y-31570525D01*
X134726166Y-31515961D01*
X134822289Y-31465073D01*
X134911626Y-31418708D01*
X135058638Y-31351987D01*
X135058638Y-31652795D01*
G37*
G36*
X137697302Y-31652795D02*
G01*
X137574887Y-31704814D01*
X137438336Y-31765880D01*
X137297262Y-31831470D01*
X137161276Y-31897060D01*
X137301502Y-31963498D01*
X137441729Y-32027108D01*
X137575735Y-32084499D01*
X137697302Y-32132278D01*
X137697302Y-32433086D01*
X137549160Y-32372019D01*
X137458691Y-32330460D01*
X137361438Y-32282682D01*
X137259378Y-32229814D01*
X137154491Y-32172989D01*
X137050452Y-32113619D01*
X136950937Y-32053118D01*
X136297302Y-32410468D01*
X136297302Y-32130016D01*
X136745121Y-31897060D01*
X136297302Y-31675412D01*
X136297302Y-31374604D01*
X136957722Y-31741002D01*
X137056955Y-31685590D01*
X137160145Y-31627916D01*
X137263901Y-31570525D01*
X137364830Y-31515961D01*
X137460953Y-31465073D01*
X137550291Y-31418708D01*
X137697302Y-31351987D01*
X137697302Y-31652795D01*
G37*
G36*
X145289871Y-32073473D02*
G01*
X145613296Y-32139063D01*
X145613296Y-32437609D01*
X145454569Y-32400291D01*
X145300456Y-32362520D01*
X145150956Y-32324297D01*
X145006071Y-32285622D01*
X144865800Y-32246494D01*
X144695676Y-32197231D01*
X144530218Y-32147827D01*
X144369424Y-32098282D01*
X144213296Y-32048595D01*
X144213296Y-31890275D01*
X144484701Y-31890275D01*
X144635105Y-31932116D01*
X144775331Y-31968304D01*
X144914426Y-31998837D01*
X145059176Y-32025977D01*
X145059176Y-31752310D01*
X144914426Y-31780582D01*
X144775331Y-31812246D01*
X144635105Y-31848433D01*
X144484701Y-31890275D01*
X144213296Y-31890275D01*
X144213296Y-31745525D01*
X144368152Y-31697605D01*
X144527391Y-31648837D01*
X144691012Y-31599221D01*
X144859015Y-31548756D01*
X144998110Y-31508136D01*
X145143086Y-31467696D01*
X145293942Y-31427438D01*
X145450679Y-31387360D01*
X145613296Y-31347464D01*
X145613296Y-31636963D01*
X145289871Y-31700291D01*
X145289871Y-31752310D01*
X145289871Y-32073473D01*
G37*
G36*
X147928535Y-32073473D02*
G01*
X148251960Y-32139063D01*
X148251960Y-32437609D01*
X148093233Y-32400291D01*
X147939120Y-32362520D01*
X147789621Y-32324297D01*
X147644736Y-32285622D01*
X147504464Y-32246494D01*
X147334341Y-32197231D01*
X147168883Y-32147827D01*
X147008089Y-32098282D01*
X146851960Y-32048595D01*
X146851960Y-31890275D01*
X147123366Y-31890275D01*
X147273770Y-31932116D01*
X147413996Y-31968304D01*
X147553091Y-31998837D01*
X147697841Y-32025977D01*
X147697841Y-31752310D01*
X147553091Y-31780582D01*
X147413996Y-31812246D01*
X147273770Y-31848433D01*
X147123366Y-31890275D01*
X146851960Y-31890275D01*
X146851960Y-31745525D01*
X147006817Y-31697605D01*
X147166055Y-31648837D01*
X147329676Y-31599221D01*
X147497679Y-31548756D01*
X147636774Y-31508136D01*
X147781750Y-31467696D01*
X147932606Y-31427438D01*
X148089343Y-31387360D01*
X148251960Y-31347464D01*
X148251960Y-31636963D01*
X147928535Y-31700291D01*
X147928535Y-31752310D01*
X147928535Y-32073473D01*
G37*
G36*
X132401879Y-32601583D02*
G01*
X132425627Y-32695444D01*
X132442590Y-32804006D01*
X132449375Y-32914830D01*
X132440894Y-33044313D01*
X132415450Y-33156834D01*
X132374739Y-33252391D01*
X132320458Y-33330985D01*
X132176839Y-33435024D01*
X131997033Y-33468950D01*
X131865854Y-33453621D01*
X131755784Y-33407632D01*
X131666823Y-33330985D01*
X131599474Y-33223177D01*
X131554240Y-33083705D01*
X131531120Y-32912569D01*
X131402202Y-32923877D01*
X131250668Y-32935186D01*
X131250668Y-33416931D01*
X131019973Y-33416931D01*
X131019973Y-32702229D01*
X131192711Y-32693748D01*
X131371669Y-32681874D01*
X131555716Y-32666042D01*
X131743721Y-32645687D01*
X131748527Y-32801179D01*
X131762946Y-32923877D01*
X131817227Y-33087851D01*
X131900910Y-33164750D01*
X132008341Y-33183974D01*
X132082978Y-33172666D01*
X132147437Y-33130824D01*
X132193802Y-33047141D01*
X132211896Y-32912569D01*
X132206807Y-32806834D01*
X132191540Y-32720323D01*
X132146306Y-32593667D01*
X132377001Y-32537124D01*
X132401879Y-32601583D01*
G37*
G36*
X150898823Y-34146050D02*
G01*
X150869138Y-34270727D01*
X150817967Y-34381268D01*
X150743613Y-34475412D01*
X150644946Y-34552027D01*
X150520835Y-34609984D01*
X150369583Y-34646454D01*
X150189494Y-34658611D01*
X150013363Y-34647585D01*
X149864938Y-34614507D01*
X149742240Y-34561640D01*
X149643290Y-34491244D01*
X149567806Y-34403320D01*
X149515504Y-34297868D01*
X149484970Y-34177714D01*
X149476711Y-34070565D01*
X149716796Y-34070565D01*
X149756376Y-34222100D01*
X149861546Y-34314830D01*
X150013080Y-34362326D01*
X150189494Y-34375897D01*
X150289292Y-34371656D01*
X150380609Y-34358934D01*
X150531012Y-34302391D01*
X150630528Y-34198352D01*
X150666715Y-34038901D01*
X150666715Y-34014023D01*
X150664453Y-33989144D01*
X149723581Y-33989144D01*
X149717927Y-34029855D01*
X149716796Y-34070565D01*
X149476711Y-34070565D01*
X149474793Y-34045687D01*
X149481578Y-33889628D01*
X149508718Y-33710953D01*
X150874793Y-33710953D01*
X150900802Y-33863619D01*
X150908718Y-34009499D01*
X150908391Y-34014023D01*
X150898823Y-34146050D01*
G37*
G36*
X131146629Y-33644233D02*
G01*
X131304949Y-33681551D01*
X131423437Y-33711456D01*
X131546701Y-33743874D01*
X131674739Y-33778805D01*
X131805290Y-33815746D01*
X131936092Y-33854195D01*
X132067146Y-33894152D01*
X132253737Y-33953522D01*
X132419973Y-34009499D01*
X132419973Y-34296737D01*
X132299474Y-34339961D01*
X132176211Y-34382179D01*
X132050183Y-34423393D01*
X131923527Y-34462973D01*
X131798379Y-34500291D01*
X131674739Y-34535347D01*
X131494650Y-34583409D01*
X131323043Y-34625816D01*
X131163592Y-34662286D01*
X131019973Y-34692536D01*
X131019973Y-34400775D01*
X131137582Y-34380420D01*
X131273285Y-34355541D01*
X131420013Y-34327270D01*
X131570700Y-34296737D01*
X131722235Y-34263942D01*
X131871508Y-34228885D01*
X132011451Y-34192698D01*
X132134997Y-34156511D01*
X132009755Y-34120040D01*
X131869246Y-34083005D01*
X131719973Y-34046817D01*
X131568438Y-34012892D01*
X131418034Y-33981511D01*
X131272154Y-33952956D01*
X131137299Y-33929208D01*
X131019973Y-33912246D01*
X131019973Y-33618223D01*
X131146629Y-33644233D01*
G37*
G36*
X150359405Y-31398352D02*
G01*
X150507264Y-31428885D01*
X150632789Y-31478078D01*
X150735697Y-31544233D01*
X150815988Y-31626502D01*
X150873662Y-31724039D01*
X150908436Y-31835711D01*
X150920027Y-31960388D01*
X150914373Y-32098635D01*
X150897410Y-32214830D01*
X150856699Y-32369758D01*
X150157830Y-32369758D01*
X150157830Y-32091567D01*
X150668977Y-32091567D01*
X150675762Y-32037286D01*
X150678024Y-31983005D01*
X150648339Y-31847868D01*
X150559284Y-31750048D01*
X150465423Y-31706071D01*
X150342159Y-31679684D01*
X150189494Y-31670889D01*
X150085738Y-31675695D01*
X149991594Y-31690113D01*
X149837798Y-31753441D01*
X149737151Y-31865396D01*
X149700964Y-32032763D01*
X149725843Y-32182036D01*
X149782386Y-32304168D01*
X149560738Y-32376543D01*
X149533597Y-32330178D01*
X149499672Y-32252149D01*
X149471400Y-32140194D01*
X149458961Y-31994313D01*
X149470552Y-31871616D01*
X149505326Y-31756834D01*
X149563282Y-31653360D01*
X149644421Y-31564588D01*
X149748177Y-31491648D01*
X149873985Y-31435670D01*
X150021279Y-31400048D01*
X150189494Y-31388174D01*
X150359405Y-31398352D01*
G37*
G36*
X140348689Y-31949927D02*
G01*
X140332574Y-32054249D01*
X140303737Y-32148110D01*
X140260199Y-32228401D01*
X140124496Y-32344879D01*
X140029222Y-32377108D01*
X139913026Y-32387851D01*
X139818034Y-32375129D01*
X139727566Y-32336963D01*
X139648406Y-32263174D01*
X139587340Y-32143586D01*
X139465207Y-32273635D01*
X139382655Y-32310105D01*
X139288794Y-32322262D01*
X139157614Y-32301906D01*
X139038875Y-32225008D01*
X138952929Y-32068950D01*
X138928333Y-31954733D01*
X138922588Y-31854087D01*
X139162138Y-31854087D01*
X139167792Y-31928724D01*
X139190409Y-31992052D01*
X139237905Y-32035024D01*
X139318196Y-32050856D01*
X139445983Y-31996575D01*
X139480594Y-31876704D01*
X139723043Y-31876704D01*
X139767146Y-32049725D01*
X139913026Y-32114184D01*
X140013673Y-32091567D01*
X140074739Y-32033893D01*
X140104141Y-31953603D01*
X140112057Y-31860872D01*
X140109795Y-31791890D01*
X140103010Y-31727431D01*
X139723043Y-31727431D01*
X139723043Y-31835994D01*
X139723043Y-31876704D01*
X139480594Y-31876704D01*
X139492348Y-31835994D01*
X139492348Y-31727431D01*
X139171185Y-31727431D01*
X139164400Y-31788498D01*
X139162138Y-31854087D01*
X138922588Y-31854087D01*
X138920135Y-31811115D01*
X138930312Y-31623393D01*
X138954060Y-31449241D01*
X140313349Y-31449241D01*
X140331160Y-31547060D01*
X140343883Y-31646010D01*
X140351516Y-31743829D01*
X140354060Y-31838255D01*
X140352972Y-31860872D01*
X140348689Y-31949927D01*
G37*
G36*
X142987353Y-31949927D02*
G01*
X142971239Y-32054249D01*
X142942402Y-32148110D01*
X142898864Y-32228401D01*
X142763161Y-32344879D01*
X142667886Y-32377108D01*
X142551691Y-32387851D01*
X142456699Y-32375129D01*
X142366230Y-32336963D01*
X142287071Y-32263174D01*
X142226004Y-32143586D01*
X142103872Y-32273635D01*
X142021319Y-32310105D01*
X141927458Y-32322262D01*
X141796279Y-32301906D01*
X141677539Y-32225008D01*
X141591594Y-32068950D01*
X141566998Y-31954733D01*
X141561252Y-31854087D01*
X141800802Y-31854087D01*
X141806457Y-31928724D01*
X141829074Y-31992052D01*
X141876570Y-32035024D01*
X141956861Y-32050856D01*
X142084647Y-31996575D01*
X142119258Y-31876704D01*
X142361707Y-31876704D01*
X142405810Y-32049725D01*
X142551691Y-32114184D01*
X142652337Y-32091567D01*
X142713403Y-32033893D01*
X142742806Y-31953603D01*
X142750722Y-31860872D01*
X142748460Y-31791890D01*
X142741675Y-31727431D01*
X142361707Y-31727431D01*
X142361707Y-31835994D01*
X142361707Y-31876704D01*
X142119258Y-31876704D01*
X142131012Y-31835994D01*
X142131012Y-31727431D01*
X141809849Y-31727431D01*
X141803064Y-31788498D01*
X141800802Y-31854087D01*
X141561252Y-31854087D01*
X141558799Y-31811115D01*
X141568977Y-31623393D01*
X141592725Y-31449241D01*
X142952014Y-31449241D01*
X142969825Y-31547060D01*
X142982547Y-31646010D01*
X142990180Y-31743829D01*
X142992725Y-31838255D01*
X142991637Y-31860872D01*
X142987353Y-31949927D01*
G37*
D11*
%TO.C,C3*%
X96961252Y-55890000D02*
X95538748Y-55890000D01*
X96961252Y-58610000D02*
X95538748Y-58610000D01*
%TO.C,U3*%
X172015000Y-74575000D02*
X172015000Y-76525000D01*
X172015000Y-78475000D02*
X172015000Y-76525000D01*
X182135000Y-74575000D02*
X182135000Y-76525000D01*
X182135000Y-78475000D02*
X182135000Y-76525000D01*
X172070000Y-73825000D02*
X171740000Y-74065000D01*
X171740000Y-73585000D01*
X172070000Y-73825000D01*
G36*
X172070000Y-73825000D02*
G01*
X171740000Y-74065000D01*
X171740000Y-73585000D01*
X172070000Y-73825000D01*
G37*
%TO.C,U5*%
X102880000Y-61115000D02*
X101480000Y-61115000D01*
X102880000Y-63435000D02*
X101470000Y-63435000D01*
X101340000Y-63715000D02*
X100860000Y-63715000D01*
X101100000Y-63385000D01*
X101340000Y-63715000D01*
G36*
X101340000Y-63715000D02*
G01*
X100860000Y-63715000D01*
X101100000Y-63385000D01*
X101340000Y-63715000D01*
G37*
D12*
%TO.C,kibuzzard-30*%
G36*
X117675396Y-133286131D02*
G01*
X118614006Y-133286131D01*
X118614006Y-132980800D01*
X118844701Y-132980800D01*
X118844701Y-133869653D01*
X118614006Y-133869653D01*
X118614006Y-133566583D01*
X117675396Y-133566583D01*
X117675396Y-133869653D01*
X117444701Y-133869653D01*
X117444701Y-132980800D01*
X117675396Y-132980800D01*
X117675396Y-133286131D01*
G37*
G36*
X120502536Y-135547843D02*
G01*
X121441147Y-135547843D01*
X121441147Y-135242512D01*
X121671842Y-135242512D01*
X121671842Y-136131365D01*
X121441147Y-136131365D01*
X121441147Y-135828296D01*
X120502536Y-135828296D01*
X120502536Y-136131365D01*
X120271842Y-136131365D01*
X120271842Y-135242512D01*
X120502536Y-135242512D01*
X120502536Y-135547843D01*
G37*
G36*
X113190420Y-133213756D02*
G01*
X112260856Y-133213756D01*
X112416035Y-133297816D01*
X112570962Y-133378107D01*
X112725638Y-133454628D01*
X112880314Y-133527380D01*
X113035241Y-133596362D01*
X113190420Y-133661575D01*
X113190420Y-133885485D01*
X111790420Y-133885485D01*
X111790420Y-133634435D01*
X112652132Y-133634435D01*
X112563926Y-133594572D01*
X112462149Y-133547359D01*
X112351890Y-133494208D01*
X112238239Y-133436535D01*
X112122609Y-133375751D01*
X112006414Y-133313271D01*
X111894176Y-133249943D01*
X111790420Y-133186616D01*
X111790420Y-132962706D01*
X113190420Y-132962706D01*
X113190420Y-133213756D01*
G37*
G36*
X116017561Y-134369491D02*
G01*
X115377496Y-134369491D01*
X115505283Y-134488231D01*
X115583877Y-134549015D01*
X115668126Y-134606971D01*
X115756333Y-134660969D01*
X115846801Y-134709879D01*
X116017561Y-134781123D01*
X116017561Y-135095501D01*
X115916632Y-135058748D01*
X115812876Y-135011817D01*
X115708837Y-134956688D01*
X115607060Y-134895339D01*
X115509523Y-134828901D01*
X115418207Y-134758506D01*
X115335089Y-134686696D01*
X115262149Y-134616018D01*
X115179031Y-134684717D01*
X115092520Y-134750590D01*
X115005162Y-134813069D01*
X114919499Y-134871591D01*
X114836381Y-134925024D01*
X114756656Y-134972237D01*
X114617561Y-135048005D01*
X114617561Y-134733627D01*
X114753263Y-134665775D01*
X114904798Y-134576438D01*
X115058595Y-134473530D01*
X115198821Y-134369491D01*
X114617561Y-134369491D01*
X114617561Y-134091300D01*
X116017561Y-134091300D01*
X116017561Y-134369491D01*
G37*
G36*
X118844701Y-132035404D02*
G01*
X117756817Y-132024095D01*
X118349386Y-132189200D01*
X118349386Y-132392754D01*
X117756817Y-132564645D01*
X118844701Y-132551074D01*
X118844701Y-132806648D01*
X118665743Y-132801559D01*
X118490743Y-132795339D01*
X118318288Y-132787706D01*
X118146963Y-132778376D01*
X117975355Y-132767068D01*
X117802052Y-132753498D01*
X117625638Y-132738514D01*
X117444701Y-132722964D01*
X117444701Y-132492270D01*
X117564572Y-132451559D01*
X117719499Y-132401801D01*
X117891389Y-132345258D01*
X118064410Y-132288716D01*
X117901567Y-132236696D01*
X117727415Y-132182415D01*
X117566834Y-132131527D01*
X117444701Y-132091947D01*
X117444701Y-131861252D01*
X117597932Y-131846268D01*
X117763603Y-131832981D01*
X117938320Y-131821389D01*
X118118691Y-131811494D01*
X118302456Y-131802730D01*
X118487351Y-131794532D01*
X118669418Y-131786898D01*
X118844701Y-131779830D01*
X118844701Y-132035404D01*
G37*
G36*
X121671842Y-132035404D02*
G01*
X120583958Y-132024095D01*
X121176527Y-132189200D01*
X121176527Y-132392754D01*
X120583958Y-132564645D01*
X121671842Y-132551074D01*
X121671842Y-132806648D01*
X121492884Y-132801559D01*
X121317884Y-132795339D01*
X121145428Y-132787706D01*
X120974103Y-132778376D01*
X120802496Y-132767068D01*
X120629192Y-132753498D01*
X120452779Y-132738514D01*
X120271842Y-132722964D01*
X120271842Y-132492270D01*
X120391712Y-132451559D01*
X120546640Y-132401801D01*
X120718530Y-132345258D01*
X120891551Y-132288716D01*
X120728708Y-132236696D01*
X120554556Y-132182415D01*
X120393974Y-132131527D01*
X120271842Y-132091947D01*
X120271842Y-131861252D01*
X120425073Y-131846268D01*
X120590743Y-131832981D01*
X120765460Y-131821389D01*
X120945832Y-131811494D01*
X121129596Y-131802730D01*
X121314491Y-131794532D01*
X121496559Y-131786898D01*
X121671842Y-131779830D01*
X121671842Y-132035404D01*
G37*
G36*
X113198619Y-134546753D02*
G01*
X113168934Y-134671430D01*
X113117763Y-134781971D01*
X113043409Y-134876115D01*
X112944742Y-134952730D01*
X112820630Y-135010687D01*
X112669378Y-135047157D01*
X112489289Y-135059313D01*
X112313158Y-135048288D01*
X112164733Y-135015210D01*
X112042036Y-134962342D01*
X111943086Y-134891947D01*
X111867601Y-134804023D01*
X111815299Y-134698570D01*
X111784766Y-134578417D01*
X111776506Y-134471268D01*
X112016591Y-134471268D01*
X112056171Y-134622803D01*
X112161341Y-134715533D01*
X112312876Y-134763029D01*
X112489289Y-134776599D01*
X112589087Y-134772359D01*
X112680404Y-134759637D01*
X112830808Y-134703094D01*
X112930323Y-134599055D01*
X112966511Y-134439604D01*
X112966511Y-134414725D01*
X112964249Y-134389847D01*
X112023376Y-134389847D01*
X112017722Y-134430557D01*
X112016591Y-134471268D01*
X111776506Y-134471268D01*
X111774588Y-134446389D01*
X111781373Y-134290331D01*
X111808514Y-134111656D01*
X113174588Y-134111656D01*
X113200598Y-134264321D01*
X113208514Y-134410202D01*
X113208186Y-134414725D01*
X113198619Y-134546753D01*
G37*
G36*
X115481676Y-132929487D02*
G01*
X115626850Y-132958748D01*
X115751951Y-133007516D01*
X115856979Y-133075792D01*
X115962526Y-133195411D01*
X116025854Y-133346192D01*
X116046963Y-133528134D01*
X116039330Y-133651680D01*
X116016430Y-133759960D01*
X115949709Y-133919410D01*
X115730323Y-133849297D01*
X115780081Y-133735081D01*
X115804960Y-133555275D01*
X115773013Y-133393845D01*
X115677173Y-133285000D01*
X115579542Y-133239137D01*
X115457033Y-133211620D01*
X115309645Y-133202447D01*
X115182989Y-133210081D01*
X115078950Y-133232981D01*
X114930808Y-133312141D01*
X114851648Y-133422964D01*
X114827900Y-133550751D01*
X114851648Y-133719249D01*
X114909321Y-133844774D01*
X114687674Y-133917149D01*
X114660533Y-133870784D01*
X114626607Y-133795016D01*
X114598336Y-133689847D01*
X114585897Y-133555275D01*
X114598053Y-133422682D01*
X114634523Y-133300832D01*
X114694459Y-133192270D01*
X114777011Y-133099540D01*
X114881333Y-133024055D01*
X115006575Y-132967229D01*
X115151890Y-132931607D01*
X115316430Y-132919733D01*
X115481676Y-132929487D01*
G37*
G36*
X112659200Y-131799055D02*
G01*
X112807060Y-131829588D01*
X112932585Y-131878780D01*
X113035493Y-131944935D01*
X113115784Y-132027205D01*
X113173457Y-132124742D01*
X113208231Y-132236414D01*
X113219822Y-132361090D01*
X113214168Y-132499338D01*
X113197205Y-132615533D01*
X113156494Y-132770460D01*
X112457625Y-132770460D01*
X112457625Y-132492270D01*
X112968772Y-132492270D01*
X112975557Y-132437989D01*
X112977819Y-132383708D01*
X112948134Y-132248570D01*
X112859079Y-132150751D01*
X112765218Y-132106773D01*
X112641955Y-132080387D01*
X112489289Y-132071591D01*
X112385533Y-132076397D01*
X112291389Y-132090816D01*
X112137593Y-132154144D01*
X112036947Y-132266099D01*
X112000759Y-132433465D01*
X112025638Y-132582738D01*
X112082181Y-132704871D01*
X111860533Y-132777246D01*
X111833393Y-132730880D01*
X111799467Y-132652851D01*
X111771195Y-132540897D01*
X111758756Y-132395016D01*
X111770347Y-132272318D01*
X111805121Y-132157536D01*
X111863078Y-132054063D01*
X111944216Y-131965291D01*
X112047973Y-131892351D01*
X112173780Y-131836373D01*
X112321074Y-131800751D01*
X112489289Y-131788877D01*
X112659200Y-131799055D01*
G37*
G36*
X116009645Y-131974338D02*
G01*
X116037633Y-132095905D01*
X116046963Y-132252528D01*
X116035026Y-132411225D01*
X115999216Y-132540520D01*
X115939532Y-132640412D01*
X115809766Y-132736252D01*
X115635331Y-132768199D01*
X115529879Y-132758586D01*
X115444216Y-132729750D01*
X115317561Y-132631365D01*
X115236139Y-132500186D01*
X115180727Y-132363352D01*
X115146801Y-132276276D01*
X115104960Y-132197116D01*
X115050679Y-132139443D01*
X114979435Y-132116826D01*
X114890223Y-132141453D01*
X114836695Y-132215336D01*
X114818853Y-132338473D01*
X114841470Y-132497924D01*
X114895751Y-132623449D01*
X114680889Y-132704871D01*
X114615299Y-132543158D01*
X114593247Y-132438837D01*
X114585897Y-132318118D01*
X114598210Y-132179525D01*
X114635152Y-132062293D01*
X114696721Y-131966422D01*
X114829031Y-131870582D01*
X115004313Y-131838635D01*
X115170549Y-131874822D01*
X115282504Y-131966422D01*
X115357141Y-132089685D01*
X115409160Y-132220864D01*
X115448740Y-132315856D01*
X115496236Y-132401801D01*
X115556171Y-132465129D01*
X115633069Y-132490008D01*
X115699790Y-132479830D01*
X115758595Y-132442512D01*
X115799305Y-132369006D01*
X115814006Y-132252528D01*
X115806090Y-132139725D01*
X115782342Y-132045582D01*
X115714491Y-131899701D01*
X115940662Y-131818279D01*
X116009645Y-131974338D01*
G37*
G36*
X118836785Y-134236050D02*
G01*
X118864774Y-134357617D01*
X118874103Y-134514241D01*
X118862167Y-134672938D01*
X118826356Y-134802232D01*
X118766672Y-134902124D01*
X118636906Y-134997964D01*
X118462472Y-135029911D01*
X118357019Y-135020299D01*
X118271357Y-134991462D01*
X118144701Y-134893078D01*
X118063279Y-134761898D01*
X118007868Y-134625065D01*
X117973942Y-134537989D01*
X117932100Y-134458829D01*
X117877819Y-134401155D01*
X117806575Y-134378538D01*
X117717363Y-134403165D01*
X117663836Y-134477048D01*
X117645994Y-134600186D01*
X117668611Y-134759637D01*
X117722892Y-134885162D01*
X117508029Y-134966583D01*
X117442439Y-134804871D01*
X117420388Y-134700549D01*
X117413037Y-134579830D01*
X117425351Y-134441238D01*
X117462292Y-134324006D01*
X117523861Y-134228134D01*
X117656171Y-134132294D01*
X117831454Y-134100347D01*
X117997690Y-134136535D01*
X118109645Y-134228134D01*
X118184281Y-134351397D01*
X118236300Y-134482577D01*
X118275880Y-134577569D01*
X118323376Y-134663514D01*
X118383312Y-134726842D01*
X118460210Y-134751721D01*
X118526931Y-134741543D01*
X118585735Y-134704225D01*
X118626446Y-134630719D01*
X118641147Y-134514241D01*
X118633231Y-134401438D01*
X118609483Y-134307294D01*
X118541632Y-134161414D01*
X118767803Y-134079992D01*
X118836785Y-134236050D01*
G37*
G36*
X121663926Y-134236050D02*
G01*
X121691914Y-134357617D01*
X121701244Y-134514241D01*
X121689307Y-134672938D01*
X121653497Y-134802232D01*
X121593813Y-134902124D01*
X121464047Y-134997964D01*
X121289612Y-135029911D01*
X121184160Y-135020299D01*
X121098498Y-134991462D01*
X120971842Y-134893078D01*
X120890420Y-134761898D01*
X120835008Y-134625065D01*
X120801082Y-134537989D01*
X120759241Y-134458829D01*
X120704960Y-134401155D01*
X120633716Y-134378538D01*
X120544504Y-134403165D01*
X120490976Y-134477048D01*
X120473134Y-134600186D01*
X120495751Y-134759637D01*
X120550032Y-134885162D01*
X120335170Y-134966583D01*
X120269580Y-134804871D01*
X120247528Y-134700549D01*
X120240178Y-134579830D01*
X120252491Y-134441238D01*
X120289433Y-134324006D01*
X120351002Y-134228134D01*
X120483312Y-134132294D01*
X120658595Y-134100347D01*
X120824830Y-134136535D01*
X120936785Y-134228134D01*
X121011422Y-134351397D01*
X121063441Y-134482577D01*
X121103021Y-134577569D01*
X121150517Y-134663514D01*
X121210452Y-134726842D01*
X121287351Y-134751721D01*
X121354071Y-134741543D01*
X121412876Y-134704225D01*
X121453586Y-134630719D01*
X121468288Y-134514241D01*
X121460372Y-134401438D01*
X121436624Y-134307294D01*
X121368772Y-134161414D01*
X121594943Y-134079992D01*
X121663926Y-134236050D01*
G37*
G36*
X118874103Y-135688069D02*
G01*
X118853622Y-135835835D01*
X118792179Y-135959475D01*
X118689774Y-136058990D01*
X118586513Y-136116381D01*
X118461058Y-136157375D01*
X118313411Y-136181971D01*
X118143570Y-136190170D01*
X117973730Y-136182112D01*
X117826082Y-136157940D01*
X117700628Y-136117653D01*
X117597367Y-136061252D01*
X117494961Y-135962239D01*
X117433518Y-135837091D01*
X117413037Y-135685808D01*
X117655040Y-135685808D01*
X117693489Y-135801155D01*
X117797528Y-135867876D01*
X117952456Y-135899540D01*
X118044903Y-135905477D01*
X118143570Y-135907456D01*
X118241955Y-135905477D01*
X118333554Y-135899540D01*
X118488481Y-135867876D01*
X118593651Y-135800024D01*
X118632100Y-135685808D01*
X118593651Y-135570460D01*
X118489612Y-135503740D01*
X118334685Y-135472076D01*
X118242237Y-135466139D01*
X118143570Y-135464160D01*
X118045186Y-135466139D01*
X117953586Y-135472076D01*
X117798659Y-135503740D01*
X117693489Y-135570460D01*
X117655040Y-135685808D01*
X117413037Y-135685808D01*
X117433518Y-135539048D01*
X117494961Y-135415407D01*
X117597367Y-135314887D01*
X117700628Y-135256506D01*
X117826082Y-135214806D01*
X117973730Y-135189786D01*
X118143570Y-135181446D01*
X118313411Y-135189574D01*
X118461058Y-135213958D01*
X118586513Y-135254598D01*
X118689774Y-135311494D01*
X118792179Y-135411135D01*
X118853622Y-135536660D01*
X118873797Y-135685808D01*
X118874103Y-135688069D01*
G37*
G36*
X121701244Y-133426357D02*
G01*
X121680763Y-133574122D01*
X121619320Y-133697763D01*
X121516914Y-133797278D01*
X121413653Y-133854669D01*
X121288199Y-133895662D01*
X121140551Y-133920258D01*
X120970711Y-133928457D01*
X120800870Y-133920400D01*
X120653223Y-133896228D01*
X120527769Y-133855941D01*
X120424507Y-133799540D01*
X120322102Y-133700527D01*
X120260659Y-133575379D01*
X120240178Y-133424095D01*
X120482181Y-133424095D01*
X120520630Y-133539443D01*
X120624669Y-133606163D01*
X120779596Y-133637827D01*
X120872044Y-133643764D01*
X120970711Y-133645743D01*
X121069095Y-133643764D01*
X121160695Y-133637827D01*
X121315622Y-133606163D01*
X121420792Y-133538312D01*
X121459241Y-133424095D01*
X121420792Y-133308748D01*
X121316753Y-133242027D01*
X121161826Y-133210363D01*
X121069378Y-133204426D01*
X120970711Y-133202447D01*
X120872326Y-133204426D01*
X120780727Y-133210363D01*
X120625800Y-133242027D01*
X120520630Y-133308748D01*
X120482181Y-133424095D01*
X120240178Y-133424095D01*
X120260659Y-133277335D01*
X120322102Y-133153695D01*
X120424507Y-133053174D01*
X120527769Y-132994794D01*
X120653223Y-132953094D01*
X120800870Y-132928074D01*
X120970711Y-132919733D01*
X121140551Y-132927861D01*
X121288199Y-132952246D01*
X121413653Y-132992886D01*
X121516914Y-133049782D01*
X121619320Y-133149423D01*
X121680763Y-133274948D01*
X121700938Y-133424095D01*
X121701244Y-133426357D01*
G37*
D11*
%TO.C,C4*%
X96961252Y-60140000D02*
X95538748Y-60140000D01*
X96961252Y-62860000D02*
X95538748Y-62860000D01*
%TO.C,C6*%
X96961252Y-68640000D02*
X95538748Y-68640000D01*
X96961252Y-71360000D02*
X95538748Y-71360000D01*
D12*
%TO.C,kibuzzard-31*%
G36*
X134371842Y-135570460D02*
G01*
X134141147Y-135570460D01*
X134141147Y-134971107D01*
X132971842Y-134971107D01*
X132971842Y-134690654D01*
X134371842Y-134690654D01*
X134371842Y-135570460D01*
G37*
G36*
X128238078Y-132713918D02*
G01*
X128631616Y-132713918D01*
X128631616Y-132953659D01*
X128238078Y-132953659D01*
X128238078Y-133308748D01*
X128009645Y-133308748D01*
X128009645Y-132953659D01*
X127616107Y-132953659D01*
X127616107Y-132713918D01*
X128009645Y-132713918D01*
X128009645Y-132358829D01*
X128238078Y-132358829D01*
X128238078Y-132713918D01*
G37*
G36*
X125890420Y-133754305D02*
G01*
X124960856Y-133754305D01*
X125116035Y-133838366D01*
X125270962Y-133918656D01*
X125425638Y-133995178D01*
X125580314Y-134067929D01*
X125735241Y-134136912D01*
X125890420Y-134202124D01*
X125890420Y-134426034D01*
X124490420Y-134426034D01*
X124490420Y-134174984D01*
X125352132Y-134174984D01*
X125263926Y-134135121D01*
X125162149Y-134087908D01*
X125051890Y-134034758D01*
X124938239Y-133977084D01*
X124822609Y-133916300D01*
X124706414Y-133853821D01*
X124594176Y-133790493D01*
X124490420Y-133727165D01*
X124490420Y-133503255D01*
X125890420Y-133503255D01*
X125890420Y-133754305D01*
G37*
G36*
X131221276Y-135276438D02*
G01*
X131544701Y-135342027D01*
X131544701Y-135640574D01*
X131385974Y-135603255D01*
X131231861Y-135565485D01*
X131082362Y-135527262D01*
X130937477Y-135488586D01*
X130797205Y-135449459D01*
X130627082Y-135400196D01*
X130461624Y-135350792D01*
X130300830Y-135301246D01*
X130144701Y-135251559D01*
X130144701Y-135093239D01*
X130416107Y-135093239D01*
X130566511Y-135135081D01*
X130706737Y-135171268D01*
X130845832Y-135201801D01*
X130990582Y-135228942D01*
X130990582Y-134955275D01*
X130845832Y-134983546D01*
X130706737Y-135015210D01*
X130566511Y-135051397D01*
X130416107Y-135093239D01*
X130144701Y-135093239D01*
X130144701Y-134948489D01*
X130299558Y-134900569D01*
X130458796Y-134851801D01*
X130622417Y-134802185D01*
X130790420Y-134751721D01*
X130929515Y-134711100D01*
X131074491Y-134670661D01*
X131225347Y-134630402D01*
X131382084Y-134590325D01*
X131544701Y-134550428D01*
X131544701Y-134839927D01*
X131221276Y-134903255D01*
X131221276Y-134955275D01*
X131221276Y-135276438D01*
G37*
G36*
X125898619Y-135087302D02*
G01*
X125868934Y-135211979D01*
X125817763Y-135322520D01*
X125743409Y-135416664D01*
X125644742Y-135493279D01*
X125520630Y-135551236D01*
X125369378Y-135587706D01*
X125189289Y-135599863D01*
X125013158Y-135588837D01*
X124864733Y-135555759D01*
X124742036Y-135502892D01*
X124643086Y-135432496D01*
X124567601Y-135344572D01*
X124515299Y-135239120D01*
X124484766Y-135118966D01*
X124476506Y-135011817D01*
X124716591Y-135011817D01*
X124756171Y-135163352D01*
X124861341Y-135256082D01*
X125012876Y-135303578D01*
X125189289Y-135317149D01*
X125289087Y-135312908D01*
X125380404Y-135300186D01*
X125530808Y-135243643D01*
X125630323Y-135139604D01*
X125666511Y-134980153D01*
X125666511Y-134955275D01*
X125664249Y-134930396D01*
X124723376Y-134930396D01*
X124717722Y-134971107D01*
X124716591Y-135011817D01*
X124476506Y-135011817D01*
X124474588Y-134986939D01*
X124481373Y-134830880D01*
X124508514Y-134652205D01*
X125874588Y-134652205D01*
X125900598Y-134804871D01*
X125908514Y-134950751D01*
X125908186Y-134955275D01*
X125898619Y-135087302D01*
G37*
G36*
X128699467Y-133542835D02*
G01*
X128723215Y-133636696D01*
X128740178Y-133745258D01*
X128746963Y-133856082D01*
X128738481Y-133985565D01*
X128713037Y-134098086D01*
X128672326Y-134193643D01*
X128618045Y-134272237D01*
X128474426Y-134376276D01*
X128294620Y-134410202D01*
X128163441Y-134394873D01*
X128053371Y-134348884D01*
X127964410Y-134272237D01*
X127897062Y-134164429D01*
X127851827Y-134024957D01*
X127828708Y-133853821D01*
X127699790Y-133865129D01*
X127548255Y-133876438D01*
X127548255Y-134358183D01*
X127317561Y-134358183D01*
X127317561Y-133643481D01*
X127490299Y-133635000D01*
X127669257Y-133623126D01*
X127853304Y-133607294D01*
X128041309Y-133586939D01*
X128046115Y-133742431D01*
X128060533Y-133865129D01*
X128114814Y-134029103D01*
X128198498Y-134106002D01*
X128305929Y-134125226D01*
X128380565Y-134113918D01*
X128445024Y-134072076D01*
X128491389Y-133988393D01*
X128509483Y-133853821D01*
X128504394Y-133748086D01*
X128489128Y-133661575D01*
X128443893Y-133534919D01*
X128674588Y-133478376D01*
X128699467Y-133542835D01*
G37*
G36*
X131552900Y-133956446D02*
G01*
X131523215Y-134081123D01*
X131472044Y-134191664D01*
X131397690Y-134285808D01*
X131299023Y-134362423D01*
X131174911Y-134420380D01*
X131023659Y-134456850D01*
X130843570Y-134469006D01*
X130667439Y-134457981D01*
X130519015Y-134424903D01*
X130396317Y-134372036D01*
X130297367Y-134301640D01*
X130221882Y-134213716D01*
X130169580Y-134108263D01*
X130139047Y-133988110D01*
X130130787Y-133880961D01*
X130370872Y-133880961D01*
X130410452Y-134032496D01*
X130515622Y-134125226D01*
X130667157Y-134172722D01*
X130843570Y-134186292D01*
X130943368Y-134182052D01*
X131034685Y-134169330D01*
X131185089Y-134112787D01*
X131284604Y-134008748D01*
X131320792Y-133849297D01*
X131320792Y-133824418D01*
X131318530Y-133799540D01*
X130377658Y-133799540D01*
X130372003Y-133840250D01*
X130370872Y-133880961D01*
X130130787Y-133880961D01*
X130128869Y-133856082D01*
X130135654Y-133700024D01*
X130162795Y-133521349D01*
X131528869Y-133521349D01*
X131554879Y-133674015D01*
X131562795Y-133819895D01*
X131562467Y-133824418D01*
X131552900Y-133956446D01*
G37*
G36*
X133835957Y-133470036D02*
G01*
X133981131Y-133499297D01*
X134106232Y-133548065D01*
X134211260Y-133616341D01*
X134316807Y-133735960D01*
X134380135Y-133886741D01*
X134401244Y-134068683D01*
X134393611Y-134192229D01*
X134370711Y-134300509D01*
X134303990Y-134459960D01*
X134084604Y-134389847D01*
X134134362Y-134275630D01*
X134159241Y-134095824D01*
X134127294Y-133934394D01*
X134031454Y-133825549D01*
X133933823Y-133779687D01*
X133811314Y-133752169D01*
X133663926Y-133742997D01*
X133537270Y-133750630D01*
X133433231Y-133773530D01*
X133285089Y-133852690D01*
X133205929Y-133963514D01*
X133182181Y-134091300D01*
X133205929Y-134259798D01*
X133263603Y-134385323D01*
X133041955Y-134457698D01*
X133014814Y-134411333D01*
X132980889Y-134335565D01*
X132952617Y-134230396D01*
X132940178Y-134095824D01*
X132952334Y-133963231D01*
X132988805Y-133841381D01*
X133048740Y-133732819D01*
X133131292Y-133640089D01*
X133235614Y-133564604D01*
X133360856Y-133507779D01*
X133506171Y-133472157D01*
X133670711Y-133460283D01*
X133835957Y-133470036D01*
G37*
G36*
X127444216Y-134585485D02*
G01*
X127602536Y-134622803D01*
X127721025Y-134652708D01*
X127844288Y-134685126D01*
X127972326Y-134720057D01*
X128102877Y-134756998D01*
X128233680Y-134795447D01*
X128364733Y-134835404D01*
X128551325Y-134894774D01*
X128717561Y-134950751D01*
X128717561Y-135237989D01*
X128597062Y-135281213D01*
X128473798Y-135323431D01*
X128347771Y-135364645D01*
X128221115Y-135404225D01*
X128095967Y-135441543D01*
X127972326Y-135476599D01*
X127792237Y-135524661D01*
X127620630Y-135567068D01*
X127461179Y-135603538D01*
X127317561Y-135633788D01*
X127317561Y-135342027D01*
X127435170Y-135321672D01*
X127570872Y-135296793D01*
X127717601Y-135268522D01*
X127868288Y-135237989D01*
X128019822Y-135205194D01*
X128169095Y-135170137D01*
X128309039Y-135133950D01*
X128432585Y-135097763D01*
X128307342Y-135061292D01*
X128166834Y-135024257D01*
X128017561Y-134988069D01*
X127866026Y-134954144D01*
X127715622Y-134922763D01*
X127569742Y-134894208D01*
X127434887Y-134870460D01*
X127317561Y-134853498D01*
X127317561Y-134559475D01*
X127444216Y-134585485D01*
G37*
G36*
X125359200Y-132339604D02*
G01*
X125507060Y-132370137D01*
X125632585Y-132419330D01*
X125735493Y-132485485D01*
X125815784Y-132567754D01*
X125873457Y-132665291D01*
X125908231Y-132776963D01*
X125919822Y-132901640D01*
X125914168Y-133039887D01*
X125897205Y-133156082D01*
X125856494Y-133311010D01*
X125157625Y-133311010D01*
X125157625Y-133032819D01*
X125668772Y-133032819D01*
X125675557Y-132978538D01*
X125677819Y-132924257D01*
X125648134Y-132789120D01*
X125559079Y-132691300D01*
X125465218Y-132647323D01*
X125341955Y-132620936D01*
X125189289Y-132612141D01*
X125085533Y-132616947D01*
X124991389Y-132631365D01*
X124837593Y-132694693D01*
X124736947Y-132806648D01*
X124700759Y-132974015D01*
X124725638Y-133123288D01*
X124782181Y-133245420D01*
X124560533Y-133317795D01*
X124533393Y-133271430D01*
X124499467Y-133193401D01*
X124471195Y-133081446D01*
X124458756Y-132935565D01*
X124470347Y-132812868D01*
X124505121Y-132698086D01*
X124563078Y-132594612D01*
X124644216Y-132505840D01*
X124747973Y-132432900D01*
X124873780Y-132376922D01*
X125021074Y-132341300D01*
X125189289Y-132329426D01*
X125359200Y-132339604D01*
G37*
G36*
X131536785Y-132514887D02*
G01*
X131564774Y-132636454D01*
X131574103Y-132793078D01*
X131562167Y-132951774D01*
X131526356Y-133081069D01*
X131466672Y-133180961D01*
X131336906Y-133276801D01*
X131162472Y-133308748D01*
X131057019Y-133299136D01*
X130971357Y-133270299D01*
X130844701Y-133171914D01*
X130763279Y-133040735D01*
X130707868Y-132903901D01*
X130673942Y-132816826D01*
X130632100Y-132737666D01*
X130577819Y-132679992D01*
X130506575Y-132657375D01*
X130417363Y-132682002D01*
X130363836Y-132755885D01*
X130345994Y-132879023D01*
X130368611Y-133038473D01*
X130422892Y-133163998D01*
X130208029Y-133245420D01*
X130142439Y-133083708D01*
X130120388Y-132979386D01*
X130113037Y-132858667D01*
X130125351Y-132720074D01*
X130162292Y-132602842D01*
X130223861Y-132506971D01*
X130356171Y-132411131D01*
X130531454Y-132379184D01*
X130697690Y-132415372D01*
X130809645Y-132506971D01*
X130884281Y-132630234D01*
X130936300Y-132761414D01*
X130975880Y-132856405D01*
X131023376Y-132942351D01*
X131083312Y-133005679D01*
X131160210Y-133030557D01*
X131226931Y-133020380D01*
X131285735Y-132983061D01*
X131326446Y-132909556D01*
X131341147Y-132793078D01*
X131333231Y-132680275D01*
X131309483Y-132586131D01*
X131241632Y-132440250D01*
X131467803Y-132358829D01*
X131536785Y-132514887D01*
G37*
G36*
X134363926Y-132514887D02*
G01*
X134391914Y-132636454D01*
X134401244Y-132793078D01*
X134389307Y-132951774D01*
X134353497Y-133081069D01*
X134293813Y-133180961D01*
X134164047Y-133276801D01*
X133989612Y-133308748D01*
X133884160Y-133299136D01*
X133798498Y-133270299D01*
X133671842Y-133171914D01*
X133590420Y-133040735D01*
X133535008Y-132903901D01*
X133501082Y-132816826D01*
X133459241Y-132737666D01*
X133404960Y-132679992D01*
X133333716Y-132657375D01*
X133244504Y-132682002D01*
X133190976Y-132755885D01*
X133173134Y-132879023D01*
X133195751Y-133038473D01*
X133250032Y-133163998D01*
X133035170Y-133245420D01*
X132969580Y-133083708D01*
X132947528Y-132979386D01*
X132940178Y-132858667D01*
X132952491Y-132720074D01*
X132989433Y-132602842D01*
X133051002Y-132506971D01*
X133183312Y-132411131D01*
X133358595Y-132379184D01*
X133524830Y-132415372D01*
X133636785Y-132506971D01*
X133711422Y-132630234D01*
X133763441Y-132761414D01*
X133803021Y-132856405D01*
X133850517Y-132942351D01*
X133910452Y-133005679D01*
X133987351Y-133030557D01*
X134054071Y-133020380D01*
X134112876Y-132983061D01*
X134153586Y-132909556D01*
X134168288Y-132793078D01*
X134160372Y-132680275D01*
X134136624Y-132586131D01*
X134068772Y-132440250D01*
X134294943Y-132358829D01*
X134363926Y-132514887D01*
G37*
%TO.C,kibuzzard-39*%
G36*
X86266729Y-133312141D02*
G01*
X86036034Y-133312141D01*
X86036034Y-132712787D01*
X84866729Y-132712787D01*
X84866729Y-132432334D01*
X86266729Y-132432334D01*
X86266729Y-133312141D01*
G37*
G36*
X87924564Y-133827811D02*
G01*
X89093869Y-133827811D01*
X89093869Y-134108263D01*
X87924564Y-134108263D01*
X87924564Y-134476922D01*
X87693869Y-134476922D01*
X87693869Y-133459152D01*
X87924564Y-133459152D01*
X87924564Y-133827811D01*
G37*
G36*
X82960105Y-132717310D02*
G01*
X83353643Y-132717310D01*
X83353643Y-132957052D01*
X82960105Y-132957052D01*
X82960105Y-133312141D01*
X82731672Y-133312141D01*
X82731672Y-132957052D01*
X82338134Y-132957052D01*
X82338134Y-132717310D01*
X82731672Y-132717310D01*
X82731672Y-132362221D01*
X82960105Y-132362221D01*
X82960105Y-132717310D01*
G37*
G36*
X86266729Y-134442997D02*
G01*
X86036034Y-134442997D01*
X86036034Y-133823288D01*
X85642496Y-133823288D01*
X85642496Y-134318603D01*
X85411801Y-134318603D01*
X85411801Y-133823288D01*
X85097423Y-133823288D01*
X85097423Y-134393239D01*
X84866729Y-134393239D01*
X84866729Y-133545097D01*
X86266729Y-133545097D01*
X86266729Y-134442997D01*
G37*
G36*
X89093869Y-134888554D02*
G01*
X88164305Y-134888554D01*
X88319484Y-134972614D01*
X88474411Y-135052905D01*
X88629087Y-135129426D01*
X88783763Y-135202178D01*
X88938691Y-135271160D01*
X89093869Y-135336373D01*
X89093869Y-135560283D01*
X87693869Y-135560283D01*
X87693869Y-135309233D01*
X88555582Y-135309233D01*
X88467375Y-135269370D01*
X88365598Y-135222157D01*
X88255339Y-135169006D01*
X88141688Y-135111333D01*
X88026058Y-135050549D01*
X87909863Y-134988069D01*
X87797625Y-134924742D01*
X87693869Y-134861414D01*
X87693869Y-134637504D01*
X89093869Y-134637504D01*
X89093869Y-134888554D01*
G37*
G36*
X91921010Y-133757698D02*
G01*
X90991446Y-133757698D01*
X91146624Y-133841758D01*
X91301552Y-133922049D01*
X91456228Y-133998570D01*
X91610904Y-134071322D01*
X91765831Y-134140304D01*
X91921010Y-134205517D01*
X91921010Y-134429426D01*
X90521010Y-134429426D01*
X90521010Y-134178376D01*
X91382722Y-134178376D01*
X91294515Y-134138514D01*
X91192738Y-134091300D01*
X91082480Y-134038150D01*
X90968829Y-133980477D01*
X90853199Y-133919693D01*
X90737003Y-133857213D01*
X90624766Y-133793885D01*
X90521010Y-133730557D01*
X90521010Y-133506648D01*
X91921010Y-133506648D01*
X91921010Y-133757698D01*
G37*
G36*
X83421494Y-133546228D02*
G01*
X83445242Y-133640089D01*
X83462205Y-133748651D01*
X83468990Y-133859475D01*
X83460509Y-133988958D01*
X83435065Y-134101478D01*
X83394354Y-134197036D01*
X83340073Y-134275630D01*
X83196454Y-134379669D01*
X83016648Y-134413595D01*
X82885468Y-134398265D01*
X82775398Y-134352277D01*
X82686438Y-134275630D01*
X82619089Y-134167822D01*
X82573855Y-134028349D01*
X82550735Y-133857213D01*
X82421817Y-133868522D01*
X82270283Y-133879830D01*
X82270283Y-134361575D01*
X82039588Y-134361575D01*
X82039588Y-133646874D01*
X82212326Y-133638393D01*
X82391284Y-133626519D01*
X82575331Y-133610687D01*
X82763336Y-133590331D01*
X82768142Y-133745824D01*
X82782561Y-133868522D01*
X82836842Y-134032496D01*
X82920525Y-134109394D01*
X83027956Y-134128619D01*
X83102593Y-134117310D01*
X83167052Y-134075468D01*
X83213417Y-133991785D01*
X83231511Y-133857213D01*
X83226422Y-133751478D01*
X83211155Y-133664968D01*
X83165921Y-133538312D01*
X83396616Y-133481769D01*
X83421494Y-133546228D01*
G37*
G36*
X86274927Y-135090695D02*
G01*
X86245242Y-135215372D01*
X86194071Y-135325913D01*
X86119717Y-135420057D01*
X86021050Y-135496672D01*
X85896939Y-135554628D01*
X85745687Y-135591099D01*
X85565598Y-135603255D01*
X85389467Y-135592229D01*
X85241042Y-135559152D01*
X85118344Y-135506284D01*
X85019394Y-135435889D01*
X84943910Y-135347964D01*
X84891607Y-135242512D01*
X84861074Y-135122359D01*
X84852815Y-135015210D01*
X85092900Y-135015210D01*
X85132480Y-135166745D01*
X85237649Y-135259475D01*
X85389184Y-135306971D01*
X85565598Y-135320541D01*
X85665396Y-135316300D01*
X85756712Y-135303578D01*
X85907116Y-135247036D01*
X86006632Y-135142997D01*
X86042819Y-134983546D01*
X86042819Y-134958667D01*
X86040557Y-134933788D01*
X85099685Y-134933788D01*
X85094031Y-134974499D01*
X85092900Y-135015210D01*
X84852815Y-135015210D01*
X84850897Y-134990331D01*
X84857682Y-134834273D01*
X84884822Y-134655598D01*
X86250897Y-134655598D01*
X86276906Y-134808263D01*
X86284822Y-134954144D01*
X86284495Y-134958667D01*
X86274927Y-135090695D01*
G37*
G36*
X91929208Y-135090695D02*
G01*
X91899523Y-135215372D01*
X91848352Y-135325913D01*
X91773998Y-135420057D01*
X91675331Y-135496672D01*
X91551220Y-135554628D01*
X91399968Y-135591099D01*
X91219879Y-135603255D01*
X91043748Y-135592229D01*
X90895323Y-135559152D01*
X90772625Y-135506284D01*
X90673675Y-135435889D01*
X90598191Y-135347964D01*
X90545889Y-135242512D01*
X90515355Y-135122359D01*
X90507096Y-135015210D01*
X90747181Y-135015210D01*
X90786761Y-135166745D01*
X90891931Y-135259475D01*
X91043465Y-135306971D01*
X91219879Y-135320541D01*
X91319677Y-135316300D01*
X91410994Y-135303578D01*
X91561397Y-135247036D01*
X91660913Y-135142997D01*
X91697100Y-134983546D01*
X91697100Y-134958667D01*
X91694838Y-134933788D01*
X90753966Y-134933788D01*
X90748312Y-134974499D01*
X90747181Y-135015210D01*
X90507096Y-135015210D01*
X90505178Y-134990331D01*
X90511963Y-134834273D01*
X90539103Y-134655598D01*
X91905178Y-134655598D01*
X91931187Y-134808263D01*
X91939103Y-134954144D01*
X91938776Y-134958667D01*
X91929208Y-135090695D01*
G37*
G36*
X82166244Y-134588877D02*
G01*
X82324564Y-134626195D01*
X82443052Y-134656100D01*
X82566316Y-134688518D01*
X82694354Y-134723449D01*
X82824905Y-134760390D01*
X82955707Y-134798840D01*
X83086761Y-134838796D01*
X83273352Y-134898166D01*
X83439588Y-134954144D01*
X83439588Y-135241381D01*
X83319089Y-135284605D01*
X83195826Y-135326824D01*
X83069798Y-135368037D01*
X82943142Y-135407617D01*
X82817994Y-135444935D01*
X82694354Y-135479992D01*
X82514265Y-135528053D01*
X82342658Y-135570460D01*
X82183207Y-135606931D01*
X82039588Y-135637181D01*
X82039588Y-135345420D01*
X82157197Y-135325065D01*
X82292900Y-135300186D01*
X82439628Y-135271914D01*
X82590315Y-135241381D01*
X82741850Y-135208586D01*
X82891123Y-135173530D01*
X83031066Y-135137342D01*
X83154612Y-135101155D01*
X83029370Y-135064685D01*
X82888861Y-135027649D01*
X82739588Y-134991462D01*
X82588053Y-134957536D01*
X82437649Y-134926155D01*
X82291769Y-134897601D01*
X82156914Y-134873853D01*
X82039588Y-134856890D01*
X82039588Y-134562868D01*
X82166244Y-134588877D01*
G37*
G36*
X91389790Y-132342997D02*
G01*
X91537649Y-132373530D01*
X91663174Y-132422722D01*
X91766082Y-132488877D01*
X91846373Y-132571147D01*
X91904047Y-132668683D01*
X91938821Y-132780355D01*
X91950412Y-132905032D01*
X91944758Y-133043279D01*
X91927795Y-133159475D01*
X91887084Y-133314402D01*
X91188215Y-133314402D01*
X91188215Y-133036212D01*
X91699362Y-133036212D01*
X91706147Y-132981931D01*
X91708409Y-132927649D01*
X91678724Y-132792512D01*
X91589669Y-132694693D01*
X91495808Y-132650715D01*
X91372544Y-132624329D01*
X91219879Y-132615533D01*
X91116123Y-132620339D01*
X91021979Y-132634758D01*
X90868183Y-132698086D01*
X90767536Y-132810040D01*
X90731349Y-132977407D01*
X90756228Y-133126680D01*
X90812771Y-133248813D01*
X90591123Y-133321187D01*
X90563982Y-133274822D01*
X90530057Y-133196793D01*
X90501785Y-133084838D01*
X90489346Y-132938958D01*
X90500937Y-132816260D01*
X90535711Y-132701478D01*
X90593667Y-132598005D01*
X90674806Y-132509233D01*
X90778562Y-132436292D01*
X90904370Y-132380315D01*
X91051664Y-132344693D01*
X91219879Y-132332819D01*
X91389790Y-132342997D01*
G37*
G36*
X89106591Y-132894572D02*
G01*
X89090477Y-132998893D01*
X89061640Y-133092754D01*
X89018102Y-133173045D01*
X88882399Y-133289523D01*
X88787124Y-133321753D01*
X88670929Y-133332496D01*
X88575937Y-133319774D01*
X88485468Y-133281607D01*
X88406309Y-133207819D01*
X88345242Y-133088231D01*
X88223110Y-133218279D01*
X88140557Y-133254750D01*
X88046696Y-133266906D01*
X87915517Y-133246551D01*
X87796777Y-133169653D01*
X87710832Y-133013595D01*
X87686236Y-132899378D01*
X87680490Y-132798732D01*
X87920040Y-132798732D01*
X87925695Y-132873368D01*
X87948312Y-132936696D01*
X87995808Y-132979669D01*
X88076099Y-132995501D01*
X88203885Y-132941220D01*
X88238495Y-132821349D01*
X88480945Y-132821349D01*
X88525048Y-132994370D01*
X88670929Y-133058829D01*
X88771575Y-133036212D01*
X88832641Y-132978538D01*
X88862044Y-132898247D01*
X88869960Y-132805517D01*
X88867698Y-132736535D01*
X88860913Y-132672076D01*
X88480945Y-132672076D01*
X88480945Y-132780638D01*
X88480945Y-132821349D01*
X88238495Y-132821349D01*
X88250250Y-132780638D01*
X88250250Y-132672076D01*
X87929087Y-132672076D01*
X87922302Y-132733142D01*
X87920040Y-132798732D01*
X87680490Y-132798732D01*
X87678037Y-132755759D01*
X87688215Y-132568037D01*
X87711963Y-132393885D01*
X89071252Y-132393885D01*
X89089063Y-132491704D01*
X89101785Y-132590654D01*
X89109418Y-132688473D01*
X89111963Y-132782900D01*
X89110875Y-132805517D01*
X89106591Y-132894572D01*
G37*
D11*
%TO.C,R28*%
X177776263Y-43145000D02*
X179223737Y-43145000D01*
X177776263Y-45855000D02*
X179223737Y-45855000D01*
%TO.C,R29*%
X171973737Y-48145000D02*
X170526263Y-48145000D01*
X171973737Y-50855000D02*
X170526263Y-50855000D01*
%TO.C,R34*%
X93286263Y-117625000D02*
X94733737Y-117625000D01*
X93286263Y-120335000D02*
X94733737Y-120335000D01*
D12*
%TO.C,kibuzzard-27*%
G36*
X207193813Y-49176144D02*
G01*
X206825153Y-49176144D01*
X206825153Y-50345450D01*
X206544701Y-50345450D01*
X206544701Y-49176144D01*
X206176042Y-49176144D01*
X206176042Y-48945450D01*
X207193813Y-48945450D01*
X207193813Y-49176144D01*
G37*
G36*
X209066511Y-46998869D02*
G01*
X209421599Y-46998869D01*
X209421599Y-47227302D01*
X209066511Y-47227302D01*
X209066511Y-47620840D01*
X208826769Y-47620840D01*
X208826769Y-47227302D01*
X208471680Y-47227302D01*
X208471680Y-46998869D01*
X208826769Y-46998869D01*
X208826769Y-46605331D01*
X209066511Y-46605331D01*
X209066511Y-46998869D01*
G37*
G36*
X207908514Y-46394992D02*
G01*
X208028384Y-46476414D01*
X208155040Y-46546527D01*
X208272649Y-46598546D01*
X208182181Y-46829241D01*
X208044216Y-46773829D01*
X207899467Y-46693538D01*
X207899467Y-47476090D01*
X208193489Y-47476090D01*
X208193489Y-47706785D01*
X207343086Y-47706785D01*
X207343086Y-47476090D01*
X207621276Y-47476090D01*
X207621276Y-46306785D01*
X207811260Y-46306785D01*
X207908514Y-46394992D01*
G37*
G36*
X207605444Y-44529833D02*
G01*
X207645307Y-44441626D01*
X207692520Y-44339849D01*
X207745670Y-44229591D01*
X207803344Y-44115940D01*
X207864128Y-44000310D01*
X207926607Y-43884114D01*
X207989935Y-43771877D01*
X208053263Y-43668121D01*
X208277173Y-43668121D01*
X208277173Y-45068121D01*
X208026123Y-45068121D01*
X208026123Y-44138557D01*
X207942062Y-44293735D01*
X207861772Y-44448663D01*
X207785250Y-44603339D01*
X207712499Y-44758015D01*
X207643516Y-44912942D01*
X207578304Y-45068121D01*
X207354394Y-45068121D01*
X207354394Y-43668121D01*
X207605444Y-43668121D01*
X207605444Y-44529833D01*
G37*
G36*
X205749002Y-49100306D02*
G01*
X205797771Y-49259545D01*
X205847387Y-49423166D01*
X205897851Y-49591169D01*
X205938472Y-49730264D01*
X205978911Y-49875240D01*
X206019170Y-50026096D01*
X206059247Y-50182833D01*
X206099144Y-50345450D01*
X205809645Y-50345450D01*
X205746317Y-50022025D01*
X205694297Y-50022025D01*
X205373134Y-50022025D01*
X205307544Y-50345450D01*
X205008998Y-50345450D01*
X205046317Y-50186723D01*
X205084087Y-50032610D01*
X205122310Y-49883110D01*
X205146809Y-49791330D01*
X205420630Y-49791330D01*
X205694297Y-49791330D01*
X205666026Y-49646581D01*
X205634362Y-49507485D01*
X205598174Y-49367259D01*
X205556333Y-49216855D01*
X205514491Y-49367259D01*
X205478304Y-49507485D01*
X205447771Y-49646581D01*
X205420630Y-49791330D01*
X205146809Y-49791330D01*
X205160985Y-49738225D01*
X205200113Y-49597954D01*
X205249376Y-49427831D01*
X205298780Y-49262372D01*
X205348326Y-49101578D01*
X205398013Y-48945450D01*
X205701082Y-48945450D01*
X205749002Y-49100306D01*
G37*
G36*
X206825436Y-46286430D02*
G01*
X206943893Y-46320355D01*
X207055565Y-46378029D01*
X207153102Y-46460582D01*
X207015137Y-46655089D01*
X206872649Y-46548788D01*
X206734685Y-46517124D01*
X206603506Y-46563489D01*
X206551486Y-46695800D01*
X206593328Y-46815670D01*
X206699628Y-46937803D01*
X206766349Y-47002544D01*
X206837593Y-47070113D01*
X206908837Y-47141922D01*
X206975557Y-47219386D01*
X207034362Y-47303352D01*
X207081858Y-47394669D01*
X207113239Y-47494184D01*
X207123700Y-47602746D01*
X207124830Y-47650242D01*
X207119176Y-47706785D01*
X206205444Y-47706785D01*
X206205444Y-47476090D01*
X206807060Y-47476090D01*
X206783312Y-47401454D01*
X206725638Y-47321163D01*
X206653263Y-47244265D01*
X206585412Y-47179806D01*
X206470065Y-47066721D01*
X206368288Y-46944588D01*
X206295913Y-46814540D01*
X206268772Y-46675444D01*
X206304960Y-46500162D01*
X206402213Y-46374637D01*
X206542439Y-46300000D01*
X206707544Y-46275121D01*
X206825436Y-46286430D01*
G37*
G36*
X208010715Y-49100306D02*
G01*
X208059483Y-49259545D01*
X208109099Y-49423166D01*
X208159564Y-49591169D01*
X208200184Y-49730264D01*
X208240624Y-49875240D01*
X208280882Y-50026096D01*
X208320960Y-50182833D01*
X208360856Y-50345450D01*
X208071357Y-50345450D01*
X208008029Y-50022025D01*
X207956010Y-50022025D01*
X207634847Y-50022025D01*
X207569257Y-50345450D01*
X207270711Y-50345450D01*
X207308029Y-50186723D01*
X207345800Y-50032610D01*
X207384023Y-49883110D01*
X207408522Y-49791330D01*
X207682342Y-49791330D01*
X207956010Y-49791330D01*
X207927738Y-49646581D01*
X207896074Y-49507485D01*
X207859887Y-49367259D01*
X207818045Y-49216855D01*
X207776204Y-49367259D01*
X207740016Y-49507485D01*
X207709483Y-49646581D01*
X207682342Y-49791330D01*
X207408522Y-49791330D01*
X207422698Y-49738225D01*
X207461826Y-49597954D01*
X207511088Y-49427831D01*
X207560493Y-49262372D01*
X207610038Y-49101578D01*
X207659725Y-48945450D01*
X207962795Y-48945450D01*
X208010715Y-49100306D01*
G37*
G36*
X206949548Y-43659074D02*
G01*
X207128223Y-43686214D01*
X207128223Y-45052289D01*
X206975557Y-45078298D01*
X206829677Y-45086214D01*
X206825153Y-45085887D01*
X206693126Y-45076319D01*
X206568449Y-45046634D01*
X206457908Y-44995463D01*
X206363764Y-44921109D01*
X206287149Y-44822442D01*
X206229192Y-44698331D01*
X206192722Y-44547079D01*
X206180565Y-44366990D01*
X206463279Y-44366990D01*
X206467520Y-44466788D01*
X206480242Y-44558104D01*
X206536785Y-44708508D01*
X206640824Y-44808024D01*
X206800275Y-44844211D01*
X206825153Y-44844211D01*
X206850032Y-44841949D01*
X206850032Y-43901077D01*
X206809321Y-43895423D01*
X206768611Y-43894292D01*
X206617076Y-43933872D01*
X206524346Y-44039041D01*
X206476850Y-44190576D01*
X206463279Y-44366990D01*
X206180565Y-44366990D01*
X206191591Y-44190859D01*
X206224669Y-44042434D01*
X206277536Y-43919736D01*
X206347932Y-43820786D01*
X206435856Y-43745302D01*
X206541309Y-43692999D01*
X206661462Y-43662466D01*
X206793489Y-43652289D01*
X206949548Y-43659074D01*
G37*
G36*
X209211260Y-48936403D02*
G01*
X209389935Y-48963543D01*
X209389935Y-50329618D01*
X209237270Y-50355627D01*
X209091389Y-50363543D01*
X209086866Y-50363216D01*
X208954838Y-50353648D01*
X208830162Y-50323963D01*
X208719620Y-50272792D01*
X208625477Y-50198438D01*
X208548861Y-50099771D01*
X208490905Y-49975660D01*
X208454435Y-49824408D01*
X208442278Y-49644319D01*
X208724992Y-49644319D01*
X208729233Y-49744117D01*
X208741955Y-49835433D01*
X208798498Y-49985837D01*
X208902536Y-50085353D01*
X209061987Y-50121540D01*
X209086866Y-50121540D01*
X209111745Y-50119278D01*
X209111745Y-49178406D01*
X209071034Y-49172752D01*
X209030323Y-49171621D01*
X208878788Y-49211201D01*
X208786058Y-49316370D01*
X208738562Y-49467905D01*
X208724992Y-49644319D01*
X208442278Y-49644319D01*
X208453304Y-49468188D01*
X208486381Y-49319763D01*
X208539249Y-49197065D01*
X208609645Y-49098115D01*
X208697569Y-49022631D01*
X208803021Y-48970328D01*
X208923174Y-48939795D01*
X209055202Y-48929618D01*
X209211260Y-48936403D01*
G37*
G36*
X205327900Y-46424394D02*
G01*
X205352779Y-46560097D01*
X205381050Y-46706826D01*
X205411583Y-46857512D01*
X205444378Y-47009047D01*
X205479435Y-47158320D01*
X205515622Y-47298263D01*
X205551809Y-47421809D01*
X205588279Y-47296567D01*
X205625315Y-47156058D01*
X205661502Y-47006785D01*
X205695428Y-46855250D01*
X205726809Y-46704847D01*
X205755363Y-46558966D01*
X205779111Y-46424111D01*
X205796074Y-46306785D01*
X206090097Y-46306785D01*
X206064087Y-46433441D01*
X206026769Y-46591761D01*
X205996864Y-46710250D01*
X205964446Y-46833513D01*
X205929515Y-46961551D01*
X205892574Y-47092102D01*
X205854125Y-47222904D01*
X205814168Y-47353958D01*
X205754798Y-47540549D01*
X205698821Y-47706785D01*
X205411583Y-47706785D01*
X205368359Y-47586286D01*
X205326141Y-47463023D01*
X205284927Y-47336995D01*
X205245347Y-47210339D01*
X205208029Y-47085191D01*
X205172973Y-46961551D01*
X205124911Y-46781462D01*
X205082504Y-46609855D01*
X205046034Y-46450404D01*
X205015784Y-46306785D01*
X205307544Y-46306785D01*
X205327900Y-46424394D01*
G37*
G36*
X208967561Y-43648048D02*
G01*
X209082342Y-43682822D01*
X209185816Y-43740778D01*
X209274588Y-43821917D01*
X209347528Y-43925673D01*
X209403506Y-44051481D01*
X209439128Y-44198775D01*
X209451002Y-44366990D01*
X209440824Y-44536901D01*
X209410291Y-44684760D01*
X209361099Y-44810285D01*
X209294943Y-44913193D01*
X209212674Y-44993484D01*
X209115137Y-45051158D01*
X209003465Y-45085932D01*
X208878788Y-45097523D01*
X208740541Y-45091869D01*
X208624346Y-45074906D01*
X208469418Y-45034195D01*
X208469418Y-44335326D01*
X208747609Y-44335326D01*
X208747609Y-44846473D01*
X208801890Y-44853258D01*
X208856171Y-44855520D01*
X208991309Y-44825835D01*
X209089128Y-44736780D01*
X209133105Y-44642919D01*
X209159492Y-44519655D01*
X209168288Y-44366990D01*
X209163481Y-44263234D01*
X209149063Y-44169090D01*
X209085735Y-44015293D01*
X208973780Y-43914647D01*
X208806414Y-43878460D01*
X208657141Y-43903339D01*
X208535008Y-43959882D01*
X208462633Y-43738234D01*
X208508998Y-43711093D01*
X208587027Y-43677167D01*
X208698982Y-43648896D01*
X208844863Y-43636457D01*
X208967561Y-43648048D01*
G37*
D11*
%TO.C,R33*%
X93256263Y-102785000D02*
X94703737Y-102785000D01*
X93256263Y-105495000D02*
X94703737Y-105495000D01*
D12*
%TO.C,kibuzzard-33*%
G36*
X125676608Y-142646131D02*
G01*
X125077254Y-142646131D01*
X125077254Y-143152755D01*
X124846559Y-143152755D01*
X124846559Y-142646131D01*
X124507302Y-142646131D01*
X124507302Y-143225129D01*
X124276608Y-143225129D01*
X124276608Y-142367940D01*
X125676608Y-142367940D01*
X125676608Y-142646131D01*
G37*
G36*
X128503748Y-142646131D02*
G01*
X127904394Y-142646131D01*
X127904394Y-143152755D01*
X127673700Y-143152755D01*
X127673700Y-142646131D01*
X127334443Y-142646131D01*
X127334443Y-143225129D01*
X127103748Y-143225129D01*
X127103748Y-142367940D01*
X128503748Y-142367940D01*
X128503748Y-142646131D01*
G37*
G36*
X127334443Y-144055178D02*
G01*
X127446115Y-143992415D01*
X127577577Y-143926260D01*
X127723175Y-143860953D01*
X127877254Y-143800735D01*
X128036422Y-143747302D01*
X128197286Y-143702351D01*
X128354758Y-143670121D01*
X128503748Y-143654855D01*
X128503748Y-143937569D01*
X128322529Y-143958207D01*
X128140743Y-143997504D01*
X127964047Y-144050089D01*
X127798094Y-144110590D01*
X127645994Y-144177028D01*
X127510857Y-144247423D01*
X127398336Y-144316971D01*
X127314088Y-144380864D01*
X127103748Y-144380864D01*
X127103748Y-143467133D01*
X127334443Y-143467133D01*
X127334443Y-144055178D01*
G37*
G36*
X125203910Y-141594435D02*
G01*
X125191470Y-141761676D01*
X125154152Y-141901525D01*
X125091955Y-142013982D01*
X125001864Y-142096284D01*
X124880862Y-142145664D01*
X124728950Y-142162125D01*
X124578546Y-142145790D01*
X124459053Y-142096786D01*
X124370469Y-142015113D01*
X124309528Y-141903787D01*
X124272964Y-141765822D01*
X124263121Y-141632884D01*
X124502779Y-141632884D01*
X124515501Y-141732682D01*
X124553668Y-141810428D01*
X124622367Y-141860469D01*
X124726689Y-141877149D01*
X124836664Y-141860186D01*
X124908756Y-141809297D01*
X124948619Y-141725049D01*
X124961907Y-141608005D01*
X124961907Y-141494919D01*
X124509564Y-141494919D01*
X124503910Y-141563902D01*
X124502779Y-141632884D01*
X124263121Y-141632884D01*
X124260776Y-141601220D01*
X124263037Y-141513013D01*
X124268692Y-141411236D01*
X124278869Y-141308328D01*
X124294701Y-141216729D01*
X125676608Y-141216729D01*
X125676608Y-141494919D01*
X125203910Y-141494919D01*
X125203910Y-141594435D01*
G37*
G36*
X128031050Y-141594435D02*
G01*
X128018611Y-141761676D01*
X127981293Y-141901525D01*
X127919096Y-142013982D01*
X127829004Y-142096284D01*
X127708002Y-142145664D01*
X127556091Y-142162125D01*
X127405687Y-142145790D01*
X127286193Y-142096786D01*
X127197609Y-142015113D01*
X127136669Y-141903787D01*
X127100104Y-141765822D01*
X127090261Y-141632884D01*
X127329920Y-141632884D01*
X127342642Y-141732682D01*
X127380808Y-141810428D01*
X127449508Y-141860469D01*
X127553829Y-141877149D01*
X127663805Y-141860186D01*
X127735897Y-141809297D01*
X127775760Y-141725049D01*
X127789047Y-141608005D01*
X127789047Y-141494919D01*
X127336705Y-141494919D01*
X127331050Y-141563902D01*
X127329920Y-141632884D01*
X127090261Y-141632884D01*
X127087916Y-141601220D01*
X127090178Y-141513013D01*
X127095832Y-141411236D01*
X127106010Y-141308328D01*
X127121842Y-141216729D01*
X128503748Y-141216729D01*
X128503748Y-141494919D01*
X128031050Y-141494919D01*
X128031050Y-141594435D01*
G37*
G36*
X130858191Y-141594435D02*
G01*
X130845752Y-141761676D01*
X130808433Y-141901525D01*
X130746236Y-142013982D01*
X130656145Y-142096284D01*
X130535143Y-142145664D01*
X130383231Y-142162125D01*
X130232827Y-142145790D01*
X130113334Y-142096786D01*
X130024750Y-142015113D01*
X129963809Y-141903787D01*
X129927245Y-141765822D01*
X129917402Y-141632884D01*
X130157060Y-141632884D01*
X130169782Y-141732682D01*
X130207949Y-141810428D01*
X130276648Y-141860469D01*
X130380970Y-141877149D01*
X130490945Y-141860186D01*
X130563037Y-141809297D01*
X130602900Y-141725049D01*
X130616188Y-141608005D01*
X130616188Y-141494919D01*
X130163845Y-141494919D01*
X130158191Y-141563902D01*
X130157060Y-141632884D01*
X129917402Y-141632884D01*
X129915057Y-141601220D01*
X129917319Y-141513013D01*
X129922973Y-141411236D01*
X129933151Y-141308328D01*
X129948983Y-141216729D01*
X131330889Y-141216729D01*
X131330889Y-141494919D01*
X130858191Y-141494919D01*
X130858191Y-141594435D01*
G37*
G36*
X133685331Y-141594435D02*
G01*
X133672892Y-141761676D01*
X133635574Y-141901525D01*
X133573377Y-142013982D01*
X133483285Y-142096284D01*
X133362284Y-142145664D01*
X133210372Y-142162125D01*
X133059968Y-142145790D01*
X132940474Y-142096786D01*
X132851890Y-142015113D01*
X132790950Y-141903787D01*
X132754386Y-141765822D01*
X132744542Y-141632884D01*
X132984201Y-141632884D01*
X132996923Y-141732682D01*
X133035089Y-141810428D01*
X133103789Y-141860469D01*
X133208110Y-141877149D01*
X133318086Y-141860186D01*
X133390178Y-141809297D01*
X133430041Y-141725049D01*
X133443328Y-141608005D01*
X133443328Y-141494919D01*
X132990986Y-141494919D01*
X132985331Y-141563902D01*
X132984201Y-141632884D01*
X132744542Y-141632884D01*
X132742197Y-141601220D01*
X132744459Y-141513013D01*
X132750113Y-141411236D01*
X132760291Y-141308328D01*
X132776123Y-141216729D01*
X134158029Y-141216729D01*
X134158029Y-141494919D01*
X133685331Y-141494919D01*
X133685331Y-141594435D01*
G37*
G36*
X131339088Y-142782682D02*
G01*
X131309403Y-142907359D01*
X131258231Y-143017900D01*
X131183878Y-143112044D01*
X131085210Y-143188659D01*
X130961099Y-143246616D01*
X130809847Y-143283086D01*
X130629758Y-143295242D01*
X130453627Y-143284217D01*
X130305202Y-143251139D01*
X130182504Y-143198272D01*
X130083554Y-143127876D01*
X130008070Y-143039952D01*
X129955768Y-142934499D01*
X129925235Y-142814346D01*
X129916975Y-142707197D01*
X130157060Y-142707197D01*
X130196640Y-142858732D01*
X130301810Y-142951462D01*
X130453344Y-142998958D01*
X130629758Y-143012528D01*
X130729556Y-143008288D01*
X130820873Y-142995566D01*
X130971277Y-142939023D01*
X131070792Y-142834984D01*
X131106979Y-142675533D01*
X131106979Y-142650654D01*
X131104718Y-142625776D01*
X130163845Y-142625776D01*
X130158191Y-142666486D01*
X130157060Y-142707197D01*
X129916975Y-142707197D01*
X129915057Y-142682318D01*
X129921842Y-142526260D01*
X129948983Y-142347585D01*
X131315057Y-142347585D01*
X131341067Y-142500251D01*
X131348983Y-142646131D01*
X131348655Y-142650654D01*
X131339088Y-142782682D01*
G37*
G36*
X134166228Y-142782682D02*
G01*
X134136543Y-142907359D01*
X134085372Y-143017900D01*
X134011018Y-143112044D01*
X133912351Y-143188659D01*
X133788239Y-143246616D01*
X133636987Y-143283086D01*
X133456899Y-143295242D01*
X133280768Y-143284217D01*
X133132343Y-143251139D01*
X133009645Y-143198272D01*
X132910695Y-143127876D01*
X132835210Y-143039952D01*
X132782908Y-142934499D01*
X132752375Y-142814346D01*
X132744115Y-142707197D01*
X132984201Y-142707197D01*
X133023781Y-142858732D01*
X133128950Y-142951462D01*
X133280485Y-142998958D01*
X133456899Y-143012528D01*
X133556697Y-143008288D01*
X133648013Y-142995566D01*
X133798417Y-142939023D01*
X133897932Y-142834984D01*
X133934120Y-142675533D01*
X133934120Y-142650654D01*
X133931858Y-142625776D01*
X132990986Y-142625776D01*
X132985331Y-142666486D01*
X132984201Y-142707197D01*
X132744115Y-142707197D01*
X132742197Y-142682318D01*
X132748983Y-142526260D01*
X132776123Y-142347585D01*
X134142197Y-142347585D01*
X134168207Y-142500251D01*
X134176123Y-142646131D01*
X134175795Y-142650654D01*
X134166228Y-142782682D01*
G37*
G36*
X134135412Y-143519152D02*
G01*
X134160291Y-143617536D01*
X134179516Y-143728360D01*
X134187432Y-143838053D01*
X134179233Y-143968667D01*
X134154637Y-144080057D01*
X134115057Y-144172787D01*
X134061907Y-144247423D01*
X133920550Y-144344677D01*
X133741874Y-144376341D01*
X133628223Y-144361357D01*
X133531535Y-144316406D01*
X133454071Y-144244314D01*
X133398094Y-144147908D01*
X133280485Y-144274564D01*
X133119903Y-144322060D01*
X132963845Y-144294919D01*
X132838320Y-144211236D01*
X132755768Y-144067617D01*
X132733716Y-143972908D01*
X132726365Y-143862932D01*
X132736826Y-143742779D01*
X132768207Y-143635630D01*
X132850760Y-143473918D01*
X133054314Y-143573433D01*
X132989855Y-143708005D01*
X132963845Y-143865194D01*
X133007949Y-143992981D01*
X133128950Y-144039346D01*
X133214895Y-144017860D01*
X133269176Y-143962448D01*
X133298579Y-143885549D01*
X133307626Y-143799604D01*
X133307626Y-143695566D01*
X133538320Y-143695566D01*
X133538320Y-143781511D01*
X133549346Y-143905339D01*
X133582424Y-144005420D01*
X133643207Y-144071575D01*
X133737351Y-144093627D01*
X133888886Y-144035953D01*
X133934685Y-143957076D01*
X133949952Y-143835792D01*
X133943732Y-143728643D01*
X133925073Y-143637892D01*
X133877577Y-143503320D01*
X134110533Y-143449039D01*
X134135412Y-143519152D01*
G37*
G36*
X125124750Y-144068748D02*
G01*
X125265824Y-143989023D01*
X125363361Y-143867456D01*
X125420752Y-143715356D01*
X125441390Y-143544031D01*
X125681131Y-143553078D01*
X125667278Y-143734297D01*
X125625719Y-143897989D01*
X125557585Y-144041608D01*
X125464007Y-144162609D01*
X125344984Y-144259580D01*
X125200517Y-144331107D01*
X125031737Y-144375210D01*
X124839774Y-144389911D01*
X124665120Y-144376090D01*
X124518108Y-144334625D01*
X124398740Y-144265517D01*
X124310785Y-144170274D01*
X124258011Y-144050403D01*
X124241246Y-143912690D01*
X124477900Y-143912690D01*
X124507302Y-144011074D01*
X124584201Y-144074402D01*
X124689370Y-144108328D01*
X124803587Y-144118506D01*
X124854475Y-144117375D01*
X124898579Y-144113982D01*
X124923458Y-144037084D01*
X124932504Y-143946616D01*
X124918369Y-143845969D01*
X124875962Y-143779249D01*
X124713118Y-143729491D01*
X124622650Y-143739669D01*
X124548013Y-143771333D01*
X124497125Y-143827876D01*
X124477900Y-143912690D01*
X124241246Y-143912690D01*
X124240420Y-143905905D01*
X124251446Y-143800170D01*
X124284524Y-143709136D01*
X124397609Y-143570041D01*
X124551406Y-143486357D01*
X124717642Y-143458086D01*
X124890663Y-143482965D01*
X125032020Y-143562125D01*
X125128142Y-143702351D01*
X125154435Y-143797343D01*
X125163199Y-143910428D01*
X125154411Y-143946616D01*
X125124750Y-144068748D01*
G37*
G36*
X131360291Y-143942092D02*
G01*
X131349265Y-144049524D01*
X131316188Y-144141123D01*
X131201971Y-144279087D01*
X131048175Y-144359378D01*
X130883070Y-144385388D01*
X130711180Y-144361640D01*
X130568692Y-144283611D01*
X130471438Y-144144515D01*
X130444298Y-144050372D01*
X130435251Y-143937569D01*
X130440340Y-143901381D01*
X130665945Y-143901381D01*
X130680364Y-144001462D01*
X130723619Y-144066486D01*
X130887593Y-144113982D01*
X130966753Y-144103805D01*
X131041390Y-144072141D01*
X131097932Y-144016729D01*
X131120550Y-143935307D01*
X131092278Y-143836923D01*
X131016511Y-143774725D01*
X130909079Y-143743062D01*
X130783554Y-143734015D01*
X130740582Y-143735146D01*
X130699871Y-143738538D01*
X130674992Y-143813175D01*
X130665945Y-143901381D01*
X130440340Y-143901381D01*
X130445428Y-143865194D01*
X130473700Y-143781511D01*
X130326689Y-143859540D01*
X130230566Y-143985065D01*
X130177415Y-144143385D01*
X130159322Y-144319798D01*
X129921842Y-144303966D01*
X129935412Y-144122464D01*
X129976123Y-143957924D01*
X130043409Y-143813175D01*
X130136705Y-143691042D01*
X130255445Y-143592940D01*
X130399063Y-143520283D01*
X130566995Y-143475331D01*
X130758676Y-143460347D01*
X130947026Y-143474043D01*
X131098938Y-143515131D01*
X131214411Y-143583611D01*
X131295455Y-143678226D01*
X131344082Y-143797720D01*
X131359529Y-143935307D01*
X131360291Y-143942092D01*
G37*
%TO.C,kibuzzard-34*%
G36*
X98595929Y-32483651D02*
G01*
X98670242Y-32483651D01*
X99129047Y-32483651D01*
X99222746Y-32021616D01*
X99649241Y-32021616D01*
X99595929Y-32248368D01*
X99541971Y-32468530D01*
X99487367Y-32682100D01*
X99432116Y-32889079D01*
X99376220Y-33089467D01*
X99305844Y-33332500D01*
X99235267Y-33568869D01*
X99164487Y-33798574D01*
X99093506Y-34021616D01*
X98660549Y-34021616D01*
X98592092Y-33800392D01*
X98522423Y-33572908D01*
X98451543Y-33339164D01*
X98379451Y-33099160D01*
X98321422Y-32900452D01*
X98297088Y-32813215D01*
X98670242Y-32813215D01*
X98710630Y-33020000D01*
X98755864Y-33218708D01*
X98807561Y-33419031D01*
X98867334Y-33633893D01*
X98927108Y-33419031D01*
X98978805Y-33218708D01*
X99022423Y-33020000D01*
X99061195Y-32813215D01*
X98670242Y-32813215D01*
X98297088Y-32813215D01*
X98263651Y-32693344D01*
X98206139Y-32477835D01*
X98148885Y-32253926D01*
X98091890Y-32021616D01*
X98505460Y-32021616D01*
X98595929Y-32483651D01*
G37*
G36*
X93978805Y-31997322D02*
G01*
X94106026Y-32003441D01*
X94255057Y-32026462D01*
X94389144Y-32067658D01*
X94503845Y-32129855D01*
X94670242Y-32323716D01*
X94716284Y-32459822D01*
X94731632Y-32625816D01*
X94713457Y-32761519D01*
X94658934Y-32890759D01*
X94553522Y-33003845D01*
X94382682Y-33091082D01*
X94568465Y-33265557D01*
X94620565Y-33383489D01*
X94637932Y-33517577D01*
X94608853Y-33704976D01*
X94498998Y-33874604D01*
X94276058Y-33997383D01*
X94112892Y-34032520D01*
X93907722Y-34044233D01*
X93639548Y-34029693D01*
X93390759Y-33995767D01*
X93390759Y-33226785D01*
X93788174Y-33226785D01*
X93788174Y-33685590D01*
X93875412Y-33695283D01*
X93969111Y-33698514D01*
X94075735Y-33690436D01*
X94166204Y-33658126D01*
X94227593Y-33590275D01*
X94250210Y-33475574D01*
X94172666Y-33293021D01*
X93943263Y-33226785D01*
X93788174Y-33226785D01*
X93390759Y-33226785D01*
X93390759Y-32354410D01*
X93788174Y-32354410D01*
X93788174Y-32897221D01*
X93943263Y-32897221D01*
X94001422Y-32897221D01*
X94248595Y-32834216D01*
X94340679Y-32625816D01*
X94308368Y-32482036D01*
X94225977Y-32394798D01*
X94111276Y-32352795D01*
X93978805Y-32341486D01*
X93880258Y-32344717D01*
X93788174Y-32354410D01*
X93390759Y-32354410D01*
X93390759Y-32053926D01*
X93530501Y-32028481D01*
X93671858Y-32010307D01*
X93811599Y-31999402D01*
X93946494Y-31995767D01*
X93978805Y-31997322D01*
G37*
D11*
%TO.C,R30*%
X179223737Y-48225000D02*
X177776263Y-48225000D01*
X179223737Y-50935000D02*
X177776263Y-50935000D01*
%TO.C,J16*%
X197645000Y-69670000D02*
X198975000Y-69670000D01*
X197645000Y-71000000D02*
X197645000Y-69670000D01*
X197645000Y-72270000D02*
X200305000Y-72270000D01*
X197645000Y-105350000D02*
X197645000Y-72270000D01*
X197645000Y-105350000D02*
X200305000Y-105350000D01*
X200305000Y-105350000D02*
X200305000Y-72270000D01*
%TD*%
M02*
