%TF.GenerationSoftware,KiCad,Pcbnew,8.0.2-rc1*%
%TF.CreationDate,2024-08-28T13:59:49+02:00*%
%TF.ProjectId,Carte-Principale,43617274-652d-4507-9269-6e636970616c,rev?*%
%TF.SameCoordinates,Original*%
%TF.FileFunction,Soldermask,Bot*%
%TF.FilePolarity,Negative*%
%FSLAX46Y46*%
G04 Gerber Fmt 4.6, Leading zero omitted, Abs format (unit mm)*
G04 Created by KiCad (PCBNEW 8.0.2-rc1) date 2024-08-28 13:59:49*
%MOMM*%
%LPD*%
G01*
G04 APERTURE LIST*
G04 Aperture macros list*
%AMRoundRect*
0 Rectangle with rounded corners*
0 $1 Rounding radius*
0 $2 $3 $4 $5 $6 $7 $8 $9 X,Y pos of 4 corners*
0 Add a 4 corners polygon primitive as box body*
4,1,4,$2,$3,$4,$5,$6,$7,$8,$9,$2,$3,0*
0 Add four circle primitives for the rounded corners*
1,1,$1+$1,$2,$3*
1,1,$1+$1,$4,$5*
1,1,$1+$1,$6,$7*
1,1,$1+$1,$8,$9*
0 Add four rect primitives between the rounded corners*
20,1,$1+$1,$2,$3,$4,$5,0*
20,1,$1+$1,$4,$5,$6,$7,0*
20,1,$1+$1,$6,$7,$8,$9,0*
20,1,$1+$1,$8,$9,$2,$3,0*%
G04 Aperture macros list end*
%ADD10C,0.200000*%
%ADD11RoundRect,0.250000X0.620000X0.845000X-0.620000X0.845000X-0.620000X-0.845000X0.620000X-0.845000X0*%
%ADD12O,1.740000X2.190000*%
%ADD13R,1.700000X1.700000*%
%ADD14O,1.700000X1.700000*%
%ADD15C,3.200000*%
%ADD16C,1.609600*%
%ADD17C,1.400000*%
%ADD18R,3.000000X3.000000*%
%ADD19C,3.000000*%
%ADD20RoundRect,0.102000X0.754000X-0.754000X0.754000X0.754000X-0.754000X0.754000X-0.754000X-0.754000X0*%
%ADD21C,1.712000*%
%ADD22C,2.000000*%
%ADD23R,1.905000X2.000000*%
%ADD24O,1.905000X2.000000*%
%ADD25R,3.800000X3.800000*%
%ADD26C,3.800000*%
%ADD27RoundRect,0.250000X-0.845000X0.620000X-0.845000X-0.620000X0.845000X-0.620000X0.845000X0.620000X0*%
%ADD28O,2.190000X1.740000*%
%ADD29RoundRect,0.250000X-0.620000X-0.845000X0.620000X-0.845000X0.620000X0.845000X-0.620000X0.845000X0*%
%ADD30RoundRect,1.500000X-1.500000X-1.500000X1.500000X-1.500000X1.500000X1.500000X-1.500000X1.500000X0*%
%ADD31C,6.000000*%
%ADD32R,1.600000X1.600000*%
%ADD33C,1.600000*%
%ADD34RoundRect,0.100000X-0.650000X-0.100000X0.650000X-0.100000X0.650000X0.100000X-0.650000X0.100000X0*%
%ADD35RoundRect,0.250000X0.400000X1.075000X-0.400000X1.075000X-0.400000X-1.075000X0.400000X-1.075000X0*%
%ADD36RoundRect,0.250000X0.412500X1.100000X-0.412500X1.100000X-0.412500X-1.100000X0.412500X-1.100000X0*%
%ADD37RoundRect,0.250000X-0.412500X-1.100000X0.412500X-1.100000X0.412500X1.100000X-0.412500X1.100000X0*%
%ADD38RoundRect,0.150000X-0.150000X0.825000X-0.150000X-0.825000X0.150000X-0.825000X0.150000X0.825000X0*%
%ADD39RoundRect,0.250000X-0.400000X-1.075000X0.400000X-1.075000X0.400000X1.075000X-0.400000X1.075000X0*%
G04 APERTURE END LIST*
D10*
X56500000Y-45000000D02*
X62500000Y-45000000D01*
X62500000Y-49000000D01*
X56500000Y-49000000D01*
X56500000Y-45000000D01*
G36*
X56500000Y-45000000D02*
G01*
X62500000Y-45000000D01*
X62500000Y-49000000D01*
X56500000Y-49000000D01*
X56500000Y-45000000D01*
G37*
D11*
%TO.C,J11*%
X133240000Y-129540000D03*
D12*
X130700000Y-129540000D03*
X128160000Y-129540000D03*
X125620000Y-129540000D03*
%TD*%
D11*
%TO.C,J6*%
X105810000Y-129540000D03*
D12*
X103270000Y-129540000D03*
X100730000Y-129540000D03*
X98190000Y-129540000D03*
%TD*%
D13*
%TO.C,M5*%
X139910000Y-44750000D03*
D14*
X139910000Y-47290000D03*
X139910000Y-49830000D03*
%TD*%
D15*
%TO.C,H2*%
X60960000Y-139700000D03*
%TD*%
D16*
%TO.C,DRV1*%
X118110000Y-35560000D03*
X115570000Y-35560000D03*
X113030000Y-35560000D03*
X110490000Y-35560000D03*
X123190000Y-48260000D03*
X120650000Y-48260000D03*
X120650000Y-35560000D03*
X123190000Y-35560000D03*
X107950000Y-35560000D03*
X113030000Y-48260000D03*
X110490000Y-48260000D03*
X107950000Y-48260000D03*
X105410000Y-48260000D03*
X115570000Y-48260000D03*
X118110000Y-48260000D03*
X105410000Y-35560000D03*
%TD*%
D17*
%TO.C,TP6*%
X99000000Y-51750000D03*
X96460000Y-51750000D03*
%TD*%
D18*
%TO.C,J5*%
X99060000Y-38100000D03*
D19*
X93980000Y-38100000D03*
%TD*%
D13*
%TO.C,M4*%
X137370000Y-44750000D03*
D14*
X137370000Y-47290000D03*
X137370000Y-49830000D03*
%TD*%
D13*
%TO.C,J2*%
X75370000Y-40250000D03*
D14*
X72830000Y-40250000D03*
X70290000Y-40250000D03*
X67750000Y-40250000D03*
%TD*%
D11*
%TO.C,J10*%
X120540000Y-138430000D03*
D12*
X118000000Y-138430000D03*
X115460000Y-138430000D03*
X112920000Y-138430000D03*
%TD*%
D15*
%TO.C,U2*%
X107945000Y-113030000D03*
X184145000Y-111760000D03*
X184145000Y-66040000D03*
X109215000Y-64770000D03*
D20*
X83815000Y-120650000D03*
D21*
X86355000Y-120650000D03*
D20*
X83815000Y-57150000D03*
D21*
X86355000Y-57150000D03*
D20*
X112771000Y-67310000D03*
D21*
X112771000Y-64770000D03*
X115311000Y-67310000D03*
X115311000Y-64770000D03*
X117851000Y-67310000D03*
X117851000Y-64770000D03*
X120391000Y-67310000D03*
X120391000Y-64770000D03*
X122931000Y-67310000D03*
X122931000Y-64770000D03*
X125471000Y-67310000D03*
X125471000Y-64770000D03*
X128011000Y-67310000D03*
X128011000Y-64770000D03*
X130551000Y-67310000D03*
X130551000Y-64770000D03*
X133091000Y-67310000D03*
X133091000Y-64770000D03*
X135631000Y-67310000D03*
X135631000Y-64770000D03*
D20*
X121915000Y-113030000D03*
D21*
X121915000Y-110490000D03*
X124455000Y-113030000D03*
X124455000Y-110490000D03*
X126995000Y-113030000D03*
X126995000Y-110490000D03*
X129535000Y-113030000D03*
X129535000Y-110490000D03*
X132075000Y-113030000D03*
X132075000Y-110490000D03*
X134615000Y-113030000D03*
X134615000Y-110490000D03*
X137155000Y-113030000D03*
X137155000Y-110490000D03*
X139695000Y-113030000D03*
X139695000Y-110490000D03*
D20*
X144775000Y-113030000D03*
D21*
X144775000Y-110490000D03*
X147315000Y-113030000D03*
X147315000Y-110490000D03*
X149855000Y-113030000D03*
X149855000Y-110490000D03*
X152395000Y-113030000D03*
X152395000Y-110490000D03*
X154935000Y-113030000D03*
X154935000Y-110490000D03*
X157475000Y-113030000D03*
X157475000Y-110490000D03*
X160015000Y-113030000D03*
X160015000Y-110490000D03*
X162555000Y-113030000D03*
X162555000Y-110490000D03*
X165095000Y-113030000D03*
X165095000Y-110490000D03*
X167635000Y-113030000D03*
X167635000Y-110490000D03*
X170175000Y-113030000D03*
X170175000Y-110490000D03*
X172715000Y-113030000D03*
X172715000Y-110490000D03*
X175255000Y-113030000D03*
X175255000Y-110490000D03*
X177795000Y-113030000D03*
X177795000Y-110490000D03*
X180335000Y-113030000D03*
X180335000Y-110490000D03*
D20*
X139695000Y-67310000D03*
D21*
X139695000Y-64770000D03*
X142235000Y-67310000D03*
X142235000Y-64770000D03*
X144775000Y-67310000D03*
X144775000Y-64770000D03*
X147315000Y-67310000D03*
X147315000Y-64770000D03*
X149855000Y-67310000D03*
X149855000Y-64770000D03*
X152395000Y-67310000D03*
X152395000Y-64770000D03*
X154935000Y-67310000D03*
X154935000Y-64770000D03*
X157475000Y-67310000D03*
X157475000Y-64770000D03*
X160015000Y-67310000D03*
X160015000Y-64770000D03*
X162555000Y-67310000D03*
X162555000Y-64770000D03*
X165095000Y-67310000D03*
X165095000Y-64770000D03*
X167635000Y-67310000D03*
X167635000Y-64770000D03*
X170175000Y-67310000D03*
X170175000Y-64770000D03*
X172715000Y-67310000D03*
X172715000Y-64770000D03*
X175255000Y-67310000D03*
X175255000Y-64770000D03*
X177795000Y-67310000D03*
X177795000Y-64770000D03*
X180335000Y-67310000D03*
X180335000Y-64770000D03*
D20*
X111755000Y-120650000D03*
D21*
X111755000Y-118110000D03*
X114295000Y-120650000D03*
X114295000Y-118110000D03*
X116835000Y-120650000D03*
X116835000Y-118110000D03*
X119375000Y-120650000D03*
X119375000Y-118110000D03*
X121915000Y-120650000D03*
X121915000Y-118110000D03*
X124455000Y-120650000D03*
X124455000Y-118110000D03*
X126995000Y-120650000D03*
X126995000Y-118110000D03*
X129535000Y-120650000D03*
X129535000Y-118110000D03*
X132075000Y-120650000D03*
X132075000Y-118110000D03*
X134615000Y-120650000D03*
X134615000Y-118110000D03*
X137155000Y-120650000D03*
X137155000Y-118110000D03*
X139695000Y-120650000D03*
X139695000Y-118110000D03*
X142235000Y-120650000D03*
X142235000Y-118110000D03*
X144775000Y-120650000D03*
X144775000Y-118110000D03*
X147315000Y-120650000D03*
X147315000Y-118110000D03*
X149855000Y-120650000D03*
X149855000Y-118110000D03*
X152395000Y-120650000D03*
X152395000Y-118110000D03*
X154935000Y-120650000D03*
X154935000Y-118110000D03*
X157475000Y-120650000D03*
X157475000Y-118110000D03*
X160015000Y-120650000D03*
X160015000Y-118110000D03*
X162555000Y-120650000D03*
X162555000Y-118110000D03*
X165095000Y-120650000D03*
X165095000Y-118110000D03*
X167635000Y-120650000D03*
X167635000Y-118110000D03*
X170175000Y-120650000D03*
X170175000Y-118110000D03*
X172715000Y-120650000D03*
X172715000Y-118110000D03*
X175255000Y-120650000D03*
X175255000Y-118110000D03*
X177795000Y-120650000D03*
X177795000Y-118110000D03*
X180335000Y-120650000D03*
X180335000Y-118110000D03*
X182875000Y-120650000D03*
X182875000Y-118110000D03*
X185415000Y-120650000D03*
X185415000Y-118110000D03*
X187955000Y-120650000D03*
X187955000Y-118110000D03*
X190495000Y-120650000D03*
X190495000Y-118110000D03*
X193035000Y-120650000D03*
X193035000Y-118110000D03*
X195575000Y-120650000D03*
X195575000Y-118110000D03*
X198115000Y-120650000D03*
X198115000Y-118110000D03*
D20*
X111775000Y-59690000D03*
D21*
X111775000Y-57150000D03*
X114315000Y-59690000D03*
X114315000Y-57150000D03*
X116855000Y-59690000D03*
X116855000Y-57150000D03*
X119395000Y-59690000D03*
X119395000Y-57150000D03*
X121935000Y-59690000D03*
X121935000Y-57150000D03*
X124475000Y-59690000D03*
X124475000Y-57150000D03*
X127015000Y-59690000D03*
X127015000Y-57150000D03*
X129555000Y-59690000D03*
X129555000Y-57150000D03*
X132095000Y-59690000D03*
X132095000Y-57150000D03*
X134635000Y-59690000D03*
X134635000Y-57150000D03*
X137175000Y-59690000D03*
X137175000Y-57150000D03*
X139715000Y-59690000D03*
X139715000Y-57150000D03*
X142255000Y-59690000D03*
X142255000Y-57150000D03*
X144795000Y-59690000D03*
X144795000Y-57150000D03*
X147335000Y-59690000D03*
X147335000Y-57150000D03*
X149875000Y-59690000D03*
X149875000Y-57150000D03*
X152415000Y-59690000D03*
X152415000Y-57150000D03*
X154955000Y-59690000D03*
X154955000Y-57150000D03*
X157495000Y-59690000D03*
X157495000Y-57150000D03*
X160035000Y-59690000D03*
X160035000Y-57150000D03*
X162575000Y-59690000D03*
X162575000Y-57150000D03*
X165115000Y-59690000D03*
X165115000Y-57150000D03*
X167655000Y-59690000D03*
X167655000Y-57150000D03*
X170195000Y-59690000D03*
X170195000Y-57150000D03*
X172735000Y-59690000D03*
X172735000Y-57150000D03*
X175275000Y-59690000D03*
X175275000Y-57150000D03*
X177815000Y-59690000D03*
X177815000Y-57150000D03*
X180355000Y-59690000D03*
X180355000Y-57150000D03*
X182895000Y-59690000D03*
X182895000Y-57150000D03*
X185435000Y-59690000D03*
X185435000Y-57150000D03*
X187975000Y-59690000D03*
X187975000Y-57150000D03*
X190515000Y-59690000D03*
X190515000Y-57150000D03*
X193055000Y-59690000D03*
X193055000Y-57150000D03*
X195595000Y-59690000D03*
X195595000Y-57150000D03*
X198135000Y-59690000D03*
X198135000Y-57150000D03*
D20*
X200675000Y-59690000D03*
D21*
X200675000Y-57150000D03*
D20*
X200655000Y-120650000D03*
D21*
X200655000Y-118110000D03*
%TD*%
D22*
%TO.C,TP3*%
X76200000Y-59690000D03*
%TD*%
D23*
%TO.C,Q1*%
X63500000Y-91115000D03*
D24*
X66040000Y-91115000D03*
X68580000Y-91115000D03*
%TD*%
D13*
%TO.C,M10*%
X150070000Y-44750000D03*
D14*
X150070000Y-47290000D03*
X150070000Y-49830000D03*
%TD*%
D13*
%TO.C,M8*%
X144990000Y-44750000D03*
D14*
X144990000Y-47290000D03*
X144990000Y-49830000D03*
%TD*%
D15*
%TO.C,H1*%
X60960000Y-35000000D03*
%TD*%
D11*
%TO.C,J12*%
X133240000Y-138430000D03*
D12*
X130700000Y-138430000D03*
X128160000Y-138430000D03*
X125620000Y-138430000D03*
%TD*%
D25*
%TO.C,J4*%
X66120000Y-114300000D03*
D26*
X71120000Y-114300000D03*
%TD*%
D13*
%TO.C,M9*%
X155150000Y-44750000D03*
D14*
X155150000Y-47290000D03*
X155150000Y-49830000D03*
%TD*%
D15*
%TO.C,H4*%
X205000000Y-139700000D03*
%TD*%
D13*
%TO.C,M11*%
X157690000Y-44750000D03*
D14*
X157690000Y-47290000D03*
X157690000Y-49830000D03*
%TD*%
D13*
%TO.C,M12*%
X160230000Y-44750000D03*
D14*
X160230000Y-47290000D03*
X160230000Y-49830000D03*
%TD*%
D11*
%TO.C,SW2*%
X78105000Y-129540000D03*
D12*
X75565000Y-129540000D03*
X73025000Y-129540000D03*
X70485000Y-129540000D03*
%TD*%
D27*
%TO.C,J15*%
X202980000Y-44460000D03*
D28*
X202980000Y-47000000D03*
X202980000Y-49540000D03*
%TD*%
D13*
%TO.C,M7*%
X152610000Y-44750000D03*
D14*
X152610000Y-47290000D03*
X152610000Y-49830000D03*
%TD*%
D15*
%TO.C,H3*%
X205000000Y-35000000D03*
%TD*%
D17*
%TO.C,TP9*%
X191500000Y-50790000D03*
X191500000Y-48250000D03*
%TD*%
D11*
%TO.C,J7*%
X105810000Y-138430000D03*
D12*
X103270000Y-138430000D03*
X100730000Y-138430000D03*
X98190000Y-138430000D03*
%TD*%
D22*
%TO.C,TP4*%
X76200000Y-55880000D03*
%TD*%
D13*
%TO.C,M6*%
X147530000Y-44750000D03*
D14*
X147530000Y-47290000D03*
X147530000Y-49830000D03*
%TD*%
D29*
%TO.C,J8*%
X132080000Y-36850000D03*
D12*
X134620000Y-36850000D03*
X137160000Y-36850000D03*
X139700000Y-36850000D03*
X142240000Y-36850000D03*
X144780000Y-36850000D03*
X147320000Y-36850000D03*
X149860000Y-36850000D03*
%TD*%
D11*
%TO.C,SW4*%
X90805000Y-129540000D03*
D12*
X88265000Y-129540000D03*
X85725000Y-129540000D03*
X83185000Y-129540000D03*
%TD*%
D22*
%TO.C,TP5*%
X76200000Y-64135000D03*
%TD*%
D29*
%TO.C,J13*%
X162560000Y-36830000D03*
D12*
X165100000Y-36830000D03*
X167640000Y-36830000D03*
X170180000Y-36830000D03*
X172720000Y-36830000D03*
X175260000Y-36830000D03*
X177800000Y-36830000D03*
X180340000Y-36830000D03*
%TD*%
D13*
%TO.C,M2*%
X134830000Y-44750000D03*
D14*
X134830000Y-47290000D03*
X134830000Y-49830000D03*
%TD*%
D22*
%TO.C,TP2*%
X76200000Y-46990000D03*
%TD*%
D11*
%TO.C,J9*%
X120540000Y-129540000D03*
D12*
X118000000Y-129540000D03*
X115460000Y-129540000D03*
X112920000Y-129540000D03*
%TD*%
D30*
%TO.C,J3*%
X63920000Y-101600000D03*
D31*
X71120000Y-101600000D03*
%TD*%
D29*
%TO.C,J14*%
X189230000Y-36830000D03*
D12*
X191770000Y-36830000D03*
X194310000Y-36830000D03*
X196850000Y-36830000D03*
%TD*%
D11*
%TO.C,SW1*%
X78105000Y-138430000D03*
D12*
X75565000Y-138430000D03*
X73025000Y-138430000D03*
X70485000Y-138430000D03*
%TD*%
D32*
%TO.C,C1*%
X84500000Y-50402700D03*
D33*
X84500000Y-46902700D03*
%TD*%
D13*
%TO.C,M3*%
X132290000Y-44750000D03*
D14*
X132290000Y-47290000D03*
X132290000Y-49830000D03*
%TD*%
D17*
%TO.C,TP7*%
X99000000Y-49210000D03*
X96460000Y-49210000D03*
%TD*%
D18*
%TO.C,J1*%
X86995000Y-38100000D03*
D19*
X81915000Y-38100000D03*
%TD*%
D22*
%TO.C,TP1*%
X76200000Y-51435000D03*
%TD*%
D13*
%TO.C,M1*%
X129750000Y-44750000D03*
D14*
X129750000Y-47290000D03*
X129750000Y-49830000D03*
%TD*%
D13*
%TO.C,M13*%
X142450000Y-44750000D03*
D14*
X142450000Y-47290000D03*
X142450000Y-49830000D03*
%TD*%
D17*
%TO.C,TP8*%
X188960000Y-50770000D03*
X188960000Y-48230000D03*
%TD*%
D11*
%TO.C,SW3*%
X90805000Y-138430000D03*
D12*
X88265000Y-138430000D03*
X85725000Y-138430000D03*
X83185000Y-138430000D03*
%TD*%
D34*
%TO.C,U6*%
X100850000Y-70775000D03*
X100850000Y-70125000D03*
X100850000Y-69475000D03*
X103510000Y-69475000D03*
X103510000Y-70125000D03*
X103510000Y-70775000D03*
%TD*%
%TO.C,U4*%
X100850000Y-59000000D03*
X100850000Y-58350000D03*
X100850000Y-57700000D03*
X103510000Y-57700000D03*
X103510000Y-58350000D03*
X103510000Y-59000000D03*
%TD*%
D35*
%TO.C,R31*%
X95530000Y-113900000D03*
X92430000Y-113900000D03*
%TD*%
%TO.C,R32*%
X95530000Y-108820000D03*
X92430000Y-108820000D03*
%TD*%
%TO.C,R27*%
X172550000Y-44250000D03*
X169450000Y-44250000D03*
%TD*%
D36*
%TO.C,C7*%
X170062500Y-78500000D03*
X166937500Y-78500000D03*
%TD*%
D37*
%TO.C,C5*%
X94687500Y-65750000D03*
X97812500Y-65750000D03*
%TD*%
D34*
%TO.C,U7*%
X100850000Y-66850000D03*
X100850000Y-66200000D03*
X100850000Y-65550000D03*
X103510000Y-65550000D03*
X103510000Y-66200000D03*
X103510000Y-66850000D03*
%TD*%
D13*
%TO.C,J17*%
X94975000Y-83700000D03*
D14*
X94975000Y-86240000D03*
X94975000Y-88780000D03*
X94975000Y-91320000D03*
%TD*%
D37*
%TO.C,C3*%
X94687500Y-57250000D03*
X97812500Y-57250000D03*
%TD*%
D38*
%TO.C,U3*%
X172630000Y-74050000D03*
X173900000Y-74050000D03*
X175170000Y-74050000D03*
X176440000Y-74050000D03*
X177710000Y-74050000D03*
X178980000Y-74050000D03*
X180250000Y-74050000D03*
X181520000Y-74050000D03*
X181520000Y-79000000D03*
X180250000Y-79000000D03*
X178980000Y-79000000D03*
X177710000Y-79000000D03*
X176440000Y-79000000D03*
X175170000Y-79000000D03*
X173900000Y-79000000D03*
X172630000Y-79000000D03*
%TD*%
D34*
%TO.C,U5*%
X100850000Y-62925000D03*
X100850000Y-62275000D03*
X100850000Y-61625000D03*
X103510000Y-61625000D03*
X103510000Y-62275000D03*
X103510000Y-62925000D03*
%TD*%
D37*
%TO.C,C4*%
X94687500Y-61500000D03*
X97812500Y-61500000D03*
%TD*%
%TO.C,C6*%
X94687500Y-70000000D03*
X97812500Y-70000000D03*
%TD*%
D35*
%TO.C,R28*%
X180050000Y-44500000D03*
X176950000Y-44500000D03*
%TD*%
D39*
%TO.C,R29*%
X169700000Y-49500000D03*
X172800000Y-49500000D03*
%TD*%
D35*
%TO.C,R34*%
X95560000Y-118980000D03*
X92460000Y-118980000D03*
%TD*%
%TO.C,R33*%
X95530000Y-104140000D03*
X92430000Y-104140000D03*
%TD*%
D39*
%TO.C,R30*%
X176950000Y-49580000D03*
X180050000Y-49580000D03*
%TD*%
D13*
%TO.C,J16*%
X198975000Y-71000000D03*
D14*
X198975000Y-73540000D03*
X198975000Y-76080000D03*
X198975000Y-78620000D03*
X198975000Y-81160000D03*
X198975000Y-83700000D03*
X198975000Y-86240000D03*
X198975000Y-88780000D03*
X198975000Y-91320000D03*
X198975000Y-93860000D03*
X198975000Y-96400000D03*
X198975000Y-98940000D03*
X198975000Y-101480000D03*
X198975000Y-104020000D03*
%TD*%
M02*
