%TF.GenerationSoftware,KiCad,Pcbnew,8.0.2-rc1*%
%TF.CreationDate,2024-08-28T13:59:43+02:00*%
%TF.ProjectId,Carte-Principale,43617274-652d-4507-9269-6e636970616c,rev?*%
%TF.SameCoordinates,Original*%
%TF.FileFunction,Drillmap*%
%TF.FilePolarity,Positive*%
%FSLAX45Y45*%
G04 Gerber Fmt 4.5, Leading zero omitted, Abs format (unit mm)*
G04 Created by KiCad (PCBNEW 8.0.2-rc1) date 2024-08-28 13:59:43*
%MOMM*%
%LPD*%
G01*
G04 APERTURE LIST*
%ADD10C,0.050000*%
%ADD11C,0.200000*%
%ADD12C,0.100000*%
%ADD13C,0.110000*%
%ADD14C,0.119000*%
%ADD15C,0.152000*%
%ADD16C,0.270000*%
%ADD17C,0.450000*%
G04 APERTURE END LIST*
D10*
X5588000Y-2921000D02*
X21052000Y-2921000D01*
X21052000Y-14732000D01*
X5588000Y-14732000D01*
X5588000Y-2921000D01*
D11*
D12*
X8535000Y-10285000D02*
X8565000Y-10315000D01*
X8565000Y-10285000D02*
X8535000Y-10315000D01*
X8785000Y-10460000D02*
X8815000Y-10490000D01*
X8815000Y-10460000D02*
X8785000Y-10490000D01*
X8785000Y-10535000D02*
X8815000Y-10565000D01*
X8815000Y-10535000D02*
X8785000Y-10565000D01*
X8835000Y-5585000D02*
X8865000Y-5615000D01*
X8865000Y-5585000D02*
X8835000Y-5615000D01*
X8835000Y-11610000D02*
X8865000Y-11640000D01*
X8865000Y-11610000D02*
X8835000Y-11640000D01*
X8835000Y-11685000D02*
X8865000Y-11715000D01*
X8865000Y-11685000D02*
X8835000Y-11715000D01*
X8860000Y-10460000D02*
X8890000Y-10490000D01*
X8890000Y-10460000D02*
X8860000Y-10490000D01*
X8860000Y-10535000D02*
X8890000Y-10565000D01*
X8890000Y-10535000D02*
X8860000Y-10565000D01*
X8910000Y-11610000D02*
X8940000Y-11640000D01*
X8940000Y-11610000D02*
X8910000Y-11640000D01*
X8910000Y-11685000D02*
X8940000Y-11715000D01*
X8940000Y-11685000D02*
X8910000Y-11715000D01*
X9085000Y-7485000D02*
X9115000Y-7515000D01*
X9115000Y-7485000D02*
X9085000Y-7515000D01*
X9510000Y-12110000D02*
X9540000Y-12140000D01*
X9540000Y-12110000D02*
X9510000Y-12140000D01*
X9585000Y-12110000D02*
X9615000Y-12140000D01*
X9615000Y-12110000D02*
X9585000Y-12140000D01*
X9735000Y-11060000D02*
X9765000Y-11090000D01*
X9765000Y-11060000D02*
X9735000Y-11090000D01*
X9735000Y-11135000D02*
X9765000Y-11165000D01*
X9765000Y-11135000D02*
X9735000Y-11165000D01*
X9785000Y-11985000D02*
X9815000Y-12015000D01*
X9815000Y-11985000D02*
X9785000Y-12015000D01*
X9810000Y-11060000D02*
X9840000Y-11090000D01*
X9840000Y-11060000D02*
X9810000Y-11090000D01*
X9810000Y-11135000D02*
X9840000Y-11165000D01*
X9840000Y-11135000D02*
X9810000Y-11165000D01*
X9860000Y-12185000D02*
X9890000Y-12215000D01*
X9890000Y-12185000D02*
X9860000Y-12215000D01*
X9935000Y-6785000D02*
X9965000Y-6815000D01*
X9965000Y-6785000D02*
X9935000Y-6815000D01*
X9985000Y-6410000D02*
X10015000Y-6440000D01*
X10015000Y-6410000D02*
X9985000Y-6440000D01*
X10035000Y-6785000D02*
X10065000Y-6815000D01*
X10065000Y-6785000D02*
X10035000Y-6815000D01*
X10076800Y-5435000D02*
X10106800Y-5465000D01*
X10106800Y-5435000D02*
X10076800Y-5465000D01*
X10085000Y-6410000D02*
X10115000Y-6440000D01*
X10115000Y-6410000D02*
X10085000Y-6440000D01*
X10210000Y-5585000D02*
X10240000Y-5615000D01*
X10240000Y-5585000D02*
X10210000Y-5615000D01*
X10210000Y-11710000D02*
X10240000Y-11740000D01*
X10240000Y-11710000D02*
X10210000Y-11740000D01*
X10300000Y-5435000D02*
X10330000Y-5465000D01*
X10330000Y-5435000D02*
X10300000Y-5465000D01*
X10335000Y-6810000D02*
X10365000Y-6840000D01*
X10365000Y-6810000D02*
X10335000Y-6840000D01*
X10335000Y-7185000D02*
X10365000Y-7215000D01*
X10365000Y-7185000D02*
X10335000Y-7215000D01*
X10360000Y-5300000D02*
X10390000Y-5330000D01*
X10390000Y-5300000D02*
X10360000Y-5330000D01*
X10381000Y-5985000D02*
X10411000Y-6015000D01*
X10411000Y-5985000D02*
X10381000Y-6015000D01*
X10425000Y-10585000D02*
X10455000Y-10615000D01*
X10455000Y-10585000D02*
X10425000Y-10615000D01*
X10435000Y-8160000D02*
X10465000Y-8190000D01*
X10465000Y-8160000D02*
X10435000Y-8190000D01*
X10470000Y-5435000D02*
X10500000Y-5465000D01*
X10500000Y-5435000D02*
X10470000Y-5465000D01*
X10485000Y-10785000D02*
X10515000Y-10815000D01*
X10515000Y-10785000D02*
X10485000Y-10815000D01*
X10495000Y-6410000D02*
X10525000Y-6440000D01*
X10525000Y-6410000D02*
X10495000Y-6440000D01*
X10535000Y-5360000D02*
X10565000Y-5390000D01*
X10565000Y-5360000D02*
X10535000Y-5390000D01*
X10541694Y-8328306D02*
X10571694Y-8358306D01*
X10571694Y-8328306D02*
X10541694Y-8358306D01*
X10585000Y-10005000D02*
X10615000Y-10035000D01*
X10615000Y-10005000D02*
X10585000Y-10035000D01*
X10585000Y-10085000D02*
X10615000Y-10115000D01*
X10615000Y-10085000D02*
X10585000Y-10115000D01*
X10585000Y-10185000D02*
X10615000Y-10215000D01*
X10615000Y-10185000D02*
X10585000Y-10215000D01*
X10585000Y-10585000D02*
X10615000Y-10615000D01*
X10615000Y-10585000D02*
X10585000Y-10615000D01*
X10585000Y-10685000D02*
X10615000Y-10715000D01*
X10615000Y-10685000D02*
X10585000Y-10715000D01*
X10635000Y-11885000D02*
X10665000Y-11915000D01*
X10665000Y-11885000D02*
X10635000Y-11915000D01*
X10635000Y-12160000D02*
X10665000Y-12190000D01*
X10665000Y-12160000D02*
X10635000Y-12190000D01*
X10647500Y-6475625D02*
X10677500Y-6505625D01*
X10677500Y-6475625D02*
X10647500Y-6505625D01*
X10650000Y-11710000D02*
X10680000Y-11740000D01*
X10680000Y-11710000D02*
X10650000Y-11740000D01*
X10785000Y-9535000D02*
X10815000Y-9565000D01*
X10815000Y-9535000D02*
X10785000Y-9565000D01*
X10785000Y-11810000D02*
X10815000Y-11840000D01*
X10815000Y-11810000D02*
X10785000Y-11840000D01*
X10885000Y-8485000D02*
X10915000Y-8515000D01*
X10915000Y-8485000D02*
X10885000Y-8515000D01*
X10910000Y-5300000D02*
X10940000Y-5330000D01*
X10940000Y-5300000D02*
X10910000Y-5330000D01*
X10985000Y-8485000D02*
X11015000Y-8515000D01*
X11015000Y-8485000D02*
X10985000Y-8515000D01*
X11035000Y-8685000D02*
X11065000Y-8715000D01*
X11065000Y-8685000D02*
X11035000Y-8715000D01*
X11060000Y-9250000D02*
X11090000Y-9280000D01*
X11090000Y-9250000D02*
X11060000Y-9280000D01*
X11085000Y-12546000D02*
X11115000Y-12576000D01*
X11115000Y-12546000D02*
X11085000Y-12576000D01*
X11735000Y-12445000D02*
X11765000Y-12475000D01*
X11765000Y-12445000D02*
X11735000Y-12475000D01*
X11785000Y-12545000D02*
X11815000Y-12575000D01*
X11815000Y-12545000D02*
X11785000Y-12575000D01*
X11885000Y-4610000D02*
X11915000Y-4640000D01*
X11915000Y-4610000D02*
X11885000Y-4640000D01*
X11985000Y-11585000D02*
X12015000Y-11615000D01*
X12015000Y-11585000D02*
X11985000Y-11615000D01*
X12510000Y-6960000D02*
X12540000Y-6990000D01*
X12540000Y-6960000D02*
X12510000Y-6990000D01*
X12688800Y-8437500D02*
X12718800Y-8467500D01*
X12718800Y-8437500D02*
X12688800Y-8467500D01*
X12785000Y-7510000D02*
X12815000Y-7540000D01*
X12815000Y-7510000D02*
X12785000Y-7540000D01*
X12785000Y-8785000D02*
X12815000Y-8815000D01*
X12815000Y-8785000D02*
X12785000Y-8815000D01*
X12785000Y-8860000D02*
X12815000Y-8890000D01*
X12815000Y-8860000D02*
X12785000Y-8890000D01*
X12860000Y-8785000D02*
X12890000Y-8815000D01*
X12890000Y-8785000D02*
X12860000Y-8815000D01*
X12860000Y-8860000D02*
X12890000Y-8890000D01*
X12890000Y-8860000D02*
X12860000Y-8890000D01*
X12960000Y-7335000D02*
X12990000Y-7365000D01*
X12990000Y-7335000D02*
X12960000Y-7365000D01*
X12985000Y-12485000D02*
X13015000Y-12515000D01*
X13015000Y-12485000D02*
X12985000Y-12515000D01*
X13041569Y-12541569D02*
X13071569Y-12571569D01*
X13071569Y-12541569D02*
X13041569Y-12571569D01*
X13107056Y-12607057D02*
X13137056Y-12637057D01*
X13137056Y-12607057D02*
X13107056Y-12637057D01*
X13460000Y-6235000D02*
X13490000Y-6265000D01*
X13490000Y-6235000D02*
X13460000Y-6265000D01*
X13685000Y-8335000D02*
X13715000Y-8365000D01*
X13715000Y-8335000D02*
X13685000Y-8365000D01*
X13685000Y-10835000D02*
X13715000Y-10865000D01*
X13715000Y-10835000D02*
X13685000Y-10865000D01*
X13720000Y-6920000D02*
X13750000Y-6950000D01*
X13750000Y-6920000D02*
X13720000Y-6950000D01*
X13885000Y-8535000D02*
X13915000Y-8565000D01*
X13915000Y-8535000D02*
X13885000Y-8565000D01*
X13885000Y-12525000D02*
X13915000Y-12555000D01*
X13915000Y-12525000D02*
X13885000Y-12555000D01*
X14085000Y-8385000D02*
X14115000Y-8415000D01*
X14115000Y-8385000D02*
X14085000Y-8415000D01*
X14160000Y-10910000D02*
X14190000Y-10940000D01*
X14190000Y-10910000D02*
X14160000Y-10940000D01*
X14485000Y-11595000D02*
X14515000Y-11625000D01*
X14515000Y-11595000D02*
X14485000Y-11625000D01*
X14985000Y-8410000D02*
X15015000Y-8440000D01*
X15015000Y-8410000D02*
X14985000Y-8440000D01*
X14985000Y-8485000D02*
X15015000Y-8515000D01*
X15015000Y-8485000D02*
X14985000Y-8515000D01*
X15060000Y-8410000D02*
X15090000Y-8440000D01*
X15090000Y-8410000D02*
X15060000Y-8440000D01*
X15060000Y-8485000D02*
X15090000Y-8515000D01*
X15090000Y-8485000D02*
X15060000Y-8515000D01*
X15335000Y-11645000D02*
X15365000Y-11675000D01*
X15365000Y-11645000D02*
X15335000Y-11675000D01*
X15485831Y-11670814D02*
X15515831Y-11700814D01*
X15515831Y-11670814D02*
X15485831Y-11700814D01*
X16135000Y-4125000D02*
X16165000Y-4155000D01*
X16165000Y-4125000D02*
X16135000Y-4155000D01*
X16340773Y-11672573D02*
X16370773Y-11702573D01*
X16370773Y-11672573D02*
X16340773Y-11702573D01*
X17135000Y-4635000D02*
X17165000Y-4665000D01*
X17165000Y-4635000D02*
X17135000Y-4665000D01*
X17135000Y-8085000D02*
X17165000Y-8115000D01*
X17165000Y-8085000D02*
X17135000Y-8115000D01*
X17260000Y-5260000D02*
X17290000Y-5290000D01*
X17290000Y-5260000D02*
X17260000Y-5290000D01*
X17285000Y-8085000D02*
X17315000Y-8115000D01*
X17315000Y-8085000D02*
X17285000Y-8115000D01*
X17285000Y-8185000D02*
X17315000Y-8215000D01*
X17315000Y-8185000D02*
X17285000Y-8215000D01*
X17385000Y-8085000D02*
X17415000Y-8115000D01*
X17415000Y-8085000D02*
X17385000Y-8115000D01*
X17385000Y-8185000D02*
X17415000Y-8215000D01*
X17415000Y-8185000D02*
X17385000Y-8215000D01*
X17410000Y-4735000D02*
X17440000Y-4765000D01*
X17440000Y-4735000D02*
X17410000Y-4765000D01*
X17599100Y-6960000D02*
X17629100Y-6990000D01*
X17629100Y-6960000D02*
X17599100Y-6990000D01*
X17635000Y-8525000D02*
X17665000Y-8555000D01*
X17665000Y-8525000D02*
X17635000Y-8555000D01*
X17635000Y-11495000D02*
X17665000Y-11525000D01*
X17665000Y-11495000D02*
X17635000Y-11525000D01*
X17785000Y-8588247D02*
X17815000Y-8618247D01*
X17815000Y-8588247D02*
X17785000Y-8618247D01*
X17885000Y-4685000D02*
X17915000Y-4715000D01*
X17915000Y-4685000D02*
X17885000Y-4715000D01*
X17885000Y-8075000D02*
X17915000Y-8105000D01*
X17915000Y-8075000D02*
X17885000Y-8105000D01*
X17960000Y-8035000D02*
X17990000Y-8065000D01*
X17990000Y-8035000D02*
X17960000Y-8065000D01*
X17971900Y-6950000D02*
X18001900Y-6980000D01*
X18001900Y-6950000D02*
X17971900Y-6980000D01*
X17971900Y-7035000D02*
X18001900Y-7065000D01*
X18001900Y-7035000D02*
X17971900Y-7065000D01*
X18010000Y-4685000D02*
X18040000Y-4715000D01*
X18040000Y-4685000D02*
X18010000Y-4715000D01*
X18060000Y-7660000D02*
X18090000Y-7690000D01*
X18090000Y-7660000D02*
X18060000Y-7690000D01*
X18160000Y-7110000D02*
X18190000Y-7140000D01*
X18190000Y-7110000D02*
X18160000Y-7140000D01*
X18160000Y-7635000D02*
X18190000Y-7665000D01*
X18190000Y-7635000D02*
X18160000Y-7665000D01*
X18235000Y-7110000D02*
X18265000Y-7140000D01*
X18265000Y-7110000D02*
X18235000Y-7140000D01*
X18460000Y-7035000D02*
X18490000Y-7065000D01*
X18490000Y-7035000D02*
X18460000Y-7065000D01*
X18485000Y-8685000D02*
X18515000Y-8715000D01*
X18515000Y-8685000D02*
X18485000Y-8715000D01*
X18489893Y-8588247D02*
X18519893Y-8618247D01*
X18519893Y-8588247D02*
X18489893Y-8618247D01*
X18532823Y-6942676D02*
X18562823Y-6972676D01*
X18562823Y-6942676D02*
X18532823Y-6972676D01*
X8490000Y-4690270D02*
G75*
G02*
X8410000Y-4690270I-40000J0D01*
G01*
X8410000Y-4690270D02*
G75*
G02*
X8490000Y-4690270I40000J0D01*
G01*
X8490000Y-5040270D02*
G75*
G02*
X8410000Y-5040270I-40000J0D01*
G01*
X8410000Y-5040270D02*
G75*
G02*
X8490000Y-5040270I40000J0D01*
G01*
X9686000Y-4921000D02*
G75*
G02*
X9606000Y-4921000I-40000J0D01*
G01*
X9606000Y-4921000D02*
G75*
G02*
X9686000Y-4921000I40000J0D01*
G01*
X9686000Y-5175000D02*
G75*
G02*
X9606000Y-5175000I-40000J0D01*
G01*
X9606000Y-5175000D02*
G75*
G02*
X9686000Y-5175000I40000J0D01*
G01*
X9940000Y-4921000D02*
G75*
G02*
X9860000Y-4921000I-40000J0D01*
G01*
X9860000Y-4921000D02*
G75*
G02*
X9940000Y-4921000I40000J0D01*
G01*
X9940000Y-5175000D02*
G75*
G02*
X9860000Y-5175000I-40000J0D01*
G01*
X9860000Y-5175000D02*
G75*
G02*
X9940000Y-5175000I40000J0D01*
G01*
X18936000Y-4823000D02*
G75*
G02*
X18856000Y-4823000I-40000J0D01*
G01*
X18856000Y-4823000D02*
G75*
G02*
X18936000Y-4823000I40000J0D01*
G01*
X18936000Y-5077000D02*
G75*
G02*
X18856000Y-5077000I-40000J0D01*
G01*
X18856000Y-5077000D02*
G75*
G02*
X18936000Y-5077000I40000J0D01*
G01*
X19190000Y-4825000D02*
G75*
G02*
X19110000Y-4825000I-40000J0D01*
G01*
X19110000Y-4825000D02*
G75*
G02*
X19190000Y-4825000I40000J0D01*
G01*
X19190000Y-5079000D02*
G75*
G02*
X19110000Y-5079000I-40000J0D01*
G01*
X19110000Y-5079000D02*
G75*
G02*
X19190000Y-5079000I40000J0D01*
G01*
X6775000Y-3975000D02*
X6775000Y-4075000D01*
X6725000Y-4025000D02*
X6825000Y-4025000D01*
X7029000Y-3975000D02*
X7029000Y-4075000D01*
X6979000Y-4025000D02*
X7079000Y-4025000D01*
X7283000Y-3975000D02*
X7283000Y-4075000D01*
X7233000Y-4025000D02*
X7333000Y-4025000D01*
X7537000Y-3975000D02*
X7537000Y-4075000D01*
X7487000Y-4025000D02*
X7587000Y-4025000D01*
X7620000Y-4649000D02*
X7620000Y-4749000D01*
X7570000Y-4699000D02*
X7670000Y-4699000D01*
X7620000Y-5093500D02*
X7620000Y-5193500D01*
X7570000Y-5143500D02*
X7670000Y-5143500D01*
X7620000Y-5538000D02*
X7620000Y-5638000D01*
X7570000Y-5588000D02*
X7670000Y-5588000D01*
X7620000Y-5919000D02*
X7620000Y-6019000D01*
X7570000Y-5969000D02*
X7670000Y-5969000D01*
X7620000Y-6363500D02*
X7620000Y-6463500D01*
X7570000Y-6413500D02*
X7670000Y-6413500D01*
X8381500Y-5665000D02*
X8381500Y-5765000D01*
X8331500Y-5715000D02*
X8431500Y-5715000D01*
X8381500Y-12015000D02*
X8381500Y-12115000D01*
X8331500Y-12065000D02*
X8431500Y-12065000D01*
X8635500Y-5665000D02*
X8635500Y-5765000D01*
X8585500Y-5715000D02*
X8685500Y-5715000D01*
X8635500Y-12015000D02*
X8635500Y-12115000D01*
X8585500Y-12065000D02*
X8685500Y-12065000D01*
X9497500Y-8320000D02*
X9497500Y-8420000D01*
X9447500Y-8370000D02*
X9547500Y-8370000D01*
X9497500Y-8574000D02*
X9497500Y-8674000D01*
X9447500Y-8624000D02*
X9547500Y-8624000D01*
X9497500Y-8828000D02*
X9497500Y-8928000D01*
X9447500Y-8878000D02*
X9547500Y-8878000D01*
X9497500Y-9082000D02*
X9497500Y-9182000D01*
X9447500Y-9132000D02*
X9547500Y-9132000D01*
X10541000Y-3506000D02*
X10541000Y-3606000D01*
X10491000Y-3556000D02*
X10591000Y-3556000D01*
X10541000Y-4776000D02*
X10541000Y-4876000D01*
X10491000Y-4826000D02*
X10591000Y-4826000D01*
X10795000Y-3506000D02*
X10795000Y-3606000D01*
X10745000Y-3556000D02*
X10845000Y-3556000D01*
X10795000Y-4776000D02*
X10795000Y-4876000D01*
X10745000Y-4826000D02*
X10845000Y-4826000D01*
X11049000Y-3506000D02*
X11049000Y-3606000D01*
X10999000Y-3556000D02*
X11099000Y-3556000D01*
X11049000Y-4776000D02*
X11049000Y-4876000D01*
X10999000Y-4826000D02*
X11099000Y-4826000D01*
X11175500Y-11761000D02*
X11175500Y-11861000D01*
X11125500Y-11811000D02*
X11225500Y-11811000D01*
X11175500Y-12015000D02*
X11175500Y-12115000D01*
X11125500Y-12065000D02*
X11225500Y-12065000D01*
X11177500Y-5665000D02*
X11177500Y-5765000D01*
X11127500Y-5715000D02*
X11227500Y-5715000D01*
X11177500Y-5919000D02*
X11177500Y-6019000D01*
X11127500Y-5969000D02*
X11227500Y-5969000D01*
X11277100Y-6427000D02*
X11277100Y-6527000D01*
X11227100Y-6477000D02*
X11327100Y-6477000D01*
X11277100Y-6681000D02*
X11277100Y-6781000D01*
X11227100Y-6731000D02*
X11327100Y-6731000D01*
X11303000Y-3506000D02*
X11303000Y-3606000D01*
X11253000Y-3556000D02*
X11353000Y-3556000D01*
X11303000Y-4776000D02*
X11303000Y-4876000D01*
X11253000Y-4826000D02*
X11353000Y-4826000D01*
X11429500Y-11761000D02*
X11429500Y-11861000D01*
X11379500Y-11811000D02*
X11479500Y-11811000D01*
X11429500Y-12015000D02*
X11429500Y-12115000D01*
X11379500Y-12065000D02*
X11479500Y-12065000D01*
X11431500Y-5665000D02*
X11431500Y-5765000D01*
X11381500Y-5715000D02*
X11481500Y-5715000D01*
X11431500Y-5919000D02*
X11431500Y-6019000D01*
X11381500Y-5969000D02*
X11481500Y-5969000D01*
X11531100Y-6427000D02*
X11531100Y-6527000D01*
X11481100Y-6477000D02*
X11581100Y-6477000D01*
X11531100Y-6681000D02*
X11531100Y-6781000D01*
X11481100Y-6731000D02*
X11581100Y-6731000D01*
X11557000Y-3506000D02*
X11557000Y-3606000D01*
X11507000Y-3556000D02*
X11607000Y-3556000D01*
X11557000Y-4776000D02*
X11557000Y-4876000D01*
X11507000Y-4826000D02*
X11607000Y-4826000D01*
X11683500Y-11761000D02*
X11683500Y-11861000D01*
X11633500Y-11811000D02*
X11733500Y-11811000D01*
X11683500Y-12015000D02*
X11683500Y-12115000D01*
X11633500Y-12065000D02*
X11733500Y-12065000D01*
X11685500Y-5665000D02*
X11685500Y-5765000D01*
X11635500Y-5715000D02*
X11735500Y-5715000D01*
X11685500Y-5919000D02*
X11685500Y-6019000D01*
X11635500Y-5969000D02*
X11735500Y-5969000D01*
X11785100Y-6427000D02*
X11785100Y-6527000D01*
X11735100Y-6477000D02*
X11835100Y-6477000D01*
X11785100Y-6681000D02*
X11785100Y-6781000D01*
X11735100Y-6731000D02*
X11835100Y-6731000D01*
X11811000Y-3506000D02*
X11811000Y-3606000D01*
X11761000Y-3556000D02*
X11861000Y-3556000D01*
X11811000Y-4776000D02*
X11811000Y-4876000D01*
X11761000Y-4826000D02*
X11861000Y-4826000D01*
X11937500Y-11761000D02*
X11937500Y-11861000D01*
X11887500Y-11811000D02*
X11987500Y-11811000D01*
X11937500Y-12015000D02*
X11937500Y-12115000D01*
X11887500Y-12065000D02*
X11987500Y-12065000D01*
X11939500Y-5665000D02*
X11939500Y-5765000D01*
X11889500Y-5715000D02*
X11989500Y-5715000D01*
X11939500Y-5919000D02*
X11939500Y-6019000D01*
X11889500Y-5969000D02*
X11989500Y-5969000D01*
X12039100Y-6427000D02*
X12039100Y-6527000D01*
X11989100Y-6477000D02*
X12089100Y-6477000D01*
X12039100Y-6681000D02*
X12039100Y-6781000D01*
X11989100Y-6731000D02*
X12089100Y-6731000D01*
X12065000Y-3506000D02*
X12065000Y-3606000D01*
X12015000Y-3556000D02*
X12115000Y-3556000D01*
X12065000Y-4776000D02*
X12065000Y-4876000D01*
X12015000Y-4826000D02*
X12115000Y-4826000D01*
X12191500Y-10999000D02*
X12191500Y-11099000D01*
X12141500Y-11049000D02*
X12241500Y-11049000D01*
X12191500Y-11253000D02*
X12191500Y-11353000D01*
X12141500Y-11303000D02*
X12241500Y-11303000D01*
X12191500Y-11761000D02*
X12191500Y-11861000D01*
X12141500Y-11811000D02*
X12241500Y-11811000D01*
X12191500Y-12015000D02*
X12191500Y-12115000D01*
X12141500Y-12065000D02*
X12241500Y-12065000D01*
X12193500Y-5665000D02*
X12193500Y-5765000D01*
X12143500Y-5715000D02*
X12243500Y-5715000D01*
X12193500Y-5919000D02*
X12193500Y-6019000D01*
X12143500Y-5969000D02*
X12243500Y-5969000D01*
X12293100Y-6427000D02*
X12293100Y-6527000D01*
X12243100Y-6477000D02*
X12343100Y-6477000D01*
X12293100Y-6681000D02*
X12293100Y-6781000D01*
X12243100Y-6731000D02*
X12343100Y-6731000D01*
X12319000Y-3506000D02*
X12319000Y-3606000D01*
X12269000Y-3556000D02*
X12369000Y-3556000D01*
X12319000Y-4776000D02*
X12319000Y-4876000D01*
X12269000Y-4826000D02*
X12369000Y-4826000D01*
X12445500Y-10999000D02*
X12445500Y-11099000D01*
X12395500Y-11049000D02*
X12495500Y-11049000D01*
X12445500Y-11253000D02*
X12445500Y-11353000D01*
X12395500Y-11303000D02*
X12495500Y-11303000D01*
X12445500Y-11761000D02*
X12445500Y-11861000D01*
X12395500Y-11811000D02*
X12495500Y-11811000D01*
X12445500Y-12015000D02*
X12445500Y-12115000D01*
X12395500Y-12065000D02*
X12495500Y-12065000D01*
X12447500Y-5665000D02*
X12447500Y-5765000D01*
X12397500Y-5715000D02*
X12497500Y-5715000D01*
X12447500Y-5919000D02*
X12447500Y-6019000D01*
X12397500Y-5969000D02*
X12497500Y-5969000D01*
X12547100Y-6427000D02*
X12547100Y-6527000D01*
X12497100Y-6477000D02*
X12597100Y-6477000D01*
X12547100Y-6681000D02*
X12547100Y-6781000D01*
X12497100Y-6731000D02*
X12597100Y-6731000D01*
X12699500Y-10999000D02*
X12699500Y-11099000D01*
X12649500Y-11049000D02*
X12749500Y-11049000D01*
X12699500Y-11253000D02*
X12699500Y-11353000D01*
X12649500Y-11303000D02*
X12749500Y-11303000D01*
X12699500Y-11761000D02*
X12699500Y-11861000D01*
X12649500Y-11811000D02*
X12749500Y-11811000D01*
X12699500Y-12015000D02*
X12699500Y-12115000D01*
X12649500Y-12065000D02*
X12749500Y-12065000D01*
X12701500Y-5665000D02*
X12701500Y-5765000D01*
X12651500Y-5715000D02*
X12751500Y-5715000D01*
X12701500Y-5919000D02*
X12701500Y-6019000D01*
X12651500Y-5969000D02*
X12751500Y-5969000D01*
X12801100Y-6427000D02*
X12801100Y-6527000D01*
X12751100Y-6477000D02*
X12851100Y-6477000D01*
X12801100Y-6681000D02*
X12801100Y-6781000D01*
X12751100Y-6731000D02*
X12851100Y-6731000D01*
X12953500Y-10999000D02*
X12953500Y-11099000D01*
X12903500Y-11049000D02*
X13003500Y-11049000D01*
X12953500Y-11253000D02*
X12953500Y-11353000D01*
X12903500Y-11303000D02*
X13003500Y-11303000D01*
X12953500Y-11761000D02*
X12953500Y-11861000D01*
X12903500Y-11811000D02*
X13003500Y-11811000D01*
X12953500Y-12015000D02*
X12953500Y-12115000D01*
X12903500Y-12065000D02*
X13003500Y-12065000D01*
X12955500Y-5665000D02*
X12955500Y-5765000D01*
X12905500Y-5715000D02*
X13005500Y-5715000D01*
X12955500Y-5919000D02*
X12955500Y-6019000D01*
X12905500Y-5969000D02*
X13005500Y-5969000D01*
X12975000Y-4425000D02*
X12975000Y-4525000D01*
X12925000Y-4475000D02*
X13025000Y-4475000D01*
X12975000Y-4679000D02*
X12975000Y-4779000D01*
X12925000Y-4729000D02*
X13025000Y-4729000D01*
X12975000Y-4933000D02*
X12975000Y-5033000D01*
X12925000Y-4983000D02*
X13025000Y-4983000D01*
X13055100Y-6427000D02*
X13055100Y-6527000D01*
X13005100Y-6477000D02*
X13105100Y-6477000D01*
X13055100Y-6681000D02*
X13055100Y-6781000D01*
X13005100Y-6731000D02*
X13105100Y-6731000D01*
X13207500Y-10999000D02*
X13207500Y-11099000D01*
X13157500Y-11049000D02*
X13257500Y-11049000D01*
X13207500Y-11253000D02*
X13207500Y-11353000D01*
X13157500Y-11303000D02*
X13257500Y-11303000D01*
X13207500Y-11761000D02*
X13207500Y-11861000D01*
X13157500Y-11811000D02*
X13257500Y-11811000D01*
X13207500Y-12015000D02*
X13207500Y-12115000D01*
X13157500Y-12065000D02*
X13257500Y-12065000D01*
X13209500Y-5665000D02*
X13209500Y-5765000D01*
X13159500Y-5715000D02*
X13259500Y-5715000D01*
X13209500Y-5919000D02*
X13209500Y-6019000D01*
X13159500Y-5969000D02*
X13259500Y-5969000D01*
X13229000Y-4425000D02*
X13229000Y-4525000D01*
X13179000Y-4475000D02*
X13279000Y-4475000D01*
X13229000Y-4679000D02*
X13229000Y-4779000D01*
X13179000Y-4729000D02*
X13279000Y-4729000D01*
X13229000Y-4933000D02*
X13229000Y-5033000D01*
X13179000Y-4983000D02*
X13279000Y-4983000D01*
X13309100Y-6427000D02*
X13309100Y-6527000D01*
X13259100Y-6477000D02*
X13359100Y-6477000D01*
X13309100Y-6681000D02*
X13309100Y-6781000D01*
X13259100Y-6731000D02*
X13359100Y-6731000D01*
X13461500Y-10999000D02*
X13461500Y-11099000D01*
X13411500Y-11049000D02*
X13511500Y-11049000D01*
X13461500Y-11253000D02*
X13461500Y-11353000D01*
X13411500Y-11303000D02*
X13511500Y-11303000D01*
X13461500Y-11761000D02*
X13461500Y-11861000D01*
X13411500Y-11811000D02*
X13511500Y-11811000D01*
X13461500Y-12015000D02*
X13461500Y-12115000D01*
X13411500Y-12065000D02*
X13511500Y-12065000D01*
X13463500Y-5665000D02*
X13463500Y-5765000D01*
X13413500Y-5715000D02*
X13513500Y-5715000D01*
X13463500Y-5919000D02*
X13463500Y-6019000D01*
X13413500Y-5969000D02*
X13513500Y-5969000D01*
X13483000Y-4425000D02*
X13483000Y-4525000D01*
X13433000Y-4475000D02*
X13533000Y-4475000D01*
X13483000Y-4679000D02*
X13483000Y-4779000D01*
X13433000Y-4729000D02*
X13533000Y-4729000D01*
X13483000Y-4933000D02*
X13483000Y-5033000D01*
X13433000Y-4983000D02*
X13533000Y-4983000D01*
X13563100Y-6427000D02*
X13563100Y-6527000D01*
X13513100Y-6477000D02*
X13613100Y-6477000D01*
X13563100Y-6681000D02*
X13563100Y-6781000D01*
X13513100Y-6731000D02*
X13613100Y-6731000D01*
X13715500Y-10999000D02*
X13715500Y-11099000D01*
X13665500Y-11049000D02*
X13765500Y-11049000D01*
X13715500Y-11253000D02*
X13715500Y-11353000D01*
X13665500Y-11303000D02*
X13765500Y-11303000D01*
X13715500Y-11761000D02*
X13715500Y-11861000D01*
X13665500Y-11811000D02*
X13765500Y-11811000D01*
X13715500Y-12015000D02*
X13715500Y-12115000D01*
X13665500Y-12065000D02*
X13765500Y-12065000D01*
X13717500Y-5665000D02*
X13717500Y-5765000D01*
X13667500Y-5715000D02*
X13767500Y-5715000D01*
X13717500Y-5919000D02*
X13717500Y-6019000D01*
X13667500Y-5969000D02*
X13767500Y-5969000D01*
X13737000Y-4425000D02*
X13737000Y-4525000D01*
X13687000Y-4475000D02*
X13787000Y-4475000D01*
X13737000Y-4679000D02*
X13737000Y-4779000D01*
X13687000Y-4729000D02*
X13787000Y-4729000D01*
X13737000Y-4933000D02*
X13737000Y-5033000D01*
X13687000Y-4983000D02*
X13787000Y-4983000D01*
X13969500Y-6427000D02*
X13969500Y-6527000D01*
X13919500Y-6477000D02*
X14019500Y-6477000D01*
X13969500Y-6681000D02*
X13969500Y-6781000D01*
X13919500Y-6731000D02*
X14019500Y-6731000D01*
X13969500Y-10999000D02*
X13969500Y-11099000D01*
X13919500Y-11049000D02*
X14019500Y-11049000D01*
X13969500Y-11253000D02*
X13969500Y-11353000D01*
X13919500Y-11303000D02*
X14019500Y-11303000D01*
X13969500Y-11761000D02*
X13969500Y-11861000D01*
X13919500Y-11811000D02*
X14019500Y-11811000D01*
X13969500Y-12015000D02*
X13969500Y-12115000D01*
X13919500Y-12065000D02*
X14019500Y-12065000D01*
X13971500Y-5665000D02*
X13971500Y-5765000D01*
X13921500Y-5715000D02*
X14021500Y-5715000D01*
X13971500Y-5919000D02*
X13971500Y-6019000D01*
X13921500Y-5969000D02*
X14021500Y-5969000D01*
X13991000Y-4425000D02*
X13991000Y-4525000D01*
X13941000Y-4475000D02*
X14041000Y-4475000D01*
X13991000Y-4679000D02*
X13991000Y-4779000D01*
X13941000Y-4729000D02*
X14041000Y-4729000D01*
X13991000Y-4933000D02*
X13991000Y-5033000D01*
X13941000Y-4983000D02*
X14041000Y-4983000D01*
X14223500Y-6427000D02*
X14223500Y-6527000D01*
X14173500Y-6477000D02*
X14273500Y-6477000D01*
X14223500Y-6681000D02*
X14223500Y-6781000D01*
X14173500Y-6731000D02*
X14273500Y-6731000D01*
X14223500Y-11761000D02*
X14223500Y-11861000D01*
X14173500Y-11811000D02*
X14273500Y-11811000D01*
X14223500Y-12015000D02*
X14223500Y-12115000D01*
X14173500Y-12065000D02*
X14273500Y-12065000D01*
X14225500Y-5665000D02*
X14225500Y-5765000D01*
X14175500Y-5715000D02*
X14275500Y-5715000D01*
X14225500Y-5919000D02*
X14225500Y-6019000D01*
X14175500Y-5969000D02*
X14275500Y-5969000D01*
X14245000Y-4425000D02*
X14245000Y-4525000D01*
X14195000Y-4475000D02*
X14295000Y-4475000D01*
X14245000Y-4679000D02*
X14245000Y-4779000D01*
X14195000Y-4729000D02*
X14295000Y-4729000D01*
X14245000Y-4933000D02*
X14245000Y-5033000D01*
X14195000Y-4983000D02*
X14295000Y-4983000D01*
X14477500Y-6427000D02*
X14477500Y-6527000D01*
X14427500Y-6477000D02*
X14527500Y-6477000D01*
X14477500Y-6681000D02*
X14477500Y-6781000D01*
X14427500Y-6731000D02*
X14527500Y-6731000D01*
X14477500Y-10999000D02*
X14477500Y-11099000D01*
X14427500Y-11049000D02*
X14527500Y-11049000D01*
X14477500Y-11253000D02*
X14477500Y-11353000D01*
X14427500Y-11303000D02*
X14527500Y-11303000D01*
X14477500Y-11761000D02*
X14477500Y-11861000D01*
X14427500Y-11811000D02*
X14527500Y-11811000D01*
X14477500Y-12015000D02*
X14477500Y-12115000D01*
X14427500Y-12065000D02*
X14527500Y-12065000D01*
X14479500Y-5665000D02*
X14479500Y-5765000D01*
X14429500Y-5715000D02*
X14529500Y-5715000D01*
X14479500Y-5919000D02*
X14479500Y-6019000D01*
X14429500Y-5969000D02*
X14529500Y-5969000D01*
X14499000Y-4425000D02*
X14499000Y-4525000D01*
X14449000Y-4475000D02*
X14549000Y-4475000D01*
X14499000Y-4679000D02*
X14499000Y-4779000D01*
X14449000Y-4729000D02*
X14549000Y-4729000D01*
X14499000Y-4933000D02*
X14499000Y-5033000D01*
X14449000Y-4983000D02*
X14549000Y-4983000D01*
X14731500Y-6427000D02*
X14731500Y-6527000D01*
X14681500Y-6477000D02*
X14781500Y-6477000D01*
X14731500Y-6681000D02*
X14731500Y-6781000D01*
X14681500Y-6731000D02*
X14781500Y-6731000D01*
X14731500Y-10999000D02*
X14731500Y-11099000D01*
X14681500Y-11049000D02*
X14781500Y-11049000D01*
X14731500Y-11253000D02*
X14731500Y-11353000D01*
X14681500Y-11303000D02*
X14781500Y-11303000D01*
X14731500Y-11761000D02*
X14731500Y-11861000D01*
X14681500Y-11811000D02*
X14781500Y-11811000D01*
X14731500Y-12015000D02*
X14731500Y-12115000D01*
X14681500Y-12065000D02*
X14781500Y-12065000D01*
X14733500Y-5665000D02*
X14733500Y-5765000D01*
X14683500Y-5715000D02*
X14783500Y-5715000D01*
X14733500Y-5919000D02*
X14733500Y-6019000D01*
X14683500Y-5969000D02*
X14783500Y-5969000D01*
X14753000Y-4425000D02*
X14753000Y-4525000D01*
X14703000Y-4475000D02*
X14803000Y-4475000D01*
X14753000Y-4679000D02*
X14753000Y-4779000D01*
X14703000Y-4729000D02*
X14803000Y-4729000D01*
X14753000Y-4933000D02*
X14753000Y-5033000D01*
X14703000Y-4983000D02*
X14803000Y-4983000D01*
X14985500Y-6427000D02*
X14985500Y-6527000D01*
X14935500Y-6477000D02*
X15035500Y-6477000D01*
X14985500Y-6681000D02*
X14985500Y-6781000D01*
X14935500Y-6731000D02*
X15035500Y-6731000D01*
X14985500Y-10999000D02*
X14985500Y-11099000D01*
X14935500Y-11049000D02*
X15035500Y-11049000D01*
X14985500Y-11253000D02*
X14985500Y-11353000D01*
X14935500Y-11303000D02*
X15035500Y-11303000D01*
X14985500Y-11761000D02*
X14985500Y-11861000D01*
X14935500Y-11811000D02*
X15035500Y-11811000D01*
X14985500Y-12015000D02*
X14985500Y-12115000D01*
X14935500Y-12065000D02*
X15035500Y-12065000D01*
X14987500Y-5665000D02*
X14987500Y-5765000D01*
X14937500Y-5715000D02*
X15037500Y-5715000D01*
X14987500Y-5919000D02*
X14987500Y-6019000D01*
X14937500Y-5969000D02*
X15037500Y-5969000D01*
X15007000Y-4425000D02*
X15007000Y-4525000D01*
X14957000Y-4475000D02*
X15057000Y-4475000D01*
X15007000Y-4679000D02*
X15007000Y-4779000D01*
X14957000Y-4729000D02*
X15057000Y-4729000D01*
X15007000Y-4933000D02*
X15007000Y-5033000D01*
X14957000Y-4983000D02*
X15057000Y-4983000D01*
X15239500Y-6427000D02*
X15239500Y-6527000D01*
X15189500Y-6477000D02*
X15289500Y-6477000D01*
X15239500Y-6681000D02*
X15239500Y-6781000D01*
X15189500Y-6731000D02*
X15289500Y-6731000D01*
X15239500Y-10999000D02*
X15239500Y-11099000D01*
X15189500Y-11049000D02*
X15289500Y-11049000D01*
X15239500Y-11253000D02*
X15239500Y-11353000D01*
X15189500Y-11303000D02*
X15289500Y-11303000D01*
X15239500Y-11761000D02*
X15239500Y-11861000D01*
X15189500Y-11811000D02*
X15289500Y-11811000D01*
X15239500Y-12015000D02*
X15239500Y-12115000D01*
X15189500Y-12065000D02*
X15289500Y-12065000D01*
X15241500Y-5665000D02*
X15241500Y-5765000D01*
X15191500Y-5715000D02*
X15291500Y-5715000D01*
X15241500Y-5919000D02*
X15241500Y-6019000D01*
X15191500Y-5969000D02*
X15291500Y-5969000D01*
X15261000Y-4425000D02*
X15261000Y-4525000D01*
X15211000Y-4475000D02*
X15311000Y-4475000D01*
X15261000Y-4679000D02*
X15261000Y-4779000D01*
X15211000Y-4729000D02*
X15311000Y-4729000D01*
X15261000Y-4933000D02*
X15261000Y-5033000D01*
X15211000Y-4983000D02*
X15311000Y-4983000D01*
X15493500Y-6427000D02*
X15493500Y-6527000D01*
X15443500Y-6477000D02*
X15543500Y-6477000D01*
X15493500Y-6681000D02*
X15493500Y-6781000D01*
X15443500Y-6731000D02*
X15543500Y-6731000D01*
X15493500Y-10999000D02*
X15493500Y-11099000D01*
X15443500Y-11049000D02*
X15543500Y-11049000D01*
X15493500Y-11253000D02*
X15493500Y-11353000D01*
X15443500Y-11303000D02*
X15543500Y-11303000D01*
X15493500Y-11761000D02*
X15493500Y-11861000D01*
X15443500Y-11811000D02*
X15543500Y-11811000D01*
X15493500Y-12015000D02*
X15493500Y-12115000D01*
X15443500Y-12065000D02*
X15543500Y-12065000D01*
X15495500Y-5665000D02*
X15495500Y-5765000D01*
X15445500Y-5715000D02*
X15545500Y-5715000D01*
X15495500Y-5919000D02*
X15495500Y-6019000D01*
X15445500Y-5969000D02*
X15545500Y-5969000D01*
X15515000Y-4425000D02*
X15515000Y-4525000D01*
X15465000Y-4475000D02*
X15565000Y-4475000D01*
X15515000Y-4679000D02*
X15515000Y-4779000D01*
X15465000Y-4729000D02*
X15565000Y-4729000D01*
X15515000Y-4933000D02*
X15515000Y-5033000D01*
X15465000Y-4983000D02*
X15565000Y-4983000D01*
X15747500Y-6427000D02*
X15747500Y-6527000D01*
X15697500Y-6477000D02*
X15797500Y-6477000D01*
X15747500Y-6681000D02*
X15747500Y-6781000D01*
X15697500Y-6731000D02*
X15797500Y-6731000D01*
X15747500Y-10999000D02*
X15747500Y-11099000D01*
X15697500Y-11049000D02*
X15797500Y-11049000D01*
X15747500Y-11253000D02*
X15747500Y-11353000D01*
X15697500Y-11303000D02*
X15797500Y-11303000D01*
X15747500Y-11761000D02*
X15747500Y-11861000D01*
X15697500Y-11811000D02*
X15797500Y-11811000D01*
X15747500Y-12015000D02*
X15747500Y-12115000D01*
X15697500Y-12065000D02*
X15797500Y-12065000D01*
X15749500Y-5665000D02*
X15749500Y-5765000D01*
X15699500Y-5715000D02*
X15799500Y-5715000D01*
X15749500Y-5919000D02*
X15749500Y-6019000D01*
X15699500Y-5969000D02*
X15799500Y-5969000D01*
X15769000Y-4425000D02*
X15769000Y-4525000D01*
X15719000Y-4475000D02*
X15819000Y-4475000D01*
X15769000Y-4679000D02*
X15769000Y-4779000D01*
X15719000Y-4729000D02*
X15819000Y-4729000D01*
X15769000Y-4933000D02*
X15769000Y-5033000D01*
X15719000Y-4983000D02*
X15819000Y-4983000D01*
X16001500Y-6427000D02*
X16001500Y-6527000D01*
X15951500Y-6477000D02*
X16051500Y-6477000D01*
X16001500Y-6681000D02*
X16001500Y-6781000D01*
X15951500Y-6731000D02*
X16051500Y-6731000D01*
X16001500Y-10999000D02*
X16001500Y-11099000D01*
X15951500Y-11049000D02*
X16051500Y-11049000D01*
X16001500Y-11253000D02*
X16001500Y-11353000D01*
X15951500Y-11303000D02*
X16051500Y-11303000D01*
X16001500Y-11761000D02*
X16001500Y-11861000D01*
X15951500Y-11811000D02*
X16051500Y-11811000D01*
X16001500Y-12015000D02*
X16001500Y-12115000D01*
X15951500Y-12065000D02*
X16051500Y-12065000D01*
X16003500Y-5665000D02*
X16003500Y-5765000D01*
X15953500Y-5715000D02*
X16053500Y-5715000D01*
X16003500Y-5919000D02*
X16003500Y-6019000D01*
X15953500Y-5969000D02*
X16053500Y-5969000D01*
X16023000Y-4425000D02*
X16023000Y-4525000D01*
X15973000Y-4475000D02*
X16073000Y-4475000D01*
X16023000Y-4679000D02*
X16023000Y-4779000D01*
X15973000Y-4729000D02*
X16073000Y-4729000D01*
X16023000Y-4933000D02*
X16023000Y-5033000D01*
X15973000Y-4983000D02*
X16073000Y-4983000D01*
X16255500Y-6427000D02*
X16255500Y-6527000D01*
X16205500Y-6477000D02*
X16305500Y-6477000D01*
X16255500Y-6681000D02*
X16255500Y-6781000D01*
X16205500Y-6731000D02*
X16305500Y-6731000D01*
X16255500Y-10999000D02*
X16255500Y-11099000D01*
X16205500Y-11049000D02*
X16305500Y-11049000D01*
X16255500Y-11253000D02*
X16255500Y-11353000D01*
X16205500Y-11303000D02*
X16305500Y-11303000D01*
X16255500Y-11761000D02*
X16255500Y-11861000D01*
X16205500Y-11811000D02*
X16305500Y-11811000D01*
X16255500Y-12015000D02*
X16255500Y-12115000D01*
X16205500Y-12065000D02*
X16305500Y-12065000D01*
X16257500Y-5665000D02*
X16257500Y-5765000D01*
X16207500Y-5715000D02*
X16307500Y-5715000D01*
X16257500Y-5919000D02*
X16257500Y-6019000D01*
X16207500Y-5969000D02*
X16307500Y-5969000D01*
X16509500Y-6427000D02*
X16509500Y-6527000D01*
X16459500Y-6477000D02*
X16559500Y-6477000D01*
X16509500Y-6681000D02*
X16509500Y-6781000D01*
X16459500Y-6731000D02*
X16559500Y-6731000D01*
X16509500Y-10999000D02*
X16509500Y-11099000D01*
X16459500Y-11049000D02*
X16559500Y-11049000D01*
X16509500Y-11253000D02*
X16509500Y-11353000D01*
X16459500Y-11303000D02*
X16559500Y-11303000D01*
X16509500Y-11761000D02*
X16509500Y-11861000D01*
X16459500Y-11811000D02*
X16559500Y-11811000D01*
X16509500Y-12015000D02*
X16509500Y-12115000D01*
X16459500Y-12065000D02*
X16559500Y-12065000D01*
X16511500Y-5665000D02*
X16511500Y-5765000D01*
X16461500Y-5715000D02*
X16561500Y-5715000D01*
X16511500Y-5919000D02*
X16511500Y-6019000D01*
X16461500Y-5969000D02*
X16561500Y-5969000D01*
X16763500Y-6427000D02*
X16763500Y-6527000D01*
X16713500Y-6477000D02*
X16813500Y-6477000D01*
X16763500Y-6681000D02*
X16763500Y-6781000D01*
X16713500Y-6731000D02*
X16813500Y-6731000D01*
X16763500Y-10999000D02*
X16763500Y-11099000D01*
X16713500Y-11049000D02*
X16813500Y-11049000D01*
X16763500Y-11253000D02*
X16763500Y-11353000D01*
X16713500Y-11303000D02*
X16813500Y-11303000D01*
X16763500Y-11761000D02*
X16763500Y-11861000D01*
X16713500Y-11811000D02*
X16813500Y-11811000D01*
X16763500Y-12015000D02*
X16763500Y-12115000D01*
X16713500Y-12065000D02*
X16813500Y-12065000D01*
X16765500Y-5665000D02*
X16765500Y-5765000D01*
X16715500Y-5715000D02*
X16815500Y-5715000D01*
X16765500Y-5919000D02*
X16765500Y-6019000D01*
X16715500Y-5969000D02*
X16815500Y-5969000D01*
X17017500Y-6427000D02*
X17017500Y-6527000D01*
X16967500Y-6477000D02*
X17067500Y-6477000D01*
X17017500Y-6681000D02*
X17017500Y-6781000D01*
X16967500Y-6731000D02*
X17067500Y-6731000D01*
X17017500Y-10999000D02*
X17017500Y-11099000D01*
X16967500Y-11049000D02*
X17067500Y-11049000D01*
X17017500Y-11253000D02*
X17017500Y-11353000D01*
X16967500Y-11303000D02*
X17067500Y-11303000D01*
X17017500Y-11761000D02*
X17017500Y-11861000D01*
X16967500Y-11811000D02*
X17067500Y-11811000D01*
X17017500Y-12015000D02*
X17017500Y-12115000D01*
X16967500Y-12065000D02*
X17067500Y-12065000D01*
X17019500Y-5665000D02*
X17019500Y-5765000D01*
X16969500Y-5715000D02*
X17069500Y-5715000D01*
X17019500Y-5919000D02*
X17019500Y-6019000D01*
X16969500Y-5969000D02*
X17069500Y-5969000D01*
X17271500Y-6427000D02*
X17271500Y-6527000D01*
X17221500Y-6477000D02*
X17321500Y-6477000D01*
X17271500Y-6681000D02*
X17271500Y-6781000D01*
X17221500Y-6731000D02*
X17321500Y-6731000D01*
X17271500Y-10999000D02*
X17271500Y-11099000D01*
X17221500Y-11049000D02*
X17321500Y-11049000D01*
X17271500Y-11253000D02*
X17271500Y-11353000D01*
X17221500Y-11303000D02*
X17321500Y-11303000D01*
X17271500Y-11761000D02*
X17271500Y-11861000D01*
X17221500Y-11811000D02*
X17321500Y-11811000D01*
X17271500Y-12015000D02*
X17271500Y-12115000D01*
X17221500Y-12065000D02*
X17321500Y-12065000D01*
X17273500Y-5665000D02*
X17273500Y-5765000D01*
X17223500Y-5715000D02*
X17323500Y-5715000D01*
X17273500Y-5919000D02*
X17273500Y-6019000D01*
X17223500Y-5969000D02*
X17323500Y-5969000D01*
X17525500Y-6427000D02*
X17525500Y-6527000D01*
X17475500Y-6477000D02*
X17575500Y-6477000D01*
X17525500Y-6681000D02*
X17525500Y-6781000D01*
X17475500Y-6731000D02*
X17575500Y-6731000D01*
X17525500Y-10999000D02*
X17525500Y-11099000D01*
X17475500Y-11049000D02*
X17575500Y-11049000D01*
X17525500Y-11253000D02*
X17525500Y-11353000D01*
X17475500Y-11303000D02*
X17575500Y-11303000D01*
X17525500Y-11761000D02*
X17525500Y-11861000D01*
X17475500Y-11811000D02*
X17575500Y-11811000D01*
X17525500Y-12015000D02*
X17525500Y-12115000D01*
X17475500Y-12065000D02*
X17575500Y-12065000D01*
X17527500Y-5665000D02*
X17527500Y-5765000D01*
X17477500Y-5715000D02*
X17577500Y-5715000D01*
X17527500Y-5919000D02*
X17527500Y-6019000D01*
X17477500Y-5969000D02*
X17577500Y-5969000D01*
X17779500Y-6427000D02*
X17779500Y-6527000D01*
X17729500Y-6477000D02*
X17829500Y-6477000D01*
X17779500Y-6681000D02*
X17779500Y-6781000D01*
X17729500Y-6731000D02*
X17829500Y-6731000D01*
X17779500Y-10999000D02*
X17779500Y-11099000D01*
X17729500Y-11049000D02*
X17829500Y-11049000D01*
X17779500Y-11253000D02*
X17779500Y-11353000D01*
X17729500Y-11303000D02*
X17829500Y-11303000D01*
X17779500Y-11761000D02*
X17779500Y-11861000D01*
X17729500Y-11811000D02*
X17829500Y-11811000D01*
X17779500Y-12015000D02*
X17779500Y-12115000D01*
X17729500Y-12065000D02*
X17829500Y-12065000D01*
X17781500Y-5665000D02*
X17781500Y-5765000D01*
X17731500Y-5715000D02*
X17831500Y-5715000D01*
X17781500Y-5919000D02*
X17781500Y-6019000D01*
X17731500Y-5969000D02*
X17831500Y-5969000D01*
X18033500Y-6427000D02*
X18033500Y-6527000D01*
X17983500Y-6477000D02*
X18083500Y-6477000D01*
X18033500Y-6681000D02*
X18033500Y-6781000D01*
X17983500Y-6731000D02*
X18083500Y-6731000D01*
X18033500Y-10999000D02*
X18033500Y-11099000D01*
X17983500Y-11049000D02*
X18083500Y-11049000D01*
X18033500Y-11253000D02*
X18033500Y-11353000D01*
X17983500Y-11303000D02*
X18083500Y-11303000D01*
X18033500Y-11761000D02*
X18033500Y-11861000D01*
X17983500Y-11811000D02*
X18083500Y-11811000D01*
X18033500Y-12015000D02*
X18033500Y-12115000D01*
X17983500Y-12065000D02*
X18083500Y-12065000D01*
X18035500Y-5665000D02*
X18035500Y-5765000D01*
X17985500Y-5715000D02*
X18085500Y-5715000D01*
X18035500Y-5919000D02*
X18035500Y-6019000D01*
X17985500Y-5969000D02*
X18085500Y-5969000D01*
X18287500Y-11761000D02*
X18287500Y-11861000D01*
X18237500Y-11811000D02*
X18337500Y-11811000D01*
X18287500Y-12015000D02*
X18287500Y-12115000D01*
X18237500Y-12065000D02*
X18337500Y-12065000D01*
X18289500Y-5665000D02*
X18289500Y-5765000D01*
X18239500Y-5715000D02*
X18339500Y-5715000D01*
X18289500Y-5919000D02*
X18289500Y-6019000D01*
X18239500Y-5969000D02*
X18339500Y-5969000D01*
X18541500Y-11761000D02*
X18541500Y-11861000D01*
X18491500Y-11811000D02*
X18591500Y-11811000D01*
X18541500Y-12015000D02*
X18541500Y-12115000D01*
X18491500Y-12065000D02*
X18591500Y-12065000D01*
X18543500Y-5665000D02*
X18543500Y-5765000D01*
X18493500Y-5715000D02*
X18593500Y-5715000D01*
X18543500Y-5919000D02*
X18543500Y-6019000D01*
X18493500Y-5969000D02*
X18593500Y-5969000D01*
X18795500Y-11761000D02*
X18795500Y-11861000D01*
X18745500Y-11811000D02*
X18845500Y-11811000D01*
X18795500Y-12015000D02*
X18795500Y-12115000D01*
X18745500Y-12065000D02*
X18845500Y-12065000D01*
X18797500Y-5665000D02*
X18797500Y-5765000D01*
X18747500Y-5715000D02*
X18847500Y-5715000D01*
X18797500Y-5919000D02*
X18797500Y-6019000D01*
X18747500Y-5969000D02*
X18847500Y-5969000D01*
X19049500Y-11761000D02*
X19049500Y-11861000D01*
X18999500Y-11811000D02*
X19099500Y-11811000D01*
X19049500Y-12015000D02*
X19049500Y-12115000D01*
X18999500Y-12065000D02*
X19099500Y-12065000D01*
X19051500Y-5665000D02*
X19051500Y-5765000D01*
X19001500Y-5715000D02*
X19101500Y-5715000D01*
X19051500Y-5919000D02*
X19051500Y-6019000D01*
X19001500Y-5969000D02*
X19101500Y-5969000D01*
X19303500Y-11761000D02*
X19303500Y-11861000D01*
X19253500Y-11811000D02*
X19353500Y-11811000D01*
X19303500Y-12015000D02*
X19303500Y-12115000D01*
X19253500Y-12065000D02*
X19353500Y-12065000D01*
X19305500Y-5665000D02*
X19305500Y-5765000D01*
X19255500Y-5715000D02*
X19355500Y-5715000D01*
X19305500Y-5919000D02*
X19305500Y-6019000D01*
X19255500Y-5969000D02*
X19355500Y-5969000D01*
X19557500Y-11761000D02*
X19557500Y-11861000D01*
X19507500Y-11811000D02*
X19607500Y-11811000D01*
X19557500Y-12015000D02*
X19557500Y-12115000D01*
X19507500Y-12065000D02*
X19607500Y-12065000D01*
X19559500Y-5665000D02*
X19559500Y-5765000D01*
X19509500Y-5715000D02*
X19609500Y-5715000D01*
X19559500Y-5919000D02*
X19559500Y-6019000D01*
X19509500Y-5969000D02*
X19609500Y-5969000D01*
X19811500Y-11761000D02*
X19811500Y-11861000D01*
X19761500Y-11811000D02*
X19861500Y-11811000D01*
X19811500Y-12015000D02*
X19811500Y-12115000D01*
X19761500Y-12065000D02*
X19861500Y-12065000D01*
X19813500Y-5665000D02*
X19813500Y-5765000D01*
X19763500Y-5715000D02*
X19863500Y-5715000D01*
X19813500Y-5919000D02*
X19813500Y-6019000D01*
X19763500Y-5969000D02*
X19863500Y-5969000D01*
X19897500Y-7050000D02*
X19897500Y-7150000D01*
X19847500Y-7100000D02*
X19947500Y-7100000D01*
X19897500Y-7304000D02*
X19897500Y-7404000D01*
X19847500Y-7354000D02*
X19947500Y-7354000D01*
X19897500Y-7558000D02*
X19897500Y-7658000D01*
X19847500Y-7608000D02*
X19947500Y-7608000D01*
X19897500Y-7812000D02*
X19897500Y-7912000D01*
X19847500Y-7862000D02*
X19947500Y-7862000D01*
X19897500Y-8066000D02*
X19897500Y-8166000D01*
X19847500Y-8116000D02*
X19947500Y-8116000D01*
X19897500Y-8320000D02*
X19897500Y-8420000D01*
X19847500Y-8370000D02*
X19947500Y-8370000D01*
X19897500Y-8574000D02*
X19897500Y-8674000D01*
X19847500Y-8624000D02*
X19947500Y-8624000D01*
X19897500Y-8828000D02*
X19897500Y-8928000D01*
X19847500Y-8878000D02*
X19947500Y-8878000D01*
X19897500Y-9082000D02*
X19897500Y-9182000D01*
X19847500Y-9132000D02*
X19947500Y-9132000D01*
X19897500Y-9336000D02*
X19897500Y-9436000D01*
X19847500Y-9386000D02*
X19947500Y-9386000D01*
X19897500Y-9590000D02*
X19897500Y-9690000D01*
X19847500Y-9640000D02*
X19947500Y-9640000D01*
X19897500Y-9844000D02*
X19897500Y-9944000D01*
X19847500Y-9894000D02*
X19947500Y-9894000D01*
X19897500Y-10098000D02*
X19897500Y-10198000D01*
X19847500Y-10148000D02*
X19947500Y-10148000D01*
X19897500Y-10352000D02*
X19897500Y-10452000D01*
X19847500Y-10402000D02*
X19947500Y-10402000D01*
X20065500Y-11761000D02*
X20065500Y-11861000D01*
X20015500Y-11811000D02*
X20115500Y-11811000D01*
X20065500Y-12015000D02*
X20065500Y-12115000D01*
X20015500Y-12065000D02*
X20115500Y-12065000D01*
X20067500Y-5665000D02*
X20067500Y-5765000D01*
X20017500Y-5715000D02*
X20117500Y-5715000D01*
X20067500Y-5919000D02*
X20067500Y-6019000D01*
X20017500Y-5969000D02*
X20117500Y-5969000D01*
D13*
X6388891Y-9150391D02*
X6388891Y-9072609D01*
X6311109Y-9072609D01*
X6311109Y-9150391D01*
X6388891Y-9150391D01*
X6642891Y-9150391D02*
X6642891Y-9072609D01*
X6565109Y-9072609D01*
X6565109Y-9150391D01*
X6642891Y-9150391D01*
X6896891Y-9150391D02*
X6896891Y-9072609D01*
X6819109Y-9072609D01*
X6819109Y-9150391D01*
X6896891Y-9150391D01*
D14*
X7048500Y-13013500D02*
X7108000Y-12954000D01*
X7048500Y-12894500D01*
X6989000Y-12954000D01*
X7048500Y-13013500D01*
X7048500Y-13902500D02*
X7108000Y-13843000D01*
X7048500Y-13783500D01*
X6989000Y-13843000D01*
X7048500Y-13902500D01*
X7302500Y-13013500D02*
X7362000Y-12954000D01*
X7302500Y-12894500D01*
X7243000Y-12954000D01*
X7302500Y-13013500D01*
X7302500Y-13902500D02*
X7362000Y-13843000D01*
X7302500Y-13783500D01*
X7243000Y-13843000D01*
X7302500Y-13902500D01*
X7556500Y-13013500D02*
X7616000Y-12954000D01*
X7556500Y-12894500D01*
X7497000Y-12954000D01*
X7556500Y-13013500D01*
X7556500Y-13902500D02*
X7616000Y-13843000D01*
X7556500Y-13783500D01*
X7497000Y-13843000D01*
X7556500Y-13902500D01*
X7810500Y-13013500D02*
X7870000Y-12954000D01*
X7810500Y-12894500D01*
X7751000Y-12954000D01*
X7810500Y-13013500D01*
X7810500Y-13902500D02*
X7870000Y-13843000D01*
X7810500Y-13783500D01*
X7751000Y-13843000D01*
X7810500Y-13902500D01*
X8318500Y-13013500D02*
X8378000Y-12954000D01*
X8318500Y-12894500D01*
X8259000Y-12954000D01*
X8318500Y-13013500D01*
X8318500Y-13902500D02*
X8378000Y-13843000D01*
X8318500Y-13783500D01*
X8259000Y-13843000D01*
X8318500Y-13902500D01*
X8572500Y-13013500D02*
X8632000Y-12954000D01*
X8572500Y-12894500D01*
X8513000Y-12954000D01*
X8572500Y-13013500D01*
X8572500Y-13902500D02*
X8632000Y-13843000D01*
X8572500Y-13783500D01*
X8513000Y-13843000D01*
X8572500Y-13902500D01*
X8826500Y-13013500D02*
X8886000Y-12954000D01*
X8826500Y-12894500D01*
X8767000Y-12954000D01*
X8826500Y-13013500D01*
X8826500Y-13902500D02*
X8886000Y-13843000D01*
X8826500Y-13783500D01*
X8767000Y-13843000D01*
X8826500Y-13902500D01*
X9080500Y-13013500D02*
X9140000Y-12954000D01*
X9080500Y-12894500D01*
X9021000Y-12954000D01*
X9080500Y-13013500D01*
X9080500Y-13902500D02*
X9140000Y-13843000D01*
X9080500Y-13783500D01*
X9021000Y-13843000D01*
X9080500Y-13902500D01*
X9819000Y-13013500D02*
X9878500Y-12954000D01*
X9819000Y-12894500D01*
X9759500Y-12954000D01*
X9819000Y-13013500D01*
X9819000Y-13902500D02*
X9878500Y-13843000D01*
X9819000Y-13783500D01*
X9759500Y-13843000D01*
X9819000Y-13902500D01*
X10073000Y-13013500D02*
X10132500Y-12954000D01*
X10073000Y-12894500D01*
X10013500Y-12954000D01*
X10073000Y-13013500D01*
X10073000Y-13902500D02*
X10132500Y-13843000D01*
X10073000Y-13783500D01*
X10013500Y-13843000D01*
X10073000Y-13902500D01*
X10327000Y-13013500D02*
X10386500Y-12954000D01*
X10327000Y-12894500D01*
X10267500Y-12954000D01*
X10327000Y-13013500D01*
X10327000Y-13902500D02*
X10386500Y-13843000D01*
X10327000Y-13783500D01*
X10267500Y-13843000D01*
X10327000Y-13902500D01*
X10581000Y-13013500D02*
X10640500Y-12954000D01*
X10581000Y-12894500D01*
X10521500Y-12954000D01*
X10581000Y-13013500D01*
X10581000Y-13902500D02*
X10640500Y-13843000D01*
X10581000Y-13783500D01*
X10521500Y-13843000D01*
X10581000Y-13902500D01*
X11292000Y-13013500D02*
X11351500Y-12954000D01*
X11292000Y-12894500D01*
X11232500Y-12954000D01*
X11292000Y-13013500D01*
X11292000Y-13902500D02*
X11351500Y-13843000D01*
X11292000Y-13783500D01*
X11232500Y-13843000D01*
X11292000Y-13902500D01*
X11546000Y-13013500D02*
X11605500Y-12954000D01*
X11546000Y-12894500D01*
X11486500Y-12954000D01*
X11546000Y-13013500D01*
X11546000Y-13902500D02*
X11605500Y-13843000D01*
X11546000Y-13783500D01*
X11486500Y-13843000D01*
X11546000Y-13902500D01*
X11800000Y-13013500D02*
X11859500Y-12954000D01*
X11800000Y-12894500D01*
X11740500Y-12954000D01*
X11800000Y-13013500D01*
X11800000Y-13902500D02*
X11859500Y-13843000D01*
X11800000Y-13783500D01*
X11740500Y-13843000D01*
X11800000Y-13902500D01*
X12054000Y-13013500D02*
X12113500Y-12954000D01*
X12054000Y-12894500D01*
X11994500Y-12954000D01*
X12054000Y-13013500D01*
X12054000Y-13902500D02*
X12113500Y-13843000D01*
X12054000Y-13783500D01*
X11994500Y-13843000D01*
X12054000Y-13902500D01*
X12562000Y-13013500D02*
X12621500Y-12954000D01*
X12562000Y-12894500D01*
X12502500Y-12954000D01*
X12562000Y-13013500D01*
X12562000Y-13902500D02*
X12621500Y-13843000D01*
X12562000Y-13783500D01*
X12502500Y-13843000D01*
X12562000Y-13902500D01*
X12816000Y-13013500D02*
X12875500Y-12954000D01*
X12816000Y-12894500D01*
X12756500Y-12954000D01*
X12816000Y-13013500D01*
X12816000Y-13902500D02*
X12875500Y-13843000D01*
X12816000Y-13783500D01*
X12756500Y-13843000D01*
X12816000Y-13902500D01*
X13070000Y-13013500D02*
X13129500Y-12954000D01*
X13070000Y-12894500D01*
X13010500Y-12954000D01*
X13070000Y-13013500D01*
X13070000Y-13902500D02*
X13129500Y-13843000D01*
X13070000Y-13783500D01*
X13010500Y-13843000D01*
X13070000Y-13902500D01*
X13208000Y-3744500D02*
X13267500Y-3685000D01*
X13208000Y-3625500D01*
X13148500Y-3685000D01*
X13208000Y-3744500D01*
X13324000Y-13013500D02*
X13383500Y-12954000D01*
X13324000Y-12894500D01*
X13264500Y-12954000D01*
X13324000Y-13013500D01*
X13324000Y-13902500D02*
X13383500Y-13843000D01*
X13324000Y-13783500D01*
X13264500Y-13843000D01*
X13324000Y-13902500D01*
X13462000Y-3744500D02*
X13521500Y-3685000D01*
X13462000Y-3625500D01*
X13402500Y-3685000D01*
X13462000Y-3744500D01*
X13716000Y-3744500D02*
X13775500Y-3685000D01*
X13716000Y-3625500D01*
X13656500Y-3685000D01*
X13716000Y-3744500D01*
X13970000Y-3744500D02*
X14029500Y-3685000D01*
X13970000Y-3625500D01*
X13910500Y-3685000D01*
X13970000Y-3744500D01*
X14224000Y-3744500D02*
X14283500Y-3685000D01*
X14224000Y-3625500D01*
X14164500Y-3685000D01*
X14224000Y-3744500D01*
X14478000Y-3744500D02*
X14537500Y-3685000D01*
X14478000Y-3625500D01*
X14418500Y-3685000D01*
X14478000Y-3744500D01*
X14732000Y-3744500D02*
X14791500Y-3685000D01*
X14732000Y-3625500D01*
X14672500Y-3685000D01*
X14732000Y-3744500D01*
X14986000Y-3744500D02*
X15045500Y-3685000D01*
X14986000Y-3625500D01*
X14926500Y-3685000D01*
X14986000Y-3744500D01*
X16256000Y-3742500D02*
X16315500Y-3683000D01*
X16256000Y-3623500D01*
X16196500Y-3683000D01*
X16256000Y-3742500D01*
X16510000Y-3742500D02*
X16569500Y-3683000D01*
X16510000Y-3623500D01*
X16450500Y-3683000D01*
X16510000Y-3742500D01*
X16764000Y-3742500D02*
X16823500Y-3683000D01*
X16764000Y-3623500D01*
X16704500Y-3683000D01*
X16764000Y-3742500D01*
X17018000Y-3742500D02*
X17077500Y-3683000D01*
X17018000Y-3623500D01*
X16958500Y-3683000D01*
X17018000Y-3742500D01*
X17272000Y-3742500D02*
X17331500Y-3683000D01*
X17272000Y-3623500D01*
X17212500Y-3683000D01*
X17272000Y-3742500D01*
X17526000Y-3742500D02*
X17585500Y-3683000D01*
X17526000Y-3623500D01*
X17466500Y-3683000D01*
X17526000Y-3742500D01*
X17780000Y-3742500D02*
X17839500Y-3683000D01*
X17780000Y-3623500D01*
X17720500Y-3683000D01*
X17780000Y-3742500D01*
X18034000Y-3742500D02*
X18093500Y-3683000D01*
X18034000Y-3623500D01*
X17974500Y-3683000D01*
X18034000Y-3742500D01*
X18923000Y-3742500D02*
X18982500Y-3683000D01*
X18923000Y-3623500D01*
X18863500Y-3683000D01*
X18923000Y-3742500D01*
X19177000Y-3742500D02*
X19236500Y-3683000D01*
X19177000Y-3623500D01*
X19117500Y-3683000D01*
X19177000Y-3742500D01*
X19431000Y-3742500D02*
X19490500Y-3683000D01*
X19431000Y-3623500D01*
X19371500Y-3683000D01*
X19431000Y-3742500D01*
X19685000Y-3742500D02*
X19744500Y-3683000D01*
X19685000Y-3623500D01*
X19625500Y-3683000D01*
X19685000Y-3742500D01*
X20298000Y-4505500D02*
X20357500Y-4446000D01*
X20298000Y-4386500D01*
X20238500Y-4446000D01*
X20298000Y-4505500D01*
X20298000Y-4759500D02*
X20357500Y-4700000D01*
X20298000Y-4640500D01*
X20238500Y-4700000D01*
X20298000Y-4759500D01*
X20298000Y-5013500D02*
X20357500Y-4954000D01*
X20298000Y-4894500D01*
X20238500Y-4954000D01*
X20298000Y-5013500D01*
D15*
X8115500Y-3734000D02*
X8267500Y-3886000D01*
X8267500Y-3734000D02*
X8115500Y-3886000D01*
X8267500Y-3810000D02*
G75*
G02*
X8115500Y-3810000I-76000J0D01*
G01*
X8115500Y-3810000D02*
G75*
G02*
X8267500Y-3810000I76000J0D01*
G01*
X8623500Y-3734000D02*
X8775500Y-3886000D01*
X8775500Y-3734000D02*
X8623500Y-3886000D01*
X8775500Y-3810000D02*
G75*
G02*
X8623500Y-3810000I-76000J0D01*
G01*
X8623500Y-3810000D02*
G75*
G02*
X8775500Y-3810000I76000J0D01*
G01*
X9322000Y-3734000D02*
X9474000Y-3886000D01*
X9474000Y-3734000D02*
X9322000Y-3886000D01*
X9474000Y-3810000D02*
G75*
G02*
X9322000Y-3810000I-76000J0D01*
G01*
X9322000Y-3810000D02*
G75*
G02*
X9474000Y-3810000I76000J0D01*
G01*
X9830000Y-3734000D02*
X9982000Y-3886000D01*
X9982000Y-3734000D02*
X9830000Y-3886000D01*
X9982000Y-3810000D02*
G75*
G02*
X9830000Y-3810000I-76000J0D01*
G01*
X9830000Y-3810000D02*
G75*
G02*
X9982000Y-3810000I76000J0D01*
G01*
D16*
X6477000Y-11295000D02*
X6747000Y-11565000D01*
X6747000Y-11295000D02*
X6477000Y-11565000D01*
X6612000Y-11295000D02*
X6612000Y-11565000D01*
X6477000Y-11430000D02*
X6747000Y-11430000D01*
X6977000Y-11295000D02*
X7247000Y-11565000D01*
X7247000Y-11295000D02*
X6977000Y-11565000D01*
X7112000Y-11295000D02*
X7112000Y-11565000D01*
X6977000Y-11430000D02*
X7247000Y-11430000D01*
D17*
X6167000Y-9935000D02*
X6617000Y-10385000D01*
X6617000Y-9935000D02*
X6167000Y-10385000D01*
X6551101Y-10319101D02*
X6551101Y-10000899D01*
X6232899Y-10000899D01*
X6232899Y-10319101D01*
X6551101Y-10319101D01*
X6887000Y-9935000D02*
X7337000Y-10385000D01*
X7337000Y-9935000D02*
X6887000Y-10385000D01*
X7271101Y-10319101D02*
X7271101Y-10000899D01*
X6952899Y-10000899D01*
X6952899Y-10319101D01*
X7271101Y-10319101D01*
D11*
X5846277Y-15045984D02*
X5846277Y-14845984D01*
X5846277Y-14845984D02*
X5893896Y-14845984D01*
X5893896Y-14845984D02*
X5922467Y-14855508D01*
X5922467Y-14855508D02*
X5941515Y-14874555D01*
X5941515Y-14874555D02*
X5951039Y-14893603D01*
X5951039Y-14893603D02*
X5960562Y-14931698D01*
X5960562Y-14931698D02*
X5960562Y-14960269D01*
X5960562Y-14960269D02*
X5951039Y-14998365D01*
X5951039Y-14998365D02*
X5941515Y-15017412D01*
X5941515Y-15017412D02*
X5922467Y-15036460D01*
X5922467Y-15036460D02*
X5893896Y-15045984D01*
X5893896Y-15045984D02*
X5846277Y-15045984D01*
X6046277Y-15045984D02*
X6046277Y-14912650D01*
X6046277Y-14950746D02*
X6055801Y-14931698D01*
X6055801Y-14931698D02*
X6065324Y-14922174D01*
X6065324Y-14922174D02*
X6084372Y-14912650D01*
X6084372Y-14912650D02*
X6103420Y-14912650D01*
X6170086Y-15045984D02*
X6170086Y-14912650D01*
X6170086Y-14845984D02*
X6160562Y-14855508D01*
X6160562Y-14855508D02*
X6170086Y-14865031D01*
X6170086Y-14865031D02*
X6179610Y-14855508D01*
X6179610Y-14855508D02*
X6170086Y-14845984D01*
X6170086Y-14845984D02*
X6170086Y-14865031D01*
X6293896Y-15045984D02*
X6274848Y-15036460D01*
X6274848Y-15036460D02*
X6265324Y-15017412D01*
X6265324Y-15017412D02*
X6265324Y-14845984D01*
X6398658Y-15045984D02*
X6379610Y-15036460D01*
X6379610Y-15036460D02*
X6370086Y-15017412D01*
X6370086Y-15017412D02*
X6370086Y-14845984D01*
X6627229Y-15045984D02*
X6627229Y-14845984D01*
X6627229Y-14845984D02*
X6693896Y-14988841D01*
X6693896Y-14988841D02*
X6760562Y-14845984D01*
X6760562Y-14845984D02*
X6760562Y-15045984D01*
X6941515Y-15045984D02*
X6941515Y-14941222D01*
X6941515Y-14941222D02*
X6931991Y-14922174D01*
X6931991Y-14922174D02*
X6912943Y-14912650D01*
X6912943Y-14912650D02*
X6874848Y-14912650D01*
X6874848Y-14912650D02*
X6855801Y-14922174D01*
X6941515Y-15036460D02*
X6922467Y-15045984D01*
X6922467Y-15045984D02*
X6874848Y-15045984D01*
X6874848Y-15045984D02*
X6855801Y-15036460D01*
X6855801Y-15036460D02*
X6846277Y-15017412D01*
X6846277Y-15017412D02*
X6846277Y-14998365D01*
X6846277Y-14998365D02*
X6855801Y-14979317D01*
X6855801Y-14979317D02*
X6874848Y-14969793D01*
X6874848Y-14969793D02*
X6922467Y-14969793D01*
X6922467Y-14969793D02*
X6941515Y-14960269D01*
X7036753Y-14912650D02*
X7036753Y-15112650D01*
X7036753Y-14922174D02*
X7055801Y-14912650D01*
X7055801Y-14912650D02*
X7093896Y-14912650D01*
X7093896Y-14912650D02*
X7112943Y-14922174D01*
X7112943Y-14922174D02*
X7122467Y-14931698D01*
X7122467Y-14931698D02*
X7131991Y-14950746D01*
X7131991Y-14950746D02*
X7131991Y-15007888D01*
X7131991Y-15007888D02*
X7122467Y-15026936D01*
X7122467Y-15026936D02*
X7112943Y-15036460D01*
X7112943Y-15036460D02*
X7093896Y-15045984D01*
X7093896Y-15045984D02*
X7055801Y-15045984D01*
X7055801Y-15045984D02*
X7036753Y-15036460D01*
X7217705Y-15026936D02*
X7227229Y-15036460D01*
X7227229Y-15036460D02*
X7217705Y-15045984D01*
X7217705Y-15045984D02*
X7208182Y-15036460D01*
X7208182Y-15036460D02*
X7217705Y-15026936D01*
X7217705Y-15026936D02*
X7217705Y-15045984D01*
X7217705Y-14922174D02*
X7227229Y-14931698D01*
X7227229Y-14931698D02*
X7217705Y-14941222D01*
X7217705Y-14941222D02*
X7208182Y-14931698D01*
X7208182Y-14931698D02*
X7217705Y-14922174D01*
X7217705Y-14922174D02*
X7217705Y-14941222D01*
D12*
X5555500Y-15359500D02*
X5585500Y-15389500D01*
X5585500Y-15359500D02*
X5555500Y-15389500D01*
D11*
X5884372Y-15265984D02*
X5903420Y-15265984D01*
X5903420Y-15265984D02*
X5922467Y-15275508D01*
X5922467Y-15275508D02*
X5931991Y-15285031D01*
X5931991Y-15285031D02*
X5941515Y-15304079D01*
X5941515Y-15304079D02*
X5951039Y-15342174D01*
X5951039Y-15342174D02*
X5951039Y-15389793D01*
X5951039Y-15389793D02*
X5941515Y-15427888D01*
X5941515Y-15427888D02*
X5931991Y-15446936D01*
X5931991Y-15446936D02*
X5922467Y-15456460D01*
X5922467Y-15456460D02*
X5903420Y-15465984D01*
X5903420Y-15465984D02*
X5884372Y-15465984D01*
X5884372Y-15465984D02*
X5865324Y-15456460D01*
X5865324Y-15456460D02*
X5855801Y-15446936D01*
X5855801Y-15446936D02*
X5846277Y-15427888D01*
X5846277Y-15427888D02*
X5836753Y-15389793D01*
X5836753Y-15389793D02*
X5836753Y-15342174D01*
X5836753Y-15342174D02*
X5846277Y-15304079D01*
X5846277Y-15304079D02*
X5855801Y-15285031D01*
X5855801Y-15285031D02*
X5865324Y-15275508D01*
X5865324Y-15275508D02*
X5884372Y-15265984D01*
X6036753Y-15446936D02*
X6046277Y-15456460D01*
X6046277Y-15456460D02*
X6036753Y-15465984D01*
X6036753Y-15465984D02*
X6027229Y-15456460D01*
X6027229Y-15456460D02*
X6036753Y-15446936D01*
X6036753Y-15446936D02*
X6036753Y-15465984D01*
X6112943Y-15265984D02*
X6236753Y-15265984D01*
X6236753Y-15265984D02*
X6170086Y-15342174D01*
X6170086Y-15342174D02*
X6198658Y-15342174D01*
X6198658Y-15342174D02*
X6217705Y-15351698D01*
X6217705Y-15351698D02*
X6227229Y-15361222D01*
X6227229Y-15361222D02*
X6236753Y-15380269D01*
X6236753Y-15380269D02*
X6236753Y-15427888D01*
X6236753Y-15427888D02*
X6227229Y-15446936D01*
X6227229Y-15446936D02*
X6217705Y-15456460D01*
X6217705Y-15456460D02*
X6198658Y-15465984D01*
X6198658Y-15465984D02*
X6141515Y-15465984D01*
X6141515Y-15465984D02*
X6122467Y-15456460D01*
X6122467Y-15456460D02*
X6112943Y-15446936D01*
X6360562Y-15265984D02*
X6379610Y-15265984D01*
X6379610Y-15265984D02*
X6398658Y-15275508D01*
X6398658Y-15275508D02*
X6408182Y-15285031D01*
X6408182Y-15285031D02*
X6417705Y-15304079D01*
X6417705Y-15304079D02*
X6427229Y-15342174D01*
X6427229Y-15342174D02*
X6427229Y-15389793D01*
X6427229Y-15389793D02*
X6417705Y-15427888D01*
X6417705Y-15427888D02*
X6408182Y-15446936D01*
X6408182Y-15446936D02*
X6398658Y-15456460D01*
X6398658Y-15456460D02*
X6379610Y-15465984D01*
X6379610Y-15465984D02*
X6360562Y-15465984D01*
X6360562Y-15465984D02*
X6341515Y-15456460D01*
X6341515Y-15456460D02*
X6331991Y-15446936D01*
X6331991Y-15446936D02*
X6322467Y-15427888D01*
X6322467Y-15427888D02*
X6312943Y-15389793D01*
X6312943Y-15389793D02*
X6312943Y-15342174D01*
X6312943Y-15342174D02*
X6322467Y-15304079D01*
X6322467Y-15304079D02*
X6331991Y-15285031D01*
X6331991Y-15285031D02*
X6341515Y-15275508D01*
X6341515Y-15275508D02*
X6360562Y-15265984D01*
X6551039Y-15265984D02*
X6570086Y-15265984D01*
X6570086Y-15265984D02*
X6589134Y-15275508D01*
X6589134Y-15275508D02*
X6598658Y-15285031D01*
X6598658Y-15285031D02*
X6608182Y-15304079D01*
X6608182Y-15304079D02*
X6617705Y-15342174D01*
X6617705Y-15342174D02*
X6617705Y-15389793D01*
X6617705Y-15389793D02*
X6608182Y-15427888D01*
X6608182Y-15427888D02*
X6598658Y-15446936D01*
X6598658Y-15446936D02*
X6589134Y-15456460D01*
X6589134Y-15456460D02*
X6570086Y-15465984D01*
X6570086Y-15465984D02*
X6551039Y-15465984D01*
X6551039Y-15465984D02*
X6531991Y-15456460D01*
X6531991Y-15456460D02*
X6522467Y-15446936D01*
X6522467Y-15446936D02*
X6512943Y-15427888D01*
X6512943Y-15427888D02*
X6503420Y-15389793D01*
X6503420Y-15389793D02*
X6503420Y-15342174D01*
X6503420Y-15342174D02*
X6512943Y-15304079D01*
X6512943Y-15304079D02*
X6522467Y-15285031D01*
X6522467Y-15285031D02*
X6531991Y-15275508D01*
X6531991Y-15275508D02*
X6551039Y-15265984D01*
X6703420Y-15465984D02*
X6703420Y-15332650D01*
X6703420Y-15351698D02*
X6712943Y-15342174D01*
X6712943Y-15342174D02*
X6731991Y-15332650D01*
X6731991Y-15332650D02*
X6760563Y-15332650D01*
X6760563Y-15332650D02*
X6779610Y-15342174D01*
X6779610Y-15342174D02*
X6789134Y-15361222D01*
X6789134Y-15361222D02*
X6789134Y-15465984D01*
X6789134Y-15361222D02*
X6798658Y-15342174D01*
X6798658Y-15342174D02*
X6817705Y-15332650D01*
X6817705Y-15332650D02*
X6846277Y-15332650D01*
X6846277Y-15332650D02*
X6865324Y-15342174D01*
X6865324Y-15342174D02*
X6874848Y-15361222D01*
X6874848Y-15361222D02*
X6874848Y-15465984D01*
X6970086Y-15465984D02*
X6970086Y-15332650D01*
X6970086Y-15351698D02*
X6979610Y-15342174D01*
X6979610Y-15342174D02*
X6998658Y-15332650D01*
X6998658Y-15332650D02*
X7027229Y-15332650D01*
X7027229Y-15332650D02*
X7046277Y-15342174D01*
X7046277Y-15342174D02*
X7055801Y-15361222D01*
X7055801Y-15361222D02*
X7055801Y-15465984D01*
X7055801Y-15361222D02*
X7065324Y-15342174D01*
X7065324Y-15342174D02*
X7084372Y-15332650D01*
X7084372Y-15332650D02*
X7112943Y-15332650D01*
X7112943Y-15332650D02*
X7131991Y-15342174D01*
X7131991Y-15342174D02*
X7141515Y-15361222D01*
X7141515Y-15361222D02*
X7141515Y-15465984D01*
X7531991Y-15256460D02*
X7360563Y-15513603D01*
X7789134Y-15265984D02*
X7808182Y-15265984D01*
X7808182Y-15265984D02*
X7827229Y-15275508D01*
X7827229Y-15275508D02*
X7836753Y-15285031D01*
X7836753Y-15285031D02*
X7846277Y-15304079D01*
X7846277Y-15304079D02*
X7855801Y-15342174D01*
X7855801Y-15342174D02*
X7855801Y-15389793D01*
X7855801Y-15389793D02*
X7846277Y-15427888D01*
X7846277Y-15427888D02*
X7836753Y-15446936D01*
X7836753Y-15446936D02*
X7827229Y-15456460D01*
X7827229Y-15456460D02*
X7808182Y-15465984D01*
X7808182Y-15465984D02*
X7789134Y-15465984D01*
X7789134Y-15465984D02*
X7770086Y-15456460D01*
X7770086Y-15456460D02*
X7760563Y-15446936D01*
X7760563Y-15446936D02*
X7751039Y-15427888D01*
X7751039Y-15427888D02*
X7741515Y-15389793D01*
X7741515Y-15389793D02*
X7741515Y-15342174D01*
X7741515Y-15342174D02*
X7751039Y-15304079D01*
X7751039Y-15304079D02*
X7760563Y-15285031D01*
X7760563Y-15285031D02*
X7770086Y-15275508D01*
X7770086Y-15275508D02*
X7789134Y-15265984D01*
X7941515Y-15446936D02*
X7951039Y-15456460D01*
X7951039Y-15456460D02*
X7941515Y-15465984D01*
X7941515Y-15465984D02*
X7931991Y-15456460D01*
X7931991Y-15456460D02*
X7941515Y-15446936D01*
X7941515Y-15446936D02*
X7941515Y-15465984D01*
X8074848Y-15265984D02*
X8093896Y-15265984D01*
X8093896Y-15265984D02*
X8112944Y-15275508D01*
X8112944Y-15275508D02*
X8122467Y-15285031D01*
X8122467Y-15285031D02*
X8131991Y-15304079D01*
X8131991Y-15304079D02*
X8141515Y-15342174D01*
X8141515Y-15342174D02*
X8141515Y-15389793D01*
X8141515Y-15389793D02*
X8131991Y-15427888D01*
X8131991Y-15427888D02*
X8122467Y-15446936D01*
X8122467Y-15446936D02*
X8112944Y-15456460D01*
X8112944Y-15456460D02*
X8093896Y-15465984D01*
X8093896Y-15465984D02*
X8074848Y-15465984D01*
X8074848Y-15465984D02*
X8055801Y-15456460D01*
X8055801Y-15456460D02*
X8046277Y-15446936D01*
X8046277Y-15446936D02*
X8036753Y-15427888D01*
X8036753Y-15427888D02*
X8027229Y-15389793D01*
X8027229Y-15389793D02*
X8027229Y-15342174D01*
X8027229Y-15342174D02*
X8036753Y-15304079D01*
X8036753Y-15304079D02*
X8046277Y-15285031D01*
X8046277Y-15285031D02*
X8055801Y-15275508D01*
X8055801Y-15275508D02*
X8074848Y-15265984D01*
X8331991Y-15465984D02*
X8217706Y-15465984D01*
X8274848Y-15465984D02*
X8274848Y-15265984D01*
X8274848Y-15265984D02*
X8255801Y-15294555D01*
X8255801Y-15294555D02*
X8236753Y-15313603D01*
X8236753Y-15313603D02*
X8217706Y-15323127D01*
X8522468Y-15465984D02*
X8408182Y-15465984D01*
X8465325Y-15465984D02*
X8465325Y-15265984D01*
X8465325Y-15265984D02*
X8446277Y-15294555D01*
X8446277Y-15294555D02*
X8427229Y-15313603D01*
X8427229Y-15313603D02*
X8408182Y-15323127D01*
X8636753Y-15351698D02*
X8617706Y-15342174D01*
X8617706Y-15342174D02*
X8608182Y-15332650D01*
X8608182Y-15332650D02*
X8598658Y-15313603D01*
X8598658Y-15313603D02*
X8598658Y-15304079D01*
X8598658Y-15304079D02*
X8608182Y-15285031D01*
X8608182Y-15285031D02*
X8617706Y-15275508D01*
X8617706Y-15275508D02*
X8636753Y-15265984D01*
X8636753Y-15265984D02*
X8674849Y-15265984D01*
X8674849Y-15265984D02*
X8693896Y-15275508D01*
X8693896Y-15275508D02*
X8703420Y-15285031D01*
X8703420Y-15285031D02*
X8712944Y-15304079D01*
X8712944Y-15304079D02*
X8712944Y-15313603D01*
X8712944Y-15313603D02*
X8703420Y-15332650D01*
X8703420Y-15332650D02*
X8693896Y-15342174D01*
X8693896Y-15342174D02*
X8674849Y-15351698D01*
X8674849Y-15351698D02*
X8636753Y-15351698D01*
X8636753Y-15351698D02*
X8617706Y-15361222D01*
X8617706Y-15361222D02*
X8608182Y-15370746D01*
X8608182Y-15370746D02*
X8598658Y-15389793D01*
X8598658Y-15389793D02*
X8598658Y-15427888D01*
X8598658Y-15427888D02*
X8608182Y-15446936D01*
X8608182Y-15446936D02*
X8617706Y-15456460D01*
X8617706Y-15456460D02*
X8636753Y-15465984D01*
X8636753Y-15465984D02*
X8674849Y-15465984D01*
X8674849Y-15465984D02*
X8693896Y-15456460D01*
X8693896Y-15456460D02*
X8703420Y-15446936D01*
X8703420Y-15446936D02*
X8712944Y-15427888D01*
X8712944Y-15427888D02*
X8712944Y-15389793D01*
X8712944Y-15389793D02*
X8703420Y-15370746D01*
X8703420Y-15370746D02*
X8693896Y-15361222D01*
X8693896Y-15361222D02*
X8674849Y-15351698D01*
X8789134Y-15265984D02*
X8789134Y-15304079D01*
X8865325Y-15265984D02*
X8865325Y-15304079D01*
X9160563Y-15542174D02*
X9151039Y-15532650D01*
X9151039Y-15532650D02*
X9131991Y-15504079D01*
X9131991Y-15504079D02*
X9122468Y-15485031D01*
X9122468Y-15485031D02*
X9112944Y-15456460D01*
X9112944Y-15456460D02*
X9103420Y-15408841D01*
X9103420Y-15408841D02*
X9103420Y-15370746D01*
X9103420Y-15370746D02*
X9112944Y-15323127D01*
X9112944Y-15323127D02*
X9122468Y-15294555D01*
X9122468Y-15294555D02*
X9131991Y-15275508D01*
X9131991Y-15275508D02*
X9151039Y-15246936D01*
X9151039Y-15246936D02*
X9160563Y-15237412D01*
X9341515Y-15465984D02*
X9227230Y-15465984D01*
X9284372Y-15465984D02*
X9284372Y-15265984D01*
X9284372Y-15265984D02*
X9265325Y-15294555D01*
X9265325Y-15294555D02*
X9246277Y-15313603D01*
X9246277Y-15313603D02*
X9227230Y-15323127D01*
X9531991Y-15465984D02*
X9417706Y-15465984D01*
X9474849Y-15465984D02*
X9474849Y-15265984D01*
X9474849Y-15265984D02*
X9455801Y-15294555D01*
X9455801Y-15294555D02*
X9436753Y-15313603D01*
X9436753Y-15313603D02*
X9417706Y-15323127D01*
X9598658Y-15265984D02*
X9722468Y-15265984D01*
X9722468Y-15265984D02*
X9655801Y-15342174D01*
X9655801Y-15342174D02*
X9684372Y-15342174D01*
X9684372Y-15342174D02*
X9703420Y-15351698D01*
X9703420Y-15351698D02*
X9712944Y-15361222D01*
X9712944Y-15361222D02*
X9722468Y-15380269D01*
X9722468Y-15380269D02*
X9722468Y-15427888D01*
X9722468Y-15427888D02*
X9712944Y-15446936D01*
X9712944Y-15446936D02*
X9703420Y-15456460D01*
X9703420Y-15456460D02*
X9684372Y-15465984D01*
X9684372Y-15465984D02*
X9627230Y-15465984D01*
X9627230Y-15465984D02*
X9608182Y-15456460D01*
X9608182Y-15456460D02*
X9598658Y-15446936D01*
X9960563Y-15465984D02*
X9960563Y-15265984D01*
X10046277Y-15465984D02*
X10046277Y-15361222D01*
X10046277Y-15361222D02*
X10036753Y-15342174D01*
X10036753Y-15342174D02*
X10017706Y-15332650D01*
X10017706Y-15332650D02*
X9989134Y-15332650D01*
X9989134Y-15332650D02*
X9970087Y-15342174D01*
X9970087Y-15342174D02*
X9960563Y-15351698D01*
X10170087Y-15465984D02*
X10151039Y-15456460D01*
X10151039Y-15456460D02*
X10141515Y-15446936D01*
X10141515Y-15446936D02*
X10131992Y-15427888D01*
X10131992Y-15427888D02*
X10131992Y-15370746D01*
X10131992Y-15370746D02*
X10141515Y-15351698D01*
X10141515Y-15351698D02*
X10151039Y-15342174D01*
X10151039Y-15342174D02*
X10170087Y-15332650D01*
X10170087Y-15332650D02*
X10198658Y-15332650D01*
X10198658Y-15332650D02*
X10217706Y-15342174D01*
X10217706Y-15342174D02*
X10227230Y-15351698D01*
X10227230Y-15351698D02*
X10236753Y-15370746D01*
X10236753Y-15370746D02*
X10236753Y-15427888D01*
X10236753Y-15427888D02*
X10227230Y-15446936D01*
X10227230Y-15446936D02*
X10217706Y-15456460D01*
X10217706Y-15456460D02*
X10198658Y-15465984D01*
X10198658Y-15465984D02*
X10170087Y-15465984D01*
X10351039Y-15465984D02*
X10331992Y-15456460D01*
X10331992Y-15456460D02*
X10322468Y-15437412D01*
X10322468Y-15437412D02*
X10322468Y-15265984D01*
X10503420Y-15456460D02*
X10484373Y-15465984D01*
X10484373Y-15465984D02*
X10446277Y-15465984D01*
X10446277Y-15465984D02*
X10427230Y-15456460D01*
X10427230Y-15456460D02*
X10417706Y-15437412D01*
X10417706Y-15437412D02*
X10417706Y-15361222D01*
X10417706Y-15361222D02*
X10427230Y-15342174D01*
X10427230Y-15342174D02*
X10446277Y-15332650D01*
X10446277Y-15332650D02*
X10484373Y-15332650D01*
X10484373Y-15332650D02*
X10503420Y-15342174D01*
X10503420Y-15342174D02*
X10512944Y-15361222D01*
X10512944Y-15361222D02*
X10512944Y-15380269D01*
X10512944Y-15380269D02*
X10417706Y-15399317D01*
X10589134Y-15456460D02*
X10608182Y-15465984D01*
X10608182Y-15465984D02*
X10646277Y-15465984D01*
X10646277Y-15465984D02*
X10665325Y-15456460D01*
X10665325Y-15456460D02*
X10674849Y-15437412D01*
X10674849Y-15437412D02*
X10674849Y-15427888D01*
X10674849Y-15427888D02*
X10665325Y-15408841D01*
X10665325Y-15408841D02*
X10646277Y-15399317D01*
X10646277Y-15399317D02*
X10617706Y-15399317D01*
X10617706Y-15399317D02*
X10598658Y-15389793D01*
X10598658Y-15389793D02*
X10589134Y-15370746D01*
X10589134Y-15370746D02*
X10589134Y-15361222D01*
X10589134Y-15361222D02*
X10598658Y-15342174D01*
X10598658Y-15342174D02*
X10617706Y-15332650D01*
X10617706Y-15332650D02*
X10646277Y-15332650D01*
X10646277Y-15332650D02*
X10665325Y-15342174D01*
X10741515Y-15542174D02*
X10751039Y-15532650D01*
X10751039Y-15532650D02*
X10770087Y-15504079D01*
X10770087Y-15504079D02*
X10779611Y-15485031D01*
X10779611Y-15485031D02*
X10789134Y-15456460D01*
X10789134Y-15456460D02*
X10798658Y-15408841D01*
X10798658Y-15408841D02*
X10798658Y-15370746D01*
X10798658Y-15370746D02*
X10789134Y-15323127D01*
X10789134Y-15323127D02*
X10779611Y-15294555D01*
X10779611Y-15294555D02*
X10770087Y-15275508D01*
X10770087Y-15275508D02*
X10751039Y-15246936D01*
X10751039Y-15246936D02*
X10741515Y-15237412D01*
D12*
X5585500Y-15638500D02*
G75*
G02*
X5505500Y-15638500I-40000J0D01*
G01*
X5505500Y-15638500D02*
G75*
G02*
X5585500Y-15638500I40000J0D01*
G01*
D11*
X5884372Y-15529984D02*
X5903420Y-15529984D01*
X5903420Y-15529984D02*
X5922467Y-15539508D01*
X5922467Y-15539508D02*
X5931991Y-15549031D01*
X5931991Y-15549031D02*
X5941515Y-15568079D01*
X5941515Y-15568079D02*
X5951039Y-15606174D01*
X5951039Y-15606174D02*
X5951039Y-15653793D01*
X5951039Y-15653793D02*
X5941515Y-15691888D01*
X5941515Y-15691888D02*
X5931991Y-15710936D01*
X5931991Y-15710936D02*
X5922467Y-15720460D01*
X5922467Y-15720460D02*
X5903420Y-15729984D01*
X5903420Y-15729984D02*
X5884372Y-15729984D01*
X5884372Y-15729984D02*
X5865324Y-15720460D01*
X5865324Y-15720460D02*
X5855801Y-15710936D01*
X5855801Y-15710936D02*
X5846277Y-15691888D01*
X5846277Y-15691888D02*
X5836753Y-15653793D01*
X5836753Y-15653793D02*
X5836753Y-15606174D01*
X5836753Y-15606174D02*
X5846277Y-15568079D01*
X5846277Y-15568079D02*
X5855801Y-15549031D01*
X5855801Y-15549031D02*
X5865324Y-15539508D01*
X5865324Y-15539508D02*
X5884372Y-15529984D01*
X6036753Y-15710936D02*
X6046277Y-15720460D01*
X6046277Y-15720460D02*
X6036753Y-15729984D01*
X6036753Y-15729984D02*
X6027229Y-15720460D01*
X6027229Y-15720460D02*
X6036753Y-15710936D01*
X6036753Y-15710936D02*
X6036753Y-15729984D01*
X6160562Y-15615698D02*
X6141515Y-15606174D01*
X6141515Y-15606174D02*
X6131991Y-15596650D01*
X6131991Y-15596650D02*
X6122467Y-15577603D01*
X6122467Y-15577603D02*
X6122467Y-15568079D01*
X6122467Y-15568079D02*
X6131991Y-15549031D01*
X6131991Y-15549031D02*
X6141515Y-15539508D01*
X6141515Y-15539508D02*
X6160562Y-15529984D01*
X6160562Y-15529984D02*
X6198658Y-15529984D01*
X6198658Y-15529984D02*
X6217705Y-15539508D01*
X6217705Y-15539508D02*
X6227229Y-15549031D01*
X6227229Y-15549031D02*
X6236753Y-15568079D01*
X6236753Y-15568079D02*
X6236753Y-15577603D01*
X6236753Y-15577603D02*
X6227229Y-15596650D01*
X6227229Y-15596650D02*
X6217705Y-15606174D01*
X6217705Y-15606174D02*
X6198658Y-15615698D01*
X6198658Y-15615698D02*
X6160562Y-15615698D01*
X6160562Y-15615698D02*
X6141515Y-15625222D01*
X6141515Y-15625222D02*
X6131991Y-15634746D01*
X6131991Y-15634746D02*
X6122467Y-15653793D01*
X6122467Y-15653793D02*
X6122467Y-15691888D01*
X6122467Y-15691888D02*
X6131991Y-15710936D01*
X6131991Y-15710936D02*
X6141515Y-15720460D01*
X6141515Y-15720460D02*
X6160562Y-15729984D01*
X6160562Y-15729984D02*
X6198658Y-15729984D01*
X6198658Y-15729984D02*
X6217705Y-15720460D01*
X6217705Y-15720460D02*
X6227229Y-15710936D01*
X6227229Y-15710936D02*
X6236753Y-15691888D01*
X6236753Y-15691888D02*
X6236753Y-15653793D01*
X6236753Y-15653793D02*
X6227229Y-15634746D01*
X6227229Y-15634746D02*
X6217705Y-15625222D01*
X6217705Y-15625222D02*
X6198658Y-15615698D01*
X6360562Y-15529984D02*
X6379610Y-15529984D01*
X6379610Y-15529984D02*
X6398658Y-15539508D01*
X6398658Y-15539508D02*
X6408182Y-15549031D01*
X6408182Y-15549031D02*
X6417705Y-15568079D01*
X6417705Y-15568079D02*
X6427229Y-15606174D01*
X6427229Y-15606174D02*
X6427229Y-15653793D01*
X6427229Y-15653793D02*
X6417705Y-15691888D01*
X6417705Y-15691888D02*
X6408182Y-15710936D01*
X6408182Y-15710936D02*
X6398658Y-15720460D01*
X6398658Y-15720460D02*
X6379610Y-15729984D01*
X6379610Y-15729984D02*
X6360562Y-15729984D01*
X6360562Y-15729984D02*
X6341515Y-15720460D01*
X6341515Y-15720460D02*
X6331991Y-15710936D01*
X6331991Y-15710936D02*
X6322467Y-15691888D01*
X6322467Y-15691888D02*
X6312943Y-15653793D01*
X6312943Y-15653793D02*
X6312943Y-15606174D01*
X6312943Y-15606174D02*
X6322467Y-15568079D01*
X6322467Y-15568079D02*
X6331991Y-15549031D01*
X6331991Y-15549031D02*
X6341515Y-15539508D01*
X6341515Y-15539508D02*
X6360562Y-15529984D01*
X6551039Y-15529984D02*
X6570086Y-15529984D01*
X6570086Y-15529984D02*
X6589134Y-15539508D01*
X6589134Y-15539508D02*
X6598658Y-15549031D01*
X6598658Y-15549031D02*
X6608182Y-15568079D01*
X6608182Y-15568079D02*
X6617705Y-15606174D01*
X6617705Y-15606174D02*
X6617705Y-15653793D01*
X6617705Y-15653793D02*
X6608182Y-15691888D01*
X6608182Y-15691888D02*
X6598658Y-15710936D01*
X6598658Y-15710936D02*
X6589134Y-15720460D01*
X6589134Y-15720460D02*
X6570086Y-15729984D01*
X6570086Y-15729984D02*
X6551039Y-15729984D01*
X6551039Y-15729984D02*
X6531991Y-15720460D01*
X6531991Y-15720460D02*
X6522467Y-15710936D01*
X6522467Y-15710936D02*
X6512943Y-15691888D01*
X6512943Y-15691888D02*
X6503420Y-15653793D01*
X6503420Y-15653793D02*
X6503420Y-15606174D01*
X6503420Y-15606174D02*
X6512943Y-15568079D01*
X6512943Y-15568079D02*
X6522467Y-15549031D01*
X6522467Y-15549031D02*
X6531991Y-15539508D01*
X6531991Y-15539508D02*
X6551039Y-15529984D01*
X6703420Y-15729984D02*
X6703420Y-15596650D01*
X6703420Y-15615698D02*
X6712943Y-15606174D01*
X6712943Y-15606174D02*
X6731991Y-15596650D01*
X6731991Y-15596650D02*
X6760563Y-15596650D01*
X6760563Y-15596650D02*
X6779610Y-15606174D01*
X6779610Y-15606174D02*
X6789134Y-15625222D01*
X6789134Y-15625222D02*
X6789134Y-15729984D01*
X6789134Y-15625222D02*
X6798658Y-15606174D01*
X6798658Y-15606174D02*
X6817705Y-15596650D01*
X6817705Y-15596650D02*
X6846277Y-15596650D01*
X6846277Y-15596650D02*
X6865324Y-15606174D01*
X6865324Y-15606174D02*
X6874848Y-15625222D01*
X6874848Y-15625222D02*
X6874848Y-15729984D01*
X6970086Y-15729984D02*
X6970086Y-15596650D01*
X6970086Y-15615698D02*
X6979610Y-15606174D01*
X6979610Y-15606174D02*
X6998658Y-15596650D01*
X6998658Y-15596650D02*
X7027229Y-15596650D01*
X7027229Y-15596650D02*
X7046277Y-15606174D01*
X7046277Y-15606174D02*
X7055801Y-15625222D01*
X7055801Y-15625222D02*
X7055801Y-15729984D01*
X7055801Y-15625222D02*
X7065324Y-15606174D01*
X7065324Y-15606174D02*
X7084372Y-15596650D01*
X7084372Y-15596650D02*
X7112943Y-15596650D01*
X7112943Y-15596650D02*
X7131991Y-15606174D01*
X7131991Y-15606174D02*
X7141515Y-15625222D01*
X7141515Y-15625222D02*
X7141515Y-15729984D01*
X7531991Y-15520460D02*
X7360563Y-15777603D01*
X7789134Y-15529984D02*
X7808182Y-15529984D01*
X7808182Y-15529984D02*
X7827229Y-15539508D01*
X7827229Y-15539508D02*
X7836753Y-15549031D01*
X7836753Y-15549031D02*
X7846277Y-15568079D01*
X7846277Y-15568079D02*
X7855801Y-15606174D01*
X7855801Y-15606174D02*
X7855801Y-15653793D01*
X7855801Y-15653793D02*
X7846277Y-15691888D01*
X7846277Y-15691888D02*
X7836753Y-15710936D01*
X7836753Y-15710936D02*
X7827229Y-15720460D01*
X7827229Y-15720460D02*
X7808182Y-15729984D01*
X7808182Y-15729984D02*
X7789134Y-15729984D01*
X7789134Y-15729984D02*
X7770086Y-15720460D01*
X7770086Y-15720460D02*
X7760563Y-15710936D01*
X7760563Y-15710936D02*
X7751039Y-15691888D01*
X7751039Y-15691888D02*
X7741515Y-15653793D01*
X7741515Y-15653793D02*
X7741515Y-15606174D01*
X7741515Y-15606174D02*
X7751039Y-15568079D01*
X7751039Y-15568079D02*
X7760563Y-15549031D01*
X7760563Y-15549031D02*
X7770086Y-15539508D01*
X7770086Y-15539508D02*
X7789134Y-15529984D01*
X7941515Y-15710936D02*
X7951039Y-15720460D01*
X7951039Y-15720460D02*
X7941515Y-15729984D01*
X7941515Y-15729984D02*
X7931991Y-15720460D01*
X7931991Y-15720460D02*
X7941515Y-15710936D01*
X7941515Y-15710936D02*
X7941515Y-15729984D01*
X8074848Y-15529984D02*
X8093896Y-15529984D01*
X8093896Y-15529984D02*
X8112944Y-15539508D01*
X8112944Y-15539508D02*
X8122467Y-15549031D01*
X8122467Y-15549031D02*
X8131991Y-15568079D01*
X8131991Y-15568079D02*
X8141515Y-15606174D01*
X8141515Y-15606174D02*
X8141515Y-15653793D01*
X8141515Y-15653793D02*
X8131991Y-15691888D01*
X8131991Y-15691888D02*
X8122467Y-15710936D01*
X8122467Y-15710936D02*
X8112944Y-15720460D01*
X8112944Y-15720460D02*
X8093896Y-15729984D01*
X8093896Y-15729984D02*
X8074848Y-15729984D01*
X8074848Y-15729984D02*
X8055801Y-15720460D01*
X8055801Y-15720460D02*
X8046277Y-15710936D01*
X8046277Y-15710936D02*
X8036753Y-15691888D01*
X8036753Y-15691888D02*
X8027229Y-15653793D01*
X8027229Y-15653793D02*
X8027229Y-15606174D01*
X8027229Y-15606174D02*
X8036753Y-15568079D01*
X8036753Y-15568079D02*
X8046277Y-15549031D01*
X8046277Y-15549031D02*
X8055801Y-15539508D01*
X8055801Y-15539508D02*
X8074848Y-15529984D01*
X8208182Y-15529984D02*
X8331991Y-15529984D01*
X8331991Y-15529984D02*
X8265325Y-15606174D01*
X8265325Y-15606174D02*
X8293896Y-15606174D01*
X8293896Y-15606174D02*
X8312944Y-15615698D01*
X8312944Y-15615698D02*
X8322467Y-15625222D01*
X8322467Y-15625222D02*
X8331991Y-15644269D01*
X8331991Y-15644269D02*
X8331991Y-15691888D01*
X8331991Y-15691888D02*
X8322467Y-15710936D01*
X8322467Y-15710936D02*
X8312944Y-15720460D01*
X8312944Y-15720460D02*
X8293896Y-15729984D01*
X8293896Y-15729984D02*
X8236753Y-15729984D01*
X8236753Y-15729984D02*
X8217706Y-15720460D01*
X8217706Y-15720460D02*
X8208182Y-15710936D01*
X8522468Y-15729984D02*
X8408182Y-15729984D01*
X8465325Y-15729984D02*
X8465325Y-15529984D01*
X8465325Y-15529984D02*
X8446277Y-15558555D01*
X8446277Y-15558555D02*
X8427229Y-15577603D01*
X8427229Y-15577603D02*
X8408182Y-15587127D01*
X8703420Y-15529984D02*
X8608182Y-15529984D01*
X8608182Y-15529984D02*
X8598658Y-15625222D01*
X8598658Y-15625222D02*
X8608182Y-15615698D01*
X8608182Y-15615698D02*
X8627229Y-15606174D01*
X8627229Y-15606174D02*
X8674849Y-15606174D01*
X8674849Y-15606174D02*
X8693896Y-15615698D01*
X8693896Y-15615698D02*
X8703420Y-15625222D01*
X8703420Y-15625222D02*
X8712944Y-15644269D01*
X8712944Y-15644269D02*
X8712944Y-15691888D01*
X8712944Y-15691888D02*
X8703420Y-15710936D01*
X8703420Y-15710936D02*
X8693896Y-15720460D01*
X8693896Y-15720460D02*
X8674849Y-15729984D01*
X8674849Y-15729984D02*
X8627229Y-15729984D01*
X8627229Y-15729984D02*
X8608182Y-15720460D01*
X8608182Y-15720460D02*
X8598658Y-15710936D01*
X8789134Y-15529984D02*
X8789134Y-15568079D01*
X8865325Y-15529984D02*
X8865325Y-15568079D01*
X9160563Y-15806174D02*
X9151039Y-15796650D01*
X9151039Y-15796650D02*
X9131991Y-15768079D01*
X9131991Y-15768079D02*
X9122468Y-15749031D01*
X9122468Y-15749031D02*
X9112944Y-15720460D01*
X9112944Y-15720460D02*
X9103420Y-15672841D01*
X9103420Y-15672841D02*
X9103420Y-15634746D01*
X9103420Y-15634746D02*
X9112944Y-15587127D01*
X9112944Y-15587127D02*
X9122468Y-15558555D01*
X9122468Y-15558555D02*
X9131991Y-15539508D01*
X9131991Y-15539508D02*
X9151039Y-15510936D01*
X9151039Y-15510936D02*
X9160563Y-15501412D01*
X9341515Y-15729984D02*
X9227230Y-15729984D01*
X9284372Y-15729984D02*
X9284372Y-15529984D01*
X9284372Y-15529984D02*
X9265325Y-15558555D01*
X9265325Y-15558555D02*
X9246277Y-15577603D01*
X9246277Y-15577603D02*
X9227230Y-15587127D01*
X9465325Y-15529984D02*
X9484372Y-15529984D01*
X9484372Y-15529984D02*
X9503420Y-15539508D01*
X9503420Y-15539508D02*
X9512944Y-15549031D01*
X9512944Y-15549031D02*
X9522468Y-15568079D01*
X9522468Y-15568079D02*
X9531991Y-15606174D01*
X9531991Y-15606174D02*
X9531991Y-15653793D01*
X9531991Y-15653793D02*
X9522468Y-15691888D01*
X9522468Y-15691888D02*
X9512944Y-15710936D01*
X9512944Y-15710936D02*
X9503420Y-15720460D01*
X9503420Y-15720460D02*
X9484372Y-15729984D01*
X9484372Y-15729984D02*
X9465325Y-15729984D01*
X9465325Y-15729984D02*
X9446277Y-15720460D01*
X9446277Y-15720460D02*
X9436753Y-15710936D01*
X9436753Y-15710936D02*
X9427230Y-15691888D01*
X9427230Y-15691888D02*
X9417706Y-15653793D01*
X9417706Y-15653793D02*
X9417706Y-15606174D01*
X9417706Y-15606174D02*
X9427230Y-15568079D01*
X9427230Y-15568079D02*
X9436753Y-15549031D01*
X9436753Y-15549031D02*
X9446277Y-15539508D01*
X9446277Y-15539508D02*
X9465325Y-15529984D01*
X9770087Y-15729984D02*
X9770087Y-15529984D01*
X9855801Y-15729984D02*
X9855801Y-15625222D01*
X9855801Y-15625222D02*
X9846277Y-15606174D01*
X9846277Y-15606174D02*
X9827230Y-15596650D01*
X9827230Y-15596650D02*
X9798658Y-15596650D01*
X9798658Y-15596650D02*
X9779611Y-15606174D01*
X9779611Y-15606174D02*
X9770087Y-15615698D01*
X9979611Y-15729984D02*
X9960563Y-15720460D01*
X9960563Y-15720460D02*
X9951039Y-15710936D01*
X9951039Y-15710936D02*
X9941515Y-15691888D01*
X9941515Y-15691888D02*
X9941515Y-15634746D01*
X9941515Y-15634746D02*
X9951039Y-15615698D01*
X9951039Y-15615698D02*
X9960563Y-15606174D01*
X9960563Y-15606174D02*
X9979611Y-15596650D01*
X9979611Y-15596650D02*
X10008182Y-15596650D01*
X10008182Y-15596650D02*
X10027230Y-15606174D01*
X10027230Y-15606174D02*
X10036753Y-15615698D01*
X10036753Y-15615698D02*
X10046277Y-15634746D01*
X10046277Y-15634746D02*
X10046277Y-15691888D01*
X10046277Y-15691888D02*
X10036753Y-15710936D01*
X10036753Y-15710936D02*
X10027230Y-15720460D01*
X10027230Y-15720460D02*
X10008182Y-15729984D01*
X10008182Y-15729984D02*
X9979611Y-15729984D01*
X10160563Y-15729984D02*
X10141515Y-15720460D01*
X10141515Y-15720460D02*
X10131992Y-15701412D01*
X10131992Y-15701412D02*
X10131992Y-15529984D01*
X10312944Y-15720460D02*
X10293896Y-15729984D01*
X10293896Y-15729984D02*
X10255801Y-15729984D01*
X10255801Y-15729984D02*
X10236753Y-15720460D01*
X10236753Y-15720460D02*
X10227230Y-15701412D01*
X10227230Y-15701412D02*
X10227230Y-15625222D01*
X10227230Y-15625222D02*
X10236753Y-15606174D01*
X10236753Y-15606174D02*
X10255801Y-15596650D01*
X10255801Y-15596650D02*
X10293896Y-15596650D01*
X10293896Y-15596650D02*
X10312944Y-15606174D01*
X10312944Y-15606174D02*
X10322468Y-15625222D01*
X10322468Y-15625222D02*
X10322468Y-15644269D01*
X10322468Y-15644269D02*
X10227230Y-15663317D01*
X10398658Y-15720460D02*
X10417706Y-15729984D01*
X10417706Y-15729984D02*
X10455801Y-15729984D01*
X10455801Y-15729984D02*
X10474849Y-15720460D01*
X10474849Y-15720460D02*
X10484373Y-15701412D01*
X10484373Y-15701412D02*
X10484373Y-15691888D01*
X10484373Y-15691888D02*
X10474849Y-15672841D01*
X10474849Y-15672841D02*
X10455801Y-15663317D01*
X10455801Y-15663317D02*
X10427230Y-15663317D01*
X10427230Y-15663317D02*
X10408182Y-15653793D01*
X10408182Y-15653793D02*
X10398658Y-15634746D01*
X10398658Y-15634746D02*
X10398658Y-15625222D01*
X10398658Y-15625222D02*
X10408182Y-15606174D01*
X10408182Y-15606174D02*
X10427230Y-15596650D01*
X10427230Y-15596650D02*
X10455801Y-15596650D01*
X10455801Y-15596650D02*
X10474849Y-15606174D01*
X10551039Y-15806174D02*
X10560563Y-15796650D01*
X10560563Y-15796650D02*
X10579611Y-15768079D01*
X10579611Y-15768079D02*
X10589134Y-15749031D01*
X10589134Y-15749031D02*
X10598658Y-15720460D01*
X10598658Y-15720460D02*
X10608182Y-15672841D01*
X10608182Y-15672841D02*
X10608182Y-15634746D01*
X10608182Y-15634746D02*
X10598658Y-15587127D01*
X10598658Y-15587127D02*
X10589134Y-15558555D01*
X10589134Y-15558555D02*
X10579611Y-15539508D01*
X10579611Y-15539508D02*
X10560563Y-15510936D01*
X10560563Y-15510936D02*
X10551039Y-15501412D01*
D12*
X5535500Y-15852500D02*
X5535500Y-15952500D01*
X5485500Y-15902500D02*
X5585500Y-15902500D01*
D11*
X5951039Y-15993984D02*
X5836753Y-15993984D01*
X5893896Y-15993984D02*
X5893896Y-15793984D01*
X5893896Y-15793984D02*
X5874848Y-15822555D01*
X5874848Y-15822555D02*
X5855801Y-15841603D01*
X5855801Y-15841603D02*
X5836753Y-15851127D01*
X6036753Y-15974936D02*
X6046277Y-15984460D01*
X6046277Y-15984460D02*
X6036753Y-15993984D01*
X6036753Y-15993984D02*
X6027229Y-15984460D01*
X6027229Y-15984460D02*
X6036753Y-15974936D01*
X6036753Y-15974936D02*
X6036753Y-15993984D01*
X6170086Y-15793984D02*
X6189134Y-15793984D01*
X6189134Y-15793984D02*
X6208182Y-15803508D01*
X6208182Y-15803508D02*
X6217705Y-15813031D01*
X6217705Y-15813031D02*
X6227229Y-15832079D01*
X6227229Y-15832079D02*
X6236753Y-15870174D01*
X6236753Y-15870174D02*
X6236753Y-15917793D01*
X6236753Y-15917793D02*
X6227229Y-15955888D01*
X6227229Y-15955888D02*
X6217705Y-15974936D01*
X6217705Y-15974936D02*
X6208182Y-15984460D01*
X6208182Y-15984460D02*
X6189134Y-15993984D01*
X6189134Y-15993984D02*
X6170086Y-15993984D01*
X6170086Y-15993984D02*
X6151039Y-15984460D01*
X6151039Y-15984460D02*
X6141515Y-15974936D01*
X6141515Y-15974936D02*
X6131991Y-15955888D01*
X6131991Y-15955888D02*
X6122467Y-15917793D01*
X6122467Y-15917793D02*
X6122467Y-15870174D01*
X6122467Y-15870174D02*
X6131991Y-15832079D01*
X6131991Y-15832079D02*
X6141515Y-15813031D01*
X6141515Y-15813031D02*
X6151039Y-15803508D01*
X6151039Y-15803508D02*
X6170086Y-15793984D01*
X6360562Y-15793984D02*
X6379610Y-15793984D01*
X6379610Y-15793984D02*
X6398658Y-15803508D01*
X6398658Y-15803508D02*
X6408182Y-15813031D01*
X6408182Y-15813031D02*
X6417705Y-15832079D01*
X6417705Y-15832079D02*
X6427229Y-15870174D01*
X6427229Y-15870174D02*
X6427229Y-15917793D01*
X6427229Y-15917793D02*
X6417705Y-15955888D01*
X6417705Y-15955888D02*
X6408182Y-15974936D01*
X6408182Y-15974936D02*
X6398658Y-15984460D01*
X6398658Y-15984460D02*
X6379610Y-15993984D01*
X6379610Y-15993984D02*
X6360562Y-15993984D01*
X6360562Y-15993984D02*
X6341515Y-15984460D01*
X6341515Y-15984460D02*
X6331991Y-15974936D01*
X6331991Y-15974936D02*
X6322467Y-15955888D01*
X6322467Y-15955888D02*
X6312943Y-15917793D01*
X6312943Y-15917793D02*
X6312943Y-15870174D01*
X6312943Y-15870174D02*
X6322467Y-15832079D01*
X6322467Y-15832079D02*
X6331991Y-15813031D01*
X6331991Y-15813031D02*
X6341515Y-15803508D01*
X6341515Y-15803508D02*
X6360562Y-15793984D01*
X6551039Y-15793984D02*
X6570086Y-15793984D01*
X6570086Y-15793984D02*
X6589134Y-15803508D01*
X6589134Y-15803508D02*
X6598658Y-15813031D01*
X6598658Y-15813031D02*
X6608182Y-15832079D01*
X6608182Y-15832079D02*
X6617705Y-15870174D01*
X6617705Y-15870174D02*
X6617705Y-15917793D01*
X6617705Y-15917793D02*
X6608182Y-15955888D01*
X6608182Y-15955888D02*
X6598658Y-15974936D01*
X6598658Y-15974936D02*
X6589134Y-15984460D01*
X6589134Y-15984460D02*
X6570086Y-15993984D01*
X6570086Y-15993984D02*
X6551039Y-15993984D01*
X6551039Y-15993984D02*
X6531991Y-15984460D01*
X6531991Y-15984460D02*
X6522467Y-15974936D01*
X6522467Y-15974936D02*
X6512943Y-15955888D01*
X6512943Y-15955888D02*
X6503420Y-15917793D01*
X6503420Y-15917793D02*
X6503420Y-15870174D01*
X6503420Y-15870174D02*
X6512943Y-15832079D01*
X6512943Y-15832079D02*
X6522467Y-15813031D01*
X6522467Y-15813031D02*
X6531991Y-15803508D01*
X6531991Y-15803508D02*
X6551039Y-15793984D01*
X6703420Y-15993984D02*
X6703420Y-15860650D01*
X6703420Y-15879698D02*
X6712943Y-15870174D01*
X6712943Y-15870174D02*
X6731991Y-15860650D01*
X6731991Y-15860650D02*
X6760563Y-15860650D01*
X6760563Y-15860650D02*
X6779610Y-15870174D01*
X6779610Y-15870174D02*
X6789134Y-15889222D01*
X6789134Y-15889222D02*
X6789134Y-15993984D01*
X6789134Y-15889222D02*
X6798658Y-15870174D01*
X6798658Y-15870174D02*
X6817705Y-15860650D01*
X6817705Y-15860650D02*
X6846277Y-15860650D01*
X6846277Y-15860650D02*
X6865324Y-15870174D01*
X6865324Y-15870174D02*
X6874848Y-15889222D01*
X6874848Y-15889222D02*
X6874848Y-15993984D01*
X6970086Y-15993984D02*
X6970086Y-15860650D01*
X6970086Y-15879698D02*
X6979610Y-15870174D01*
X6979610Y-15870174D02*
X6998658Y-15860650D01*
X6998658Y-15860650D02*
X7027229Y-15860650D01*
X7027229Y-15860650D02*
X7046277Y-15870174D01*
X7046277Y-15870174D02*
X7055801Y-15889222D01*
X7055801Y-15889222D02*
X7055801Y-15993984D01*
X7055801Y-15889222D02*
X7065324Y-15870174D01*
X7065324Y-15870174D02*
X7084372Y-15860650D01*
X7084372Y-15860650D02*
X7112943Y-15860650D01*
X7112943Y-15860650D02*
X7131991Y-15870174D01*
X7131991Y-15870174D02*
X7141515Y-15889222D01*
X7141515Y-15889222D02*
X7141515Y-15993984D01*
X7531991Y-15784460D02*
X7360563Y-16041603D01*
X7789134Y-15793984D02*
X7808182Y-15793984D01*
X7808182Y-15793984D02*
X7827229Y-15803508D01*
X7827229Y-15803508D02*
X7836753Y-15813031D01*
X7836753Y-15813031D02*
X7846277Y-15832079D01*
X7846277Y-15832079D02*
X7855801Y-15870174D01*
X7855801Y-15870174D02*
X7855801Y-15917793D01*
X7855801Y-15917793D02*
X7846277Y-15955888D01*
X7846277Y-15955888D02*
X7836753Y-15974936D01*
X7836753Y-15974936D02*
X7827229Y-15984460D01*
X7827229Y-15984460D02*
X7808182Y-15993984D01*
X7808182Y-15993984D02*
X7789134Y-15993984D01*
X7789134Y-15993984D02*
X7770086Y-15984460D01*
X7770086Y-15984460D02*
X7760563Y-15974936D01*
X7760563Y-15974936D02*
X7751039Y-15955888D01*
X7751039Y-15955888D02*
X7741515Y-15917793D01*
X7741515Y-15917793D02*
X7741515Y-15870174D01*
X7741515Y-15870174D02*
X7751039Y-15832079D01*
X7751039Y-15832079D02*
X7760563Y-15813031D01*
X7760563Y-15813031D02*
X7770086Y-15803508D01*
X7770086Y-15803508D02*
X7789134Y-15793984D01*
X7941515Y-15974936D02*
X7951039Y-15984460D01*
X7951039Y-15984460D02*
X7941515Y-15993984D01*
X7941515Y-15993984D02*
X7931991Y-15984460D01*
X7931991Y-15984460D02*
X7941515Y-15974936D01*
X7941515Y-15974936D02*
X7941515Y-15993984D01*
X8074848Y-15793984D02*
X8093896Y-15793984D01*
X8093896Y-15793984D02*
X8112944Y-15803508D01*
X8112944Y-15803508D02*
X8122467Y-15813031D01*
X8122467Y-15813031D02*
X8131991Y-15832079D01*
X8131991Y-15832079D02*
X8141515Y-15870174D01*
X8141515Y-15870174D02*
X8141515Y-15917793D01*
X8141515Y-15917793D02*
X8131991Y-15955888D01*
X8131991Y-15955888D02*
X8122467Y-15974936D01*
X8122467Y-15974936D02*
X8112944Y-15984460D01*
X8112944Y-15984460D02*
X8093896Y-15993984D01*
X8093896Y-15993984D02*
X8074848Y-15993984D01*
X8074848Y-15993984D02*
X8055801Y-15984460D01*
X8055801Y-15984460D02*
X8046277Y-15974936D01*
X8046277Y-15974936D02*
X8036753Y-15955888D01*
X8036753Y-15955888D02*
X8027229Y-15917793D01*
X8027229Y-15917793D02*
X8027229Y-15870174D01*
X8027229Y-15870174D02*
X8036753Y-15832079D01*
X8036753Y-15832079D02*
X8046277Y-15813031D01*
X8046277Y-15813031D02*
X8055801Y-15803508D01*
X8055801Y-15803508D02*
X8074848Y-15793984D01*
X8208182Y-15793984D02*
X8331991Y-15793984D01*
X8331991Y-15793984D02*
X8265325Y-15870174D01*
X8265325Y-15870174D02*
X8293896Y-15870174D01*
X8293896Y-15870174D02*
X8312944Y-15879698D01*
X8312944Y-15879698D02*
X8322467Y-15889222D01*
X8322467Y-15889222D02*
X8331991Y-15908269D01*
X8331991Y-15908269D02*
X8331991Y-15955888D01*
X8331991Y-15955888D02*
X8322467Y-15974936D01*
X8322467Y-15974936D02*
X8312944Y-15984460D01*
X8312944Y-15984460D02*
X8293896Y-15993984D01*
X8293896Y-15993984D02*
X8236753Y-15993984D01*
X8236753Y-15993984D02*
X8217706Y-15984460D01*
X8217706Y-15984460D02*
X8208182Y-15974936D01*
X8427229Y-15993984D02*
X8465325Y-15993984D01*
X8465325Y-15993984D02*
X8484372Y-15984460D01*
X8484372Y-15984460D02*
X8493896Y-15974936D01*
X8493896Y-15974936D02*
X8512944Y-15946365D01*
X8512944Y-15946365D02*
X8522468Y-15908269D01*
X8522468Y-15908269D02*
X8522468Y-15832079D01*
X8522468Y-15832079D02*
X8512944Y-15813031D01*
X8512944Y-15813031D02*
X8503420Y-15803508D01*
X8503420Y-15803508D02*
X8484372Y-15793984D01*
X8484372Y-15793984D02*
X8446277Y-15793984D01*
X8446277Y-15793984D02*
X8427229Y-15803508D01*
X8427229Y-15803508D02*
X8417706Y-15813031D01*
X8417706Y-15813031D02*
X8408182Y-15832079D01*
X8408182Y-15832079D02*
X8408182Y-15879698D01*
X8408182Y-15879698D02*
X8417706Y-15898746D01*
X8417706Y-15898746D02*
X8427229Y-15908269D01*
X8427229Y-15908269D02*
X8446277Y-15917793D01*
X8446277Y-15917793D02*
X8484372Y-15917793D01*
X8484372Y-15917793D02*
X8503420Y-15908269D01*
X8503420Y-15908269D02*
X8512944Y-15898746D01*
X8512944Y-15898746D02*
X8522468Y-15879698D01*
X8693896Y-15860650D02*
X8693896Y-15993984D01*
X8646277Y-15784460D02*
X8598658Y-15927317D01*
X8598658Y-15927317D02*
X8722468Y-15927317D01*
X8789134Y-15793984D02*
X8789134Y-15832079D01*
X8865325Y-15793984D02*
X8865325Y-15832079D01*
X9160563Y-16070174D02*
X9151039Y-16060650D01*
X9151039Y-16060650D02*
X9131991Y-16032079D01*
X9131991Y-16032079D02*
X9122468Y-16013031D01*
X9122468Y-16013031D02*
X9112944Y-15984460D01*
X9112944Y-15984460D02*
X9103420Y-15936841D01*
X9103420Y-15936841D02*
X9103420Y-15898746D01*
X9103420Y-15898746D02*
X9112944Y-15851127D01*
X9112944Y-15851127D02*
X9122468Y-15822555D01*
X9122468Y-15822555D02*
X9131991Y-15803508D01*
X9131991Y-15803508D02*
X9151039Y-15774936D01*
X9151039Y-15774936D02*
X9160563Y-15765412D01*
X9217706Y-15793984D02*
X9341515Y-15793984D01*
X9341515Y-15793984D02*
X9274849Y-15870174D01*
X9274849Y-15870174D02*
X9303420Y-15870174D01*
X9303420Y-15870174D02*
X9322468Y-15879698D01*
X9322468Y-15879698D02*
X9331991Y-15889222D01*
X9331991Y-15889222D02*
X9341515Y-15908269D01*
X9341515Y-15908269D02*
X9341515Y-15955888D01*
X9341515Y-15955888D02*
X9331991Y-15974936D01*
X9331991Y-15974936D02*
X9322468Y-15984460D01*
X9322468Y-15984460D02*
X9303420Y-15993984D01*
X9303420Y-15993984D02*
X9246277Y-15993984D01*
X9246277Y-15993984D02*
X9227230Y-15984460D01*
X9227230Y-15984460D02*
X9217706Y-15974936D01*
X9408182Y-15793984D02*
X9531991Y-15793984D01*
X9531991Y-15793984D02*
X9465325Y-15870174D01*
X9465325Y-15870174D02*
X9493896Y-15870174D01*
X9493896Y-15870174D02*
X9512944Y-15879698D01*
X9512944Y-15879698D02*
X9522468Y-15889222D01*
X9522468Y-15889222D02*
X9531991Y-15908269D01*
X9531991Y-15908269D02*
X9531991Y-15955888D01*
X9531991Y-15955888D02*
X9522468Y-15974936D01*
X9522468Y-15974936D02*
X9512944Y-15984460D01*
X9512944Y-15984460D02*
X9493896Y-15993984D01*
X9493896Y-15993984D02*
X9436753Y-15993984D01*
X9436753Y-15993984D02*
X9417706Y-15984460D01*
X9417706Y-15984460D02*
X9408182Y-15974936D01*
X9655801Y-15793984D02*
X9674849Y-15793984D01*
X9674849Y-15793984D02*
X9693896Y-15803508D01*
X9693896Y-15803508D02*
X9703420Y-15813031D01*
X9703420Y-15813031D02*
X9712944Y-15832079D01*
X9712944Y-15832079D02*
X9722468Y-15870174D01*
X9722468Y-15870174D02*
X9722468Y-15917793D01*
X9722468Y-15917793D02*
X9712944Y-15955888D01*
X9712944Y-15955888D02*
X9703420Y-15974936D01*
X9703420Y-15974936D02*
X9693896Y-15984460D01*
X9693896Y-15984460D02*
X9674849Y-15993984D01*
X9674849Y-15993984D02*
X9655801Y-15993984D01*
X9655801Y-15993984D02*
X9636753Y-15984460D01*
X9636753Y-15984460D02*
X9627230Y-15974936D01*
X9627230Y-15974936D02*
X9617706Y-15955888D01*
X9617706Y-15955888D02*
X9608182Y-15917793D01*
X9608182Y-15917793D02*
X9608182Y-15870174D01*
X9608182Y-15870174D02*
X9617706Y-15832079D01*
X9617706Y-15832079D02*
X9627230Y-15813031D01*
X9627230Y-15813031D02*
X9636753Y-15803508D01*
X9636753Y-15803508D02*
X9655801Y-15793984D01*
X9960563Y-15993984D02*
X9960563Y-15793984D01*
X10046277Y-15993984D02*
X10046277Y-15889222D01*
X10046277Y-15889222D02*
X10036753Y-15870174D01*
X10036753Y-15870174D02*
X10017706Y-15860650D01*
X10017706Y-15860650D02*
X9989134Y-15860650D01*
X9989134Y-15860650D02*
X9970087Y-15870174D01*
X9970087Y-15870174D02*
X9960563Y-15879698D01*
X10170087Y-15993984D02*
X10151039Y-15984460D01*
X10151039Y-15984460D02*
X10141515Y-15974936D01*
X10141515Y-15974936D02*
X10131992Y-15955888D01*
X10131992Y-15955888D02*
X10131992Y-15898746D01*
X10131992Y-15898746D02*
X10141515Y-15879698D01*
X10141515Y-15879698D02*
X10151039Y-15870174D01*
X10151039Y-15870174D02*
X10170087Y-15860650D01*
X10170087Y-15860650D02*
X10198658Y-15860650D01*
X10198658Y-15860650D02*
X10217706Y-15870174D01*
X10217706Y-15870174D02*
X10227230Y-15879698D01*
X10227230Y-15879698D02*
X10236753Y-15898746D01*
X10236753Y-15898746D02*
X10236753Y-15955888D01*
X10236753Y-15955888D02*
X10227230Y-15974936D01*
X10227230Y-15974936D02*
X10217706Y-15984460D01*
X10217706Y-15984460D02*
X10198658Y-15993984D01*
X10198658Y-15993984D02*
X10170087Y-15993984D01*
X10351039Y-15993984D02*
X10331992Y-15984460D01*
X10331992Y-15984460D02*
X10322468Y-15965412D01*
X10322468Y-15965412D02*
X10322468Y-15793984D01*
X10503420Y-15984460D02*
X10484373Y-15993984D01*
X10484373Y-15993984D02*
X10446277Y-15993984D01*
X10446277Y-15993984D02*
X10427230Y-15984460D01*
X10427230Y-15984460D02*
X10417706Y-15965412D01*
X10417706Y-15965412D02*
X10417706Y-15889222D01*
X10417706Y-15889222D02*
X10427230Y-15870174D01*
X10427230Y-15870174D02*
X10446277Y-15860650D01*
X10446277Y-15860650D02*
X10484373Y-15860650D01*
X10484373Y-15860650D02*
X10503420Y-15870174D01*
X10503420Y-15870174D02*
X10512944Y-15889222D01*
X10512944Y-15889222D02*
X10512944Y-15908269D01*
X10512944Y-15908269D02*
X10417706Y-15927317D01*
X10589134Y-15984460D02*
X10608182Y-15993984D01*
X10608182Y-15993984D02*
X10646277Y-15993984D01*
X10646277Y-15993984D02*
X10665325Y-15984460D01*
X10665325Y-15984460D02*
X10674849Y-15965412D01*
X10674849Y-15965412D02*
X10674849Y-15955888D01*
X10674849Y-15955888D02*
X10665325Y-15936841D01*
X10665325Y-15936841D02*
X10646277Y-15927317D01*
X10646277Y-15927317D02*
X10617706Y-15927317D01*
X10617706Y-15927317D02*
X10598658Y-15917793D01*
X10598658Y-15917793D02*
X10589134Y-15898746D01*
X10589134Y-15898746D02*
X10589134Y-15889222D01*
X10589134Y-15889222D02*
X10598658Y-15870174D01*
X10598658Y-15870174D02*
X10617706Y-15860650D01*
X10617706Y-15860650D02*
X10646277Y-15860650D01*
X10646277Y-15860650D02*
X10665325Y-15870174D01*
X10741515Y-16070174D02*
X10751039Y-16060650D01*
X10751039Y-16060650D02*
X10770087Y-16032079D01*
X10770087Y-16032079D02*
X10779611Y-16013031D01*
X10779611Y-16013031D02*
X10789134Y-15984460D01*
X10789134Y-15984460D02*
X10798658Y-15936841D01*
X10798658Y-15936841D02*
X10798658Y-15898746D01*
X10798658Y-15898746D02*
X10789134Y-15851127D01*
X10789134Y-15851127D02*
X10779611Y-15822555D01*
X10779611Y-15822555D02*
X10770087Y-15803508D01*
X10770087Y-15803508D02*
X10751039Y-15774936D01*
X10751039Y-15774936D02*
X10741515Y-15765412D01*
D13*
X5569391Y-16205391D02*
X5569391Y-16127609D01*
X5491609Y-16127609D01*
X5491609Y-16205391D01*
X5569391Y-16205391D01*
D11*
X5951039Y-16257984D02*
X5836753Y-16257984D01*
X5893896Y-16257984D02*
X5893896Y-16057984D01*
X5893896Y-16057984D02*
X5874848Y-16086555D01*
X5874848Y-16086555D02*
X5855801Y-16105603D01*
X5855801Y-16105603D02*
X5836753Y-16115127D01*
X6036753Y-16238936D02*
X6046277Y-16248460D01*
X6046277Y-16248460D02*
X6036753Y-16257984D01*
X6036753Y-16257984D02*
X6027229Y-16248460D01*
X6027229Y-16248460D02*
X6036753Y-16238936D01*
X6036753Y-16238936D02*
X6036753Y-16257984D01*
X6236753Y-16257984D02*
X6122467Y-16257984D01*
X6179610Y-16257984D02*
X6179610Y-16057984D01*
X6179610Y-16057984D02*
X6160562Y-16086555D01*
X6160562Y-16086555D02*
X6141515Y-16105603D01*
X6141515Y-16105603D02*
X6122467Y-16115127D01*
X6360562Y-16057984D02*
X6379610Y-16057984D01*
X6379610Y-16057984D02*
X6398658Y-16067508D01*
X6398658Y-16067508D02*
X6408182Y-16077031D01*
X6408182Y-16077031D02*
X6417705Y-16096079D01*
X6417705Y-16096079D02*
X6427229Y-16134174D01*
X6427229Y-16134174D02*
X6427229Y-16181793D01*
X6427229Y-16181793D02*
X6417705Y-16219888D01*
X6417705Y-16219888D02*
X6408182Y-16238936D01*
X6408182Y-16238936D02*
X6398658Y-16248460D01*
X6398658Y-16248460D02*
X6379610Y-16257984D01*
X6379610Y-16257984D02*
X6360562Y-16257984D01*
X6360562Y-16257984D02*
X6341515Y-16248460D01*
X6341515Y-16248460D02*
X6331991Y-16238936D01*
X6331991Y-16238936D02*
X6322467Y-16219888D01*
X6322467Y-16219888D02*
X6312943Y-16181793D01*
X6312943Y-16181793D02*
X6312943Y-16134174D01*
X6312943Y-16134174D02*
X6322467Y-16096079D01*
X6322467Y-16096079D02*
X6331991Y-16077031D01*
X6331991Y-16077031D02*
X6341515Y-16067508D01*
X6341515Y-16067508D02*
X6360562Y-16057984D01*
X6551039Y-16057984D02*
X6570086Y-16057984D01*
X6570086Y-16057984D02*
X6589134Y-16067508D01*
X6589134Y-16067508D02*
X6598658Y-16077031D01*
X6598658Y-16077031D02*
X6608182Y-16096079D01*
X6608182Y-16096079D02*
X6617705Y-16134174D01*
X6617705Y-16134174D02*
X6617705Y-16181793D01*
X6617705Y-16181793D02*
X6608182Y-16219888D01*
X6608182Y-16219888D02*
X6598658Y-16238936D01*
X6598658Y-16238936D02*
X6589134Y-16248460D01*
X6589134Y-16248460D02*
X6570086Y-16257984D01*
X6570086Y-16257984D02*
X6551039Y-16257984D01*
X6551039Y-16257984D02*
X6531991Y-16248460D01*
X6531991Y-16248460D02*
X6522467Y-16238936D01*
X6522467Y-16238936D02*
X6512943Y-16219888D01*
X6512943Y-16219888D02*
X6503420Y-16181793D01*
X6503420Y-16181793D02*
X6503420Y-16134174D01*
X6503420Y-16134174D02*
X6512943Y-16096079D01*
X6512943Y-16096079D02*
X6522467Y-16077031D01*
X6522467Y-16077031D02*
X6531991Y-16067508D01*
X6531991Y-16067508D02*
X6551039Y-16057984D01*
X6703420Y-16257984D02*
X6703420Y-16124650D01*
X6703420Y-16143698D02*
X6712943Y-16134174D01*
X6712943Y-16134174D02*
X6731991Y-16124650D01*
X6731991Y-16124650D02*
X6760563Y-16124650D01*
X6760563Y-16124650D02*
X6779610Y-16134174D01*
X6779610Y-16134174D02*
X6789134Y-16153222D01*
X6789134Y-16153222D02*
X6789134Y-16257984D01*
X6789134Y-16153222D02*
X6798658Y-16134174D01*
X6798658Y-16134174D02*
X6817705Y-16124650D01*
X6817705Y-16124650D02*
X6846277Y-16124650D01*
X6846277Y-16124650D02*
X6865324Y-16134174D01*
X6865324Y-16134174D02*
X6874848Y-16153222D01*
X6874848Y-16153222D02*
X6874848Y-16257984D01*
X6970086Y-16257984D02*
X6970086Y-16124650D01*
X6970086Y-16143698D02*
X6979610Y-16134174D01*
X6979610Y-16134174D02*
X6998658Y-16124650D01*
X6998658Y-16124650D02*
X7027229Y-16124650D01*
X7027229Y-16124650D02*
X7046277Y-16134174D01*
X7046277Y-16134174D02*
X7055801Y-16153222D01*
X7055801Y-16153222D02*
X7055801Y-16257984D01*
X7055801Y-16153222D02*
X7065324Y-16134174D01*
X7065324Y-16134174D02*
X7084372Y-16124650D01*
X7084372Y-16124650D02*
X7112943Y-16124650D01*
X7112943Y-16124650D02*
X7131991Y-16134174D01*
X7131991Y-16134174D02*
X7141515Y-16153222D01*
X7141515Y-16153222D02*
X7141515Y-16257984D01*
X7531991Y-16048460D02*
X7360563Y-16305603D01*
X7789134Y-16057984D02*
X7808182Y-16057984D01*
X7808182Y-16057984D02*
X7827229Y-16067508D01*
X7827229Y-16067508D02*
X7836753Y-16077031D01*
X7836753Y-16077031D02*
X7846277Y-16096079D01*
X7846277Y-16096079D02*
X7855801Y-16134174D01*
X7855801Y-16134174D02*
X7855801Y-16181793D01*
X7855801Y-16181793D02*
X7846277Y-16219888D01*
X7846277Y-16219888D02*
X7836753Y-16238936D01*
X7836753Y-16238936D02*
X7827229Y-16248460D01*
X7827229Y-16248460D02*
X7808182Y-16257984D01*
X7808182Y-16257984D02*
X7789134Y-16257984D01*
X7789134Y-16257984D02*
X7770086Y-16248460D01*
X7770086Y-16248460D02*
X7760563Y-16238936D01*
X7760563Y-16238936D02*
X7751039Y-16219888D01*
X7751039Y-16219888D02*
X7741515Y-16181793D01*
X7741515Y-16181793D02*
X7741515Y-16134174D01*
X7741515Y-16134174D02*
X7751039Y-16096079D01*
X7751039Y-16096079D02*
X7760563Y-16077031D01*
X7760563Y-16077031D02*
X7770086Y-16067508D01*
X7770086Y-16067508D02*
X7789134Y-16057984D01*
X7941515Y-16238936D02*
X7951039Y-16248460D01*
X7951039Y-16248460D02*
X7941515Y-16257984D01*
X7941515Y-16257984D02*
X7931991Y-16248460D01*
X7931991Y-16248460D02*
X7941515Y-16238936D01*
X7941515Y-16238936D02*
X7941515Y-16257984D01*
X8074848Y-16057984D02*
X8093896Y-16057984D01*
X8093896Y-16057984D02*
X8112944Y-16067508D01*
X8112944Y-16067508D02*
X8122467Y-16077031D01*
X8122467Y-16077031D02*
X8131991Y-16096079D01*
X8131991Y-16096079D02*
X8141515Y-16134174D01*
X8141515Y-16134174D02*
X8141515Y-16181793D01*
X8141515Y-16181793D02*
X8131991Y-16219888D01*
X8131991Y-16219888D02*
X8122467Y-16238936D01*
X8122467Y-16238936D02*
X8112944Y-16248460D01*
X8112944Y-16248460D02*
X8093896Y-16257984D01*
X8093896Y-16257984D02*
X8074848Y-16257984D01*
X8074848Y-16257984D02*
X8055801Y-16248460D01*
X8055801Y-16248460D02*
X8046277Y-16238936D01*
X8046277Y-16238936D02*
X8036753Y-16219888D01*
X8036753Y-16219888D02*
X8027229Y-16181793D01*
X8027229Y-16181793D02*
X8027229Y-16134174D01*
X8027229Y-16134174D02*
X8036753Y-16096079D01*
X8036753Y-16096079D02*
X8046277Y-16077031D01*
X8046277Y-16077031D02*
X8055801Y-16067508D01*
X8055801Y-16067508D02*
X8074848Y-16057984D01*
X8312944Y-16124650D02*
X8312944Y-16257984D01*
X8265325Y-16048460D02*
X8217706Y-16191317D01*
X8217706Y-16191317D02*
X8341515Y-16191317D01*
X8398658Y-16057984D02*
X8522468Y-16057984D01*
X8522468Y-16057984D02*
X8455801Y-16134174D01*
X8455801Y-16134174D02*
X8484372Y-16134174D01*
X8484372Y-16134174D02*
X8503420Y-16143698D01*
X8503420Y-16143698D02*
X8512944Y-16153222D01*
X8512944Y-16153222D02*
X8522468Y-16172269D01*
X8522468Y-16172269D02*
X8522468Y-16219888D01*
X8522468Y-16219888D02*
X8512944Y-16238936D01*
X8512944Y-16238936D02*
X8503420Y-16248460D01*
X8503420Y-16248460D02*
X8484372Y-16257984D01*
X8484372Y-16257984D02*
X8427229Y-16257984D01*
X8427229Y-16257984D02*
X8408182Y-16248460D01*
X8408182Y-16248460D02*
X8398658Y-16238936D01*
X8589134Y-16057984D02*
X8712944Y-16057984D01*
X8712944Y-16057984D02*
X8646277Y-16134174D01*
X8646277Y-16134174D02*
X8674849Y-16134174D01*
X8674849Y-16134174D02*
X8693896Y-16143698D01*
X8693896Y-16143698D02*
X8703420Y-16153222D01*
X8703420Y-16153222D02*
X8712944Y-16172269D01*
X8712944Y-16172269D02*
X8712944Y-16219888D01*
X8712944Y-16219888D02*
X8703420Y-16238936D01*
X8703420Y-16238936D02*
X8693896Y-16248460D01*
X8693896Y-16248460D02*
X8674849Y-16257984D01*
X8674849Y-16257984D02*
X8617706Y-16257984D01*
X8617706Y-16257984D02*
X8598658Y-16248460D01*
X8598658Y-16248460D02*
X8589134Y-16238936D01*
X8789134Y-16057984D02*
X8789134Y-16096079D01*
X8865325Y-16057984D02*
X8865325Y-16096079D01*
X9160563Y-16334174D02*
X9151039Y-16324650D01*
X9151039Y-16324650D02*
X9131991Y-16296079D01*
X9131991Y-16296079D02*
X9122468Y-16277031D01*
X9122468Y-16277031D02*
X9112944Y-16248460D01*
X9112944Y-16248460D02*
X9103420Y-16200841D01*
X9103420Y-16200841D02*
X9103420Y-16162746D01*
X9103420Y-16162746D02*
X9112944Y-16115127D01*
X9112944Y-16115127D02*
X9122468Y-16086555D01*
X9122468Y-16086555D02*
X9131991Y-16067508D01*
X9131991Y-16067508D02*
X9151039Y-16038936D01*
X9151039Y-16038936D02*
X9160563Y-16029412D01*
X9217706Y-16057984D02*
X9341515Y-16057984D01*
X9341515Y-16057984D02*
X9274849Y-16134174D01*
X9274849Y-16134174D02*
X9303420Y-16134174D01*
X9303420Y-16134174D02*
X9322468Y-16143698D01*
X9322468Y-16143698D02*
X9331991Y-16153222D01*
X9331991Y-16153222D02*
X9341515Y-16172269D01*
X9341515Y-16172269D02*
X9341515Y-16219888D01*
X9341515Y-16219888D02*
X9331991Y-16238936D01*
X9331991Y-16238936D02*
X9322468Y-16248460D01*
X9322468Y-16248460D02*
X9303420Y-16257984D01*
X9303420Y-16257984D02*
X9246277Y-16257984D01*
X9246277Y-16257984D02*
X9227230Y-16248460D01*
X9227230Y-16248460D02*
X9217706Y-16238936D01*
X9579611Y-16257984D02*
X9579611Y-16057984D01*
X9665325Y-16257984D02*
X9665325Y-16153222D01*
X9665325Y-16153222D02*
X9655801Y-16134174D01*
X9655801Y-16134174D02*
X9636753Y-16124650D01*
X9636753Y-16124650D02*
X9608182Y-16124650D01*
X9608182Y-16124650D02*
X9589134Y-16134174D01*
X9589134Y-16134174D02*
X9579611Y-16143698D01*
X9789134Y-16257984D02*
X9770087Y-16248460D01*
X9770087Y-16248460D02*
X9760563Y-16238936D01*
X9760563Y-16238936D02*
X9751039Y-16219888D01*
X9751039Y-16219888D02*
X9751039Y-16162746D01*
X9751039Y-16162746D02*
X9760563Y-16143698D01*
X9760563Y-16143698D02*
X9770087Y-16134174D01*
X9770087Y-16134174D02*
X9789134Y-16124650D01*
X9789134Y-16124650D02*
X9817706Y-16124650D01*
X9817706Y-16124650D02*
X9836753Y-16134174D01*
X9836753Y-16134174D02*
X9846277Y-16143698D01*
X9846277Y-16143698D02*
X9855801Y-16162746D01*
X9855801Y-16162746D02*
X9855801Y-16219888D01*
X9855801Y-16219888D02*
X9846277Y-16238936D01*
X9846277Y-16238936D02*
X9836753Y-16248460D01*
X9836753Y-16248460D02*
X9817706Y-16257984D01*
X9817706Y-16257984D02*
X9789134Y-16257984D01*
X9970087Y-16257984D02*
X9951039Y-16248460D01*
X9951039Y-16248460D02*
X9941515Y-16229412D01*
X9941515Y-16229412D02*
X9941515Y-16057984D01*
X10122468Y-16248460D02*
X10103420Y-16257984D01*
X10103420Y-16257984D02*
X10065325Y-16257984D01*
X10065325Y-16257984D02*
X10046277Y-16248460D01*
X10046277Y-16248460D02*
X10036753Y-16229412D01*
X10036753Y-16229412D02*
X10036753Y-16153222D01*
X10036753Y-16153222D02*
X10046277Y-16134174D01*
X10046277Y-16134174D02*
X10065325Y-16124650D01*
X10065325Y-16124650D02*
X10103420Y-16124650D01*
X10103420Y-16124650D02*
X10122468Y-16134174D01*
X10122468Y-16134174D02*
X10131992Y-16153222D01*
X10131992Y-16153222D02*
X10131992Y-16172269D01*
X10131992Y-16172269D02*
X10036753Y-16191317D01*
X10208182Y-16248460D02*
X10227230Y-16257984D01*
X10227230Y-16257984D02*
X10265325Y-16257984D01*
X10265325Y-16257984D02*
X10284373Y-16248460D01*
X10284373Y-16248460D02*
X10293896Y-16229412D01*
X10293896Y-16229412D02*
X10293896Y-16219888D01*
X10293896Y-16219888D02*
X10284373Y-16200841D01*
X10284373Y-16200841D02*
X10265325Y-16191317D01*
X10265325Y-16191317D02*
X10236753Y-16191317D01*
X10236753Y-16191317D02*
X10217706Y-16181793D01*
X10217706Y-16181793D02*
X10208182Y-16162746D01*
X10208182Y-16162746D02*
X10208182Y-16153222D01*
X10208182Y-16153222D02*
X10217706Y-16134174D01*
X10217706Y-16134174D02*
X10236753Y-16124650D01*
X10236753Y-16124650D02*
X10265325Y-16124650D01*
X10265325Y-16124650D02*
X10284373Y-16134174D01*
X10360563Y-16334174D02*
X10370087Y-16324650D01*
X10370087Y-16324650D02*
X10389134Y-16296079D01*
X10389134Y-16296079D02*
X10398658Y-16277031D01*
X10398658Y-16277031D02*
X10408182Y-16248460D01*
X10408182Y-16248460D02*
X10417706Y-16200841D01*
X10417706Y-16200841D02*
X10417706Y-16162746D01*
X10417706Y-16162746D02*
X10408182Y-16115127D01*
X10408182Y-16115127D02*
X10398658Y-16086555D01*
X10398658Y-16086555D02*
X10389134Y-16067508D01*
X10389134Y-16067508D02*
X10370087Y-16038936D01*
X10370087Y-16038936D02*
X10360563Y-16029412D01*
D14*
X5526000Y-16490000D02*
X5585500Y-16430500D01*
X5526000Y-16371000D01*
X5466500Y-16430500D01*
X5526000Y-16490000D01*
D11*
X5951039Y-16521984D02*
X5836753Y-16521984D01*
X5893896Y-16521984D02*
X5893896Y-16321984D01*
X5893896Y-16321984D02*
X5874848Y-16350555D01*
X5874848Y-16350555D02*
X5855801Y-16369603D01*
X5855801Y-16369603D02*
X5836753Y-16379127D01*
X6036753Y-16502936D02*
X6046277Y-16512460D01*
X6046277Y-16512460D02*
X6036753Y-16521984D01*
X6036753Y-16521984D02*
X6027229Y-16512460D01*
X6027229Y-16512460D02*
X6036753Y-16502936D01*
X6036753Y-16502936D02*
X6036753Y-16521984D01*
X6236753Y-16521984D02*
X6122467Y-16521984D01*
X6179610Y-16521984D02*
X6179610Y-16321984D01*
X6179610Y-16321984D02*
X6160562Y-16350555D01*
X6160562Y-16350555D02*
X6141515Y-16369603D01*
X6141515Y-16369603D02*
X6122467Y-16379127D01*
X6331991Y-16521984D02*
X6370086Y-16521984D01*
X6370086Y-16521984D02*
X6389134Y-16512460D01*
X6389134Y-16512460D02*
X6398658Y-16502936D01*
X6398658Y-16502936D02*
X6417705Y-16474365D01*
X6417705Y-16474365D02*
X6427229Y-16436269D01*
X6427229Y-16436269D02*
X6427229Y-16360079D01*
X6427229Y-16360079D02*
X6417705Y-16341031D01*
X6417705Y-16341031D02*
X6408182Y-16331508D01*
X6408182Y-16331508D02*
X6389134Y-16321984D01*
X6389134Y-16321984D02*
X6351039Y-16321984D01*
X6351039Y-16321984D02*
X6331991Y-16331508D01*
X6331991Y-16331508D02*
X6322467Y-16341031D01*
X6322467Y-16341031D02*
X6312943Y-16360079D01*
X6312943Y-16360079D02*
X6312943Y-16407698D01*
X6312943Y-16407698D02*
X6322467Y-16426746D01*
X6322467Y-16426746D02*
X6331991Y-16436269D01*
X6331991Y-16436269D02*
X6351039Y-16445793D01*
X6351039Y-16445793D02*
X6389134Y-16445793D01*
X6389134Y-16445793D02*
X6408182Y-16436269D01*
X6408182Y-16436269D02*
X6417705Y-16426746D01*
X6417705Y-16426746D02*
X6427229Y-16407698D01*
X6551039Y-16321984D02*
X6570086Y-16321984D01*
X6570086Y-16321984D02*
X6589134Y-16331508D01*
X6589134Y-16331508D02*
X6598658Y-16341031D01*
X6598658Y-16341031D02*
X6608182Y-16360079D01*
X6608182Y-16360079D02*
X6617705Y-16398174D01*
X6617705Y-16398174D02*
X6617705Y-16445793D01*
X6617705Y-16445793D02*
X6608182Y-16483888D01*
X6608182Y-16483888D02*
X6598658Y-16502936D01*
X6598658Y-16502936D02*
X6589134Y-16512460D01*
X6589134Y-16512460D02*
X6570086Y-16521984D01*
X6570086Y-16521984D02*
X6551039Y-16521984D01*
X6551039Y-16521984D02*
X6531991Y-16512460D01*
X6531991Y-16512460D02*
X6522467Y-16502936D01*
X6522467Y-16502936D02*
X6512943Y-16483888D01*
X6512943Y-16483888D02*
X6503420Y-16445793D01*
X6503420Y-16445793D02*
X6503420Y-16398174D01*
X6503420Y-16398174D02*
X6512943Y-16360079D01*
X6512943Y-16360079D02*
X6522467Y-16341031D01*
X6522467Y-16341031D02*
X6531991Y-16331508D01*
X6531991Y-16331508D02*
X6551039Y-16321984D01*
X6703420Y-16521984D02*
X6703420Y-16388650D01*
X6703420Y-16407698D02*
X6712943Y-16398174D01*
X6712943Y-16398174D02*
X6731991Y-16388650D01*
X6731991Y-16388650D02*
X6760563Y-16388650D01*
X6760563Y-16388650D02*
X6779610Y-16398174D01*
X6779610Y-16398174D02*
X6789134Y-16417222D01*
X6789134Y-16417222D02*
X6789134Y-16521984D01*
X6789134Y-16417222D02*
X6798658Y-16398174D01*
X6798658Y-16398174D02*
X6817705Y-16388650D01*
X6817705Y-16388650D02*
X6846277Y-16388650D01*
X6846277Y-16388650D02*
X6865324Y-16398174D01*
X6865324Y-16398174D02*
X6874848Y-16417222D01*
X6874848Y-16417222D02*
X6874848Y-16521984D01*
X6970086Y-16521984D02*
X6970086Y-16388650D01*
X6970086Y-16407698D02*
X6979610Y-16398174D01*
X6979610Y-16398174D02*
X6998658Y-16388650D01*
X6998658Y-16388650D02*
X7027229Y-16388650D01*
X7027229Y-16388650D02*
X7046277Y-16398174D01*
X7046277Y-16398174D02*
X7055801Y-16417222D01*
X7055801Y-16417222D02*
X7055801Y-16521984D01*
X7055801Y-16417222D02*
X7065324Y-16398174D01*
X7065324Y-16398174D02*
X7084372Y-16388650D01*
X7084372Y-16388650D02*
X7112943Y-16388650D01*
X7112943Y-16388650D02*
X7131991Y-16398174D01*
X7131991Y-16398174D02*
X7141515Y-16417222D01*
X7141515Y-16417222D02*
X7141515Y-16521984D01*
X7531991Y-16312460D02*
X7360563Y-16569603D01*
X7789134Y-16321984D02*
X7808182Y-16321984D01*
X7808182Y-16321984D02*
X7827229Y-16331508D01*
X7827229Y-16331508D02*
X7836753Y-16341031D01*
X7836753Y-16341031D02*
X7846277Y-16360079D01*
X7846277Y-16360079D02*
X7855801Y-16398174D01*
X7855801Y-16398174D02*
X7855801Y-16445793D01*
X7855801Y-16445793D02*
X7846277Y-16483888D01*
X7846277Y-16483888D02*
X7836753Y-16502936D01*
X7836753Y-16502936D02*
X7827229Y-16512460D01*
X7827229Y-16512460D02*
X7808182Y-16521984D01*
X7808182Y-16521984D02*
X7789134Y-16521984D01*
X7789134Y-16521984D02*
X7770086Y-16512460D01*
X7770086Y-16512460D02*
X7760563Y-16502936D01*
X7760563Y-16502936D02*
X7751039Y-16483888D01*
X7751039Y-16483888D02*
X7741515Y-16445793D01*
X7741515Y-16445793D02*
X7741515Y-16398174D01*
X7741515Y-16398174D02*
X7751039Y-16360079D01*
X7751039Y-16360079D02*
X7760563Y-16341031D01*
X7760563Y-16341031D02*
X7770086Y-16331508D01*
X7770086Y-16331508D02*
X7789134Y-16321984D01*
X7941515Y-16502936D02*
X7951039Y-16512460D01*
X7951039Y-16512460D02*
X7941515Y-16521984D01*
X7941515Y-16521984D02*
X7931991Y-16512460D01*
X7931991Y-16512460D02*
X7941515Y-16502936D01*
X7941515Y-16502936D02*
X7941515Y-16521984D01*
X8074848Y-16321984D02*
X8093896Y-16321984D01*
X8093896Y-16321984D02*
X8112944Y-16331508D01*
X8112944Y-16331508D02*
X8122467Y-16341031D01*
X8122467Y-16341031D02*
X8131991Y-16360079D01*
X8131991Y-16360079D02*
X8141515Y-16398174D01*
X8141515Y-16398174D02*
X8141515Y-16445793D01*
X8141515Y-16445793D02*
X8131991Y-16483888D01*
X8131991Y-16483888D02*
X8122467Y-16502936D01*
X8122467Y-16502936D02*
X8112944Y-16512460D01*
X8112944Y-16512460D02*
X8093896Y-16521984D01*
X8093896Y-16521984D02*
X8074848Y-16521984D01*
X8074848Y-16521984D02*
X8055801Y-16512460D01*
X8055801Y-16512460D02*
X8046277Y-16502936D01*
X8046277Y-16502936D02*
X8036753Y-16483888D01*
X8036753Y-16483888D02*
X8027229Y-16445793D01*
X8027229Y-16445793D02*
X8027229Y-16398174D01*
X8027229Y-16398174D02*
X8036753Y-16360079D01*
X8036753Y-16360079D02*
X8046277Y-16341031D01*
X8046277Y-16341031D02*
X8055801Y-16331508D01*
X8055801Y-16331508D02*
X8074848Y-16321984D01*
X8312944Y-16388650D02*
X8312944Y-16521984D01*
X8265325Y-16312460D02*
X8217706Y-16455317D01*
X8217706Y-16455317D02*
X8341515Y-16455317D01*
X8503420Y-16321984D02*
X8465325Y-16321984D01*
X8465325Y-16321984D02*
X8446277Y-16331508D01*
X8446277Y-16331508D02*
X8436753Y-16341031D01*
X8436753Y-16341031D02*
X8417706Y-16369603D01*
X8417706Y-16369603D02*
X8408182Y-16407698D01*
X8408182Y-16407698D02*
X8408182Y-16483888D01*
X8408182Y-16483888D02*
X8417706Y-16502936D01*
X8417706Y-16502936D02*
X8427229Y-16512460D01*
X8427229Y-16512460D02*
X8446277Y-16521984D01*
X8446277Y-16521984D02*
X8484372Y-16521984D01*
X8484372Y-16521984D02*
X8503420Y-16512460D01*
X8503420Y-16512460D02*
X8512944Y-16502936D01*
X8512944Y-16502936D02*
X8522468Y-16483888D01*
X8522468Y-16483888D02*
X8522468Y-16436269D01*
X8522468Y-16436269D02*
X8512944Y-16417222D01*
X8512944Y-16417222D02*
X8503420Y-16407698D01*
X8503420Y-16407698D02*
X8484372Y-16398174D01*
X8484372Y-16398174D02*
X8446277Y-16398174D01*
X8446277Y-16398174D02*
X8427229Y-16407698D01*
X8427229Y-16407698D02*
X8417706Y-16417222D01*
X8417706Y-16417222D02*
X8408182Y-16436269D01*
X8617706Y-16521984D02*
X8655801Y-16521984D01*
X8655801Y-16521984D02*
X8674849Y-16512460D01*
X8674849Y-16512460D02*
X8684372Y-16502936D01*
X8684372Y-16502936D02*
X8703420Y-16474365D01*
X8703420Y-16474365D02*
X8712944Y-16436269D01*
X8712944Y-16436269D02*
X8712944Y-16360079D01*
X8712944Y-16360079D02*
X8703420Y-16341031D01*
X8703420Y-16341031D02*
X8693896Y-16331508D01*
X8693896Y-16331508D02*
X8674849Y-16321984D01*
X8674849Y-16321984D02*
X8636753Y-16321984D01*
X8636753Y-16321984D02*
X8617706Y-16331508D01*
X8617706Y-16331508D02*
X8608182Y-16341031D01*
X8608182Y-16341031D02*
X8598658Y-16360079D01*
X8598658Y-16360079D02*
X8598658Y-16407698D01*
X8598658Y-16407698D02*
X8608182Y-16426746D01*
X8608182Y-16426746D02*
X8617706Y-16436269D01*
X8617706Y-16436269D02*
X8636753Y-16445793D01*
X8636753Y-16445793D02*
X8674849Y-16445793D01*
X8674849Y-16445793D02*
X8693896Y-16436269D01*
X8693896Y-16436269D02*
X8703420Y-16426746D01*
X8703420Y-16426746D02*
X8712944Y-16407698D01*
X8789134Y-16321984D02*
X8789134Y-16360079D01*
X8865325Y-16321984D02*
X8865325Y-16360079D01*
X9160563Y-16598174D02*
X9151039Y-16588650D01*
X9151039Y-16588650D02*
X9131991Y-16560079D01*
X9131991Y-16560079D02*
X9122468Y-16541031D01*
X9122468Y-16541031D02*
X9112944Y-16512460D01*
X9112944Y-16512460D02*
X9103420Y-16464841D01*
X9103420Y-16464841D02*
X9103420Y-16426746D01*
X9103420Y-16426746D02*
X9112944Y-16379127D01*
X9112944Y-16379127D02*
X9122468Y-16350555D01*
X9122468Y-16350555D02*
X9131991Y-16331508D01*
X9131991Y-16331508D02*
X9151039Y-16302936D01*
X9151039Y-16302936D02*
X9160563Y-16293412D01*
X9322468Y-16321984D02*
X9284372Y-16321984D01*
X9284372Y-16321984D02*
X9265325Y-16331508D01*
X9265325Y-16331508D02*
X9255801Y-16341031D01*
X9255801Y-16341031D02*
X9236753Y-16369603D01*
X9236753Y-16369603D02*
X9227230Y-16407698D01*
X9227230Y-16407698D02*
X9227230Y-16483888D01*
X9227230Y-16483888D02*
X9236753Y-16502936D01*
X9236753Y-16502936D02*
X9246277Y-16512460D01*
X9246277Y-16512460D02*
X9265325Y-16521984D01*
X9265325Y-16521984D02*
X9303420Y-16521984D01*
X9303420Y-16521984D02*
X9322468Y-16512460D01*
X9322468Y-16512460D02*
X9331991Y-16502936D01*
X9331991Y-16502936D02*
X9341515Y-16483888D01*
X9341515Y-16483888D02*
X9341515Y-16436269D01*
X9341515Y-16436269D02*
X9331991Y-16417222D01*
X9331991Y-16417222D02*
X9322468Y-16407698D01*
X9322468Y-16407698D02*
X9303420Y-16398174D01*
X9303420Y-16398174D02*
X9265325Y-16398174D01*
X9265325Y-16398174D02*
X9246277Y-16407698D01*
X9246277Y-16407698D02*
X9236753Y-16417222D01*
X9236753Y-16417222D02*
X9227230Y-16436269D01*
X9408182Y-16321984D02*
X9531991Y-16321984D01*
X9531991Y-16321984D02*
X9465325Y-16398174D01*
X9465325Y-16398174D02*
X9493896Y-16398174D01*
X9493896Y-16398174D02*
X9512944Y-16407698D01*
X9512944Y-16407698D02*
X9522468Y-16417222D01*
X9522468Y-16417222D02*
X9531991Y-16436269D01*
X9531991Y-16436269D02*
X9531991Y-16483888D01*
X9531991Y-16483888D02*
X9522468Y-16502936D01*
X9522468Y-16502936D02*
X9512944Y-16512460D01*
X9512944Y-16512460D02*
X9493896Y-16521984D01*
X9493896Y-16521984D02*
X9436753Y-16521984D01*
X9436753Y-16521984D02*
X9417706Y-16512460D01*
X9417706Y-16512460D02*
X9408182Y-16502936D01*
X9770087Y-16521984D02*
X9770087Y-16321984D01*
X9855801Y-16521984D02*
X9855801Y-16417222D01*
X9855801Y-16417222D02*
X9846277Y-16398174D01*
X9846277Y-16398174D02*
X9827230Y-16388650D01*
X9827230Y-16388650D02*
X9798658Y-16388650D01*
X9798658Y-16388650D02*
X9779611Y-16398174D01*
X9779611Y-16398174D02*
X9770087Y-16407698D01*
X9979611Y-16521984D02*
X9960563Y-16512460D01*
X9960563Y-16512460D02*
X9951039Y-16502936D01*
X9951039Y-16502936D02*
X9941515Y-16483888D01*
X9941515Y-16483888D02*
X9941515Y-16426746D01*
X9941515Y-16426746D02*
X9951039Y-16407698D01*
X9951039Y-16407698D02*
X9960563Y-16398174D01*
X9960563Y-16398174D02*
X9979611Y-16388650D01*
X9979611Y-16388650D02*
X10008182Y-16388650D01*
X10008182Y-16388650D02*
X10027230Y-16398174D01*
X10027230Y-16398174D02*
X10036753Y-16407698D01*
X10036753Y-16407698D02*
X10046277Y-16426746D01*
X10046277Y-16426746D02*
X10046277Y-16483888D01*
X10046277Y-16483888D02*
X10036753Y-16502936D01*
X10036753Y-16502936D02*
X10027230Y-16512460D01*
X10027230Y-16512460D02*
X10008182Y-16521984D01*
X10008182Y-16521984D02*
X9979611Y-16521984D01*
X10160563Y-16521984D02*
X10141515Y-16512460D01*
X10141515Y-16512460D02*
X10131992Y-16493412D01*
X10131992Y-16493412D02*
X10131992Y-16321984D01*
X10312944Y-16512460D02*
X10293896Y-16521984D01*
X10293896Y-16521984D02*
X10255801Y-16521984D01*
X10255801Y-16521984D02*
X10236753Y-16512460D01*
X10236753Y-16512460D02*
X10227230Y-16493412D01*
X10227230Y-16493412D02*
X10227230Y-16417222D01*
X10227230Y-16417222D02*
X10236753Y-16398174D01*
X10236753Y-16398174D02*
X10255801Y-16388650D01*
X10255801Y-16388650D02*
X10293896Y-16388650D01*
X10293896Y-16388650D02*
X10312944Y-16398174D01*
X10312944Y-16398174D02*
X10322468Y-16417222D01*
X10322468Y-16417222D02*
X10322468Y-16436269D01*
X10322468Y-16436269D02*
X10227230Y-16455317D01*
X10398658Y-16512460D02*
X10417706Y-16521984D01*
X10417706Y-16521984D02*
X10455801Y-16521984D01*
X10455801Y-16521984D02*
X10474849Y-16512460D01*
X10474849Y-16512460D02*
X10484373Y-16493412D01*
X10484373Y-16493412D02*
X10484373Y-16483888D01*
X10484373Y-16483888D02*
X10474849Y-16464841D01*
X10474849Y-16464841D02*
X10455801Y-16455317D01*
X10455801Y-16455317D02*
X10427230Y-16455317D01*
X10427230Y-16455317D02*
X10408182Y-16445793D01*
X10408182Y-16445793D02*
X10398658Y-16426746D01*
X10398658Y-16426746D02*
X10398658Y-16417222D01*
X10398658Y-16417222D02*
X10408182Y-16398174D01*
X10408182Y-16398174D02*
X10427230Y-16388650D01*
X10427230Y-16388650D02*
X10455801Y-16388650D01*
X10455801Y-16388650D02*
X10474849Y-16398174D01*
X10551039Y-16598174D02*
X10560563Y-16588650D01*
X10560563Y-16588650D02*
X10579611Y-16560079D01*
X10579611Y-16560079D02*
X10589134Y-16541031D01*
X10589134Y-16541031D02*
X10598658Y-16512460D01*
X10598658Y-16512460D02*
X10608182Y-16464841D01*
X10608182Y-16464841D02*
X10608182Y-16426746D01*
X10608182Y-16426746D02*
X10598658Y-16379127D01*
X10598658Y-16379127D02*
X10589134Y-16350555D01*
X10589134Y-16350555D02*
X10579611Y-16331508D01*
X10579611Y-16331508D02*
X10560563Y-16302936D01*
X10560563Y-16302936D02*
X10551039Y-16293412D01*
D15*
X5433500Y-16618500D02*
X5585500Y-16770500D01*
X5585500Y-16618500D02*
X5433500Y-16770500D01*
X5585500Y-16694500D02*
G75*
G02*
X5433500Y-16694500I-76000J0D01*
G01*
X5433500Y-16694500D02*
G75*
G02*
X5585500Y-16694500I76000J0D01*
G01*
D11*
X5951039Y-16785984D02*
X5836753Y-16785984D01*
X5893896Y-16785984D02*
X5893896Y-16585984D01*
X5893896Y-16585984D02*
X5874848Y-16614555D01*
X5874848Y-16614555D02*
X5855801Y-16633603D01*
X5855801Y-16633603D02*
X5836753Y-16643127D01*
X6036753Y-16766936D02*
X6046277Y-16776460D01*
X6046277Y-16776460D02*
X6036753Y-16785984D01*
X6036753Y-16785984D02*
X6027229Y-16776460D01*
X6027229Y-16776460D02*
X6036753Y-16766936D01*
X6036753Y-16766936D02*
X6036753Y-16785984D01*
X6227229Y-16585984D02*
X6131991Y-16585984D01*
X6131991Y-16585984D02*
X6122467Y-16681222D01*
X6122467Y-16681222D02*
X6131991Y-16671698D01*
X6131991Y-16671698D02*
X6151039Y-16662174D01*
X6151039Y-16662174D02*
X6198658Y-16662174D01*
X6198658Y-16662174D02*
X6217705Y-16671698D01*
X6217705Y-16671698D02*
X6227229Y-16681222D01*
X6227229Y-16681222D02*
X6236753Y-16700269D01*
X6236753Y-16700269D02*
X6236753Y-16747888D01*
X6236753Y-16747888D02*
X6227229Y-16766936D01*
X6227229Y-16766936D02*
X6217705Y-16776460D01*
X6217705Y-16776460D02*
X6198658Y-16785984D01*
X6198658Y-16785984D02*
X6151039Y-16785984D01*
X6151039Y-16785984D02*
X6131991Y-16776460D01*
X6131991Y-16776460D02*
X6122467Y-16766936D01*
X6312943Y-16605031D02*
X6322467Y-16595508D01*
X6322467Y-16595508D02*
X6341515Y-16585984D01*
X6341515Y-16585984D02*
X6389134Y-16585984D01*
X6389134Y-16585984D02*
X6408182Y-16595508D01*
X6408182Y-16595508D02*
X6417705Y-16605031D01*
X6417705Y-16605031D02*
X6427229Y-16624079D01*
X6427229Y-16624079D02*
X6427229Y-16643127D01*
X6427229Y-16643127D02*
X6417705Y-16671698D01*
X6417705Y-16671698D02*
X6303420Y-16785984D01*
X6303420Y-16785984D02*
X6427229Y-16785984D01*
X6551039Y-16585984D02*
X6570086Y-16585984D01*
X6570086Y-16585984D02*
X6589134Y-16595508D01*
X6589134Y-16595508D02*
X6598658Y-16605031D01*
X6598658Y-16605031D02*
X6608182Y-16624079D01*
X6608182Y-16624079D02*
X6617705Y-16662174D01*
X6617705Y-16662174D02*
X6617705Y-16709793D01*
X6617705Y-16709793D02*
X6608182Y-16747888D01*
X6608182Y-16747888D02*
X6598658Y-16766936D01*
X6598658Y-16766936D02*
X6589134Y-16776460D01*
X6589134Y-16776460D02*
X6570086Y-16785984D01*
X6570086Y-16785984D02*
X6551039Y-16785984D01*
X6551039Y-16785984D02*
X6531991Y-16776460D01*
X6531991Y-16776460D02*
X6522467Y-16766936D01*
X6522467Y-16766936D02*
X6512943Y-16747888D01*
X6512943Y-16747888D02*
X6503420Y-16709793D01*
X6503420Y-16709793D02*
X6503420Y-16662174D01*
X6503420Y-16662174D02*
X6512943Y-16624079D01*
X6512943Y-16624079D02*
X6522467Y-16605031D01*
X6522467Y-16605031D02*
X6531991Y-16595508D01*
X6531991Y-16595508D02*
X6551039Y-16585984D01*
X6703420Y-16785984D02*
X6703420Y-16652650D01*
X6703420Y-16671698D02*
X6712943Y-16662174D01*
X6712943Y-16662174D02*
X6731991Y-16652650D01*
X6731991Y-16652650D02*
X6760563Y-16652650D01*
X6760563Y-16652650D02*
X6779610Y-16662174D01*
X6779610Y-16662174D02*
X6789134Y-16681222D01*
X6789134Y-16681222D02*
X6789134Y-16785984D01*
X6789134Y-16681222D02*
X6798658Y-16662174D01*
X6798658Y-16662174D02*
X6817705Y-16652650D01*
X6817705Y-16652650D02*
X6846277Y-16652650D01*
X6846277Y-16652650D02*
X6865324Y-16662174D01*
X6865324Y-16662174D02*
X6874848Y-16681222D01*
X6874848Y-16681222D02*
X6874848Y-16785984D01*
X6970086Y-16785984D02*
X6970086Y-16652650D01*
X6970086Y-16671698D02*
X6979610Y-16662174D01*
X6979610Y-16662174D02*
X6998658Y-16652650D01*
X6998658Y-16652650D02*
X7027229Y-16652650D01*
X7027229Y-16652650D02*
X7046277Y-16662174D01*
X7046277Y-16662174D02*
X7055801Y-16681222D01*
X7055801Y-16681222D02*
X7055801Y-16785984D01*
X7055801Y-16681222D02*
X7065324Y-16662174D01*
X7065324Y-16662174D02*
X7084372Y-16652650D01*
X7084372Y-16652650D02*
X7112943Y-16652650D01*
X7112943Y-16652650D02*
X7131991Y-16662174D01*
X7131991Y-16662174D02*
X7141515Y-16681222D01*
X7141515Y-16681222D02*
X7141515Y-16785984D01*
X7531991Y-16576460D02*
X7360563Y-16833603D01*
X7789134Y-16585984D02*
X7808182Y-16585984D01*
X7808182Y-16585984D02*
X7827229Y-16595508D01*
X7827229Y-16595508D02*
X7836753Y-16605031D01*
X7836753Y-16605031D02*
X7846277Y-16624079D01*
X7846277Y-16624079D02*
X7855801Y-16662174D01*
X7855801Y-16662174D02*
X7855801Y-16709793D01*
X7855801Y-16709793D02*
X7846277Y-16747888D01*
X7846277Y-16747888D02*
X7836753Y-16766936D01*
X7836753Y-16766936D02*
X7827229Y-16776460D01*
X7827229Y-16776460D02*
X7808182Y-16785984D01*
X7808182Y-16785984D02*
X7789134Y-16785984D01*
X7789134Y-16785984D02*
X7770086Y-16776460D01*
X7770086Y-16776460D02*
X7760563Y-16766936D01*
X7760563Y-16766936D02*
X7751039Y-16747888D01*
X7751039Y-16747888D02*
X7741515Y-16709793D01*
X7741515Y-16709793D02*
X7741515Y-16662174D01*
X7741515Y-16662174D02*
X7751039Y-16624079D01*
X7751039Y-16624079D02*
X7760563Y-16605031D01*
X7760563Y-16605031D02*
X7770086Y-16595508D01*
X7770086Y-16595508D02*
X7789134Y-16585984D01*
X7941515Y-16766936D02*
X7951039Y-16776460D01*
X7951039Y-16776460D02*
X7941515Y-16785984D01*
X7941515Y-16785984D02*
X7931991Y-16776460D01*
X7931991Y-16776460D02*
X7941515Y-16766936D01*
X7941515Y-16766936D02*
X7941515Y-16785984D01*
X8074848Y-16585984D02*
X8093896Y-16585984D01*
X8093896Y-16585984D02*
X8112944Y-16595508D01*
X8112944Y-16595508D02*
X8122467Y-16605031D01*
X8122467Y-16605031D02*
X8131991Y-16624079D01*
X8131991Y-16624079D02*
X8141515Y-16662174D01*
X8141515Y-16662174D02*
X8141515Y-16709793D01*
X8141515Y-16709793D02*
X8131991Y-16747888D01*
X8131991Y-16747888D02*
X8122467Y-16766936D01*
X8122467Y-16766936D02*
X8112944Y-16776460D01*
X8112944Y-16776460D02*
X8093896Y-16785984D01*
X8093896Y-16785984D02*
X8074848Y-16785984D01*
X8074848Y-16785984D02*
X8055801Y-16776460D01*
X8055801Y-16776460D02*
X8046277Y-16766936D01*
X8046277Y-16766936D02*
X8036753Y-16747888D01*
X8036753Y-16747888D02*
X8027229Y-16709793D01*
X8027229Y-16709793D02*
X8027229Y-16662174D01*
X8027229Y-16662174D02*
X8036753Y-16624079D01*
X8036753Y-16624079D02*
X8046277Y-16605031D01*
X8046277Y-16605031D02*
X8055801Y-16595508D01*
X8055801Y-16595508D02*
X8074848Y-16585984D01*
X8322467Y-16585984D02*
X8227229Y-16585984D01*
X8227229Y-16585984D02*
X8217706Y-16681222D01*
X8217706Y-16681222D02*
X8227229Y-16671698D01*
X8227229Y-16671698D02*
X8246277Y-16662174D01*
X8246277Y-16662174D02*
X8293896Y-16662174D01*
X8293896Y-16662174D02*
X8312944Y-16671698D01*
X8312944Y-16671698D02*
X8322467Y-16681222D01*
X8322467Y-16681222D02*
X8331991Y-16700269D01*
X8331991Y-16700269D02*
X8331991Y-16747888D01*
X8331991Y-16747888D02*
X8322467Y-16766936D01*
X8322467Y-16766936D02*
X8312944Y-16776460D01*
X8312944Y-16776460D02*
X8293896Y-16785984D01*
X8293896Y-16785984D02*
X8246277Y-16785984D01*
X8246277Y-16785984D02*
X8227229Y-16776460D01*
X8227229Y-16776460D02*
X8217706Y-16766936D01*
X8427229Y-16785984D02*
X8465325Y-16785984D01*
X8465325Y-16785984D02*
X8484372Y-16776460D01*
X8484372Y-16776460D02*
X8493896Y-16766936D01*
X8493896Y-16766936D02*
X8512944Y-16738365D01*
X8512944Y-16738365D02*
X8522468Y-16700269D01*
X8522468Y-16700269D02*
X8522468Y-16624079D01*
X8522468Y-16624079D02*
X8512944Y-16605031D01*
X8512944Y-16605031D02*
X8503420Y-16595508D01*
X8503420Y-16595508D02*
X8484372Y-16585984D01*
X8484372Y-16585984D02*
X8446277Y-16585984D01*
X8446277Y-16585984D02*
X8427229Y-16595508D01*
X8427229Y-16595508D02*
X8417706Y-16605031D01*
X8417706Y-16605031D02*
X8408182Y-16624079D01*
X8408182Y-16624079D02*
X8408182Y-16671698D01*
X8408182Y-16671698D02*
X8417706Y-16690746D01*
X8417706Y-16690746D02*
X8427229Y-16700269D01*
X8427229Y-16700269D02*
X8446277Y-16709793D01*
X8446277Y-16709793D02*
X8484372Y-16709793D01*
X8484372Y-16709793D02*
X8503420Y-16700269D01*
X8503420Y-16700269D02*
X8512944Y-16690746D01*
X8512944Y-16690746D02*
X8522468Y-16671698D01*
X8636753Y-16671698D02*
X8617706Y-16662174D01*
X8617706Y-16662174D02*
X8608182Y-16652650D01*
X8608182Y-16652650D02*
X8598658Y-16633603D01*
X8598658Y-16633603D02*
X8598658Y-16624079D01*
X8598658Y-16624079D02*
X8608182Y-16605031D01*
X8608182Y-16605031D02*
X8617706Y-16595508D01*
X8617706Y-16595508D02*
X8636753Y-16585984D01*
X8636753Y-16585984D02*
X8674849Y-16585984D01*
X8674849Y-16585984D02*
X8693896Y-16595508D01*
X8693896Y-16595508D02*
X8703420Y-16605031D01*
X8703420Y-16605031D02*
X8712944Y-16624079D01*
X8712944Y-16624079D02*
X8712944Y-16633603D01*
X8712944Y-16633603D02*
X8703420Y-16652650D01*
X8703420Y-16652650D02*
X8693896Y-16662174D01*
X8693896Y-16662174D02*
X8674849Y-16671698D01*
X8674849Y-16671698D02*
X8636753Y-16671698D01*
X8636753Y-16671698D02*
X8617706Y-16681222D01*
X8617706Y-16681222D02*
X8608182Y-16690746D01*
X8608182Y-16690746D02*
X8598658Y-16709793D01*
X8598658Y-16709793D02*
X8598658Y-16747888D01*
X8598658Y-16747888D02*
X8608182Y-16766936D01*
X8608182Y-16766936D02*
X8617706Y-16776460D01*
X8617706Y-16776460D02*
X8636753Y-16785984D01*
X8636753Y-16785984D02*
X8674849Y-16785984D01*
X8674849Y-16785984D02*
X8693896Y-16776460D01*
X8693896Y-16776460D02*
X8703420Y-16766936D01*
X8703420Y-16766936D02*
X8712944Y-16747888D01*
X8712944Y-16747888D02*
X8712944Y-16709793D01*
X8712944Y-16709793D02*
X8703420Y-16690746D01*
X8703420Y-16690746D02*
X8693896Y-16681222D01*
X8693896Y-16681222D02*
X8674849Y-16671698D01*
X8789134Y-16585984D02*
X8789134Y-16624079D01*
X8865325Y-16585984D02*
X8865325Y-16624079D01*
X9160563Y-16862174D02*
X9151039Y-16852650D01*
X9151039Y-16852650D02*
X9131991Y-16824079D01*
X9131991Y-16824079D02*
X9122468Y-16805031D01*
X9122468Y-16805031D02*
X9112944Y-16776460D01*
X9112944Y-16776460D02*
X9103420Y-16728841D01*
X9103420Y-16728841D02*
X9103420Y-16690746D01*
X9103420Y-16690746D02*
X9112944Y-16643127D01*
X9112944Y-16643127D02*
X9122468Y-16614555D01*
X9122468Y-16614555D02*
X9131991Y-16595508D01*
X9131991Y-16595508D02*
X9151039Y-16566936D01*
X9151039Y-16566936D02*
X9160563Y-16557412D01*
X9322468Y-16652650D02*
X9322468Y-16785984D01*
X9274849Y-16576460D02*
X9227230Y-16719317D01*
X9227230Y-16719317D02*
X9351039Y-16719317D01*
X9579611Y-16785984D02*
X9579611Y-16585984D01*
X9665325Y-16785984D02*
X9665325Y-16681222D01*
X9665325Y-16681222D02*
X9655801Y-16662174D01*
X9655801Y-16662174D02*
X9636753Y-16652650D01*
X9636753Y-16652650D02*
X9608182Y-16652650D01*
X9608182Y-16652650D02*
X9589134Y-16662174D01*
X9589134Y-16662174D02*
X9579611Y-16671698D01*
X9789134Y-16785984D02*
X9770087Y-16776460D01*
X9770087Y-16776460D02*
X9760563Y-16766936D01*
X9760563Y-16766936D02*
X9751039Y-16747888D01*
X9751039Y-16747888D02*
X9751039Y-16690746D01*
X9751039Y-16690746D02*
X9760563Y-16671698D01*
X9760563Y-16671698D02*
X9770087Y-16662174D01*
X9770087Y-16662174D02*
X9789134Y-16652650D01*
X9789134Y-16652650D02*
X9817706Y-16652650D01*
X9817706Y-16652650D02*
X9836753Y-16662174D01*
X9836753Y-16662174D02*
X9846277Y-16671698D01*
X9846277Y-16671698D02*
X9855801Y-16690746D01*
X9855801Y-16690746D02*
X9855801Y-16747888D01*
X9855801Y-16747888D02*
X9846277Y-16766936D01*
X9846277Y-16766936D02*
X9836753Y-16776460D01*
X9836753Y-16776460D02*
X9817706Y-16785984D01*
X9817706Y-16785984D02*
X9789134Y-16785984D01*
X9970087Y-16785984D02*
X9951039Y-16776460D01*
X9951039Y-16776460D02*
X9941515Y-16757412D01*
X9941515Y-16757412D02*
X9941515Y-16585984D01*
X10122468Y-16776460D02*
X10103420Y-16785984D01*
X10103420Y-16785984D02*
X10065325Y-16785984D01*
X10065325Y-16785984D02*
X10046277Y-16776460D01*
X10046277Y-16776460D02*
X10036753Y-16757412D01*
X10036753Y-16757412D02*
X10036753Y-16681222D01*
X10036753Y-16681222D02*
X10046277Y-16662174D01*
X10046277Y-16662174D02*
X10065325Y-16652650D01*
X10065325Y-16652650D02*
X10103420Y-16652650D01*
X10103420Y-16652650D02*
X10122468Y-16662174D01*
X10122468Y-16662174D02*
X10131992Y-16681222D01*
X10131992Y-16681222D02*
X10131992Y-16700269D01*
X10131992Y-16700269D02*
X10036753Y-16719317D01*
X10208182Y-16776460D02*
X10227230Y-16785984D01*
X10227230Y-16785984D02*
X10265325Y-16785984D01*
X10265325Y-16785984D02*
X10284373Y-16776460D01*
X10284373Y-16776460D02*
X10293896Y-16757412D01*
X10293896Y-16757412D02*
X10293896Y-16747888D01*
X10293896Y-16747888D02*
X10284373Y-16728841D01*
X10284373Y-16728841D02*
X10265325Y-16719317D01*
X10265325Y-16719317D02*
X10236753Y-16719317D01*
X10236753Y-16719317D02*
X10217706Y-16709793D01*
X10217706Y-16709793D02*
X10208182Y-16690746D01*
X10208182Y-16690746D02*
X10208182Y-16681222D01*
X10208182Y-16681222D02*
X10217706Y-16662174D01*
X10217706Y-16662174D02*
X10236753Y-16652650D01*
X10236753Y-16652650D02*
X10265325Y-16652650D01*
X10265325Y-16652650D02*
X10284373Y-16662174D01*
X10360563Y-16862174D02*
X10370087Y-16852650D01*
X10370087Y-16852650D02*
X10389134Y-16824079D01*
X10389134Y-16824079D02*
X10398658Y-16805031D01*
X10398658Y-16805031D02*
X10408182Y-16776460D01*
X10408182Y-16776460D02*
X10417706Y-16728841D01*
X10417706Y-16728841D02*
X10417706Y-16690746D01*
X10417706Y-16690746D02*
X10408182Y-16643127D01*
X10408182Y-16643127D02*
X10398658Y-16614555D01*
X10398658Y-16614555D02*
X10389134Y-16595508D01*
X10389134Y-16595508D02*
X10370087Y-16566936D01*
X10370087Y-16566936D02*
X10360563Y-16557412D01*
X5385500Y-16866500D02*
X5585500Y-17066500D01*
X5585500Y-16866500D02*
X5385500Y-17066500D01*
X5485500Y-16866500D02*
X5485500Y-17066500D01*
X5385500Y-16966500D02*
X5585500Y-16966500D01*
X5836753Y-16877031D02*
X5846277Y-16867508D01*
X5846277Y-16867508D02*
X5865324Y-16857984D01*
X5865324Y-16857984D02*
X5912943Y-16857984D01*
X5912943Y-16857984D02*
X5931991Y-16867508D01*
X5931991Y-16867508D02*
X5941515Y-16877031D01*
X5941515Y-16877031D02*
X5951039Y-16896079D01*
X5951039Y-16896079D02*
X5951039Y-16915127D01*
X5951039Y-16915127D02*
X5941515Y-16943698D01*
X5941515Y-16943698D02*
X5827229Y-17057984D01*
X5827229Y-17057984D02*
X5951039Y-17057984D01*
X6036753Y-17038936D02*
X6046277Y-17048460D01*
X6046277Y-17048460D02*
X6036753Y-17057984D01*
X6036753Y-17057984D02*
X6027229Y-17048460D01*
X6027229Y-17048460D02*
X6036753Y-17038936D01*
X6036753Y-17038936D02*
X6036753Y-17057984D01*
X6112943Y-16857984D02*
X6246277Y-16857984D01*
X6246277Y-16857984D02*
X6160562Y-17057984D01*
X6360562Y-16857984D02*
X6379610Y-16857984D01*
X6379610Y-16857984D02*
X6398658Y-16867508D01*
X6398658Y-16867508D02*
X6408182Y-16877031D01*
X6408182Y-16877031D02*
X6417705Y-16896079D01*
X6417705Y-16896079D02*
X6427229Y-16934174D01*
X6427229Y-16934174D02*
X6427229Y-16981793D01*
X6427229Y-16981793D02*
X6417705Y-17019889D01*
X6417705Y-17019889D02*
X6408182Y-17038936D01*
X6408182Y-17038936D02*
X6398658Y-17048460D01*
X6398658Y-17048460D02*
X6379610Y-17057984D01*
X6379610Y-17057984D02*
X6360562Y-17057984D01*
X6360562Y-17057984D02*
X6341515Y-17048460D01*
X6341515Y-17048460D02*
X6331991Y-17038936D01*
X6331991Y-17038936D02*
X6322467Y-17019889D01*
X6322467Y-17019889D02*
X6312943Y-16981793D01*
X6312943Y-16981793D02*
X6312943Y-16934174D01*
X6312943Y-16934174D02*
X6322467Y-16896079D01*
X6322467Y-16896079D02*
X6331991Y-16877031D01*
X6331991Y-16877031D02*
X6341515Y-16867508D01*
X6341515Y-16867508D02*
X6360562Y-16857984D01*
X6551039Y-16857984D02*
X6570086Y-16857984D01*
X6570086Y-16857984D02*
X6589134Y-16867508D01*
X6589134Y-16867508D02*
X6598658Y-16877031D01*
X6598658Y-16877031D02*
X6608182Y-16896079D01*
X6608182Y-16896079D02*
X6617705Y-16934174D01*
X6617705Y-16934174D02*
X6617705Y-16981793D01*
X6617705Y-16981793D02*
X6608182Y-17019889D01*
X6608182Y-17019889D02*
X6598658Y-17038936D01*
X6598658Y-17038936D02*
X6589134Y-17048460D01*
X6589134Y-17048460D02*
X6570086Y-17057984D01*
X6570086Y-17057984D02*
X6551039Y-17057984D01*
X6551039Y-17057984D02*
X6531991Y-17048460D01*
X6531991Y-17048460D02*
X6522467Y-17038936D01*
X6522467Y-17038936D02*
X6512943Y-17019889D01*
X6512943Y-17019889D02*
X6503420Y-16981793D01*
X6503420Y-16981793D02*
X6503420Y-16934174D01*
X6503420Y-16934174D02*
X6512943Y-16896079D01*
X6512943Y-16896079D02*
X6522467Y-16877031D01*
X6522467Y-16877031D02*
X6531991Y-16867508D01*
X6531991Y-16867508D02*
X6551039Y-16857984D01*
X6703420Y-17057984D02*
X6703420Y-16924650D01*
X6703420Y-16943698D02*
X6712943Y-16934174D01*
X6712943Y-16934174D02*
X6731991Y-16924650D01*
X6731991Y-16924650D02*
X6760563Y-16924650D01*
X6760563Y-16924650D02*
X6779610Y-16934174D01*
X6779610Y-16934174D02*
X6789134Y-16953222D01*
X6789134Y-16953222D02*
X6789134Y-17057984D01*
X6789134Y-16953222D02*
X6798658Y-16934174D01*
X6798658Y-16934174D02*
X6817705Y-16924650D01*
X6817705Y-16924650D02*
X6846277Y-16924650D01*
X6846277Y-16924650D02*
X6865324Y-16934174D01*
X6865324Y-16934174D02*
X6874848Y-16953222D01*
X6874848Y-16953222D02*
X6874848Y-17057984D01*
X6970086Y-17057984D02*
X6970086Y-16924650D01*
X6970086Y-16943698D02*
X6979610Y-16934174D01*
X6979610Y-16934174D02*
X6998658Y-16924650D01*
X6998658Y-16924650D02*
X7027229Y-16924650D01*
X7027229Y-16924650D02*
X7046277Y-16934174D01*
X7046277Y-16934174D02*
X7055801Y-16953222D01*
X7055801Y-16953222D02*
X7055801Y-17057984D01*
X7055801Y-16953222D02*
X7065324Y-16934174D01*
X7065324Y-16934174D02*
X7084372Y-16924650D01*
X7084372Y-16924650D02*
X7112943Y-16924650D01*
X7112943Y-16924650D02*
X7131991Y-16934174D01*
X7131991Y-16934174D02*
X7141515Y-16953222D01*
X7141515Y-16953222D02*
X7141515Y-17057984D01*
X7531991Y-16848460D02*
X7360563Y-17105603D01*
X7789134Y-16857984D02*
X7808182Y-16857984D01*
X7808182Y-16857984D02*
X7827229Y-16867508D01*
X7827229Y-16867508D02*
X7836753Y-16877031D01*
X7836753Y-16877031D02*
X7846277Y-16896079D01*
X7846277Y-16896079D02*
X7855801Y-16934174D01*
X7855801Y-16934174D02*
X7855801Y-16981793D01*
X7855801Y-16981793D02*
X7846277Y-17019889D01*
X7846277Y-17019889D02*
X7836753Y-17038936D01*
X7836753Y-17038936D02*
X7827229Y-17048460D01*
X7827229Y-17048460D02*
X7808182Y-17057984D01*
X7808182Y-17057984D02*
X7789134Y-17057984D01*
X7789134Y-17057984D02*
X7770086Y-17048460D01*
X7770086Y-17048460D02*
X7760563Y-17038936D01*
X7760563Y-17038936D02*
X7751039Y-17019889D01*
X7751039Y-17019889D02*
X7741515Y-16981793D01*
X7741515Y-16981793D02*
X7741515Y-16934174D01*
X7741515Y-16934174D02*
X7751039Y-16896079D01*
X7751039Y-16896079D02*
X7760563Y-16877031D01*
X7760563Y-16877031D02*
X7770086Y-16867508D01*
X7770086Y-16867508D02*
X7789134Y-16857984D01*
X7941515Y-17038936D02*
X7951039Y-17048460D01*
X7951039Y-17048460D02*
X7941515Y-17057984D01*
X7941515Y-17057984D02*
X7931991Y-17048460D01*
X7931991Y-17048460D02*
X7941515Y-17038936D01*
X7941515Y-17038936D02*
X7941515Y-17057984D01*
X8141515Y-17057984D02*
X8027229Y-17057984D01*
X8084372Y-17057984D02*
X8084372Y-16857984D01*
X8084372Y-16857984D02*
X8065325Y-16886555D01*
X8065325Y-16886555D02*
X8046277Y-16905603D01*
X8046277Y-16905603D02*
X8027229Y-16915127D01*
X8265325Y-16857984D02*
X8284372Y-16857984D01*
X8284372Y-16857984D02*
X8303420Y-16867508D01*
X8303420Y-16867508D02*
X8312944Y-16877031D01*
X8312944Y-16877031D02*
X8322467Y-16896079D01*
X8322467Y-16896079D02*
X8331991Y-16934174D01*
X8331991Y-16934174D02*
X8331991Y-16981793D01*
X8331991Y-16981793D02*
X8322467Y-17019889D01*
X8322467Y-17019889D02*
X8312944Y-17038936D01*
X8312944Y-17038936D02*
X8303420Y-17048460D01*
X8303420Y-17048460D02*
X8284372Y-17057984D01*
X8284372Y-17057984D02*
X8265325Y-17057984D01*
X8265325Y-17057984D02*
X8246277Y-17048460D01*
X8246277Y-17048460D02*
X8236753Y-17038936D01*
X8236753Y-17038936D02*
X8227229Y-17019889D01*
X8227229Y-17019889D02*
X8217706Y-16981793D01*
X8217706Y-16981793D02*
X8217706Y-16934174D01*
X8217706Y-16934174D02*
X8227229Y-16896079D01*
X8227229Y-16896079D02*
X8236753Y-16877031D01*
X8236753Y-16877031D02*
X8246277Y-16867508D01*
X8246277Y-16867508D02*
X8265325Y-16857984D01*
X8503420Y-16857984D02*
X8465325Y-16857984D01*
X8465325Y-16857984D02*
X8446277Y-16867508D01*
X8446277Y-16867508D02*
X8436753Y-16877031D01*
X8436753Y-16877031D02*
X8417706Y-16905603D01*
X8417706Y-16905603D02*
X8408182Y-16943698D01*
X8408182Y-16943698D02*
X8408182Y-17019889D01*
X8408182Y-17019889D02*
X8417706Y-17038936D01*
X8417706Y-17038936D02*
X8427229Y-17048460D01*
X8427229Y-17048460D02*
X8446277Y-17057984D01*
X8446277Y-17057984D02*
X8484372Y-17057984D01*
X8484372Y-17057984D02*
X8503420Y-17048460D01*
X8503420Y-17048460D02*
X8512944Y-17038936D01*
X8512944Y-17038936D02*
X8522468Y-17019889D01*
X8522468Y-17019889D02*
X8522468Y-16972270D01*
X8522468Y-16972270D02*
X8512944Y-16953222D01*
X8512944Y-16953222D02*
X8503420Y-16943698D01*
X8503420Y-16943698D02*
X8484372Y-16934174D01*
X8484372Y-16934174D02*
X8446277Y-16934174D01*
X8446277Y-16934174D02*
X8427229Y-16943698D01*
X8427229Y-16943698D02*
X8417706Y-16953222D01*
X8417706Y-16953222D02*
X8408182Y-16972270D01*
X8589134Y-16857984D02*
X8712944Y-16857984D01*
X8712944Y-16857984D02*
X8646277Y-16934174D01*
X8646277Y-16934174D02*
X8674849Y-16934174D01*
X8674849Y-16934174D02*
X8693896Y-16943698D01*
X8693896Y-16943698D02*
X8703420Y-16953222D01*
X8703420Y-16953222D02*
X8712944Y-16972270D01*
X8712944Y-16972270D02*
X8712944Y-17019889D01*
X8712944Y-17019889D02*
X8703420Y-17038936D01*
X8703420Y-17038936D02*
X8693896Y-17048460D01*
X8693896Y-17048460D02*
X8674849Y-17057984D01*
X8674849Y-17057984D02*
X8617706Y-17057984D01*
X8617706Y-17057984D02*
X8598658Y-17048460D01*
X8598658Y-17048460D02*
X8589134Y-17038936D01*
X8789134Y-16857984D02*
X8789134Y-16896079D01*
X8865325Y-16857984D02*
X8865325Y-16896079D01*
X9160563Y-17134174D02*
X9151039Y-17124650D01*
X9151039Y-17124650D02*
X9131991Y-17096079D01*
X9131991Y-17096079D02*
X9122468Y-17077031D01*
X9122468Y-17077031D02*
X9112944Y-17048460D01*
X9112944Y-17048460D02*
X9103420Y-17000841D01*
X9103420Y-17000841D02*
X9103420Y-16962746D01*
X9103420Y-16962746D02*
X9112944Y-16915127D01*
X9112944Y-16915127D02*
X9122468Y-16886555D01*
X9122468Y-16886555D02*
X9131991Y-16867508D01*
X9131991Y-16867508D02*
X9151039Y-16838936D01*
X9151039Y-16838936D02*
X9160563Y-16829412D01*
X9227230Y-16877031D02*
X9236753Y-16867508D01*
X9236753Y-16867508D02*
X9255801Y-16857984D01*
X9255801Y-16857984D02*
X9303420Y-16857984D01*
X9303420Y-16857984D02*
X9322468Y-16867508D01*
X9322468Y-16867508D02*
X9331991Y-16877031D01*
X9331991Y-16877031D02*
X9341515Y-16896079D01*
X9341515Y-16896079D02*
X9341515Y-16915127D01*
X9341515Y-16915127D02*
X9331991Y-16943698D01*
X9331991Y-16943698D02*
X9217706Y-17057984D01*
X9217706Y-17057984D02*
X9341515Y-17057984D01*
X9579611Y-17057984D02*
X9579611Y-16857984D01*
X9665325Y-17057984D02*
X9665325Y-16953222D01*
X9665325Y-16953222D02*
X9655801Y-16934174D01*
X9655801Y-16934174D02*
X9636753Y-16924650D01*
X9636753Y-16924650D02*
X9608182Y-16924650D01*
X9608182Y-16924650D02*
X9589134Y-16934174D01*
X9589134Y-16934174D02*
X9579611Y-16943698D01*
X9789134Y-17057984D02*
X9770087Y-17048460D01*
X9770087Y-17048460D02*
X9760563Y-17038936D01*
X9760563Y-17038936D02*
X9751039Y-17019889D01*
X9751039Y-17019889D02*
X9751039Y-16962746D01*
X9751039Y-16962746D02*
X9760563Y-16943698D01*
X9760563Y-16943698D02*
X9770087Y-16934174D01*
X9770087Y-16934174D02*
X9789134Y-16924650D01*
X9789134Y-16924650D02*
X9817706Y-16924650D01*
X9817706Y-16924650D02*
X9836753Y-16934174D01*
X9836753Y-16934174D02*
X9846277Y-16943698D01*
X9846277Y-16943698D02*
X9855801Y-16962746D01*
X9855801Y-16962746D02*
X9855801Y-17019889D01*
X9855801Y-17019889D02*
X9846277Y-17038936D01*
X9846277Y-17038936D02*
X9836753Y-17048460D01*
X9836753Y-17048460D02*
X9817706Y-17057984D01*
X9817706Y-17057984D02*
X9789134Y-17057984D01*
X9970087Y-17057984D02*
X9951039Y-17048460D01*
X9951039Y-17048460D02*
X9941515Y-17029412D01*
X9941515Y-17029412D02*
X9941515Y-16857984D01*
X10122468Y-17048460D02*
X10103420Y-17057984D01*
X10103420Y-17057984D02*
X10065325Y-17057984D01*
X10065325Y-17057984D02*
X10046277Y-17048460D01*
X10046277Y-17048460D02*
X10036753Y-17029412D01*
X10036753Y-17029412D02*
X10036753Y-16953222D01*
X10036753Y-16953222D02*
X10046277Y-16934174D01*
X10046277Y-16934174D02*
X10065325Y-16924650D01*
X10065325Y-16924650D02*
X10103420Y-16924650D01*
X10103420Y-16924650D02*
X10122468Y-16934174D01*
X10122468Y-16934174D02*
X10131992Y-16953222D01*
X10131992Y-16953222D02*
X10131992Y-16972270D01*
X10131992Y-16972270D02*
X10036753Y-16991317D01*
X10208182Y-17048460D02*
X10227230Y-17057984D01*
X10227230Y-17057984D02*
X10265325Y-17057984D01*
X10265325Y-17057984D02*
X10284373Y-17048460D01*
X10284373Y-17048460D02*
X10293896Y-17029412D01*
X10293896Y-17029412D02*
X10293896Y-17019889D01*
X10293896Y-17019889D02*
X10284373Y-17000841D01*
X10284373Y-17000841D02*
X10265325Y-16991317D01*
X10265325Y-16991317D02*
X10236753Y-16991317D01*
X10236753Y-16991317D02*
X10217706Y-16981793D01*
X10217706Y-16981793D02*
X10208182Y-16962746D01*
X10208182Y-16962746D02*
X10208182Y-16953222D01*
X10208182Y-16953222D02*
X10217706Y-16934174D01*
X10217706Y-16934174D02*
X10236753Y-16924650D01*
X10236753Y-16924650D02*
X10265325Y-16924650D01*
X10265325Y-16924650D02*
X10284373Y-16934174D01*
X10360563Y-17134174D02*
X10370087Y-17124650D01*
X10370087Y-17124650D02*
X10389134Y-17096079D01*
X10389134Y-17096079D02*
X10398658Y-17077031D01*
X10398658Y-17077031D02*
X10408182Y-17048460D01*
X10408182Y-17048460D02*
X10417706Y-17000841D01*
X10417706Y-17000841D02*
X10417706Y-16962746D01*
X10417706Y-16962746D02*
X10408182Y-16915127D01*
X10408182Y-16915127D02*
X10398658Y-16886555D01*
X10398658Y-16886555D02*
X10389134Y-16867508D01*
X10389134Y-16867508D02*
X10370087Y-16838936D01*
X10370087Y-16838936D02*
X10360563Y-16829412D01*
X5385500Y-17186500D02*
X5585500Y-17386500D01*
X5585500Y-17186500D02*
X5385500Y-17386500D01*
X5556211Y-17357211D02*
X5556211Y-17215789D01*
X5414789Y-17215789D01*
X5414789Y-17357211D01*
X5556211Y-17357211D01*
X5931991Y-17244650D02*
X5931991Y-17377984D01*
X5884372Y-17168460D02*
X5836753Y-17311317D01*
X5836753Y-17311317D02*
X5960562Y-17311317D01*
X6036753Y-17358936D02*
X6046277Y-17368460D01*
X6046277Y-17368460D02*
X6036753Y-17377984D01*
X6036753Y-17377984D02*
X6027229Y-17368460D01*
X6027229Y-17368460D02*
X6036753Y-17358936D01*
X6036753Y-17358936D02*
X6036753Y-17377984D01*
X6227229Y-17177984D02*
X6131991Y-17177984D01*
X6131991Y-17177984D02*
X6122467Y-17273222D01*
X6122467Y-17273222D02*
X6131991Y-17263698D01*
X6131991Y-17263698D02*
X6151039Y-17254174D01*
X6151039Y-17254174D02*
X6198658Y-17254174D01*
X6198658Y-17254174D02*
X6217705Y-17263698D01*
X6217705Y-17263698D02*
X6227229Y-17273222D01*
X6227229Y-17273222D02*
X6236753Y-17292270D01*
X6236753Y-17292270D02*
X6236753Y-17339889D01*
X6236753Y-17339889D02*
X6227229Y-17358936D01*
X6227229Y-17358936D02*
X6217705Y-17368460D01*
X6217705Y-17368460D02*
X6198658Y-17377984D01*
X6198658Y-17377984D02*
X6151039Y-17377984D01*
X6151039Y-17377984D02*
X6131991Y-17368460D01*
X6131991Y-17368460D02*
X6122467Y-17358936D01*
X6360562Y-17177984D02*
X6379610Y-17177984D01*
X6379610Y-17177984D02*
X6398658Y-17187508D01*
X6398658Y-17187508D02*
X6408182Y-17197031D01*
X6408182Y-17197031D02*
X6417705Y-17216079D01*
X6417705Y-17216079D02*
X6427229Y-17254174D01*
X6427229Y-17254174D02*
X6427229Y-17301793D01*
X6427229Y-17301793D02*
X6417705Y-17339889D01*
X6417705Y-17339889D02*
X6408182Y-17358936D01*
X6408182Y-17358936D02*
X6398658Y-17368460D01*
X6398658Y-17368460D02*
X6379610Y-17377984D01*
X6379610Y-17377984D02*
X6360562Y-17377984D01*
X6360562Y-17377984D02*
X6341515Y-17368460D01*
X6341515Y-17368460D02*
X6331991Y-17358936D01*
X6331991Y-17358936D02*
X6322467Y-17339889D01*
X6322467Y-17339889D02*
X6312943Y-17301793D01*
X6312943Y-17301793D02*
X6312943Y-17254174D01*
X6312943Y-17254174D02*
X6322467Y-17216079D01*
X6322467Y-17216079D02*
X6331991Y-17197031D01*
X6331991Y-17197031D02*
X6341515Y-17187508D01*
X6341515Y-17187508D02*
X6360562Y-17177984D01*
X6551039Y-17177984D02*
X6570086Y-17177984D01*
X6570086Y-17177984D02*
X6589134Y-17187508D01*
X6589134Y-17187508D02*
X6598658Y-17197031D01*
X6598658Y-17197031D02*
X6608182Y-17216079D01*
X6608182Y-17216079D02*
X6617705Y-17254174D01*
X6617705Y-17254174D02*
X6617705Y-17301793D01*
X6617705Y-17301793D02*
X6608182Y-17339889D01*
X6608182Y-17339889D02*
X6598658Y-17358936D01*
X6598658Y-17358936D02*
X6589134Y-17368460D01*
X6589134Y-17368460D02*
X6570086Y-17377984D01*
X6570086Y-17377984D02*
X6551039Y-17377984D01*
X6551039Y-17377984D02*
X6531991Y-17368460D01*
X6531991Y-17368460D02*
X6522467Y-17358936D01*
X6522467Y-17358936D02*
X6512943Y-17339889D01*
X6512943Y-17339889D02*
X6503420Y-17301793D01*
X6503420Y-17301793D02*
X6503420Y-17254174D01*
X6503420Y-17254174D02*
X6512943Y-17216079D01*
X6512943Y-17216079D02*
X6522467Y-17197031D01*
X6522467Y-17197031D02*
X6531991Y-17187508D01*
X6531991Y-17187508D02*
X6551039Y-17177984D01*
X6703420Y-17377984D02*
X6703420Y-17244650D01*
X6703420Y-17263698D02*
X6712943Y-17254174D01*
X6712943Y-17254174D02*
X6731991Y-17244650D01*
X6731991Y-17244650D02*
X6760563Y-17244650D01*
X6760563Y-17244650D02*
X6779610Y-17254174D01*
X6779610Y-17254174D02*
X6789134Y-17273222D01*
X6789134Y-17273222D02*
X6789134Y-17377984D01*
X6789134Y-17273222D02*
X6798658Y-17254174D01*
X6798658Y-17254174D02*
X6817705Y-17244650D01*
X6817705Y-17244650D02*
X6846277Y-17244650D01*
X6846277Y-17244650D02*
X6865324Y-17254174D01*
X6865324Y-17254174D02*
X6874848Y-17273222D01*
X6874848Y-17273222D02*
X6874848Y-17377984D01*
X6970086Y-17377984D02*
X6970086Y-17244650D01*
X6970086Y-17263698D02*
X6979610Y-17254174D01*
X6979610Y-17254174D02*
X6998658Y-17244650D01*
X6998658Y-17244650D02*
X7027229Y-17244650D01*
X7027229Y-17244650D02*
X7046277Y-17254174D01*
X7046277Y-17254174D02*
X7055801Y-17273222D01*
X7055801Y-17273222D02*
X7055801Y-17377984D01*
X7055801Y-17273222D02*
X7065324Y-17254174D01*
X7065324Y-17254174D02*
X7084372Y-17244650D01*
X7084372Y-17244650D02*
X7112943Y-17244650D01*
X7112943Y-17244650D02*
X7131991Y-17254174D01*
X7131991Y-17254174D02*
X7141515Y-17273222D01*
X7141515Y-17273222D02*
X7141515Y-17377984D01*
X7531991Y-17168460D02*
X7360563Y-17425603D01*
X7789134Y-17177984D02*
X7808182Y-17177984D01*
X7808182Y-17177984D02*
X7827229Y-17187508D01*
X7827229Y-17187508D02*
X7836753Y-17197031D01*
X7836753Y-17197031D02*
X7846277Y-17216079D01*
X7846277Y-17216079D02*
X7855801Y-17254174D01*
X7855801Y-17254174D02*
X7855801Y-17301793D01*
X7855801Y-17301793D02*
X7846277Y-17339889D01*
X7846277Y-17339889D02*
X7836753Y-17358936D01*
X7836753Y-17358936D02*
X7827229Y-17368460D01*
X7827229Y-17368460D02*
X7808182Y-17377984D01*
X7808182Y-17377984D02*
X7789134Y-17377984D01*
X7789134Y-17377984D02*
X7770086Y-17368460D01*
X7770086Y-17368460D02*
X7760563Y-17358936D01*
X7760563Y-17358936D02*
X7751039Y-17339889D01*
X7751039Y-17339889D02*
X7741515Y-17301793D01*
X7741515Y-17301793D02*
X7741515Y-17254174D01*
X7741515Y-17254174D02*
X7751039Y-17216079D01*
X7751039Y-17216079D02*
X7760563Y-17197031D01*
X7760563Y-17197031D02*
X7770086Y-17187508D01*
X7770086Y-17187508D02*
X7789134Y-17177984D01*
X7941515Y-17358936D02*
X7951039Y-17368460D01*
X7951039Y-17368460D02*
X7941515Y-17377984D01*
X7941515Y-17377984D02*
X7931991Y-17368460D01*
X7931991Y-17368460D02*
X7941515Y-17358936D01*
X7941515Y-17358936D02*
X7941515Y-17377984D01*
X8141515Y-17377984D02*
X8027229Y-17377984D01*
X8084372Y-17377984D02*
X8084372Y-17177984D01*
X8084372Y-17177984D02*
X8065325Y-17206555D01*
X8065325Y-17206555D02*
X8046277Y-17225603D01*
X8046277Y-17225603D02*
X8027229Y-17235127D01*
X8208182Y-17177984D02*
X8341515Y-17177984D01*
X8341515Y-17177984D02*
X8255801Y-17377984D01*
X8398658Y-17177984D02*
X8531991Y-17177984D01*
X8531991Y-17177984D02*
X8446277Y-17377984D01*
X8598658Y-17197031D02*
X8608182Y-17187508D01*
X8608182Y-17187508D02*
X8627229Y-17177984D01*
X8627229Y-17177984D02*
X8674849Y-17177984D01*
X8674849Y-17177984D02*
X8693896Y-17187508D01*
X8693896Y-17187508D02*
X8703420Y-17197031D01*
X8703420Y-17197031D02*
X8712944Y-17216079D01*
X8712944Y-17216079D02*
X8712944Y-17235127D01*
X8712944Y-17235127D02*
X8703420Y-17263698D01*
X8703420Y-17263698D02*
X8589134Y-17377984D01*
X8589134Y-17377984D02*
X8712944Y-17377984D01*
X8789134Y-17177984D02*
X8789134Y-17216079D01*
X8865325Y-17177984D02*
X8865325Y-17216079D01*
X9160563Y-17454174D02*
X9151039Y-17444650D01*
X9151039Y-17444650D02*
X9131991Y-17416079D01*
X9131991Y-17416079D02*
X9122468Y-17397031D01*
X9122468Y-17397031D02*
X9112944Y-17368460D01*
X9112944Y-17368460D02*
X9103420Y-17320841D01*
X9103420Y-17320841D02*
X9103420Y-17282746D01*
X9103420Y-17282746D02*
X9112944Y-17235127D01*
X9112944Y-17235127D02*
X9122468Y-17206555D01*
X9122468Y-17206555D02*
X9131991Y-17187508D01*
X9131991Y-17187508D02*
X9151039Y-17158936D01*
X9151039Y-17158936D02*
X9160563Y-17149412D01*
X9227230Y-17197031D02*
X9236753Y-17187508D01*
X9236753Y-17187508D02*
X9255801Y-17177984D01*
X9255801Y-17177984D02*
X9303420Y-17177984D01*
X9303420Y-17177984D02*
X9322468Y-17187508D01*
X9322468Y-17187508D02*
X9331991Y-17197031D01*
X9331991Y-17197031D02*
X9341515Y-17216079D01*
X9341515Y-17216079D02*
X9341515Y-17235127D01*
X9341515Y-17235127D02*
X9331991Y-17263698D01*
X9331991Y-17263698D02*
X9217706Y-17377984D01*
X9217706Y-17377984D02*
X9341515Y-17377984D01*
X9579611Y-17377984D02*
X9579611Y-17177984D01*
X9665325Y-17377984D02*
X9665325Y-17273222D01*
X9665325Y-17273222D02*
X9655801Y-17254174D01*
X9655801Y-17254174D02*
X9636753Y-17244650D01*
X9636753Y-17244650D02*
X9608182Y-17244650D01*
X9608182Y-17244650D02*
X9589134Y-17254174D01*
X9589134Y-17254174D02*
X9579611Y-17263698D01*
X9789134Y-17377984D02*
X9770087Y-17368460D01*
X9770087Y-17368460D02*
X9760563Y-17358936D01*
X9760563Y-17358936D02*
X9751039Y-17339889D01*
X9751039Y-17339889D02*
X9751039Y-17282746D01*
X9751039Y-17282746D02*
X9760563Y-17263698D01*
X9760563Y-17263698D02*
X9770087Y-17254174D01*
X9770087Y-17254174D02*
X9789134Y-17244650D01*
X9789134Y-17244650D02*
X9817706Y-17244650D01*
X9817706Y-17244650D02*
X9836753Y-17254174D01*
X9836753Y-17254174D02*
X9846277Y-17263698D01*
X9846277Y-17263698D02*
X9855801Y-17282746D01*
X9855801Y-17282746D02*
X9855801Y-17339889D01*
X9855801Y-17339889D02*
X9846277Y-17358936D01*
X9846277Y-17358936D02*
X9836753Y-17368460D01*
X9836753Y-17368460D02*
X9817706Y-17377984D01*
X9817706Y-17377984D02*
X9789134Y-17377984D01*
X9970087Y-17377984D02*
X9951039Y-17368460D01*
X9951039Y-17368460D02*
X9941515Y-17349412D01*
X9941515Y-17349412D02*
X9941515Y-17177984D01*
X10122468Y-17368460D02*
X10103420Y-17377984D01*
X10103420Y-17377984D02*
X10065325Y-17377984D01*
X10065325Y-17377984D02*
X10046277Y-17368460D01*
X10046277Y-17368460D02*
X10036753Y-17349412D01*
X10036753Y-17349412D02*
X10036753Y-17273222D01*
X10036753Y-17273222D02*
X10046277Y-17254174D01*
X10046277Y-17254174D02*
X10065325Y-17244650D01*
X10065325Y-17244650D02*
X10103420Y-17244650D01*
X10103420Y-17244650D02*
X10122468Y-17254174D01*
X10122468Y-17254174D02*
X10131992Y-17273222D01*
X10131992Y-17273222D02*
X10131992Y-17292270D01*
X10131992Y-17292270D02*
X10036753Y-17311317D01*
X10208182Y-17368460D02*
X10227230Y-17377984D01*
X10227230Y-17377984D02*
X10265325Y-17377984D01*
X10265325Y-17377984D02*
X10284373Y-17368460D01*
X10284373Y-17368460D02*
X10293896Y-17349412D01*
X10293896Y-17349412D02*
X10293896Y-17339889D01*
X10293896Y-17339889D02*
X10284373Y-17320841D01*
X10284373Y-17320841D02*
X10265325Y-17311317D01*
X10265325Y-17311317D02*
X10236753Y-17311317D01*
X10236753Y-17311317D02*
X10217706Y-17301793D01*
X10217706Y-17301793D02*
X10208182Y-17282746D01*
X10208182Y-17282746D02*
X10208182Y-17273222D01*
X10208182Y-17273222D02*
X10217706Y-17254174D01*
X10217706Y-17254174D02*
X10236753Y-17244650D01*
X10236753Y-17244650D02*
X10265325Y-17244650D01*
X10265325Y-17244650D02*
X10284373Y-17254174D01*
X10360563Y-17454174D02*
X10370087Y-17444650D01*
X10370087Y-17444650D02*
X10389134Y-17416079D01*
X10389134Y-17416079D02*
X10398658Y-17397031D01*
X10398658Y-17397031D02*
X10408182Y-17368460D01*
X10408182Y-17368460D02*
X10417706Y-17320841D01*
X10417706Y-17320841D02*
X10417706Y-17282746D01*
X10417706Y-17282746D02*
X10408182Y-17235127D01*
X10408182Y-17235127D02*
X10398658Y-17206555D01*
X10398658Y-17206555D02*
X10389134Y-17187508D01*
X10389134Y-17187508D02*
X10370087Y-17158936D01*
X10370087Y-17158936D02*
X10360563Y-17149412D01*
M02*
