%TF.GenerationSoftware,KiCad,Pcbnew,8.0.2-rc1*%
%TF.CreationDate,2024-12-09T19:42:59+01:00*%
%TF.ProjectId,Carte-Principale,43617274-652d-4507-9269-6e636970616c,rev?*%
%TF.SameCoordinates,Original*%
%TF.FileFunction,Drillmap*%
%TF.FilePolarity,Positive*%
%FSLAX45Y45*%
G04 Gerber Fmt 4.5, Leading zero omitted, Abs format (unit mm)*
G04 Created by KiCad (PCBNEW 8.0.2-rc1) date 2024-12-09 19:42:59*
%MOMM*%
%LPD*%
G01*
G04 APERTURE LIST*
%ADD10C,0.050000*%
%ADD11C,0.200000*%
%ADD12C,0.100000*%
%ADD13C,0.152000*%
%ADD14C,0.270000*%
%ADD15C,0.450000*%
G04 APERTURE END LIST*
D10*
X6996500Y-2921000D02*
X21000000Y-2921000D01*
X21000000Y-14732000D01*
X6996500Y-14732000D01*
X6996500Y-2921000D01*
D11*
D12*
X8341600Y-12456400D02*
X8371600Y-12486400D01*
X8371600Y-12456400D02*
X8341600Y-12486400D01*
X8341600Y-12519900D02*
X8371600Y-12549900D01*
X8371600Y-12519900D02*
X8341600Y-12549900D01*
X8341600Y-12583400D02*
X8371600Y-12613400D01*
X8371600Y-12583400D02*
X8341600Y-12613400D01*
X8417800Y-12456400D02*
X8447800Y-12486400D01*
X8447800Y-12456400D02*
X8417800Y-12486400D01*
X8417800Y-12519900D02*
X8447800Y-12549900D01*
X8447800Y-12519900D02*
X8417800Y-12549900D01*
X8417800Y-12583400D02*
X8447800Y-12613400D01*
X8447800Y-12583400D02*
X8417800Y-12613400D01*
X8474950Y-10760950D02*
X8504950Y-10790950D01*
X8504950Y-10760950D02*
X8474950Y-10790950D01*
X8494000Y-12456400D02*
X8524000Y-12486400D01*
X8524000Y-12456400D02*
X8494000Y-12486400D01*
X8494000Y-12519900D02*
X8524000Y-12549900D01*
X8524000Y-12519900D02*
X8494000Y-12549900D01*
X8494000Y-12583400D02*
X8524000Y-12613400D01*
X8524000Y-12583400D02*
X8494000Y-12613400D01*
X8684500Y-4919100D02*
X8714500Y-4949100D01*
X8714500Y-4919100D02*
X8684500Y-4949100D01*
X9129000Y-4163300D02*
X9159000Y-4193300D01*
X9159000Y-4163300D02*
X9129000Y-4193300D01*
X9129000Y-4620500D02*
X9159000Y-4650500D01*
X9159000Y-4620500D02*
X9129000Y-4650500D01*
X9281400Y-6233400D02*
X9311400Y-6263400D01*
X9311400Y-6233400D02*
X9281400Y-6263400D01*
X9535400Y-4176000D02*
X9565400Y-4206000D01*
X9565400Y-4176000D02*
X9535400Y-4206000D01*
X9535400Y-4620500D02*
X9565400Y-4650500D01*
X9565400Y-4620500D02*
X9535400Y-4650500D01*
X9852900Y-6233400D02*
X9882900Y-6263400D01*
X9882900Y-6233400D02*
X9852900Y-6263400D01*
X9941800Y-4176000D02*
X9971800Y-4206000D01*
X9971800Y-4176000D02*
X9941800Y-4206000D01*
X9941800Y-4620500D02*
X9971800Y-4650500D01*
X9971800Y-4620500D02*
X9941800Y-4650500D01*
X10232500Y-11604000D02*
X10262500Y-11634000D01*
X10262500Y-11604000D02*
X10232500Y-11634000D01*
X10246600Y-10754600D02*
X10276600Y-10784600D01*
X10276600Y-10754600D02*
X10246600Y-10784600D01*
X10246600Y-11211800D02*
X10276600Y-11241800D01*
X10276600Y-11211800D02*
X10246600Y-11241800D01*
X10617500Y-5855000D02*
X10647500Y-5885000D01*
X10647500Y-5855000D02*
X10617500Y-5885000D01*
X11262600Y-12583400D02*
X11292600Y-12613400D01*
X11292600Y-12583400D02*
X11262600Y-12613400D01*
X11275200Y-7363600D02*
X11305200Y-7393600D01*
X11305200Y-7363600D02*
X11275200Y-7393600D01*
X11322600Y-12511532D02*
X11352600Y-12541532D01*
X11352600Y-12511532D02*
X11322600Y-12541532D01*
X11808700Y-7084600D02*
X11838700Y-7114600D01*
X11838700Y-7084600D02*
X11808700Y-7114600D01*
X11936976Y-10928600D02*
X11966976Y-10958600D01*
X11966976Y-10928600D02*
X11936976Y-10958600D01*
X11963000Y-10763800D02*
X11993000Y-10793800D01*
X11993000Y-10763800D02*
X11963000Y-10793800D01*
X12075400Y-10703800D02*
X12105400Y-10733800D01*
X12105400Y-10703800D02*
X12075400Y-10733800D01*
X12126200Y-4264900D02*
X12156200Y-4294900D01*
X12156200Y-4264900D02*
X12126200Y-4294900D01*
X12126200Y-4595100D02*
X12156200Y-4625100D01*
X12156200Y-4595100D02*
X12126200Y-4625100D01*
X12202400Y-4595100D02*
X12232400Y-4625100D01*
X12232400Y-4595100D02*
X12202400Y-4625100D01*
X12215100Y-4264900D02*
X12245100Y-4294900D01*
X12245100Y-4264900D02*
X12215100Y-4294900D01*
X13430300Y-10796200D02*
X13460300Y-10826200D01*
X13460300Y-10796200D02*
X13430300Y-10826200D01*
X13472400Y-4582400D02*
X13502400Y-4612400D01*
X13502400Y-4582400D02*
X13472400Y-4612400D01*
X13497800Y-3363200D02*
X13527800Y-3393200D01*
X13527800Y-3363200D02*
X13497800Y-3393200D01*
X13599400Y-3363200D02*
X13629400Y-3393200D01*
X13629400Y-3363200D02*
X13599400Y-3393200D01*
X13599400Y-10796200D02*
X13629400Y-10826200D01*
X13629400Y-10796200D02*
X13599400Y-10826200D01*
X13601750Y-5001500D02*
X13631750Y-5031500D01*
X13631750Y-5001500D02*
X13601750Y-5031500D01*
X13650200Y-6843000D02*
X13680200Y-6873000D01*
X13680200Y-6843000D02*
X13650200Y-6873000D01*
X13701000Y-3363200D02*
X13731000Y-3393200D01*
X13731000Y-3363200D02*
X13701000Y-3393200D01*
X13701000Y-4049000D02*
X13731000Y-4079000D01*
X13731000Y-4049000D02*
X13701000Y-4079000D01*
X13955000Y-4607800D02*
X13985000Y-4637800D01*
X13985000Y-4607800D02*
X13955000Y-4637800D01*
X14145500Y-4049000D02*
X14175500Y-4079000D01*
X14175500Y-4049000D02*
X14145500Y-4079000D01*
X14234400Y-4916400D02*
X14264400Y-4946400D01*
X14264400Y-4916400D02*
X14234400Y-4946400D01*
X14259800Y-4607800D02*
X14289800Y-4637800D01*
X14289800Y-4607800D02*
X14259800Y-4637800D01*
X14336000Y-7300200D02*
X14366000Y-7330200D01*
X14366000Y-7300200D02*
X14336000Y-7330200D01*
X14361400Y-3845800D02*
X14391400Y-3875800D01*
X14391400Y-3845800D02*
X14361400Y-3875800D01*
X14463000Y-3985500D02*
X14493000Y-4015500D01*
X14493000Y-3985500D02*
X14463000Y-4015500D01*
X14526500Y-4049000D02*
X14556500Y-4079000D01*
X14556500Y-4049000D02*
X14526500Y-4079000D01*
X14551900Y-7198600D02*
X14581900Y-7228600D01*
X14581900Y-7198600D02*
X14551900Y-7228600D01*
X14615400Y-4633200D02*
X14645400Y-4663200D01*
X14645400Y-4633200D02*
X14615400Y-4663200D01*
X14793200Y-11516600D02*
X14823200Y-11546600D01*
X14823200Y-11516600D02*
X14793200Y-11546600D01*
X15339300Y-4264900D02*
X15369300Y-4294900D01*
X15369300Y-4264900D02*
X15339300Y-4294900D01*
X15339300Y-4645900D02*
X15369300Y-4675900D01*
X15369300Y-4645900D02*
X15339300Y-4675900D01*
X15415500Y-4264900D02*
X15445500Y-4294900D01*
X15445500Y-4264900D02*
X15415500Y-4294900D01*
X15415500Y-4645900D02*
X15445500Y-4675900D01*
X15445500Y-4645900D02*
X15415500Y-4675900D01*
X15479000Y-5014200D02*
X15509000Y-5044200D01*
X15509000Y-5014200D02*
X15479000Y-5044200D01*
X15491700Y-4264900D02*
X15521700Y-4294900D01*
X15521700Y-4264900D02*
X15491700Y-4294900D01*
X15491700Y-4645900D02*
X15521700Y-4675900D01*
X15521700Y-4645900D02*
X15491700Y-4675900D01*
X15567900Y-4264900D02*
X15597900Y-4294900D01*
X15597900Y-4264900D02*
X15567900Y-4294900D01*
X15567900Y-4645900D02*
X15597900Y-4675900D01*
X15597900Y-4645900D02*
X15567900Y-4675900D01*
X15593300Y-11503900D02*
X15623300Y-11533900D01*
X15623300Y-11503900D02*
X15593300Y-11533900D01*
X15593300Y-11580100D02*
X15623300Y-11610100D01*
X15623300Y-11580100D02*
X15593300Y-11610100D01*
X15669500Y-11503900D02*
X15699500Y-11533900D01*
X15699500Y-11503900D02*
X15669500Y-11533900D01*
X15669500Y-11580100D02*
X15699500Y-11610100D01*
X15699500Y-11580100D02*
X15669500Y-11610100D01*
X16215600Y-12456400D02*
X16245600Y-12486400D01*
X16245600Y-12456400D02*
X16215600Y-12486400D01*
X16406100Y-12304000D02*
X16436100Y-12334000D01*
X16436100Y-12304000D02*
X16406100Y-12334000D01*
X16495000Y-12304000D02*
X16525000Y-12334000D01*
X16525000Y-12304000D02*
X16495000Y-12334000D01*
X16749000Y-3985500D02*
X16779000Y-4015500D01*
X16779000Y-3985500D02*
X16749000Y-4015500D01*
X16749000Y-4087100D02*
X16779000Y-4117100D01*
X16779000Y-4087100D02*
X16749000Y-4117100D01*
X16863300Y-12926300D02*
X16893300Y-12956300D01*
X16893300Y-12926300D02*
X16863300Y-12956300D01*
X16863300Y-13015200D02*
X16893300Y-13045200D01*
X16893300Y-13015200D02*
X16863300Y-13045200D01*
X16876000Y-3985500D02*
X16906000Y-4015500D01*
X16906000Y-3985500D02*
X16876000Y-4015500D01*
X16876000Y-4087100D02*
X16906000Y-4117100D01*
X16906000Y-4087100D02*
X16876000Y-4117100D01*
X16939500Y-12926300D02*
X16969500Y-12956300D01*
X16969500Y-12926300D02*
X16939500Y-12956300D01*
X16939500Y-13015200D02*
X16969500Y-13045200D01*
X16969500Y-13015200D02*
X16939500Y-13045200D01*
X16977600Y-6893800D02*
X17007600Y-6923800D01*
X17007600Y-6893800D02*
X16977600Y-6923800D01*
X16977600Y-7147800D02*
X17007600Y-7177800D01*
X17007600Y-7147800D02*
X16977600Y-7177800D01*
X17593550Y-7992350D02*
X17623550Y-8022350D01*
X17623550Y-7992350D02*
X17593550Y-8022350D01*
X17636606Y-11135600D02*
X17666606Y-11165600D01*
X17666606Y-11135600D02*
X17636606Y-11165600D01*
X17638000Y-10526000D02*
X17668000Y-10556000D01*
X17668000Y-10526000D02*
X17638000Y-10556000D01*
X17663400Y-7300200D02*
X17693400Y-7330200D01*
X17693400Y-7300200D02*
X17663400Y-7330200D01*
X17663400Y-11669000D02*
X17693400Y-11699000D01*
X17693400Y-11669000D02*
X17663400Y-11699000D01*
X17717900Y-5268200D02*
X17747900Y-5298200D01*
X17747900Y-5268200D02*
X17717900Y-5298200D01*
X17723400Y-7706100D02*
X17753400Y-7736100D01*
X17753400Y-7706100D02*
X17723400Y-7736100D01*
X17765000Y-5496800D02*
X17795000Y-5526800D01*
X17795000Y-5496800D02*
X17765000Y-5526800D01*
X17815800Y-10678400D02*
X17845800Y-10708400D01*
X17845800Y-10678400D02*
X17815800Y-10708400D01*
X17866600Y-3833100D02*
X17896600Y-3863100D01*
X17896600Y-3833100D02*
X17866600Y-3863100D01*
X17904700Y-3896600D02*
X17934700Y-3926600D01*
X17934700Y-3896600D02*
X17904700Y-3926600D01*
X17917400Y-12532600D02*
X17947400Y-12562600D01*
X17947400Y-12532600D02*
X17917400Y-12562600D01*
X18128974Y-7037826D02*
X18158974Y-7067826D01*
X18158974Y-7037826D02*
X18128974Y-7067826D01*
X18173284Y-4605916D02*
X18203284Y-4635916D01*
X18203284Y-4605916D02*
X18173284Y-4635916D01*
X18222200Y-7554200D02*
X18252200Y-7584200D01*
X18252200Y-7554200D02*
X18222200Y-7584200D01*
X18264500Y-7288528D02*
X18294500Y-7318528D01*
X18294500Y-7288528D02*
X18264500Y-7318528D01*
X18301100Y-7435300D02*
X18331100Y-7465300D01*
X18331100Y-7435300D02*
X18301100Y-7465300D01*
X18429323Y-4756277D02*
X18459323Y-4786277D01*
X18459323Y-4756277D02*
X18429323Y-4786277D01*
X18768300Y-7414500D02*
X18798300Y-7444500D01*
X18798300Y-7414500D02*
X18768300Y-7444500D01*
X18793700Y-7576623D02*
X18823700Y-7606623D01*
X18823700Y-7576623D02*
X18793700Y-7606623D01*
X18806400Y-7338300D02*
X18836400Y-7368300D01*
X18836400Y-7338300D02*
X18806400Y-7368300D01*
X18931100Y-5420600D02*
X18961100Y-5450600D01*
X18961100Y-5420600D02*
X18931100Y-5450600D01*
X18944981Y-5296528D02*
X18974981Y-5326528D01*
X18974981Y-5296528D02*
X18944981Y-5326528D01*
X19013886Y-11499614D02*
X19043886Y-11529614D01*
X19043886Y-11499614D02*
X19013886Y-11529614D01*
X19136600Y-11516600D02*
X19166600Y-11546600D01*
X19166600Y-11516600D02*
X19136600Y-11546600D01*
X12518100Y-4921000D02*
G75*
G02*
X12438100Y-4921000I-40000J0D01*
G01*
X12438100Y-4921000D02*
G75*
G02*
X12518100Y-4921000I40000J0D01*
G01*
X12518100Y-5175000D02*
G75*
G02*
X12438100Y-5175000I-40000J0D01*
G01*
X12438100Y-5175000D02*
G75*
G02*
X12518100Y-5175000I40000J0D01*
G01*
X12772100Y-4921000D02*
G75*
G02*
X12692100Y-4921000I-40000J0D01*
G01*
X12692100Y-4921000D02*
G75*
G02*
X12772100Y-4921000I40000J0D01*
G01*
X12772100Y-5175000D02*
G75*
G02*
X12692100Y-5175000I-40000J0D01*
G01*
X12692100Y-5175000D02*
G75*
G02*
X12772100Y-5175000I40000J0D01*
G01*
X18681600Y-3708400D02*
G75*
G02*
X18601600Y-3708400I-40000J0D01*
G01*
X18601600Y-3708400D02*
G75*
G02*
X18681600Y-3708400I40000J0D01*
G01*
X18683600Y-3454400D02*
G75*
G02*
X18603600Y-3454400I-40000J0D01*
G01*
X18603600Y-3454400D02*
G75*
G02*
X18683600Y-3454400I40000J0D01*
G01*
X18935600Y-3708400D02*
G75*
G02*
X18855600Y-3708400I-40000J0D01*
G01*
X18855600Y-3708400D02*
G75*
G02*
X18935600Y-3708400I40000J0D01*
G01*
X18937600Y-3454400D02*
G75*
G02*
X18857600Y-3454400I-40000J0D01*
G01*
X18857600Y-3454400D02*
G75*
G02*
X18937600Y-3454400I40000J0D01*
G01*
X11061000Y-12970000D02*
X11061000Y-13065000D01*
X11013500Y-13017500D02*
X11108500Y-13017500D01*
X11061000Y-13859000D02*
X11061000Y-13954000D01*
X11013500Y-13906500D02*
X11108500Y-13906500D01*
X11311000Y-12970000D02*
X11311000Y-13065000D01*
X11263500Y-13017500D02*
X11358500Y-13017500D01*
X11311000Y-13859000D02*
X11311000Y-13954000D01*
X11263500Y-13906500D02*
X11358500Y-13906500D01*
X11561000Y-12970000D02*
X11561000Y-13065000D01*
X11513500Y-13017500D02*
X11608500Y-13017500D01*
X11561000Y-13859000D02*
X11561000Y-13954000D01*
X11513500Y-13906500D02*
X11608500Y-13906500D01*
X11811000Y-12970000D02*
X11811000Y-13065000D01*
X11763500Y-13017500D02*
X11858500Y-13017500D01*
X11811000Y-13859000D02*
X11811000Y-13954000D01*
X11763500Y-13906500D02*
X11858500Y-13906500D01*
X12509557Y-12969918D02*
X12509557Y-13064918D01*
X12462057Y-13017418D02*
X12557057Y-13017418D01*
X12509557Y-13858918D02*
X12509557Y-13953918D01*
X12462057Y-13906418D02*
X12557057Y-13906418D01*
X12759557Y-12969918D02*
X12759557Y-13064918D01*
X12712057Y-13017418D02*
X12807057Y-13017418D01*
X12759557Y-13858918D02*
X12759557Y-13953918D01*
X12712057Y-13906418D02*
X12807057Y-13906418D01*
X13009557Y-12969918D02*
X13009557Y-13064918D01*
X12962057Y-13017418D02*
X13057057Y-13017418D01*
X13009557Y-13858918D02*
X13009557Y-13953918D01*
X12962057Y-13906418D02*
X13057057Y-13906418D01*
X13259557Y-12969918D02*
X13259557Y-13064918D01*
X13212057Y-13017418D02*
X13307057Y-13017418D01*
X13259557Y-13858918D02*
X13259557Y-13953918D01*
X13212057Y-13906418D02*
X13307057Y-13906418D01*
X14160500Y-12970000D02*
X14160500Y-13065000D01*
X14113000Y-13017500D02*
X14208000Y-13017500D01*
X14160500Y-13859000D02*
X14160500Y-13954000D01*
X14113000Y-13906500D02*
X14208000Y-13906500D01*
X14410500Y-12970000D02*
X14410500Y-13065000D01*
X14363000Y-13017500D02*
X14458000Y-13017500D01*
X14410500Y-13859000D02*
X14410500Y-13954000D01*
X14363000Y-13906500D02*
X14458000Y-13906500D01*
X14660500Y-12970000D02*
X14660500Y-13065000D01*
X14613000Y-13017500D02*
X14708000Y-13017500D01*
X14660500Y-13859000D02*
X14660500Y-13954000D01*
X14613000Y-13906500D02*
X14708000Y-13906500D01*
X14910500Y-12970000D02*
X14910500Y-13065000D01*
X14863000Y-13017500D02*
X14958000Y-13017500D01*
X14910500Y-13859000D02*
X14910500Y-13954000D01*
X14863000Y-13906500D02*
X14958000Y-13906500D01*
X15696500Y-13859000D02*
X15696500Y-13954000D01*
X15649000Y-13906500D02*
X15744000Y-13906500D01*
X15697200Y-12970082D02*
X15697200Y-13065082D01*
X15649700Y-13017582D02*
X15744700Y-13017582D01*
X15946500Y-13859000D02*
X15946500Y-13954000D01*
X15899000Y-13906500D02*
X15994000Y-13906500D01*
X15947200Y-12970082D02*
X15947200Y-13065082D01*
X15899700Y-13017582D02*
X15994700Y-13017582D01*
X16040100Y-3637500D02*
X16040100Y-3732500D01*
X15992600Y-3685000D02*
X16087600Y-3685000D01*
X16056800Y-4626100D02*
X16056800Y-4721100D01*
X16009300Y-4673600D02*
X16104300Y-4673600D01*
X16196500Y-13859000D02*
X16196500Y-13954000D01*
X16149000Y-13906500D02*
X16244000Y-13906500D01*
X16197200Y-12970082D02*
X16197200Y-13065082D01*
X16149700Y-13017582D02*
X16244700Y-13017582D01*
X16290100Y-3637500D02*
X16290100Y-3732500D01*
X16242600Y-3685000D02*
X16337600Y-3685000D01*
X16306800Y-4626100D02*
X16306800Y-4721100D01*
X16259300Y-4673600D02*
X16354300Y-4673600D01*
X16446500Y-13859000D02*
X16446500Y-13954000D01*
X16399000Y-13906500D02*
X16494000Y-13906500D01*
X16447200Y-12970082D02*
X16447200Y-13065082D01*
X16399700Y-13017582D02*
X16494700Y-13017582D01*
X16540100Y-3637500D02*
X16540100Y-3732500D01*
X16492600Y-3685000D02*
X16587600Y-3685000D01*
X16556800Y-4626100D02*
X16556800Y-4721100D01*
X16509300Y-4673600D02*
X16604300Y-4673600D01*
X16790100Y-3637500D02*
X16790100Y-3732500D01*
X16742600Y-3685000D02*
X16837600Y-3685000D01*
X16806800Y-4626100D02*
X16806800Y-4721100D01*
X16759300Y-4673600D02*
X16854300Y-4673600D01*
X17040100Y-3637500D02*
X17040100Y-3732500D01*
X16992600Y-3685000D02*
X17087600Y-3685000D01*
X17056800Y-4626100D02*
X17056800Y-4721100D01*
X17009300Y-4673600D02*
X17104300Y-4673600D01*
X17290100Y-3637500D02*
X17290100Y-3732500D01*
X17242600Y-3685000D02*
X17337600Y-3685000D01*
X17306800Y-4626100D02*
X17306800Y-4721100D01*
X17259300Y-4673600D02*
X17354300Y-4673600D01*
X17351500Y-12970000D02*
X17351500Y-13065000D01*
X17304000Y-13017500D02*
X17399000Y-13017500D01*
X17351500Y-13859000D02*
X17351500Y-13954000D01*
X17304000Y-13906500D02*
X17399000Y-13906500D01*
X17540100Y-3637500D02*
X17540100Y-3732500D01*
X17492600Y-3685000D02*
X17587600Y-3685000D01*
X17556800Y-4626100D02*
X17556800Y-4721100D01*
X17509300Y-4673600D02*
X17604300Y-4673600D01*
X17601500Y-12970000D02*
X17601500Y-13065000D01*
X17554000Y-13017500D02*
X17649000Y-13017500D01*
X17601500Y-13859000D02*
X17601500Y-13954000D01*
X17554000Y-13906500D02*
X17649000Y-13906500D01*
X17790100Y-3637500D02*
X17790100Y-3732500D01*
X17742600Y-3685000D02*
X17837600Y-3685000D01*
X17806800Y-4626100D02*
X17806800Y-4721100D01*
X17759300Y-4673600D02*
X17854300Y-4673600D01*
X17851500Y-12970000D02*
X17851500Y-13065000D01*
X17804000Y-13017500D02*
X17899000Y-13017500D01*
X17851500Y-13859000D02*
X17851500Y-13954000D01*
X17804000Y-13906500D02*
X17899000Y-13906500D01*
X18101500Y-12970000D02*
X18101500Y-13065000D01*
X18054000Y-13017500D02*
X18149000Y-13017500D01*
X18101500Y-13859000D02*
X18101500Y-13954000D01*
X18054000Y-13906500D02*
X18149000Y-13906500D01*
X18351500Y-12970000D02*
X18351500Y-13065000D01*
X18304000Y-13017500D02*
X18399000Y-13017500D01*
X18351500Y-13859000D02*
X18351500Y-13954000D01*
X18304000Y-13906500D02*
X18399000Y-13906500D01*
X18601500Y-12970000D02*
X18601500Y-13065000D01*
X18554000Y-13017500D02*
X18649000Y-13017500D01*
X18601500Y-13859000D02*
X18601500Y-13954000D01*
X18554000Y-13906500D02*
X18649000Y-13906500D01*
X18851500Y-12970000D02*
X18851500Y-13065000D01*
X18804000Y-13017500D02*
X18899000Y-13017500D01*
X18851500Y-13859000D02*
X18851500Y-13954000D01*
X18804000Y-13906500D02*
X18899000Y-13906500D01*
X19101500Y-12970000D02*
X19101500Y-13065000D01*
X19054000Y-13017500D02*
X19149000Y-13017500D01*
X19101500Y-13859000D02*
X19101500Y-13954000D01*
X19054000Y-13906500D02*
X19149000Y-13906500D01*
X19351500Y-12970000D02*
X19351500Y-13065000D01*
X19304000Y-13017500D02*
X19399000Y-13017500D01*
X19351500Y-13859000D02*
X19351500Y-13954000D01*
X19304000Y-13906500D02*
X19399000Y-13906500D01*
X19601500Y-12970000D02*
X19601500Y-13065000D01*
X19554000Y-13017500D02*
X19649000Y-13017500D01*
X19601500Y-13859000D02*
X19601500Y-13954000D01*
X19554000Y-13906500D02*
X19649000Y-13906500D01*
X20077000Y-4270500D02*
X20077000Y-4365500D01*
X20029500Y-4318000D02*
X20124500Y-4318000D01*
X20077000Y-4520500D02*
X20077000Y-4615500D01*
X20029500Y-4568000D02*
X20124500Y-4568000D01*
X20077000Y-4770500D02*
X20077000Y-4865500D01*
X20029500Y-4818000D02*
X20124500Y-4818000D01*
X7401356Y-4797856D02*
X7401356Y-4727144D01*
X7330644Y-4727144D01*
X7330644Y-4797856D01*
X7401356Y-4797856D01*
X8161356Y-4797856D02*
X8161356Y-4727144D01*
X8090644Y-4727144D01*
X8090644Y-4797856D01*
X8161356Y-4797856D01*
X8416856Y-5750356D02*
X8416856Y-5679644D01*
X8346144Y-5679644D01*
X8346144Y-5750356D01*
X8416856Y-5750356D01*
X8416856Y-12100356D02*
X8416856Y-12029644D01*
X8346144Y-12029644D01*
X8346144Y-12100356D01*
X8416856Y-12100356D01*
X8670856Y-5750356D02*
X8670856Y-5679644D01*
X8600144Y-5679644D01*
X8600144Y-5750356D01*
X8670856Y-5750356D01*
X8670856Y-12100356D02*
X8670856Y-12029644D01*
X8600144Y-12029644D01*
X8600144Y-12100356D01*
X8670856Y-12100356D01*
X8988856Y-4899456D02*
X8988856Y-4828744D01*
X8918144Y-4828744D01*
X8918144Y-4899456D01*
X8988856Y-4899456D01*
X9395256Y-4899456D02*
X9395256Y-4828744D01*
X9324544Y-4828744D01*
X9324544Y-4899456D01*
X9395256Y-4899456D01*
X9788956Y-4899456D02*
X9788956Y-4828744D01*
X9718244Y-4828744D01*
X9718244Y-4899456D01*
X9788956Y-4899456D01*
X10233456Y-4899456D02*
X10233456Y-4828744D01*
X10162744Y-4828744D01*
X10162744Y-4899456D01*
X10233456Y-4899456D01*
X10957356Y-4912156D02*
X10957356Y-4841444D01*
X10886644Y-4841444D01*
X10886644Y-4912156D01*
X10957356Y-4912156D01*
X11210856Y-11846356D02*
X11210856Y-11775644D01*
X11140144Y-11775644D01*
X11140144Y-11846356D01*
X11210856Y-11846356D01*
X11210856Y-12100356D02*
X11210856Y-12029644D01*
X11140144Y-12029644D01*
X11140144Y-12100356D01*
X11210856Y-12100356D01*
X11211356Y-4912156D02*
X11211356Y-4841444D01*
X11140644Y-4841444D01*
X11140644Y-4912156D01*
X11211356Y-4912156D01*
X11212856Y-5750356D02*
X11212856Y-5679644D01*
X11142144Y-5679644D01*
X11142144Y-5750356D01*
X11212856Y-5750356D01*
X11212856Y-6004356D02*
X11212856Y-5933644D01*
X11142144Y-5933644D01*
X11142144Y-6004356D01*
X11212856Y-6004356D01*
X11312456Y-6512356D02*
X11312456Y-6441644D01*
X11241744Y-6441644D01*
X11241744Y-6512356D01*
X11312456Y-6512356D01*
X11312456Y-6766356D02*
X11312456Y-6695644D01*
X11241744Y-6695644D01*
X11241744Y-6766356D01*
X11312456Y-6766356D01*
X11464856Y-11846356D02*
X11464856Y-11775644D01*
X11394144Y-11775644D01*
X11394144Y-11846356D01*
X11464856Y-11846356D01*
X11464856Y-12100356D02*
X11464856Y-12029644D01*
X11394144Y-12029644D01*
X11394144Y-12100356D01*
X11464856Y-12100356D01*
X11465356Y-4912156D02*
X11465356Y-4841444D01*
X11394644Y-4841444D01*
X11394644Y-4912156D01*
X11465356Y-4912156D01*
X11466856Y-5750356D02*
X11466856Y-5679644D01*
X11396144Y-5679644D01*
X11396144Y-5750356D01*
X11466856Y-5750356D01*
X11466856Y-6004356D02*
X11466856Y-5933644D01*
X11396144Y-5933644D01*
X11396144Y-6004356D01*
X11466856Y-6004356D01*
X11566456Y-6512356D02*
X11566456Y-6441644D01*
X11495744Y-6441644D01*
X11495744Y-6512356D01*
X11566456Y-6512356D01*
X11566456Y-6766356D02*
X11566456Y-6695644D01*
X11495744Y-6695644D01*
X11495744Y-6766356D01*
X11566456Y-6766356D01*
X11718856Y-11846356D02*
X11718856Y-11775644D01*
X11648144Y-11775644D01*
X11648144Y-11846356D01*
X11718856Y-11846356D01*
X11718856Y-12100356D02*
X11718856Y-12029644D01*
X11648144Y-12029644D01*
X11648144Y-12100356D01*
X11718856Y-12100356D01*
X11719356Y-4912156D02*
X11719356Y-4841444D01*
X11648644Y-4841444D01*
X11648644Y-4912156D01*
X11719356Y-4912156D01*
X11720856Y-5750356D02*
X11720856Y-5679644D01*
X11650144Y-5679644D01*
X11650144Y-5750356D01*
X11720856Y-5750356D01*
X11720856Y-6004356D02*
X11720856Y-5933644D01*
X11650144Y-5933644D01*
X11650144Y-6004356D01*
X11720856Y-6004356D01*
X11820456Y-6512356D02*
X11820456Y-6441644D01*
X11749744Y-6441644D01*
X11749744Y-6512356D01*
X11820456Y-6512356D01*
X11820456Y-6766356D02*
X11820456Y-6695644D01*
X11749744Y-6695644D01*
X11749744Y-6766356D01*
X11820456Y-6766356D01*
X11972856Y-11846356D02*
X11972856Y-11775644D01*
X11902144Y-11775644D01*
X11902144Y-11846356D01*
X11972856Y-11846356D01*
X11972856Y-12100356D02*
X11972856Y-12029644D01*
X11902144Y-12029644D01*
X11902144Y-12100356D01*
X11972856Y-12100356D01*
X11974856Y-5750356D02*
X11974856Y-5679644D01*
X11904144Y-5679644D01*
X11904144Y-5750356D01*
X11974856Y-5750356D01*
X11974856Y-6004356D02*
X11974856Y-5933644D01*
X11904144Y-5933644D01*
X11904144Y-6004356D01*
X11974856Y-6004356D01*
X12074456Y-6512356D02*
X12074456Y-6441644D01*
X12003744Y-6441644D01*
X12003744Y-6512356D01*
X12074456Y-6512356D01*
X12074456Y-6766356D02*
X12074456Y-6695644D01*
X12003744Y-6695644D01*
X12003744Y-6766356D01*
X12074456Y-6766356D01*
X12226856Y-11084356D02*
X12226856Y-11013644D01*
X12156144Y-11013644D01*
X12156144Y-11084356D01*
X12226856Y-11084356D01*
X12226856Y-11338356D02*
X12226856Y-11267644D01*
X12156144Y-11267644D01*
X12156144Y-11338356D01*
X12226856Y-11338356D01*
X12226856Y-11846356D02*
X12226856Y-11775644D01*
X12156144Y-11775644D01*
X12156144Y-11846356D01*
X12226856Y-11846356D01*
X12226856Y-12100356D02*
X12226856Y-12029644D01*
X12156144Y-12029644D01*
X12156144Y-12100356D01*
X12226856Y-12100356D01*
X12228856Y-5750356D02*
X12228856Y-5679644D01*
X12158144Y-5679644D01*
X12158144Y-5750356D01*
X12228856Y-5750356D01*
X12228856Y-6004356D02*
X12228856Y-5933644D01*
X12158144Y-5933644D01*
X12158144Y-6004356D01*
X12228856Y-6004356D01*
X12328456Y-6512356D02*
X12328456Y-6441644D01*
X12257744Y-6441644D01*
X12257744Y-6512356D01*
X12328456Y-6512356D01*
X12328456Y-6766356D02*
X12328456Y-6695644D01*
X12257744Y-6695644D01*
X12257744Y-6766356D01*
X12328456Y-6766356D01*
X12480856Y-11084356D02*
X12480856Y-11013644D01*
X12410144Y-11013644D01*
X12410144Y-11084356D01*
X12480856Y-11084356D01*
X12480856Y-11338356D02*
X12480856Y-11267644D01*
X12410144Y-11267644D01*
X12410144Y-11338356D01*
X12480856Y-11338356D01*
X12480856Y-11846356D02*
X12480856Y-11775644D01*
X12410144Y-11775644D01*
X12410144Y-11846356D01*
X12480856Y-11846356D01*
X12480856Y-12100356D02*
X12480856Y-12029644D01*
X12410144Y-12029644D01*
X12410144Y-12100356D01*
X12480856Y-12100356D01*
X12482856Y-5750356D02*
X12482856Y-5679644D01*
X12412144Y-5679644D01*
X12412144Y-5750356D01*
X12482856Y-5750356D01*
X12482856Y-6004356D02*
X12482856Y-5933644D01*
X12412144Y-5933644D01*
X12412144Y-6004356D01*
X12482856Y-6004356D01*
X12582456Y-6512356D02*
X12582456Y-6441644D01*
X12511744Y-6441644D01*
X12511744Y-6512356D01*
X12582456Y-6512356D01*
X12582456Y-6766356D02*
X12582456Y-6695644D01*
X12511744Y-6695644D01*
X12511744Y-6766356D01*
X12582456Y-6766356D01*
X12734856Y-11084356D02*
X12734856Y-11013644D01*
X12664144Y-11013644D01*
X12664144Y-11084356D01*
X12734856Y-11084356D01*
X12734856Y-11338356D02*
X12734856Y-11267644D01*
X12664144Y-11267644D01*
X12664144Y-11338356D01*
X12734856Y-11338356D01*
X12734856Y-11846356D02*
X12734856Y-11775644D01*
X12664144Y-11775644D01*
X12664144Y-11846356D01*
X12734856Y-11846356D01*
X12734856Y-12100356D02*
X12734856Y-12029644D01*
X12664144Y-12029644D01*
X12664144Y-12100356D01*
X12734856Y-12100356D01*
X12736856Y-5750356D02*
X12736856Y-5679644D01*
X12666144Y-5679644D01*
X12666144Y-5750356D01*
X12736856Y-5750356D01*
X12736856Y-6004356D02*
X12736856Y-5933644D01*
X12666144Y-5933644D01*
X12666144Y-6004356D01*
X12736856Y-6004356D01*
X12836456Y-6512356D02*
X12836456Y-6441644D01*
X12765744Y-6441644D01*
X12765744Y-6512356D01*
X12836456Y-6512356D01*
X12836456Y-6766356D02*
X12836456Y-6695644D01*
X12765744Y-6695644D01*
X12765744Y-6766356D01*
X12836456Y-6766356D01*
X12988856Y-11084356D02*
X12988856Y-11013644D01*
X12918144Y-11013644D01*
X12918144Y-11084356D01*
X12988856Y-11084356D01*
X12988856Y-11338356D02*
X12988856Y-11267644D01*
X12918144Y-11267644D01*
X12918144Y-11338356D01*
X12988856Y-11338356D01*
X12988856Y-11846356D02*
X12988856Y-11775644D01*
X12918144Y-11775644D01*
X12918144Y-11846356D01*
X12988856Y-11846356D01*
X12988856Y-12100356D02*
X12988856Y-12029644D01*
X12918144Y-12029644D01*
X12918144Y-12100356D01*
X12988856Y-12100356D01*
X12990856Y-5750356D02*
X12990856Y-5679644D01*
X12920144Y-5679644D01*
X12920144Y-5750356D01*
X12990856Y-5750356D01*
X12990856Y-6004356D02*
X12990856Y-5933644D01*
X12920144Y-5933644D01*
X12920144Y-6004356D01*
X12990856Y-6004356D01*
X13090456Y-6512356D02*
X13090456Y-6441644D01*
X13019744Y-6441644D01*
X13019744Y-6512356D01*
X13090456Y-6512356D01*
X13090456Y-6766356D02*
X13090456Y-6695644D01*
X13019744Y-6695644D01*
X13019744Y-6766356D01*
X13090456Y-6766356D01*
X13242856Y-11084356D02*
X13242856Y-11013644D01*
X13172144Y-11013644D01*
X13172144Y-11084356D01*
X13242856Y-11084356D01*
X13242856Y-11338356D02*
X13242856Y-11267644D01*
X13172144Y-11267644D01*
X13172144Y-11338356D01*
X13242856Y-11338356D01*
X13242856Y-11846356D02*
X13242856Y-11775644D01*
X13172144Y-11775644D01*
X13172144Y-11846356D01*
X13242856Y-11846356D01*
X13242856Y-12100356D02*
X13242856Y-12029644D01*
X13172144Y-12029644D01*
X13172144Y-12100356D01*
X13242856Y-12100356D01*
X13244856Y-5750356D02*
X13244856Y-5679644D01*
X13174144Y-5679644D01*
X13174144Y-5750356D01*
X13244856Y-5750356D01*
X13244856Y-6004356D02*
X13244856Y-5933644D01*
X13174144Y-5933644D01*
X13174144Y-6004356D01*
X13244856Y-6004356D01*
X13344456Y-6512356D02*
X13344456Y-6441644D01*
X13273744Y-6441644D01*
X13273744Y-6512356D01*
X13344456Y-6512356D01*
X13344456Y-6766356D02*
X13344456Y-6695644D01*
X13273744Y-6695644D01*
X13273744Y-6766356D01*
X13344456Y-6766356D01*
X13408456Y-3591356D02*
X13408456Y-3520644D01*
X13337744Y-3520644D01*
X13337744Y-3591356D01*
X13408456Y-3591356D01*
X13408456Y-4861356D02*
X13408456Y-4790644D01*
X13337744Y-4790644D01*
X13337744Y-4861356D01*
X13408456Y-4861356D01*
X13496856Y-11084356D02*
X13496856Y-11013644D01*
X13426144Y-11013644D01*
X13426144Y-11084356D01*
X13496856Y-11084356D01*
X13496856Y-11338356D02*
X13496856Y-11267644D01*
X13426144Y-11267644D01*
X13426144Y-11338356D01*
X13496856Y-11338356D01*
X13496856Y-11846356D02*
X13496856Y-11775644D01*
X13426144Y-11775644D01*
X13426144Y-11846356D01*
X13496856Y-11846356D01*
X13496856Y-12100356D02*
X13496856Y-12029644D01*
X13426144Y-12029644D01*
X13426144Y-12100356D01*
X13496856Y-12100356D01*
X13498856Y-5750356D02*
X13498856Y-5679644D01*
X13428144Y-5679644D01*
X13428144Y-5750356D01*
X13498856Y-5750356D01*
X13498856Y-6004356D02*
X13498856Y-5933644D01*
X13428144Y-5933644D01*
X13428144Y-6004356D01*
X13498856Y-6004356D01*
X13598456Y-6512356D02*
X13598456Y-6441644D01*
X13527744Y-6441644D01*
X13527744Y-6512356D01*
X13598456Y-6512356D01*
X13598456Y-6766356D02*
X13598456Y-6695644D01*
X13527744Y-6695644D01*
X13527744Y-6766356D01*
X13598456Y-6766356D01*
X13662456Y-3591356D02*
X13662456Y-3520644D01*
X13591744Y-3520644D01*
X13591744Y-3591356D01*
X13662456Y-3591356D01*
X13662456Y-4861356D02*
X13662456Y-4790644D01*
X13591744Y-4790644D01*
X13591744Y-4861356D01*
X13662456Y-4861356D01*
X13750856Y-11084356D02*
X13750856Y-11013644D01*
X13680144Y-11013644D01*
X13680144Y-11084356D01*
X13750856Y-11084356D01*
X13750856Y-11338356D02*
X13750856Y-11267644D01*
X13680144Y-11267644D01*
X13680144Y-11338356D01*
X13750856Y-11338356D01*
X13750856Y-11846356D02*
X13750856Y-11775644D01*
X13680144Y-11775644D01*
X13680144Y-11846356D01*
X13750856Y-11846356D01*
X13750856Y-12100356D02*
X13750856Y-12029644D01*
X13680144Y-12029644D01*
X13680144Y-12100356D01*
X13750856Y-12100356D01*
X13752856Y-5750356D02*
X13752856Y-5679644D01*
X13682144Y-5679644D01*
X13682144Y-5750356D01*
X13752856Y-5750356D01*
X13752856Y-6004356D02*
X13752856Y-5933644D01*
X13682144Y-5933644D01*
X13682144Y-6004356D01*
X13752856Y-6004356D01*
X13916456Y-3591356D02*
X13916456Y-3520644D01*
X13845744Y-3520644D01*
X13845744Y-3591356D01*
X13916456Y-3591356D01*
X13916456Y-4861356D02*
X13916456Y-4790644D01*
X13845744Y-4790644D01*
X13845744Y-4861356D01*
X13916456Y-4861356D01*
X14004856Y-6512356D02*
X14004856Y-6441644D01*
X13934144Y-6441644D01*
X13934144Y-6512356D01*
X14004856Y-6512356D01*
X14004856Y-6766356D02*
X14004856Y-6695644D01*
X13934144Y-6695644D01*
X13934144Y-6766356D01*
X14004856Y-6766356D01*
X14004856Y-11084356D02*
X14004856Y-11013644D01*
X13934144Y-11013644D01*
X13934144Y-11084356D01*
X14004856Y-11084356D01*
X14004856Y-11338356D02*
X14004856Y-11267644D01*
X13934144Y-11267644D01*
X13934144Y-11338356D01*
X14004856Y-11338356D01*
X14004856Y-11846356D02*
X14004856Y-11775644D01*
X13934144Y-11775644D01*
X13934144Y-11846356D01*
X14004856Y-11846356D01*
X14004856Y-12100356D02*
X14004856Y-12029644D01*
X13934144Y-12029644D01*
X13934144Y-12100356D01*
X14004856Y-12100356D01*
X14006856Y-5750356D02*
X14006856Y-5679644D01*
X13936144Y-5679644D01*
X13936144Y-5750356D01*
X14006856Y-5750356D01*
X14006856Y-6004356D02*
X14006856Y-5933644D01*
X13936144Y-5933644D01*
X13936144Y-6004356D01*
X14006856Y-6004356D01*
X14170456Y-3591356D02*
X14170456Y-3520644D01*
X14099744Y-3520644D01*
X14099744Y-3591356D01*
X14170456Y-3591356D01*
X14170456Y-4861356D02*
X14170456Y-4790644D01*
X14099744Y-4790644D01*
X14099744Y-4861356D01*
X14170456Y-4861356D01*
X14258856Y-6512356D02*
X14258856Y-6441644D01*
X14188144Y-6441644D01*
X14188144Y-6512356D01*
X14258856Y-6512356D01*
X14258856Y-6766356D02*
X14258856Y-6695644D01*
X14188144Y-6695644D01*
X14188144Y-6766356D01*
X14258856Y-6766356D01*
X14258856Y-11846356D02*
X14258856Y-11775644D01*
X14188144Y-11775644D01*
X14188144Y-11846356D01*
X14258856Y-11846356D01*
X14258856Y-12100356D02*
X14258856Y-12029644D01*
X14188144Y-12029644D01*
X14188144Y-12100356D01*
X14258856Y-12100356D01*
X14260856Y-5750356D02*
X14260856Y-5679644D01*
X14190144Y-5679644D01*
X14190144Y-5750356D01*
X14260856Y-5750356D01*
X14260856Y-6004356D02*
X14260856Y-5933644D01*
X14190144Y-5933644D01*
X14190144Y-6004356D01*
X14260856Y-6004356D01*
X14424456Y-3591356D02*
X14424456Y-3520644D01*
X14353744Y-3520644D01*
X14353744Y-3591356D01*
X14424456Y-3591356D01*
X14424456Y-4861356D02*
X14424456Y-4790644D01*
X14353744Y-4790644D01*
X14353744Y-4861356D01*
X14424456Y-4861356D01*
X14512856Y-6512356D02*
X14512856Y-6441644D01*
X14442144Y-6441644D01*
X14442144Y-6512356D01*
X14512856Y-6512356D01*
X14512856Y-6766356D02*
X14512856Y-6695644D01*
X14442144Y-6695644D01*
X14442144Y-6766356D01*
X14512856Y-6766356D01*
X14512856Y-11084356D02*
X14512856Y-11013644D01*
X14442144Y-11013644D01*
X14442144Y-11084356D01*
X14512856Y-11084356D01*
X14512856Y-11338356D02*
X14512856Y-11267644D01*
X14442144Y-11267644D01*
X14442144Y-11338356D01*
X14512856Y-11338356D01*
X14512856Y-11846356D02*
X14512856Y-11775644D01*
X14442144Y-11775644D01*
X14442144Y-11846356D01*
X14512856Y-11846356D01*
X14512856Y-12100356D02*
X14512856Y-12029644D01*
X14442144Y-12029644D01*
X14442144Y-12100356D01*
X14512856Y-12100356D01*
X14514856Y-5750356D02*
X14514856Y-5679644D01*
X14444144Y-5679644D01*
X14444144Y-5750356D01*
X14514856Y-5750356D01*
X14514856Y-6004356D02*
X14514856Y-5933644D01*
X14444144Y-5933644D01*
X14444144Y-6004356D01*
X14514856Y-6004356D01*
X14678456Y-3591356D02*
X14678456Y-3520644D01*
X14607744Y-3520644D01*
X14607744Y-3591356D01*
X14678456Y-3591356D01*
X14678456Y-4861356D02*
X14678456Y-4790644D01*
X14607744Y-4790644D01*
X14607744Y-4861356D01*
X14678456Y-4861356D01*
X14766856Y-6512356D02*
X14766856Y-6441644D01*
X14696144Y-6441644D01*
X14696144Y-6512356D01*
X14766856Y-6512356D01*
X14766856Y-6766356D02*
X14766856Y-6695644D01*
X14696144Y-6695644D01*
X14696144Y-6766356D01*
X14766856Y-6766356D01*
X14766856Y-11084356D02*
X14766856Y-11013644D01*
X14696144Y-11013644D01*
X14696144Y-11084356D01*
X14766856Y-11084356D01*
X14766856Y-11338356D02*
X14766856Y-11267644D01*
X14696144Y-11267644D01*
X14696144Y-11338356D01*
X14766856Y-11338356D01*
X14766856Y-11846356D02*
X14766856Y-11775644D01*
X14696144Y-11775644D01*
X14696144Y-11846356D01*
X14766856Y-11846356D01*
X14766856Y-12100356D02*
X14766856Y-12029644D01*
X14696144Y-12029644D01*
X14696144Y-12100356D01*
X14766856Y-12100356D01*
X14768856Y-5750356D02*
X14768856Y-5679644D01*
X14698144Y-5679644D01*
X14698144Y-5750356D01*
X14768856Y-5750356D01*
X14768856Y-6004356D02*
X14768856Y-5933644D01*
X14698144Y-5933644D01*
X14698144Y-6004356D01*
X14768856Y-6004356D01*
X14932456Y-3591356D02*
X14932456Y-3520644D01*
X14861744Y-3520644D01*
X14861744Y-3591356D01*
X14932456Y-3591356D01*
X14932456Y-4861356D02*
X14932456Y-4790644D01*
X14861744Y-4790644D01*
X14861744Y-4861356D01*
X14932456Y-4861356D01*
X15020856Y-6512356D02*
X15020856Y-6441644D01*
X14950144Y-6441644D01*
X14950144Y-6512356D01*
X15020856Y-6512356D01*
X15020856Y-6766356D02*
X15020856Y-6695644D01*
X14950144Y-6695644D01*
X14950144Y-6766356D01*
X15020856Y-6766356D01*
X15020856Y-11084356D02*
X15020856Y-11013644D01*
X14950144Y-11013644D01*
X14950144Y-11084356D01*
X15020856Y-11084356D01*
X15020856Y-11338356D02*
X15020856Y-11267644D01*
X14950144Y-11267644D01*
X14950144Y-11338356D01*
X15020856Y-11338356D01*
X15020856Y-11846356D02*
X15020856Y-11775644D01*
X14950144Y-11775644D01*
X14950144Y-11846356D01*
X15020856Y-11846356D01*
X15020856Y-12100356D02*
X15020856Y-12029644D01*
X14950144Y-12029644D01*
X14950144Y-12100356D01*
X15020856Y-12100356D01*
X15022856Y-5750356D02*
X15022856Y-5679644D01*
X14952144Y-5679644D01*
X14952144Y-5750356D01*
X15022856Y-5750356D01*
X15022856Y-6004356D02*
X15022856Y-5933644D01*
X14952144Y-5933644D01*
X14952144Y-6004356D01*
X15022856Y-6004356D01*
X15186456Y-3591356D02*
X15186456Y-3520644D01*
X15115744Y-3520644D01*
X15115744Y-3591356D01*
X15186456Y-3591356D01*
X15186456Y-4861356D02*
X15186456Y-4790644D01*
X15115744Y-4790644D01*
X15115744Y-4861356D01*
X15186456Y-4861356D01*
X15274856Y-6512356D02*
X15274856Y-6441644D01*
X15204144Y-6441644D01*
X15204144Y-6512356D01*
X15274856Y-6512356D01*
X15274856Y-6766356D02*
X15274856Y-6695644D01*
X15204144Y-6695644D01*
X15204144Y-6766356D01*
X15274856Y-6766356D01*
X15274856Y-11084356D02*
X15274856Y-11013644D01*
X15204144Y-11013644D01*
X15204144Y-11084356D01*
X15274856Y-11084356D01*
X15274856Y-11338356D02*
X15274856Y-11267644D01*
X15204144Y-11267644D01*
X15204144Y-11338356D01*
X15274856Y-11338356D01*
X15274856Y-11846356D02*
X15274856Y-11775644D01*
X15204144Y-11775644D01*
X15204144Y-11846356D01*
X15274856Y-11846356D01*
X15274856Y-12100356D02*
X15274856Y-12029644D01*
X15204144Y-12029644D01*
X15204144Y-12100356D01*
X15274856Y-12100356D01*
X15276856Y-5750356D02*
X15276856Y-5679644D01*
X15206144Y-5679644D01*
X15206144Y-5750356D01*
X15276856Y-5750356D01*
X15276856Y-6004356D02*
X15276856Y-5933644D01*
X15206144Y-5933644D01*
X15206144Y-6004356D01*
X15276856Y-6004356D01*
X15528856Y-6512356D02*
X15528856Y-6441644D01*
X15458144Y-6441644D01*
X15458144Y-6512356D01*
X15528856Y-6512356D01*
X15528856Y-6766356D02*
X15528856Y-6695644D01*
X15458144Y-6695644D01*
X15458144Y-6766356D01*
X15528856Y-6766356D01*
X15528856Y-11084356D02*
X15528856Y-11013644D01*
X15458144Y-11013644D01*
X15458144Y-11084356D01*
X15528856Y-11084356D01*
X15528856Y-11338356D02*
X15528856Y-11267644D01*
X15458144Y-11267644D01*
X15458144Y-11338356D01*
X15528856Y-11338356D01*
X15528856Y-11846356D02*
X15528856Y-11775644D01*
X15458144Y-11775644D01*
X15458144Y-11846356D01*
X15528856Y-11846356D01*
X15528856Y-12100356D02*
X15528856Y-12029644D01*
X15458144Y-12029644D01*
X15458144Y-12100356D01*
X15528856Y-12100356D01*
X15530856Y-5750356D02*
X15530856Y-5679644D01*
X15460144Y-5679644D01*
X15460144Y-5750356D01*
X15530856Y-5750356D01*
X15530856Y-6004356D02*
X15530856Y-5933644D01*
X15460144Y-5933644D01*
X15460144Y-6004356D01*
X15530856Y-6004356D01*
X15782856Y-6512356D02*
X15782856Y-6441644D01*
X15712144Y-6441644D01*
X15712144Y-6512356D01*
X15782856Y-6512356D01*
X15782856Y-6766356D02*
X15782856Y-6695644D01*
X15712144Y-6695644D01*
X15712144Y-6766356D01*
X15782856Y-6766356D01*
X15782856Y-11084356D02*
X15782856Y-11013644D01*
X15712144Y-11013644D01*
X15712144Y-11084356D01*
X15782856Y-11084356D01*
X15782856Y-11338356D02*
X15782856Y-11267644D01*
X15712144Y-11267644D01*
X15712144Y-11338356D01*
X15782856Y-11338356D01*
X15782856Y-11846356D02*
X15782856Y-11775644D01*
X15712144Y-11775644D01*
X15712144Y-11846356D01*
X15782856Y-11846356D01*
X15782856Y-12100356D02*
X15782856Y-12029644D01*
X15712144Y-12029644D01*
X15712144Y-12100356D01*
X15782856Y-12100356D01*
X15784856Y-5750356D02*
X15784856Y-5679644D01*
X15714144Y-5679644D01*
X15714144Y-5750356D01*
X15784856Y-5750356D01*
X15784856Y-6004356D02*
X15784856Y-5933644D01*
X15714144Y-5933644D01*
X15714144Y-6004356D01*
X15784856Y-6004356D01*
X16036856Y-6512356D02*
X16036856Y-6441644D01*
X15966144Y-6441644D01*
X15966144Y-6512356D01*
X16036856Y-6512356D01*
X16036856Y-6766356D02*
X16036856Y-6695644D01*
X15966144Y-6695644D01*
X15966144Y-6766356D01*
X16036856Y-6766356D01*
X16036856Y-11084356D02*
X16036856Y-11013644D01*
X15966144Y-11013644D01*
X15966144Y-11084356D01*
X16036856Y-11084356D01*
X16036856Y-11338356D02*
X16036856Y-11267644D01*
X15966144Y-11267644D01*
X15966144Y-11338356D01*
X16036856Y-11338356D01*
X16036856Y-11846356D02*
X16036856Y-11775644D01*
X15966144Y-11775644D01*
X15966144Y-11846356D01*
X16036856Y-11846356D01*
X16036856Y-12100356D02*
X16036856Y-12029644D01*
X15966144Y-12029644D01*
X15966144Y-12100356D01*
X16036856Y-12100356D01*
X16038856Y-5750356D02*
X16038856Y-5679644D01*
X15968144Y-5679644D01*
X15968144Y-5750356D01*
X16038856Y-5750356D01*
X16038856Y-6004356D02*
X16038856Y-5933644D01*
X15968144Y-5933644D01*
X15968144Y-6004356D01*
X16038856Y-6004356D01*
X16290856Y-6512356D02*
X16290856Y-6441644D01*
X16220144Y-6441644D01*
X16220144Y-6512356D01*
X16290856Y-6512356D01*
X16290856Y-6766356D02*
X16290856Y-6695644D01*
X16220144Y-6695644D01*
X16220144Y-6766356D01*
X16290856Y-6766356D01*
X16290856Y-11084356D02*
X16290856Y-11013644D01*
X16220144Y-11013644D01*
X16220144Y-11084356D01*
X16290856Y-11084356D01*
X16290856Y-11338356D02*
X16290856Y-11267644D01*
X16220144Y-11267644D01*
X16220144Y-11338356D01*
X16290856Y-11338356D01*
X16290856Y-11846356D02*
X16290856Y-11775644D01*
X16220144Y-11775644D01*
X16220144Y-11846356D01*
X16290856Y-11846356D01*
X16290856Y-12100356D02*
X16290856Y-12029644D01*
X16220144Y-12029644D01*
X16220144Y-12100356D01*
X16290856Y-12100356D01*
X16292856Y-5750356D02*
X16292856Y-5679644D01*
X16222144Y-5679644D01*
X16222144Y-5750356D01*
X16292856Y-5750356D01*
X16292856Y-6004356D02*
X16292856Y-5933644D01*
X16222144Y-5933644D01*
X16222144Y-6004356D01*
X16292856Y-6004356D01*
X16544856Y-6512356D02*
X16544856Y-6441644D01*
X16474144Y-6441644D01*
X16474144Y-6512356D01*
X16544856Y-6512356D01*
X16544856Y-6766356D02*
X16544856Y-6695644D01*
X16474144Y-6695644D01*
X16474144Y-6766356D01*
X16544856Y-6766356D01*
X16544856Y-11084356D02*
X16544856Y-11013644D01*
X16474144Y-11013644D01*
X16474144Y-11084356D01*
X16544856Y-11084356D01*
X16544856Y-11338356D02*
X16544856Y-11267644D01*
X16474144Y-11267644D01*
X16474144Y-11338356D01*
X16544856Y-11338356D01*
X16544856Y-11846356D02*
X16544856Y-11775644D01*
X16474144Y-11775644D01*
X16474144Y-11846356D01*
X16544856Y-11846356D01*
X16544856Y-12100356D02*
X16544856Y-12029644D01*
X16474144Y-12029644D01*
X16474144Y-12100356D01*
X16544856Y-12100356D01*
X16546856Y-5750356D02*
X16546856Y-5679644D01*
X16476144Y-5679644D01*
X16476144Y-5750356D01*
X16546856Y-5750356D01*
X16546856Y-6004356D02*
X16546856Y-5933644D01*
X16476144Y-5933644D01*
X16476144Y-6004356D01*
X16546856Y-6004356D01*
X16798856Y-6512356D02*
X16798856Y-6441644D01*
X16728144Y-6441644D01*
X16728144Y-6512356D01*
X16798856Y-6512356D01*
X16798856Y-6766356D02*
X16798856Y-6695644D01*
X16728144Y-6695644D01*
X16728144Y-6766356D01*
X16798856Y-6766356D01*
X16798856Y-11084356D02*
X16798856Y-11013644D01*
X16728144Y-11013644D01*
X16728144Y-11084356D01*
X16798856Y-11084356D01*
X16798856Y-11338356D02*
X16798856Y-11267644D01*
X16728144Y-11267644D01*
X16728144Y-11338356D01*
X16798856Y-11338356D01*
X16798856Y-11846356D02*
X16798856Y-11775644D01*
X16728144Y-11775644D01*
X16728144Y-11846356D01*
X16798856Y-11846356D01*
X16798856Y-12100356D02*
X16798856Y-12029644D01*
X16728144Y-12029644D01*
X16728144Y-12100356D01*
X16798856Y-12100356D01*
X16800856Y-5750356D02*
X16800856Y-5679644D01*
X16730144Y-5679644D01*
X16730144Y-5750356D01*
X16800856Y-5750356D01*
X16800856Y-6004356D02*
X16800856Y-5933644D01*
X16730144Y-5933644D01*
X16730144Y-6004356D01*
X16800856Y-6004356D01*
X17052856Y-6512356D02*
X17052856Y-6441644D01*
X16982144Y-6441644D01*
X16982144Y-6512356D01*
X17052856Y-6512356D01*
X17052856Y-6766356D02*
X17052856Y-6695644D01*
X16982144Y-6695644D01*
X16982144Y-6766356D01*
X17052856Y-6766356D01*
X17052856Y-11084356D02*
X17052856Y-11013644D01*
X16982144Y-11013644D01*
X16982144Y-11084356D01*
X17052856Y-11084356D01*
X17052856Y-11338356D02*
X17052856Y-11267644D01*
X16982144Y-11267644D01*
X16982144Y-11338356D01*
X17052856Y-11338356D01*
X17052856Y-11846356D02*
X17052856Y-11775644D01*
X16982144Y-11775644D01*
X16982144Y-11846356D01*
X17052856Y-11846356D01*
X17052856Y-12100356D02*
X17052856Y-12029644D01*
X16982144Y-12029644D01*
X16982144Y-12100356D01*
X17052856Y-12100356D01*
X17054856Y-5750356D02*
X17054856Y-5679644D01*
X16984144Y-5679644D01*
X16984144Y-5750356D01*
X17054856Y-5750356D01*
X17054856Y-6004356D02*
X17054856Y-5933644D01*
X16984144Y-5933644D01*
X16984144Y-6004356D01*
X17054856Y-6004356D01*
X17306856Y-6512356D02*
X17306856Y-6441644D01*
X17236144Y-6441644D01*
X17236144Y-6512356D01*
X17306856Y-6512356D01*
X17306856Y-6766356D02*
X17306856Y-6695644D01*
X17236144Y-6695644D01*
X17236144Y-6766356D01*
X17306856Y-6766356D01*
X17306856Y-11084356D02*
X17306856Y-11013644D01*
X17236144Y-11013644D01*
X17236144Y-11084356D01*
X17306856Y-11084356D01*
X17306856Y-11338356D02*
X17306856Y-11267644D01*
X17236144Y-11267644D01*
X17236144Y-11338356D01*
X17306856Y-11338356D01*
X17306856Y-11846356D02*
X17306856Y-11775644D01*
X17236144Y-11775644D01*
X17236144Y-11846356D01*
X17306856Y-11846356D01*
X17306856Y-12100356D02*
X17306856Y-12029644D01*
X17236144Y-12029644D01*
X17236144Y-12100356D01*
X17306856Y-12100356D01*
X17308856Y-5750356D02*
X17308856Y-5679644D01*
X17238144Y-5679644D01*
X17238144Y-5750356D01*
X17308856Y-5750356D01*
X17308856Y-6004356D02*
X17308856Y-5933644D01*
X17238144Y-5933644D01*
X17238144Y-6004356D01*
X17308856Y-6004356D01*
X17560856Y-6512356D02*
X17560856Y-6441644D01*
X17490144Y-6441644D01*
X17490144Y-6512356D01*
X17560856Y-6512356D01*
X17560856Y-6766356D02*
X17560856Y-6695644D01*
X17490144Y-6695644D01*
X17490144Y-6766356D01*
X17560856Y-6766356D01*
X17560856Y-11084356D02*
X17560856Y-11013644D01*
X17490144Y-11013644D01*
X17490144Y-11084356D01*
X17560856Y-11084356D01*
X17560856Y-11338356D02*
X17560856Y-11267644D01*
X17490144Y-11267644D01*
X17490144Y-11338356D01*
X17560856Y-11338356D01*
X17560856Y-11846356D02*
X17560856Y-11775644D01*
X17490144Y-11775644D01*
X17490144Y-11846356D01*
X17560856Y-11846356D01*
X17560856Y-12100356D02*
X17560856Y-12029644D01*
X17490144Y-12029644D01*
X17490144Y-12100356D01*
X17560856Y-12100356D01*
X17562856Y-5750356D02*
X17562856Y-5679644D01*
X17492144Y-5679644D01*
X17492144Y-5750356D01*
X17562856Y-5750356D01*
X17562856Y-6004356D02*
X17562856Y-5933644D01*
X17492144Y-5933644D01*
X17492144Y-6004356D01*
X17562856Y-6004356D01*
X17814856Y-6512356D02*
X17814856Y-6441644D01*
X17744144Y-6441644D01*
X17744144Y-6512356D01*
X17814856Y-6512356D01*
X17814856Y-6766356D02*
X17814856Y-6695644D01*
X17744144Y-6695644D01*
X17744144Y-6766356D01*
X17814856Y-6766356D01*
X17814856Y-11084356D02*
X17814856Y-11013644D01*
X17744144Y-11013644D01*
X17744144Y-11084356D01*
X17814856Y-11084356D01*
X17814856Y-11338356D02*
X17814856Y-11267644D01*
X17744144Y-11267644D01*
X17744144Y-11338356D01*
X17814856Y-11338356D01*
X17814856Y-11846356D02*
X17814856Y-11775644D01*
X17744144Y-11775644D01*
X17744144Y-11846356D01*
X17814856Y-11846356D01*
X17814856Y-12100356D02*
X17814856Y-12029644D01*
X17744144Y-12029644D01*
X17744144Y-12100356D01*
X17814856Y-12100356D01*
X17816856Y-5750356D02*
X17816856Y-5679644D01*
X17746144Y-5679644D01*
X17746144Y-5750356D01*
X17816856Y-5750356D01*
X17816856Y-6004356D02*
X17816856Y-5933644D01*
X17746144Y-5933644D01*
X17746144Y-6004356D01*
X17816856Y-6004356D01*
X18068856Y-6512356D02*
X18068856Y-6441644D01*
X17998144Y-6441644D01*
X17998144Y-6512356D01*
X18068856Y-6512356D01*
X18068856Y-6766356D02*
X18068856Y-6695644D01*
X17998144Y-6695644D01*
X17998144Y-6766356D01*
X18068856Y-6766356D01*
X18068856Y-11084356D02*
X18068856Y-11013644D01*
X17998144Y-11013644D01*
X17998144Y-11084356D01*
X18068856Y-11084356D01*
X18068856Y-11338356D02*
X18068856Y-11267644D01*
X17998144Y-11267644D01*
X17998144Y-11338356D01*
X18068856Y-11338356D01*
X18068856Y-11846356D02*
X18068856Y-11775644D01*
X17998144Y-11775644D01*
X17998144Y-11846356D01*
X18068856Y-11846356D01*
X18068856Y-12100356D02*
X18068856Y-12029644D01*
X17998144Y-12029644D01*
X17998144Y-12100356D01*
X18068856Y-12100356D01*
X18070856Y-5750356D02*
X18070856Y-5679644D01*
X18000144Y-5679644D01*
X18000144Y-5750356D01*
X18070856Y-5750356D01*
X18070856Y-6004356D02*
X18070856Y-5933644D01*
X18000144Y-5933644D01*
X18000144Y-6004356D01*
X18070856Y-6004356D01*
X18322856Y-11846356D02*
X18322856Y-11775644D01*
X18252144Y-11775644D01*
X18252144Y-11846356D01*
X18322856Y-11846356D01*
X18322856Y-12100356D02*
X18322856Y-12029644D01*
X18252144Y-12029644D01*
X18252144Y-12100356D01*
X18322856Y-12100356D01*
X18324856Y-5750356D02*
X18324856Y-5679644D01*
X18254144Y-5679644D01*
X18254144Y-5750356D01*
X18324856Y-5750356D01*
X18324856Y-6004356D02*
X18324856Y-5933644D01*
X18254144Y-5933644D01*
X18254144Y-6004356D01*
X18324856Y-6004356D01*
X18576856Y-11846356D02*
X18576856Y-11775644D01*
X18506144Y-11775644D01*
X18506144Y-11846356D01*
X18576856Y-11846356D01*
X18576856Y-12100356D02*
X18576856Y-12029644D01*
X18506144Y-12029644D01*
X18506144Y-12100356D01*
X18576856Y-12100356D01*
X18578856Y-5750356D02*
X18578856Y-5679644D01*
X18508144Y-5679644D01*
X18508144Y-5750356D01*
X18578856Y-5750356D01*
X18578856Y-6004356D02*
X18578856Y-5933644D01*
X18508144Y-5933644D01*
X18508144Y-6004356D01*
X18578856Y-6004356D01*
X18830856Y-11846356D02*
X18830856Y-11775644D01*
X18760144Y-11775644D01*
X18760144Y-11846356D01*
X18830856Y-11846356D01*
X18830856Y-12100356D02*
X18830856Y-12029644D01*
X18760144Y-12029644D01*
X18760144Y-12100356D01*
X18830856Y-12100356D01*
X18832856Y-5750356D02*
X18832856Y-5679644D01*
X18762144Y-5679644D01*
X18762144Y-5750356D01*
X18832856Y-5750356D01*
X18832856Y-6004356D02*
X18832856Y-5933644D01*
X18762144Y-5933644D01*
X18762144Y-6004356D01*
X18832856Y-6004356D01*
X19084856Y-11846356D02*
X19084856Y-11775644D01*
X19014144Y-11775644D01*
X19014144Y-11846356D01*
X19084856Y-11846356D01*
X19084856Y-12100356D02*
X19084856Y-12029644D01*
X19014144Y-12029644D01*
X19014144Y-12100356D01*
X19084856Y-12100356D01*
X19086856Y-5750356D02*
X19086856Y-5679644D01*
X19016144Y-5679644D01*
X19016144Y-5750356D01*
X19086856Y-5750356D01*
X19086856Y-6004356D02*
X19086856Y-5933644D01*
X19016144Y-5933644D01*
X19016144Y-6004356D01*
X19086856Y-6004356D01*
X19338856Y-11846356D02*
X19338856Y-11775644D01*
X19268144Y-11775644D01*
X19268144Y-11846356D01*
X19338856Y-11846356D01*
X19338856Y-12100356D02*
X19338856Y-12029644D01*
X19268144Y-12029644D01*
X19268144Y-12100356D01*
X19338856Y-12100356D01*
X19340856Y-5750356D02*
X19340856Y-5679644D01*
X19270144Y-5679644D01*
X19270144Y-5750356D01*
X19340856Y-5750356D01*
X19340856Y-6004356D02*
X19340856Y-5933644D01*
X19270144Y-5933644D01*
X19270144Y-6004356D01*
X19340856Y-6004356D01*
X19592856Y-11846356D02*
X19592856Y-11775644D01*
X19522144Y-11775644D01*
X19522144Y-11846356D01*
X19592856Y-11846356D01*
X19592856Y-12100356D02*
X19592856Y-12029644D01*
X19522144Y-12029644D01*
X19522144Y-12100356D01*
X19592856Y-12100356D01*
X19594856Y-5750356D02*
X19594856Y-5679644D01*
X19524144Y-5679644D01*
X19524144Y-5750356D01*
X19594856Y-5750356D01*
X19594856Y-6004356D02*
X19594856Y-5933644D01*
X19524144Y-5933644D01*
X19524144Y-6004356D01*
X19594856Y-6004356D01*
X19846856Y-11846356D02*
X19846856Y-11775644D01*
X19776144Y-11775644D01*
X19776144Y-11846356D01*
X19846856Y-11846356D01*
X19846856Y-12100356D02*
X19846856Y-12029644D01*
X19776144Y-12029644D01*
X19776144Y-12100356D01*
X19846856Y-12100356D01*
X19848856Y-5750356D02*
X19848856Y-5679644D01*
X19778144Y-5679644D01*
X19778144Y-5750356D01*
X19848856Y-5750356D01*
X19848856Y-6004356D02*
X19848856Y-5933644D01*
X19778144Y-5933644D01*
X19778144Y-6004356D01*
X19848856Y-6004356D01*
X20100856Y-11846356D02*
X20100856Y-11775644D01*
X20030144Y-11775644D01*
X20030144Y-11846356D01*
X20100856Y-11846356D01*
X20100856Y-12100356D02*
X20100856Y-12029644D01*
X20030144Y-12029644D01*
X20030144Y-12100356D01*
X20100856Y-12100356D01*
X20102856Y-5750356D02*
X20102856Y-5679644D01*
X20032144Y-5679644D01*
X20032144Y-5750356D01*
X20102856Y-5750356D01*
X20102856Y-6004356D02*
X20102856Y-5933644D01*
X20032144Y-5933644D01*
X20032144Y-6004356D01*
X20102856Y-6004356D01*
D13*
X11023600Y-3886000D02*
X11099600Y-3810000D01*
X11023600Y-3734000D01*
X10947600Y-3810000D01*
X11023600Y-3886000D01*
X11531600Y-3886000D02*
X11607600Y-3810000D01*
X11531600Y-3734000D01*
X11455600Y-3810000D01*
X11531600Y-3886000D01*
X12230100Y-3886000D02*
X12306100Y-3810000D01*
X12230100Y-3734000D01*
X12154100Y-3810000D01*
X12230100Y-3886000D01*
X12738100Y-3886000D02*
X12814100Y-3810000D01*
X12738100Y-3734000D01*
X12662100Y-3810000D01*
X12738100Y-3886000D01*
D14*
X9898000Y-13073000D02*
X10168000Y-13343000D01*
X10168000Y-13073000D02*
X9898000Y-13343000D01*
X10168000Y-13208000D02*
G75*
G02*
X9898000Y-13208000I-135000J0D01*
G01*
X9898000Y-13208000D02*
G75*
G02*
X10168000Y-13208000I135000J0D01*
G01*
X9898000Y-13573000D02*
X10168000Y-13843000D01*
X10168000Y-13573000D02*
X9898000Y-13843000D01*
X10168000Y-13708000D02*
G75*
G02*
X9898000Y-13708000I-135000J0D01*
G01*
X9898000Y-13708000D02*
G75*
G02*
X10168000Y-13708000I135000J0D01*
G01*
D15*
X8601500Y-12856000D02*
X9051500Y-13306000D01*
X9051500Y-12856000D02*
X8601500Y-13306000D01*
X8826500Y-12856000D02*
X8826500Y-13306000D01*
X8601500Y-13081000D02*
X9051500Y-13081000D01*
X8601500Y-13576000D02*
X9051500Y-14026000D01*
X9051500Y-13576000D02*
X8601500Y-14026000D01*
X8826500Y-13576000D02*
X8826500Y-14026000D01*
X8601500Y-13801000D02*
X9051500Y-13801000D01*
D11*
X7254777Y-15045984D02*
X7254777Y-14845984D01*
X7254777Y-14845984D02*
X7302396Y-14845984D01*
X7302396Y-14845984D02*
X7330967Y-14855508D01*
X7330967Y-14855508D02*
X7350015Y-14874555D01*
X7350015Y-14874555D02*
X7359539Y-14893603D01*
X7359539Y-14893603D02*
X7369062Y-14931698D01*
X7369062Y-14931698D02*
X7369062Y-14960269D01*
X7369062Y-14960269D02*
X7359539Y-14998365D01*
X7359539Y-14998365D02*
X7350015Y-15017412D01*
X7350015Y-15017412D02*
X7330967Y-15036460D01*
X7330967Y-15036460D02*
X7302396Y-15045984D01*
X7302396Y-15045984D02*
X7254777Y-15045984D01*
X7454777Y-15045984D02*
X7454777Y-14912650D01*
X7454777Y-14950746D02*
X7464301Y-14931698D01*
X7464301Y-14931698D02*
X7473824Y-14922174D01*
X7473824Y-14922174D02*
X7492872Y-14912650D01*
X7492872Y-14912650D02*
X7511920Y-14912650D01*
X7578586Y-15045984D02*
X7578586Y-14912650D01*
X7578586Y-14845984D02*
X7569062Y-14855508D01*
X7569062Y-14855508D02*
X7578586Y-14865031D01*
X7578586Y-14865031D02*
X7588110Y-14855508D01*
X7588110Y-14855508D02*
X7578586Y-14845984D01*
X7578586Y-14845984D02*
X7578586Y-14865031D01*
X7702396Y-15045984D02*
X7683348Y-15036460D01*
X7683348Y-15036460D02*
X7673824Y-15017412D01*
X7673824Y-15017412D02*
X7673824Y-14845984D01*
X7807158Y-15045984D02*
X7788110Y-15036460D01*
X7788110Y-15036460D02*
X7778586Y-15017412D01*
X7778586Y-15017412D02*
X7778586Y-14845984D01*
X8035729Y-15045984D02*
X8035729Y-14845984D01*
X8035729Y-14845984D02*
X8102396Y-14988841D01*
X8102396Y-14988841D02*
X8169062Y-14845984D01*
X8169062Y-14845984D02*
X8169062Y-15045984D01*
X8350015Y-15045984D02*
X8350015Y-14941222D01*
X8350015Y-14941222D02*
X8340491Y-14922174D01*
X8340491Y-14922174D02*
X8321443Y-14912650D01*
X8321443Y-14912650D02*
X8283348Y-14912650D01*
X8283348Y-14912650D02*
X8264301Y-14922174D01*
X8350015Y-15036460D02*
X8330967Y-15045984D01*
X8330967Y-15045984D02*
X8283348Y-15045984D01*
X8283348Y-15045984D02*
X8264301Y-15036460D01*
X8264301Y-15036460D02*
X8254777Y-15017412D01*
X8254777Y-15017412D02*
X8254777Y-14998365D01*
X8254777Y-14998365D02*
X8264301Y-14979317D01*
X8264301Y-14979317D02*
X8283348Y-14969793D01*
X8283348Y-14969793D02*
X8330967Y-14969793D01*
X8330967Y-14969793D02*
X8350015Y-14960269D01*
X8445253Y-14912650D02*
X8445253Y-15112650D01*
X8445253Y-14922174D02*
X8464301Y-14912650D01*
X8464301Y-14912650D02*
X8502396Y-14912650D01*
X8502396Y-14912650D02*
X8521444Y-14922174D01*
X8521444Y-14922174D02*
X8530967Y-14931698D01*
X8530967Y-14931698D02*
X8540491Y-14950746D01*
X8540491Y-14950746D02*
X8540491Y-15007888D01*
X8540491Y-15007888D02*
X8530967Y-15026936D01*
X8530967Y-15026936D02*
X8521444Y-15036460D01*
X8521444Y-15036460D02*
X8502396Y-15045984D01*
X8502396Y-15045984D02*
X8464301Y-15045984D01*
X8464301Y-15045984D02*
X8445253Y-15036460D01*
X8626205Y-15026936D02*
X8635729Y-15036460D01*
X8635729Y-15036460D02*
X8626205Y-15045984D01*
X8626205Y-15045984D02*
X8616682Y-15036460D01*
X8616682Y-15036460D02*
X8626205Y-15026936D01*
X8626205Y-15026936D02*
X8626205Y-15045984D01*
X8626205Y-14922174D02*
X8635729Y-14931698D01*
X8635729Y-14931698D02*
X8626205Y-14941222D01*
X8626205Y-14941222D02*
X8616682Y-14931698D01*
X8616682Y-14931698D02*
X8626205Y-14922174D01*
X8626205Y-14922174D02*
X8626205Y-14941222D01*
D12*
X6964000Y-15359500D02*
X6994000Y-15389500D01*
X6994000Y-15359500D02*
X6964000Y-15389500D01*
D11*
X7292872Y-15265984D02*
X7311920Y-15265984D01*
X7311920Y-15265984D02*
X7330967Y-15275508D01*
X7330967Y-15275508D02*
X7340491Y-15285031D01*
X7340491Y-15285031D02*
X7350015Y-15304079D01*
X7350015Y-15304079D02*
X7359539Y-15342174D01*
X7359539Y-15342174D02*
X7359539Y-15389793D01*
X7359539Y-15389793D02*
X7350015Y-15427888D01*
X7350015Y-15427888D02*
X7340491Y-15446936D01*
X7340491Y-15446936D02*
X7330967Y-15456460D01*
X7330967Y-15456460D02*
X7311920Y-15465984D01*
X7311920Y-15465984D02*
X7292872Y-15465984D01*
X7292872Y-15465984D02*
X7273824Y-15456460D01*
X7273824Y-15456460D02*
X7264301Y-15446936D01*
X7264301Y-15446936D02*
X7254777Y-15427888D01*
X7254777Y-15427888D02*
X7245253Y-15389793D01*
X7245253Y-15389793D02*
X7245253Y-15342174D01*
X7245253Y-15342174D02*
X7254777Y-15304079D01*
X7254777Y-15304079D02*
X7264301Y-15285031D01*
X7264301Y-15285031D02*
X7273824Y-15275508D01*
X7273824Y-15275508D02*
X7292872Y-15265984D01*
X7445253Y-15446936D02*
X7454777Y-15456460D01*
X7454777Y-15456460D02*
X7445253Y-15465984D01*
X7445253Y-15465984D02*
X7435729Y-15456460D01*
X7435729Y-15456460D02*
X7445253Y-15446936D01*
X7445253Y-15446936D02*
X7445253Y-15465984D01*
X7521443Y-15265984D02*
X7645253Y-15265984D01*
X7645253Y-15265984D02*
X7578586Y-15342174D01*
X7578586Y-15342174D02*
X7607158Y-15342174D01*
X7607158Y-15342174D02*
X7626205Y-15351698D01*
X7626205Y-15351698D02*
X7635729Y-15361222D01*
X7635729Y-15361222D02*
X7645253Y-15380269D01*
X7645253Y-15380269D02*
X7645253Y-15427888D01*
X7645253Y-15427888D02*
X7635729Y-15446936D01*
X7635729Y-15446936D02*
X7626205Y-15456460D01*
X7626205Y-15456460D02*
X7607158Y-15465984D01*
X7607158Y-15465984D02*
X7550015Y-15465984D01*
X7550015Y-15465984D02*
X7530967Y-15456460D01*
X7530967Y-15456460D02*
X7521443Y-15446936D01*
X7769062Y-15265984D02*
X7788110Y-15265984D01*
X7788110Y-15265984D02*
X7807158Y-15275508D01*
X7807158Y-15275508D02*
X7816682Y-15285031D01*
X7816682Y-15285031D02*
X7826205Y-15304079D01*
X7826205Y-15304079D02*
X7835729Y-15342174D01*
X7835729Y-15342174D02*
X7835729Y-15389793D01*
X7835729Y-15389793D02*
X7826205Y-15427888D01*
X7826205Y-15427888D02*
X7816682Y-15446936D01*
X7816682Y-15446936D02*
X7807158Y-15456460D01*
X7807158Y-15456460D02*
X7788110Y-15465984D01*
X7788110Y-15465984D02*
X7769062Y-15465984D01*
X7769062Y-15465984D02*
X7750015Y-15456460D01*
X7750015Y-15456460D02*
X7740491Y-15446936D01*
X7740491Y-15446936D02*
X7730967Y-15427888D01*
X7730967Y-15427888D02*
X7721443Y-15389793D01*
X7721443Y-15389793D02*
X7721443Y-15342174D01*
X7721443Y-15342174D02*
X7730967Y-15304079D01*
X7730967Y-15304079D02*
X7740491Y-15285031D01*
X7740491Y-15285031D02*
X7750015Y-15275508D01*
X7750015Y-15275508D02*
X7769062Y-15265984D01*
X7959539Y-15265984D02*
X7978586Y-15265984D01*
X7978586Y-15265984D02*
X7997634Y-15275508D01*
X7997634Y-15275508D02*
X8007158Y-15285031D01*
X8007158Y-15285031D02*
X8016682Y-15304079D01*
X8016682Y-15304079D02*
X8026205Y-15342174D01*
X8026205Y-15342174D02*
X8026205Y-15389793D01*
X8026205Y-15389793D02*
X8016682Y-15427888D01*
X8016682Y-15427888D02*
X8007158Y-15446936D01*
X8007158Y-15446936D02*
X7997634Y-15456460D01*
X7997634Y-15456460D02*
X7978586Y-15465984D01*
X7978586Y-15465984D02*
X7959539Y-15465984D01*
X7959539Y-15465984D02*
X7940491Y-15456460D01*
X7940491Y-15456460D02*
X7930967Y-15446936D01*
X7930967Y-15446936D02*
X7921443Y-15427888D01*
X7921443Y-15427888D02*
X7911920Y-15389793D01*
X7911920Y-15389793D02*
X7911920Y-15342174D01*
X7911920Y-15342174D02*
X7921443Y-15304079D01*
X7921443Y-15304079D02*
X7930967Y-15285031D01*
X7930967Y-15285031D02*
X7940491Y-15275508D01*
X7940491Y-15275508D02*
X7959539Y-15265984D01*
X8111920Y-15465984D02*
X8111920Y-15332650D01*
X8111920Y-15351698D02*
X8121443Y-15342174D01*
X8121443Y-15342174D02*
X8140491Y-15332650D01*
X8140491Y-15332650D02*
X8169063Y-15332650D01*
X8169063Y-15332650D02*
X8188110Y-15342174D01*
X8188110Y-15342174D02*
X8197634Y-15361222D01*
X8197634Y-15361222D02*
X8197634Y-15465984D01*
X8197634Y-15361222D02*
X8207158Y-15342174D01*
X8207158Y-15342174D02*
X8226205Y-15332650D01*
X8226205Y-15332650D02*
X8254777Y-15332650D01*
X8254777Y-15332650D02*
X8273824Y-15342174D01*
X8273824Y-15342174D02*
X8283348Y-15361222D01*
X8283348Y-15361222D02*
X8283348Y-15465984D01*
X8378586Y-15465984D02*
X8378586Y-15332650D01*
X8378586Y-15351698D02*
X8388110Y-15342174D01*
X8388110Y-15342174D02*
X8407158Y-15332650D01*
X8407158Y-15332650D02*
X8435729Y-15332650D01*
X8435729Y-15332650D02*
X8454777Y-15342174D01*
X8454777Y-15342174D02*
X8464301Y-15361222D01*
X8464301Y-15361222D02*
X8464301Y-15465984D01*
X8464301Y-15361222D02*
X8473825Y-15342174D01*
X8473825Y-15342174D02*
X8492872Y-15332650D01*
X8492872Y-15332650D02*
X8521444Y-15332650D01*
X8521444Y-15332650D02*
X8540491Y-15342174D01*
X8540491Y-15342174D02*
X8550015Y-15361222D01*
X8550015Y-15361222D02*
X8550015Y-15465984D01*
X8940491Y-15256460D02*
X8769063Y-15513603D01*
X9197634Y-15265984D02*
X9216682Y-15265984D01*
X9216682Y-15265984D02*
X9235729Y-15275508D01*
X9235729Y-15275508D02*
X9245253Y-15285031D01*
X9245253Y-15285031D02*
X9254777Y-15304079D01*
X9254777Y-15304079D02*
X9264301Y-15342174D01*
X9264301Y-15342174D02*
X9264301Y-15389793D01*
X9264301Y-15389793D02*
X9254777Y-15427888D01*
X9254777Y-15427888D02*
X9245253Y-15446936D01*
X9245253Y-15446936D02*
X9235729Y-15456460D01*
X9235729Y-15456460D02*
X9216682Y-15465984D01*
X9216682Y-15465984D02*
X9197634Y-15465984D01*
X9197634Y-15465984D02*
X9178587Y-15456460D01*
X9178587Y-15456460D02*
X9169063Y-15446936D01*
X9169063Y-15446936D02*
X9159539Y-15427888D01*
X9159539Y-15427888D02*
X9150015Y-15389793D01*
X9150015Y-15389793D02*
X9150015Y-15342174D01*
X9150015Y-15342174D02*
X9159539Y-15304079D01*
X9159539Y-15304079D02*
X9169063Y-15285031D01*
X9169063Y-15285031D02*
X9178587Y-15275508D01*
X9178587Y-15275508D02*
X9197634Y-15265984D01*
X9350015Y-15446936D02*
X9359539Y-15456460D01*
X9359539Y-15456460D02*
X9350015Y-15465984D01*
X9350015Y-15465984D02*
X9340491Y-15456460D01*
X9340491Y-15456460D02*
X9350015Y-15446936D01*
X9350015Y-15446936D02*
X9350015Y-15465984D01*
X9483348Y-15265984D02*
X9502396Y-15265984D01*
X9502396Y-15265984D02*
X9521444Y-15275508D01*
X9521444Y-15275508D02*
X9530968Y-15285031D01*
X9530968Y-15285031D02*
X9540491Y-15304079D01*
X9540491Y-15304079D02*
X9550015Y-15342174D01*
X9550015Y-15342174D02*
X9550015Y-15389793D01*
X9550015Y-15389793D02*
X9540491Y-15427888D01*
X9540491Y-15427888D02*
X9530968Y-15446936D01*
X9530968Y-15446936D02*
X9521444Y-15456460D01*
X9521444Y-15456460D02*
X9502396Y-15465984D01*
X9502396Y-15465984D02*
X9483348Y-15465984D01*
X9483348Y-15465984D02*
X9464301Y-15456460D01*
X9464301Y-15456460D02*
X9454777Y-15446936D01*
X9454777Y-15446936D02*
X9445253Y-15427888D01*
X9445253Y-15427888D02*
X9435729Y-15389793D01*
X9435729Y-15389793D02*
X9435729Y-15342174D01*
X9435729Y-15342174D02*
X9445253Y-15304079D01*
X9445253Y-15304079D02*
X9454777Y-15285031D01*
X9454777Y-15285031D02*
X9464301Y-15275508D01*
X9464301Y-15275508D02*
X9483348Y-15265984D01*
X9740491Y-15465984D02*
X9626206Y-15465984D01*
X9683348Y-15465984D02*
X9683348Y-15265984D01*
X9683348Y-15265984D02*
X9664301Y-15294555D01*
X9664301Y-15294555D02*
X9645253Y-15313603D01*
X9645253Y-15313603D02*
X9626206Y-15323127D01*
X9930968Y-15465984D02*
X9816682Y-15465984D01*
X9873825Y-15465984D02*
X9873825Y-15265984D01*
X9873825Y-15265984D02*
X9854777Y-15294555D01*
X9854777Y-15294555D02*
X9835729Y-15313603D01*
X9835729Y-15313603D02*
X9816682Y-15323127D01*
X10045253Y-15351698D02*
X10026206Y-15342174D01*
X10026206Y-15342174D02*
X10016682Y-15332650D01*
X10016682Y-15332650D02*
X10007158Y-15313603D01*
X10007158Y-15313603D02*
X10007158Y-15304079D01*
X10007158Y-15304079D02*
X10016682Y-15285031D01*
X10016682Y-15285031D02*
X10026206Y-15275508D01*
X10026206Y-15275508D02*
X10045253Y-15265984D01*
X10045253Y-15265984D02*
X10083349Y-15265984D01*
X10083349Y-15265984D02*
X10102396Y-15275508D01*
X10102396Y-15275508D02*
X10111920Y-15285031D01*
X10111920Y-15285031D02*
X10121444Y-15304079D01*
X10121444Y-15304079D02*
X10121444Y-15313603D01*
X10121444Y-15313603D02*
X10111920Y-15332650D01*
X10111920Y-15332650D02*
X10102396Y-15342174D01*
X10102396Y-15342174D02*
X10083349Y-15351698D01*
X10083349Y-15351698D02*
X10045253Y-15351698D01*
X10045253Y-15351698D02*
X10026206Y-15361222D01*
X10026206Y-15361222D02*
X10016682Y-15370746D01*
X10016682Y-15370746D02*
X10007158Y-15389793D01*
X10007158Y-15389793D02*
X10007158Y-15427888D01*
X10007158Y-15427888D02*
X10016682Y-15446936D01*
X10016682Y-15446936D02*
X10026206Y-15456460D01*
X10026206Y-15456460D02*
X10045253Y-15465984D01*
X10045253Y-15465984D02*
X10083349Y-15465984D01*
X10083349Y-15465984D02*
X10102396Y-15456460D01*
X10102396Y-15456460D02*
X10111920Y-15446936D01*
X10111920Y-15446936D02*
X10121444Y-15427888D01*
X10121444Y-15427888D02*
X10121444Y-15389793D01*
X10121444Y-15389793D02*
X10111920Y-15370746D01*
X10111920Y-15370746D02*
X10102396Y-15361222D01*
X10102396Y-15361222D02*
X10083349Y-15351698D01*
X10197634Y-15265984D02*
X10197634Y-15304079D01*
X10273825Y-15265984D02*
X10273825Y-15304079D01*
X10569063Y-15542174D02*
X10559539Y-15532650D01*
X10559539Y-15532650D02*
X10540491Y-15504079D01*
X10540491Y-15504079D02*
X10530968Y-15485031D01*
X10530968Y-15485031D02*
X10521444Y-15456460D01*
X10521444Y-15456460D02*
X10511920Y-15408841D01*
X10511920Y-15408841D02*
X10511920Y-15370746D01*
X10511920Y-15370746D02*
X10521444Y-15323127D01*
X10521444Y-15323127D02*
X10530968Y-15294555D01*
X10530968Y-15294555D02*
X10540491Y-15275508D01*
X10540491Y-15275508D02*
X10559539Y-15246936D01*
X10559539Y-15246936D02*
X10569063Y-15237412D01*
X10750015Y-15465984D02*
X10635730Y-15465984D01*
X10692872Y-15465984D02*
X10692872Y-15265984D01*
X10692872Y-15265984D02*
X10673825Y-15294555D01*
X10673825Y-15294555D02*
X10654777Y-15313603D01*
X10654777Y-15313603D02*
X10635730Y-15323127D01*
X10873825Y-15265984D02*
X10892872Y-15265984D01*
X10892872Y-15265984D02*
X10911920Y-15275508D01*
X10911920Y-15275508D02*
X10921444Y-15285031D01*
X10921444Y-15285031D02*
X10930968Y-15304079D01*
X10930968Y-15304079D02*
X10940491Y-15342174D01*
X10940491Y-15342174D02*
X10940491Y-15389793D01*
X10940491Y-15389793D02*
X10930968Y-15427888D01*
X10930968Y-15427888D02*
X10921444Y-15446936D01*
X10921444Y-15446936D02*
X10911920Y-15456460D01*
X10911920Y-15456460D02*
X10892872Y-15465984D01*
X10892872Y-15465984D02*
X10873825Y-15465984D01*
X10873825Y-15465984D02*
X10854777Y-15456460D01*
X10854777Y-15456460D02*
X10845253Y-15446936D01*
X10845253Y-15446936D02*
X10835730Y-15427888D01*
X10835730Y-15427888D02*
X10826206Y-15389793D01*
X10826206Y-15389793D02*
X10826206Y-15342174D01*
X10826206Y-15342174D02*
X10835730Y-15304079D01*
X10835730Y-15304079D02*
X10845253Y-15285031D01*
X10845253Y-15285031D02*
X10854777Y-15275508D01*
X10854777Y-15275508D02*
X10873825Y-15265984D01*
X11121444Y-15265984D02*
X11026206Y-15265984D01*
X11026206Y-15265984D02*
X11016682Y-15361222D01*
X11016682Y-15361222D02*
X11026206Y-15351698D01*
X11026206Y-15351698D02*
X11045253Y-15342174D01*
X11045253Y-15342174D02*
X11092872Y-15342174D01*
X11092872Y-15342174D02*
X11111920Y-15351698D01*
X11111920Y-15351698D02*
X11121444Y-15361222D01*
X11121444Y-15361222D02*
X11130968Y-15380269D01*
X11130968Y-15380269D02*
X11130968Y-15427888D01*
X11130968Y-15427888D02*
X11121444Y-15446936D01*
X11121444Y-15446936D02*
X11111920Y-15456460D01*
X11111920Y-15456460D02*
X11092872Y-15465984D01*
X11092872Y-15465984D02*
X11045253Y-15465984D01*
X11045253Y-15465984D02*
X11026206Y-15456460D01*
X11026206Y-15456460D02*
X11016682Y-15446936D01*
X11369063Y-15465984D02*
X11369063Y-15265984D01*
X11454777Y-15465984D02*
X11454777Y-15361222D01*
X11454777Y-15361222D02*
X11445253Y-15342174D01*
X11445253Y-15342174D02*
X11426206Y-15332650D01*
X11426206Y-15332650D02*
X11397634Y-15332650D01*
X11397634Y-15332650D02*
X11378587Y-15342174D01*
X11378587Y-15342174D02*
X11369063Y-15351698D01*
X11578587Y-15465984D02*
X11559539Y-15456460D01*
X11559539Y-15456460D02*
X11550015Y-15446936D01*
X11550015Y-15446936D02*
X11540491Y-15427888D01*
X11540491Y-15427888D02*
X11540491Y-15370746D01*
X11540491Y-15370746D02*
X11550015Y-15351698D01*
X11550015Y-15351698D02*
X11559539Y-15342174D01*
X11559539Y-15342174D02*
X11578587Y-15332650D01*
X11578587Y-15332650D02*
X11607158Y-15332650D01*
X11607158Y-15332650D02*
X11626206Y-15342174D01*
X11626206Y-15342174D02*
X11635730Y-15351698D01*
X11635730Y-15351698D02*
X11645253Y-15370746D01*
X11645253Y-15370746D02*
X11645253Y-15427888D01*
X11645253Y-15427888D02*
X11635730Y-15446936D01*
X11635730Y-15446936D02*
X11626206Y-15456460D01*
X11626206Y-15456460D02*
X11607158Y-15465984D01*
X11607158Y-15465984D02*
X11578587Y-15465984D01*
X11759539Y-15465984D02*
X11740491Y-15456460D01*
X11740491Y-15456460D02*
X11730968Y-15437412D01*
X11730968Y-15437412D02*
X11730968Y-15265984D01*
X11911920Y-15456460D02*
X11892872Y-15465984D01*
X11892872Y-15465984D02*
X11854777Y-15465984D01*
X11854777Y-15465984D02*
X11835730Y-15456460D01*
X11835730Y-15456460D02*
X11826206Y-15437412D01*
X11826206Y-15437412D02*
X11826206Y-15361222D01*
X11826206Y-15361222D02*
X11835730Y-15342174D01*
X11835730Y-15342174D02*
X11854777Y-15332650D01*
X11854777Y-15332650D02*
X11892872Y-15332650D01*
X11892872Y-15332650D02*
X11911920Y-15342174D01*
X11911920Y-15342174D02*
X11921444Y-15361222D01*
X11921444Y-15361222D02*
X11921444Y-15380269D01*
X11921444Y-15380269D02*
X11826206Y-15399317D01*
X11997634Y-15456460D02*
X12016682Y-15465984D01*
X12016682Y-15465984D02*
X12054777Y-15465984D01*
X12054777Y-15465984D02*
X12073825Y-15456460D01*
X12073825Y-15456460D02*
X12083349Y-15437412D01*
X12083349Y-15437412D02*
X12083349Y-15427888D01*
X12083349Y-15427888D02*
X12073825Y-15408841D01*
X12073825Y-15408841D02*
X12054777Y-15399317D01*
X12054777Y-15399317D02*
X12026206Y-15399317D01*
X12026206Y-15399317D02*
X12007158Y-15389793D01*
X12007158Y-15389793D02*
X11997634Y-15370746D01*
X11997634Y-15370746D02*
X11997634Y-15361222D01*
X11997634Y-15361222D02*
X12007158Y-15342174D01*
X12007158Y-15342174D02*
X12026206Y-15332650D01*
X12026206Y-15332650D02*
X12054777Y-15332650D01*
X12054777Y-15332650D02*
X12073825Y-15342174D01*
X12150015Y-15542174D02*
X12159539Y-15532650D01*
X12159539Y-15532650D02*
X12178587Y-15504079D01*
X12178587Y-15504079D02*
X12188111Y-15485031D01*
X12188111Y-15485031D02*
X12197634Y-15456460D01*
X12197634Y-15456460D02*
X12207158Y-15408841D01*
X12207158Y-15408841D02*
X12207158Y-15370746D01*
X12207158Y-15370746D02*
X12197634Y-15323127D01*
X12197634Y-15323127D02*
X12188111Y-15294555D01*
X12188111Y-15294555D02*
X12178587Y-15275508D01*
X12178587Y-15275508D02*
X12159539Y-15246936D01*
X12159539Y-15246936D02*
X12150015Y-15237412D01*
D12*
X6994000Y-15638500D02*
G75*
G02*
X6914000Y-15638500I-40000J0D01*
G01*
X6914000Y-15638500D02*
G75*
G02*
X6994000Y-15638500I40000J0D01*
G01*
D11*
X7292872Y-15529984D02*
X7311920Y-15529984D01*
X7311920Y-15529984D02*
X7330967Y-15539508D01*
X7330967Y-15539508D02*
X7340491Y-15549031D01*
X7340491Y-15549031D02*
X7350015Y-15568079D01*
X7350015Y-15568079D02*
X7359539Y-15606174D01*
X7359539Y-15606174D02*
X7359539Y-15653793D01*
X7359539Y-15653793D02*
X7350015Y-15691888D01*
X7350015Y-15691888D02*
X7340491Y-15710936D01*
X7340491Y-15710936D02*
X7330967Y-15720460D01*
X7330967Y-15720460D02*
X7311920Y-15729984D01*
X7311920Y-15729984D02*
X7292872Y-15729984D01*
X7292872Y-15729984D02*
X7273824Y-15720460D01*
X7273824Y-15720460D02*
X7264301Y-15710936D01*
X7264301Y-15710936D02*
X7254777Y-15691888D01*
X7254777Y-15691888D02*
X7245253Y-15653793D01*
X7245253Y-15653793D02*
X7245253Y-15606174D01*
X7245253Y-15606174D02*
X7254777Y-15568079D01*
X7254777Y-15568079D02*
X7264301Y-15549031D01*
X7264301Y-15549031D02*
X7273824Y-15539508D01*
X7273824Y-15539508D02*
X7292872Y-15529984D01*
X7445253Y-15710936D02*
X7454777Y-15720460D01*
X7454777Y-15720460D02*
X7445253Y-15729984D01*
X7445253Y-15729984D02*
X7435729Y-15720460D01*
X7435729Y-15720460D02*
X7445253Y-15710936D01*
X7445253Y-15710936D02*
X7445253Y-15729984D01*
X7569062Y-15615698D02*
X7550015Y-15606174D01*
X7550015Y-15606174D02*
X7540491Y-15596650D01*
X7540491Y-15596650D02*
X7530967Y-15577603D01*
X7530967Y-15577603D02*
X7530967Y-15568079D01*
X7530967Y-15568079D02*
X7540491Y-15549031D01*
X7540491Y-15549031D02*
X7550015Y-15539508D01*
X7550015Y-15539508D02*
X7569062Y-15529984D01*
X7569062Y-15529984D02*
X7607158Y-15529984D01*
X7607158Y-15529984D02*
X7626205Y-15539508D01*
X7626205Y-15539508D02*
X7635729Y-15549031D01*
X7635729Y-15549031D02*
X7645253Y-15568079D01*
X7645253Y-15568079D02*
X7645253Y-15577603D01*
X7645253Y-15577603D02*
X7635729Y-15596650D01*
X7635729Y-15596650D02*
X7626205Y-15606174D01*
X7626205Y-15606174D02*
X7607158Y-15615698D01*
X7607158Y-15615698D02*
X7569062Y-15615698D01*
X7569062Y-15615698D02*
X7550015Y-15625222D01*
X7550015Y-15625222D02*
X7540491Y-15634746D01*
X7540491Y-15634746D02*
X7530967Y-15653793D01*
X7530967Y-15653793D02*
X7530967Y-15691888D01*
X7530967Y-15691888D02*
X7540491Y-15710936D01*
X7540491Y-15710936D02*
X7550015Y-15720460D01*
X7550015Y-15720460D02*
X7569062Y-15729984D01*
X7569062Y-15729984D02*
X7607158Y-15729984D01*
X7607158Y-15729984D02*
X7626205Y-15720460D01*
X7626205Y-15720460D02*
X7635729Y-15710936D01*
X7635729Y-15710936D02*
X7645253Y-15691888D01*
X7645253Y-15691888D02*
X7645253Y-15653793D01*
X7645253Y-15653793D02*
X7635729Y-15634746D01*
X7635729Y-15634746D02*
X7626205Y-15625222D01*
X7626205Y-15625222D02*
X7607158Y-15615698D01*
X7769062Y-15529984D02*
X7788110Y-15529984D01*
X7788110Y-15529984D02*
X7807158Y-15539508D01*
X7807158Y-15539508D02*
X7816682Y-15549031D01*
X7816682Y-15549031D02*
X7826205Y-15568079D01*
X7826205Y-15568079D02*
X7835729Y-15606174D01*
X7835729Y-15606174D02*
X7835729Y-15653793D01*
X7835729Y-15653793D02*
X7826205Y-15691888D01*
X7826205Y-15691888D02*
X7816682Y-15710936D01*
X7816682Y-15710936D02*
X7807158Y-15720460D01*
X7807158Y-15720460D02*
X7788110Y-15729984D01*
X7788110Y-15729984D02*
X7769062Y-15729984D01*
X7769062Y-15729984D02*
X7750015Y-15720460D01*
X7750015Y-15720460D02*
X7740491Y-15710936D01*
X7740491Y-15710936D02*
X7730967Y-15691888D01*
X7730967Y-15691888D02*
X7721443Y-15653793D01*
X7721443Y-15653793D02*
X7721443Y-15606174D01*
X7721443Y-15606174D02*
X7730967Y-15568079D01*
X7730967Y-15568079D02*
X7740491Y-15549031D01*
X7740491Y-15549031D02*
X7750015Y-15539508D01*
X7750015Y-15539508D02*
X7769062Y-15529984D01*
X7959539Y-15529984D02*
X7978586Y-15529984D01*
X7978586Y-15529984D02*
X7997634Y-15539508D01*
X7997634Y-15539508D02*
X8007158Y-15549031D01*
X8007158Y-15549031D02*
X8016682Y-15568079D01*
X8016682Y-15568079D02*
X8026205Y-15606174D01*
X8026205Y-15606174D02*
X8026205Y-15653793D01*
X8026205Y-15653793D02*
X8016682Y-15691888D01*
X8016682Y-15691888D02*
X8007158Y-15710936D01*
X8007158Y-15710936D02*
X7997634Y-15720460D01*
X7997634Y-15720460D02*
X7978586Y-15729984D01*
X7978586Y-15729984D02*
X7959539Y-15729984D01*
X7959539Y-15729984D02*
X7940491Y-15720460D01*
X7940491Y-15720460D02*
X7930967Y-15710936D01*
X7930967Y-15710936D02*
X7921443Y-15691888D01*
X7921443Y-15691888D02*
X7911920Y-15653793D01*
X7911920Y-15653793D02*
X7911920Y-15606174D01*
X7911920Y-15606174D02*
X7921443Y-15568079D01*
X7921443Y-15568079D02*
X7930967Y-15549031D01*
X7930967Y-15549031D02*
X7940491Y-15539508D01*
X7940491Y-15539508D02*
X7959539Y-15529984D01*
X8111920Y-15729984D02*
X8111920Y-15596650D01*
X8111920Y-15615698D02*
X8121443Y-15606174D01*
X8121443Y-15606174D02*
X8140491Y-15596650D01*
X8140491Y-15596650D02*
X8169063Y-15596650D01*
X8169063Y-15596650D02*
X8188110Y-15606174D01*
X8188110Y-15606174D02*
X8197634Y-15625222D01*
X8197634Y-15625222D02*
X8197634Y-15729984D01*
X8197634Y-15625222D02*
X8207158Y-15606174D01*
X8207158Y-15606174D02*
X8226205Y-15596650D01*
X8226205Y-15596650D02*
X8254777Y-15596650D01*
X8254777Y-15596650D02*
X8273824Y-15606174D01*
X8273824Y-15606174D02*
X8283348Y-15625222D01*
X8283348Y-15625222D02*
X8283348Y-15729984D01*
X8378586Y-15729984D02*
X8378586Y-15596650D01*
X8378586Y-15615698D02*
X8388110Y-15606174D01*
X8388110Y-15606174D02*
X8407158Y-15596650D01*
X8407158Y-15596650D02*
X8435729Y-15596650D01*
X8435729Y-15596650D02*
X8454777Y-15606174D01*
X8454777Y-15606174D02*
X8464301Y-15625222D01*
X8464301Y-15625222D02*
X8464301Y-15729984D01*
X8464301Y-15625222D02*
X8473825Y-15606174D01*
X8473825Y-15606174D02*
X8492872Y-15596650D01*
X8492872Y-15596650D02*
X8521444Y-15596650D01*
X8521444Y-15596650D02*
X8540491Y-15606174D01*
X8540491Y-15606174D02*
X8550015Y-15625222D01*
X8550015Y-15625222D02*
X8550015Y-15729984D01*
X8940491Y-15520460D02*
X8769063Y-15777603D01*
X9197634Y-15529984D02*
X9216682Y-15529984D01*
X9216682Y-15529984D02*
X9235729Y-15539508D01*
X9235729Y-15539508D02*
X9245253Y-15549031D01*
X9245253Y-15549031D02*
X9254777Y-15568079D01*
X9254777Y-15568079D02*
X9264301Y-15606174D01*
X9264301Y-15606174D02*
X9264301Y-15653793D01*
X9264301Y-15653793D02*
X9254777Y-15691888D01*
X9254777Y-15691888D02*
X9245253Y-15710936D01*
X9245253Y-15710936D02*
X9235729Y-15720460D01*
X9235729Y-15720460D02*
X9216682Y-15729984D01*
X9216682Y-15729984D02*
X9197634Y-15729984D01*
X9197634Y-15729984D02*
X9178587Y-15720460D01*
X9178587Y-15720460D02*
X9169063Y-15710936D01*
X9169063Y-15710936D02*
X9159539Y-15691888D01*
X9159539Y-15691888D02*
X9150015Y-15653793D01*
X9150015Y-15653793D02*
X9150015Y-15606174D01*
X9150015Y-15606174D02*
X9159539Y-15568079D01*
X9159539Y-15568079D02*
X9169063Y-15549031D01*
X9169063Y-15549031D02*
X9178587Y-15539508D01*
X9178587Y-15539508D02*
X9197634Y-15529984D01*
X9350015Y-15710936D02*
X9359539Y-15720460D01*
X9359539Y-15720460D02*
X9350015Y-15729984D01*
X9350015Y-15729984D02*
X9340491Y-15720460D01*
X9340491Y-15720460D02*
X9350015Y-15710936D01*
X9350015Y-15710936D02*
X9350015Y-15729984D01*
X9483348Y-15529984D02*
X9502396Y-15529984D01*
X9502396Y-15529984D02*
X9521444Y-15539508D01*
X9521444Y-15539508D02*
X9530968Y-15549031D01*
X9530968Y-15549031D02*
X9540491Y-15568079D01*
X9540491Y-15568079D02*
X9550015Y-15606174D01*
X9550015Y-15606174D02*
X9550015Y-15653793D01*
X9550015Y-15653793D02*
X9540491Y-15691888D01*
X9540491Y-15691888D02*
X9530968Y-15710936D01*
X9530968Y-15710936D02*
X9521444Y-15720460D01*
X9521444Y-15720460D02*
X9502396Y-15729984D01*
X9502396Y-15729984D02*
X9483348Y-15729984D01*
X9483348Y-15729984D02*
X9464301Y-15720460D01*
X9464301Y-15720460D02*
X9454777Y-15710936D01*
X9454777Y-15710936D02*
X9445253Y-15691888D01*
X9445253Y-15691888D02*
X9435729Y-15653793D01*
X9435729Y-15653793D02*
X9435729Y-15606174D01*
X9435729Y-15606174D02*
X9445253Y-15568079D01*
X9445253Y-15568079D02*
X9454777Y-15549031D01*
X9454777Y-15549031D02*
X9464301Y-15539508D01*
X9464301Y-15539508D02*
X9483348Y-15529984D01*
X9616682Y-15529984D02*
X9740491Y-15529984D01*
X9740491Y-15529984D02*
X9673825Y-15606174D01*
X9673825Y-15606174D02*
X9702396Y-15606174D01*
X9702396Y-15606174D02*
X9721444Y-15615698D01*
X9721444Y-15615698D02*
X9730968Y-15625222D01*
X9730968Y-15625222D02*
X9740491Y-15644269D01*
X9740491Y-15644269D02*
X9740491Y-15691888D01*
X9740491Y-15691888D02*
X9730968Y-15710936D01*
X9730968Y-15710936D02*
X9721444Y-15720460D01*
X9721444Y-15720460D02*
X9702396Y-15729984D01*
X9702396Y-15729984D02*
X9645253Y-15729984D01*
X9645253Y-15729984D02*
X9626206Y-15720460D01*
X9626206Y-15720460D02*
X9616682Y-15710936D01*
X9930968Y-15729984D02*
X9816682Y-15729984D01*
X9873825Y-15729984D02*
X9873825Y-15529984D01*
X9873825Y-15529984D02*
X9854777Y-15558555D01*
X9854777Y-15558555D02*
X9835729Y-15577603D01*
X9835729Y-15577603D02*
X9816682Y-15587127D01*
X10111920Y-15529984D02*
X10016682Y-15529984D01*
X10016682Y-15529984D02*
X10007158Y-15625222D01*
X10007158Y-15625222D02*
X10016682Y-15615698D01*
X10016682Y-15615698D02*
X10035729Y-15606174D01*
X10035729Y-15606174D02*
X10083349Y-15606174D01*
X10083349Y-15606174D02*
X10102396Y-15615698D01*
X10102396Y-15615698D02*
X10111920Y-15625222D01*
X10111920Y-15625222D02*
X10121444Y-15644269D01*
X10121444Y-15644269D02*
X10121444Y-15691888D01*
X10121444Y-15691888D02*
X10111920Y-15710936D01*
X10111920Y-15710936D02*
X10102396Y-15720460D01*
X10102396Y-15720460D02*
X10083349Y-15729984D01*
X10083349Y-15729984D02*
X10035729Y-15729984D01*
X10035729Y-15729984D02*
X10016682Y-15720460D01*
X10016682Y-15720460D02*
X10007158Y-15710936D01*
X10197634Y-15529984D02*
X10197634Y-15568079D01*
X10273825Y-15529984D02*
X10273825Y-15568079D01*
X10569063Y-15806174D02*
X10559539Y-15796650D01*
X10559539Y-15796650D02*
X10540491Y-15768079D01*
X10540491Y-15768079D02*
X10530968Y-15749031D01*
X10530968Y-15749031D02*
X10521444Y-15720460D01*
X10521444Y-15720460D02*
X10511920Y-15672841D01*
X10511920Y-15672841D02*
X10511920Y-15634746D01*
X10511920Y-15634746D02*
X10521444Y-15587127D01*
X10521444Y-15587127D02*
X10530968Y-15558555D01*
X10530968Y-15558555D02*
X10540491Y-15539508D01*
X10540491Y-15539508D02*
X10559539Y-15510936D01*
X10559539Y-15510936D02*
X10569063Y-15501412D01*
X10673825Y-15615698D02*
X10654777Y-15606174D01*
X10654777Y-15606174D02*
X10645253Y-15596650D01*
X10645253Y-15596650D02*
X10635730Y-15577603D01*
X10635730Y-15577603D02*
X10635730Y-15568079D01*
X10635730Y-15568079D02*
X10645253Y-15549031D01*
X10645253Y-15549031D02*
X10654777Y-15539508D01*
X10654777Y-15539508D02*
X10673825Y-15529984D01*
X10673825Y-15529984D02*
X10711920Y-15529984D01*
X10711920Y-15529984D02*
X10730968Y-15539508D01*
X10730968Y-15539508D02*
X10740491Y-15549031D01*
X10740491Y-15549031D02*
X10750015Y-15568079D01*
X10750015Y-15568079D02*
X10750015Y-15577603D01*
X10750015Y-15577603D02*
X10740491Y-15596650D01*
X10740491Y-15596650D02*
X10730968Y-15606174D01*
X10730968Y-15606174D02*
X10711920Y-15615698D01*
X10711920Y-15615698D02*
X10673825Y-15615698D01*
X10673825Y-15615698D02*
X10654777Y-15625222D01*
X10654777Y-15625222D02*
X10645253Y-15634746D01*
X10645253Y-15634746D02*
X10635730Y-15653793D01*
X10635730Y-15653793D02*
X10635730Y-15691888D01*
X10635730Y-15691888D02*
X10645253Y-15710936D01*
X10645253Y-15710936D02*
X10654777Y-15720460D01*
X10654777Y-15720460D02*
X10673825Y-15729984D01*
X10673825Y-15729984D02*
X10711920Y-15729984D01*
X10711920Y-15729984D02*
X10730968Y-15720460D01*
X10730968Y-15720460D02*
X10740491Y-15710936D01*
X10740491Y-15710936D02*
X10750015Y-15691888D01*
X10750015Y-15691888D02*
X10750015Y-15653793D01*
X10750015Y-15653793D02*
X10740491Y-15634746D01*
X10740491Y-15634746D02*
X10730968Y-15625222D01*
X10730968Y-15625222D02*
X10711920Y-15615698D01*
X10988111Y-15729984D02*
X10988111Y-15529984D01*
X11073825Y-15729984D02*
X11073825Y-15625222D01*
X11073825Y-15625222D02*
X11064301Y-15606174D01*
X11064301Y-15606174D02*
X11045253Y-15596650D01*
X11045253Y-15596650D02*
X11016682Y-15596650D01*
X11016682Y-15596650D02*
X10997634Y-15606174D01*
X10997634Y-15606174D02*
X10988111Y-15615698D01*
X11197634Y-15729984D02*
X11178587Y-15720460D01*
X11178587Y-15720460D02*
X11169063Y-15710936D01*
X11169063Y-15710936D02*
X11159539Y-15691888D01*
X11159539Y-15691888D02*
X11159539Y-15634746D01*
X11159539Y-15634746D02*
X11169063Y-15615698D01*
X11169063Y-15615698D02*
X11178587Y-15606174D01*
X11178587Y-15606174D02*
X11197634Y-15596650D01*
X11197634Y-15596650D02*
X11226206Y-15596650D01*
X11226206Y-15596650D02*
X11245253Y-15606174D01*
X11245253Y-15606174D02*
X11254777Y-15615698D01*
X11254777Y-15615698D02*
X11264301Y-15634746D01*
X11264301Y-15634746D02*
X11264301Y-15691888D01*
X11264301Y-15691888D02*
X11254777Y-15710936D01*
X11254777Y-15710936D02*
X11245253Y-15720460D01*
X11245253Y-15720460D02*
X11226206Y-15729984D01*
X11226206Y-15729984D02*
X11197634Y-15729984D01*
X11378587Y-15729984D02*
X11359539Y-15720460D01*
X11359539Y-15720460D02*
X11350015Y-15701412D01*
X11350015Y-15701412D02*
X11350015Y-15529984D01*
X11530968Y-15720460D02*
X11511920Y-15729984D01*
X11511920Y-15729984D02*
X11473825Y-15729984D01*
X11473825Y-15729984D02*
X11454777Y-15720460D01*
X11454777Y-15720460D02*
X11445253Y-15701412D01*
X11445253Y-15701412D02*
X11445253Y-15625222D01*
X11445253Y-15625222D02*
X11454777Y-15606174D01*
X11454777Y-15606174D02*
X11473825Y-15596650D01*
X11473825Y-15596650D02*
X11511920Y-15596650D01*
X11511920Y-15596650D02*
X11530968Y-15606174D01*
X11530968Y-15606174D02*
X11540491Y-15625222D01*
X11540491Y-15625222D02*
X11540491Y-15644269D01*
X11540491Y-15644269D02*
X11445253Y-15663317D01*
X11616682Y-15720460D02*
X11635730Y-15729984D01*
X11635730Y-15729984D02*
X11673825Y-15729984D01*
X11673825Y-15729984D02*
X11692872Y-15720460D01*
X11692872Y-15720460D02*
X11702396Y-15701412D01*
X11702396Y-15701412D02*
X11702396Y-15691888D01*
X11702396Y-15691888D02*
X11692872Y-15672841D01*
X11692872Y-15672841D02*
X11673825Y-15663317D01*
X11673825Y-15663317D02*
X11645253Y-15663317D01*
X11645253Y-15663317D02*
X11626206Y-15653793D01*
X11626206Y-15653793D02*
X11616682Y-15634746D01*
X11616682Y-15634746D02*
X11616682Y-15625222D01*
X11616682Y-15625222D02*
X11626206Y-15606174D01*
X11626206Y-15606174D02*
X11645253Y-15596650D01*
X11645253Y-15596650D02*
X11673825Y-15596650D01*
X11673825Y-15596650D02*
X11692872Y-15606174D01*
X11769063Y-15806174D02*
X11778587Y-15796650D01*
X11778587Y-15796650D02*
X11797634Y-15768079D01*
X11797634Y-15768079D02*
X11807158Y-15749031D01*
X11807158Y-15749031D02*
X11816682Y-15720460D01*
X11816682Y-15720460D02*
X11826206Y-15672841D01*
X11826206Y-15672841D02*
X11826206Y-15634746D01*
X11826206Y-15634746D02*
X11816682Y-15587127D01*
X11816682Y-15587127D02*
X11807158Y-15558555D01*
X11807158Y-15558555D02*
X11797634Y-15539508D01*
X11797634Y-15539508D02*
X11778587Y-15510936D01*
X11778587Y-15510936D02*
X11769063Y-15501412D01*
D12*
X6946500Y-15855000D02*
X6946500Y-15950000D01*
X6899000Y-15902500D02*
X6994000Y-15902500D01*
D11*
X7292872Y-15793984D02*
X7311920Y-15793984D01*
X7311920Y-15793984D02*
X7330967Y-15803508D01*
X7330967Y-15803508D02*
X7340491Y-15813031D01*
X7340491Y-15813031D02*
X7350015Y-15832079D01*
X7350015Y-15832079D02*
X7359539Y-15870174D01*
X7359539Y-15870174D02*
X7359539Y-15917793D01*
X7359539Y-15917793D02*
X7350015Y-15955888D01*
X7350015Y-15955888D02*
X7340491Y-15974936D01*
X7340491Y-15974936D02*
X7330967Y-15984460D01*
X7330967Y-15984460D02*
X7311920Y-15993984D01*
X7311920Y-15993984D02*
X7292872Y-15993984D01*
X7292872Y-15993984D02*
X7273824Y-15984460D01*
X7273824Y-15984460D02*
X7264301Y-15974936D01*
X7264301Y-15974936D02*
X7254777Y-15955888D01*
X7254777Y-15955888D02*
X7245253Y-15917793D01*
X7245253Y-15917793D02*
X7245253Y-15870174D01*
X7245253Y-15870174D02*
X7254777Y-15832079D01*
X7254777Y-15832079D02*
X7264301Y-15813031D01*
X7264301Y-15813031D02*
X7273824Y-15803508D01*
X7273824Y-15803508D02*
X7292872Y-15793984D01*
X7445253Y-15974936D02*
X7454777Y-15984460D01*
X7454777Y-15984460D02*
X7445253Y-15993984D01*
X7445253Y-15993984D02*
X7435729Y-15984460D01*
X7435729Y-15984460D02*
X7445253Y-15974936D01*
X7445253Y-15974936D02*
X7445253Y-15993984D01*
X7550015Y-15993984D02*
X7588110Y-15993984D01*
X7588110Y-15993984D02*
X7607158Y-15984460D01*
X7607158Y-15984460D02*
X7616682Y-15974936D01*
X7616682Y-15974936D02*
X7635729Y-15946365D01*
X7635729Y-15946365D02*
X7645253Y-15908269D01*
X7645253Y-15908269D02*
X7645253Y-15832079D01*
X7645253Y-15832079D02*
X7635729Y-15813031D01*
X7635729Y-15813031D02*
X7626205Y-15803508D01*
X7626205Y-15803508D02*
X7607158Y-15793984D01*
X7607158Y-15793984D02*
X7569062Y-15793984D01*
X7569062Y-15793984D02*
X7550015Y-15803508D01*
X7550015Y-15803508D02*
X7540491Y-15813031D01*
X7540491Y-15813031D02*
X7530967Y-15832079D01*
X7530967Y-15832079D02*
X7530967Y-15879698D01*
X7530967Y-15879698D02*
X7540491Y-15898746D01*
X7540491Y-15898746D02*
X7550015Y-15908269D01*
X7550015Y-15908269D02*
X7569062Y-15917793D01*
X7569062Y-15917793D02*
X7607158Y-15917793D01*
X7607158Y-15917793D02*
X7626205Y-15908269D01*
X7626205Y-15908269D02*
X7635729Y-15898746D01*
X7635729Y-15898746D02*
X7645253Y-15879698D01*
X7826205Y-15793984D02*
X7730967Y-15793984D01*
X7730967Y-15793984D02*
X7721443Y-15889222D01*
X7721443Y-15889222D02*
X7730967Y-15879698D01*
X7730967Y-15879698D02*
X7750015Y-15870174D01*
X7750015Y-15870174D02*
X7797634Y-15870174D01*
X7797634Y-15870174D02*
X7816682Y-15879698D01*
X7816682Y-15879698D02*
X7826205Y-15889222D01*
X7826205Y-15889222D02*
X7835729Y-15908269D01*
X7835729Y-15908269D02*
X7835729Y-15955888D01*
X7835729Y-15955888D02*
X7826205Y-15974936D01*
X7826205Y-15974936D02*
X7816682Y-15984460D01*
X7816682Y-15984460D02*
X7797634Y-15993984D01*
X7797634Y-15993984D02*
X7750015Y-15993984D01*
X7750015Y-15993984D02*
X7730967Y-15984460D01*
X7730967Y-15984460D02*
X7721443Y-15974936D01*
X7959539Y-15793984D02*
X7978586Y-15793984D01*
X7978586Y-15793984D02*
X7997634Y-15803508D01*
X7997634Y-15803508D02*
X8007158Y-15813031D01*
X8007158Y-15813031D02*
X8016682Y-15832079D01*
X8016682Y-15832079D02*
X8026205Y-15870174D01*
X8026205Y-15870174D02*
X8026205Y-15917793D01*
X8026205Y-15917793D02*
X8016682Y-15955888D01*
X8016682Y-15955888D02*
X8007158Y-15974936D01*
X8007158Y-15974936D02*
X7997634Y-15984460D01*
X7997634Y-15984460D02*
X7978586Y-15993984D01*
X7978586Y-15993984D02*
X7959539Y-15993984D01*
X7959539Y-15993984D02*
X7940491Y-15984460D01*
X7940491Y-15984460D02*
X7930967Y-15974936D01*
X7930967Y-15974936D02*
X7921443Y-15955888D01*
X7921443Y-15955888D02*
X7911920Y-15917793D01*
X7911920Y-15917793D02*
X7911920Y-15870174D01*
X7911920Y-15870174D02*
X7921443Y-15832079D01*
X7921443Y-15832079D02*
X7930967Y-15813031D01*
X7930967Y-15813031D02*
X7940491Y-15803508D01*
X7940491Y-15803508D02*
X7959539Y-15793984D01*
X8111920Y-15993984D02*
X8111920Y-15860650D01*
X8111920Y-15879698D02*
X8121443Y-15870174D01*
X8121443Y-15870174D02*
X8140491Y-15860650D01*
X8140491Y-15860650D02*
X8169063Y-15860650D01*
X8169063Y-15860650D02*
X8188110Y-15870174D01*
X8188110Y-15870174D02*
X8197634Y-15889222D01*
X8197634Y-15889222D02*
X8197634Y-15993984D01*
X8197634Y-15889222D02*
X8207158Y-15870174D01*
X8207158Y-15870174D02*
X8226205Y-15860650D01*
X8226205Y-15860650D02*
X8254777Y-15860650D01*
X8254777Y-15860650D02*
X8273824Y-15870174D01*
X8273824Y-15870174D02*
X8283348Y-15889222D01*
X8283348Y-15889222D02*
X8283348Y-15993984D01*
X8378586Y-15993984D02*
X8378586Y-15860650D01*
X8378586Y-15879698D02*
X8388110Y-15870174D01*
X8388110Y-15870174D02*
X8407158Y-15860650D01*
X8407158Y-15860650D02*
X8435729Y-15860650D01*
X8435729Y-15860650D02*
X8454777Y-15870174D01*
X8454777Y-15870174D02*
X8464301Y-15889222D01*
X8464301Y-15889222D02*
X8464301Y-15993984D01*
X8464301Y-15889222D02*
X8473825Y-15870174D01*
X8473825Y-15870174D02*
X8492872Y-15860650D01*
X8492872Y-15860650D02*
X8521444Y-15860650D01*
X8521444Y-15860650D02*
X8540491Y-15870174D01*
X8540491Y-15870174D02*
X8550015Y-15889222D01*
X8550015Y-15889222D02*
X8550015Y-15993984D01*
X8940491Y-15784460D02*
X8769063Y-16041603D01*
X9197634Y-15793984D02*
X9216682Y-15793984D01*
X9216682Y-15793984D02*
X9235729Y-15803508D01*
X9235729Y-15803508D02*
X9245253Y-15813031D01*
X9245253Y-15813031D02*
X9254777Y-15832079D01*
X9254777Y-15832079D02*
X9264301Y-15870174D01*
X9264301Y-15870174D02*
X9264301Y-15917793D01*
X9264301Y-15917793D02*
X9254777Y-15955888D01*
X9254777Y-15955888D02*
X9245253Y-15974936D01*
X9245253Y-15974936D02*
X9235729Y-15984460D01*
X9235729Y-15984460D02*
X9216682Y-15993984D01*
X9216682Y-15993984D02*
X9197634Y-15993984D01*
X9197634Y-15993984D02*
X9178587Y-15984460D01*
X9178587Y-15984460D02*
X9169063Y-15974936D01*
X9169063Y-15974936D02*
X9159539Y-15955888D01*
X9159539Y-15955888D02*
X9150015Y-15917793D01*
X9150015Y-15917793D02*
X9150015Y-15870174D01*
X9150015Y-15870174D02*
X9159539Y-15832079D01*
X9159539Y-15832079D02*
X9169063Y-15813031D01*
X9169063Y-15813031D02*
X9178587Y-15803508D01*
X9178587Y-15803508D02*
X9197634Y-15793984D01*
X9350015Y-15974936D02*
X9359539Y-15984460D01*
X9359539Y-15984460D02*
X9350015Y-15993984D01*
X9350015Y-15993984D02*
X9340491Y-15984460D01*
X9340491Y-15984460D02*
X9350015Y-15974936D01*
X9350015Y-15974936D02*
X9350015Y-15993984D01*
X9483348Y-15793984D02*
X9502396Y-15793984D01*
X9502396Y-15793984D02*
X9521444Y-15803508D01*
X9521444Y-15803508D02*
X9530968Y-15813031D01*
X9530968Y-15813031D02*
X9540491Y-15832079D01*
X9540491Y-15832079D02*
X9550015Y-15870174D01*
X9550015Y-15870174D02*
X9550015Y-15917793D01*
X9550015Y-15917793D02*
X9540491Y-15955888D01*
X9540491Y-15955888D02*
X9530968Y-15974936D01*
X9530968Y-15974936D02*
X9521444Y-15984460D01*
X9521444Y-15984460D02*
X9502396Y-15993984D01*
X9502396Y-15993984D02*
X9483348Y-15993984D01*
X9483348Y-15993984D02*
X9464301Y-15984460D01*
X9464301Y-15984460D02*
X9454777Y-15974936D01*
X9454777Y-15974936D02*
X9445253Y-15955888D01*
X9445253Y-15955888D02*
X9435729Y-15917793D01*
X9435729Y-15917793D02*
X9435729Y-15870174D01*
X9435729Y-15870174D02*
X9445253Y-15832079D01*
X9445253Y-15832079D02*
X9454777Y-15813031D01*
X9454777Y-15813031D02*
X9464301Y-15803508D01*
X9464301Y-15803508D02*
X9483348Y-15793984D01*
X9616682Y-15793984D02*
X9740491Y-15793984D01*
X9740491Y-15793984D02*
X9673825Y-15870174D01*
X9673825Y-15870174D02*
X9702396Y-15870174D01*
X9702396Y-15870174D02*
X9721444Y-15879698D01*
X9721444Y-15879698D02*
X9730968Y-15889222D01*
X9730968Y-15889222D02*
X9740491Y-15908269D01*
X9740491Y-15908269D02*
X9740491Y-15955888D01*
X9740491Y-15955888D02*
X9730968Y-15974936D01*
X9730968Y-15974936D02*
X9721444Y-15984460D01*
X9721444Y-15984460D02*
X9702396Y-15993984D01*
X9702396Y-15993984D02*
X9645253Y-15993984D01*
X9645253Y-15993984D02*
X9626206Y-15984460D01*
X9626206Y-15984460D02*
X9616682Y-15974936D01*
X9807158Y-15793984D02*
X9940491Y-15793984D01*
X9940491Y-15793984D02*
X9854777Y-15993984D01*
X10102396Y-15860650D02*
X10102396Y-15993984D01*
X10054777Y-15784460D02*
X10007158Y-15927317D01*
X10007158Y-15927317D02*
X10130968Y-15927317D01*
X10197634Y-15793984D02*
X10197634Y-15832079D01*
X10273825Y-15793984D02*
X10273825Y-15832079D01*
X10569063Y-16070174D02*
X10559539Y-16060650D01*
X10559539Y-16060650D02*
X10540491Y-16032079D01*
X10540491Y-16032079D02*
X10530968Y-16013031D01*
X10530968Y-16013031D02*
X10521444Y-15984460D01*
X10521444Y-15984460D02*
X10511920Y-15936841D01*
X10511920Y-15936841D02*
X10511920Y-15898746D01*
X10511920Y-15898746D02*
X10521444Y-15851127D01*
X10521444Y-15851127D02*
X10530968Y-15822555D01*
X10530968Y-15822555D02*
X10540491Y-15803508D01*
X10540491Y-15803508D02*
X10559539Y-15774936D01*
X10559539Y-15774936D02*
X10569063Y-15765412D01*
X10626206Y-15793984D02*
X10759539Y-15793984D01*
X10759539Y-15793984D02*
X10673825Y-15993984D01*
X10940491Y-15993984D02*
X10826206Y-15993984D01*
X10883349Y-15993984D02*
X10883349Y-15793984D01*
X10883349Y-15793984D02*
X10864301Y-15822555D01*
X10864301Y-15822555D02*
X10845253Y-15841603D01*
X10845253Y-15841603D02*
X10826206Y-15851127D01*
X11178587Y-15993984D02*
X11178587Y-15793984D01*
X11264301Y-15993984D02*
X11264301Y-15889222D01*
X11264301Y-15889222D02*
X11254777Y-15870174D01*
X11254777Y-15870174D02*
X11235730Y-15860650D01*
X11235730Y-15860650D02*
X11207158Y-15860650D01*
X11207158Y-15860650D02*
X11188110Y-15870174D01*
X11188110Y-15870174D02*
X11178587Y-15879698D01*
X11388110Y-15993984D02*
X11369063Y-15984460D01*
X11369063Y-15984460D02*
X11359539Y-15974936D01*
X11359539Y-15974936D02*
X11350015Y-15955888D01*
X11350015Y-15955888D02*
X11350015Y-15898746D01*
X11350015Y-15898746D02*
X11359539Y-15879698D01*
X11359539Y-15879698D02*
X11369063Y-15870174D01*
X11369063Y-15870174D02*
X11388110Y-15860650D01*
X11388110Y-15860650D02*
X11416682Y-15860650D01*
X11416682Y-15860650D02*
X11435730Y-15870174D01*
X11435730Y-15870174D02*
X11445253Y-15879698D01*
X11445253Y-15879698D02*
X11454777Y-15898746D01*
X11454777Y-15898746D02*
X11454777Y-15955888D01*
X11454777Y-15955888D02*
X11445253Y-15974936D01*
X11445253Y-15974936D02*
X11435730Y-15984460D01*
X11435730Y-15984460D02*
X11416682Y-15993984D01*
X11416682Y-15993984D02*
X11388110Y-15993984D01*
X11569063Y-15993984D02*
X11550015Y-15984460D01*
X11550015Y-15984460D02*
X11540491Y-15965412D01*
X11540491Y-15965412D02*
X11540491Y-15793984D01*
X11721444Y-15984460D02*
X11702396Y-15993984D01*
X11702396Y-15993984D02*
X11664301Y-15993984D01*
X11664301Y-15993984D02*
X11645253Y-15984460D01*
X11645253Y-15984460D02*
X11635730Y-15965412D01*
X11635730Y-15965412D02*
X11635730Y-15889222D01*
X11635730Y-15889222D02*
X11645253Y-15870174D01*
X11645253Y-15870174D02*
X11664301Y-15860650D01*
X11664301Y-15860650D02*
X11702396Y-15860650D01*
X11702396Y-15860650D02*
X11721444Y-15870174D01*
X11721444Y-15870174D02*
X11730968Y-15889222D01*
X11730968Y-15889222D02*
X11730968Y-15908269D01*
X11730968Y-15908269D02*
X11635730Y-15927317D01*
X11807158Y-15984460D02*
X11826206Y-15993984D01*
X11826206Y-15993984D02*
X11864301Y-15993984D01*
X11864301Y-15993984D02*
X11883349Y-15984460D01*
X11883349Y-15984460D02*
X11892872Y-15965412D01*
X11892872Y-15965412D02*
X11892872Y-15955888D01*
X11892872Y-15955888D02*
X11883349Y-15936841D01*
X11883349Y-15936841D02*
X11864301Y-15927317D01*
X11864301Y-15927317D02*
X11835730Y-15927317D01*
X11835730Y-15927317D02*
X11816682Y-15917793D01*
X11816682Y-15917793D02*
X11807158Y-15898746D01*
X11807158Y-15898746D02*
X11807158Y-15889222D01*
X11807158Y-15889222D02*
X11816682Y-15870174D01*
X11816682Y-15870174D02*
X11835730Y-15860650D01*
X11835730Y-15860650D02*
X11864301Y-15860650D01*
X11864301Y-15860650D02*
X11883349Y-15870174D01*
X11959539Y-16070174D02*
X11969063Y-16060650D01*
X11969063Y-16060650D02*
X11988111Y-16032079D01*
X11988111Y-16032079D02*
X11997634Y-16013031D01*
X11997634Y-16013031D02*
X12007158Y-15984460D01*
X12007158Y-15984460D02*
X12016682Y-15936841D01*
X12016682Y-15936841D02*
X12016682Y-15898746D01*
X12016682Y-15898746D02*
X12007158Y-15851127D01*
X12007158Y-15851127D02*
X11997634Y-15822555D01*
X11997634Y-15822555D02*
X11988111Y-15803508D01*
X11988111Y-15803508D02*
X11969063Y-15774936D01*
X11969063Y-15774936D02*
X11959539Y-15765412D01*
D12*
X6979356Y-16201856D02*
X6979356Y-16131144D01*
X6908644Y-16131144D01*
X6908644Y-16201856D01*
X6979356Y-16201856D01*
D11*
X7359539Y-16257984D02*
X7245253Y-16257984D01*
X7302396Y-16257984D02*
X7302396Y-16057984D01*
X7302396Y-16057984D02*
X7283348Y-16086555D01*
X7283348Y-16086555D02*
X7264301Y-16105603D01*
X7264301Y-16105603D02*
X7245253Y-16115127D01*
X7445253Y-16238936D02*
X7454777Y-16248460D01*
X7454777Y-16248460D02*
X7445253Y-16257984D01*
X7445253Y-16257984D02*
X7435729Y-16248460D01*
X7435729Y-16248460D02*
X7445253Y-16238936D01*
X7445253Y-16238936D02*
X7445253Y-16257984D01*
X7578586Y-16057984D02*
X7597634Y-16057984D01*
X7597634Y-16057984D02*
X7616682Y-16067508D01*
X7616682Y-16067508D02*
X7626205Y-16077031D01*
X7626205Y-16077031D02*
X7635729Y-16096079D01*
X7635729Y-16096079D02*
X7645253Y-16134174D01*
X7645253Y-16134174D02*
X7645253Y-16181793D01*
X7645253Y-16181793D02*
X7635729Y-16219888D01*
X7635729Y-16219888D02*
X7626205Y-16238936D01*
X7626205Y-16238936D02*
X7616682Y-16248460D01*
X7616682Y-16248460D02*
X7597634Y-16257984D01*
X7597634Y-16257984D02*
X7578586Y-16257984D01*
X7578586Y-16257984D02*
X7559539Y-16248460D01*
X7559539Y-16248460D02*
X7550015Y-16238936D01*
X7550015Y-16238936D02*
X7540491Y-16219888D01*
X7540491Y-16219888D02*
X7530967Y-16181793D01*
X7530967Y-16181793D02*
X7530967Y-16134174D01*
X7530967Y-16134174D02*
X7540491Y-16096079D01*
X7540491Y-16096079D02*
X7550015Y-16077031D01*
X7550015Y-16077031D02*
X7559539Y-16067508D01*
X7559539Y-16067508D02*
X7578586Y-16057984D01*
X7769062Y-16057984D02*
X7788110Y-16057984D01*
X7788110Y-16057984D02*
X7807158Y-16067508D01*
X7807158Y-16067508D02*
X7816682Y-16077031D01*
X7816682Y-16077031D02*
X7826205Y-16096079D01*
X7826205Y-16096079D02*
X7835729Y-16134174D01*
X7835729Y-16134174D02*
X7835729Y-16181793D01*
X7835729Y-16181793D02*
X7826205Y-16219888D01*
X7826205Y-16219888D02*
X7816682Y-16238936D01*
X7816682Y-16238936D02*
X7807158Y-16248460D01*
X7807158Y-16248460D02*
X7788110Y-16257984D01*
X7788110Y-16257984D02*
X7769062Y-16257984D01*
X7769062Y-16257984D02*
X7750015Y-16248460D01*
X7750015Y-16248460D02*
X7740491Y-16238936D01*
X7740491Y-16238936D02*
X7730967Y-16219888D01*
X7730967Y-16219888D02*
X7721443Y-16181793D01*
X7721443Y-16181793D02*
X7721443Y-16134174D01*
X7721443Y-16134174D02*
X7730967Y-16096079D01*
X7730967Y-16096079D02*
X7740491Y-16077031D01*
X7740491Y-16077031D02*
X7750015Y-16067508D01*
X7750015Y-16067508D02*
X7769062Y-16057984D01*
X7959539Y-16057984D02*
X7978586Y-16057984D01*
X7978586Y-16057984D02*
X7997634Y-16067508D01*
X7997634Y-16067508D02*
X8007158Y-16077031D01*
X8007158Y-16077031D02*
X8016682Y-16096079D01*
X8016682Y-16096079D02*
X8026205Y-16134174D01*
X8026205Y-16134174D02*
X8026205Y-16181793D01*
X8026205Y-16181793D02*
X8016682Y-16219888D01*
X8016682Y-16219888D02*
X8007158Y-16238936D01*
X8007158Y-16238936D02*
X7997634Y-16248460D01*
X7997634Y-16248460D02*
X7978586Y-16257984D01*
X7978586Y-16257984D02*
X7959539Y-16257984D01*
X7959539Y-16257984D02*
X7940491Y-16248460D01*
X7940491Y-16248460D02*
X7930967Y-16238936D01*
X7930967Y-16238936D02*
X7921443Y-16219888D01*
X7921443Y-16219888D02*
X7911920Y-16181793D01*
X7911920Y-16181793D02*
X7911920Y-16134174D01*
X7911920Y-16134174D02*
X7921443Y-16096079D01*
X7921443Y-16096079D02*
X7930967Y-16077031D01*
X7930967Y-16077031D02*
X7940491Y-16067508D01*
X7940491Y-16067508D02*
X7959539Y-16057984D01*
X8111920Y-16257984D02*
X8111920Y-16124650D01*
X8111920Y-16143698D02*
X8121443Y-16134174D01*
X8121443Y-16134174D02*
X8140491Y-16124650D01*
X8140491Y-16124650D02*
X8169063Y-16124650D01*
X8169063Y-16124650D02*
X8188110Y-16134174D01*
X8188110Y-16134174D02*
X8197634Y-16153222D01*
X8197634Y-16153222D02*
X8197634Y-16257984D01*
X8197634Y-16153222D02*
X8207158Y-16134174D01*
X8207158Y-16134174D02*
X8226205Y-16124650D01*
X8226205Y-16124650D02*
X8254777Y-16124650D01*
X8254777Y-16124650D02*
X8273824Y-16134174D01*
X8273824Y-16134174D02*
X8283348Y-16153222D01*
X8283348Y-16153222D02*
X8283348Y-16257984D01*
X8378586Y-16257984D02*
X8378586Y-16124650D01*
X8378586Y-16143698D02*
X8388110Y-16134174D01*
X8388110Y-16134174D02*
X8407158Y-16124650D01*
X8407158Y-16124650D02*
X8435729Y-16124650D01*
X8435729Y-16124650D02*
X8454777Y-16134174D01*
X8454777Y-16134174D02*
X8464301Y-16153222D01*
X8464301Y-16153222D02*
X8464301Y-16257984D01*
X8464301Y-16153222D02*
X8473825Y-16134174D01*
X8473825Y-16134174D02*
X8492872Y-16124650D01*
X8492872Y-16124650D02*
X8521444Y-16124650D01*
X8521444Y-16124650D02*
X8540491Y-16134174D01*
X8540491Y-16134174D02*
X8550015Y-16153222D01*
X8550015Y-16153222D02*
X8550015Y-16257984D01*
X8940491Y-16048460D02*
X8769063Y-16305603D01*
X9197634Y-16057984D02*
X9216682Y-16057984D01*
X9216682Y-16057984D02*
X9235729Y-16067508D01*
X9235729Y-16067508D02*
X9245253Y-16077031D01*
X9245253Y-16077031D02*
X9254777Y-16096079D01*
X9254777Y-16096079D02*
X9264301Y-16134174D01*
X9264301Y-16134174D02*
X9264301Y-16181793D01*
X9264301Y-16181793D02*
X9254777Y-16219888D01*
X9254777Y-16219888D02*
X9245253Y-16238936D01*
X9245253Y-16238936D02*
X9235729Y-16248460D01*
X9235729Y-16248460D02*
X9216682Y-16257984D01*
X9216682Y-16257984D02*
X9197634Y-16257984D01*
X9197634Y-16257984D02*
X9178587Y-16248460D01*
X9178587Y-16248460D02*
X9169063Y-16238936D01*
X9169063Y-16238936D02*
X9159539Y-16219888D01*
X9159539Y-16219888D02*
X9150015Y-16181793D01*
X9150015Y-16181793D02*
X9150015Y-16134174D01*
X9150015Y-16134174D02*
X9159539Y-16096079D01*
X9159539Y-16096079D02*
X9169063Y-16077031D01*
X9169063Y-16077031D02*
X9178587Y-16067508D01*
X9178587Y-16067508D02*
X9197634Y-16057984D01*
X9350015Y-16238936D02*
X9359539Y-16248460D01*
X9359539Y-16248460D02*
X9350015Y-16257984D01*
X9350015Y-16257984D02*
X9340491Y-16248460D01*
X9340491Y-16248460D02*
X9350015Y-16238936D01*
X9350015Y-16238936D02*
X9350015Y-16257984D01*
X9483348Y-16057984D02*
X9502396Y-16057984D01*
X9502396Y-16057984D02*
X9521444Y-16067508D01*
X9521444Y-16067508D02*
X9530968Y-16077031D01*
X9530968Y-16077031D02*
X9540491Y-16096079D01*
X9540491Y-16096079D02*
X9550015Y-16134174D01*
X9550015Y-16134174D02*
X9550015Y-16181793D01*
X9550015Y-16181793D02*
X9540491Y-16219888D01*
X9540491Y-16219888D02*
X9530968Y-16238936D01*
X9530968Y-16238936D02*
X9521444Y-16248460D01*
X9521444Y-16248460D02*
X9502396Y-16257984D01*
X9502396Y-16257984D02*
X9483348Y-16257984D01*
X9483348Y-16257984D02*
X9464301Y-16248460D01*
X9464301Y-16248460D02*
X9454777Y-16238936D01*
X9454777Y-16238936D02*
X9445253Y-16219888D01*
X9445253Y-16219888D02*
X9435729Y-16181793D01*
X9435729Y-16181793D02*
X9435729Y-16134174D01*
X9435729Y-16134174D02*
X9445253Y-16096079D01*
X9445253Y-16096079D02*
X9454777Y-16077031D01*
X9454777Y-16077031D02*
X9464301Y-16067508D01*
X9464301Y-16067508D02*
X9483348Y-16057984D01*
X9616682Y-16057984D02*
X9740491Y-16057984D01*
X9740491Y-16057984D02*
X9673825Y-16134174D01*
X9673825Y-16134174D02*
X9702396Y-16134174D01*
X9702396Y-16134174D02*
X9721444Y-16143698D01*
X9721444Y-16143698D02*
X9730968Y-16153222D01*
X9730968Y-16153222D02*
X9740491Y-16172269D01*
X9740491Y-16172269D02*
X9740491Y-16219888D01*
X9740491Y-16219888D02*
X9730968Y-16238936D01*
X9730968Y-16238936D02*
X9721444Y-16248460D01*
X9721444Y-16248460D02*
X9702396Y-16257984D01*
X9702396Y-16257984D02*
X9645253Y-16257984D01*
X9645253Y-16257984D02*
X9626206Y-16248460D01*
X9626206Y-16248460D02*
X9616682Y-16238936D01*
X9835729Y-16257984D02*
X9873825Y-16257984D01*
X9873825Y-16257984D02*
X9892872Y-16248460D01*
X9892872Y-16248460D02*
X9902396Y-16238936D01*
X9902396Y-16238936D02*
X9921444Y-16210365D01*
X9921444Y-16210365D02*
X9930968Y-16172269D01*
X9930968Y-16172269D02*
X9930968Y-16096079D01*
X9930968Y-16096079D02*
X9921444Y-16077031D01*
X9921444Y-16077031D02*
X9911920Y-16067508D01*
X9911920Y-16067508D02*
X9892872Y-16057984D01*
X9892872Y-16057984D02*
X9854777Y-16057984D01*
X9854777Y-16057984D02*
X9835729Y-16067508D01*
X9835729Y-16067508D02*
X9826206Y-16077031D01*
X9826206Y-16077031D02*
X9816682Y-16096079D01*
X9816682Y-16096079D02*
X9816682Y-16143698D01*
X9816682Y-16143698D02*
X9826206Y-16162746D01*
X9826206Y-16162746D02*
X9835729Y-16172269D01*
X9835729Y-16172269D02*
X9854777Y-16181793D01*
X9854777Y-16181793D02*
X9892872Y-16181793D01*
X9892872Y-16181793D02*
X9911920Y-16172269D01*
X9911920Y-16172269D02*
X9921444Y-16162746D01*
X9921444Y-16162746D02*
X9930968Y-16143698D01*
X10102396Y-16124650D02*
X10102396Y-16257984D01*
X10054777Y-16048460D02*
X10007158Y-16191317D01*
X10007158Y-16191317D02*
X10130968Y-16191317D01*
X10197634Y-16057984D02*
X10197634Y-16096079D01*
X10273825Y-16057984D02*
X10273825Y-16096079D01*
X10569063Y-16334174D02*
X10559539Y-16324650D01*
X10559539Y-16324650D02*
X10540491Y-16296079D01*
X10540491Y-16296079D02*
X10530968Y-16277031D01*
X10530968Y-16277031D02*
X10521444Y-16248460D01*
X10521444Y-16248460D02*
X10511920Y-16200841D01*
X10511920Y-16200841D02*
X10511920Y-16162746D01*
X10511920Y-16162746D02*
X10521444Y-16115127D01*
X10521444Y-16115127D02*
X10530968Y-16086555D01*
X10530968Y-16086555D02*
X10540491Y-16067508D01*
X10540491Y-16067508D02*
X10559539Y-16038936D01*
X10559539Y-16038936D02*
X10569063Y-16029412D01*
X10635730Y-16077031D02*
X10645253Y-16067508D01*
X10645253Y-16067508D02*
X10664301Y-16057984D01*
X10664301Y-16057984D02*
X10711920Y-16057984D01*
X10711920Y-16057984D02*
X10730968Y-16067508D01*
X10730968Y-16067508D02*
X10740491Y-16077031D01*
X10740491Y-16077031D02*
X10750015Y-16096079D01*
X10750015Y-16096079D02*
X10750015Y-16115127D01*
X10750015Y-16115127D02*
X10740491Y-16143698D01*
X10740491Y-16143698D02*
X10626206Y-16257984D01*
X10626206Y-16257984D02*
X10750015Y-16257984D01*
X10816682Y-16057984D02*
X10950015Y-16057984D01*
X10950015Y-16057984D02*
X10864301Y-16257984D01*
X11111920Y-16124650D02*
X11111920Y-16257984D01*
X11064301Y-16048460D02*
X11016682Y-16191317D01*
X11016682Y-16191317D02*
X11140491Y-16191317D01*
X11369063Y-16257984D02*
X11369063Y-16057984D01*
X11454777Y-16257984D02*
X11454777Y-16153222D01*
X11454777Y-16153222D02*
X11445253Y-16134174D01*
X11445253Y-16134174D02*
X11426206Y-16124650D01*
X11426206Y-16124650D02*
X11397634Y-16124650D01*
X11397634Y-16124650D02*
X11378587Y-16134174D01*
X11378587Y-16134174D02*
X11369063Y-16143698D01*
X11578587Y-16257984D02*
X11559539Y-16248460D01*
X11559539Y-16248460D02*
X11550015Y-16238936D01*
X11550015Y-16238936D02*
X11540491Y-16219888D01*
X11540491Y-16219888D02*
X11540491Y-16162746D01*
X11540491Y-16162746D02*
X11550015Y-16143698D01*
X11550015Y-16143698D02*
X11559539Y-16134174D01*
X11559539Y-16134174D02*
X11578587Y-16124650D01*
X11578587Y-16124650D02*
X11607158Y-16124650D01*
X11607158Y-16124650D02*
X11626206Y-16134174D01*
X11626206Y-16134174D02*
X11635730Y-16143698D01*
X11635730Y-16143698D02*
X11645253Y-16162746D01*
X11645253Y-16162746D02*
X11645253Y-16219888D01*
X11645253Y-16219888D02*
X11635730Y-16238936D01*
X11635730Y-16238936D02*
X11626206Y-16248460D01*
X11626206Y-16248460D02*
X11607158Y-16257984D01*
X11607158Y-16257984D02*
X11578587Y-16257984D01*
X11759539Y-16257984D02*
X11740491Y-16248460D01*
X11740491Y-16248460D02*
X11730968Y-16229412D01*
X11730968Y-16229412D02*
X11730968Y-16057984D01*
X11911920Y-16248460D02*
X11892872Y-16257984D01*
X11892872Y-16257984D02*
X11854777Y-16257984D01*
X11854777Y-16257984D02*
X11835730Y-16248460D01*
X11835730Y-16248460D02*
X11826206Y-16229412D01*
X11826206Y-16229412D02*
X11826206Y-16153222D01*
X11826206Y-16153222D02*
X11835730Y-16134174D01*
X11835730Y-16134174D02*
X11854777Y-16124650D01*
X11854777Y-16124650D02*
X11892872Y-16124650D01*
X11892872Y-16124650D02*
X11911920Y-16134174D01*
X11911920Y-16134174D02*
X11921444Y-16153222D01*
X11921444Y-16153222D02*
X11921444Y-16172269D01*
X11921444Y-16172269D02*
X11826206Y-16191317D01*
X11997634Y-16248460D02*
X12016682Y-16257984D01*
X12016682Y-16257984D02*
X12054777Y-16257984D01*
X12054777Y-16257984D02*
X12073825Y-16248460D01*
X12073825Y-16248460D02*
X12083349Y-16229412D01*
X12083349Y-16229412D02*
X12083349Y-16219888D01*
X12083349Y-16219888D02*
X12073825Y-16200841D01*
X12073825Y-16200841D02*
X12054777Y-16191317D01*
X12054777Y-16191317D02*
X12026206Y-16191317D01*
X12026206Y-16191317D02*
X12007158Y-16181793D01*
X12007158Y-16181793D02*
X11997634Y-16162746D01*
X11997634Y-16162746D02*
X11997634Y-16153222D01*
X11997634Y-16153222D02*
X12007158Y-16134174D01*
X12007158Y-16134174D02*
X12026206Y-16124650D01*
X12026206Y-16124650D02*
X12054777Y-16124650D01*
X12054777Y-16124650D02*
X12073825Y-16134174D01*
X12150015Y-16334174D02*
X12159539Y-16324650D01*
X12159539Y-16324650D02*
X12178587Y-16296079D01*
X12178587Y-16296079D02*
X12188111Y-16277031D01*
X12188111Y-16277031D02*
X12197634Y-16248460D01*
X12197634Y-16248460D02*
X12207158Y-16200841D01*
X12207158Y-16200841D02*
X12207158Y-16162746D01*
X12207158Y-16162746D02*
X12197634Y-16115127D01*
X12197634Y-16115127D02*
X12188111Y-16086555D01*
X12188111Y-16086555D02*
X12178587Y-16067508D01*
X12178587Y-16067508D02*
X12159539Y-16038936D01*
X12159539Y-16038936D02*
X12150015Y-16029412D01*
D13*
X6918000Y-16506500D02*
X6994000Y-16430500D01*
X6918000Y-16354500D01*
X6842000Y-16430500D01*
X6918000Y-16506500D01*
D11*
X7359539Y-16521984D02*
X7245253Y-16521984D01*
X7302396Y-16521984D02*
X7302396Y-16321984D01*
X7302396Y-16321984D02*
X7283348Y-16350555D01*
X7283348Y-16350555D02*
X7264301Y-16369603D01*
X7264301Y-16369603D02*
X7245253Y-16379127D01*
X7445253Y-16502936D02*
X7454777Y-16512460D01*
X7454777Y-16512460D02*
X7445253Y-16521984D01*
X7445253Y-16521984D02*
X7435729Y-16512460D01*
X7435729Y-16512460D02*
X7445253Y-16502936D01*
X7445253Y-16502936D02*
X7445253Y-16521984D01*
X7635729Y-16321984D02*
X7540491Y-16321984D01*
X7540491Y-16321984D02*
X7530967Y-16417222D01*
X7530967Y-16417222D02*
X7540491Y-16407698D01*
X7540491Y-16407698D02*
X7559539Y-16398174D01*
X7559539Y-16398174D02*
X7607158Y-16398174D01*
X7607158Y-16398174D02*
X7626205Y-16407698D01*
X7626205Y-16407698D02*
X7635729Y-16417222D01*
X7635729Y-16417222D02*
X7645253Y-16436269D01*
X7645253Y-16436269D02*
X7645253Y-16483888D01*
X7645253Y-16483888D02*
X7635729Y-16502936D01*
X7635729Y-16502936D02*
X7626205Y-16512460D01*
X7626205Y-16512460D02*
X7607158Y-16521984D01*
X7607158Y-16521984D02*
X7559539Y-16521984D01*
X7559539Y-16521984D02*
X7540491Y-16512460D01*
X7540491Y-16512460D02*
X7530967Y-16502936D01*
X7721443Y-16341031D02*
X7730967Y-16331508D01*
X7730967Y-16331508D02*
X7750015Y-16321984D01*
X7750015Y-16321984D02*
X7797634Y-16321984D01*
X7797634Y-16321984D02*
X7816682Y-16331508D01*
X7816682Y-16331508D02*
X7826205Y-16341031D01*
X7826205Y-16341031D02*
X7835729Y-16360079D01*
X7835729Y-16360079D02*
X7835729Y-16379127D01*
X7835729Y-16379127D02*
X7826205Y-16407698D01*
X7826205Y-16407698D02*
X7711920Y-16521984D01*
X7711920Y-16521984D02*
X7835729Y-16521984D01*
X7959539Y-16321984D02*
X7978586Y-16321984D01*
X7978586Y-16321984D02*
X7997634Y-16331508D01*
X7997634Y-16331508D02*
X8007158Y-16341031D01*
X8007158Y-16341031D02*
X8016682Y-16360079D01*
X8016682Y-16360079D02*
X8026205Y-16398174D01*
X8026205Y-16398174D02*
X8026205Y-16445793D01*
X8026205Y-16445793D02*
X8016682Y-16483888D01*
X8016682Y-16483888D02*
X8007158Y-16502936D01*
X8007158Y-16502936D02*
X7997634Y-16512460D01*
X7997634Y-16512460D02*
X7978586Y-16521984D01*
X7978586Y-16521984D02*
X7959539Y-16521984D01*
X7959539Y-16521984D02*
X7940491Y-16512460D01*
X7940491Y-16512460D02*
X7930967Y-16502936D01*
X7930967Y-16502936D02*
X7921443Y-16483888D01*
X7921443Y-16483888D02*
X7911920Y-16445793D01*
X7911920Y-16445793D02*
X7911920Y-16398174D01*
X7911920Y-16398174D02*
X7921443Y-16360079D01*
X7921443Y-16360079D02*
X7930967Y-16341031D01*
X7930967Y-16341031D02*
X7940491Y-16331508D01*
X7940491Y-16331508D02*
X7959539Y-16321984D01*
X8111920Y-16521984D02*
X8111920Y-16388650D01*
X8111920Y-16407698D02*
X8121443Y-16398174D01*
X8121443Y-16398174D02*
X8140491Y-16388650D01*
X8140491Y-16388650D02*
X8169063Y-16388650D01*
X8169063Y-16388650D02*
X8188110Y-16398174D01*
X8188110Y-16398174D02*
X8197634Y-16417222D01*
X8197634Y-16417222D02*
X8197634Y-16521984D01*
X8197634Y-16417222D02*
X8207158Y-16398174D01*
X8207158Y-16398174D02*
X8226205Y-16388650D01*
X8226205Y-16388650D02*
X8254777Y-16388650D01*
X8254777Y-16388650D02*
X8273824Y-16398174D01*
X8273824Y-16398174D02*
X8283348Y-16417222D01*
X8283348Y-16417222D02*
X8283348Y-16521984D01*
X8378586Y-16521984D02*
X8378586Y-16388650D01*
X8378586Y-16407698D02*
X8388110Y-16398174D01*
X8388110Y-16398174D02*
X8407158Y-16388650D01*
X8407158Y-16388650D02*
X8435729Y-16388650D01*
X8435729Y-16388650D02*
X8454777Y-16398174D01*
X8454777Y-16398174D02*
X8464301Y-16417222D01*
X8464301Y-16417222D02*
X8464301Y-16521984D01*
X8464301Y-16417222D02*
X8473825Y-16398174D01*
X8473825Y-16398174D02*
X8492872Y-16388650D01*
X8492872Y-16388650D02*
X8521444Y-16388650D01*
X8521444Y-16388650D02*
X8540491Y-16398174D01*
X8540491Y-16398174D02*
X8550015Y-16417222D01*
X8550015Y-16417222D02*
X8550015Y-16521984D01*
X8940491Y-16312460D02*
X8769063Y-16569603D01*
X9197634Y-16321984D02*
X9216682Y-16321984D01*
X9216682Y-16321984D02*
X9235729Y-16331508D01*
X9235729Y-16331508D02*
X9245253Y-16341031D01*
X9245253Y-16341031D02*
X9254777Y-16360079D01*
X9254777Y-16360079D02*
X9264301Y-16398174D01*
X9264301Y-16398174D02*
X9264301Y-16445793D01*
X9264301Y-16445793D02*
X9254777Y-16483888D01*
X9254777Y-16483888D02*
X9245253Y-16502936D01*
X9245253Y-16502936D02*
X9235729Y-16512460D01*
X9235729Y-16512460D02*
X9216682Y-16521984D01*
X9216682Y-16521984D02*
X9197634Y-16521984D01*
X9197634Y-16521984D02*
X9178587Y-16512460D01*
X9178587Y-16512460D02*
X9169063Y-16502936D01*
X9169063Y-16502936D02*
X9159539Y-16483888D01*
X9159539Y-16483888D02*
X9150015Y-16445793D01*
X9150015Y-16445793D02*
X9150015Y-16398174D01*
X9150015Y-16398174D02*
X9159539Y-16360079D01*
X9159539Y-16360079D02*
X9169063Y-16341031D01*
X9169063Y-16341031D02*
X9178587Y-16331508D01*
X9178587Y-16331508D02*
X9197634Y-16321984D01*
X9350015Y-16502936D02*
X9359539Y-16512460D01*
X9359539Y-16512460D02*
X9350015Y-16521984D01*
X9350015Y-16521984D02*
X9340491Y-16512460D01*
X9340491Y-16512460D02*
X9350015Y-16502936D01*
X9350015Y-16502936D02*
X9350015Y-16521984D01*
X9483348Y-16321984D02*
X9502396Y-16321984D01*
X9502396Y-16321984D02*
X9521444Y-16331508D01*
X9521444Y-16331508D02*
X9530968Y-16341031D01*
X9530968Y-16341031D02*
X9540491Y-16360079D01*
X9540491Y-16360079D02*
X9550015Y-16398174D01*
X9550015Y-16398174D02*
X9550015Y-16445793D01*
X9550015Y-16445793D02*
X9540491Y-16483888D01*
X9540491Y-16483888D02*
X9530968Y-16502936D01*
X9530968Y-16502936D02*
X9521444Y-16512460D01*
X9521444Y-16512460D02*
X9502396Y-16521984D01*
X9502396Y-16521984D02*
X9483348Y-16521984D01*
X9483348Y-16521984D02*
X9464301Y-16512460D01*
X9464301Y-16512460D02*
X9454777Y-16502936D01*
X9454777Y-16502936D02*
X9445253Y-16483888D01*
X9445253Y-16483888D02*
X9435729Y-16445793D01*
X9435729Y-16445793D02*
X9435729Y-16398174D01*
X9435729Y-16398174D02*
X9445253Y-16360079D01*
X9445253Y-16360079D02*
X9454777Y-16341031D01*
X9454777Y-16341031D02*
X9464301Y-16331508D01*
X9464301Y-16331508D02*
X9483348Y-16321984D01*
X9730968Y-16321984D02*
X9635729Y-16321984D01*
X9635729Y-16321984D02*
X9626206Y-16417222D01*
X9626206Y-16417222D02*
X9635729Y-16407698D01*
X9635729Y-16407698D02*
X9654777Y-16398174D01*
X9654777Y-16398174D02*
X9702396Y-16398174D01*
X9702396Y-16398174D02*
X9721444Y-16407698D01*
X9721444Y-16407698D02*
X9730968Y-16417222D01*
X9730968Y-16417222D02*
X9740491Y-16436269D01*
X9740491Y-16436269D02*
X9740491Y-16483888D01*
X9740491Y-16483888D02*
X9730968Y-16502936D01*
X9730968Y-16502936D02*
X9721444Y-16512460D01*
X9721444Y-16512460D02*
X9702396Y-16521984D01*
X9702396Y-16521984D02*
X9654777Y-16521984D01*
X9654777Y-16521984D02*
X9635729Y-16512460D01*
X9635729Y-16512460D02*
X9626206Y-16502936D01*
X9835729Y-16521984D02*
X9873825Y-16521984D01*
X9873825Y-16521984D02*
X9892872Y-16512460D01*
X9892872Y-16512460D02*
X9902396Y-16502936D01*
X9902396Y-16502936D02*
X9921444Y-16474365D01*
X9921444Y-16474365D02*
X9930968Y-16436269D01*
X9930968Y-16436269D02*
X9930968Y-16360079D01*
X9930968Y-16360079D02*
X9921444Y-16341031D01*
X9921444Y-16341031D02*
X9911920Y-16331508D01*
X9911920Y-16331508D02*
X9892872Y-16321984D01*
X9892872Y-16321984D02*
X9854777Y-16321984D01*
X9854777Y-16321984D02*
X9835729Y-16331508D01*
X9835729Y-16331508D02*
X9826206Y-16341031D01*
X9826206Y-16341031D02*
X9816682Y-16360079D01*
X9816682Y-16360079D02*
X9816682Y-16407698D01*
X9816682Y-16407698D02*
X9826206Y-16426746D01*
X9826206Y-16426746D02*
X9835729Y-16436269D01*
X9835729Y-16436269D02*
X9854777Y-16445793D01*
X9854777Y-16445793D02*
X9892872Y-16445793D01*
X9892872Y-16445793D02*
X9911920Y-16436269D01*
X9911920Y-16436269D02*
X9921444Y-16426746D01*
X9921444Y-16426746D02*
X9930968Y-16407698D01*
X10045253Y-16407698D02*
X10026206Y-16398174D01*
X10026206Y-16398174D02*
X10016682Y-16388650D01*
X10016682Y-16388650D02*
X10007158Y-16369603D01*
X10007158Y-16369603D02*
X10007158Y-16360079D01*
X10007158Y-16360079D02*
X10016682Y-16341031D01*
X10016682Y-16341031D02*
X10026206Y-16331508D01*
X10026206Y-16331508D02*
X10045253Y-16321984D01*
X10045253Y-16321984D02*
X10083349Y-16321984D01*
X10083349Y-16321984D02*
X10102396Y-16331508D01*
X10102396Y-16331508D02*
X10111920Y-16341031D01*
X10111920Y-16341031D02*
X10121444Y-16360079D01*
X10121444Y-16360079D02*
X10121444Y-16369603D01*
X10121444Y-16369603D02*
X10111920Y-16388650D01*
X10111920Y-16388650D02*
X10102396Y-16398174D01*
X10102396Y-16398174D02*
X10083349Y-16407698D01*
X10083349Y-16407698D02*
X10045253Y-16407698D01*
X10045253Y-16407698D02*
X10026206Y-16417222D01*
X10026206Y-16417222D02*
X10016682Y-16426746D01*
X10016682Y-16426746D02*
X10007158Y-16445793D01*
X10007158Y-16445793D02*
X10007158Y-16483888D01*
X10007158Y-16483888D02*
X10016682Y-16502936D01*
X10016682Y-16502936D02*
X10026206Y-16512460D01*
X10026206Y-16512460D02*
X10045253Y-16521984D01*
X10045253Y-16521984D02*
X10083349Y-16521984D01*
X10083349Y-16521984D02*
X10102396Y-16512460D01*
X10102396Y-16512460D02*
X10111920Y-16502936D01*
X10111920Y-16502936D02*
X10121444Y-16483888D01*
X10121444Y-16483888D02*
X10121444Y-16445793D01*
X10121444Y-16445793D02*
X10111920Y-16426746D01*
X10111920Y-16426746D02*
X10102396Y-16417222D01*
X10102396Y-16417222D02*
X10083349Y-16407698D01*
X10197634Y-16321984D02*
X10197634Y-16360079D01*
X10273825Y-16321984D02*
X10273825Y-16360079D01*
X10569063Y-16598174D02*
X10559539Y-16588650D01*
X10559539Y-16588650D02*
X10540491Y-16560079D01*
X10540491Y-16560079D02*
X10530968Y-16541031D01*
X10530968Y-16541031D02*
X10521444Y-16512460D01*
X10521444Y-16512460D02*
X10511920Y-16464841D01*
X10511920Y-16464841D02*
X10511920Y-16426746D01*
X10511920Y-16426746D02*
X10521444Y-16379127D01*
X10521444Y-16379127D02*
X10530968Y-16350555D01*
X10530968Y-16350555D02*
X10540491Y-16331508D01*
X10540491Y-16331508D02*
X10559539Y-16302936D01*
X10559539Y-16302936D02*
X10569063Y-16293412D01*
X10730968Y-16388650D02*
X10730968Y-16521984D01*
X10683349Y-16312460D02*
X10635730Y-16455317D01*
X10635730Y-16455317D02*
X10759539Y-16455317D01*
X10988111Y-16521984D02*
X10988111Y-16321984D01*
X11073825Y-16521984D02*
X11073825Y-16417222D01*
X11073825Y-16417222D02*
X11064301Y-16398174D01*
X11064301Y-16398174D02*
X11045253Y-16388650D01*
X11045253Y-16388650D02*
X11016682Y-16388650D01*
X11016682Y-16388650D02*
X10997634Y-16398174D01*
X10997634Y-16398174D02*
X10988111Y-16407698D01*
X11197634Y-16521984D02*
X11178587Y-16512460D01*
X11178587Y-16512460D02*
X11169063Y-16502936D01*
X11169063Y-16502936D02*
X11159539Y-16483888D01*
X11159539Y-16483888D02*
X11159539Y-16426746D01*
X11159539Y-16426746D02*
X11169063Y-16407698D01*
X11169063Y-16407698D02*
X11178587Y-16398174D01*
X11178587Y-16398174D02*
X11197634Y-16388650D01*
X11197634Y-16388650D02*
X11226206Y-16388650D01*
X11226206Y-16388650D02*
X11245253Y-16398174D01*
X11245253Y-16398174D02*
X11254777Y-16407698D01*
X11254777Y-16407698D02*
X11264301Y-16426746D01*
X11264301Y-16426746D02*
X11264301Y-16483888D01*
X11264301Y-16483888D02*
X11254777Y-16502936D01*
X11254777Y-16502936D02*
X11245253Y-16512460D01*
X11245253Y-16512460D02*
X11226206Y-16521984D01*
X11226206Y-16521984D02*
X11197634Y-16521984D01*
X11378587Y-16521984D02*
X11359539Y-16512460D01*
X11359539Y-16512460D02*
X11350015Y-16493412D01*
X11350015Y-16493412D02*
X11350015Y-16321984D01*
X11530968Y-16512460D02*
X11511920Y-16521984D01*
X11511920Y-16521984D02*
X11473825Y-16521984D01*
X11473825Y-16521984D02*
X11454777Y-16512460D01*
X11454777Y-16512460D02*
X11445253Y-16493412D01*
X11445253Y-16493412D02*
X11445253Y-16417222D01*
X11445253Y-16417222D02*
X11454777Y-16398174D01*
X11454777Y-16398174D02*
X11473825Y-16388650D01*
X11473825Y-16388650D02*
X11511920Y-16388650D01*
X11511920Y-16388650D02*
X11530968Y-16398174D01*
X11530968Y-16398174D02*
X11540491Y-16417222D01*
X11540491Y-16417222D02*
X11540491Y-16436269D01*
X11540491Y-16436269D02*
X11445253Y-16455317D01*
X11616682Y-16512460D02*
X11635730Y-16521984D01*
X11635730Y-16521984D02*
X11673825Y-16521984D01*
X11673825Y-16521984D02*
X11692872Y-16512460D01*
X11692872Y-16512460D02*
X11702396Y-16493412D01*
X11702396Y-16493412D02*
X11702396Y-16483888D01*
X11702396Y-16483888D02*
X11692872Y-16464841D01*
X11692872Y-16464841D02*
X11673825Y-16455317D01*
X11673825Y-16455317D02*
X11645253Y-16455317D01*
X11645253Y-16455317D02*
X11626206Y-16445793D01*
X11626206Y-16445793D02*
X11616682Y-16426746D01*
X11616682Y-16426746D02*
X11616682Y-16417222D01*
X11616682Y-16417222D02*
X11626206Y-16398174D01*
X11626206Y-16398174D02*
X11645253Y-16388650D01*
X11645253Y-16388650D02*
X11673825Y-16388650D01*
X11673825Y-16388650D02*
X11692872Y-16398174D01*
X11769063Y-16598174D02*
X11778587Y-16588650D01*
X11778587Y-16588650D02*
X11797634Y-16560079D01*
X11797634Y-16560079D02*
X11807158Y-16541031D01*
X11807158Y-16541031D02*
X11816682Y-16512460D01*
X11816682Y-16512460D02*
X11826206Y-16464841D01*
X11826206Y-16464841D02*
X11826206Y-16426746D01*
X11826206Y-16426746D02*
X11816682Y-16379127D01*
X11816682Y-16379127D02*
X11807158Y-16350555D01*
X11807158Y-16350555D02*
X11797634Y-16331508D01*
X11797634Y-16331508D02*
X11778587Y-16302936D01*
X11778587Y-16302936D02*
X11769063Y-16293412D01*
X6794000Y-16602500D02*
X6994000Y-16802500D01*
X6994000Y-16602500D02*
X6794000Y-16802500D01*
X6994000Y-16702500D02*
G75*
G02*
X6794000Y-16702500I-100000J0D01*
G01*
X6794000Y-16702500D02*
G75*
G02*
X6994000Y-16702500I100000J0D01*
G01*
X7245253Y-16613031D02*
X7254777Y-16603508D01*
X7254777Y-16603508D02*
X7273824Y-16593984D01*
X7273824Y-16593984D02*
X7321443Y-16593984D01*
X7321443Y-16593984D02*
X7340491Y-16603508D01*
X7340491Y-16603508D02*
X7350015Y-16613031D01*
X7350015Y-16613031D02*
X7359539Y-16632079D01*
X7359539Y-16632079D02*
X7359539Y-16651127D01*
X7359539Y-16651127D02*
X7350015Y-16679698D01*
X7350015Y-16679698D02*
X7235729Y-16793984D01*
X7235729Y-16793984D02*
X7359539Y-16793984D01*
X7445253Y-16774936D02*
X7454777Y-16784460D01*
X7454777Y-16784460D02*
X7445253Y-16793984D01*
X7445253Y-16793984D02*
X7435729Y-16784460D01*
X7435729Y-16784460D02*
X7445253Y-16774936D01*
X7445253Y-16774936D02*
X7445253Y-16793984D01*
X7521443Y-16593984D02*
X7654777Y-16593984D01*
X7654777Y-16593984D02*
X7569062Y-16793984D01*
X7769062Y-16593984D02*
X7788110Y-16593984D01*
X7788110Y-16593984D02*
X7807158Y-16603508D01*
X7807158Y-16603508D02*
X7816682Y-16613031D01*
X7816682Y-16613031D02*
X7826205Y-16632079D01*
X7826205Y-16632079D02*
X7835729Y-16670174D01*
X7835729Y-16670174D02*
X7835729Y-16717793D01*
X7835729Y-16717793D02*
X7826205Y-16755888D01*
X7826205Y-16755888D02*
X7816682Y-16774936D01*
X7816682Y-16774936D02*
X7807158Y-16784460D01*
X7807158Y-16784460D02*
X7788110Y-16793984D01*
X7788110Y-16793984D02*
X7769062Y-16793984D01*
X7769062Y-16793984D02*
X7750015Y-16784460D01*
X7750015Y-16784460D02*
X7740491Y-16774936D01*
X7740491Y-16774936D02*
X7730967Y-16755888D01*
X7730967Y-16755888D02*
X7721443Y-16717793D01*
X7721443Y-16717793D02*
X7721443Y-16670174D01*
X7721443Y-16670174D02*
X7730967Y-16632079D01*
X7730967Y-16632079D02*
X7740491Y-16613031D01*
X7740491Y-16613031D02*
X7750015Y-16603508D01*
X7750015Y-16603508D02*
X7769062Y-16593984D01*
X7959539Y-16593984D02*
X7978586Y-16593984D01*
X7978586Y-16593984D02*
X7997634Y-16603508D01*
X7997634Y-16603508D02*
X8007158Y-16613031D01*
X8007158Y-16613031D02*
X8016682Y-16632079D01*
X8016682Y-16632079D02*
X8026205Y-16670174D01*
X8026205Y-16670174D02*
X8026205Y-16717793D01*
X8026205Y-16717793D02*
X8016682Y-16755888D01*
X8016682Y-16755888D02*
X8007158Y-16774936D01*
X8007158Y-16774936D02*
X7997634Y-16784460D01*
X7997634Y-16784460D02*
X7978586Y-16793984D01*
X7978586Y-16793984D02*
X7959539Y-16793984D01*
X7959539Y-16793984D02*
X7940491Y-16784460D01*
X7940491Y-16784460D02*
X7930967Y-16774936D01*
X7930967Y-16774936D02*
X7921443Y-16755888D01*
X7921443Y-16755888D02*
X7911920Y-16717793D01*
X7911920Y-16717793D02*
X7911920Y-16670174D01*
X7911920Y-16670174D02*
X7921443Y-16632079D01*
X7921443Y-16632079D02*
X7930967Y-16613031D01*
X7930967Y-16613031D02*
X7940491Y-16603508D01*
X7940491Y-16603508D02*
X7959539Y-16593984D01*
X8111920Y-16793984D02*
X8111920Y-16660650D01*
X8111920Y-16679698D02*
X8121443Y-16670174D01*
X8121443Y-16670174D02*
X8140491Y-16660650D01*
X8140491Y-16660650D02*
X8169063Y-16660650D01*
X8169063Y-16660650D02*
X8188110Y-16670174D01*
X8188110Y-16670174D02*
X8197634Y-16689222D01*
X8197634Y-16689222D02*
X8197634Y-16793984D01*
X8197634Y-16689222D02*
X8207158Y-16670174D01*
X8207158Y-16670174D02*
X8226205Y-16660650D01*
X8226205Y-16660650D02*
X8254777Y-16660650D01*
X8254777Y-16660650D02*
X8273824Y-16670174D01*
X8273824Y-16670174D02*
X8283348Y-16689222D01*
X8283348Y-16689222D02*
X8283348Y-16793984D01*
X8378586Y-16793984D02*
X8378586Y-16660650D01*
X8378586Y-16679698D02*
X8388110Y-16670174D01*
X8388110Y-16670174D02*
X8407158Y-16660650D01*
X8407158Y-16660650D02*
X8435729Y-16660650D01*
X8435729Y-16660650D02*
X8454777Y-16670174D01*
X8454777Y-16670174D02*
X8464301Y-16689222D01*
X8464301Y-16689222D02*
X8464301Y-16793984D01*
X8464301Y-16689222D02*
X8473825Y-16670174D01*
X8473825Y-16670174D02*
X8492872Y-16660650D01*
X8492872Y-16660650D02*
X8521444Y-16660650D01*
X8521444Y-16660650D02*
X8540491Y-16670174D01*
X8540491Y-16670174D02*
X8550015Y-16689222D01*
X8550015Y-16689222D02*
X8550015Y-16793984D01*
X8940491Y-16584460D02*
X8769063Y-16841603D01*
X9197634Y-16593984D02*
X9216682Y-16593984D01*
X9216682Y-16593984D02*
X9235729Y-16603508D01*
X9235729Y-16603508D02*
X9245253Y-16613031D01*
X9245253Y-16613031D02*
X9254777Y-16632079D01*
X9254777Y-16632079D02*
X9264301Y-16670174D01*
X9264301Y-16670174D02*
X9264301Y-16717793D01*
X9264301Y-16717793D02*
X9254777Y-16755888D01*
X9254777Y-16755888D02*
X9245253Y-16774936D01*
X9245253Y-16774936D02*
X9235729Y-16784460D01*
X9235729Y-16784460D02*
X9216682Y-16793984D01*
X9216682Y-16793984D02*
X9197634Y-16793984D01*
X9197634Y-16793984D02*
X9178587Y-16784460D01*
X9178587Y-16784460D02*
X9169063Y-16774936D01*
X9169063Y-16774936D02*
X9159539Y-16755888D01*
X9159539Y-16755888D02*
X9150015Y-16717793D01*
X9150015Y-16717793D02*
X9150015Y-16670174D01*
X9150015Y-16670174D02*
X9159539Y-16632079D01*
X9159539Y-16632079D02*
X9169063Y-16613031D01*
X9169063Y-16613031D02*
X9178587Y-16603508D01*
X9178587Y-16603508D02*
X9197634Y-16593984D01*
X9350015Y-16774936D02*
X9359539Y-16784460D01*
X9359539Y-16784460D02*
X9350015Y-16793984D01*
X9350015Y-16793984D02*
X9340491Y-16784460D01*
X9340491Y-16784460D02*
X9350015Y-16774936D01*
X9350015Y-16774936D02*
X9350015Y-16793984D01*
X9550015Y-16793984D02*
X9435729Y-16793984D01*
X9492872Y-16793984D02*
X9492872Y-16593984D01*
X9492872Y-16593984D02*
X9473825Y-16622555D01*
X9473825Y-16622555D02*
X9454777Y-16641603D01*
X9454777Y-16641603D02*
X9435729Y-16651127D01*
X9673825Y-16593984D02*
X9692872Y-16593984D01*
X9692872Y-16593984D02*
X9711920Y-16603508D01*
X9711920Y-16603508D02*
X9721444Y-16613031D01*
X9721444Y-16613031D02*
X9730968Y-16632079D01*
X9730968Y-16632079D02*
X9740491Y-16670174D01*
X9740491Y-16670174D02*
X9740491Y-16717793D01*
X9740491Y-16717793D02*
X9730968Y-16755888D01*
X9730968Y-16755888D02*
X9721444Y-16774936D01*
X9721444Y-16774936D02*
X9711920Y-16784460D01*
X9711920Y-16784460D02*
X9692872Y-16793984D01*
X9692872Y-16793984D02*
X9673825Y-16793984D01*
X9673825Y-16793984D02*
X9654777Y-16784460D01*
X9654777Y-16784460D02*
X9645253Y-16774936D01*
X9645253Y-16774936D02*
X9635729Y-16755888D01*
X9635729Y-16755888D02*
X9626206Y-16717793D01*
X9626206Y-16717793D02*
X9626206Y-16670174D01*
X9626206Y-16670174D02*
X9635729Y-16632079D01*
X9635729Y-16632079D02*
X9645253Y-16613031D01*
X9645253Y-16613031D02*
X9654777Y-16603508D01*
X9654777Y-16603508D02*
X9673825Y-16593984D01*
X9911920Y-16593984D02*
X9873825Y-16593984D01*
X9873825Y-16593984D02*
X9854777Y-16603508D01*
X9854777Y-16603508D02*
X9845253Y-16613031D01*
X9845253Y-16613031D02*
X9826206Y-16641603D01*
X9826206Y-16641603D02*
X9816682Y-16679698D01*
X9816682Y-16679698D02*
X9816682Y-16755888D01*
X9816682Y-16755888D02*
X9826206Y-16774936D01*
X9826206Y-16774936D02*
X9835729Y-16784460D01*
X9835729Y-16784460D02*
X9854777Y-16793984D01*
X9854777Y-16793984D02*
X9892872Y-16793984D01*
X9892872Y-16793984D02*
X9911920Y-16784460D01*
X9911920Y-16784460D02*
X9921444Y-16774936D01*
X9921444Y-16774936D02*
X9930968Y-16755888D01*
X9930968Y-16755888D02*
X9930968Y-16708269D01*
X9930968Y-16708269D02*
X9921444Y-16689222D01*
X9921444Y-16689222D02*
X9911920Y-16679698D01*
X9911920Y-16679698D02*
X9892872Y-16670174D01*
X9892872Y-16670174D02*
X9854777Y-16670174D01*
X9854777Y-16670174D02*
X9835729Y-16679698D01*
X9835729Y-16679698D02*
X9826206Y-16689222D01*
X9826206Y-16689222D02*
X9816682Y-16708269D01*
X9997634Y-16593984D02*
X10121444Y-16593984D01*
X10121444Y-16593984D02*
X10054777Y-16670174D01*
X10054777Y-16670174D02*
X10083349Y-16670174D01*
X10083349Y-16670174D02*
X10102396Y-16679698D01*
X10102396Y-16679698D02*
X10111920Y-16689222D01*
X10111920Y-16689222D02*
X10121444Y-16708269D01*
X10121444Y-16708269D02*
X10121444Y-16755888D01*
X10121444Y-16755888D02*
X10111920Y-16774936D01*
X10111920Y-16774936D02*
X10102396Y-16784460D01*
X10102396Y-16784460D02*
X10083349Y-16793984D01*
X10083349Y-16793984D02*
X10026206Y-16793984D01*
X10026206Y-16793984D02*
X10007158Y-16784460D01*
X10007158Y-16784460D02*
X9997634Y-16774936D01*
X10197634Y-16593984D02*
X10197634Y-16632079D01*
X10273825Y-16593984D02*
X10273825Y-16632079D01*
X10569063Y-16870174D02*
X10559539Y-16860650D01*
X10559539Y-16860650D02*
X10540491Y-16832079D01*
X10540491Y-16832079D02*
X10530968Y-16813031D01*
X10530968Y-16813031D02*
X10521444Y-16784460D01*
X10521444Y-16784460D02*
X10511920Y-16736841D01*
X10511920Y-16736841D02*
X10511920Y-16698746D01*
X10511920Y-16698746D02*
X10521444Y-16651127D01*
X10521444Y-16651127D02*
X10530968Y-16622555D01*
X10530968Y-16622555D02*
X10540491Y-16603508D01*
X10540491Y-16603508D02*
X10559539Y-16574936D01*
X10559539Y-16574936D02*
X10569063Y-16565412D01*
X10635730Y-16613031D02*
X10645253Y-16603508D01*
X10645253Y-16603508D02*
X10664301Y-16593984D01*
X10664301Y-16593984D02*
X10711920Y-16593984D01*
X10711920Y-16593984D02*
X10730968Y-16603508D01*
X10730968Y-16603508D02*
X10740491Y-16613031D01*
X10740491Y-16613031D02*
X10750015Y-16632079D01*
X10750015Y-16632079D02*
X10750015Y-16651127D01*
X10750015Y-16651127D02*
X10740491Y-16679698D01*
X10740491Y-16679698D02*
X10626206Y-16793984D01*
X10626206Y-16793984D02*
X10750015Y-16793984D01*
X10988111Y-16793984D02*
X10988111Y-16593984D01*
X11073825Y-16793984D02*
X11073825Y-16689222D01*
X11073825Y-16689222D02*
X11064301Y-16670174D01*
X11064301Y-16670174D02*
X11045253Y-16660650D01*
X11045253Y-16660650D02*
X11016682Y-16660650D01*
X11016682Y-16660650D02*
X10997634Y-16670174D01*
X10997634Y-16670174D02*
X10988111Y-16679698D01*
X11197634Y-16793984D02*
X11178587Y-16784460D01*
X11178587Y-16784460D02*
X11169063Y-16774936D01*
X11169063Y-16774936D02*
X11159539Y-16755888D01*
X11159539Y-16755888D02*
X11159539Y-16698746D01*
X11159539Y-16698746D02*
X11169063Y-16679698D01*
X11169063Y-16679698D02*
X11178587Y-16670174D01*
X11178587Y-16670174D02*
X11197634Y-16660650D01*
X11197634Y-16660650D02*
X11226206Y-16660650D01*
X11226206Y-16660650D02*
X11245253Y-16670174D01*
X11245253Y-16670174D02*
X11254777Y-16679698D01*
X11254777Y-16679698D02*
X11264301Y-16698746D01*
X11264301Y-16698746D02*
X11264301Y-16755888D01*
X11264301Y-16755888D02*
X11254777Y-16774936D01*
X11254777Y-16774936D02*
X11245253Y-16784460D01*
X11245253Y-16784460D02*
X11226206Y-16793984D01*
X11226206Y-16793984D02*
X11197634Y-16793984D01*
X11378587Y-16793984D02*
X11359539Y-16784460D01*
X11359539Y-16784460D02*
X11350015Y-16765412D01*
X11350015Y-16765412D02*
X11350015Y-16593984D01*
X11530968Y-16784460D02*
X11511920Y-16793984D01*
X11511920Y-16793984D02*
X11473825Y-16793984D01*
X11473825Y-16793984D02*
X11454777Y-16784460D01*
X11454777Y-16784460D02*
X11445253Y-16765412D01*
X11445253Y-16765412D02*
X11445253Y-16689222D01*
X11445253Y-16689222D02*
X11454777Y-16670174D01*
X11454777Y-16670174D02*
X11473825Y-16660650D01*
X11473825Y-16660650D02*
X11511920Y-16660650D01*
X11511920Y-16660650D02*
X11530968Y-16670174D01*
X11530968Y-16670174D02*
X11540491Y-16689222D01*
X11540491Y-16689222D02*
X11540491Y-16708269D01*
X11540491Y-16708269D02*
X11445253Y-16727317D01*
X11616682Y-16784460D02*
X11635730Y-16793984D01*
X11635730Y-16793984D02*
X11673825Y-16793984D01*
X11673825Y-16793984D02*
X11692872Y-16784460D01*
X11692872Y-16784460D02*
X11702396Y-16765412D01*
X11702396Y-16765412D02*
X11702396Y-16755888D01*
X11702396Y-16755888D02*
X11692872Y-16736841D01*
X11692872Y-16736841D02*
X11673825Y-16727317D01*
X11673825Y-16727317D02*
X11645253Y-16727317D01*
X11645253Y-16727317D02*
X11626206Y-16717793D01*
X11626206Y-16717793D02*
X11616682Y-16698746D01*
X11616682Y-16698746D02*
X11616682Y-16689222D01*
X11616682Y-16689222D02*
X11626206Y-16670174D01*
X11626206Y-16670174D02*
X11645253Y-16660650D01*
X11645253Y-16660650D02*
X11673825Y-16660650D01*
X11673825Y-16660650D02*
X11692872Y-16670174D01*
X11769063Y-16870174D02*
X11778587Y-16860650D01*
X11778587Y-16860650D02*
X11797634Y-16832079D01*
X11797634Y-16832079D02*
X11807158Y-16813031D01*
X11807158Y-16813031D02*
X11816682Y-16784460D01*
X11816682Y-16784460D02*
X11826206Y-16736841D01*
X11826206Y-16736841D02*
X11826206Y-16698746D01*
X11826206Y-16698746D02*
X11816682Y-16651127D01*
X11816682Y-16651127D02*
X11807158Y-16622555D01*
X11807158Y-16622555D02*
X11797634Y-16603508D01*
X11797634Y-16603508D02*
X11778587Y-16574936D01*
X11778587Y-16574936D02*
X11769063Y-16565412D01*
X6794000Y-16922500D02*
X6994000Y-17122500D01*
X6994000Y-16922500D02*
X6794000Y-17122500D01*
X6894000Y-16922500D02*
X6894000Y-17122500D01*
X6794000Y-17022500D02*
X6994000Y-17022500D01*
X7340491Y-16980650D02*
X7340491Y-17113984D01*
X7292872Y-16904460D02*
X7245253Y-17047317D01*
X7245253Y-17047317D02*
X7369062Y-17047317D01*
X7445253Y-17094936D02*
X7454777Y-17104460D01*
X7454777Y-17104460D02*
X7445253Y-17113984D01*
X7445253Y-17113984D02*
X7435729Y-17104460D01*
X7435729Y-17104460D02*
X7445253Y-17094936D01*
X7445253Y-17094936D02*
X7445253Y-17113984D01*
X7635729Y-16913984D02*
X7540491Y-16913984D01*
X7540491Y-16913984D02*
X7530967Y-17009222D01*
X7530967Y-17009222D02*
X7540491Y-16999698D01*
X7540491Y-16999698D02*
X7559539Y-16990174D01*
X7559539Y-16990174D02*
X7607158Y-16990174D01*
X7607158Y-16990174D02*
X7626205Y-16999698D01*
X7626205Y-16999698D02*
X7635729Y-17009222D01*
X7635729Y-17009222D02*
X7645253Y-17028270D01*
X7645253Y-17028270D02*
X7645253Y-17075889D01*
X7645253Y-17075889D02*
X7635729Y-17094936D01*
X7635729Y-17094936D02*
X7626205Y-17104460D01*
X7626205Y-17104460D02*
X7607158Y-17113984D01*
X7607158Y-17113984D02*
X7559539Y-17113984D01*
X7559539Y-17113984D02*
X7540491Y-17104460D01*
X7540491Y-17104460D02*
X7530967Y-17094936D01*
X7769062Y-16913984D02*
X7788110Y-16913984D01*
X7788110Y-16913984D02*
X7807158Y-16923508D01*
X7807158Y-16923508D02*
X7816682Y-16933031D01*
X7816682Y-16933031D02*
X7826205Y-16952079D01*
X7826205Y-16952079D02*
X7835729Y-16990174D01*
X7835729Y-16990174D02*
X7835729Y-17037793D01*
X7835729Y-17037793D02*
X7826205Y-17075889D01*
X7826205Y-17075889D02*
X7816682Y-17094936D01*
X7816682Y-17094936D02*
X7807158Y-17104460D01*
X7807158Y-17104460D02*
X7788110Y-17113984D01*
X7788110Y-17113984D02*
X7769062Y-17113984D01*
X7769062Y-17113984D02*
X7750015Y-17104460D01*
X7750015Y-17104460D02*
X7740491Y-17094936D01*
X7740491Y-17094936D02*
X7730967Y-17075889D01*
X7730967Y-17075889D02*
X7721443Y-17037793D01*
X7721443Y-17037793D02*
X7721443Y-16990174D01*
X7721443Y-16990174D02*
X7730967Y-16952079D01*
X7730967Y-16952079D02*
X7740491Y-16933031D01*
X7740491Y-16933031D02*
X7750015Y-16923508D01*
X7750015Y-16923508D02*
X7769062Y-16913984D01*
X7959539Y-16913984D02*
X7978586Y-16913984D01*
X7978586Y-16913984D02*
X7997634Y-16923508D01*
X7997634Y-16923508D02*
X8007158Y-16933031D01*
X8007158Y-16933031D02*
X8016682Y-16952079D01*
X8016682Y-16952079D02*
X8026205Y-16990174D01*
X8026205Y-16990174D02*
X8026205Y-17037793D01*
X8026205Y-17037793D02*
X8016682Y-17075889D01*
X8016682Y-17075889D02*
X8007158Y-17094936D01*
X8007158Y-17094936D02*
X7997634Y-17104460D01*
X7997634Y-17104460D02*
X7978586Y-17113984D01*
X7978586Y-17113984D02*
X7959539Y-17113984D01*
X7959539Y-17113984D02*
X7940491Y-17104460D01*
X7940491Y-17104460D02*
X7930967Y-17094936D01*
X7930967Y-17094936D02*
X7921443Y-17075889D01*
X7921443Y-17075889D02*
X7911920Y-17037793D01*
X7911920Y-17037793D02*
X7911920Y-16990174D01*
X7911920Y-16990174D02*
X7921443Y-16952079D01*
X7921443Y-16952079D02*
X7930967Y-16933031D01*
X7930967Y-16933031D02*
X7940491Y-16923508D01*
X7940491Y-16923508D02*
X7959539Y-16913984D01*
X8111920Y-17113984D02*
X8111920Y-16980650D01*
X8111920Y-16999698D02*
X8121443Y-16990174D01*
X8121443Y-16990174D02*
X8140491Y-16980650D01*
X8140491Y-16980650D02*
X8169063Y-16980650D01*
X8169063Y-16980650D02*
X8188110Y-16990174D01*
X8188110Y-16990174D02*
X8197634Y-17009222D01*
X8197634Y-17009222D02*
X8197634Y-17113984D01*
X8197634Y-17009222D02*
X8207158Y-16990174D01*
X8207158Y-16990174D02*
X8226205Y-16980650D01*
X8226205Y-16980650D02*
X8254777Y-16980650D01*
X8254777Y-16980650D02*
X8273824Y-16990174D01*
X8273824Y-16990174D02*
X8283348Y-17009222D01*
X8283348Y-17009222D02*
X8283348Y-17113984D01*
X8378586Y-17113984D02*
X8378586Y-16980650D01*
X8378586Y-16999698D02*
X8388110Y-16990174D01*
X8388110Y-16990174D02*
X8407158Y-16980650D01*
X8407158Y-16980650D02*
X8435729Y-16980650D01*
X8435729Y-16980650D02*
X8454777Y-16990174D01*
X8454777Y-16990174D02*
X8464301Y-17009222D01*
X8464301Y-17009222D02*
X8464301Y-17113984D01*
X8464301Y-17009222D02*
X8473825Y-16990174D01*
X8473825Y-16990174D02*
X8492872Y-16980650D01*
X8492872Y-16980650D02*
X8521444Y-16980650D01*
X8521444Y-16980650D02*
X8540491Y-16990174D01*
X8540491Y-16990174D02*
X8550015Y-17009222D01*
X8550015Y-17009222D02*
X8550015Y-17113984D01*
X8940491Y-16904460D02*
X8769063Y-17161603D01*
X9197634Y-16913984D02*
X9216682Y-16913984D01*
X9216682Y-16913984D02*
X9235729Y-16923508D01*
X9235729Y-16923508D02*
X9245253Y-16933031D01*
X9245253Y-16933031D02*
X9254777Y-16952079D01*
X9254777Y-16952079D02*
X9264301Y-16990174D01*
X9264301Y-16990174D02*
X9264301Y-17037793D01*
X9264301Y-17037793D02*
X9254777Y-17075889D01*
X9254777Y-17075889D02*
X9245253Y-17094936D01*
X9245253Y-17094936D02*
X9235729Y-17104460D01*
X9235729Y-17104460D02*
X9216682Y-17113984D01*
X9216682Y-17113984D02*
X9197634Y-17113984D01*
X9197634Y-17113984D02*
X9178587Y-17104460D01*
X9178587Y-17104460D02*
X9169063Y-17094936D01*
X9169063Y-17094936D02*
X9159539Y-17075889D01*
X9159539Y-17075889D02*
X9150015Y-17037793D01*
X9150015Y-17037793D02*
X9150015Y-16990174D01*
X9150015Y-16990174D02*
X9159539Y-16952079D01*
X9159539Y-16952079D02*
X9169063Y-16933031D01*
X9169063Y-16933031D02*
X9178587Y-16923508D01*
X9178587Y-16923508D02*
X9197634Y-16913984D01*
X9350015Y-17094936D02*
X9359539Y-17104460D01*
X9359539Y-17104460D02*
X9350015Y-17113984D01*
X9350015Y-17113984D02*
X9340491Y-17104460D01*
X9340491Y-17104460D02*
X9350015Y-17094936D01*
X9350015Y-17094936D02*
X9350015Y-17113984D01*
X9550015Y-17113984D02*
X9435729Y-17113984D01*
X9492872Y-17113984D02*
X9492872Y-16913984D01*
X9492872Y-16913984D02*
X9473825Y-16942555D01*
X9473825Y-16942555D02*
X9454777Y-16961603D01*
X9454777Y-16961603D02*
X9435729Y-16971127D01*
X9616682Y-16913984D02*
X9750015Y-16913984D01*
X9750015Y-16913984D02*
X9664301Y-17113984D01*
X9807158Y-16913984D02*
X9940491Y-16913984D01*
X9940491Y-16913984D02*
X9854777Y-17113984D01*
X10007158Y-16933031D02*
X10016682Y-16923508D01*
X10016682Y-16923508D02*
X10035729Y-16913984D01*
X10035729Y-16913984D02*
X10083349Y-16913984D01*
X10083349Y-16913984D02*
X10102396Y-16923508D01*
X10102396Y-16923508D02*
X10111920Y-16933031D01*
X10111920Y-16933031D02*
X10121444Y-16952079D01*
X10121444Y-16952079D02*
X10121444Y-16971127D01*
X10121444Y-16971127D02*
X10111920Y-16999698D01*
X10111920Y-16999698D02*
X9997634Y-17113984D01*
X9997634Y-17113984D02*
X10121444Y-17113984D01*
X10197634Y-16913984D02*
X10197634Y-16952079D01*
X10273825Y-16913984D02*
X10273825Y-16952079D01*
X10569063Y-17190174D02*
X10559539Y-17180650D01*
X10559539Y-17180650D02*
X10540491Y-17152079D01*
X10540491Y-17152079D02*
X10530968Y-17133031D01*
X10530968Y-17133031D02*
X10521444Y-17104460D01*
X10521444Y-17104460D02*
X10511920Y-17056841D01*
X10511920Y-17056841D02*
X10511920Y-17018746D01*
X10511920Y-17018746D02*
X10521444Y-16971127D01*
X10521444Y-16971127D02*
X10530968Y-16942555D01*
X10530968Y-16942555D02*
X10540491Y-16923508D01*
X10540491Y-16923508D02*
X10559539Y-16894936D01*
X10559539Y-16894936D02*
X10569063Y-16885412D01*
X10635730Y-16933031D02*
X10645253Y-16923508D01*
X10645253Y-16923508D02*
X10664301Y-16913984D01*
X10664301Y-16913984D02*
X10711920Y-16913984D01*
X10711920Y-16913984D02*
X10730968Y-16923508D01*
X10730968Y-16923508D02*
X10740491Y-16933031D01*
X10740491Y-16933031D02*
X10750015Y-16952079D01*
X10750015Y-16952079D02*
X10750015Y-16971127D01*
X10750015Y-16971127D02*
X10740491Y-16999698D01*
X10740491Y-16999698D02*
X10626206Y-17113984D01*
X10626206Y-17113984D02*
X10750015Y-17113984D01*
X10988111Y-17113984D02*
X10988111Y-16913984D01*
X11073825Y-17113984D02*
X11073825Y-17009222D01*
X11073825Y-17009222D02*
X11064301Y-16990174D01*
X11064301Y-16990174D02*
X11045253Y-16980650D01*
X11045253Y-16980650D02*
X11016682Y-16980650D01*
X11016682Y-16980650D02*
X10997634Y-16990174D01*
X10997634Y-16990174D02*
X10988111Y-16999698D01*
X11197634Y-17113984D02*
X11178587Y-17104460D01*
X11178587Y-17104460D02*
X11169063Y-17094936D01*
X11169063Y-17094936D02*
X11159539Y-17075889D01*
X11159539Y-17075889D02*
X11159539Y-17018746D01*
X11159539Y-17018746D02*
X11169063Y-16999698D01*
X11169063Y-16999698D02*
X11178587Y-16990174D01*
X11178587Y-16990174D02*
X11197634Y-16980650D01*
X11197634Y-16980650D02*
X11226206Y-16980650D01*
X11226206Y-16980650D02*
X11245253Y-16990174D01*
X11245253Y-16990174D02*
X11254777Y-16999698D01*
X11254777Y-16999698D02*
X11264301Y-17018746D01*
X11264301Y-17018746D02*
X11264301Y-17075889D01*
X11264301Y-17075889D02*
X11254777Y-17094936D01*
X11254777Y-17094936D02*
X11245253Y-17104460D01*
X11245253Y-17104460D02*
X11226206Y-17113984D01*
X11226206Y-17113984D02*
X11197634Y-17113984D01*
X11378587Y-17113984D02*
X11359539Y-17104460D01*
X11359539Y-17104460D02*
X11350015Y-17085412D01*
X11350015Y-17085412D02*
X11350015Y-16913984D01*
X11530968Y-17104460D02*
X11511920Y-17113984D01*
X11511920Y-17113984D02*
X11473825Y-17113984D01*
X11473825Y-17113984D02*
X11454777Y-17104460D01*
X11454777Y-17104460D02*
X11445253Y-17085412D01*
X11445253Y-17085412D02*
X11445253Y-17009222D01*
X11445253Y-17009222D02*
X11454777Y-16990174D01*
X11454777Y-16990174D02*
X11473825Y-16980650D01*
X11473825Y-16980650D02*
X11511920Y-16980650D01*
X11511920Y-16980650D02*
X11530968Y-16990174D01*
X11530968Y-16990174D02*
X11540491Y-17009222D01*
X11540491Y-17009222D02*
X11540491Y-17028270D01*
X11540491Y-17028270D02*
X11445253Y-17047317D01*
X11616682Y-17104460D02*
X11635730Y-17113984D01*
X11635730Y-17113984D02*
X11673825Y-17113984D01*
X11673825Y-17113984D02*
X11692872Y-17104460D01*
X11692872Y-17104460D02*
X11702396Y-17085412D01*
X11702396Y-17085412D02*
X11702396Y-17075889D01*
X11702396Y-17075889D02*
X11692872Y-17056841D01*
X11692872Y-17056841D02*
X11673825Y-17047317D01*
X11673825Y-17047317D02*
X11645253Y-17047317D01*
X11645253Y-17047317D02*
X11626206Y-17037793D01*
X11626206Y-17037793D02*
X11616682Y-17018746D01*
X11616682Y-17018746D02*
X11616682Y-17009222D01*
X11616682Y-17009222D02*
X11626206Y-16990174D01*
X11626206Y-16990174D02*
X11645253Y-16980650D01*
X11645253Y-16980650D02*
X11673825Y-16980650D01*
X11673825Y-16980650D02*
X11692872Y-16990174D01*
X11769063Y-17190174D02*
X11778587Y-17180650D01*
X11778587Y-17180650D02*
X11797634Y-17152079D01*
X11797634Y-17152079D02*
X11807158Y-17133031D01*
X11807158Y-17133031D02*
X11816682Y-17104460D01*
X11816682Y-17104460D02*
X11826206Y-17056841D01*
X11826206Y-17056841D02*
X11826206Y-17018746D01*
X11826206Y-17018746D02*
X11816682Y-16971127D01*
X11816682Y-16971127D02*
X11807158Y-16942555D01*
X11807158Y-16942555D02*
X11797634Y-16923508D01*
X11797634Y-16923508D02*
X11778587Y-16894936D01*
X11778587Y-16894936D02*
X11769063Y-16885412D01*
M02*
