M48
; DRILL file {KiCad 8.0.2-rc1} date 2024-12-09T19:43:00+0100
; FORMAT={-:-/ absolute / inch / decimal}
; #@! TF.CreationDate,2024-12-09T19:43:00+01:00
; #@! TF.GenerationSoftware,Kicad,Pcbnew,8.0.2-rc1
; #@! TF.FileFunction,Plated,1,2,PTH
FMAT,2
INCH
; #@! TA.AperFunction,Plated,PTH,ViaDrill
T1C0.0118
; #@! TA.AperFunction,Plated,PTH,ComponentDrill
T2C0.0315
; #@! TA.AperFunction,Plated,PTH,ComponentDrill
T3C0.0374
; #@! TA.AperFunction,Plated,PTH,ComponentDrill
T4C0.0394
; #@! TA.AperFunction,Plated,PTH,ComponentDrill
T5C0.0598
; #@! TA.AperFunction,Plated,PTH,ComponentDrill
T6C0.1063
; #@! TA.AperFunction,Plated,PTH,ComponentDrill
T7C0.1772
%
G90
G05
T1
X3.29Y-4.91
X3.29Y-4.935
X3.29Y-4.96
X3.32Y-4.91
X3.32Y-4.935
X3.32Y-4.96
X3.3425Y-4.2425
X3.35Y-4.91
X3.35Y-4.935
X3.35Y-4.96
X3.425Y-1.9426
X3.6Y-1.645
X3.6Y-1.825
X3.66Y-2.46
X3.76Y-1.65
X3.76Y-1.825
X3.885Y-2.46
X3.92Y-1.65
X3.92Y-1.825
X4.0344Y-4.5744
X4.04Y-4.24
X4.04Y-4.42
X4.186Y-2.311
X4.44Y-4.96
X4.445Y-2.905
X4.4636Y-4.9317
X4.655Y-2.7951
X4.7055Y-4.3085
X4.7157Y-4.2436
X4.76Y-4.22
X4.78Y-1.685
X4.78Y-1.815
X4.81Y-1.815
X4.815Y-1.685
X5.2934Y-4.2564
X5.31Y-1.81
X5.32Y-1.33
X5.36Y-1.33
X5.36Y-4.2564
X5.3609Y-1.975
X5.38Y-2.7
X5.4Y-1.33
X5.4Y-1.6
X5.5Y-1.82
X5.575Y-1.6
X5.61Y-1.9415
X5.62Y-1.82
X5.65Y-2.88
X5.66Y-1.52
X5.7Y-1.575
X5.725Y-1.6
X5.735Y-2.84
X5.76Y-1.83
X5.83Y-4.54
X6.045Y-1.685
X6.045Y-1.835
X6.075Y-1.685
X6.075Y-1.835
X6.1Y-1.98
X6.105Y-1.685
X6.105Y-1.835
X6.135Y-1.685
X6.135Y-1.835
X6.145Y-4.535
X6.145Y-4.565
X6.175Y-4.535
X6.175Y-4.565
X6.39Y-4.91
X6.465Y-4.85
X6.5Y-4.85
X6.6Y-1.575
X6.6Y-1.615
X6.645Y-5.095
X6.645Y-5.13
X6.65Y-1.575
X6.65Y-1.615
X6.675Y-5.095
X6.675Y-5.13
X6.69Y-2.72
X6.69Y-2.82
X6.9325Y-3.1525
X6.9495Y-4.39
X6.95Y-4.15
X6.96Y-2.88
X6.96Y-4.6
X6.9815Y-2.08
X6.9836Y-3.0398
X7.0Y-2.17
X7.02Y-4.21
X7.04Y-1.515
X7.055Y-1.54
X7.06Y-4.94
X7.1433Y-2.7767
X7.1607Y-1.8193
X7.18Y-2.98
X7.1967Y-2.8754
X7.2111Y-2.9332
X7.2615Y-1.8785
X7.395Y-2.925
X7.405Y-2.9888
X7.41Y-2.895
X7.4591Y-2.14
X7.4646Y-2.0912
X7.4917Y-4.5333
X7.54Y-4.54
T2
X4.9126Y-1.9374
X4.9126Y-2.0374
X5.0126Y-1.9374
X5.0126Y-2.0374
X7.3392Y-1.46
X7.34Y-1.36
X7.4392Y-1.46
X7.44Y-1.36
T3
X4.3547Y-5.125
X4.3547Y-5.475
X4.4531Y-5.125
X4.4531Y-5.475
X4.5516Y-5.125
X4.5516Y-5.475
X4.65Y-5.125
X4.65Y-5.475
X4.925Y-5.125
X4.925Y-5.475
X5.0234Y-5.125
X5.0234Y-5.475
X5.1219Y-5.125
X5.1219Y-5.475
X5.2203Y-5.125
X5.2203Y-5.475
X5.575Y-5.125
X5.575Y-5.475
X5.6734Y-5.125
X5.6734Y-5.475
X5.7719Y-5.125
X5.7719Y-5.475
X5.8703Y-5.125
X5.8703Y-5.475
X6.1797Y-5.475
X6.18Y-5.125
X6.2781Y-5.475
X6.2784Y-5.125
X6.315Y-1.4508
X6.3216Y-1.84
X6.3766Y-5.475
X6.3769Y-5.125
X6.4134Y-1.4508
X6.42Y-1.84
X6.475Y-5.475
X6.4753Y-5.125
X6.5119Y-1.4508
X6.5184Y-1.84
X6.6103Y-1.4508
X6.6169Y-1.84
X6.7087Y-1.4508
X6.7153Y-1.84
X6.8071Y-1.4508
X6.8137Y-1.84
X6.8313Y-5.125
X6.8313Y-5.475
X6.9056Y-1.4508
X6.9121Y-1.84
X6.9297Y-5.125
X6.9297Y-5.475
X7.004Y-1.4508
X7.0106Y-1.84
X7.0281Y-5.125
X7.0281Y-5.475
X7.1266Y-5.125
X7.1266Y-5.475
X7.225Y-5.125
X7.225Y-5.475
X7.3234Y-5.125
X7.3234Y-5.475
X7.4219Y-5.125
X7.4219Y-5.475
X7.5203Y-5.125
X7.5203Y-5.475
X7.6187Y-5.125
X7.6187Y-5.475
X7.7171Y-5.125
X7.7171Y-5.475
X7.9043Y-1.7
X7.9043Y-1.7984
X7.9043Y-1.8969
T4
X2.9Y-1.875
X3.1992Y-1.875
X3.2998Y-2.25
X3.2998Y-4.75
X3.3998Y-2.25
X3.3998Y-4.75
X3.525Y-1.915
X3.685Y-1.915
X3.84Y-1.915
X4.015Y-1.915
X4.3Y-1.92
X4.3998Y-4.65
X4.3998Y-4.75
X4.4Y-1.92
X4.4006Y-2.25
X4.4006Y-2.35
X4.4398Y-2.55
X4.4398Y-2.65
X4.4998Y-4.65
X4.4998Y-4.75
X4.5Y-1.92
X4.5006Y-2.25
X4.5006Y-2.35
X4.5398Y-2.55
X4.5398Y-2.65
X4.5998Y-4.65
X4.5998Y-4.75
X4.6Y-1.92
X4.6006Y-2.25
X4.6006Y-2.35
X4.6398Y-2.55
X4.6398Y-2.65
X4.6998Y-4.65
X4.6998Y-4.75
X4.7006Y-2.25
X4.7006Y-2.35
X4.7398Y-2.55
X4.7398Y-2.65
X4.7998Y-4.35
X4.7998Y-4.45
X4.7998Y-4.65
X4.7998Y-4.75
X4.8006Y-2.25
X4.8006Y-2.35
X4.8398Y-2.55
X4.8398Y-2.65
X4.8998Y-4.35
X4.8998Y-4.45
X4.8998Y-4.65
X4.8998Y-4.75
X4.9006Y-2.25
X4.9006Y-2.35
X4.9398Y-2.55
X4.9398Y-2.65
X4.9998Y-4.35
X4.9998Y-4.45
X4.9998Y-4.65
X4.9998Y-4.75
X5.0006Y-2.25
X5.0006Y-2.35
X5.0398Y-2.55
X5.0398Y-2.65
X5.0998Y-4.35
X5.0998Y-4.45
X5.0998Y-4.65
X5.0998Y-4.75
X5.1006Y-2.25
X5.1006Y-2.35
X5.1398Y-2.55
X5.1398Y-2.65
X5.1998Y-4.35
X5.1998Y-4.45
X5.1998Y-4.65
X5.1998Y-4.75
X5.2006Y-2.25
X5.2006Y-2.35
X5.2398Y-2.55
X5.2398Y-2.65
X5.265Y-1.4
X5.265Y-1.9
X5.2998Y-4.35
X5.2998Y-4.45
X5.2998Y-4.65
X5.2998Y-4.75
X5.3006Y-2.25
X5.3006Y-2.35
X5.3398Y-2.55
X5.3398Y-2.65
X5.365Y-1.4
X5.365Y-1.9
X5.3998Y-4.35
X5.3998Y-4.45
X5.3998Y-4.65
X5.3998Y-4.75
X5.4006Y-2.25
X5.4006Y-2.35
X5.465Y-1.4
X5.465Y-1.9
X5.4998Y-2.55
X5.4998Y-2.65
X5.4998Y-4.35
X5.4998Y-4.45
X5.4998Y-4.65
X5.4998Y-4.75
X5.5006Y-2.25
X5.5006Y-2.35
X5.565Y-1.4
X5.565Y-1.9
X5.5998Y-2.55
X5.5998Y-2.65
X5.5998Y-4.65
X5.5998Y-4.75
X5.6006Y-2.25
X5.6006Y-2.35
X5.665Y-1.4
X5.665Y-1.9
X5.6998Y-2.55
X5.6998Y-2.65
X5.6998Y-4.35
X5.6998Y-4.45
X5.6998Y-4.65
X5.6998Y-4.75
X5.7006Y-2.25
X5.7006Y-2.35
X5.765Y-1.4
X5.765Y-1.9
X5.7998Y-2.55
X5.7998Y-2.65
X5.7998Y-4.35
X5.7998Y-4.45
X5.7998Y-4.65
X5.7998Y-4.75
X5.8006Y-2.25
X5.8006Y-2.35
X5.865Y-1.4
X5.865Y-1.9
X5.8998Y-2.55
X5.8998Y-2.65
X5.8998Y-4.35
X5.8998Y-4.45
X5.8998Y-4.65
X5.8998Y-4.75
X5.9006Y-2.25
X5.9006Y-2.35
X5.965Y-1.4
X5.965Y-1.9
X5.9998Y-2.55
X5.9998Y-2.65
X5.9998Y-4.35
X5.9998Y-4.45
X5.9998Y-4.65
X5.9998Y-4.75
X6.0006Y-2.25
X6.0006Y-2.35
X6.0998Y-2.55
X6.0998Y-2.65
X6.0998Y-4.35
X6.0998Y-4.45
X6.0998Y-4.65
X6.0998Y-4.75
X6.1006Y-2.25
X6.1006Y-2.35
X6.1998Y-2.55
X6.1998Y-2.65
X6.1998Y-4.35
X6.1998Y-4.45
X6.1998Y-4.65
X6.1998Y-4.75
X6.2006Y-2.25
X6.2006Y-2.35
X6.2998Y-2.55
X6.2998Y-2.65
X6.2998Y-4.35
X6.2998Y-4.45
X6.2998Y-4.65
X6.2998Y-4.75
X6.3006Y-2.25
X6.3006Y-2.35
X6.3998Y-2.55
X6.3998Y-2.65
X6.3998Y-4.35
X6.3998Y-4.45
X6.3998Y-4.65
X6.3998Y-4.75
X6.4006Y-2.25
X6.4006Y-2.35
X6.4998Y-2.55
X6.4998Y-2.65
X6.4998Y-4.35
X6.4998Y-4.45
X6.4998Y-4.65
X6.4998Y-4.75
X6.5006Y-2.25
X6.5006Y-2.35
X6.5998Y-2.55
X6.5998Y-2.65
X6.5998Y-4.35
X6.5998Y-4.45
X6.5998Y-4.65
X6.5998Y-4.75
X6.6006Y-2.25
X6.6006Y-2.35
X6.6998Y-2.55
X6.6998Y-2.65
X6.6998Y-4.35
X6.6998Y-4.45
X6.6998Y-4.65
X6.6998Y-4.75
X6.7006Y-2.25
X6.7006Y-2.35
X6.7998Y-2.55
X6.7998Y-2.65
X6.7998Y-4.35
X6.7998Y-4.45
X6.7998Y-4.65
X6.7998Y-4.75
X6.8006Y-2.25
X6.8006Y-2.35
X6.8998Y-2.55
X6.8998Y-2.65
X6.8998Y-4.35
X6.8998Y-4.45
X6.8998Y-4.65
X6.8998Y-4.75
X6.9006Y-2.25
X6.9006Y-2.35
X6.9998Y-2.55
X6.9998Y-2.65
X6.9998Y-4.35
X6.9998Y-4.45
X6.9998Y-4.65
X6.9998Y-4.75
X7.0006Y-2.25
X7.0006Y-2.35
X7.0998Y-2.55
X7.0998Y-2.65
X7.0998Y-4.35
X7.0998Y-4.45
X7.0998Y-4.65
X7.0998Y-4.75
X7.1006Y-2.25
X7.1006Y-2.35
X7.1998Y-4.65
X7.1998Y-4.75
X7.2006Y-2.25
X7.2006Y-2.35
X7.2998Y-4.65
X7.2998Y-4.75
X7.3006Y-2.25
X7.3006Y-2.35
X7.3998Y-4.65
X7.3998Y-4.75
X7.4006Y-2.25
X7.4006Y-2.35
X7.4998Y-4.65
X7.4998Y-4.75
X7.5006Y-2.25
X7.5006Y-2.35
X7.5998Y-4.65
X7.5998Y-4.75
X7.6006Y-2.25
X7.6006Y-2.35
X7.6998Y-4.65
X7.6998Y-4.75
X7.7006Y-2.25
X7.7006Y-2.35
X7.7998Y-4.65
X7.7998Y-4.75
X7.8006Y-2.25
X7.8006Y-2.35
X7.8998Y-4.65
X7.8998Y-4.75
X7.9006Y-2.25
X7.9006Y-2.35
T5
X4.34Y-1.5
X4.54Y-1.5
X4.815Y-1.5
X5.015Y-1.5
T6
X3.95Y-5.2
X3.95Y-5.3969
T7
X3.475Y-5.15
X3.475Y-5.4335
M30
