%TF.GenerationSoftware,KiCad,Pcbnew,8.0.2-rc1*%
%TF.CreationDate,2024-12-09T19:43:04+01:00*%
%TF.ProjectId,Carte-Principale,43617274-652d-4507-9269-6e636970616c,rev?*%
%TF.SameCoordinates,Original*%
%TF.FileFunction,Paste,Bot*%
%TF.FilePolarity,Positive*%
%FSLAX46Y46*%
G04 Gerber Fmt 4.6, Leading zero omitted, Abs format (unit mm)*
G04 Created by KiCad (PCBNEW 8.0.2-rc1) date 2024-12-09 19:43:04*
%MOMM*%
%LPD*%
G01*
G04 APERTURE LIST*
G04 Aperture macros list*
%AMRoundRect*
0 Rectangle with rounded corners*
0 $1 Rounding radius*
0 $2 $3 $4 $5 $6 $7 $8 $9 X,Y pos of 4 corners*
0 Add a 4 corners polygon primitive as box body*
4,1,4,$2,$3,$4,$5,$6,$7,$8,$9,$2,$3,0*
0 Add four circle primitives for the rounded corners*
1,1,$1+$1,$2,$3*
1,1,$1+$1,$4,$5*
1,1,$1+$1,$6,$7*
1,1,$1+$1,$8,$9*
0 Add four rect primitives between the rounded corners*
20,1,$1+$1,$2,$3,$4,$5,0*
20,1,$1+$1,$4,$5,$6,$7,0*
20,1,$1+$1,$6,$7,$8,$9,0*
20,1,$1+$1,$8,$9,$2,$3,0*%
G04 Aperture macros list end*
%ADD10C,0.200000*%
%ADD11RoundRect,0.100000X0.100000X-0.650000X0.100000X0.650000X-0.100000X0.650000X-0.100000X-0.650000X0*%
%ADD12RoundRect,0.250000X1.075000X-0.400000X1.075000X0.400000X-1.075000X0.400000X-1.075000X-0.400000X0*%
%ADD13RoundRect,0.250000X0.400000X1.075000X-0.400000X1.075000X-0.400000X-1.075000X0.400000X-1.075000X0*%
%ADD14RoundRect,0.250000X0.412500X1.100000X-0.412500X1.100000X-0.412500X-1.100000X0.412500X-1.100000X0*%
%ADD15RoundRect,0.250000X1.100000X-0.412500X1.100000X0.412500X-1.100000X0.412500X-1.100000X-0.412500X0*%
%ADD16RoundRect,0.150000X0.825000X0.150000X-0.825000X0.150000X-0.825000X-0.150000X0.825000X-0.150000X0*%
%ADD17RoundRect,0.250000X-0.400000X-1.075000X0.400000X-1.075000X0.400000X1.075000X-0.400000X1.075000X0*%
G04 APERTURE END LIST*
D10*
X85249000Y-29845000D02*
X101949000Y-29845000D01*
X101949000Y-35245000D01*
X85249000Y-35245000D01*
X85249000Y-29845000D01*
G36*
X85249000Y-29845000D02*
G01*
X101949000Y-29845000D01*
X101949000Y-35245000D01*
X85249000Y-35245000D01*
X85249000Y-29845000D01*
G37*
D11*
%TO.C,U6*%
X147320000Y-44510000D03*
X146670000Y-44510000D03*
X146020000Y-44510000D03*
X146020000Y-41850000D03*
X146670000Y-41850000D03*
X147320000Y-41850000D03*
%TD*%
%TO.C,U4*%
X137810000Y-44510000D03*
X137160000Y-44510000D03*
X136510000Y-44510000D03*
X136510000Y-41850000D03*
X137160000Y-41850000D03*
X137810000Y-41850000D03*
%TD*%
D12*
%TO.C,R31*%
X137160000Y-106224000D03*
X137160000Y-103124000D03*
%TD*%
%TO.C,R32*%
X133604000Y-106224000D03*
X133604000Y-103124000D03*
%TD*%
D13*
%TO.C,R27*%
X185680000Y-43180000D03*
X182580000Y-43180000D03*
%TD*%
D14*
%TO.C,C7*%
X174790500Y-72136000D03*
X171665500Y-72136000D03*
%TD*%
D15*
%TO.C,C5*%
X139700000Y-54610000D03*
X139700000Y-51485000D03*
%TD*%
D11*
%TO.C,U7*%
X144160000Y-44510000D03*
X143510000Y-44510000D03*
X142860000Y-44510000D03*
X142860000Y-41850000D03*
X143510000Y-41850000D03*
X144160000Y-41850000D03*
%TD*%
D15*
%TO.C,C3*%
X132080000Y-54610000D03*
X132080000Y-51485000D03*
%TD*%
D16*
%TO.C,U3*%
X185798000Y-72080000D03*
X185798000Y-73350000D03*
X185798000Y-74620000D03*
X185798000Y-75890000D03*
X185798000Y-77160000D03*
X185798000Y-78430000D03*
X185798000Y-79700000D03*
X185798000Y-80970000D03*
X180848000Y-80970000D03*
X180848000Y-79700000D03*
X180848000Y-78430000D03*
X180848000Y-77160000D03*
X180848000Y-75890000D03*
X180848000Y-74620000D03*
X180848000Y-73350000D03*
X180848000Y-72080000D03*
%TD*%
D11*
%TO.C,U5*%
X140985000Y-44510000D03*
X140335000Y-44510000D03*
X139685000Y-44510000D03*
X139685000Y-41850000D03*
X140335000Y-41850000D03*
X140985000Y-41850000D03*
%TD*%
D15*
%TO.C,C4*%
X135890000Y-54610000D03*
X135890000Y-51485000D03*
%TD*%
%TO.C,C6*%
X143510000Y-54610000D03*
X143510000Y-51485000D03*
%TD*%
D17*
%TO.C,R28*%
X190080000Y-43430000D03*
X193180000Y-43430000D03*
%TD*%
%TO.C,R29*%
X182830000Y-48430000D03*
X185930000Y-48430000D03*
%TD*%
D12*
%TO.C,R34*%
X144272000Y-106254000D03*
X144272000Y-103154000D03*
%TD*%
%TO.C,R33*%
X140716000Y-106224000D03*
X140716000Y-103124000D03*
%TD*%
D13*
%TO.C,R30*%
X193180000Y-48510000D03*
X190080000Y-48510000D03*
%TD*%
M02*
